<?xml version="1.0" encoding="utf-8"?>
<!-- Generator: Adobe Illustrator 16.0.0, SVG Export Plug-In . SVG Version: 6.00 Build 0)  -->
<!DOCTYPE svg PUBLIC "-//W3C//DTD SVG 1.1//EN" "http://www.w3.org/Graphics/SVG/1.1/DTD/svg11.dtd">
<svg version="1.1" id="Layer_1" xmlns="http://www.w3.org/2000/svg" xmlns:xlink="http://www.w3.org/1999/xlink" x="0px" y="0px"
	 width="512px" height="512px" viewBox="0 0 512 512" enable-background="new 0 0 512 512" xml:space="preserve">
<g id="Layer_1_1_">
	<g id="Layer_2" display="none">
	</g>
	<g id="shadows">
		<g opacity="0.9">
			<g>
				<path fill="#B7B7B7" d="M466.5,381.5c0,48.6-39.4,88-88,88h-246c-48.604,0-88-39.4-88-88V164.833c0-48.601,39.396-88,88-88
					c0,0,56.889,25.138,130.5,41.167c1.341,0.292,203.5,32.882,203.5,46.833V381.5z"/>
			</g>
		</g>
		<g>
			<g>
				<path fill="#FFFFFF" d="M466.5,360.5c0,48.6-39.4,88-88,88h-246c-48.604,0-88-39.4-88-88V143.833c0-48.601,39.396-88,88-88
					L289,136c48.6,0,177.5-40.768,177.5,7.833V360.5z"/>
			</g>
		</g>
	</g>
	
		<radialGradient id="SVGID_1_" cx="279.5803" cy="0.8291" r="203.7994" gradientTransform="matrix(1 0 0 -1 -25.0796 255.1641)" gradientUnits="userSpaceOnUse">
		<stop  offset="0" style="stop-color:#FEEC8E"/>
		<stop  offset="0.5" style="stop-color:#FECB00"/>
		<stop  offset="1" style="stop-color:#FEA300"/>
	</radialGradient>
	<path fill="url(#SVGID_1_)" stroke="#E2E2E2" stroke-width="10" stroke-miterlimit="10" d="M465.5,146v216.67c0,48.6-39.4,88-88,88
		h-246c-48.603,0-88-39.4-88-88V146c0-48.6,39.397-88,88-88h101.21c6.55,13.96,22.41,47.1,27.13,50.84
		c4.57,3.62,135.5,1.73,197.729,0.62C462.67,120.59,465.5,132.96,465.5,146z"/>
	
		<g id="svg2" xmlns:svg="http://www.w3.org/2000/svg" xmlns:inkscape="http://www.inkscape.org/namespaces/inkscape" xmlns:dc="http://purl.org/dc/elements/1.1/" xmlns:rdf="http://www.w3.org/1999/02/22-rdf-syntax-ns#" xmlns:sodipodi="http://sodipodi.sourceforge.net/DTD/sodipodi-0.dtd" xmlns:cc="http://creativecommons.org/ns#" sodipodi:docname="amazon.svg" inkscape:version="0.48.4 r9939" display="none">
		
			<sodipodi:namedview  inkscape:cx="125.01135" inkscape:cy="331.75675" showgrid="false" borderopacity="1.0" inkscape:zoom="0.51420519" pagecolor="#ffffff" id="base" bordercolor="#666666" inkscape:window-maximized="1" inkscape:window-height="719" inkscape:document-units="px" inkscape:current-layer="layer1" inkscape:window-y="25" inkscape:pageopacity="0.0" inkscape:window-width="1360" inkscape:window-x="0" inkscape:pageshadow="2">
			</sodipodi:namedview>
		<path display="inline" fill="#EF3A24" d="M50.502,119.833h409.992c-12.802-32.778-44.688-56-81.996-56H132.5
			C95.188,63.833,63.304,87.055,50.502,119.833z"/>
		<g display="inline">
			<g>
				<rect x="172.5" y="147" fill="none" width="305" height="240"/>
				<text transform="matrix(1 0 0 1 172.4998 336.999)" fill="#FF9900" font-family="'Tahoma'" font-size="250">A</text>
			</g>
		</g>
	</g>
	<ellipse display="none" fill="#B4DFF7" cx="147.5" cy="178" rx="63" ry="61.5"/>
	<circle display="none" fill="#31C4E9" cx="146.5" cy="171.5" r="62"/>
</g>
<g id="Layer_3" display="none">
	<path display="inline" fill="#200A7F" stroke="#18E5EA" stroke-width="20" stroke-miterlimit="10" d="M401.137,212.167
		c5.104,15.338,7.863,31.744,7.863,48.795c0,85.328-69.176,154.5-154.5,154.5c-85.328,0-154.5-69.172-154.5-154.5
		s69.172-154.5,154.5-154.5c51.227,0,96.63,24.93,124.735,63.319"/>
	<path display="inline" fill="#EF0B79" d="M333.363,255.151c0,4.226-3.301,7.651-7.371,7.651H174.872
		c-4.072,0-7.372-3.425-7.372-7.651l0,0c0-4.226,3.3-7.651,7.372-7.651H325.99C330.063,247.5,333.363,250.925,333.363,255.151
		L333.363,255.151z"/>
	<path display="inline" fill="#EF0B79" d="M333.363,284.797c0,4.227-3.301,7.65-7.371,7.65H174.872c-4.072,0-7.372-3.426-7.372-7.65
		l0,0c0-4.227,3.3-7.65,7.372-7.65H325.99C330.063,277.146,333.363,280.57,333.363,284.797L333.363,284.797z"/>
	<path display="inline" fill="#EF0B79" d="M333.363,313.008c0,4.227-3.301,7.651-7.371,7.651H174.872
		c-4.072,0-7.372-3.427-7.372-7.651l0,0c0-4.225,3.3-7.65,7.372-7.65H325.99C330.063,305.357,333.363,308.783,333.363,313.008
		L333.363,313.008z"/>
	<path display="inline" fill="#EF0B79" d="M333.363,338.352c0,4.229-3.301,7.651-7.371,7.651H174.872
		c-4.072,0-7.372-3.426-7.372-7.651l0,0c0-4.225,3.3-7.646,7.372-7.646H325.99C330.063,330.701,333.363,334.127,333.363,338.352
		L333.363,338.352z"/>
	<polygon display="inline" fill="#18E5EA" points="394.99,191.49 320.191,165.163 380.392,113.547 	"/>
	<g display="inline">
		<g>
			<g>
				<path fill="#E9F21C" d="M241.48,239.22c-2.284,0-4.441-1.068-5.833-2.901l-18.76-24.775c-2.44-3.222-1.805-7.81,1.417-10.251
					c3.229-2.442,7.813-1.803,10.253,1.417l12.338,16.293l31.033-49.826c2.135-3.429,6.646-4.478,10.082-2.344
					c3.432,2.135,4.479,6.65,2.342,10.08l-36.658,58.857c-1.271,2.047-3.472,3.333-5.879,3.442
					C241.702,239.217,241.592,239.22,241.48,239.22z"/>
			</g>
		</g>
	</g>
</g>
<g id="Layer_2_1_" display="none">
	<rect x="121" y="171.5" display="inline" fill="none" width="298" height="251"/>
	
		<text transform="matrix(1 0 0 1 120.9998 348.998)" display="inline" fill="#EF3A24" font-family="'MyriadPro-Regular'" font-size="250">24</text>
	<circle display="inline" fill="#FFFFFF" cx="138.25" cy="91.833" r="17.25"/>
	<circle display="inline" fill="#FFFFFF" cx="185.25" cy="91.833" r="17.25"/>
	<circle display="inline" fill="#FFFFFF" cx="232.25" cy="91.833" r="17.25"/>
	<circle display="inline" fill="#FFFFFF" cx="278.25" cy="91.833" r="17.25"/>
	<circle display="inline" fill="#FFFFFF" cx="323.25" cy="91.833" r="17.25"/>
	<circle display="inline" fill="#FFFFFF" cx="368.25" cy="91.833" r="17.25"/>
</g>
<g>
	<g>
		<path fill="#FFFDFD" stroke="#000000" stroke-miterlimit="10" d="M248,196.242l-115.632,95.326c0,0.135-0.033,0.333-0.102,0.603
			c-0.066,0.268-0.101,0.462-0.101,0.6v96.527c0,3.486,1.274,6.506,3.822,9.05c2.547,2.545,5.563,3.825,9.049,3.825h77.22v-77.225
			h51.487v77.228h77.22c3.485,0,6.506-1.277,9.05-3.828c2.548-2.541,3.825-5.563,3.825-9.05v-96.527
			c0-0.535-0.072-0.939-0.203-1.202L248,196.242z"/>
		<path fill="#FFFDFD" stroke="#000000" stroke-miterlimit="10" d="M407.873,269.849l-44.038-36.601v-82.05
			c0-1.876-0.604-3.419-1.813-4.626c-1.2-1.206-2.742-1.809-4.622-1.809h-38.611c-1.878,0-3.42,0.603-4.628,1.809
			c-1.205,1.207-1.807,2.75-1.807,4.626v39.214l-49.068-41.026c-4.285-3.486-9.381-5.229-15.281-5.229
			c-5.899,0-10.994,1.742-15.284,5.229L88.124,269.849c-1.34,1.07-2.074,2.512-2.211,4.322c-0.136,1.809,0.333,3.389,1.407,4.729
			l12.468,14.882c1.074,1.205,2.479,1.943,4.224,2.213c1.609,0.135,3.218-0.335,4.828-1.407L248,178.547l139.163,116.04
			c1.074,0.935,2.479,1.401,4.224,1.401h0.604c1.741-0.265,3.144-1.007,4.224-2.21l12.47-14.88c1.072-1.343,1.542-2.92,1.402-4.73
			C409.948,272.362,409.211,270.921,407.873,269.849z"/>
	</g>
</g>
</svg>
