<?xml version="1.0" encoding="utf-8"?>
<!-- Generator: Adobe Illustrator 16.0.0, SVG Export Plug-In . SVG Version: 6.00 Build 0)  -->
<!DOCTYPE svg PUBLIC "-//W3C//DTD SVG 1.1//EN" "http://www.w3.org/Graphics/SVG/1.1/DTD/svg11.dtd">
<svg version="1.1" id="Layer_1" xmlns="http://www.w3.org/2000/svg" xmlns:xlink="http://www.w3.org/1999/xlink" x="0px" y="0px"
	 width="512px" height="512px" viewBox="0 0 512 512" enable-background="new 0 0 512 512" xml:space="preserve">
<g id="Layer_1_1_">
	<g id="Layer_2" display="none">
	</g>
	<g id="shadows">
		<g opacity="0.9">
			<g>
				<path fill="#B7B7B7" d="M466.5,381.5c0,48.6-39.4,88-88,88h-246c-48.604,0-88-39.4-88-88V164.833c0-48.601,39.396-88,88-88
					c0,0,56.889,25.138,130.5,41.167c1.341,0.292,203.5,32.882,203.5,46.833V381.5z"/>
			</g>
		</g>
		<g>
			<g>
				<path fill="#FFFFFF" d="M466.5,360.5c0,48.6-39.4,88-88,88h-246c-48.604,0-88-39.4-88-88V143.833c0-48.601,39.396-88,88-88
					L289,136c48.6,0,177.5-40.768,177.5,7.833V360.5z"/>
			</g>
		</g>
	</g>
	
		<radialGradient id="SVGID_1_" cx="279.5803" cy="0.8291" r="203.7994" gradientTransform="matrix(1 0 0 -1 -25.0796 255.1641)" gradientUnits="userSpaceOnUse">
		<stop  offset="0" style="stop-color:#FEEC8E"/>
		<stop  offset="0.5" style="stop-color:#FECB00"/>
		<stop  offset="1" style="stop-color:#FEA300"/>
	</radialGradient>
	<path fill="url(#SVGID_1_)" stroke="#E2E2E2" stroke-width="10" stroke-miterlimit="10" d="M465.5,146v216.67c0,48.6-39.4,88-88,88
		h-246c-48.603,0-88-39.4-88-88V146c0-48.6,39.397-88,88-88h101.21c6.55,13.96,22.41,47.1,27.13,50.84
		c4.57,3.62,135.5,1.73,197.729,0.62C462.67,120.59,465.5,132.96,465.5,146z"/>
	
		<g id="svg2" xmlns:dc="http://purl.org/dc/elements/1.1/" xmlns:inkscape="http://www.inkscape.org/namespaces/inkscape" xmlns:svg="http://www.w3.org/2000/svg" xmlns:sodipodi="http://sodipodi.sourceforge.net/DTD/sodipodi-0.dtd" xmlns:cc="http://creativecommons.org/ns#" xmlns:rdf="http://www.w3.org/1999/02/22-rdf-syntax-ns#" inkscape:version="0.48.4 r9939" sodipodi:docname="amazon.svg" display="none">
		
			<sodipodi:namedview  bordercolor="#666666" id="base" pagecolor="#ffffff" inkscape:zoom="0.51420519" borderopacity="1.0" showgrid="false" inkscape:cy="331.75675" inkscape:cx="125.01135" inkscape:pageshadow="2" inkscape:pageopacity="0.0" inkscape:window-y="25" inkscape:window-height="719" inkscape:window-maximized="1" inkscape:window-x="0" inkscape:window-width="1360" inkscape:current-layer="layer1" inkscape:document-units="px">
			</sodipodi:namedview>
		<path display="inline" fill="#EF3A24" d="M50.502,119.833h409.992c-12.802-32.778-44.688-56-81.996-56H132.5
			C95.188,63.833,63.304,87.055,50.502,119.833z"/>
		<g display="inline">
			<g>
				<rect x="172.5" y="147" fill="none" width="305" height="240"/>
				<text transform="matrix(1 0 0 1 172.4998 336.999)" fill="#FF9900" font-family="'Tahoma'" font-size="250">A</text>
			</g>
		</g>
	</g>
	<ellipse display="none" fill="#B4DFF7" cx="147.5" cy="178" rx="63" ry="61.5"/>
	<circle display="none" fill="#31C4E9" cx="146.5" cy="171.5" r="62"/>
</g>
<g id="Layer_3" display="none">
	<path display="inline" fill="#200A7F" stroke="#18E5EA" stroke-width="20" stroke-miterlimit="10" d="M401.137,212.167
		c5.104,15.338,7.863,31.744,7.863,48.795c0,85.328-69.176,154.5-154.5,154.5c-85.328,0-154.5-69.172-154.5-154.5
		s69.172-154.5,154.5-154.5c51.227,0,96.63,24.93,124.735,63.319"/>
	<path display="inline" fill="#EF0B79" d="M333.363,255.151c0,4.226-3.301,7.651-7.371,7.651H174.872
		c-4.072,0-7.372-3.425-7.372-7.651l0,0c0-4.226,3.3-7.651,7.372-7.651H325.99C330.063,247.5,333.363,250.925,333.363,255.151
		L333.363,255.151z"/>
	<path display="inline" fill="#EF0B79" d="M333.363,284.797c0,4.227-3.301,7.65-7.371,7.65H174.872c-4.072,0-7.372-3.426-7.372-7.65
		l0,0c0-4.227,3.3-7.65,7.372-7.65H325.99C330.063,277.146,333.363,280.57,333.363,284.797L333.363,284.797z"/>
	<path display="inline" fill="#EF0B79" d="M333.363,313.008c0,4.227-3.301,7.651-7.371,7.651H174.872
		c-4.072,0-7.372-3.427-7.372-7.651l0,0c0-4.225,3.3-7.65,7.372-7.65H325.99C330.063,305.357,333.363,308.783,333.363,313.008
		L333.363,313.008z"/>
	<path display="inline" fill="#EF0B79" d="M333.363,338.352c0,4.229-3.301,7.651-7.371,7.651H174.872
		c-4.072,0-7.372-3.426-7.372-7.651l0,0c0-4.225,3.3-7.646,7.372-7.646H325.99C330.063,330.701,333.363,334.127,333.363,338.352
		L333.363,338.352z"/>
	<polygon display="inline" fill="#18E5EA" points="394.99,191.49 320.191,165.163 380.392,113.547 	"/>
	<g display="inline">
		<g>
			<g>
				<path fill="#E9F21C" d="M241.48,239.22c-2.284,0-4.441-1.068-5.833-2.901l-18.76-24.775c-2.44-3.222-1.805-7.81,1.417-10.251
					c3.229-2.442,7.813-1.803,10.253,1.417l12.338,16.293l31.033-49.826c2.135-3.429,6.646-4.478,10.082-2.344
					c3.432,2.135,4.479,6.65,2.342,10.08l-36.658,58.857c-1.271,2.047-3.472,3.333-5.879,3.442
					C241.702,239.217,241.592,239.22,241.48,239.22z"/>
			</g>
		</g>
	</g>
</g>
<g id="Layer_2_1_" display="none">
	<rect x="121" y="171.5" display="inline" fill="none" width="298" height="251"/>
	
		<text transform="matrix(1 0 0 1 120.9998 348.998)" display="inline" fill="#EF3A24" font-family="'MyriadPro-Regular'" font-size="250">24</text>
	<circle display="inline" fill="#FFFFFF" cx="138.25" cy="91.833" r="17.25"/>
	<circle display="inline" fill="#FFFFFF" cx="185.25" cy="91.833" r="17.25"/>
	<circle display="inline" fill="#FFFFFF" cx="232.25" cy="91.833" r="17.25"/>
	<circle display="inline" fill="#FFFFFF" cx="278.25" cy="91.833" r="17.25"/>
	<circle display="inline" fill="#FFFFFF" cx="323.25" cy="91.833" r="17.25"/>
	<circle display="inline" fill="#FFFFFF" cx="368.25" cy="91.833" r="17.25"/>
</g>
<path fill="#FFFFFF" stroke="#231F20" stroke-width="3" stroke-miterlimit="10" d="M319.74,152.406
	c-0.96-0.273-1.979-0.406-3.035-0.406l0,0H158.871c-16.754,0-30.354,13.599-30.354,30.352v115.341l0,0
	c0,6.699,5.439,12.143,12.142,12.143l0,0c6.702,0,12.142-5.443,12.142-12.143l0,0l0,0l0,0V194.495
	c0-10.055,8.16-18.213,18.212-18.213h145.694l0,0c1.056,0,2.074-0.132,3.034-0.405c0.96,0.272,1.979,0.405,3.035,0.405l0,0h18.213
	c10.055,0,18.211,8.158,18.211,18.213v18.211l0,0c0,6.699,5.442,12.141,12.143,12.141l0,0c6.699,0,12.141-5.441,12.141-12.141l0,0
	v-30.354c0-16.753-13.6-30.352-30.353-30.352h-30.354l0,0C321.721,152,320.7,152.133,319.74,152.406z M280.164,291.623
	L280.164,291.623L280.164,291.623c1.334,0,2.668,0.118,4.008,0.367c3.271,0.486,6.492,1.396,9.468,2.785
	c3.035,1.281,5.708,3.347,7.713,6.013c0.965,1.399,1.754,2.978,2.239,4.612c0.729,2.431,1.092,4.922,1.032,7.471
	c0.06,2.549-0.303,5.039-1.032,7.47c-0.485,1.638-1.274,3.214-2.239,4.612c-2.005,2.668-4.678,4.73-7.713,6.012
	c-2.976,1.393-6.196,2.299-9.468,2.786c-1.281,0.249-2.615,0.367-3.889,0.367h-84.931c-3.216,0-6.31,1.274-8.557,3.581
	c-2.247,2.246-3.583,5.341-3.583,8.56c0,3.22,1.337,6.314,3.583,8.562c2.247,2.306,5.341,3.58,8.557,3.58h84.989
	c0.06,0,0.185,0,0.244,0c2.43-0.06,4.913-0.242,7.345-0.664c5.405-0.795,10.623-2.313,15.604-4.553
	c6.858-3.035,12.806-7.776,17.357-13.783c2.615-3.646,4.618-7.713,5.952-11.957c1.398-4.737,2.123-9.65,2.063-14.571
	c0.061-4.922-0.664-9.835-2.063-14.572c-1.334-4.243-3.337-8.312-5.952-11.957c-4.553-6.007-10.499-10.748-17.357-13.782
	c-4.979-2.242-10.197-3.76-15.604-4.555c-2.432-0.421-4.915-0.604-7.345-0.663c-0.148,0-0.31,0-0.457,0h-47.106
	c-0.389-0.042-0.783-0.06-1.183-0.06l0,0c-1.337-0.059-2.671-0.184-4.008-0.428c-3.278-0.428-6.494-1.397-9.471-2.731
	c-3.035-1.334-5.707-3.397-7.71-6.006c-0.969-1.399-1.757-2.976-2.244-4.618c-0.729-2.425-1.094-4.975-1.031-7.464
	c-0.063-2.549,0.303-5.099,1.031-7.53c0.486-1.636,1.275-3.219,2.244-4.612c2.004-2.609,4.675-4.678,7.71-6.011
	c2.977-1.334,6.192-2.306,9.471-2.733c1.274-0.243,2.611-0.361,3.887-0.361h84.928c3.213,0,6.309-1.275,8.563-3.58
	c2.238-2.248,3.579-5.348,3.579-8.561c0-3.219-1.341-6.313-3.579-8.623c-2.254-2.243-5.35-3.518-8.563-3.518H231.66
	c-0.063,0-0.185,0-0.243,0c-2.432,0-4.918,0.243-7.347,0.667c-5.402,0.789-10.624,2.307-15.604,4.553
	c-6.859,2.973-12.808,7.77-17.361,13.781c-2.611,3.639-4.616,7.647-5.95,11.958c-1.396,4.736-2.125,9.591-2.063,14.572
	c-0.063,4.914,0.667,9.828,2.063,14.505c1.334,4.311,3.339,8.377,5.95,11.959c4.554,6.012,10.502,10.807,17.361,13.842
	c4.979,2.188,10.2,3.705,15.604,4.553c2.428,0.361,4.915,0.61,7.347,0.67c0.077,0,0.155,0,0.243,0l0.059,0.06h48.445V291.623
	L280.164,291.623L280.164,291.623z M189.224,382.684L189.224,382.684c6.702,0,12.142,5.441,12.142,12.142l0,0
	c0,6.699-5.438,12.141-12.142,12.141l0,0h-30.353c-16.754,0-30.354-13.6-30.354-30.353v-30.354l0,0
	c0-6.698,5.439-12.141,12.142-12.141l0,0c6.702,0,12.142,5.44,12.142,12.141l0,0v18.214c0,10.053,8.16,18.211,18.212,18.211H189.224
	L189.224,382.684L189.224,382.684L189.224,382.684z M359.199,267.342L359.199,267.342c0-6.699,5.442-12.141,12.143-12.141l0,0
	c6.699,0,12.141,5.441,12.141,12.141l0,0v109.271c0,16.753-13.6,30.353-30.353,30.353H243.859l0,0
	c-6.701,0-12.141-5.44-12.141-12.141l0,0c0-6.699,5.438-12.142,12.141-12.142l0,0h97.13c10.055,0,18.211-8.158,18.211-18.211
	V267.342L359.199,267.342z"/>
</svg>
