<?xml version="1.0" encoding="utf-8"?>
<!-- Generator: Adobe Illustrator 16.0.0, SVG Export Plug-In . SVG Version: 6.00 Build 0)  -->
<!DOCTYPE svg PUBLIC "-//W3C//DTD SVG 1.1//EN" "http://www.w3.org/Graphics/SVG/1.1/DTD/svg11.dtd">
<svg version="1.1" id="Layer_1" xmlns="http://www.w3.org/2000/svg" xmlns:xlink="http://www.w3.org/1999/xlink" x="0px" y="0px"
	 width="512px" height="512px" viewBox="0 0 512 512" enable-background="new 0 0 512 512" xml:space="preserve">
<g id="Layer_1_1_">
	<g id="Layer_2" display="none">
	</g>
	<g id="shadows">
		<g opacity="0.9">
			<g>
				<path fill="#B7B7B7" d="M465.5,151.5c-1.35-8.84-4-17.24-7.77-25H55.436c-0.936,1.149-2.098,2.125-3.482,2.858
					c-4.79,10.847-7.454,22.85-7.454,35.472V381.5c0,48.6,39.4,88,88,88h246c48.6,0,88-39.4,88-88V164.83
					C466.5,160.3,466.16,155.85,465.5,151.5z"/>
			</g>
		</g>
		<g>
			<g>
				<path fill="#FFFFFF" d="M464.79,126.5c-8.05-40.3-43.62-70.67-86.29-70.67h-246c-32.424,0-60.754,17.539-76.017,43.65
					c0.076,0.049,0.15,0.1,0.225,0.151C72.233,74.643,99.922,58,131.5,58h246c41.9,0,76.96,29.28,85.83,68.5H55.436
					c-2.089,2.566-5.283,4.302-9.602,4.302c-0.127,0-0.244-0.015-0.369-0.018c-0.634,4.257-0.964,8.615-0.964,13.046V360.5
					c0,48.6,39.4,88,88,88h246c35.07,0,65.35-20.52,79.49-50.21c5.46-11.45,8.51-24.26,8.51-37.79V143.83
					C466.5,137.9,465.91,132.1,464.79,126.5z"/>
			</g>
		</g>
	</g>
	<radialGradient id="SVGID_1_" cx="254.5002" cy="279.4395" r="192.1469" gradientUnits="userSpaceOnUse">
		<stop  offset="0" style="stop-color:#F452A6"/>
		<stop  offset="0.5" style="stop-color:#EF047F"/>
		<stop  offset="1" style="stop-color:#CE037E"/>
	</radialGradient>
	<path fill="url(#SVGID_1_)" stroke="#E2E2E2" stroke-width="10" stroke-miterlimit="10" d="M463.33,126.5H55.436
		c-2.089,2.566-5.283,4.302-9.602,4.302c-0.348,0-0.677-0.027-1.011-0.049C43.957,135.706,43.5,140.8,43.5,146v216.67
		c0,4.53,0.34,8.98,1,13.33c6.43,42.28,42.93,74.67,87,74.67h246c35.92,0,66.82-21.52,80.49-52.38c4.83-10.89,7.51-22.94,7.51-35.62
		V146C465.5,139.3,464.75,132.77,463.33,126.5z"/>
	
		<g id="svg2" xmlns:dc="http://purl.org/dc/elements/1.1/" xmlns:inkscape="http://www.inkscape.org/namespaces/inkscape" xmlns:svg="http://www.w3.org/2000/svg" xmlns:sodipodi="http://sodipodi.sourceforge.net/DTD/sodipodi-0.dtd" xmlns:cc="http://creativecommons.org/ns#" xmlns:rdf="http://www.w3.org/1999/02/22-rdf-syntax-ns#" inkscape:version="0.48.4 r9939" sodipodi:docname="amazon.svg" display="none">
		
			<sodipodi:namedview  bordercolor="#666666" id="base" pagecolor="#ffffff" inkscape:zoom="0.51420519" borderopacity="1.0" showgrid="false" inkscape:cy="331.75675" inkscape:cx="125.01135" inkscape:pageshadow="2" inkscape:pageopacity="0.0" inkscape:window-y="25" inkscape:window-height="719" inkscape:window-maximized="1" inkscape:window-x="0" inkscape:window-width="1360" inkscape:current-layer="layer1" inkscape:document-units="px">
			</sodipodi:namedview>
		<path display="inline" fill="#EF3A24" d="M50.502,119.833h409.995c-12.802-32.778-44.688-56-81.997-56h-246
			C95.188,63.833,63.304,87.055,50.502,119.833z"/>
		<g display="inline">
			<g>
				<rect x="172.5" y="147" fill="none" width="305" height="240"/>
				<text transform="matrix(1 0 0 1 172.4998 336.999)" fill="#FF9900" font-family="'Tahoma'" font-size="250">A</text>
			</g>
		</g>
	</g>
	<ellipse display="none" fill="#B4DFF7" cx="147.5" cy="178" rx="63" ry="61.5"/>
	<circle display="none" fill="#31C4E9" cx="146.5" cy="171.5" r="62"/>
</g>
<g id="Layer_3" display="none">
	<path display="inline" fill="#200A7F" stroke="#18E5EA" stroke-width="20" stroke-miterlimit="10" d="M401.137,212.167
		c5.104,15.338,7.863,31.744,7.863,48.795c0,85.328-69.173,154.5-154.5,154.5c-85.328,0-154.5-69.172-154.5-154.5
		s69.172-154.5,154.5-154.5c51.227,0,96.63,24.93,124.738,63.319"/>
	<path display="inline" fill="#EF0B79" d="M333.363,255.151c0,4.226-3.301,7.651-7.371,7.651H174.872
		c-4.072,0-7.372-3.425-7.372-7.651l0,0c0-4.226,3.3-7.651,7.372-7.651h151.119C330.063,247.5,333.363,250.925,333.363,255.151
		L333.363,255.151z"/>
	<path display="inline" fill="#EF0B79" d="M333.363,284.797c0,4.227-3.301,7.65-7.371,7.65H174.872c-4.072,0-7.372-3.426-7.372-7.65
		l0,0c0-4.227,3.3-7.65,7.372-7.65h151.119C330.063,277.146,333.363,280.57,333.363,284.797L333.363,284.797z"/>
	<path display="inline" fill="#EF0B79" d="M333.363,313.008c0,4.227-3.301,7.651-7.371,7.651H174.872
		c-4.072,0-7.372-3.427-7.372-7.651l0,0c0-4.225,3.3-7.65,7.372-7.65h151.119C330.063,305.357,333.363,308.783,333.363,313.008
		L333.363,313.008z"/>
	<path display="inline" fill="#EF0B79" d="M333.363,338.352c0,4.229-3.301,7.651-7.371,7.651H174.872
		c-4.072,0-7.372-3.426-7.372-7.651l0,0c0-4.225,3.3-7.647,7.372-7.647h151.119C330.063,330.701,333.363,334.127,333.363,338.352
		L333.363,338.352z"/>
	<polygon display="inline" fill="#18E5EA" points="394.991,191.49 320.191,165.163 380.392,113.547 	"/>
	<g display="inline">
		<g>
			<g>
				<path fill="#E9F21C" d="M241.48,239.22c-2.284,0-4.444-1.068-5.833-2.901l-18.76-24.775c-2.44-3.222-1.805-7.81,1.417-10.251
					c3.229-2.442,7.813-1.803,10.253,1.417l12.338,16.293l31.033-49.826c2.135-3.429,6.646-4.478,10.082-2.344
					c3.432,2.135,4.479,6.65,2.342,10.08l-36.658,58.857c-1.272,2.047-3.472,3.333-5.879,3.442
					C241.702,239.217,241.592,239.22,241.48,239.22z"/>
			</g>
		</g>
	</g>
</g>
<g id="Layer_2_1_" display="none">
	<rect x="121" y="171.5" display="inline" fill="none" width="298" height="251"/>
	
		<text transform="matrix(1 0 0 1 120.9998 348.998)" display="inline" fill="#EF3A24" font-family="'MyriadPro-Regular'" font-size="250">24</text>
	<circle display="inline" fill="#FFFFFF" cx="138.25" cy="91.833" r="17.25"/>
	<circle display="inline" fill="#FFFFFF" cx="185.25" cy="91.833" r="17.25"/>
	<circle display="inline" fill="#FFFFFF" cx="232.25" cy="91.833" r="17.25"/>
	<circle display="inline" fill="#FFFFFF" cx="278.25" cy="91.833" r="17.25"/>
	<circle display="inline" fill="#FFFFFF" cx="323.25" cy="91.833" r="17.25"/>
	<circle display="inline" fill="#FFFFFF" cx="368.25" cy="91.833" r="17.25"/>
</g>
<g>
	<linearGradient id="SVGID_2_" gradientUnits="userSpaceOnUse" x1="43.5002" y1="55.833" x2="465.5002" y2="55.833">
		<stop  offset="0" style="stop-color:#D471AD"/>
		<stop  offset="0.5" style="stop-color:#C7158C"/>
		<stop  offset="1" style="stop-color:#9D248E"/>
	</linearGradient>
	<radialGradient id="SVGID_3_" cx="254.5002" cy="55.833" r="153.7197" gradientUnits="userSpaceOnUse">
		<stop  offset="0.0056" style="stop-color:#FFFEEE"/>
		<stop  offset="0.2849" style="stop-color:#F3F4E9"/>
		<stop  offset="0.7472" style="stop-color:#D7DADE"/>
		<stop  offset="0.8764" style="stop-color:#DCD8D4"/>
	</radialGradient>
	<path fill="url(#SVGID_2_)" stroke="url(#SVGID_3_)" stroke-width="8" stroke-miterlimit="10" d="M465.5,56.396
		c0-3.1-4.062-5.632-9.045-5.632H310.643V36.682c0-4.96-6.516-9.013-14.495-9.013h-81.496c-7.984,0-14.492,4.057-14.492,9.013
		v14.079H52.549c-4.98,0-9.048,2.535-9.048,5.63v27.605h422V56.396z"/>
</g>
<line fill="none" stroke="#FFFFFF" stroke-width="20" stroke-miterlimit="10" x1="195.84" y1="169.18" x2="195.84" y2="416.5"/>
<line fill="none" stroke="#FFFFFF" stroke-width="20" stroke-miterlimit="10" x1="244.67" y1="169.18" x2="244.67" y2="416.5"/>
<line fill="none" stroke="#FFFFFF" stroke-width="20" stroke-miterlimit="10" x1="293.5" y1="169.18" x2="293.5" y2="416.5"/>
</svg>
