<?xml version="1.0" encoding="utf-8"?>
<!-- Generator: Adobe Illustrator 24.0.1, SVG Export Plug-In . SVG Version: 6.00 Build 0)  -->
<svg version="1.1" id="Layer_1" xmlns="http://www.w3.org/2000/svg" xmlns:xlink="http://www.w3.org/1999/xlink" x="0px" y="0px"
	 viewBox="0 0 512 512" style="enable-background:new 0 0 512 512;" xml:space="preserve">
<style type="text/css">
	.st0{display:none;}
	.st1{opacity:0.9;}
	.st2{fill:#B7B7B7;}
	.st3{fill:#FFFFFF;}
	.st4{fill:#FFFFFF;stroke:#7F7F7F;stroke-width:2;stroke-miterlimit:10;}
	.st5{fill:none;}
	.st6{fill:#FFCE00;}
</style>
<g id="Layer_1_1_">
	<g id="Layer_2_1_" class="st0">
	</g>
	<g id="shadows">
		<g class="st1">
			<g>
				<path class="st2" d="M466.5,381.5c0,48.6-39.4,88-88,88h-246c-48.6,0-88-39.4-88-88V164.8c0-48.6,39.4-88,88-88h246
					c48.6,0,88,39.4,88,88V381.5z"/>
			</g>
		</g>
		<g>
			<g>
				<path class="st3" d="M466.5,360.5c0,48.6-39.4,88-88,88h-246c-48.6,0-88-39.4-88-88V143.8c0-48.6,39.4-88,88-88h246
					c48.6,0,88,39.4,88,88V360.5z"/>
			</g>
		</g>
	</g>
	<path class="st4" d="M465.5,362.7c0,48.6-39.4,88-88,88h-246c-48.6,0-88-39.4-88-88V146c0-48.6,39.4-88,88-88h246
		c48.6,0,88,39.4,88,88V362.7z"/>
</g>
<rect x="129.5" y="124.5" class="st5" width="255" height="248"/>
<path text-rendering="auto" image-rendering="auto" color-rendering="auto" shape-rendering="auto" class="st6" d="M195.3,122.5v36
	h12v60.7c-13.9,2.8-24,15.1-24,29.3c0,14.2,10.1,26.5,24,29.4v60.6h-12v36h36v-36h-12v-42.4c23.9,47.3,80.8,78.2,144.1,78.4
	c4,0,8-0.2,12-0.5v-12c-4,0.3-8,0.4-12,0.4c-65.9-0.1-123.3-35.5-139.5-86c11.7-4.4,19.4-15.6,19.4-28c0-12.5-7.7-23.7-19.4-28.1
	c16.2-50.5,73.6-85.9,139.5-86c4,0,8,0.2,12,0.5v-12.1c-4-0.3-8-0.4-12-0.4c-63.2,0.1-120.1,31-144.1,78.2v-42.2h12v-36L195.3,122.5
	z M207.3,134.5h12v12h-12V134.5z M213.3,230.6c9.9,0,18,8.1,18,18c0,9.9-8.1,18-18,18s-18-8.1-18-18
	C195.3,238.6,203.4,230.6,213.3,230.6 M207.3,350.6h12v12h-12V350.6z"/>
</svg>
