<?xml version="1.0" encoding="utf-8"?>
<!-- Generator: Adobe Illustrator 24.0.1, SVG Export Plug-In . SVG Version: 6.00 Build 0)  -->
<svg version="1.1" id="Layer_1" xmlns="http://www.w3.org/2000/svg" xmlns:xlink="http://www.w3.org/1999/xlink" x="0px" y="0px"
	 viewBox="0 0 512 512" style="enable-background:new 0 0 512 512;" xml:space="preserve">
<style type="text/css">
	.st0{display:none;}
	.st1{opacity:0.9;}
	.st2{fill:#B7B7B7;}
	.st3{fill:#FFFFFF;}
	.st4{fill:#FFFFFF;stroke:#7F7F7F;stroke-width:2;stroke-miterlimit:10;}
	.st5{fill:none;}
	.st6{fill:#036B53;}
</style>
<g id="Layer_1_1_">
	<g id="Layer_2_1_" class="st0">
	</g>
	<g id="shadows">
		<g class="st1">
			<g>
				<path class="st2" d="M466.5,381.5c0,48.6-39.4,88-88,88h-246c-48.6,0-88-39.4-88-88V164.8c0-48.6,39.4-88,88-88h246
					c48.6,0,88,39.4,88,88V381.5z"/>
			</g>
		</g>
		<g>
			<g>
				<path class="st3" d="M466.5,360.5c0,48.6-39.4,88-88,88h-246c-48.6,0-88-39.4-88-88V143.8c0-48.6,39.4-88,88-88h246
					c48.6,0,88,39.4,88,88V360.5z"/>
			</g>
		</g>
	</g>
	<path class="st4" d="M465.5,362.7c0,48.6-39.4,88-88,88h-246c-48.6,0-88-39.4-88-88V146c0-48.6,39.4-88,88-88h246
		c48.6,0,88,39.4,88,88V362.7z"/>
</g>
<rect x="129.5" y="124.5" class="st5" width="255" height="248"/>
<path class="st6" d="M127,125.5v261h255v-261H127z M138.6,184.8h231.8v189.8H138.6V184.8z M231.3,220.4v51h11.6v-39.2h23.2v39.2
	h11.6v-51L231.3,220.4z M204.7,271.3l-8.2,8.4l58,59.3l58-59.3l-8.2-8.4l-49.8,50.9l-11.6-11.9L204.7,271.3z"/>
</svg>
