<?xml version="1.0" encoding="utf-8"?>
<!-- Generator: Adobe Illustrator 24.0.1, SVG Export Plug-In . SVG Version: 6.00 Build 0)  -->
<svg version="1.1" id="Layer_1" xmlns="http://www.w3.org/2000/svg" xmlns:xlink="http://www.w3.org/1999/xlink" x="0px" y="0px"
	 viewBox="0 0 512 512" style="enable-background:new 0 0 512 512;" xml:space="preserve">
<style type="text/css">
	.st0{display:none;}
	.st1{opacity:0.9;}
	.st2{fill:#B7B7B7;}
	.st3{fill:#FFFFFF;}
	.st4{fill:#FFFFFF;stroke:#7F7F7F;stroke-width:2;stroke-miterlimit:10;}
	.st5{fill:none;}
	.st6{opacity:0.75;fill:#474746;enable-background:new    ;}
</style>
<g id="Layer_1_1_">
	<g id="Layer_2_1_" class="st0">
	</g>
	<g id="shadows">
		<g class="st1">
			<g>
				<path class="st2" d="M466.5,381.5c0,48.6-39.4,88-88,88h-246c-48.6,0-88-39.4-88-88V164.8c0-48.6,39.4-88,88-88h246
					c48.6,0,88,39.4,88,88V381.5z"/>
			</g>
		</g>
		<g>
			<g>
				<path class="st3" d="M466.5,360.5c0,48.6-39.4,88-88,88h-246c-48.6,0-88-39.4-88-88V143.8c0-48.6,39.4-88,88-88h246
					c48.6,0,88,39.4,88,88V360.5z"/>
			</g>
		</g>
	</g>
	<path class="st4" d="M465.5,362.7c0,48.6-39.4,88-88,88h-246c-48.6,0-88-39.4-88-88V146c0-48.6,39.4-88,88-88h246
		c48.6,0,88,39.4,88,88V362.7z"/>
</g>
<rect x="129.5" y="124.5" class="st5" width="255" height="248"/>
<g>
	<path class="st6" d="M257,188.1c-39.3,0-71.1,31.8-71.1,71.1s31.8,71.1,71.1,71.1s71.1-31.8,71.1-71.1S296.3,188.1,257,188.1
		 M257.9,194.2c35.7,0,64.6,28.9,64.6,64.6s-28.9,64.6-64.6,64.6s-64.6-28.9-64.6-64.6S222.2,194.2,257.9,194.2"/>
	<g image-rendering="auto" color-rendering="auto" text-rendering="auto" shape-rendering="auto">
		<path class="st6" d="M298.2,258.9l-64.6,35.8v-71.1L298.2,258.9z"/>
		<path class="st6" d="M405.6,129.9v25.9h25.9v-25.9H405.6z M405.6,168.7v25.9h25.9v-25.9H405.6z M405.6,207.5v25.9h25.9v-25.9
			H405.6z M405.6,246.3v25.9h25.9v-25.9H405.6z M405.6,285v25.9h25.9V285H405.6z M405.6,323.8v25.9h25.9v-25.9H405.6z M405.6,362.6
			v25.9h25.9v-25.9H405.6z"/>
		<path class="st6" d="M82.5,129.9v25.9h25.9v-25.9H82.5z M82.5,168.7v25.9h25.9v-25.9H82.5z M82.5,207.5v25.9h25.9v-25.9H82.5z
			 M82.5,246.3v25.9h25.9v-25.9H82.5z M82.5,285v25.9h25.9V285H82.5z M82.5,323.8v25.9h25.9v-25.9H82.5z M82.5,362.6v25.9h25.9
			v-25.9H82.5z"/>
	</g>
</g>
</svg>
