<?xml version="1.0" encoding="utf-8"?>
<!-- Generator: Adobe Illustrator 24.0.1, SVG Export Plug-In . SVG Version: 6.00 Build 0)  -->
<svg version="1.1" id="Layer_1" xmlns="http://www.w3.org/2000/svg" xmlns:xlink="http://www.w3.org/1999/xlink" x="0px" y="0px"
	 viewBox="0 0 512 512" style="enable-background:new 0 0 512 512;" xml:space="preserve">
<style type="text/css">
	.st0{display:none;}
	.st1{opacity:0.9;}
	.st2{fill:#B7B7B7;}
	.st3{fill:#FFFFFF;}
	.st4{fill:#FFFFFF;stroke:#7F7F7F;stroke-width:2;stroke-miterlimit:10;}
	.st5{fill:none;}
	.st6{fill:#FDD285;}
</style>
<g id="Layer_1_1_">
	<g id="Layer_2_1_" class="st0">
	</g>
	<g id="shadows">
		<g class="st1">
			<g>
				<path class="st2" d="M466.5,381.5c0,48.6-39.4,88-88,88h-246c-48.6,0-88-39.4-88-88V164.8c0-48.6,39.4-88,88-88h246
					c48.6,0,88,39.4,88,88V381.5z"/>
			</g>
		</g>
		<g>
			<g>
				<path class="st3" d="M466.5,360.5c0,48.6-39.4,88-88,88h-246c-48.6,0-88-39.4-88-88V143.8c0-48.6,39.4-88,88-88h246
					c48.6,0,88,39.4,88,88V360.5z"/>
			</g>
		</g>
	</g>
	<path class="st4" d="M465.5,362.7c0,48.6-39.4,88-88,88h-246c-48.6,0-88-39.4-88-88V146c0-48.6,39.4-88,88-88h246
		c48.6,0,88,39.4,88,88V362.7z"/>
</g>
<rect x="129.5" y="124.5" class="st5" width="255" height="248"/>
<path id="rect4434" class="st6" d="M129.5,131.6v256.3h145.4h11.6h92v-56.3v-18.9V131.6H129.5z M140.8,143.2h226.3v159.2
	c-16-12.5-36-19.3-56.6-19.4c-27.5,0-53.5,12.1-70.7,32.8c-14.6-6.2-31.2-9.5-48.1-9.5c-18,0-35.7,3.7-50.9,10.7V143.2z
	 M191.8,154.9c-21.9,0-39.6,18.2-39.6,40.8s17.7,40.8,39.6,40.8s39.6-18.2,39.6-40.8S213.7,154.9,191.8,154.9z M191.8,166.5
	c15.7,0,28.3,13,28.3,29.1s-12.6,29.1-28.3,29.1s-28.3-13-28.3-29.1S176.1,166.5,191.8,166.5z M310.6,294.7
	c21.3,0,41.7,8.3,56.6,22.9v58.7H288c0-21.6-13.8-42-37.3-55.2C265.7,304.3,287.6,294.7,310.6,294.7z M190.8,318c0.3,0,0.7,0,1,0
	c46.9,0,84.9,26.1,84.9,58.3H140.8v-46.4C155.2,322.3,172.7,318.2,190.8,318z"/>
</svg>
