<?xml version="1.0" encoding="utf-8"?>
<!-- Generator: Adobe Illustrator 24.0.1, SVG Export Plug-In . SVG Version: 6.00 Build 0)  -->
<svg version="1.1" id="Layer_1" xmlns="http://www.w3.org/2000/svg" xmlns:xlink="http://www.w3.org/1999/xlink" x="0px" y="0px"
	 viewBox="0 0 512 512" style="enable-background:new 0 0 512 512;" xml:space="preserve">
<style type="text/css">
	.st0{display:none;}
	.st1{opacity:0.9;}
	.st2{fill:#B7B7B7;}
	.st3{fill:#FFFFFF;}
	.st4{fill:#FFFFFF;stroke:#7F7F7F;stroke-width:2;stroke-miterlimit:10;}
	.st5{fill:none;}
	.st6{opacity:0.75;fill:#FF8500;enable-background:new    ;}
</style>
<g id="Layer_1_1_">
	<g id="Layer_2_1_" class="st0">
	</g>
	<g id="shadows">
		<g class="st1">
			<g>
				<path class="st2" d="M466.5,381.5c0,48.6-39.4,88-88,88h-246c-48.6,0-88-39.4-88-88V164.8c0-48.6,39.4-88,88-88h246
					c48.6,0,88,39.4,88,88V381.5z"/>
			</g>
		</g>
		<g>
			<g>
				<path class="st3" d="M466.5,360.5c0,48.6-39.4,88-88,88h-246c-48.6,0-88-39.4-88-88V143.8c0-48.6,39.4-88,88-88h246
					c48.6,0,88,39.4,88,88V360.5z"/>
			</g>
		</g>
	</g>
	<path class="st4" d="M465.5,362.7c0,48.6-39.4,88-88,88h-246c-48.6,0-88-39.4-88-88V146c0-48.6,39.4-88,88-88h246
		c48.6,0,88,39.4,88,88V362.7z"/>
</g>
<rect x="129.5" y="124.5" class="st5" width="255" height="248"/>
<path image-rendering="auto" color-rendering="auto" text-rendering="auto" shape-rendering="auto" class="st6" d="M146,134.6
	c-6.1,0-11,4.9-11,11.1v221.2c0,6.1,4.9,11.1,11,11.1h219.5c6.1,0,11-4.9,11-11.1V145.6c0-6.1-4.9-11.1-11-11.1H146z M146,145.6
	h219.5v221.2H146V145.6z M277.7,167.8V212h43.9C321.6,187.6,302,167.8,277.7,167.8 M255.8,178.8c-30.3,0-54.9,24.8-54.9,55.3
	s24.6,55.3,54.9,55.3c30.3,0,54.9-24.8,54.9-55.3c0-3.7-0.4-7.4-1.1-11.1h-42.8V180C263.1,179.2,259.4,178.8,255.8,178.8
	 M255.8,189.9v44.2h43.9c0,24.4-19.7,44.2-43.9,44.2s-43.9-19.8-43.9-44.2C211.8,209.7,231.5,189.9,255.8,189.9 M167.9,311.5v11.1
	h175.6v-11.1H167.9z M167.9,333.6v11.1h175.6v-11.1H167.9z"/>
</svg>
