<?xml version="1.0" encoding="utf-8"?>
<!-- Generator: Adobe Illustrator 16.0.0, SVG Export Plug-In . SVG Version: 6.00 Build 0)  -->
<!DOCTYPE svg PUBLIC "-//W3C//DTD SVG 1.1//EN" "http://www.w3.org/Graphics/SVG/1.1/DTD/svg11.dtd">
<svg version="1.1" id="Layer_1" xmlns="http://www.w3.org/2000/svg" xmlns:xlink="http://www.w3.org/1999/xlink" x="0px" y="0px"
	 width="512px" height="512px" viewBox="0 0 512 512" enable-background="new 0 0 512 512" xml:space="preserve">
<g id="Layer_1_1_">
	<g id="Layer_2" display="none">
	</g>
	<g id="shadows">
		<g opacity="0.9">
			<g>
				<path fill="#B7B7B7" d="M466.5,381.5c0,48.6-39.4,88-88,88h-246c-48.603,0-88-39.4-88-88V164.833c0-48.601,39.397-88,88-88h246
					c48.6,0,88,39.399,88,88V381.5z"/>
			</g>
		</g>
		<g>
			<g>
				<path fill="#FFFFFF" d="M466.5,360.5c0,48.6-39.4,88-88,88h-246c-48.603,0-88-39.4-88-88V143.833c0-48.601,39.397-88,88-88h246
					c48.6,0,88,39.399,88,88V360.5z"/>
			</g>
		</g>
	</g>
	<path fill="#FFFFFF" stroke="#E2E2E2" stroke-width="10" stroke-miterlimit="10" d="M465.5,362.667c0,48.6-39.398,88-88,88h-246
		c-48.603,0-88-39.4-88-88V146c0-48.601,39.397-88,88-88h246c48.602,0,88,39.399,88,88V362.667z"/>
</g>
<g id="Layer_2_1_">
</g>
<g id="Layer_1_2_">
	<g id="Layer_2_2_" display="none">
	</g>
	<g id="shadows_1_">
		<g opacity="0.9">
			<g>
				<path fill="#B7B7B7" d="M469.542,381.208c0,48.94-39.676,88.616-88.617,88.616H133.2c-48.941,0-88.618-39.676-88.618-88.616
					v-218.22c0-48.941,39.677-88.618,88.618-88.618h247.725c48.941,0,88.617,39.677,88.617,88.618V381.208z"/>
			</g>
		</g>
		<g>
			<g>
				<path fill="#FFFFFF" d="M469.542,360.061c0,48.941-39.676,88.617-88.617,88.617H133.2c-48.941,0-88.618-39.676-88.618-88.617
					v-218.22c0-48.941,39.677-88.618,88.618-88.618h247.725c48.941,0,88.617,39.677,88.617,88.618V360.061z"/>
			</g>
		</g>
	</g>
	<path fill="#FFFFFF" stroke="#7F7F7F" stroke-width="2" stroke-miterlimit="10" d="M468.536,362.275
		c0,48.94-39.677,88.617-88.618,88.617H132.193c-48.941,0-88.618-39.677-88.618-88.617V144.056
		c0-48.941,39.677-88.618,88.618-88.618h247.725c48.941,0,88.618,39.677,88.618,88.618V362.275z"/>
</g>
<rect x="130.179" y="122.405" fill="none" width="256.788" height="249.741"/>
<rect x="136.388" y="368.5" fill="none" width="230.562" height="51.676"/>
<text transform="matrix(1 0 0 1 88.3877 400.4492)" font-family="'MyriadPro-Regular'" font-size="45">Lobre Office </text>
<text transform="matrix(1 0 0 1 88.3877 400.4492)" fill="none" stroke="#000000" stroke-miterlimit="10" font-family="'MyriadPro-Regular'" font-size="45">Lobre Office </text>
<path opacity="0.75" fill="#6200E2" enable-background="new    " d="M249.478,93.545c-54.984,0-99.52,14.355-99.52,32.113V297.01
	c0,17.758,44.535,32.113,99.52,32.113s99.519-14.355,99.519-32.113V125.658C348.996,107.9,304.462,93.545,249.478,93.545
	 M249.478,104.249c49.924,0,90.479,9.625,90.479,21.409c0,11.784-40.473,21.409-90.479,21.409c-50.008,0-90.479-9.625-90.479-21.409
	C158.999,113.874,199.552,104.249,249.478,104.249 M158.998,139.018c16.171,11.451,51.5,18.836,90.479,18.836
	c38.978,0,74.308-7.385,90.479-18.836v40.245c0,11.866-40.472,21.408-90.479,21.408c-50.008,0-90.479-9.625-90.479-21.408V139.018z
	 M158.998,192.539c16.171,11.452,51.5,18.837,90.479,18.837c38.978,0,74.308-7.385,90.479-18.837v50.949
	c0,11.866-40.472,21.408-90.479,21.408c-50.008,0-90.479-9.625-90.479-21.408V192.539z M158.998,256.848
	c16.171,11.451,51.5,18.838,90.479,18.838c38.978,0,74.308-7.387,90.479-18.838v40.245c0,11.866-40.472,21.409-90.479,21.409
	c-50.008,0-90.479-9.626-90.479-21.409v-10.704V256.848z"/>
</svg>
