<?xml version="1.0" encoding="utf-8"?>
<!-- Generator: Adobe Illustrator 16.0.0, SVG Export Plug-In . SVG Version: 6.00 Build 0)  -->
<!DOCTYPE svg PUBLIC "-//W3C//DTD SVG 1.1//EN" "http://www.w3.org/Graphics/SVG/1.1/DTD/svg11.dtd">
<svg version="1.1" id="Layer_1" xmlns="http://www.w3.org/2000/svg" xmlns:xlink="http://www.w3.org/1999/xlink" x="0px" y="0px"
	 width="512px" height="512px" viewBox="0 0 512 512" enable-background="new 0 0 512 512" xml:space="preserve">
<g id="Layer_1_1_">
	<g id="Layer_2" display="none">
	</g>
	<g id="shadows">
		<g opacity="0.9">
			<g>
				<path fill="#B7B7B7" d="M466.5,381.5c0,48.6-39.4,88-88,88h-246c-48.603,0-88-39.4-88-88V164.833c0-48.601,39.397-88,88-88h246
					c48.6,0,88,39.399,88,88V381.5z"/>
			</g>
		</g>
		<g>
			<g>
				<path fill="#FFFFFF" d="M466.5,360.5c0,48.6-39.4,88-88,88h-246c-48.603,0-88-39.4-88-88V143.833c0-48.601,39.397-88,88-88h246
					c48.6,0,88,39.399,88,88V360.5z"/>
			</g>
		</g>
	</g>
	<path fill="#FFFFFF" stroke="#E2E2E2" stroke-width="10" stroke-miterlimit="10" d="M465.5,362.667c0,48.6-39.398,88-88,88h-246
		c-48.603,0-88-39.4-88-88V146c0-48.601,39.397-88,88-88h246c48.602,0,88,39.399,88,88V362.667z"/>
</g>
<g id="Layer_2_1_">
</g>
<g id="Layer_1_2_">
	<g id="Layer_2_2_" display="none">
	</g>
	<g id="shadows_1_">
		<g opacity="0.9">
			<g>
				<path fill="#B7B7B7" d="M469.542,381.208c0,48.94-39.676,88.616-88.617,88.616H133.2c-48.941,0-88.618-39.676-88.618-88.616
					v-218.22c0-48.941,39.677-88.618,88.618-88.618h247.725c48.941,0,88.617,39.677,88.617,88.618V381.208z"/>
			</g>
		</g>
		<g>
			<g>
				<path fill="#FFFFFF" d="M469.542,360.061c0,48.941-39.676,88.617-88.617,88.617H133.2c-48.941,0-88.618-39.676-88.618-88.617
					v-218.22c0-48.941,39.677-88.618,88.618-88.618h247.725c48.941,0,88.617,39.677,88.617,88.618V360.061z"/>
			</g>
		</g>
	</g>
	<path fill="#FFFFFF" stroke="#7F7F7F" stroke-width="2" stroke-miterlimit="10" d="M468.536,362.275
		c0,48.939-39.677,88.616-88.618,88.616H132.193c-48.941,0-88.618-39.677-88.618-88.616V144.056
		c0-48.941,39.677-88.618,88.618-88.618h247.725c48.941,0,88.618,39.677,88.618,88.618V362.275z"/>
</g>
<rect x="130.179" y="122.405" fill="none" width="256.788" height="249.741"/>
<rect x="136.388" y="368.5" fill="none" width="230.562" height="51.676"/>
<text transform="matrix(1 0 0 1 76.3877 400.4492)" font-family="'MyriadPro-Regular'" font-size="45">Lobre Office </text>
<text transform="matrix(1 0 0 1 76.3877 400.4492)" fill="none" stroke="#000000" stroke-miterlimit="10" font-family="'MyriadPro-Regular'" font-size="45">Lobre Office </text>
<path shape-rendering="auto" image-rendering="auto" color-rendering="auto" text-rendering="auto" opacity="0.75" fill="#FF8500" enable-background="new    " d="
	M153.71,106.128c-5.445,0-9.819,4.374-9.819,9.908v197.437c0,5.444,4.374,9.907,9.819,9.907h195.918
	c5.445,0,9.819-4.374,9.819-9.907V115.946c0-5.445-4.374-9.908-9.819-9.908H153.71V106.128z M153.71,115.946h195.918v197.437H153.71
	V115.946z M271.261,135.762v39.451h39.187C310.446,153.435,292.95,135.762,271.261,135.762 M251.714,145.58
	c-27.045,0-49.002,22.136-49.002,49.359s21.958,49.359,49.002,49.359s49.002-22.135,49.002-49.359c0-3.303-0.356-6.605-0.981-9.908
	h-38.201V146.65C258.23,145.937,254.927,145.58,251.714,145.58 M251.714,155.487v39.452h39.185
	c0,21.778-17.584,39.451-39.185,39.451c-21.6,0-39.183-17.673-39.183-39.451C212.44,173.16,230.025,155.487,251.714,155.487
	 M173.257,264.023v9.908h156.735v-9.908H173.257z M173.257,283.75v9.907h156.735v-9.907H173.257z"/>
</svg>
