<?xml version="1.0" encoding="utf-8"?>
<!-- Generator: Adobe Illustrator 24.0.1, SVG Export Plug-In . SVG Version: 6.00 Build 0)  -->
<svg version="1.1" id="Layer_1" xmlns="http://www.w3.org/2000/svg" xmlns:xlink="http://www.w3.org/1999/xlink" x="0px" y="0px"
	 viewBox="0 0 512 512" style="enable-background:new 0 0 512 512;" xml:space="preserve">
<style type="text/css">
	.st0{display:none;}
	.st1{opacity:0.9;}
	.st2{fill:#B7B7B7;}
	.st3{fill:#FFFFFF;}
	.st4{fill:#FFFFFF;stroke:#7F7F7F;stroke-width:2;stroke-miterlimit:10;}
	.st5{fill:none;}
	.st6{fill:#E0E0E0;}
</style>
<g id="Layer_1_1_">
	<g id="Layer_2_1_" class="st0">
	</g>
	<g id="shadows">
		<g class="st1">
			<g>
				<path class="st2" d="M466.5,381.5c0,48.6-39.4,88-88,88h-246c-48.6,0-88-39.4-88-88V164.8c0-48.6,39.4-88,88-88h246
					c48.6,0,88,39.4,88,88V381.5z"/>
			</g>
		</g>
		<g>
			<g>
				<path class="st3" d="M466.5,360.5c0,48.6-39.4,88-88,88h-246c-48.6,0-88-39.4-88-88V143.8c0-48.6,39.4-88,88-88h246
					c48.6,0,88,39.4,88,88V360.5z"/>
			</g>
		</g>
	</g>
	<path class="st4" d="M465.5,362.7c0,48.6-39.4,88-88,88h-246c-48.6,0-88-39.4-88-88V146c0-48.6,39.4-88,88-88h246
		c48.6,0,88,39.4,88,88V362.7z"/>
</g>
<rect x="129.5" y="124.5" class="st5" width="255" height="248"/>
<path class="st6" d="M118.8,132.4v239.5h276.5V132.4H118.8z M310.2,143.3c5.9,0,10.6,4.9,10.6,10.9c0,6-4.8,10.9-10.6,10.9
	s-10.6-4.9-10.6-10.9C299.5,148.2,304.3,143.3,310.2,143.3 M342.1,143.3c5.9,0,10.6,4.9,10.6,10.9c0,6-4.8,10.9-10.6,10.9
	s-10.6-4.9-10.6-10.9C331.4,148.2,336.2,143.3,342.1,143.3 M374,143.3c5.9,0,10.6,4.9,10.6,10.9c0,6-4.8,10.9-10.6,10.9
	c-5.9,0-10.6-4.9-10.6-10.9C363.3,148.2,368.1,143.3,374,143.3 M129.4,176h255.2V361H129.4V176z M223,219.5l28.8,51.4l-32.9,57.5
	h12.6l26.6-48.1l26.6,48.1h12c0.1-0.1,0.3-0.2,0.4-0.3l-32.5-57.2l28.7-51.4h-12.9l-22.3,42l-22.3-42L223,219.5z"/>
</svg>
