<?xml version="1.0" encoding="utf-8"?>
<!-- Generator: Adobe Illustrator 16.0.0, SVG Export Plug-In . SVG Version: 6.00 Build 0)  -->
<!DOCTYPE svg PUBLIC "-//W3C//DTD SVG 1.1//EN" "http://www.w3.org/Graphics/SVG/1.1/DTD/svg11.dtd">
<svg version="1.1" id="Layer_1" xmlns="http://www.w3.org/2000/svg" xmlns:xlink="http://www.w3.org/1999/xlink" x="0px" y="0px"
	 width="512px" height="512px" viewBox="0 0 512 512" enable-background="new 0 0 512 512" xml:space="preserve">
<g id="Layer_1_1_">
	<g id="Layer_2" display="none">
	</g>
	<g id="shadows">
		<g opacity="0.9">
			<g>
				<path fill="#B7B7B7" d="M466.5,381.5c0,48.6-39.4,88-88,88h-246c-48.603,0-88-39.4-88-88V164.833c0-48.601,39.397-88,88-88h246
					c48.6,0,88,39.399,88,88V381.5z"/>
			</g>
		</g>
		<g>
			<g>
				<path fill="#FFFFFF" d="M466.5,360.5c0,48.6-39.4,88-88,88h-246c-48.603,0-88-39.4-88-88V143.833c0-48.601,39.397-88,88-88h246
					c48.6,0,88,39.399,88,88V360.5z"/>
			</g>
		</g>
	</g>
	<path fill="#FFFFFF" stroke="#E2E2E2" stroke-width="10" stroke-miterlimit="10" d="M465.5,362.667c0,48.6-39.398,88-88,88h-246
		c-48.603,0-88-39.4-88-88V146c0-48.601,39.397-88,88-88h246c48.602,0,88,39.399,88,88V362.667z"/>
</g>
<g id="Layer_2_1_">
</g>
<g id="Layer_1_2_">
	<g id="Layer_2_2_" display="none">
	</g>
	<g id="shadows_1_">
		<g opacity="0.9">
			<g>
				<path fill="#B7B7B7" d="M469.542,381.208c0,48.94-39.676,88.616-88.617,88.616H133.2c-48.941,0-88.618-39.676-88.618-88.616
					v-218.22c0-48.941,39.677-88.618,88.618-88.618h247.725c48.941,0,88.617,39.677,88.617,88.618V381.208z"/>
			</g>
		</g>
		<g>
			<g>
				<path fill="#FFFFFF" d="M469.542,360.061c0,48.941-39.676,88.617-88.617,88.617H133.2c-48.941,0-88.618-39.676-88.618-88.617
					v-218.22c0-48.941,39.677-88.618,88.618-88.618h247.725c48.941,0,88.617,39.677,88.617,88.618V360.061z"/>
			</g>
		</g>
	</g>
	<path fill="#FFFFFF" stroke="#7F7F7F" stroke-width="2" stroke-miterlimit="10" d="M468.536,362.275
		c0,48.94-39.677,88.617-88.618,88.617H132.193c-48.941,0-88.618-39.677-88.618-88.617V144.056
		c0-48.941,39.677-88.618,88.618-88.618h247.725c48.941,0,88.618,39.677,88.618,88.618V362.275z"/>
</g>
<rect x="130.179" y="122.405" fill="none" width="256.788" height="249.741"/>
<path color-rendering="auto" shape-rendering="auto" image-rendering="auto" text-rendering="auto" opacity="0.9" fill="#39D5FF" enable-background="new    " d="
	M104.913,107.035v13.603h299.965v-13.603H104.913z M104.913,147.96v13.603h299.965V147.96H104.913z M104.913,188.886v13.604h149.982
	v-13.604H104.913z M104.913,243.414v13.604h299.965v-13.604H104.913z M104.913,284.34v13.604h122.66V284.34H104.913z
	 M282.218,284.34V407h122.66V284.34H282.218z M295.822,297.941h95.454v95.455h-95.454V297.941z M104.913,311.546v13.604h68.132
	v-13.604H104.913z M104.913,352.472v13.604h136.38v-13.604H104.913z M104.913,393.396V407h81.852v-13.604H104.913z"/>
<rect x="283.878" y="173.283" fill="none" width="242" height="96"/>
<text transform="matrix(1 0 0 1 283.8779 224.4023)" fill="#38489E" font-family="'MyriadPro-Bold'" font-size="72">RTF</text>
</svg>
