<?xml version="1.0" encoding="utf-8"?>
<!-- Generator: Adobe Illustrator 24.0.1, SVG Export Plug-In . SVG Version: 6.00 Build 0)  -->
<svg version="1.1" id="Layer_1" xmlns="http://www.w3.org/2000/svg" xmlns:xlink="http://www.w3.org/1999/xlink" x="0px" y="0px"
	 viewBox="0 0 512 512" style="enable-background:new 0 0 512 512;" xml:space="preserve">
<style type="text/css">
	.st0{display:none;}
	.st1{opacity:0.9;}
	.st2{fill:#B7B7B7;}
	.st3{fill:#FFFFFF;}
	.st4{fill:#FFFFFF;stroke:#7F7F7F;stroke-width:2;stroke-miterlimit:10;}
	.st5{fill:none;}
	.st6{fill:#00FFFF;}
</style>
<g id="Layer_1_1_">
	<g id="Layer_2_1_" class="st0">
	</g>
	<g id="shadows">
		<g class="st1">
			<g>
				<path class="st2" d="M466.5,381.5c0,48.6-39.4,88-88,88h-246c-48.6,0-88-39.4-88-88V164.8c0-48.6,39.4-88,88-88h246
					c48.6,0,88,39.4,88,88V381.5z"/>
			</g>
		</g>
		<g>
			<g>
				<path class="st3" d="M466.5,360.5c0,48.6-39.4,88-88,88h-246c-48.6,0-88-39.4-88-88V143.8c0-48.6,39.4-88,88-88h246
					c48.6,0,88,39.4,88,88V360.5z"/>
			</g>
		</g>
	</g>
	<path class="st4" d="M465.5,362.7c0,48.6-39.4,88-88,88h-246c-48.6,0-88-39.4-88-88V146c0-48.6,39.4-88,88-88h246
		c48.6,0,88,39.4,88,88V362.7z"/>
</g>
<rect x="129.5" y="124.5" class="st5" width="255" height="248"/>
<path class="st6" d="M353.4,118.9v247.3h25.8V118.9H353.4z M198.5,217.8v148.4h25.8V217.8H198.5z M250.1,267.3v98.9h25.8v-98.9
	H250.1z M301.7,304.3v61.8h25.8v-61.8H301.7z M146.8,329.1v37.1h25.8v-37.1H146.8z M121,378.5v12.4h284v-12.4H121z"/>
</svg>
