<?xml version="1.0" encoding="utf-8"?>
<!-- Generator: Adobe Illustrator 24.0.1, SVG Export Plug-In . SVG Version: 6.00 Build 0)  -->
<svg version="1.1" id="Layer_1" xmlns="http://www.w3.org/2000/svg" xmlns:xlink="http://www.w3.org/1999/xlink" x="0px" y="0px"
	 viewBox="0 0 512 512" style="enable-background:new 0 0 512 512;" xml:space="preserve">
<style type="text/css">
	.st0{display:none;}
	.st1{opacity:0.9;}
	.st2{fill:#B7B7B7;}
	.st3{fill:#FFFFFF;}
	.st4{fill:#FFFFFF;stroke:#7F7F7F;stroke-width:2;stroke-miterlimit:10;}
	.st5{fill:none;}
	.st6{opacity:0.8;fill:#FF0000;enable-background:new    ;}
</style>
<g id="Layer_1_1_">
	<g id="Layer_2_1_" class="st0">
	</g>
	<g id="shadows">
		<g class="st1">
			<g>
				<path class="st2" d="M466.5,381.5c0,48.6-39.4,88-88,88h-246c-48.6,0-88-39.4-88-88V164.8c0-48.6,39.4-88,88-88h246
					c48.6,0,88,39.4,88,88V381.5z"/>
			</g>
		</g>
		<g>
			<g>
				<path class="st3" d="M466.5,360.5c0,48.6-39.4,88-88,88h-246c-48.6,0-88-39.4-88-88V143.8c0-48.6,39.4-88,88-88h246
					c48.6,0,88,39.4,88,88V360.5z"/>
			</g>
		</g>
	</g>
	<path class="st4" d="M465.5,362.7c0,48.6-39.4,88-88,88h-246c-48.6,0-88-39.4-88-88V146c0-48.6,39.4-88,88-88h246
		c48.6,0,88,39.4,88,88V362.7z"/>
</g>
<rect x="129.5" y="124.5" class="st5" width="255" height="248"/>
<path class="st6" d="M155.6,123.5c-3.8,0.1-7.9,1.1-12.4,2.9c-40.2,16.1-10.3,52.5,41.2,85.7c0.3-6.4,0.4-12.7,0.3-18.7
	c-43.9-27.5-61.2-54.9-40.1-61.5c22.5-8.8,39.4,16.8,40.1,61.5c2.8,1.7,5.5,3.4,8.4,5.1c-1.3-40.7-11.1-72.7-33.7-74.9
	C158.2,123.5,156.9,123.4,155.6,123.5 M193.1,198.5l-5.3-7.7l-6.6,5.3l-1.4,8.1l8.9,15.3l4.4-2c29.6,18.1,65,34.6,98.2,46l9.9,5.2
	l13.6,0.2c12.5-6.9,5-9.4,50.5-14.9l-51.3,3.9C274.3,244.1,229.9,220.5,193.1,198.5 M292,263.4c5.9,0.4,47.7-6.6,66.1-8.3
	c7-0.9,34.9-2.9,36.5,16.1c4.8-10.4-2.5-20.2-18.2-23.2C352.3,243.2,305.8,259.2,292,263.4 M318.7,258.4c-7.2,2.4-19.3,2.2-27,5.2
	c11,5.1,67.4,18.7,90.2,14.6c3.6-0.5,13.6-3.2,13.9-10.6C377.6,279.5,327.1,271.5,318.7,258.4 M333.7,258.6
	c-5.9-1.7-36.3,7.1-42.4,5c-37.4,11.7-78.4,28.6-111.6,46.5l-9.7,1.8l-7.4,12.4l-10,12.1l11.4,10.3l8.8-13.5
	C211.7,311.4,288.8,275.7,333.7,258.6 M172.8,333.2c-4.8,2.7-9.3,5.3-13.6,7.9c-4.9,13.2-19.2,42.1-29.1,41.3c0,0-1.8,1.4-4.7,3.6
	C140.6,394.1,160.5,368.7,172.8,333.2 M130,382.4c-26.4-14.2,16.7-35.5,29.1-41.3c2.8-7.4,5.4-15.5,7.8-24.1
	c-39.1,22.8-63.6,46.3-50.3,61.7c3.2,3.7,5.7,6.4,8.7,7.3 M167,317c4.1-2.4,8.3-4.7,12.7-7c7.6-28.9,12.5-62.1,13.4-92.5
	c-3-1.8-5.9-3.7-8.8-5.5C182.9,246.3,176.2,284.9,167,317"/>
</svg>
