<?xml version="1.0" encoding="utf-8"?>
<!-- Generator: Adobe Illustrator 24.0.1, SVG Export Plug-In . SVG Version: 6.00 Build 0)  -->
<svg version="1.1" id="Layer_1" xmlns="http://www.w3.org/2000/svg" xmlns:xlink="http://www.w3.org/1999/xlink" x="0px" y="0px"
	 viewBox="0 0 512 512" style="enable-background:new 0 0 512 512;" xml:space="preserve">
<style type="text/css">
	.st0{display:none;}
	.st1{opacity:0.9;}
	.st2{fill:#B7B7B7;}
	.st3{fill:#FFFFFF;}
	.st4{fill:#FFFFFF;stroke:#7F7F7F;stroke-width:2;stroke-miterlimit:10;}
	.st5{fill:none;}
	.st6{opacity:0.75;fill:#3875FC;enable-background:new    ;}
	.st7{fill:#3875FC;enable-background:new    ;}
	.st8{font-family:'MyriadPro-Bold';}
	.st9{font-size:250px;}
</style>
<g id="Layer_1_1_">
	<g id="Layer_2_1_" class="st0">
	</g>
	<g id="shadows">
		<g class="st1">
			<g>
				<path class="st2" d="M466.5,381.5c0,48.6-39.4,88-88,88h-246c-48.6,0-88-39.4-88-88V164.8c0-48.6,39.4-88,88-88h246
					c48.6,0,88,39.4,88,88V381.5z"/>
			</g>
		</g>
		<g>
			<g>
				<path class="st3" d="M466.5,360.5c0,48.6-39.4,88-88,88h-246c-48.6,0-88-39.4-88-88V143.8c0-48.6,39.4-88,88-88h246
					c48.6,0,88,39.4,88,88V360.5z"/>
			</g>
		</g>
	</g>
	<path class="st4" d="M465.5,362.7c0,48.6-39.4,88-88,88h-246c-48.6,0-88-39.4-88-88V146c0-48.6,39.4-88,88-88h246
		c48.6,0,88,39.4,88,88V362.7z"/>
</g>
<rect x="129.5" y="124.5" class="st5" width="255" height="248"/>
<path image-rendering="auto" color-rendering="auto" text-rendering="auto" shape-rendering="auto" class="st6" d="M150.7,342.1
	v12.5H204v-12.5H150.7z M150.2,304.7v12.5H204v-12.5H150.2z M150.7,267.3v12.5H204v-12.5H150.7z M150.2,230v12.5H204V230H150.2z
	 M258.6,192.6v12.5h86.7v-12.5H258.6z M150.7,192.6v12.5h86.2v-12.5H150.7z M258.6,155.2v12.5h86.7v-12.5H258.6z M150.2,155.2v12.5
	h86.7v-12.5H150.2z M258.6,192.6v12.5h86.7v-12.5H258.6z M258.6,155.2v12.5h86.7v-12.5H258.6z M150.7,192.6v12.5h86.2v-12.5H150.7z
	 M150.2,155.2v12.5h86.7v-12.5H150.2z M150.7,342.1v12.5H204v-12.5H150.7z M150.2,304.7v12.5H204v-12.5H150.2z M150.7,267.3v12.5
	H204v-12.5H150.7z M150.2,230v12.5H204V230H150.2z M150.2,230v12.5H204V230H150.2z M150.7,267.3v12.5H204v-12.5H150.7z M150.2,304.7
	v12.5H204v-12.5H150.2z M150.7,342.1v12.5H204v-12.5H150.7z M150.2,155.2v12.5h86.7v-12.5H150.2z M150.7,192.6v12.5h86.2v-12.5
	H150.7z M258.6,155.2v12.5h86.7v-12.5H258.6z M258.6,192.6v12.5h86.7v-12.5H258.6z M258.6,192.6v12.5h86.7v-12.5H258.6z
	 M258.6,155.2v12.5h86.7v-12.5H258.6z M150.7,192.6v12.5h86.2v-12.5H150.7z M150.2,155.2v12.5h86.7v-12.5H150.2z M150.7,342.1v12.5
	H204v-12.5H150.7z M150.2,304.7v12.5H204v-12.5H150.2z M150.7,267.3v12.5H204v-12.5H150.7z M150.2,230v12.5H204V230H150.2z
	 M150.2,230v12.5H204V230H150.2z M150.7,267.3v12.5H204v-12.5H150.7z M150.2,304.7v12.5H204v-12.5H150.2z M150.7,342.1v12.5H204
	v-12.5H150.7z M150.2,155.2v12.5h86.7v-12.5H150.2z M150.7,192.6v12.5h86.2v-12.5H150.7z M258.6,155.2v12.5h86.7v-12.5H258.6z
	 M258.6,192.6v12.5h86.7v-12.5H258.6z M258.6,192.6v12.5h86.7v-12.5H258.6z M258.6,155.2v12.5h86.7v-12.5H258.6z M150.7,192.6v12.5
	h86.2v-12.5H150.7z M150.2,155.2v12.5h86.7v-12.5H150.2z M150.7,342.1v12.5H204v-12.5H150.7z M150.2,304.7v12.5H204v-12.5H150.2z
	 M150.7,267.3v12.5H204v-12.5H150.7z M150.2,230v12.5H204V230H150.2z M150.2,230v12.5H204V230H150.2z M150.7,267.3v12.5H204v-12.5
	H150.7z M150.2,304.7v12.5H204v-12.5H150.2z M150.7,342.1v12.5H204v-12.5H150.7z M150.2,155.2v12.5h86.7v-12.5H150.2z M150.7,192.6
	v12.5h86.2v-12.5H150.7z M258.6,155.2v12.5h86.7v-12.5H258.6z M258.6,192.6v12.5h86.7v-12.5H258.6z M258.6,192.6v12.5h86.7v-12.5
	H258.6z M258.6,155.2v12.5h86.7v-12.5H258.6z M150.7,192.6v12.5h86.2v-12.5H150.7z M150.2,155.2v12.5h86.7v-12.5H150.2z
	 M150.7,342.1v12.5H204v-12.5H150.7z M150.2,304.7v12.5H204v-12.5H150.2z M150.7,267.3v12.5H204v-12.5H150.7z M150.2,230v12.5H204
	V230H150.2z M150.2,230v12.5H204V230H150.2z M150.7,267.3v12.5H204v-12.5H150.7z M150.2,304.7v12.5H204v-12.5H150.2z M150.7,342.1
	v12.5H204v-12.5H150.7z M150.2,155.2v12.5h86.7v-12.5H150.2z M150.7,192.6v12.5h86.2v-12.5H150.7z M258.6,155.2v12.5h86.7v-12.5
	H258.6z M258.6,192.6v12.5h86.7v-12.5H258.6z M258.6,205.1h86.7v-12.5h-86.7V205.1z M258.6,155.2v12.5h86.7v-12.5H258.6z
	 M150.7,205.1h86.2v-12.5h-86.2V205.1z M150.2,167.7h86.7v-12.5h-86.7V167.7z M150.7,354.5H204v-12.5h-53.3V354.5z M150.2,317.2H204
	v-12.5h-53.8V317.2z M150.7,279.8H204v-12.5h-53.3V279.8z M150.2,242.4H204V230h-53.8V242.4z M356.2,117.9H139.3
	c-6,0-10.8,5.5-10.8,12.5v249.1c0,6.9,4.8,12.5,10.8,12.5H221v-12.5h-81.7V130.3h216.8v95.7H367v-95.7
	C367,123.4,362.2,117.9,356.2,117.9z M258.6,205.1h86.7v-12.5h-86.7V205.1z M258.6,167.7h86.7v-12.5h-86.7V167.7z M150.7,205.1h86.2
	v-12.5h-86.2V205.1z M150.2,167.7h86.7v-12.5h-86.7V167.7z M204,354.5v-12.5h-53.3v12.5H204z M204,304.7h-53.8v12.5H204V304.7z
	 M204,267.3h-53.3v12.5H204V267.3z M204,230h-53.8v12.5H204V230z M150.2,230v12.5H204V230H150.2z M150.7,267.3v12.5H204v-12.5H150.7
	z M150.2,304.7v12.5H204v-12.5H150.2z M150.7,342.1v12.5H204v-12.5H150.7z M150.2,155.2v12.5h86.7v-12.5H150.2z M150.7,192.6v12.5
	h86.2v-12.5H150.7z M258.6,155.2v12.5h86.7v-12.5H258.6z M258.6,192.6v12.5h86.7v-12.5H258.6z M258.6,192.6v12.5h86.7v-12.5H258.6z
	 M258.6,155.2v12.5h86.7v-12.5H258.6z M150.7,192.6v12.5h86.2v-12.5H150.7z M150.2,155.2v12.5h86.7v-12.5H150.2z M150.7,342.1v12.5
	H204v-12.5H150.7z M150.2,304.7v12.5H204v-12.5H150.2z M150.7,267.3v12.5H204v-12.5H150.7z M150.2,230v12.5H204V230H150.2z
	 M150.2,230v12.5H204V230H150.2z M150.7,267.3v12.5H204v-12.5H150.7z M150.2,304.7v12.5H204v-12.5H150.2z M150.7,342.1v12.5H204
	v-12.5H150.7z M150.2,155.2v12.5h86.7v-12.5H150.2z M150.7,192.6v12.5h86.2v-12.5H150.7z M258.6,155.2v12.5h86.7v-12.5H258.6z
	 M258.6,192.6v12.5h86.7v-12.5H258.6z M258.6,192.6v12.5h86.7v-12.5H258.6z M258.6,155.2v12.5h86.7v-12.5H258.6z M150.7,192.6v12.5
	h86.2v-12.5H150.7z M150.2,155.2v12.5h86.7v-12.5H150.2z M150.7,342.1v12.5H204v-12.5H150.7z M150.2,304.7v12.5H204v-12.5H150.2z
	 M150.7,267.3v12.5H204v-12.5H150.7z M150.2,230v12.5H204V230H150.2z M150.2,230v12.5H204V230H150.2z M150.7,267.3v12.5H204v-12.5
	H150.7z M150.2,304.7v12.5H204v-12.5H150.2z M150.7,342.1v12.5H204v-12.5H150.7z M150.2,155.2v12.5h86.7v-12.5H150.2z M150.7,192.6
	v12.5h86.2v-12.5H150.7z M258.6,155.2v12.5h86.7v-12.5H258.6z M258.6,192.6v12.5h86.7v-12.5H258.6z M258.6,192.6v12.5h86.7v-12.5
	H258.6z M258.6,155.2v12.5h86.7v-12.5H258.6z M150.7,192.6v12.5h86.2v-12.5H150.7z M150.2,155.2v12.5h86.7v-12.5H150.2z
	 M150.7,342.1v12.5H204v-12.5H150.7z M150.2,304.7v12.5H204v-12.5H150.2z M150.7,267.3v12.5H204v-12.5H150.7z M150.2,230v12.5H204
	V230H150.2z M150.2,230v12.5H204V230H150.2z M150.7,267.3v12.5H204v-12.5H150.7z M150.2,304.7v12.5H204v-12.5H150.2z M150.7,342.1
	v12.5H204v-12.5H150.7z M150.2,155.2v12.5h86.7v-12.5H150.2z M150.7,192.6v12.5h86.2v-12.5H150.7z M258.6,155.2v12.5h86.7v-12.5
	H258.6z M258.6,192.6v12.5h86.7v-12.5H258.6z M258.6,192.6v12.5h86.7v-12.5H258.6z M258.6,155.2v12.5h86.7v-12.5H258.6z
	 M150.7,192.6v12.5h86.2v-12.5H150.7z M150.2,155.2v12.5h86.7v-12.5H150.2z M150.7,342.1v12.5H204v-12.5H150.7z M150.2,304.7v12.5
	H204v-12.5H150.2z M150.7,267.3v12.5H204v-12.5H150.7z M150.2,230v12.5H204V230H150.2z"/>
<rect x="213.8" y="226.1" class="st5" width="259" height="232"/>
<text transform="matrix(1 0 0 1 213.8203 403.5679)" class="st7 st8 st9">W</text>
</svg>
