<?xml version="1.0" encoding="UTF-8" standalone="no"?>
<svg
   xmlns:dc="http://purl.org/dc/elements/1.1/"
   xmlns:cc="http://creativecommons.org/ns#"
   xmlns:rdf="http://www.w3.org/1999/02/22-rdf-syntax-ns#"
   xmlns:svg="http://www.w3.org/2000/svg"
   xmlns="http://www.w3.org/2000/svg"
   xmlns:sodipodi="http://sodipodi.sourceforge.net/DTD/sodipodi-0.dtd"
   xmlns:inkscape="http://www.inkscape.org/namespaces/inkscape"
   inkscape:version="1.0 (4035a4fb49, 2020-05-01)"
   sodipodi:docname="system-switch-user.svg"
   id="svg5"
   version="1.1"
   viewBox="0 0 22 22">
  <metadata
     id="metadata9">
    <rdf:RDF>
      <cc:Work
         rdf:about="">
        <dc:format>image/svg+xml</dc:format>
        <dc:type
           rdf:resource="http://purl.org/dc/dcmitype/StillImage" />
      </cc:Work>
    </rdf:RDF>
  </metadata>
  <sodipodi:namedview
     inkscape:current-layer="svg5"
     inkscape:window-maximized="1"
     inkscape:window-y="0"
     inkscape:window-x="0"
     inkscape:cy="11"
     inkscape:cx="11"
     inkscape:zoom="28.545455"
     showgrid="false"
     id="namedview7"
     inkscape:window-height="1015"
     inkscape:window-width="1920"
     inkscape:pageshadow="2"
     inkscape:pageopacity="0"
     guidetolerance="10"
     gridtolerance="10"
     objecttolerance="10"
     borderopacity="1"
     bordercolor="#666666"
     pagecolor="#ffffff" />
  <defs
     id="defs3051">
    <style
       id="current-color-scheme"
       type="text/css">
      .ColorScheme-Text {
        color:#eff0f1;
      }
      </style>
  </defs>
  <path
     class="ColorScheme-Text"
     d="m 11.38212,2.388 c -1.989467,0 -3.220562,1.263525 -3.397744,2.799 V 6.205 L 5.8333441,4.684817 4.9843762,5.347854 7.5312808,7.336963 8.380249,8 9.229216,7.336963 11.776121,5.347854 10.927153,4.684817 8.984376,6.205 V 5.187 c 0,-1.035581 1.06462,-1.798637 2.397544,-1.799 1.332927,3.63e-4 2.621,0.763585 2.602456,1.799 V 6 h 1 V 5.186673 C 14.984376,3.641009 13.371591,2.388 11.382123,2.388 Z M 13.984376,7 c -1.10457,0 -2,0.895431 -2,2 0,1.10457 0.89543,2 2,2 1.104569,0 2,-0.89543 2,-2 0,-1.104569 -0.895431,-2 -2,-2 z M 7.984375,9 a 1.999999,2 0 0 0 -2,2 1.999999,2 0 0 0 2,2 1.999999,2 0 0 0 2,-2 1.999999,2 0 0 0 -2,-2 z M 14,12 c -1.518796,0 -2.764244,1.163057 -2.978516,2.671875 C 11.604353,15.334017 11.984375,16 11.984375,17 v 0 H 14 h 1.8125 0.601563 c 0.393221,-0.54062 0.60674,-1.198565 0.607421,-1.875 C 17.021485,13.39911 15.669244,12 14,12 Z m -0.04883,1 c 1.102577,0 1.996096,0.839466 1.996094,1.875 -4.5e-4,0.405861 -0.14066,0.800628 -0.400391,1.125 H 15.148435 13.95117 12.751951 12.726561 C 12.640916,15.461489 12.369372,14.980111 11.984375,14.601562 12.125907,13.696272 12.947971,13 13.951172,13 Z m -5.966795,1 a 2.9999989,3.1249983 0 0 0 -3,3.125 A 2.9999989,3.1249983 0 0 0 5.589844,19 h 0.59375 1.800781 1.800781 0.597657 a 2.9999989,3.1249983 0 0 0 0.601562,-1.875 2.9999989,3.1249983 0 0 0 -3,-3.125 z m 0,1 a 2.0000009,2.2500008 0 0 1 2,2.25 A 2.0000009,2.2500008 0 0 1 9.867187,18 H 6.101563 a 2.0000009,2.2500008 0 0 1 -0.117188,-0.75 2.0000009,2.2500008 0 0 1 2,-2.25 z"
     id="path890-3"
     style="fill:#006a80;fill-opacity:1;stroke:none" />
</svg>
