<?xml version="1.0" encoding="UTF-8" standalone="no"?>
<svg
   xmlns:dc="http://purl.org/dc/elements/1.1/"
   xmlns:cc="http://creativecommons.org/ns#"
   xmlns:rdf="http://www.w3.org/1999/02/22-rdf-syntax-ns#"
   xmlns:svg="http://www.w3.org/2000/svg"
   xmlns="http://www.w3.org/2000/svg"
   xmlns:sodipodi="http://sodipodi.sourceforge.net/DTD/sodipodi-0.dtd"
   xmlns:inkscape="http://www.inkscape.org/namespaces/inkscape"
   inkscape:version="1.0 (4035a4fb49, 2020-05-01)"
   sodipodi:docname="system-suspend.svg"
   id="svg9"
   version="1.1"
   viewBox="0 0 22 22">
  <metadata
     id="metadata15">
    <rdf:RDF>
      <cc:Work
         rdf:about="">
        <dc:format>image/svg+xml</dc:format>
        <dc:type
           rdf:resource="http://purl.org/dc/dcmitype/StillImage" />
      </cc:Work>
    </rdf:RDF>
  </metadata>
  <defs
     id="defs13" />
  <sodipodi:namedview
     inkscape:current-layer="svg9"
     inkscape:window-maximized="1"
     inkscape:window-y="0"
     inkscape:window-x="0"
     inkscape:cy="11"
     inkscape:cx="11"
     inkscape:zoom="28.545455"
     showgrid="false"
     id="namedview11"
     inkscape:window-height="1015"
     inkscape:window-width="1920"
     inkscape:pageshadow="2"
     inkscape:pageopacity="0"
     guidetolerance="10"
     gridtolerance="10"
     objecttolerance="10"
     borderopacity="1"
     bordercolor="#666666"
     pagecolor="#ffffff" />
  <style
     id="current-color-scheme"
     type="text/css">
        .ColorScheme-Text {
            color:#eff0f1;
        }
    </style>
  <g
     id="g7"
     fill="currentColor"
     class="ColorScheme-Text">
    <path
       style="fill:#3daee9;fill-opacity:1"
       id="path3"
       d="M7.047 4.049A7.995 8 0 0 0 3 11a7.995 8 0 0 0 7.994 8 7.995 8 0 0 0 6.938-4.043 7.995 8 0 0 0 .01-.006l-.739-.738a6.996 7 0 0 1-.004.006 6.996 7 0 0 1-3.207.781 6.996 7 0 0 1-6.994-7 6.996 7 0 0 1 .785-3.213zM6.303 5.82A7.995 8 0 0 0 5.998 8a7.995 8 0 0 0 7.994 8 7.995 8 0 0 0 2.188-.313A6.996 7 0 0 1 10.994 18 6.996 7 0 0 1 4 11a6.996 7 0 0 1 2.303-5.18z" />
    <path
       style="fill:#3daee9;fill-opacity:1"
       id="path5"
       d="M10 6v1h2.293l-2 2-.293.293V10h4V9h-2.293l2-2L14 6.707V6h-.707zm5-3v1h2.293l-2 2-.293.293V7h4V6h-2.293l2-2L19 3.707V3h-.707z" />
  </g>
</svg>
