<?xml version="1.0" encoding="utf-8"?>
<!-- Generator: Adobe Illustrator 24.0.1, SVG Export Plug-In . SVG Version: 6.00 Build 0)  -->
<svg version="1.1" id="Layer_1" xmlns="http://www.w3.org/2000/svg" xmlns:xlink="http://www.w3.org/1999/xlink" x="0px" y="0px"
	 viewBox="0 0 512 512" style="enable-background:new 0 0 512 512;" xml:space="preserve">
<style type="text/css">
	.st0{display:none;}
	.st1{opacity:0.9;}
	.st2{fill:#B7B7B7;}
	.st3{fill:#FFFFFF;}
	.st4{fill:#FFFFFF;stroke:#7F7F7F;stroke-width:2;stroke-miterlimit:10;}
	.st5{fill:none;}
	.st6{opacity:0.75;fill:#6200E2;enable-background:new    ;}
</style>
<g id="Layer_1_1_">
	<g id="Layer_2_1_" class="st0">
	</g>
	<g id="shadows">
		<g class="st1">
			<g>
				<path class="st2" d="M466.5,381.5c0,48.6-39.4,88-88,88h-246c-48.6,0-88-39.4-88-88V164.8c0-48.6,39.4-88,88-88h246
					c48.6,0,88,39.4,88,88V381.5z"/>
			</g>
		</g>
		<g>
			<g>
				<path class="st3" d="M466.5,360.5c0,48.6-39.4,88-88,88h-246c-48.6,0-88-39.4-88-88V143.8c0-48.6,39.4-88,88-88h246
					c48.6,0,88,39.4,88,88V360.5z"/>
			</g>
		</g>
	</g>
	<path class="st4" d="M465.5,362.7c0,48.6-39.4,88-88,88h-246c-48.6,0-88-39.4-88-88V146c0-48.6,39.4-88,88-88h246
		c48.6,0,88,39.4,88,88V362.7z"/>
</g>
<rect x="129.5" y="124.5" class="st5" width="255" height="248"/>
<path class="st6" d="M255,118.9c-66.3,0-120,17.3-120,38.7v206.5c0,21.4,53.7,38.7,120,38.7s120-17.3,120-38.7V157.6
	C375,136.2,321.3,118.9,255,118.9 M255,131.8c60.2,0,109.1,11.6,109.1,25.8s-48.8,25.8-109.1,25.8s-109.1-11.6-109.1-25.8
	S194.8,131.8,255,131.8 M145.9,173.7c19.5,13.8,62.1,22.7,109.1,22.7s89.6-8.9,109.1-22.7v48.5c0,14.3-48.8,25.8-109.1,25.8
	s-109.1-11.6-109.1-25.8V173.7z M145.9,238.2C165.4,252,208,260.9,255,260.9s89.6-8.9,109.1-22.7v61.4c0,14.3-48.8,25.8-109.1,25.8
	s-109.1-11.6-109.1-25.8V238.2z M145.9,315.7c19.5,13.8,62.1,22.7,109.1,22.7s89.6-8.9,109.1-22.7v48.5c0,14.3-48.8,25.8-109.1,25.8
	s-109.1-11.6-109.1-25.8v-12.9V315.7z"/>
</svg>
