<?xml version="1.0" encoding="utf-8"?>
<!-- Generator: Adobe Illustrator 16.0.0, SVG Export Plug-In . SVG Version: 6.00 Build 0)  -->
<!DOCTYPE svg PUBLIC "-//W3C//DTD SVG 1.1//EN" "http://www.w3.org/Graphics/SVG/1.1/DTD/svg11.dtd">
<svg version="1.1" id="Layer_1" xmlns="http://www.w3.org/2000/svg" xmlns:xlink="http://www.w3.org/1999/xlink" x="0px" y="0px"
	 width="2000px" height="2000px" viewBox="0 0 2000 2000" enable-background="new 0 0 2000 2000" xml:space="preserve">
<g id="Layer_1_1_">
	<g id="Layer_2_1_" display="none">
	</g>
	<g id="shadows">
		<g opacity="0.9">
			<g>
				<path fill="#B7B7B7" d="M1822.266,1490.234c0,189.844-153.906,343.75-343.75,343.75H517.578
					c-189.844,0-343.75-153.906-343.75-343.75V643.75c0-189.844,153.906-343.75,343.75-343.75h960.938
					c189.844,0,343.75,153.906,343.75,343.75V1490.234z"/>
			</g>
		</g>
		<g>
			<g>
				<path fill="#FFFFFF" d="M1822.266,1408.203c0,189.844-153.906,343.75-343.75,343.75H517.578
					c-189.844,0-343.75-153.906-343.75-343.75V561.719c0-189.844,153.906-343.75,343.75-343.75h960.938
					c189.844,0,343.75,153.906,343.75,343.75V1408.203z"/>
			</g>
		</g>
	</g>
	<path fill="#FFFFFF" stroke="#7F7F7F" stroke-width="2" stroke-miterlimit="10" d="M1818.359,1416.797
		c0,189.844-153.906,343.75-343.75,343.75H513.672c-189.844,0-343.75-153.906-343.75-343.75V570.313
		c0-189.844,153.906-343.75,343.75-343.75h960.938c189.844,0,343.75,153.906,343.75,343.75V1416.797z"/>
</g>
<rect x="505.859" y="486.328" fill="none" width="996.094" height="968.75"/>
<rect x="324.997" y="444.973" fill="#6ABD45" stroke="#000000" stroke-miterlimit="10" width="221.956" height="227.955"/>
<rect x="324.997" y="786.904" fill="#FAED25" stroke="#000000" stroke-miterlimit="10" width="929.814" height="143.972"/>
<rect x="714.919" y="444.973" fill="#ED0F79" stroke="#000000" stroke-miterlimit="10" width="539.892" height="227.955"/>
<rect x="324.997" y="1038.854" fill="#37469D" stroke="#000000" stroke-miterlimit="10" width="569.886" height="485.903"/>
<rect x="998.047" y="1038.854" fill="#58B947" stroke="#000000" stroke-miterlimit="10" width="256.764" height="242.951"/>
<rect x="1003.906" y="1374.787" fill="#57C0EE" stroke="#000000" stroke-miterlimit="10" width="250.904" height="149.97"/>
<rect x="1380.785" y="444.973" fill="#EF3932" stroke="#000000" stroke-miterlimit="10" width="299.94" height="1079.784"/>
</svg>
