<?xml version="1.0" encoding="utf-8"?>
<!-- Generator: Adobe Illustrator 16.0.0, SVG Export Plug-In . SVG Version: 6.00 Build 0)  -->
<!DOCTYPE svg PUBLIC "-//W3C//DTD SVG 1.1//EN" "http://www.w3.org/Graphics/SVG/1.1/DTD/svg11.dtd">
<svg version="1.1" id="Layer_1" xmlns="http://www.w3.org/2000/svg" xmlns:xlink="http://www.w3.org/1999/xlink" x="0px" y="0px"
	 width="2000px" height="2000px" viewBox="0 0 2000 2000" enable-background="new 0 0 2000 2000" xml:space="preserve">
<g id="Layer_1_1_">
	<g id="Layer_2_1_" display="none">
	</g>
	<g id="shadows">
		<g opacity="0.9">
			<g>
				<path fill="#B7B7B7" d="M1822.266,1490.234c0,189.844-153.906,343.75-343.75,343.75H517.578
					c-189.844,0-343.75-153.906-343.75-343.75V643.75c0-189.844,153.906-343.75,343.75-343.75h960.938
					c189.844,0,343.75,153.906,343.75,343.75V1490.234z"/>
			</g>
		</g>
		<g>
			<g>
				<path fill="#FFFFFF" d="M1822.266,1408.203c0,189.844-153.906,343.75-343.75,343.75H517.578
					c-189.844,0-343.75-153.906-343.75-343.75V561.719c0-189.844,153.906-343.75,343.75-343.75h960.938
					c189.844,0,343.75,153.906,343.75,343.75V1408.203z"/>
			</g>
		</g>
	</g>
	<path fill="#FFFFFF" stroke="#7F7F7F" stroke-width="2" stroke-miterlimit="10" d="M1818.359,1416.797
		c0,189.844-153.906,343.75-343.75,343.75H513.672c-189.844,0-343.75-153.906-343.75-343.75V570.313
		c0-189.844,153.906-343.75,343.75-343.75h960.938c189.845,0,343.75,153.906,343.75,343.75V1416.797L1818.359,1416.797z"/>
</g>
<rect x="505.859" y="486.328" fill="none" width="996.094" height="968.75"/>
<rect x="-223.5" y="-181.438" fill="none" width="2984" height="2296"/>
<rect x="368.5" y="486.328" fill="none" width="1272" height="218.172"/>
<text transform="matrix(1 0 0 1 271.5 628.3262)" font-family="'MyriadPro-Regular'" font-size="200">101110010010</text>
<rect x="368" y="784.5" fill="none" width="1308.5" height="248"/>
<text transform="matrix(1 0 0 1 271 926.498)" font-family="'MyriadPro-Regular'" font-size="200">101100111011</text>
<rect x="368" y="1066.992" fill="none" width="1244.5" height="248"/>
<text transform="matrix(1 0 0 1 271 1208.9902)" font-family="'MyriadPro-Regular'" font-size="200">101100111011</text>
<rect x="363.906" y="1331.078" fill="none" width="1276.594" height="248"/>
<text transform="matrix(1 0 0 1 266.9063 1473.0762)" font-family="'MyriadPro-Regular'" font-size="200">101100111011</text>
</svg>
