<?xml version="1.0" encoding="utf-8"?>
<!-- Generator: Adobe Illustrator 24.0.1, SVG Export Plug-In . SVG Version: 6.00 Build 0)  -->
<svg version="1.1" id="Layer_1" xmlns="http://www.w3.org/2000/svg" xmlns:xlink="http://www.w3.org/1999/xlink" x="0px" y="0px"
	 viewBox="0 0 512 512" style="enable-background:new 0 0 512 512;" xml:space="preserve">
<style type="text/css">
	.st0{display:none;}
	.st1{opacity:0.9;}
	.st2{fill:#B7B7B7;}
	.st3{fill:#FFFFFF;}
	.st4{fill:#FFFFFF;stroke:#7F7F7F;stroke-width:2;stroke-miterlimit:10;}
	.st5{fill:none;}
	.st6{fill:#29008C;}
</style>
<g id="Layer_1_1_">
	<g id="Layer_2_1_" class="st0">
	</g>
	<g id="shadows">
		<g class="st1">
			<g>
				<path class="st2" d="M466.5,381.5c0,48.6-39.4,88-88,88h-246c-48.6,0-88-39.4-88-88V164.8c0-48.6,39.4-88,88-88h246
					c48.6,0,88,39.4,88,88V381.5z"/>
			</g>
		</g>
		<g>
			<g>
				<path class="st3" d="M466.5,360.5c0,48.6-39.4,88-88,88h-246c-48.6,0-88-39.4-88-88V143.8c0-48.6,39.4-88,88-88h246
					c48.6,0,88,39.4,88,88V360.5z"/>
			</g>
		</g>
	</g>
	<path class="st4" d="M465.5,362.7c0,48.6-39.4,88-88,88h-246c-48.6,0-88-39.4-88-88V146c0-48.6,39.4-88,88-88h246
		c48.6,0,88,39.4,88,88V362.7z"/>
</g>
<rect x="129.5" y="124.5" class="st5" width="255" height="248"/>
<path class="st6" d="M141.6,109.2c-6.7,0-12.1,5.9-12.1,13.2v263.3c0,7.3,5.4,13.2,12.1,13.2h218c6.7,0,12.1-5.9,12.1-13.2v-13.2
	h12.1c6.7,0,12.1-5.9,12.1-13.2v-52.7c0-2.4-0.8-4.6-1.8-6.6c1.1-2,1.8-4.1,1.8-6.6v-52.7c0-2.4-0.8-4.6-1.8-6.6
	c1.1-2,1.8-4.1,1.8-6.6V175c0-7.3-5.4-13.2-12.1-13.2h-12.1v-39.5c0-7.3-5.4-13.2-12.1-13.2L141.6,109.2L141.6,109.2z M141.6,122.4
	h218v263.3h-218V122.4z M153.7,148.7v13.2h84.8v-13.2H153.7z M262.8,148.7v13.2h84.8v-13.2H262.8z M371.8,175h12.1v52.7h-12.1V175z
	 M153.7,188.2v13.2h84.8v-13.2H153.7z M262.8,188.2v13.2h84.8v-13.2H262.8z M153.7,227.7v13.2h84.8v-13.2H153.7z M262.8,227.7v13.2
	h84.8v-13.2H262.8z M371.8,240.9h12.1v52.7h-12.1V240.9z M153.7,267.2v13.2h84.8v-13.2H153.7z M262.8,267.2v13.2h84.8v-13.2H262.8z
	 M153.7,306.7v13.2h84.8v-13.2H153.7z M262.8,306.7v13.2h84.8v-13.2H262.8z M371.8,306.7h12.1v52.7h-12.1V306.7z M153.7,346.2v13.2
	h84.8v-13.2H153.7z M262.8,346.2v13.2h84.8v-13.2H262.8z"/>
</svg>
