<?xml version="1.0" encoding="utf-8"?>
<!-- Generator: Adobe Illustrator 16.0.0, SVG Export Plug-In . SVG Version: 6.00 Build 0)  -->
<!DOCTYPE svg PUBLIC "-//W3C//DTD SVG 1.1//EN" "http://www.w3.org/Graphics/SVG/1.1/DTD/svg11.dtd">
<svg version="1.1" id="Layer_1" xmlns="http://www.w3.org/2000/svg" xmlns:xlink="http://www.w3.org/1999/xlink" x="0px" y="0px"
	 width="512px" height="512px" viewBox="0 0 512 512" enable-background="new 0 0 512 512" xml:space="preserve">
<g id="Layer_1_1_">
	<g id="Layer_2" display="none">
	</g>
	<g id="shadows">
		<g opacity="0.9">
			<g>
				<path fill="#B7B7B7" d="M466.5,381.5c0,48.6-39.4,88-88,88h-246c-48.601,0-88-39.4-88-88V164.833c0-48.601,39.399-88,88-88h246
					c48.6,0,88,39.399,88,88V381.5z"/>
			</g>
		</g>
		<g>
			<g>
				<path fill="#FFFFFF" d="M466.5,360.5c0,48.6-39.4,88-88,88h-246c-48.601,0-88-39.4-88-88V143.833c0-48.601,39.399-88,88-88h246
					c48.6,0,88,39.399,88,88V360.5z"/>
			</g>
		</g>
	</g>
	
		<radialGradient id="SVGID_1_" cx="254.5" cy="-578.3335" r="203.7987" gradientTransform="matrix(1 0 0 -1 0 -324)" gradientUnits="userSpaceOnUse">
		<stop  offset="0.0056" style="stop-color:#717073"/>
		<stop  offset="1" style="stop-color:#252727"/>
	</radialGradient>
	<path fill="url(#SVGID_1_)" stroke="#E2E2E2" stroke-width="10" stroke-miterlimit="10" d="M465.5,362.667c0,48.6-39.399,88-88,88
		h-246c-48.601,0-88-39.4-88-88V146c0-48.601,39.399-88,88-88h246c48.601,0,88,39.399,88,88V362.667z"/>
</g>
<g id="Layer_2_1_">
	<radialGradient id="SVGID_2_" cx="269" cy="255.5547" r="130.9279" gradientUnits="userSpaceOnUse">
		<stop  offset="0" style="stop-color:#FD7E32"/>
		<stop  offset="0.5" style="stop-color:#FF5400"/>
		<stop  offset="1" style="stop-color:#D83C01"/>
	</radialGradient>
	<polyline fill="url(#SVGID_2_)" stroke="#000000" stroke-miterlimit="10" points="295.25,118.5 366.128,138.396 366.5,138.5 
		224,217.5 225.01,217.815 393.5,273.166 393.5,273.438 393.5,308.166 393.096,308.303 144.5,392.609 144.5,392.5 144.5,358.031 
		144.5,357.5 303.376,273.667 303.376,273.667 144.5,237.5 144.5,237.203 144.5,187.292 144.5,186.5 295.25,118.5 	"/>
</g>
</svg>
