<?xml version="1.0" encoding="utf-8"?>
<!-- Generator: Adobe Illustrator 16.0.0, SVG Export Plug-In . SVG Version: 6.00 Build 0)  -->
<!DOCTYPE svg PUBLIC "-//W3C//DTD SVG 1.1//EN" "http://www.w3.org/Graphics/SVG/1.1/DTD/svg11.dtd">
<svg version="1.1" id="Layer_1" xmlns="http://www.w3.org/2000/svg" xmlns:xlink="http://www.w3.org/1999/xlink" x="0px" y="0px"
	 width="512px" height="512px" viewBox="0 0 512 512" enable-background="new 0 0 512 512" xml:space="preserve">
<g id="Layer_1_1_">
	<g id="Layer_2" display="none">
	</g>
	<g id="shadows">
		<g opacity="0.9">
			<g>
				<path fill="#B7B7B7" d="M466.5,381.5c0,48.6-39.4,88-88,88h-246c-48.601,0-88-39.4-88-88V164.833c0-48.601,39.399-88,88-88h246
					c48.6,0,88,39.399,88,88V381.5z"/>
			</g>
		</g>
		<g>
			<g>
				<path fill="#FFFFFF" d="M466.5,360.5c0,48.6-39.4,88-88,88h-246c-48.601,0-88-39.4-88-88V143.833c0-48.601,39.399-88,88-88h246
					c48.6,0,88,39.399,88,88V360.5z"/>
			</g>
		</g>
	</g>
	
		<radialGradient id="SVGID_1_" cx="254.5" cy="1091.334" r="203.7985" gradientTransform="matrix(1 0 0 1 0 -837)" gradientUnits="userSpaceOnUse">
		<stop  offset="0.0056" style="stop-color:#717073"/>
		<stop  offset="1" style="stop-color:#252727"/>
	</radialGradient>
	<path fill="url(#SVGID_1_)" stroke="#E2E2E2" stroke-width="10" stroke-miterlimit="10" d="M465.5,362.667c0,48.6-39.399,88-88,88
		h-246c-48.601,0-88-39.4-88-88V146c0-48.601,39.399-88,88-88h246c48.601,0,88,39.399,88,88V362.667z"/>
</g>
<path fill="#FFFFFF" d="M145.343,193.321c34.276-19.659,68.553-39.289,102.839-58.88c34.267,19.601,68.592,39.142,102.82,58.821
	c-0.039,39.309-0.059,78.618,0.02,117.927c-34.208,19.708-68.572,39.112-102.849,58.703
	c-34.375-19.758-68.916-39.191-103.173-59.115c13.666-7.75,27.321-15.52,41.016-23.23c20.709,11.889,41.487,23.711,62.146,35.68
	c20.621-12.057,41.517-23.652,62.058-35.827c-0.186-15.735-0.02-31.451-0.088-47.186c-20.641,11.919-41.301,23.819-61.97,35.689
	c-34.296-19.424-68.494-39.064-102.799-58.527C145.363,209.351,145.383,201.326,145.343,193.321L145.343,193.321z M206.244,205.123
	c13.911,8.133,27.969,16.049,41.918,24.113c14.048-8.025,28.077-16.06,42.144-24.074c-14.077-7.966-28.086-16.049-42.144-24.044
	C234.184,189.103,220.253,197.206,206.244,205.123L206.244,205.123z"/>
</svg>
