<?xml version="1.0" encoding="utf-8"?>
<!-- Generator: Adobe Illustrator 16.0.0, SVG Export Plug-In . SVG Version: 6.00 Build 0)  -->
<!DOCTYPE svg PUBLIC "-//W3C//DTD SVG 1.1//EN" "http://www.w3.org/Graphics/SVG/1.1/DTD/svg11.dtd">
<svg version="1.1" id="Layer_1" xmlns="http://www.w3.org/2000/svg" xmlns:xlink="http://www.w3.org/1999/xlink" x="0px" y="0px"
	 width="512px" height="512px" viewBox="0 0 512 512" enable-background="new 0 0 512 512" xml:space="preserve">
<g id="Layer_1_1_">
	<g id="Layer_2" display="none">
	</g>
	<g id="shadows">
		<g opacity="0.9">
			<g>
				<path fill="#B7B7B7" d="M466.5,381.5c0,48.6-39.4,88-88,88h-246c-48.601,0-88-39.4-88-88V164.833c0-48.601,39.399-88,88-88h246
					c48.6,0,88,39.399,88,88V381.5z"/>
			</g>
		</g>
		<g>
			<g>
				<path fill="#FFFFFF" d="M466.5,360.5c0,48.6-39.4,88-88,88h-246c-48.601,0-88-39.4-88-88V143.833c0-48.601,39.399-88,88-88h246
					c48.6,0,88,39.399,88,88V360.5z"/>
			</g>
		</g>
	</g>
	
		<radialGradient id="SVGID_1_" cx="488" cy="177.3335" r="203.7987" gradientTransform="matrix(1 0 0 1 -233.5 77)" gradientUnits="userSpaceOnUse">
		<stop  offset="0" style="stop-color:#F96165"/>
		<stop  offset="0.5" style="stop-color:#F8193A"/>
		<stop  offset="1" style="stop-color:#E70025"/>
	</radialGradient>
	<path fill="url(#SVGID_1_)" stroke="#E2E2E2" stroke-width="10" stroke-miterlimit="10" d="M465.5,362.667c0,48.6-39.399,88-88,88
		h-246c-48.601,0-88-39.4-88-88V146c0-48.601,39.399-88,88-88h246c48.601,0,88,39.399,88,88V362.667z"/>
</g>
<g>
	<path fill="#FFFFFF" d="M405.465,314.991c-10.93-19.736-58.794-32.307-101.058-34.689c-3.82-4.09-7.697-8.39-11.672-12.913
		c-36.323-41.529-51.032-101.882-56.525-133.854c-0.653-6.775-1.372-12.407-1.975-16.603c-0.49-3.338-1.519-10.3-8.759-10.3
		c-2.317,0-4.554,0.996-6.146,2.767c-2.58,2.946-2.196,6.113-1.739,9.77c0.514,4.195,1.29,9.812,2.392,16.219
		c3.093,32.461,4.555,94.267-20.431,143.364c-2.604,5.116-5.199,10.029-7.778,14.715c-46.754,13.599-84.48,37.851-90.006,57.961
		c-2,7.283-0.261,14.261,4.905,19.663c6.016,6.286,13.117,9.47,21.108,9.47c22.12,0,47.334-24.635,74.939-73.193
		c12.292-3.231,24.495-5.482,36.29-6.676c4.595-0.466,12.031-1.437,16.602-2.138c12.595-1.942,26.846-2.728,41.489-2.245
		c33.89,35.228,61.602,53.087,82.365,53.087c11.151-0.007,20.383-5.444,25.981-15.304
		C408.893,327.986,408.908,321.194,405.465,314.991z M127.774,364.235c-3.461,0-6.416-1.405-9.313-4.432
		c-1.183-1.234-1.444-2.295-0.955-4.041c2.849-10.358,26.781-28.111,61.757-40.999C159.5,345.944,140.589,364.235,127.774,364.235z
		 M253.106,282.44c-4.342,0.669-11.395,1.585-15.753,2.041c-7.926,0.782-16.072,2.032-24.292,3.714
		c0.343-0.669,0.686-1.347,1.028-2.025c12.252-24.069,19.843-52.932,22.651-86.013c11.239,31.458,25.899,57.626,43.701,77.981
		c0.521,0.604,1.069,1.218,1.592,1.839C271.757,280.221,262.061,281.061,253.106,282.44z M391.213,326.076
		c-2.71,4.8-6.563,7.028-12.088,7.028h-0.009c-12.979,0-32.935-12.283-56.826-34.812c36.976,4.644,64.051,15.834,68.907,24.608
		C391.898,324.175,391.898,324.851,391.213,326.076z"/>
</g>
</svg>
