<?xml version="1.0" encoding="utf-8"?>
<!-- Generator: Adobe Illustrator 16.0.0, SVG Export Plug-In . SVG Version: 6.00 Build 0)  -->
<!DOCTYPE svg PUBLIC "-//W3C//DTD SVG 1.1//EN" "http://www.w3.org/Graphics/SVG/1.1/DTD/svg11.dtd">
<svg version="1.1" id="Layer_1" xmlns="http://www.w3.org/2000/svg" xmlns:xlink="http://www.w3.org/1999/xlink" x="0px" y="0px"
	 width="512px" height="512px" viewBox="0 0 512 512" enable-background="new 0 0 512 512" xml:space="preserve">
<g id="Layer_1_1_">
	<g id="Layer_2" display="none">
	</g>
	<g id="shadows">
		<g opacity="0.9">
			<g>
				<path fill="#B7B7B7" d="M466.5,381.5c0,48.6-39.4,88-88,88h-246c-48.601,0-88-39.4-88-88V164.833c0-48.601,39.399-88,88-88h246
					c48.6,0,88,39.399,88,88V381.5z"/>
			</g>
		</g>
		<g>
			<g>
				<path fill="#FFFFFF" d="M466.5,360.5c0,48.6-39.4,88-88,88h-246c-48.601,0-88-39.4-88-88V143.833c0-48.601,39.399-88,88-88h246
					c48.6,0,88,39.399,88,88V360.5z"/>
			</g>
		</g>
	</g>
	
		<radialGradient id="SVGID_1_" cx="721.5" cy="159.6665" r="203.7987" gradientTransform="matrix(1 0 0 -1 -467 414)" gradientUnits="userSpaceOnUse">
		<stop  offset="0" style="stop-color:#FB8160"/>
		<stop  offset="0.1564" style="stop-color:#FC664A"/>
		<stop  offset="0.5" style="stop-color:#FD2F1B"/>
		<stop  offset="0.7306" style="stop-color:#E81710"/>
		<stop  offset="1" style="stop-color:#D30006"/>
	</radialGradient>
	<path fill="url(#SVGID_1_)" stroke="#E2E2E2" stroke-width="10" stroke-miterlimit="10" d="M465.5,362.667c0,48.6-39.399,88-88,88
		h-246c-48.601,0-88-39.4-88-88V146c0-48.601,39.399-88,88-88h246c48.601,0,88,39.399,88,88V362.667z"/>
</g>
<circle fill="#F7290E" cx="254.5" cy="260" r="159"/>
<path fill="#F2F2F2" d="M385.414,297.784c-3.997-3.485-7.877-7.112-11.208-11.241c-16.697-20.688-26.705-46.991-26.705-75.638
	c0-8.437,0.87-16.659,2.525-24.602c0.869-4.174,2.258-8.204,3.694-12.214c0.797-2.246,1.459-4.555,1.965-6.925v-0.013
	c1.539-7.209,1.687-14.945,0.006-22.922c-0.667-3.161-1.608-6.216-2.803-9.144c-7.742-19.035-25.999-32.566-46.961-33.961
	c-7.464-0.493-14.635,0.507-21.234,2.739c-18.593,6.275-32.709,22.272-36.304,41.943c-0.78,4.264-1.662,8.527-3.109,12.616
	c-8.527,24.168-24.79,45.818-47.939,60.861c-12.421,8.067-25.778,13.55-39.433,16.601c-0.291,0.065-0.583,0.131-0.87,0.188
	c0,0-4.257,1.175-6.275,1.798c-23.416,7.184-40.14,29.65-38.517,55.772c1.687,27.206,23.752,49.322,50.951,51.103
	c5.094,0.328,10.046-0.041,14.784-1.021h0.006c0.007,0,0.013-0.004,0.02-0.004c2.323-0.48,4.595-1.117,6.801-1.89
	c3.939-1.377,7.905-2.715,11.993-3.544c7.802-1.59,15.868-2.434,24.129-2.434c23.889,0,46.162,6.943,64.891,18.931
	c8.71,5.575,16.31,12.681,22.969,20.586c1.097,1.304,2.2,2.532,3.141,3.412c7.97,7.522,18.19,12.683,29.548,14.343
	c26.451-17.32,47.427-42.306,59.764-71.803C398.101,312.133,392.58,304.04,385.414,297.784z"/>
<circle fill="#F7290E" stroke="#F03C9B" stroke-miterlimit="10" cx="272.275" cy="261.826" r="54.706"/>
</svg>
