<?xml version="1.0" encoding="utf-8"?>
<!-- Generator: Adobe Illustrator 16.0.0, SVG Export Plug-In . SVG Version: 6.00 Build 0)  -->
<!DOCTYPE svg PUBLIC "-//W3C//DTD SVG 1.1//EN" "http://www.w3.org/Graphics/SVG/1.1/DTD/svg11.dtd">
<svg version="1.1" id="Layer_1" xmlns="http://www.w3.org/2000/svg" xmlns:xlink="http://www.w3.org/1999/xlink" x="0px" y="0px"
	 width="512px" height="512px" viewBox="0 0 512 512" enable-background="new 0 0 512 512" xml:space="preserve">
<g id="Layer_1_2_">
	<g id="Layer_1_1_">
		<g id="Layer_2" display="none">
		</g>
		<g id="shadows">
			<g opacity="0.9">
				<g>
					<path fill="#B7B7B7" d="M466.5,381.5c0,48.6-39.4,88-88,88h-246c-48.601,0-88-39.4-88-88V164.833c0-48.601,39.399-88,88-88h246
						c48.6,0,88,39.399,88,88V381.5z"/>
				</g>
			</g>
			<g>
				<g>
					<path fill="#FFFFFF" d="M466.5,360.5c0,48.6-39.4,88-88,88h-246c-48.601,0-88-39.4-88-88V143.833c0-48.601,39.399-88,88-88h246
						c48.6,0,88,39.399,88,88V360.5z"/>
				</g>
			</g>
		</g>
		
			<radialGradient id="SVGID_1_" cx="721.5" cy="353.334" r="203.7985" gradientTransform="matrix(1 0 0 1 -467 -99)" gradientUnits="userSpaceOnUse">
			<stop  offset="0.0056" style="stop-color:#DBF2F7"/>
			<stop  offset="0.4494" style="stop-color:#B3E2EE"/>
			<stop  offset="1" style="stop-color:#9FD0E4"/>
		</radialGradient>
		<path fill="url(#SVGID_1_)" stroke="#E2E2E2" stroke-width="7" stroke-miterlimit="10" d="M465.5,362.667c0,48.6-39.399,88-88,88
			h-246c-48.601,0-88-39.4-88-88V146c0-48.601,39.399-88,88-88h246c48.601,0,88,39.399,88,88V362.667z"/>
	</g>
</g>
<radialGradient id="SVGID_2_" cx="186.7383" cy="295.8027" r="101.649" gradientUnits="userSpaceOnUse">
	<stop  offset="0" style="stop-color:#FFFFFF"/>
	<stop  offset="0.0945" style="stop-color:#D4ECF3"/>
	<stop  offset="0.2163" style="stop-color:#A3D8E5"/>
	<stop  offset="0.3414" style="stop-color:#78C6DA"/>
	<stop  offset="0.4676" style="stop-color:#56B7D0"/>
	<stop  offset="0.5953" style="stop-color:#3BACC8"/>
	<stop  offset="0.7251" style="stop-color:#28A3C3"/>
	<stop  offset="0.8583" style="stop-color:#1D9FC0"/>
	<stop  offset="1" style="stop-color:#199DBF"/>
</radialGradient>
<polygon fill="url(#SVGID_2_)" stroke="#FCFCFC" stroke-width="7" stroke-miterlimit="10" points="283.5,362.5 212.295,348.767 
	160.615,399.637 151.673,327.674 87.322,294.242 153,263.5 164.909,191.968 214.442,244.932 286.154,234.153 251.089,297.629 "/>
<radialGradient id="SVGID_3_" cx="302.877" cy="151.3809" r="34.0507" gradientUnits="userSpaceOnUse">
	<stop  offset="0" style="stop-color:#FFFFFF"/>
	<stop  offset="0.0945" style="stop-color:#D4ECF3"/>
	<stop  offset="0.2163" style="stop-color:#A3D8E5"/>
	<stop  offset="0.3414" style="stop-color:#78C6DA"/>
	<stop  offset="0.4676" style="stop-color:#56B7D0"/>
	<stop  offset="0.5953" style="stop-color:#3BACC8"/>
	<stop  offset="0.7251" style="stop-color:#28A3C3"/>
	<stop  offset="0.8583" style="stop-color:#1D9FC0"/>
	<stop  offset="1" style="stop-color:#199DBF"/>
</radialGradient>
<polygon fill="url(#SVGID_3_)" stroke="#FFFFFF" stroke-width="7" stroke-miterlimit="10" points="336.5,169.5 312.456,167.296 
	297.01,185.854 291.675,162.306 269.253,153.35 290,141 291.589,116.907 309.745,132.823 333.149,126.889 323.624,149.075 "/>
</svg>
