<?xml version="1.0" encoding="utf-8"?>
<!-- Generator: Adobe Illustrator 16.0.0, SVG Export Plug-In . SVG Version: 6.00 Build 0)  -->
<!DOCTYPE svg PUBLIC "-//W3C//DTD SVG 1.1//EN" "http://www.w3.org/Graphics/SVG/1.1/DTD/svg11.dtd">
<svg version="1.1" id="Layer_1" xmlns="http://www.w3.org/2000/svg" xmlns:xlink="http://www.w3.org/1999/xlink" x="0px" y="0px"
	 width="512px" height="512px" viewBox="0 0 512 512" enable-background="new 0 0 512 512" xml:space="preserve">
<g id="Layer_1_2_">
	<g id="Layer_1_1_">
		<g id="Layer_2" display="none">
		</g>
		<g id="shadows">
			<g opacity="0.9">
				<g>
					<path fill="#B7B7B7" d="M466.5,381.5c0,48.6-39.4,88-88,88h-246c-48.601,0-88-39.4-88-88V164.833c0-48.601,39.399-88,88-88h246
						c48.6,0,88,39.399,88,88V381.5z"/>
				</g>
			</g>
			<g>
				<g>
					<path fill="#FFFFFF" d="M466.5,360.5c0,48.6-39.4,88-88,88h-246c-48.601,0-88-39.4-88-88V143.833c0-48.601,39.399-88,88-88h246
						c48.6,0,88,39.399,88,88V360.5z"/>
				</g>
			</g>
		</g>
		
			<radialGradient id="SVGID_1_" cx="955" cy="-16.3335" r="203.7987" gradientTransform="matrix(1 0 0 -1 -700.5 238)" gradientUnits="userSpaceOnUse">
			<stop  offset="0" style="stop-color:#EBB3D0"/>
			<stop  offset="0.5" style="stop-color:#E08BB7"/>
			<stop  offset="1" style="stop-color:#DA76AA"/>
		</radialGradient>
		<path fill="url(#SVGID_1_)" stroke="#E2E2E2" stroke-width="7" stroke-miterlimit="10" d="M465.5,362.667c0,48.6-39.399,88-88,88
			h-246c-48.601,0-88-39.4-88-88V146c0-48.601,39.399-88,88-88h246c48.601,0,88,39.399,88,88V362.667z"/>
	</g>
</g>
<g>
	<g>
		<path fill="#FFFFFF" d="M124.5,130v260h260V130H124.5z M206.085,374.766h-66.351v-66.357h66.351V374.766z M206.085,293.174
			h-66.351V226.82h66.351V293.174z M206.085,211.585h-66.351v-66.351h66.351V211.585z M287.674,374.766H221.32v-66.357h66.354
			V374.766z M287.674,293.174H221.32V226.82h66.354V293.174z M287.674,211.585H221.32v-66.351h66.354V211.585z M369.266,374.766
			h-66.357v-66.357h66.357V374.766z M369.266,293.174h-66.357V226.82h66.357V293.174z M369.266,211.585h-66.357v-66.351h66.357
			V211.585z"/>
	</g>
</g>
</svg>
