<?xml version="1.0" encoding="utf-8"?>
<!-- Generator: Adobe Illustrator 16.0.0, SVG Export Plug-In . SVG Version: 6.00 Build 0)  -->
<!DOCTYPE svg PUBLIC "-//W3C//DTD SVG 1.1//EN" "http://www.w3.org/Graphics/SVG/1.1/DTD/svg11.dtd">
<svg version="1.1" id="Layer_1" xmlns="http://www.w3.org/2000/svg" xmlns:xlink="http://www.w3.org/1999/xlink" x="0px" y="0px"
	 width="512px" height="512px" viewBox="0 0 512 512" enable-background="new 0 0 512 512" xml:space="preserve">
<g id="Layer_1_2_">
	<g id="Layer_1_1_">
		<g id="Layer_2" display="none">
		</g>
		<g id="shadows">
			<g opacity="0.9">
				<g>
					<path fill="#B7B7B7" d="M466.5,381.5c0,48.6-39.4,88-88,88h-246c-48.601,0-88-39.4-88-88V164.833c0-48.601,39.399-88,88-88h246
						c48.6,0,88,39.399,88,88V381.5z"/>
				</g>
			</g>
			<g>
				<g>
					<path fill="#FFFFFF" d="M466.5,360.5c0,48.6-39.4,88-88,88h-246c-48.601,0-88-39.4-88-88V143.833c0-48.601,39.399-88,88-88h246
						c48.6,0,88,39.399,88,88V360.5z"/>
				</g>
			</g>
		</g>
		
			<linearGradient id="SVGID_1_" gradientUnits="userSpaceOnUse" x1="744" y1="-16.3335" x2="1166" y2="-16.3335" gradientTransform="matrix(1 0 0 -1 -700.5 238)">
			<stop  offset="0.0056" style="stop-color:#F6602B"/>
			<stop  offset="0.5891" style="stop-color:#F79A27"/>
			<stop  offset="1" style="stop-color:#F8C524"/>
		</linearGradient>
		<path fill="url(#SVGID_1_)" stroke="#E2E2E2" stroke-width="7" stroke-miterlimit="10" d="M465.5,362.667c0,48.6-39.399,88-88,88
			h-246c-48.601,0-88-39.4-88-88V146c0-48.601,39.399-88,88-88h246c48.601,0,88,39.399,88,88V362.667z"/>
	</g>
</g>
<g id="Layer_3">
	<rect x="124.277" y="128.892" fill="#51AE26" width="80.554" height="83.692"/>
	<rect x="212.153" y="128.892" fill="#25ADCE" width="77.415" height="83.692"/>
	<linearGradient id="SVGID_2_" gradientUnits="userSpaceOnUse" x1="295.8457" y1="170.7383" x2="378.4922" y2="170.7383">
		<stop  offset="0.0056" style="stop-color:#F6602B"/>
		<stop  offset="0.5891" style="stop-color:#F79A27"/>
		<stop  offset="1" style="stop-color:#F8C524"/>
	</linearGradient>
	<rect x="295.846" y="128.892" fill="url(#SVGID_2_)" width="82.646" height="83.692"/>
	<rect x="125.323" y="214.154" fill="#F1248F" width="80.554" height="83.692"/>
	<linearGradient id="SVGID_3_" gradientUnits="userSpaceOnUse" x1="213.1992" y1="256" x2="290.6152" y2="256">
		<stop  offset="0" style="stop-color:#71C7BC"/>
		<stop  offset="0.116" style="stop-color:#5FC0B6"/>
		<stop  offset="0.5" style="stop-color:#28A9A2"/>
		<stop  offset="0.6818" style="stop-color:#18A193"/>
		<stop  offset="1" style="stop-color:#01947C"/>
	</linearGradient>
	<rect x="213.199" y="214.154" fill="url(#SVGID_3_)" width="77.416" height="83.692"/>
	<linearGradient id="SVGID_4_" gradientUnits="userSpaceOnUse" x1="296.8916" y1="256" x2="379.5371" y2="256">
		<stop  offset="0" style="stop-color:#FCF7D9"/>
		<stop  offset="0" style="stop-color:#FDEEA5"/>
		<stop  offset="0" style="stop-color:#FEE56E"/>
		<stop  offset="0.5506" style="stop-color:#FFCF00"/>
		<stop  offset="0.7073" style="stop-color:#F3C002"/>
		<stop  offset="1" style="stop-color:#E0A905"/>
	</linearGradient>
	<rect x="296.892" y="214.154" fill="url(#SVGID_4_)" width="82.646" height="83.692"/>
	<rect x="123.753" y="303.077" fill="#A76D10" width="80.554" height="83.692"/>
	<linearGradient id="SVGID_5_" gradientUnits="userSpaceOnUse" x1="211.6304" y1="344.9238" x2="289.0459" y2="344.9238">
		<stop  offset="0" style="stop-color:#D0DDEC"/>
		<stop  offset="0.5" style="stop-color:#B1C8E1"/>
		<stop  offset="0.5583" style="stop-color:#ADC6E0"/>
		<stop  offset="1" style="stop-color:#96B5D6"/>
	</linearGradient>
	<rect x="211.63" y="303.077" fill="url(#SVGID_5_)" width="77.416" height="83.692"/>
	<linearGradient id="SVGID_6_" gradientUnits="userSpaceOnUse" x1="295.3223" y1="344.9238" x2="377.9697" y2="344.9238">
		<stop  offset="0" style="stop-color:#FB8160"/>
		<stop  offset="0.1564" style="stop-color:#FC664A"/>
		<stop  offset="0.5" style="stop-color:#FD2F1B"/>
		<stop  offset="0.7306" style="stop-color:#E81710"/>
		<stop  offset="1" style="stop-color:#D30006"/>
	</linearGradient>
	<rect x="295.322" y="303.077" fill="url(#SVGID_6_)" width="82.647" height="83.692"/>
</g>
<g id="Layer_2_1_">
</g>
<g>
	<g>
		<path fill="#FFFFFF" d="M118.5,120v272h272V120H118.5z M203.851,376.063h-69.414v-69.421h69.414V376.063z M203.851,290.704
			h-69.414v-69.416h69.414V290.704z M203.851,205.351h-69.414v-69.414h69.414V205.351z M289.204,376.063h-69.416v-69.421h69.416
			V376.063z M289.204,290.704h-69.416v-69.416h69.416V290.704z M289.204,205.351h-69.416v-69.414h69.416V205.351z M374.563,376.063
			h-69.421v-69.421h69.421V376.063z M374.563,290.704h-69.421v-69.416h69.421V290.704z M374.563,205.351h-69.421v-69.414h69.421
			V205.351z"/>
	</g>
</g>
</svg>
