<?xml version="1.0" encoding="utf-8"?>
<!-- Generator: Adobe Illustrator 16.0.0, SVG Export Plug-In . SVG Version: 6.00 Build 0)  -->
<!DOCTYPE svg PUBLIC "-//W3C//DTD SVG 1.1//EN" "http://www.w3.org/Graphics/SVG/1.1/DTD/svg11.dtd">
<svg version="1.1" id="Layer_1" xmlns="http://www.w3.org/2000/svg" xmlns:xlink="http://www.w3.org/1999/xlink" x="0px" y="0px"
	 width="512px" height="512px" viewBox="0 0 512 512" enable-background="new 0 0 512 512" xml:space="preserve">
<g id="Layer_1_2_">
	<g id="Layer_1_1_">
		<g id="Layer_2" display="none">
			<rect x="91.5" y="319.991" display="inline" fill="none" width="157.718" height="139.39"/>
			<text transform="matrix(1 0 0 1 91.5002 324.1016)" display="inline" font-family="'MyriadPro-Regular'" font-size="5.7878">hhfh</text>
			
				<text transform="matrix(1 0 0 1 91.5002 324.1016)" display="inline" fill="none" stroke="#E2E2E2" stroke-width="60" stroke-miterlimit="10" font-family="'MyriadPro-Regular'" font-size="5.7878">hhfh</text>
		</g>
		<g id="shadows">
			<g opacity="0.9">
				<g>
					<path fill="#B7B7B7" d="M466.5,381.5c0,48.6-39.4,88-88,88h-246c-48.604,0-88-39.4-88-88V164.833c0-48.601,39.396-88,88-88h246
						c48.6,0,88,39.399,88,88V381.5z"/>
				</g>
			</g>
			<g>
				<g>
					<path fill="#FFFFFF" d="M466.5,360.5c0,48.6-39.4,88-88,88h-246c-48.604,0-88-39.4-88-88V143.833c0-48.601,39.396-88,88-88h246
						c48.6,0,88,39.399,88,88V360.5z"/>
				</g>
			</g>
		</g>
		
			<radialGradient id="SVGID_1_" cx="262.8596" cy="281.7197" r="203.7994" gradientTransform="matrix(1 0 0 -1 -8.3599 536.0547)" gradientUnits="userSpaceOnUse">
			<stop  offset="0" style="stop-color:#64C08A"/>
			<stop  offset="0.5" style="stop-color:#00A550"/>
			<stop  offset="1" style="stop-color:#00914C"/>
		</radialGradient>
		<path fill="url(#SVGID_1_)" stroke="#E2E2E2" stroke-width="7" stroke-miterlimit="10" d="M465.5,146v216.67
			c0,42.08-29.53,77.26-69,85.94c-6.12,1.35-12.48,2.06-19,2.06h-246c-30.222,0-56.892-15.24-72.722-38.45
			C49.13,398.111,43.5,381.05,43.5,362.67V146c0-48.6,39.398-88,88-88h246c6.52,0,12.88,0.71,19,2.06
			C435.97,68.74,465.5,103.92,465.5,146z"/>
	</g>
</g>
<path fill="#EAF5E9" d="M344.275,171.119V333.21c0,5.293-4.3,9.58-9.581,9.58H172.589c-5.282,0-9.582-4.287-9.582-9.58V171.119
	c0-5.294,4.3-9.582,9.582-9.582h162.104C339.975,161.537,344.275,165.825,344.275,171.119z"/>
<g>
	<path fill="#EAF5E9" d="M390.613,166.927c-4.962,0-8.982-4.022-8.982-8.983V126.11h-28.946c-4.962,0-8.982-4.022-8.982-8.983
		s4.021-8.983,8.982-8.983h37.93c4.962,0,8.982,4.022,8.982,8.983v40.819C399.595,162.907,395.574,166.927,390.613,166.927z"/>
	<path fill="#EAF5E9" d="M116.668,166.927c-4.961,0-8.982-4.022-8.982-8.983v-40.818c0-4.962,4.021-8.983,8.982-8.983h37.93
		c4.961,0,8.982,4.021,8.982,8.983c0,4.961-4.021,8.982-8.982,8.982h-28.945v31.835C125.653,162.907,121.63,166.927,116.668,166.927
		z"/>
	<path fill="#EAF5E9" d="M154.598,396.19h-37.93c-4.961,0-8.982-4.021-8.982-8.982V346.39c0-4.963,4.021-8.982,8.982-8.982
		c4.962,0,8.983,4.021,8.983,8.982v31.834h28.945c4.961,0,8.982,4.021,8.982,8.982S159.559,396.19,154.598,396.19z"/>
	<path fill="#EAF5E9" d="M390.613,396.19h-37.93c-4.962,0-8.982-4.021-8.982-8.982s4.021-8.982,8.982-8.982h28.946V346.39
		c0-4.961,4.021-8.982,8.982-8.982s8.982,4.021,8.982,8.982v40.818C399.595,392.169,395.574,396.19,390.613,396.19z"/>
	<path fill="#EAF5E9" d="M276.397,243.185h-13.774v-13.774c0-4.962-4.021-8.982-8.982-8.982s-8.982,4.021-8.982,8.982v13.774
		h-13.774c-4.961,0-8.982,4.021-8.982,8.982s4.021,8.982,8.982,8.982h13.774v13.775c0,4.961,4.021,8.982,8.982,8.982
		c4.963,0,8.982-4.021,8.982-8.982v-13.775h13.774c4.962,0,8.982-4.021,8.982-8.982S281.359,243.185,276.397,243.185z"/>
</g>
</svg>
