<?xml version="1.0" encoding="utf-8"?>
<!-- Generator: Adobe Illustrator 16.0.0, SVG Export Plug-In . SVG Version: 6.00 Build 0)  -->
<!DOCTYPE svg PUBLIC "-//W3C//DTD SVG 1.1//EN" "http://www.w3.org/Graphics/SVG/1.1/DTD/svg11.dtd">
<svg version="1.1" id="Layer_1" xmlns="http://www.w3.org/2000/svg" xmlns:xlink="http://www.w3.org/1999/xlink" x="0px" y="0px"
	 width="512px" height="512px" viewBox="0 0 512 512" enable-background="new 0 0 512 512" xml:space="preserve">
<g id="Layer_1_2_">
	<g id="Layer_1_1_">
		<g id="Layer_2" display="none">
		</g>
		<g id="shadows">
			<g opacity="0.9">
				<g>
					<path fill="#B7B7B7" d="M466.5,381.5c0,48.6-39.4,88-88,88h-246c-48.601,0-88-39.4-88-88V164.833c0-48.601,39.399-88,88-88h246
						c48.6,0,88,39.399,88,88V381.5z"/>
				</g>
			</g>
			<g>
				<g>
					<path fill="#FFFFFF" d="M466.5,360.5c0,48.6-39.4,88-88,88h-246c-48.601,0-88-39.4-88-88V143.833c0-48.601,39.399-88,88-88h246
						c48.6,0,88,39.399,88,88V360.5z"/>
				</g>
			</g>
		</g>
		
			<radialGradient id="SVGID_1_" cx="955" cy="-16.3335" r="203.7987" gradientTransform="matrix(1 0 0 -1 -700.5 238)" gradientUnits="userSpaceOnUse">
			<stop  offset="0" style="stop-color:#E59ECD"/>
			<stop  offset="0.5056" style="stop-color:#C375B6"/>
			<stop  offset="1" style="stop-color:#D83E98"/>
		</radialGradient>
		<path fill="url(#SVGID_1_)" stroke="#E2E2E2" stroke-width="7" stroke-miterlimit="10" d="M465.5,362.667c0,48.6-39.399,88-88,88
			h-246c-48.601,0-88-39.4-88-88V146c0-48.601,39.399-88,88-88h246c48.601,0,88,39.399,88,88V362.667z"/>
	</g>
</g>
<g id="Layer_3">
</g>
<g id="Layer_2_1_">
</g>
<path fill="#F9FAE9" d="M377.682,241.567c-0.41-3.654-4.674-6.403-8.359-6.403c-11.912,0-22.483-6.992-26.917-17.813
	c-4.525-11.081-1.605-24.001,7.27-32.144c2.795-2.556,3.136-6.835,0.792-9.806c-6.098-7.743-13.027-14.738-20.594-20.799
	c-2.961-2.375-7.311-2.044-9.881,0.799c-7.748,8.582-21.667,11.771-32.423,7.283c-11.188-4.708-18.251-16.05-17.558-28.224
	c0.229-3.826-2.569-7.151-6.383-7.595c-9.711-1.125-19.508-1.157-29.248-0.077c-3.765,0.416-6.56,3.662-6.435,7.44
	c0.422,12.055-6.721,23.196-17.801,27.736c-10.627,4.341-24.449,1.176-32.182-7.33c-2.556-2.802-6.83-3.146-9.81-0.822
	c-7.79,6.114-14.875,13.113-21.03,20.792c-2.398,2.985-2.044,7.313,0.774,9.877c9.05,8.196,11.968,21.228,7.27,32.438
	c-4.486,10.688-15.583,17.572-28.286,17.572c-4.122-0.133-7.056,2.637-7.511,6.386c-1.142,9.763-1.155,19.716-0.055,29.56
	c0.41,3.67,4.799,6.395,8.525,6.395c11.323-0.287,22.187,6.718,26.751,17.813c4.542,11.08,1.618,23.996-7.271,32.148
	c-2.781,2.557-3.136,6.825-0.789,9.793c6.037,7.693,12.973,14.693,20.563,20.807c2.979,2.4,7.313,2.063,9.896-0.783
	c7.779-8.602,21.696-11.785,32.408-7.289c11.222,4.695,18.281,16.037,17.591,28.214c-0.226,3.827,2.579,7.161,6.378,7.596
	c4.97,0.581,9.965,0.869,14.977,0.869c4.756,0,9.514-0.26,14.271-0.79c3.769-0.416,6.56-3.665,6.433-7.444
	c-0.436-12.049,6.723-23.192,17.791-27.722c10.697-4.369,24.457-1.172,32.194,7.322c2.569,2.796,6.817,3.135,9.811,0.82
	c7.776-6.098,14.848-13.094,21.03-20.793c2.4-2.98,2.06-7.313-0.775-9.882c-9.048-8.19-11.981-21.228-7.283-32.427
	c4.418-10.544,15.102-17.623,26.593-17.623l1.608,0.043c3.73,0.303,7.158-2.57,7.609-6.377
	C378.773,261.356,378.785,251.414,377.682,241.567z M248.5,330.946c-41.393,0-74.946-33.553-74.946-74.945
	c0-41.391,33.555-74.944,74.946-74.944c41.391,0,74.946,33.553,74.946,74.944c0,14.05-3.873,27.191-10.601,38.428l-32.817-32.817
	c2.377-5.603,3.631-11.675,3.63-17.942c0-12.273-4.78-23.811-13.459-32.487c-8.677-8.677-20.215-13.456-32.485-13.456
	c-4.095,0-8.171,0.544-12.114,1.618c-1.727,0.471-3.139,1.895-3.599,3.625c-0.47,1.77,0.06,3.583,1.442,4.968
	c0,0,16.202,16.326,21.623,21.746c0.568,0.568,0.566,1.923,0.487,2.411l-0.051,0.356c-0.546,5.959-1.6,13.113-2.469,15.862
	c-0.117,0.116-0.227,0.214-0.346,0.333c-0.125,0.125-0.239,0.245-0.36,0.369c-2.785,0.894-10.049,1.96-16.103,2.502l0.001-0.033
	l-0.272,0.069c-0.048,0.005-0.138,0.012-0.257,0.012c-0.654,0-1.617-0.183-2.492-1.057c-5.643-5.642-21.208-21.097-21.208-21.097
	c-1.396-1.392-2.829-1.684-3.784-1.684c-2.225,0-4.218,1.608-4.845,3.914c-4.285,15.857,0.257,32.915,11.858,44.516
	c8.679,8.678,20.218,13.457,32.491,13.457c6.267,0,12.34-1.254,17.941-3.629l33.173,33.173
	C277.182,326.608,263.352,330.946,248.5,330.946z"/>
</svg>
