<?xml version="1.0" encoding="utf-8"?>
<!-- Generator: Adobe Illustrator 16.0.0, SVG Export Plug-In . SVG Version: 6.00 Build 0)  -->
<!DOCTYPE svg PUBLIC "-//W3C//DTD SVG 1.1//EN" "http://www.w3.org/Graphics/SVG/1.1/DTD/svg11.dtd">
<svg version="1.1" id="Layer_1" xmlns="http://www.w3.org/2000/svg" xmlns:xlink="http://www.w3.org/1999/xlink" x="0px" y="0px"
	 width="512px" height="512px" viewBox="0 0 512 512" enable-background="new 0 0 512 512" xml:space="preserve">
<g id="Layer_1_2_">
	<g id="Layer_1_1_">
		<g id="Layer_2" display="none">
		</g>
		<g id="shadows">
			<g opacity="0.9">
				<g>
					<path fill="#B7B7B7" d="M466.5,381.5c0,48.601-39.4,88-88,88h-246c-48.602,0-88-39.399-88-88V164.833c0-48.601,39.398-88,88-88
						h246c48.6,0,88,39.399,88,88V381.5z"/>
				</g>
			</g>
			<g>
				<g>
					<path fill="#FFFFFF" d="M466.5,360.5c0,48.601-39.4,88-88,88h-246c-48.602,0-88-39.399-88-88V143.833c0-48.601,39.398-88,88-88
						h246c48.6,0,88,39.399,88,88V360.5z"/>
				</g>
			</g>
		</g>
		
			<radialGradient id="SVGID_1_" cx="930.0549" cy="619.9744" r="203.799" gradientTransform="matrix(1 0 0 1 -675.5547 -365.6406)" gradientUnits="userSpaceOnUse">
			<stop  offset="0" style="stop-color:#FD7E32"/>
			<stop  offset="0.5" style="stop-color:#FF5400"/>
			<stop  offset="1" style="stop-color:#D83C01"/>
		</radialGradient>
		<path fill="url(#SVGID_1_)" stroke="#E2E2E2" stroke-width="7" stroke-miterlimit="10" d="M465.5,362.668c0,48.6-39.399,88-88,88
			h-246c-48.602,0-88-39.4-88-88V146c0-48.601,39.398-88,88-88h246c48.601,0,88,39.399,88,88V362.668z"/>
	</g>
</g>
<g>
	<g>
		<path fill="#FFFFFF" d="M391.561,223.943l-21.436-3.636c-2.232-7.209-5.104-14.162-8.611-20.797l12.631-17.671
			c5.358-7.527,4.529-17.799-2.041-24.306l-19.011-19.011c-3.573-3.572-8.294-5.55-13.333-5.55c-3.955,0-7.72,1.212-10.908,3.509
			l-17.735,12.631c-6.89-3.637-14.099-6.634-21.563-8.867l-3.573-21.18c-1.53-9.122-9.377-15.757-18.627-15.757h-26.857
			c-9.25,0-17.097,6.635-18.628,15.757l-3.7,21.689c-7.145,2.233-14.099,5.168-20.733,8.74l-17.543-12.631
			c-3.189-2.297-7.017-3.509-10.973-3.509c-5.04,0-9.824,1.978-13.333,5.55l-19.075,19.011c-6.507,6.507-7.4,16.778-2.042,24.306
			l12.759,17.926c-3.509,6.698-6.316,13.652-8.485,20.861l-21.18,3.572c-9.122,1.531-15.757,9.377-15.757,18.628v26.857
			c0,9.25,6.635,17.098,15.757,18.629l21.69,3.699c2.232,7.145,5.167,14.098,8.74,20.732l-12.568,17.48
			c-5.358,7.527-4.529,17.799,2.042,24.305l19.011,19.012c3.573,3.572,8.293,5.549,13.333,5.549c3.955,0,7.719-1.211,10.909-3.508
			l17.926-12.76c6.443,3.381,13.205,6.125,20.159,8.293l3.572,21.436c1.531,9.123,9.378,15.758,18.628,15.758h26.921
			c9.25,0,17.097-6.635,18.627-15.758l3.637-21.436c7.209-2.232,14.162-5.104,20.797-8.611l17.672,12.631
			c3.189,2.297,7.017,3.51,10.973,3.51l0,0c5.039,0,9.76-1.979,13.332-5.551l19.011-19.012c6.507-6.506,7.399-16.777,2.041-24.305
			l-12.631-17.734c3.509-6.699,6.443-13.652,8.612-20.797l21.435-3.572c9.122-1.531,15.757-9.377,15.757-18.629v-26.856
			C407.318,233.321,400.683,225.474,391.561,223.943z M390.093,269.427c0,0.83-0.574,1.531-1.403,1.66l-26.793,4.465
			c-3.382,0.574-6.061,3.063-6.891,6.316c-2.424,9.377-6.124,18.373-11.1,26.729c-1.723,2.936-1.595,6.572,0.383,9.377
			l15.757,22.201c0.446,0.639,0.383,1.596-0.191,2.17l-19.011,19.01c-0.446,0.447-0.893,0.51-1.211,0.51
			c-0.383,0-0.703-0.127-0.957-0.318l-22.138-15.758c-2.743-1.977-6.442-2.104-9.378-0.383c-8.356,4.977-17.352,8.678-26.729,11.102
			c-3.318,0.828-5.806,3.572-6.316,6.889l-4.529,26.795c-0.127,0.828-0.829,1.402-1.658,1.402h-26.857
			c-0.83,0-1.531-0.574-1.659-1.402l-4.466-26.795c-0.574-3.381-3.062-6.061-6.315-6.889c-9.123-2.361-17.926-5.998-26.155-10.719
			c-1.34-0.766-2.871-1.148-4.338-1.148c-1.723,0-3.509,0.512-4.976,1.596l-22.328,15.885c-0.319,0.191-0.639,0.318-0.957,0.318
			c-0.255,0-0.766-0.063-1.212-0.51l-19.01-19.01c-0.574-0.574-0.638-1.467-0.191-2.17l15.693-22.01
			c1.977-2.805,2.105-6.506,0.383-9.439c-4.977-8.295-8.804-17.289-11.228-26.666c-0.893-3.254-3.573-5.742-6.89-6.316
			l-26.985-4.594c-0.829-0.127-1.403-0.828-1.403-1.658v-26.857c0-0.829,0.574-1.531,1.403-1.659l26.603-4.465
			c3.381-0.574,6.124-3.063,6.954-6.38c2.36-9.378,5.996-18.437,10.908-26.794c1.723-2.934,1.531-6.57-0.446-9.313l-15.885-22.328
			c-0.446-0.638-0.383-1.595,0.191-2.169l19.011-19.011c0.447-0.446,0.893-0.511,1.212-0.511c0.383,0,0.702,0.128,0.957,0.319
			l22.009,15.693c2.807,1.978,6.507,2.105,9.441,0.383c8.293-4.976,17.289-8.803,26.666-11.228c3.253-0.894,5.741-3.572,6.315-6.89
			l4.594-26.985c0.127-0.83,0.829-1.404,1.658-1.404h26.857c0.83,0,1.531,0.574,1.659,1.404l4.466,26.602
			c0.574,3.381,3.063,6.124,6.379,6.953c9.633,2.425,18.819,6.188,27.367,11.228c2.936,1.723,6.572,1.596,9.378-0.383l22.009-15.82
			c0.32-0.191,0.639-0.319,0.957-0.319c0.256,0,0.766,0.064,1.213,0.511l19.01,19.011c0.574,0.574,0.639,1.467,0.191,2.169
			l-15.756,22.137c-1.979,2.743-2.106,6.443-0.383,9.377c4.975,8.357,8.675,17.353,11.1,26.73c0.829,3.317,3.572,5.805,6.889,6.315
			l26.795,4.529c0.829,0.128,1.402,0.829,1.402,1.659v26.856H390.093z"/>
		<path fill="#FFFFFF" d="M254.531,190.069c-36.362,0-65.899,29.536-65.899,65.898c0,36.363,29.537,65.9,65.899,65.9
			c36.362,0,65.899-29.537,65.899-65.9C320.43,219.605,290.893,190.069,254.531,190.069z M254.531,304.642
			c-26.857,0-48.675-21.816-48.675-48.675c0-26.856,21.817-48.674,48.675-48.674c26.858,0,48.674,21.817,48.674,48.674
			C303.205,282.826,281.389,304.642,254.531,304.642z"/>
	</g>
</g>
</svg>
