<?xml version="1.0" encoding="utf-8"?>
<!-- Generator: Adobe Illustrator 16.0.0, SVG Export Plug-In . SVG Version: 6.00 Build 0)  -->
<!DOCTYPE svg PUBLIC "-//W3C//DTD SVG 1.1//EN" "http://www.w3.org/Graphics/SVG/1.1/DTD/svg11.dtd">
<svg version="1.1" id="Layer_1" xmlns="http://www.w3.org/2000/svg" xmlns:xlink="http://www.w3.org/1999/xlink" x="0px" y="0px"
	 width="512px" height="512px" viewBox="0 0 512 512" enable-background="new 0 0 512 512" xml:space="preserve">
<g id="Layer_1_2_">
	<g id="Layer_1_1_">
		<g id="Layer_2" display="none">
		</g>
		<g id="shadows">
			<g opacity="0.9">
				<g>
					<path fill="#B7B7B7" d="M466.5,381.5c0,48.601-39.4,88-88,88h-246c-48.602,0-88-39.399-88-88V164.833c0-48.601,39.398-88,88-88
						h246c48.6,0,88,39.399,88,88V381.5z"/>
				</g>
			</g>
			<g>
				<g>
					<path fill="#FFFFFF" d="M466.5,360.5c0,48.601-39.4,88-88,88h-246c-48.602,0-88-39.399-88-88V143.833c0-48.601,39.398-88,88-88
						h246c48.6,0,88,39.399,88,88V360.5z"/>
				</g>
			</g>
		</g>
		
			<radialGradient id="SVGID_1_" cx="930.0549" cy="619.9744" r="203.799" gradientTransform="matrix(1 0 0 1 -675.5547 -365.6406)" gradientUnits="userSpaceOnUse">
			<stop  offset="0" style="stop-color:#545454"/>
			<stop  offset="0.5" style="stop-color:#4D4D4D"/>
			<stop  offset="1" style="stop-color:#252525"/>
		</radialGradient>
		<path fill="url(#SVGID_1_)" stroke="#E2E2E2" stroke-width="7" stroke-miterlimit="10" d="M465.5,362.668c0,48.6-39.399,88-88,88
			h-246c-48.602,0-88-39.4-88-88V146c0-48.601,39.398-88,88-88h246c48.601,0,88,39.399,88,88V362.668z"/>
	</g>
</g>
<radialGradient id="SVGID_2_" cx="244.6184" cy="213.8528" r="91.691" gradientTransform="matrix(1.0632 0 0 2.7193 -8.089 -338.5316)" gradientUnits="userSpaceOnUse">
	<stop  offset="0" style="stop-color:#545454"/>
	<stop  offset="0.5" style="stop-color:#4D4D4D"/>
	<stop  offset="1" style="stop-color:#252525"/>
</radialGradient>
<ellipse fill="url(#SVGID_2_)" stroke="#E2E2E2" stroke-width="16" stroke-miterlimit="10" cx="252" cy="243" rx="134.5" ry="77.5"/>
<radialGradient id="SVGID_3_" cx="310.5002" cy="316.4998" r="32" gradientUnits="userSpaceOnUse">
	<stop  offset="0" style="stop-color:#545454"/>
	<stop  offset="0.5" style="stop-color:#4D4D4D"/>
	<stop  offset="1" style="stop-color:#252525"/>
</radialGradient>
<circle fill="url(#SVGID_3_)" stroke="#E2E2E2" stroke-width="16" stroke-miterlimit="10" cx="310.5" cy="316.5" r="32"/>
<radialGradient id="SVGID_4_" cx="269.2502" cy="260.2498" r="17.25" gradientUnits="userSpaceOnUse">
	<stop  offset="0" style="stop-color:#545454"/>
	<stop  offset="0.5" style="stop-color:#4D4D4D"/>
	<stop  offset="1" style="stop-color:#252525"/>
</radialGradient>
<circle fill="url(#SVGID_4_)" stroke="#E2E2E2" stroke-width="16" stroke-miterlimit="10" cx="269.25" cy="260.25" r="17.25"/>
<radialGradient id="SVGID_5_" cx="233.5002" cy="227.4998" r="10" gradientUnits="userSpaceOnUse">
	<stop  offset="0" style="stop-color:#545454"/>
	<stop  offset="0.5" style="stop-color:#4D4D4D"/>
	<stop  offset="1" style="stop-color:#252525"/>
</radialGradient>
<circle fill="url(#SVGID_5_)" stroke="#E2E2E2" stroke-width="16" stroke-miterlimit="10" cx="233.5" cy="227.5" r="10"/>
</svg>
