<?xml version="1.0" encoding="utf-8"?>
<!-- Generator: Adobe Illustrator 16.0.0, SVG Export Plug-In . SVG Version: 6.00 Build 0)  -->
<!DOCTYPE svg PUBLIC "-//W3C//DTD SVG 1.1//EN" "http://www.w3.org/Graphics/SVG/1.1/DTD/svg11.dtd">
<svg version="1.1" id="Layer_1" xmlns="http://www.w3.org/2000/svg" xmlns:xlink="http://www.w3.org/1999/xlink" x="0px" y="0px"
	 width="512px" height="512px" viewBox="0 0 512 512" enable-background="new 0 0 512 512" xml:space="preserve">
<g id="Layer_1_2_">
	<g id="Layer_1_1_">
		<g id="Layer_2" display="none">
		</g>
		<g id="shadows">
			<g opacity="0.9">
				<g>
					<path fill="#B7B7B7" d="M466.5,381.5c0,48.602-39.4,88-88,88h-246c-48.603,0-88-39.398-88-88V164.833c0-48.601,39.397-88,88-88
						h246c48.6,0,88,39.399,88,88V381.5z"/>
				</g>
			</g>
			<g>
				<g>
					<path fill="#FFFFFF" d="M466.5,360.5c0,48.602-39.4,88-88,88h-246c-48.603,0-88-39.398-88-88V143.833c0-48.601,39.397-88,88-88
						h246c48.6,0,88,39.399,88,88V360.5z"/>
				</g>
			</g>
		</g>
		<g>
			
				<linearGradient id="SVGID_1_" gradientUnits="userSpaceOnUse" x1="694.1096" y1="-116.616" x2="1116.1096" y2="-116.616" gradientTransform="matrix(1 0 0 -1 -650.6094 137.7183)">
				<stop  offset="0" style="stop-color:#F37E5F"/>
				<stop  offset="0.5" style="stop-color:#EC1C24"/>
				<stop  offset="1" style="stop-color:#CF232A"/>
			</linearGradient>
			<path fill="url(#SVGID_1_)" d="M465.5,362.669c0,48.6-39.399,88-88,88h-246c-48.603,0-88-39.4-88-88V146
				c0-48.601,39.397-88,88-88h246c48.601,0,88,39.399,88,88V362.669z"/>
			<path fill="none" stroke="#E2E2E2" stroke-width="7" stroke-miterlimit="10" d="M465.5,362.669c0,48.6-39.399,88-88,88h-246
				c-48.603,0-88-39.4-88-88V146c0-48.601,39.397-88,88-88h246c48.601,0,88,39.399,88,88V362.669z"/>
		</g>
	</g>
</g>
<g id="Layer_2_1_">
	<path id="path3004-1-8" sodipodi:nodetypes="cccc" inkscape:connector-curvature="0" fill="#FFFFFF" fill-opacity="0.9961" d="
		M248.75,117c0,0-117.815,235.59-123.75,247.5c123.75-111.375,123.627,0,247.5,0C369.278,358.225,248.75,117,248.75,117z"/>
	
		<path id="path3004-1-8-2" sodipodi:nodetypes="ccccc" inkscape:connector-curvature="0" opacity="0.3" enable-background="new    " d="
		M226.56,277.875c-34.023,0-98.592,80.67-101.56,86.625c123.75-111.375,123.627,0,247.5,0c-1.611-3.137-6.215-12.238-6.215-12.238
		C299.518,351.8,271.56,277.875,226.56,277.875z"/>
	<path id="path4159" inkscape:connector-curvature="0" opacity="0.3" enable-background="new    " d="M218.768,308.849
		c-22.299-0.751-48.851,10.303-88.286,44.689c-0.682,1.365-5.22,10.434-5.482,10.961c123.75-111.375,123.627,0,247.5,0
		c-0.082-0.159-2.914-5.818-3.143-6.271C290.534,356.986,262.721,310.328,218.768,308.849L218.768,308.849z"/>
</g>
</svg>
