<?xml version="1.0" encoding="utf-8"?>
<!-- Generator: Adobe Illustrator 16.0.0, SVG Export Plug-In . SVG Version: 6.00 Build 0)  -->
<!DOCTYPE svg PUBLIC "-//W3C//DTD SVG 1.1//EN" "http://www.w3.org/Graphics/SVG/1.1/DTD/svg11.dtd">
<svg version="1.1" id="Layer_1" xmlns="http://www.w3.org/2000/svg" xmlns:xlink="http://www.w3.org/1999/xlink" x="0px" y="0px"
	 width="512px" height="512px" viewBox="0 0 512 512" enable-background="new 0 0 512 512" xml:space="preserve">
<g id="Layer_1_1_">
	<g id="Layer_2" display="none">
	</g>
	<g id="shadows">
		<g opacity="0.9">
			<g>
				<path fill="#B7B7B7" d="M466.5,381.5c0,48.601-39.4,88-88,88h-246c-48.602,0-88-39.399-88-88V164.833c0-48.601,39.398-88,88-88
					h246c48.6,0,88,39.399,88,88V381.5z"/>
			</g>
		</g>
		<g>
			<g>
				<path fill="#FFFFFF" d="M466.5,360.5c0,48.601-39.4,88-88,88h-246c-48.602,0-88-39.399-88-88V143.833c0-48.601,39.398-88,88-88
					h246c48.6,0,88,39.399,88,88V360.5z"/>
			</g>
		</g>
	</g>
	
		<linearGradient id="SVGID_1_" gradientUnits="userSpaceOnUse" x1="252.0554" y1="326.0251" x2="674.0549" y2="326.0251" gradientTransform="matrix(1 0 0 -1 -208.5552 580.3589)">
		<stop  offset="0" style="stop-color:#7C76B7"/>
		<stop  offset="0.5" style="stop-color:#6561AB"/>
		<stop  offset="1" style="stop-color:#483F99"/>
	</linearGradient>
	<path fill="url(#SVGID_1_)" stroke="#E2E2E2" stroke-width="10" stroke-miterlimit="10" d="M465.5,362.668c0,48.6-39.399,88-88,88
		h-246c-48.602,0-88-39.4-88-88V146c0-48.601,39.398-88,88-88h246c48.601,0,88,39.399,88,88V362.668z"/>
</g>
<g display="none">
	
		<radialGradient id="SVGID_2_" cx="226.5559" cy="243.9905" r="109.3186" gradientTransform="matrix(1 0 0 -1 24.9448 503.3589)" gradientUnits="userSpaceOnUse">
		<stop  offset="0" style="stop-color:#FEFE93"/>
		<stop  offset="0.5" style="stop-color:#FEFE00"/>
		<stop  offset="1" style="stop-color:#FEDD00"/>
	</radialGradient>
	<path display="inline" fill="url(#SVGID_2_)" d="M191.015,387.669c-4.147,0.064-8.237-0.975-11.848-3.014
		c-13.073-7.548-17.114-28.014-11.372-57.616c7.5-33.207,20.249-65.003,37.768-94.192c16.521-29.767,37.683-56.705,62.689-79.804
		c22.79-19.774,42.504-26.513,55.582-18.961c13.077,7.552,17.112,28.013,11.371,57.616c-7.5,33.206-20.25,65.003-37.77,94.192
		c-16.52,29.766-37.682,56.707-62.688,79.804C218.067,380.18,203.013,387.669,191.015,387.669z M311.778,140.659
		c-9.358,0-22.397,6.81-37.197,19.665c-24.203,22.395-44.682,48.503-60.664,77.344c-16.984,28.265-29.355,59.053-36.648,91.209
		c-4.822,24.884-2.372,42.171,6.728,47.427c9.099,5.256,25.297-1.266,44.437-17.893c24.199-22.394,44.673-48.503,60.653-77.343
		c16.981-28.264,29.354-59.052,36.648-91.208c4.821-24.882,2.372-42.17-6.752-47.426
		C316.78,141.219,314.294,140.605,311.778,140.659z"/>
	
		<radialGradient id="SVGID_3_" cx="226.5559" cy="243.991" r="109.3176" gradientTransform="matrix(1 0 0 -1 24.9448 503.3589)" gradientUnits="userSpaceOnUse">
		<stop  offset="0" style="stop-color:#FEFE93"/>
		<stop  offset="0.5" style="stop-color:#FEFE00"/>
		<stop  offset="1" style="stop-color:#FEDD00"/>
	</radialGradient>
	<path display="inline" fill="url(#SVGID_3_)" d="M332.369,375.898c-2.018,3.625-4.963,6.648-8.535,8.757
		c-13.074,7.546-32.792,0.814-55.581-18.962c-25.008-23.097-46.169-50.038-62.689-79.803
		c-17.519-29.188-30.268-60.986-37.767-94.192c-5.743-29.604-1.707-50.069,11.371-57.616s32.814-0.813,55.581,18.957
		c25.005,23.102,46.168,50.042,62.688,79.809c17.515,29.19,30.265,60.986,37.769,94.192
		C339.415,348.725,338.368,365.507,332.369,375.898z M178.834,147.816c-4.684,8.105-5.306,22.804-1.567,42.045
		c7.293,32.156,19.664,62.944,36.648,91.208c15.983,28.839,36.459,54.947,60.659,77.343c19.139,16.622,35.338,23.147,44.438,17.893
		s11.572-22.543,6.752-47.434c-7.296-32.154-19.666-62.939-36.648-91.202c-15.989-28.842-36.479-54.951-60.688-77.344
		c-19.139-16.622-35.337-23.146-44.437-17.89C181.825,143.74,180.045,145.598,178.834,147.816z M209.739,283.48v-0.044V283.48z"/>
	
		<radialGradient id="SVGID_4_" cx="226.5549" cy="243.991" r="108.9653" gradientTransform="matrix(1 0 0 -1 24.9448 503.3589)" gradientUnits="userSpaceOnUse">
		<stop  offset="0" style="stop-color:#FEFE93"/>
		<stop  offset="0.5" style="stop-color:#FEFE00"/>
		<stop  offset="1" style="stop-color:#FEDD00"/>
	</radialGradient>
	<path display="inline" fill="url(#SVGID_4_)" d="M392.854,247.598c2.132,3.559,3.274,7.623,3.313,11.771
		c0,15.093-15.7,28.823-44.209,38.654c-32.507,10.107-66.419,14.966-100.457,14.39c-34.037,0.576-67.949-4.281-100.456-14.391
		c-28.509-9.826-44.21-23.551-44.21-38.653c0-15.104,15.701-28.828,44.21-38.661c32.507-10.104,66.419-14.962,100.456-14.385
		c34.036-0.578,67.95,4.279,100.457,14.385C372.841,227.913,386.856,237.186,392.854,247.598z M118.561,266.523
		c4.668,8.107,17.095,15.991,35.626,22.381c31.494,9.765,64.346,14.445,97.313,13.864c32.969,0.582,65.816-4.098,97.313-13.86
		c23.967-8.264,37.71-19.032,37.71-29.539c0-10.508-13.743-21.281-37.71-29.542c-31.496-9.761-64.346-14.438-97.313-13.858
		c-32.967-0.578-65.817,4.101-97.313,13.858c-23.961,8.267-37.709,19.033-37.709,29.542
		C116.525,261.897,117.244,264.366,118.561,266.523z M251.5,307.592v-0.044V307.592z"/>
	<circle display="inline" fill="#FF5364" cx="169.522" cy="177.391" r="19.289"/>
	<circle display="inline" fill="#E57E25" cx="362.412" cy="230.435" r="19.289"/>
	<circle display="inline" fill="#FF5364" cx="280.434" cy="370.279" r="19.29"/>
	<circle display="inline" fill="#285680" cx="251.5" cy="259.369" r="24.112"/>
</g>
<path id="path2987" inkscape:connector-curvature="0" fill="#FFF7F7" d="M251.687,114.288c-7.377-0.085-14.877,0.303-22.366,1.188
	c-29.201,3.454-73.086,6.625-85.444,26.047c-7.631,15.651-5.113,46.782,10.814,51.075c27.358,7.373,75.136-9.758,98.129-2.549
	c14.361,8.434,9.483,19.564-0.17,25.764c-11.884,4.988-31.855,6.159-45.922,7.928c-34.517,3.348-67.301,20.068-83.293,49.603
	c-11.669,22.227-10.701,47.876,1.358,74.29c15.2,32.726,44.897,50.507,85.842,46.092c15.353,1.018,35.223-6.233,49.999-12.287
	c15.923-8.288,20.005-9.014,35.446,0.057c8.703,5.14,17.263,10.965,26.669,9.626c23.678-3.37,46.371-15.208,53.057-35.39
	c3.063-9.246-9.784-19.065-9.853-27.52c-0.038-4.728,2.082-14.116,4.53-25.99c11.307-57.714,12.149-123.899-33.861-160.642
	C313.877,124.002,283.656,114.654,251.687,114.288L251.687,114.288z M249.535,270.286c15.984,0,28.935,11.634,28.935,25.99
	c0,14.355-12.95,25.99-28.935,25.99s-28.935-11.635-28.935-25.99C220.601,281.92,233.551,270.286,249.535,270.286L249.535,270.286z"
	/>
</svg>
