<?xml version="1.0" encoding="utf-8"?>
<!-- Generator: Adobe Illustrator 16.0.0, SVG Export Plug-In . SVG Version: 6.00 Build 0)  -->
<!DOCTYPE svg PUBLIC "-//W3C//DTD SVG 1.1//EN" "http://www.w3.org/Graphics/SVG/1.1/DTD/svg11.dtd">
<svg version="1.1" id="Layer_1" xmlns="http://www.w3.org/2000/svg" xmlns:xlink="http://www.w3.org/1999/xlink" x="0px" y="0px"
	 width="512px" height="512px" viewBox="0 0 512 512" enable-background="new 0 0 512 512" xml:space="preserve">
<g id="Layer_1_1_">
	<g id="Layer_2" display="none">
	</g>
	<g id="shadows">
		<g opacity="0.9">
			<g>
				<path fill="#B7B7B7" d="M466.5,381.5c0,48.6-39.4,88-88,88h-246c-48.603,0-88-39.4-88-88V164.833c0-48.601,39.397-88,88-88h246
					c48.6,0,88,39.399,88,88V381.5z"/>
			</g>
		</g>
		<g>
			<g>
				<path fill="#FFFFFF" d="M466.5,360.5c0,48.6-39.4,88-88,88h-246c-48.603,0-88-39.4-88-88V143.833c0-48.601,39.397-88,88-88h246
					c48.6,0,88,39.399,88,88V360.5z"/>
			</g>
		</g>
	</g>
	<linearGradient id="SVGID_1_" gradientUnits="userSpaceOnUse" x1="43.5002" y1="254.3335" x2="465.5002" y2="254.3335">
		<stop  offset="0" style="stop-color:#64C08A"/>
		<stop  offset="0.5" style="stop-color:#00A550"/>
		<stop  offset="1" style="stop-color:#00914C"/>
	</linearGradient>
	<path fill="url(#SVGID_1_)" stroke="#E2E2E2" stroke-width="10" stroke-miterlimit="10" d="M465.5,362.667c0,48.6-39.399,88-88,88
		h-246c-48.603,0-88-39.4-88-88V146c0-48.601,39.397-88,88-88h246c48.601,0,88,39.399,88,88V362.667z"/>
</g>
<path id="path2982" inkscape:connector-curvature="0" fill="#FFFFFF" d="M275.764,396.592c-0.844-0.16-5.582-2.217-10.529-4.572
	c-12.846-6.116-17.994-7.313-31.465-7.32c-20.384-0.009-24.394-1.75-33.679-14.63c-3.086-4.281-3.454-4.573-7.517-5.973
	c-7.438-2.562-14.016-8.092-17.287-14.53c-1.646-3.24-1.943-5.57-1.253-9.849c0.431-2.675,0.366-2.918-0.772-2.918
	c-2.728,0-8.094-2.613-10.833-5.275c-3.138-3.051-5.829-8.29-6.271-12.213l-0.29-2.57l-6.227,0.269
	c-9.264,0.399-15.093-1.301-20.178-5.885c-3.564-3.213-5.381-7.416-5.389-12.464c-0.005-3.483,0.239-4.391,1.734-6.449
	c0.957-1.317,2.249-2.81,2.87-3.315c1.78-1.452,5.668-7.785,7.055-11.492c0.695-1.858,1.962-6.735,2.815-10.837
	c0.853-4.103,2.257-8.929,3.122-10.727c2.783-5.79,9.71-9.407,18.096-9.449c6.318-0.031,10.052,1.286,13.445,4.744
	c1.486,1.514,3.056,2.753,3.488,2.753c0.607,0,3.638-5.061,5.604-9.357c0.114-0.249-0.738-1.011-1.894-1.693
	c-2.604-1.536-3.523-3.474-3.523-7.422c0-7.181,3.791-10.59,17.413-15.661c4.346-1.617,5.115-2.162,7.784-5.508
	c5-6.269,11.143-16.499,19.161-31.908c4.219-8.107,9.091-17.255,10.83-20.329c1.738-3.074,4.396-8.877,5.909-12.897
	c3.783-10.056,4.799-10.942,16.102-14.042c19.159-5.255,24.662-6.133,32.406-5.174c13.278,1.644,20.467,6.884,26.449,19.277
	c5.008,10.377,6.029,16.687,4.272,26.409c-0.488,2.702-0.897,8.644-0.911,13.204c-0.023,9.055-0.981,14.943-3.107,19.108
	c-0.744,1.461-4.703,5.986-8.797,10.056s-8.242,8.572-9.221,10.007l-1.777,2.607l1.082,3.999c1.477,5.458,4.677,11.945,7.354,14.906
	c1.222,1.353,4.008,3.77,6.189,5.374c2.855,2.096,5.008,4.43,7.668,8.313c5.15,7.521,9.497,10.347,16.711,10.864
	c4.042,0.29,4.168,0.253,6.232-1.811c2.244-2.244,2.97-4.212,4.154-11.264c0.698-4.153,0.66-4.598-0.589-6.995
	c-2.376-4.559-1.657-6.286,3.438-8.261c5.227-2.026,11.195-0.86,11.195,2.188c0,0.71-1.661,3.579-3.691,6.374
	c-4.491,6.181-7.361,12.067-7.362,15.095c-0.001,4.308,5.136,7.974,9.649,6.885c3.63-0.874,7.941-3.608,12.43-7.885
	c5.25-5.001,7.861-6.197,12.365-5.664c4.4,0.521,6.704,1.907,6.704,4.033c0,4.263-4.585,6.916-14.434,8.354
	c-8.752,1.277-12.137,2.846-16.685,7.729c-6.964,7.477-8.463,8.742-12.756,10.77c-6.334,2.99-14.104,4.197-23.069,3.583
	c-10.283-0.705-14.002-0.576-18.126,0.63c-5.137,1.502-11.58,1.581-13.006,0.16c-1.457-1.451-0.62-2.784,2.919-4.647
	c2.532-1.332,3.22-1.41,9.699-1.094c8.17,0.399,10.831-0.312,11.526-3.081c1.015-4.045-7.085-14.715-16.585-21.847
	c-6.544-4.912-8.654-6.939-10.942-10.504c-1.186-1.849-2.111-2.736-2.475-2.375c-0.317,0.319-1.111,4.135-1.764,8.48
	c-2.146,14.3-5.707,24.468-11.706,33.438c-5.899,8.819-11.897,13.851-25.912,21.737c-1.638,0.922-2.743,1.881-2.456,2.132
	c0.287,0.249,2.456,1.084,4.821,1.854c4.476,1.458,20.074,8.968,24.874,11.976c9.871,6.188,18.619,16.618,19.969,23.812
	c0.545,2.909-0.577,6.229-2.66,7.863l-1.648,1.294l2.176-0.291c3.729-0.499,11.138-3.999,15.873-7.498
	c3.863-2.854,4.934-3.353,7.216-3.353c3.119,0,5.136,1.579,5.136,4.021c0,2.428-2.59,4.328-7.548,5.535
	c-2.436,0.593-6.505,1.963-9.042,3.045c-5.287,2.254-12.751,3.976-26.549,6.124c-10.32,1.606-13.363,2.66-13.363,4.628
	c0,1.901,1.91,3.355,6.822,5.197c13.086,4.906,17.129,7.15,17.129,9.507c0,0.604-0.414,1.442-0.921,1.863
	C282.435,396.595,278.204,397.053,275.764,396.592L275.764,396.592z"/>
</svg>
