<?xml version="1.0" encoding="utf-8"?>
<!-- Generator: Adobe Illustrator 16.0.0, SVG Export Plug-In . SVG Version: 6.00 Build 0)  -->
<!DOCTYPE svg PUBLIC "-//W3C//DTD SVG 1.1//EN" "http://www.w3.org/Graphics/SVG/1.1/DTD/svg11.dtd">
<svg version="1.1" id="Layer_1" xmlns="http://www.w3.org/2000/svg" xmlns:xlink="http://www.w3.org/1999/xlink" x="0px" y="0px"
	 width="512px" height="512px" viewBox="0 0 512 512" enable-background="new 0 0 512 512" xml:space="preserve">
<g id="Layer_1_1_">
	<g id="Layer_2" display="none">
	</g>
	<g id="shadows">
		<g opacity="0.9">
			<g>
				<path fill="#B7B7B7" d="M466.5,381.5c0,48.6-39.4,88-88,88h-246c-48.603,0-88-39.4-88-88V164.833c0-48.601,39.397-88,88-88h246
					c48.6,0,88,39.399,88,88V381.5z"/>
			</g>
		</g>
		<g>
			<g>
				<path fill="#FFFFFF" d="M466.5,360.5c0,48.6-39.4,88-88,88h-246c-48.603,0-88-39.4-88-88V143.833c0-48.601,39.397-88,88-88h246
					c48.6,0,88,39.399,88,88V360.5z"/>
			</g>
		</g>
	</g>
	<linearGradient id="SVGID_1_" gradientUnits="userSpaceOnUse" x1="43.5002" y1="254.3335" x2="465.5002" y2="254.3335">
		<stop  offset="0" style="stop-color:#7C76B7"/>
		<stop  offset="0.5" style="stop-color:#6561AB"/>
		<stop  offset="1" style="stop-color:#483F99"/>
	</linearGradient>
	<path fill="url(#SVGID_1_)" stroke="#E2E2E2" stroke-width="10" stroke-miterlimit="10" d="M465.5,362.667c0,48.6-39.399,88-88,88
		h-246c-48.603,0-88-39.4-88-88V146c0-48.601,39.397-88,88-88h246c48.601,0,88,39.399,88,88V362.667z"/>
</g>
<g id="layer1" transform="translate(-384.57143,-419.798)" inkscape:label="Capa 1" inkscape:groupmode="layer">
	<linearGradient id="path4166_1_" gradientUnits="userSpaceOnUse" x1="520.3378" y1="675.2716" x2="757.0677" y2="675.2716">
		<stop  offset="0" style="stop-color:#6D583F"/>
		<stop  offset="0.5" style="stop-color:#483318"/>
		<stop  offset="1" style="stop-color:#282913"/>
	</linearGradient>
	<path id="path4166" inkscape:connector-curvature="0" fill="url(#path4166_1_)" fill-opacity="0.2353" d="M606.059,554.014
		c-14.869,0.905-25.806,22.793-24.426,48.889c1.38,26.094,14.551,46.515,29.421,45.608c14.87-0.905,25.806-22.794,24.427-48.889l0,0
		C634.102,573.527,620.93,553.107,606.059,554.014z M687.617,562.065c-12.643,0.647-26.643,14.005-34.532,32.947
		c-9.936,23.862-6.972,48.496,6.626,55.022l0,0c13.598,6.527,32.673-7.525,42.611-31.385c9.938-23.861,6.972-48.494-6.625-55.021
		l0,0C693.23,562.443,690.506,561.916,687.617,562.065L687.617,562.065z M540.997,595.87c-1.857-0.002-3.655,0.301-5.364,0.905
		c-14.144,5.007-19.431,29.189-11.807,54.011c7.623,24.822,25.268,40.886,39.413,35.88l0,0
		c14.145-5.008,19.431-29.189,11.808-54.013C568.481,611.274,554.242,595.892,540.997,595.87L540.997,595.87z M739.447,622.262
		c-12.626-0.943-27.985,10.564-37.886,28.385c-12.468,22.449-12.207,47.286,0.585,55.474c12.791,8.19,33.269-3.367,45.737-25.814
		l0,0c12.47-22.448,12.21-47.286-0.581-55.476l0,0C744.982,623.344,742.334,622.479,739.447,622.262L739.447,622.262z
		 M632.687,652.346c-10.427-0.007-21.282,7.027-28.625,22.225c-12.666,16.092-17.01,22.013-44.08,35.818
		c-13.416,10.229-19.937,24.361-16.768,43.987c8.647,31.166,36.089,32.175,46.674,32.292c14.751,1.731,27.756-0.908,44.253,5.196
		c15.774,1.305,30.745,6.938,47.366,3.71c38.878-13.196,31.392-57.086,9.203-73.067l-29.948-44.595
		C655.775,661.418,644.504,652.356,632.687,652.346L632.687,652.346z"/>
	<linearGradient id="path4126_1_" gradientUnits="userSpaceOnUse" x1="520.3378" y1="672.1212" x2="757.0677" y2="672.1212">
		<stop  offset="0" style="stop-color:#6D583F"/>
		<stop  offset="0.5" style="stop-color:#483318"/>
		<stop  offset="1" style="stop-color:#282913"/>
	</linearGradient>
	<path id="path4126" inkscape:connector-curvature="0" fill="url(#path4126_1_)" d="M606.059,550.863
		c-14.869,0.905-25.806,22.793-24.426,48.889c1.38,26.096,14.551,46.515,29.421,45.61c14.87-0.907,25.806-22.795,24.427-48.89
		c0,0,0,0,0-0.001C634.102,570.377,620.93,549.958,606.059,550.863z M687.617,558.914c-12.643,0.648-26.643,14.006-34.532,32.949
		c-9.936,23.859-6.972,48.493,6.626,55.021l0,0c13.598,6.528,32.673-7.524,42.611-31.385c9.938-23.861,6.972-48.495-6.625-55.021
		v-0.001C693.23,559.293,690.506,558.766,687.617,558.914L687.617,558.914z M540.997,592.721c-1.857-0.003-3.655,0.3-5.364,0.904
		c-14.144,5.007-19.431,29.188-11.807,54.011c7.623,24.823,25.268,40.888,39.413,35.879l0,0
		c14.145-5.006,19.431-29.188,11.808-54.011C568.481,608.125,554.242,592.741,540.997,592.721L540.997,592.721z M739.447,619.113
		c-12.626-0.945-27.985,10.563-37.886,28.384c-12.468,22.447-12.207,47.284,0.585,55.474c12.791,8.19,33.269-3.367,45.737-25.816
		l0,0c12.47-22.448,12.21-47.285-0.581-55.475v-0.001C744.982,620.194,742.334,619.329,739.447,619.113L739.447,619.113z
		 M632.687,649.195c-10.427-0.007-21.282,7.027-28.625,22.225c-12.666,16.093-17.01,22.012-44.08,35.819
		c-13.416,10.229-19.937,24.359-16.768,43.985c8.647,31.166,36.089,32.177,46.674,32.292c14.751,1.733,27.756-0.906,44.253,5.197
		c15.774,1.306,30.745,6.937,47.366,3.711c38.878-13.198,31.392-57.088,9.203-73.067l-29.948-44.595
		C655.775,658.268,644.504,649.207,632.687,649.195L632.687,649.195z"/>
	<linearGradient id="path4174_1_" gradientUnits="userSpaceOnUse" x1="520.3427" y1="688.9259" x2="757.0306" y2="688.9259">
		<stop  offset="0" style="stop-color:#6D583F"/>
		<stop  offset="0.5" style="stop-color:#483318"/>
		<stop  offset="1" style="stop-color:#282913"/>
	</linearGradient>
	<path id="path4174" inkscape:connector-curvature="0" fill="url(#path4174_1_)" fill-opacity="0.3137" d="M708.081,584.442
		c-0.395,8.051-2.392,16.629-5.76,24.75c-9.934,23.862-29.014,37.918-42.61,31.396c-0.001,0-0.001,0-0.001,0
		c-7.16-3.451-11.68-12.206-12.38-23.981c-0.751,14.75,3.926,26.184,12.38,30.272c13.595,6.528,32.673-7.521,42.611-31.379
		C706.626,605.147,708.669,594.127,708.081,584.442z M581.596,592.041c-0.105,2.554-0.089,5.132,0.046,7.706
		c1.38,26.09,14.548,46.509,29.415,45.608c14.61-0.897,25.469-22.077,24.472-47.73c-0.868,23.057-11.241,40.623-24.472,41.439
		c-14.867,0.9-28.035-19.518-29.415-45.609C581.623,592.984,581.608,592.513,581.596,592.041z M520.431,621.852
		c-0.434,8.2,0.745,17.149,3.396,25.781c7.62,24.823,25.265,40.892,39.411,35.887c0.001,0,0.002,0,0.004,0
		c10.017-3.564,15.957-17.059,15.201-34.533c-0.769,14.511-6.496,25.145-15.201,28.226c-14.143,5.013-31.791-11.049-39.415-35.871
		C521.855,634.895,520.697,628.249,520.431,621.852z M756.937,641.68c-0.627,9.451-3.829,19.765-9.054,29.18
		c-12.469,22.444-32.943,34-45.734,25.813c-5.629-3.625-9.057-10.729-9.643-19.982c-0.817,12.206,2.719,21.849,9.643,26.288
		c12.793,8.18,33.269-3.382,45.734-25.828C754.346,665.49,757.644,652.572,756.937,641.68z M542.581,738.819
		c-0.238,3.881-0.083,7.976,0.631,12.398c8.647,31.166,36.095,32.187,46.68,32.304c14.751,1.732,27.747-0.907,44.244,5.198
		c15.777,1.304,30.747,6.933,47.368,3.707c21.175-7.188,28.524-23.479,27.308-39.41c-1.006,13.764-8.933,26.866-27.308,33.105
		c-16.621,3.223-31.591-2.404-47.368-3.709c-16.497-6.104-29.493-3.466-44.244-5.199c-10.584-0.115-38.032-1.121-46.68-32.287
		C542.871,742.818,542.701,740.803,542.581,738.819z"/>
	<linearGradient id="path4179_1_" gradientUnits="userSpaceOnUse" x1="520.3588" y1="654.4791" x2="757.0297" y2="654.4791">
		<stop  offset="0" style="stop-color:#6D583F"/>
		<stop  offset="0.5" style="stop-color:#483318"/>
		<stop  offset="1" style="stop-color:#282913"/>
	</linearGradient>
	<path id="path4179" inkscape:connector-curvature="0" fill="url(#path4179_1_)" fill-opacity="0.2353" d="M606.053,550.862
		c-14.336,0.89-25.11,21.342-24.5,46.517c0.335-23.874,10.86-42.503,24.5-43.363c14.871-0.914,28.045,19.499,29.429,45.594
		c0,0.005,0,0.01,0,0.015c0.035,0.748,0.059,1.498,0.073,2.246c0.035-1.794,0.011-3.598-0.073-5.399
		c-1.379-26.095-14.551-46.515-29.421-45.608C606.058,550.862,606.056,550.862,606.053,550.862z M687.62,558.906
		c-12.643,0.651-26.64,14.008-34.529,32.95c-3.99,9.606-6.041,19.809-5.831,28.996c0.271-8.36,2.299-17.349,5.831-25.842
		c7.89-18.941,21.887-32.3,34.529-32.95c2.891-0.146,5.613,0.382,8.08,1.569c7.587,3.664,12.179,13.267,12.452,26.027
		c0.47-14.255-4.207-25.21-12.452-29.181C693.233,559.289,690.51,558.76,687.62,558.906z M540.991,592.718
		c-1.855-0.002-3.651,0.302-5.358,0.907c-9.819,3.488-15.742,16.529-15.245,33.564c0.281-15.551,6.093-27.147,15.245-30.411
		c1.707-0.606,3.502-0.91,5.358-0.908c13.246,0.014,27.488,15.396,34.058,36.78c2.075,6.773,3.25,13.767,3.438,20.457
		c0.15-7.597-1.036-15.733-3.438-23.596C568.483,608.125,554.238,592.736,540.991,592.718z M736.493,619.113
		c-12.104,0.875-25.86,12.053-34.932,28.38c-6.236,11.244-9.541,23.679-9.126,34.349c0.266-9.954,3.521-21.077,9.126-31.195
		c9.897-17.817,25.258-29.324,37.882-28.38c2.886,0.217,5.532,1.083,7.852,2.569c5.873,3.772,9.344,11.322,9.715,21.12
		c0.322-11.271-3.204-20.084-9.715-24.273c-2.319-1.486-4.966-2.353-7.852-2.569C738.482,619.041,737.497,619.041,736.493,619.113
		L736.493,619.113z M632.688,649.202c-10.427-0.007-21.284,7.015-28.627,22.212c-12.667,16.091-17.016,22.017-44.086,35.825
		c-11.857,9.043-18.284,21.154-17.437,37.396c0.11-14.649,6.367-25.803,17.437-34.241c27.07-13.811,31.419-19.733,44.086-35.827
		c7.344-15.197,18.201-22.235,28.627-22.228c11.818,0.007,23.079,9.072,28.069,25.566l29.959,44.592
		c10.598,7.637,17.758,21.646,18.196,35.628c0.65-14.995-6.802-30.558-18.196-38.765l-29.959-44.594
		C655.767,658.275,644.506,649.212,632.688,649.202z"/>
</g>
</svg>
