<?xml version="1.0" encoding="utf-8"?>
<!-- Generator: Adobe Illustrator 16.0.0, SVG Export Plug-In . SVG Version: 6.00 Build 0)  -->
<!DOCTYPE svg PUBLIC "-//W3C//DTD SVG 1.1//EN" "http://www.w3.org/Graphics/SVG/1.1/DTD/svg11.dtd">
<svg version="1.1" id="Layer_1" xmlns="http://www.w3.org/2000/svg" xmlns:xlink="http://www.w3.org/1999/xlink" x="0px" y="0px"
	 width="512px" height="512px" viewBox="0 0 512 512" enable-background="new 0 0 512 512" xml:space="preserve">
<g id="Layer_1_1_">
	<g id="Layer_2" display="none">
	</g>
	<g id="shadows">
		<g opacity="0.9">
			<g>
				<path fill="#B7B7B7" d="M466.5,381.5c0,48.6-39.4,88-88,88h-246c-48.602,0-88-39.4-88-88V164.833c0-48.601,39.398-88,88-88h246
					c48.6,0,88,39.399,88,88V381.5z"/>
			</g>
		</g>
		<g>
			<g>
				<path fill="#FFFFFF" d="M466.5,360.5c0,48.6-39.4,88-88,88h-246c-48.602,0-88-39.4-88-88V143.833c0-48.601,39.398-88,88-88h246
					c48.6,0,88,39.399,88,88V360.5z"/>
			</g>
		</g>
	</g>
	
		<radialGradient id="SVGID_1_" cx="262.8596" cy="-555.2788" r="203.7987" gradientTransform="matrix(1 0 0 -1 -8.3599 -300.9453)" gradientUnits="userSpaceOnUse">
		<stop  offset="0.0056" style="stop-color:#717073"/>
		<stop  offset="1" style="stop-color:#252727"/>
	</radialGradient>
	<path fill="url(#SVGID_1_)" stroke="#E2E2E2" stroke-width="10" stroke-miterlimit="10" d="M465.5,362.667c0,48.6-39.399,88-88,88
		h-246c-48.602,0-88-39.4-88-88V146c0-48.601,39.398-88,88-88h246c48.601,0,88,39.399,88,88V362.667z"/>
</g>
<sodipodi:namedview  id="namedview4" borderopacity="1" pagecolor="#ffffff" bordercolor="#666666" objecttolerance="10" gridtolerance="10" guidetolerance="10" showgrid="false" inkscape:cx="167.61481" inkscape:zoom="1.84375" inkscape:cy="151.44365" inkscape:current-layer="g2982" inkscape:window-maximized="0" inkscape:window-y="24" inkscape:window-x="119" inkscape:window-height="716" inkscape:pageshadow="2" inkscape:window-width="1140" inkscape:pageopacity="0">
	</sodipodi:namedview>
<g id="g2982" transform="translate(-1.0847461,1.084746)">
	<g id="g35" transform="matrix(9.939467,0,0,9.939467,-95.283997,-101.25464)">
		<g id="g37">
			<g id="g39" opacity="0.1">
				<g id="g41">
					<path id="path43" inkscape:connector-curvature="0" d="M45.255,26.92c-0.992,2.637-2.809,5.449-4.891,7.93
						c0,0,0.875,0.625,0.879,0.715c1.98-2.68,3.512-5.684,4.01-8.645"/>
					<path id="path45" inkscape:connector-curvature="0" d="M39.483,49.01c-1.805-2.16-3.355-5.129-4.488-8.16
						c0,0-0.977,0.449-1.055,0.41C35.295,44.303,37.155,47.119,39.483,49.01"/>
					<path id="path47" inkscape:connector-curvature="0" d="M38.815,31.819c6.945,5.691-3.828,13.758-5.484,12.699
						c-0.625-0.445,0.195-1.742,0.426-2.672c-0.875,1.01-2.309,2.852-1.508,3.867C34.765,48.588,47.644,36.775,38.815,31.819"/>
					<path id="path49" inkscape:connector-curvature="0" d="M38.345,41.16c-8.441,3.059-9.844-10.336-8.09-11.215
						c0.703-0.309,1.395,1.059,2.074,1.73c-0.414-1.27-1.266-3.445-2.547-3.277c-3.75,0.691-0.211,17.816,8.559,12.762"/>
					<path id="path51" inkscape:connector-curvature="0" d="M30.658,35.877c1.645-8.836,13.891-3.25,13.754-1.289
						c-0.09,0.762-1.617,0.668-2.543,0.914c1.305,0.281,3.609,0.656,4.113-0.539C47.291,31.377,30.752,25.744,30.658,35.877"/>
					<path id="path53" inkscape:connector-curvature="0" d="M34.541,39.795c-1.848-5.539-2.223-11.234-0.141-12
						c1.402-0.43,2.82,2.906,4.363,3.57c-0.449-1.621-2.914-6.574-5.496-6.344c-2.816,0.426-2.578,8.254,0.281,15.266
						c0,0,1.07-0.488,0.992-0.488"/>
					<path id="path55" inkscape:connector-curvature="0" d="M39.67,35.76c-3.91,4.332-8.676,7.465-10.371,6.03
						c-1.063-1.01,1.141-3.891,0.957-5.559c-1.188,1.188-4.281,5.77-2.809,7.91c1.754,2.242,8.445-1.813,13.13-7.754
						c0,0-0.949-0.695-0.91-0.625"/>
					<path id="path57" inkscape:connector-curvature="0" d="M23.135,33.19c2.77-0.504,6.113-0.383,9.305,0.133
						c0,0,0.09-1.074,0.164-1.121C29.291,31.874,25.928,32.1,23.135,33.19"/>
					<path id="path59" inkscape:connector-curvature="0" d="M33.576,33.455c5.723,1.133,10.855,3.621,10.492,5.816
						c-0.324,1.43-3.922,1.016-5.258,2.031c1.625,0.41,7.145,0.715,8.223-1.648c1.023-2.656-5.887-6.324-13.387-7.305
						C33.646,32.349,33.537,33.521,33.576,33.455"/>
				</g>
			</g>
		</g>
	</g>
	<g id="g61" transform="matrix(9.939467,0,0,9.939467,-105.22346,-101.25464)">
		<g id="g63">
			<g id="g65" transform="translate(0,-1)">
				<g id="g67">
					<path id="path69" inkscape:connector-curvature="0" fill="#00A2DE" d="M45.255,26.92c-0.992,2.637-2.809,5.449-4.891,7.93
						c0,0,0.875,0.625,0.879,0.715c1.98-2.68,3.512-5.684,4.01-8.645"/>
					<path id="path71" inkscape:connector-curvature="0" fill="#00A2DE" d="M39.483,49.01c-1.805-2.16-3.355-5.129-4.488-8.16
						c0,0-0.977,0.449-1.055,0.41C35.295,44.303,37.155,47.119,39.483,49.01"/>
					<path id="path73" inkscape:connector-curvature="0" fill="#00A2DE" d="M38.815,31.819c6.945,5.691-3.828,13.758-5.484,12.699
						c-0.625-0.445,0.195-1.742,0.426-2.672c-0.875,1.01-2.309,2.852-1.508,3.867C34.765,48.588,47.644,36.775,38.815,31.819"/>
					<path id="path75" inkscape:connector-curvature="0" fill="#00A2DE" d="M38.345,41.16c-8.441,3.059-9.844-10.336-8.09-11.215
						c0.703-0.309,1.395,1.059,2.074,1.73c-0.414-1.27-1.266-3.445-2.547-3.277c-3.75,0.691-0.211,17.816,8.559,12.762"/>
					<path id="path77" inkscape:connector-curvature="0" fill="#00A2DE" d="M30.658,35.877c1.645-8.836,13.891-3.25,13.754-1.289
						c-0.09,0.762-1.617,0.668-2.543,0.914c1.305,0.281,3.609,0.656,4.113-0.539C47.291,31.377,30.752,25.744,30.658,35.877"/>
					<path id="path79" inkscape:connector-curvature="0" fill="#00A2DE" d="M34.541,39.795c-1.848-5.539-2.223-11.234-0.141-12
						c1.402-0.43,2.82,2.906,4.363,3.57c-0.449-1.621-2.914-6.574-5.496-6.344c-2.816,0.426-2.578,8.254,0.281,15.266
						c0,0,1.07-0.488,0.992-0.488"/>
					<path id="path81" inkscape:connector-curvature="0" fill="#00A2DE" d="M39.67,35.76c-3.91,4.332-8.676,7.465-10.371,6.03
						c-1.063-1.01,1.141-3.891,0.957-5.559c-1.188,1.188-4.281,5.77-2.809,7.91c1.754,2.242,8.445-1.813,13.13-7.754
						c0,0-0.949-0.695-0.91-0.625"/>
					<path id="path83" inkscape:connector-curvature="0" fill="#00A2DE" d="M23.135,33.19c2.77-0.504,6.113-0.383,9.305,0.133
						c0,0,0.09-1.074,0.164-1.121C29.291,31.874,25.928,32.1,23.135,33.19"/>
					<path id="path85" inkscape:connector-curvature="0" fill="#00A2DE" d="M33.576,33.455c5.723,1.133,10.855,3.621,10.492,5.816
						c-0.324,1.43-3.922,1.016-5.258,2.031c1.625,0.41,7.145,0.715,8.223-1.648c1.023-2.656-5.887-6.324-13.387-7.305
						C33.646,32.349,33.537,33.521,33.576,33.455"/>
				</g>
			</g>
		</g>
	</g>
</g>
</svg>
