<?xml version="1.0" encoding="utf-8"?>
<!-- Generator: Adobe Illustrator 16.0.0, SVG Export Plug-In . SVG Version: 6.00 Build 0)  -->
<!DOCTYPE svg PUBLIC "-//W3C//DTD SVG 1.1//EN" "http://www.w3.org/Graphics/SVG/1.1/DTD/svg11.dtd">
<svg version="1.1" id="Layer_1" xmlns="http://www.w3.org/2000/svg" xmlns:xlink="http://www.w3.org/1999/xlink" x="0px" y="0px"
	 width="512px" height="512px" viewBox="0 0 512 512" enable-background="new 0 0 512 512" xml:space="preserve">
<g id="Layer_1_1_">
	<g id="Layer_2" display="none">
	</g>
	<g id="shadows">
		<g opacity="0.9">
			<g>
				<path fill="#B7B7B7" d="M466.5,381.5c0,48.6-39.4,88-88,88h-246c-48.602,0-88-39.4-88-88V164.833c0-48.601,39.398-88,88-88h246
					c48.6,0,88,39.399,88,88V381.5z"/>
			</g>
		</g>
		<g>
			<g>
				<path fill="#FFFFFF" d="M466.5,360.5c0,48.6-39.4,88-88,88h-246c-48.602,0-88-39.4-88-88V143.833c0-48.601,39.398-88,88-88h246
					c48.6,0,88,39.399,88,88V360.5z"/>
			</g>
		</g>
	</g>
	
		<radialGradient id="SVGID_1_" cx="262.8596" cy="-555.2788" r="203.7987" gradientTransform="matrix(1 0 0 -1 -8.3599 -300.9453)" gradientUnits="userSpaceOnUse">
		<stop  offset="0" style="stop-color:#2BC4F3"/>
		<stop  offset="0.5" style="stop-color:#00AEEE"/>
		<stop  offset="1" style="stop-color:#0095DA"/>
	</radialGradient>
	<path fill="url(#SVGID_1_)" stroke="#E2E2E2" stroke-width="10" stroke-miterlimit="10" d="M465.5,362.667c0,48.6-39.399,88-88,88
		h-246c-48.602,0-88-39.4-88-88V146c0-48.601,39.398-88,88-88h246c48.601,0,88,39.399,88,88V362.667z"/>
</g>
<g id="g3881" transform="matrix(0.60549488,0,0,0.60549488,-10.559059,-52.967378)">
	
		<path id="path3833" inkscape:connector-curvature="0" sodipodi:nodetypes="cccsccccsccccscccssscccccccccccsccscscc" fill="#3672D9" d="
		M455.548,305.476c-0.402-0.005-0.802,0.041-1.192,0.136l-144.538,7.728c-1.795,0.459-3.256,2.053-3.533,3.885
		c-0.277,1.831,0.646,3.793,2.225,4.763l106.612,66.256c0.797,0.49,1.739,0.738,2.675,0.702l149.289-6.539
		c1.976-0.089,3.813-1.553,4.353-3.456c0.54-1.901-0.26-4.098-1.893-5.212l-111.323-67.444
		C457.439,305.764,456.494,305.475,455.548,305.476z M206.627,386.254c-3.818,0.102-7.545,2.011-9.877,5.036
		c-2.333,3.024-3.233,7.115-2.362,10.833l32.442,138.396l-32.442,138.38c-0.61,2.605-0.375,5.411,0.644,7.885
		c1.019,2.474,2.825,4.614,5.095,6.032c2.269,1.418,4.982,2.102,7.651,1.932c2.671-0.169,5.287-1.197,7.359-2.889L342.76,588.032
		c3.89-3.164,5.645-8.724,4.276-13.546l-21.316-75.016c-0.61-2.16-1.793-4.15-3.397-5.719L215.997,389.942
		C213.534,387.531,210.074,386.165,206.627,386.254z M412.524,635.583c-0.825,0.092-1.639,0.294-2.401,0.624
		c-2.456,1.058-4.342,3.372-4.88,5.993l-11.36,94.419c-0.661,3.219,0.785,6.758,3.513,8.588c2.728,1.832,6.562,1.848,9.292,0.021
		l165.725-94.322c1.532-1.031,2.71-2.577,3.281-4.332c0.571-1.756,0.534-3.713-0.098-5.447c-0.632-1.735-1.85-3.24-3.416-4.218
		c-1.566-0.977-3.474-1.405-5.309-1.21L412.524,635.583z"/>
	<g>
		<defs>
			<path id="SVGID_2_" d="M455.548,305.476c-0.402-0.005-0.802,0.041-1.192,0.136l-144.538,7.728
				c-1.795,0.459-3.256,2.053-3.533,3.885c-0.277,1.831,0.646,3.793,2.225,4.763l106.612,66.256c0.797,0.49,1.739,0.738,2.675,0.702
				l149.289-6.539c1.976-0.089,3.813-1.553,4.353-3.456c0.54-1.901-0.26-4.098-1.893-5.212l-111.323-67.444
				C457.439,305.764,456.494,305.475,455.548,305.476z M206.627,386.254c-3.818,0.102-7.545,2.011-9.877,5.036
				c-2.333,3.024-3.233,7.115-2.362,10.833l32.442,138.396l-32.442,138.38c-0.61,2.605-0.375,5.411,0.644,7.885
				c1.019,2.474,2.825,4.614,5.095,6.032c2.269,1.418,4.982,2.102,7.651,1.932c2.671-0.169,5.287-1.197,7.359-2.889L342.76,588.032
				c3.89-3.164,5.645-8.724,4.275-13.546l-21.315-75.016c-0.61-2.16-1.793-4.15-3.397-5.719L215.997,389.942
				C213.534,387.531,210.074,386.165,206.627,386.254z M412.524,635.583c-0.825,0.092-1.639,0.294-2.401,0.624
				c-2.456,1.058-4.342,3.372-4.88,5.993l-11.36,94.419c-0.661,3.219,0.785,6.758,3.513,8.588c2.728,1.832,6.562,1.848,9.292,0.021
				l165.725-94.322c1.532-1.031,2.708-2.577,3.281-4.334c0.571-1.755,0.534-3.711-0.098-5.445c-0.632-1.735-1.85-3.24-3.416-4.218
				c-1.566-0.977-3.474-1.405-5.309-1.21L412.524,635.583z"/>
		</defs>
		<clipPath id="SVGID_3_">
			<use xlink:href="#SVGID_2_"  overflow="visible"/>
		</clipPath>
		
			<path id="path3853" sodipodi:type="arc" sodipodi:cx="535.86438" sodipodi:ry="292.88135" sodipodi:rx="292.88135" sodipodi:cy="631.32202" clip-path="url(#SVGID_3_)" fill-opacity="0.0792" d="
			M658.266,519.209c0,109.176-88.506,197.682-197.682,197.682c-109.178,0-197.683-88.506-197.683-197.682
			c0-109.178,88.505-197.683,197.683-197.683C569.76,321.526,658.266,410.031,658.266,519.209z"/>
	</g>
	<path id="path3823" inkscape:connector-curvature="0" sodipodi:nodetypes="cssccc" fill="#3C80F3" d="M645.196,582.63
		c-27.657,65.92-104.965,118.297-180.928,118.297c-101.039,0-182.947-81.909-182.947-182.949
		c0-94.106,71.057-171.618,162.446-181.809c19.494-2.818,38.174-1.892,55.464,2.88C605.448,368.717,687.697,476.174,645.196,582.63z
		"/>
	
		<path id="path3851" sodipodi:type="arc" sodipodi:cx="637.96106" sodipodi:ry="42.268604" sodipodi:rx="42.268604" sodipodi:cy="441.08646" fill="#38506A" d="
		M579.494,508.695c0,14.582-11.819,26.402-26.402,26.402c-14.582,0-26.402-11.82-26.402-26.402c0-14.582,11.82-26.403,26.402-26.403
		C567.675,482.292,579.494,494.113,579.494,508.695z"/>
</g>
</svg>
