<?xml version="1.0" encoding="utf-8"?>
<!-- Generator: Adobe Illustrator 16.0.0, SVG Export Plug-In . SVG Version: 6.00 Build 0)  -->
<!DOCTYPE svg PUBLIC "-//W3C//DTD SVG 1.1//EN" "http://www.w3.org/Graphics/SVG/1.1/DTD/svg11.dtd">
<svg version="1.1" id="Layer_1" xmlns="http://www.w3.org/2000/svg" xmlns:xlink="http://www.w3.org/1999/xlink" x="0px" y="0px"
	 width="512px" height="512px" viewBox="0 0 512 512" enable-background="new 0 0 512 512" xml:space="preserve">
<g id="Layer_1_1_">
	<g id="Layer_2" display="none">
	</g>
	<g id="shadows">
		<g opacity="0.9">
			<g>
				<path fill="#B7B7B7" d="M466.5,381.5c0,48.6-39.4,88-88,88h-246c-48.602,0-88-39.4-88-88V164.833c0-48.601,39.398-88,88-88h246
					c48.6,0,88,39.399,88,88V381.5z"/>
			</g>
		</g>
		<g>
			<g>
				<path fill="#FFFFFF" d="M466.5,360.5c0,48.6-39.4,88-88,88h-246c-48.602,0-88-39.4-88-88V143.833c0-48.601,39.398-88,88-88h246
					c48.6,0,88,39.399,88,88V360.5z"/>
			</g>
		</g>
	</g>
	<radialGradient id="SVGID_1_" cx="254.5002" cy="254.3335" r="203.7987" gradientUnits="userSpaceOnUse">
		<stop  offset="0" style="stop-color:#BE1349"/>
		<stop  offset="0.24" style="stop-color:#BE124E"/>
		<stop  offset="0.2528" style="stop-color:#BE124E"/>
		<stop  offset="0.4326" style="stop-color:#F8AEAE"/>
		<stop  offset="0.4724" style="stop-color:#E7979C"/>
		<stop  offset="0.5628" style="stop-color:#C66A78"/>
		<stop  offset="0.6537" style="stop-color:#AA445A"/>
		<stop  offset="0.7434" style="stop-color:#952643"/>
		<stop  offset="0.8318" style="stop-color:#851132"/>
		<stop  offset="0.9181" style="stop-color:#7C0428"/>
		<stop  offset="1" style="stop-color:#790025"/>
	</radialGradient>
	<path fill="url(#SVGID_1_)" stroke="#E2E2E2" stroke-width="10" stroke-miterlimit="10" d="M465.5,362.667c0,48.6-39.399,88-88,88
		h-246c-48.602,0-88-39.4-88-88V146c0-48.601,39.398-88,88-88h246c48.601,0,88,39.399,88,88V362.667z"/>
</g>
<g id="g49" transform="matrix(4.5704892,0,0,4.5704892,-45.410974,-45.512669)">
	<g id="g51">
		<g id="g53">
			<path id="path55" inkscape:connector-curvature="0" fill="#F9BA18" d="M77.706,65.13c0,6.256-5.076,11.332-11.332,11.332
				S55.042,71.385,55.042,65.13c0-6.256,5.076-11.332,11.332-11.332S77.706,58.873,77.706,65.13"/>
			<path id="path57" inkscape:connector-curvature="0" fill="#174575" d="M38.149,32.895l-4.01,4.009l14.345,14.354v0.057
				l4.02,4.009c3.08-4.349,8.135-7.206,13.871-7.206c2.219,0,4.319,0.474,6.256,1.24l4.253-4.243
				c-3.149-1.676-6.692-2.663-10.509-2.663c-5.229,0-10.035,1.81-13.871,4.786 M94.599,32.895L80.245,47.239
				c-0.02-0.02-0.03-0.04-0.057-0.057l-4.009,4.009c4.369,3.08,7.196,8.195,7.196,13.938c0,2.236-0.456,4.359-1.24,6.315
				l4.253,4.253c1.686-3.157,2.663-6.742,2.663-10.568c0-5.23-1.81-10.035-4.785-13.871l14.344-14.345l-4.019-4.019 M46.364,54.561
				c-1.696,3.157-2.663,6.732-2.663,10.568c0,5.229,1.81,10.035,4.785,13.871L34.142,93.345l4.01,4.02l4.253-4.253l-0.057-0.057
				l14.111-14.111c-4.29-3.09-7.089-8.126-7.089-13.821c0-2.227,0.466-4.359,1.24-6.316l-4.243-4.253 M80.247,74.934
				c-3.08,4.349-8.136,7.196-13.871,7.196c-2.286,0-4.446-0.484-6.432-1.297l-4.253,4.253c3.186,1.723,6.809,2.713,10.685,2.713
				c5.229,0,10.035-1.803,13.871-4.776l14.345,14.344l4.019-4.019l-8.445-8.505l-5.899-5.84c0.01-0.01-0.01-0.05,0-0.057
				l-4.019-4.019"/>
		</g>
	</g>
</g>
</svg>
