<?xml version="1.0" encoding="utf-8"?>
<!-- Generator: Adobe Illustrator 16.0.0, SVG Export Plug-In . SVG Version: 6.00 Build 0)  -->
<!DOCTYPE svg PUBLIC "-//W3C//DTD SVG 1.1//EN" "http://www.w3.org/Graphics/SVG/1.1/DTD/svg11.dtd">
<svg version="1.1" id="Layer_1" xmlns="http://www.w3.org/2000/svg" xmlns:xlink="http://www.w3.org/1999/xlink" x="0px" y="0px"
	 width="512px" height="512px" viewBox="0 0 512 512" enable-background="new 0 0 512 512" xml:space="preserve">
<g id="Layer_1_1_">
	<g id="Layer_2" display="none">
	</g>
	<g id="shadows">
		<g opacity="0.9">
			<g>
				<path fill="#B7B7B7" d="M466.5,381.5c0,48.6-39.4,88-88,88h-246c-48.602,0-88-39.4-88-88V164.833c0-48.601,39.398-88,88-88h246
					c48.6,0,88,39.399,88,88V381.5z"/>
			</g>
		</g>
		<g>
			<g>
				<path fill="#FFFFFF" d="M466.5,360.5c0,48.6-39.4,88-88,88h-246c-48.602,0-88-39.4-88-88V143.833c0-48.601,39.398-88,88-88h246
					c48.6,0,88,39.399,88,88V360.5z"/>
			</g>
		</g>
	</g>
	<radialGradient id="SVGID_1_" cx="254.5002" cy="254.3335" r="203.7987" gradientUnits="userSpaceOnUse">
		<stop  offset="0" style="stop-color:#F37F7B"/>
		<stop  offset="0.5" style="stop-color:#ED3D57"/>
		<stop  offset="1" style="stop-color:#DD1E47"/>
	</radialGradient>
	<path fill="url(#SVGID_1_)" stroke="#E2E2E2" stroke-width="10" stroke-miterlimit="10" d="M465.5,362.667c0,48.6-39.399,88-88,88
		h-246c-48.602,0-88-39.4-88-88V146c0-48.601,39.398-88,88-88h246c48.601,0,88,39.399,88,88V362.667z"/>
</g>
<radialGradient id="path2986_1_" cx="275.3821" cy="232.9229" r="88.0132" gradientUnits="userSpaceOnUse">
	<stop  offset="0" style="stop-color:#FFF7A9"/>
	<stop  offset="0.5" style="stop-color:#FFF100"/>
	<stop  offset="1" style="stop-color:#FFD700"/>
</radialGradient>
<linearGradient id="path2986_2_" gradientUnits="userSpaceOnUse" x1="191.759" y1="232.9229" x2="359.0051" y2="232.9229">
	<stop  offset="0" style="stop-color:#FFF7A9"/>
	<stop  offset="0.5" style="stop-color:#FFF100"/>
	<stop  offset="1" style="stop-color:#FFD700"/>
</linearGradient>
<path id="path2986" inkscape:connector-curvature="0" fill="url(#path2986_1_)" stroke="url(#path2986_2_)" stroke-miterlimit="10" d="
	M238.175,325.387c-1.375-0.393-41.58-25.889-43.642-27.672c-1.259-1.09-1.777-1.934-2.11-3.432c-0.387-1.75-0.188-2.582,1.668-6.932
	c5.634-13.211,8.074-24.869,7.818-37.361c-0.169-8.243-0.82-13.05-4.042-29.845c-1.602-8.347-3.015-16.62-3.14-18.383
	c-0.902-12.654,1.217-21.531,7.448-31.212c19.165-29.774,60.988-38.853,99.282-21.55c6.205,2.803,15.337,8.329,21.134,12.788
	c12.302,9.462,22.479,22.281,28.98,36.503c2.276,4.98,2.637,6.166,4.728,15.592c2.142,9.64,2.261,10.509,2.192,15.801
	c-0.171,13.427-3.542,25.13-10.199,35.414c-5.366,8.287-11.394,13.775-19.717,17.951c-5.915,2.967-9.663,4.293-23.271,8.23
	c-19.786,5.725-28.197,9.063-38.804,15.404c-6.151,3.678-14.156,9.732-20.228,15.299
	C243.042,324.945,240.442,326.039,238.175,325.387L238.175,325.387z"/>
<path id="path2984" inkscape:connector-curvature="0" fill="#354A5E" d="M191.836,385.023c-11.727,0.617-25.935-7.582-31.966-18.447
	c-1.544-2.781-2.84-8.426-2.527-11c0.292-2.4,1.667-6.059,2.331-6.205c0.682-0.152,44.628,27.896,44.778,28.578
	c0.157,0.707-2.259,3.197-4.356,4.49C197.797,383.857,194.524,384.883,191.836,385.023L191.836,385.023z M216.407,377.295
	c-0.956-0.271-15.075-9.016-31.374-19.436c-25.357-16.207-29.772-19.191-30.584-20.664c-2.753-5.002,0.772-9.49,6.492-8.271
	c1.815,0.389,55.278,33.906,59.58,37.354c3.834,3.074,4.878,6.791,2.665,9.494C221.98,377.244,218.775,377.965,216.407,377.295
	L216.407,377.295z M226.195,361.625c-1.263-0.311-12.603-7.281-31.575-19.41c-27.256-17.424-29.685-19.078-30.617-20.871
	c-2.756-5.297,1.351-9.557,7.364-7.639c3.517,1.121,59.258,36.756,60.697,38.801C235.843,357.881,232.442,363.164,226.195,361.625
	L226.195,361.625z M237.864,347.381c-0.802,0.008-2.222-0.258-3.155-0.59c-0.933-0.33-14.674-8.885-30.537-19.012
	c-19.873-12.686-29.167-18.875-29.89-19.906c-3.964-5.656,0.516-10.949,7.245-8.563c0.92,0.326,14.651,8.877,30.514,19.002
	c19.873,12.686,29.167,18.877,29.89,19.908C245.037,342.654,242.96,347.334,237.864,347.381z"/>
</svg>
