<?xml version="1.0" encoding="utf-8"?>
<!-- Generator: Adobe Illustrator 16.0.0, SVG Export Plug-In . SVG Version: 6.00 Build 0)  -->
<!DOCTYPE svg PUBLIC "-//W3C//DTD SVG 1.1//EN" "http://www.w3.org/Graphics/SVG/1.1/DTD/svg11.dtd">
<svg version="1.1" id="Layer_1" xmlns="http://www.w3.org/2000/svg" xmlns:xlink="http://www.w3.org/1999/xlink" x="0px" y="0px"
	 width="512px" height="512px" viewBox="0 0 512 512" enable-background="new 0 0 512 512" xml:space="preserve">
<g id="Layer_1_1_">
	<g id="Layer_2" display="none">
	</g>
	<g id="shadows">
		<g opacity="0.9">
			<g>
				<path fill="#B7B7B7" d="M466.5,381.5c0,48.6-39.4,88-88,88h-246c-48.602,0-88-39.4-88-88V164.833c0-48.601,39.398-88,88-88h246
					c48.6,0,88,39.399,88,88V381.5z"/>
			</g>
		</g>
		<g>
			<g>
				<path fill="#FFFFFF" d="M466.5,360.5c0,48.6-39.4,88-88,88h-246c-48.602,0-88-39.4-88-88V143.833c0-48.601,39.398-88,88-88h246
					c48.6,0,88,39.399,88,88V360.5z"/>
			</g>
		</g>
	</g>
	<radialGradient id="SVGID_1_" cx="254.5002" cy="254.3335" r="203.7987" gradientUnits="userSpaceOnUse">
		<stop  offset="0" style="stop-color:#2BC4F3"/>
		<stop  offset="0.5" style="stop-color:#00AEEE"/>
		<stop  offset="1" style="stop-color:#0095DA"/>
	</radialGradient>
	<path fill="url(#SVGID_1_)" stroke="#E2E2E2" stroke-width="10" stroke-miterlimit="10" d="M465.5,362.667c0,48.6-39.399,88-88,88
		h-246c-48.602,0-88-39.4-88-88V146c0-48.601,39.398-88,88-88h246c48.601,0,88,39.399,88,88V362.667z"/>
</g>
<g>
	<g transform="translate(1 1)">
		<path fill="#C52828" d="M412.335,255c0.007,42.128-16.726,82.531-46.514,112.32s-70.193,46.521-112.321,46.514
			c-2.739,0-5.477-0.055-8.161-0.219h-0.109C160.837,409.219,94.663,339.508,94.663,255c0-84.508,66.173-154.219,150.567-158.616
			h0.109c2.684-0.164,5.422-0.219,8.161-0.219c42.128-0.007,82.533,16.726,112.321,46.514
			C395.61,172.468,412.342,212.872,412.335,255z"/>
		<path fill="#F44335" d="M395.905,255c0.002,84.507-66.172,154.218-150.565,158.615h-0.109
			C160.837,409.219,94.663,339.508,94.663,255c0-84.508,66.173-154.219,150.567-158.616h0.109
			C329.733,100.781,395.905,170.493,395.905,255z"/>
		<path fill="#FFEB3A" d="M286.794,219.176c-10.999-5.875-20.249-14.556-26.81-25.16c-6.791-13.285-8.684-28.538-5.348-43.08
			c-18.119,11.79-31.596,29.488-38.143,50.089c-6.423,20.541-7.593,42.363-3.406,63.473c-10.694-5.598-18.154-15.876-20.163-27.778
			c-18.184,24.479-19.429,57.624-3.131,83.399c17.255,25.143,48.203,37.074,77.871,30.021c29.381-8.164,50.709-33.566,53.664-63.918
			C322.915,259.246,309.678,233.548,286.794,219.176z"/>
		<path fill="#F44335" d="M268.002,287.965c-5.313-2.838-9.781-7.031-12.951-12.154c-3.28-6.418-4.195-13.785-2.583-20.81
			c-8.752,5.695-15.263,14.246-18.426,24.197c-3.103,9.922-3.668,20.465-1.645,30.662c-5.166-2.705-8.77-7.67-9.74-13.42
			c-9.058,11.727-9.667,27.914-1.512,40.287c8.153,12.373,23.267,18.199,37.616,14.502c13.527-3.479,23.646-14.738,25.663-28.559
			C286.444,308.85,279.969,295.168,268.002,287.965L268.002,287.965z"/>
	</g>
	<g>
		<path d="M254.5,91.688c-90.747,0-164.312,73.565-164.312,164.313c0,90.748,73.565,164.312,164.312,164.312
			c90.746,0,164.312-73.564,164.312-164.312C418.709,165.296,345.205,91.791,254.5,91.688z M254.5,409.357
			c-84.697,0-153.358-68.66-153.358-153.357c0-84.697,68.661-153.358,153.358-153.358S407.858,171.303,407.858,256
			C407.763,340.658,339.158,409.264,254.5,409.357z"/>
		<path d="M290.676,215.518c-10.166-5.392-18.74-13.354-24.869-23.093c-6.196-12.118-7.905-26.039-4.824-39.297
			c0.48-2.153-0.379-4.385-2.179-5.661c-1.801-1.275-4.191-1.347-6.063-0.18c-19.235,12.432-33.537,31.177-40.447,53.012
			c-5.413,16.957-7.274,34.847-5.469,52.556c-3.913-4.55-6.503-10.085-7.491-16.003c-0.345-2.157-1.939-3.903-4.056-4.442
			c-2.117-0.539-4.352,0.23-5.687,1.961c-19.588,26.342-20.928,62.026-3.37,89.762c13.805,20.088,36.075,32.717,60.401,34.254
			c1.679,0.215,3.368,0.324,5.059,0.324l0.065-0.004l0.106,0.008c6.132,0.012,12.239-0.752,18.178-2.271
			c31.634-8.77,54.595-36.119,57.758-68.791C329.498,258.639,315.276,230.996,290.676,215.518z M226.717,334.711
			c-4.731-7.459-5.934-16.623-3.289-25.051c2.048,2.514,4.59,4.58,7.469,6.072c1.855,0.951,4.092,0.768,5.766-0.477
			c1.675-1.244,2.497-3.332,2.121-5.385c-1.856-9.293-1.354-18.902,1.458-27.951c1.61-4.932,4.116-9.523,7.39-13.545
			c0.554,3.855,1.771,7.586,3.597,11.027c3.62,5.975,8.76,10.881,14.896,14.221c10.099,6.049,15.574,17.574,13.885,29.225
			s-10.213,21.145-21.614,24.078c-2.868,0.723-5.833,0.984-8.784,0.777l-0.225-0.008
			C240.243,347.051,231.898,342.27,226.717,334.711z M316.865,286.795c-1.988,20.59-13.214,39.164-30.518,50.496
			c2.671-4.775,4.305-10.061,4.795-15.51c0.895-15.07-6.485-29.432-19.26-37.477c-4.477-2.357-8.268-5.83-11.008-10.084
			c-2.647-5.264-3.376-11.285-2.061-17.027c0.479-2.153-0.379-4.385-2.18-5.662c-1.8-1.275-4.19-1.347-6.063-0.18
			c-9.853,6.353-17.183,15.943-20.729,27.119c-1.549,4.732-2.517,9.635-2.883,14.602c-2.394-1.816-5.804-1.361-7.638,1.02
			c-9.357,12.65-10.703,29.523-3.468,43.496c-8.183-4.902-15.18-11.557-20.486-19.484c-12.899-20.424-14.069-46.137-3.078-67.65
			c4.126,8.541,10.893,15.523,19.298,19.919c1.855,0.951,4.091,0.768,5.767-0.477c1.674-1.244,2.497-3.332,2.12-5.383
			c-3.164-16.507-3.05-33.474,0.336-49.937c0.363-0.727,0.557-1.527,0.567-2.339c0-0.048-0.025-0.087-0.027-0.134
			c0.682-2.837,1.438-5.636,2.34-8.355c4.938-15.346,13.891-29.091,25.928-39.813c-0.475,11.69,2.125,23.301,7.539,33.673
			c6.987,11.478,16.916,20.878,28.756,27.228C306.069,238.117,318.313,261.861,316.865,286.795z"/>
	</g>
</g>
</svg>
