<?xml version="1.0" encoding="utf-8"?>
<!-- Generator: Adobe Illustrator 16.0.0, SVG Export Plug-In . SVG Version: 6.00 Build 0)  -->
<!DOCTYPE svg PUBLIC "-//W3C//DTD SVG 1.1//EN" "http://www.w3.org/Graphics/SVG/1.1/DTD/svg11.dtd">
<svg version="1.1" id="Layer_1" xmlns="http://www.w3.org/2000/svg" xmlns:xlink="http://www.w3.org/1999/xlink" x="0px" y="0px"
	 width="512px" height="512px" viewBox="0 0 512 512" enable-background="new 0 0 512 512" xml:space="preserve">
<g id="Layer_1_1_">
	<g id="Layer_2" display="none">
	</g>
	<g id="shadows">
		<g opacity="0.9">
			<g>
				<path fill="#B7B7B7" d="M466.5,381.5c0,48.6-39.4,88-88,88h-246c-48.602,0-88-39.4-88-88V164.833c0-48.601,39.398-88,88-88h246
					c48.6,0,88,39.399,88,88V381.5z"/>
			</g>
		</g>
		<g>
			<g>
				<path fill="#FFFFFF" d="M466.5,360.5c0,48.6-39.4,88-88,88h-246c-48.602,0-88-39.4-88-88V143.833c0-48.601,39.398-88,88-88h246
					c48.6,0,88,39.399,88,88V360.5z"/>
			</g>
		</g>
	</g>
	
		<radialGradient id="SVGID_1_" cx="262.8596" cy="-555.2788" r="203.7987" gradientTransform="matrix(1 0 0 -1 -8.3599 -300.9453)" gradientUnits="userSpaceOnUse">
		<stop  offset="0" style="stop-color:#F69453"/>
		<stop  offset="0.5" style="stop-color:#F37521"/>
		<stop  offset="1" style="stop-color:#D4622A"/>
	</radialGradient>
	<path fill="url(#SVGID_1_)" stroke="#E2E2E2" stroke-width="10" stroke-miterlimit="10" d="M465.5,362.667c0,48.6-39.399,88-88,88
		h-246c-48.602,0-88-39.4-88-88V146c0-48.601,39.398-88,88-88h246c48.601,0,88,39.399,88,88V362.667z"/>
</g>
<path fill="#FEE6CC" d="M325.13,221.614c-0.507,0-1.008,0.012-1.503,0.037c-19.441,0.785-34.956,16.794-34.956,36.421
	c0,17.029,11.681,31.34,27.474,35.34c2.869,0.729,5.881,1.119,8.985,1.119c20.134,0,36.459-16.325,36.459-36.459
	C361.589,237.938,345.264,221.614,325.13,221.614z M325.13,277.527c-1.082,0-2.146-0.087-3.179-0.26
	c-9.232-1.516-16.275-9.529-16.275-19.194c0-10.24,7.909-18.631,17.951-19.398c0.495-0.037,0.994-0.055,1.502-0.055
	c10.747,0,19.454,8.707,19.454,19.453C344.583,268.82,335.877,277.527,325.13,277.527z"/>
<path fill="#FCCE99" d="M305.676,258.073c0,9.665,7.043,17.679,16.275,19.194c-1.268,5.676-3.234,11.093-5.807,16.145
	c-15.792-4-27.474-18.31-27.474-35.339c0-19.627,15.515-35.637,34.956-36.422v17.024
	C313.585,239.442,305.676,247.833,305.676,258.073z"/>
<path fill="#FEE6CC" d="M314.216,216.298v45.012c0,38.219-30.614,69.804-68.831,70.074c-8.102,0.057-15.885-1.275-23.127-3.775
	c-23.504-8.107-41.282-28.496-45.661-53.496c-0.686-3.914-1.045-7.939-1.045-12.051v-45.764c0-2.764,2.241-5.005,5.005-5.005H309.21
	C311.975,211.293,314.216,213.534,314.216,216.298z"/>
<g>
	<path fill="#FCCE99" d="M225.091,323.224c-0.798,1.528-1.75,2.993-2.833,4.385c-23.504-8.107-41.282-28.495-45.66-53.495
		c1.713,0.625,3.345,1.447,4.854,2.455c3.71,2.479,6.573,6.004,8.417,10.209c2.257-0.354,4.521-0.539,6.758-0.539
		c15.713,0,28.42,8.721,30.9,21.198C228.578,312.699,227.731,318.16,225.091,323.224z"/>
	<path fill="#FCCE99" d="M314.216,247.771v14.29c0,38.289-31.042,69.325-69.332,69.325c-38.289,0-69.331-31.036-69.331-69.325
		v-14.29c0,38.289,31.042,69.33,69.331,69.33S314.216,286.061,314.216,247.771z"/>
	<rect x="189.43" y="343.934" fill="#FCCE99" width="110.906" height="18.238"/>
</g>
<path fill="#E2780E" d="M216.866,318.933c-3.259,6.239-10.624,11.465-19.874,13.301c-13.821,2.745-26.627-3.092-28.606-13.048
	c-0.019-0.086-0.03-0.166-0.043-0.254c-1.774-9.868,7.786-20.016,21.482-22.737c13.821-2.745,26.627,3.093,28.606,13.049
	C219.086,312.533,218.474,315.854,216.866,318.933z"/>
<g>
	<path fill="#A85000" d="M216.866,318.933c-3.259,6.239-10.624,11.465-19.874,13.301c-13.821,2.745-26.627-3.092-28.606-13.048
		c-0.019-0.086-0.03-0.166-0.043-0.254L216.866,318.933L216.866,318.933z"/>
	<path fill="#A85000" d="M196.99,332.232c-13.816,2.746-26.622-3.093-28.6-13.046c-0.265-1.334-0.324-2.678-0.185-4.004
		c4.069,7.595,15.279,11.653,27.239,9.275c11.96-2.378,20.766-10.414,21.621-18.988c0.637,1.173,1.096,2.437,1.361,3.771
		C220.404,319.192,210.805,329.486,196.99,332.232z"/>
</g>
<path fill="#E2780E" d="M177.396,315.692c-0.767,1.144-1.583,2.226-2.443,3.24c-7.922,9.337-19.398,12.851-27.004,7.761
	c-2.733-1.824-4.631-4.533-5.689-7.761c-2.195-6.733-0.705-15.731,4.588-23.652c7.828-11.719,21.012-16.641,29.447-11.001
	C184.729,289.914,185.224,303.98,177.396,315.692z"/>
<g>
	<path fill="#A85000" d="M174.953,318.933c-7.922,9.337-19.398,12.851-27.004,7.761c-2.733-1.824-4.631-4.533-5.689-7.761H174.953z"
		/>
	<path fill="#A85000" d="M177.396,315.695c-7.828,11.711-21.012,16.637-29.448,10.998c-1.131-0.756-2.123-1.664-2.963-2.701
		c8.249,2.493,19.044-2.563,25.82-12.702c6.776-10.138,7.319-22.046,1.861-28.714c1.279,0.379,2.498,0.947,3.629,1.703
		C184.732,289.918,185.223,303.982,177.396,315.695z"/>
</g>
<polygon fill="#FEE6CC" points="130.629,327.594 130.629,336.653 189.231,347.783 300.537,347.783 359.141,336.653 359.141,327.594 
	"/>
<path d="M359.141,323.803h-36.586c-2.093,0-3.789,1.696-3.789,3.789s1.696,3.789,3.789,3.789h32.797v2.137l-55.17,10.478H189.591
	l-55.171-10.478v-2.137h15.065c0.006,0,0.012,0,0.018,0c0.004,0,0.009,0,0.014,0h13.651c0.004,0,0.008,0,0.013,0
	c0.007,0,0.015,0,0.021,0h45.426c0.002,0,0.005,0,0.008,0s0.005,0,0.007,0h13.537c0.004,0,0.008,0,0.012,0s0.009,0,0.013,0h45.361
	c0.004,0,0.01,0,0.013,0c0.005,0,0.009,0,0.012,0h40.894c2.094,0,3.789-1.696,3.789-3.789s-1.695-3.789-3.789-3.789h-24.439
	c4.525-2.875,8.748-6.244,12.545-10.037c5.479-5.482,9.979-11.684,13.417-18.388c4.791,1.952,9.864,2.942,15.124,2.942
	c22.191,0,40.244-18.056,40.244-40.249c0-22.19-18.053-40.244-40.244-40.244c-2.405,0-4.788,0.217-7.128,0.637v-2.167
	c0-4.85-3.946-8.795-8.796-8.795h-17.92c-2.093,0-3.789,1.696-3.789,3.789c0,2.093,1.696,3.79,3.789,3.79h17.92
	c0.672,0,1.217,0.546,1.217,1.217v6.441H179.342v-6.441c0-0.671,0.546-1.217,1.217-1.217h96.654c2.094,0,3.789-1.697,3.789-3.79
	c0-2.092-1.695-3.789-3.789-3.789h-96.654c-4.85,0-8.795,3.945-8.795,8.795v45.761c0,5.714,0.668,11.381,1.971,16.883
	c-6.167-1.838-13.516-0.394-20.221,4.193c-1.728,1.182-2.17,3.539-0.988,5.268c1.182,1.727,3.54,2.168,5.268,0.987
	c4.394-3.007,9.005-4.187,12.818-3.423l-13.801,20.648c-1.163,1.74-0.695,4.094,1.044,5.256c0.647,0.432,1.379,0.639,2.102,0.639
	c1.223,0,2.424-0.59,3.153-1.683l13.806-20.655c1.432,2.124,2.216,4.906,2.253,8.147c0,0.001,0,0.003,0,0.004
	c0,0.007,0,0.014,0,0.021c0.051,5.006-1.698,10.42-4.924,15.246c-1.839,2.752-4.013,5.111-6.476,7.023
	c-1.707,1.336-3.5,2.406-5.337,3.189h-11.97c-0.137-0.082-0.274-0.164-0.41-0.256c-6.308-4.214-6.708-15.11-0.909-24.809
	c1.074-1.795,0.489-4.122-1.307-5.196c-1.795-1.073-4.122-0.489-5.196,1.308c-3.696,6.182-5.502,13.068-5.083,19.393
	c0.237,3.589,1.176,6.822,2.722,9.561h-9.649c-2.093,0-3.789,1.695-3.789,3.789v9.063c0,1.82,1.294,3.383,3.082,3.723l55.718,10.581
	v11.213c0,2.093,1.696,3.789,3.789,3.789h110.905c2.093,0,3.789-1.696,3.789-3.789v-11.212l55.723-10.582
	c1.788-0.34,3.082-1.902,3.082-3.723v-9.063C362.93,325.499,361.234,323.803,359.141,323.803z M318.003,244.13
	c2.195-1.127,4.623-1.725,7.128-1.725c8.639,0,15.666,7.028,15.666,15.666c0,8.638-7.027,15.667-15.666,15.667
	c-2.753,0-5.402-0.715-7.756-2.063c0.412-3.163,0.627-6.374,0.627-9.618L318.003,244.13L318.003,244.13z M325.132,225.405
	c18.012,0,32.665,14.654,32.665,32.666c0,18.015-14.653,32.671-32.665,32.671c-4.178,0-8.205-0.779-12.016-2.293
	c1.136-2.937,2.074-5.952,2.819-9.025c2.881,1.243,5.993,1.893,9.195,1.893c12.817,0,23.244-10.428,23.244-23.244
	c0-12.817-10.427-23.245-23.244-23.245c-2.445,0-4.844,0.383-7.128,1.119v-9.38c0-0.013,0.002-0.026,0.002-0.039
	c0-0.013-0.002-0.026-0.002-0.039v-0.298C320.328,225.672,322.716,225.405,325.132,225.405z M310.424,230.316v11.663
	c0,0.004,0,0.008,0,0.013v20.065c0,17.507-6.816,33.968-19.193,46.349c-6.855,6.854-15.254,12.164-24.315,15.396h-44.054
	c-1.222-0.436-2.438-0.902-3.639-1.414c2.78-4.371,3.84-9.234,2.925-13.869c-0.001-0.006-0.001-0.012-0.003-0.018
	c-0.001-0.008-0.003-0.015-0.004-0.021c-1.208-6.029-5.469-10.99-12-13.971c-6.118-2.791-13.596-3.513-21.056-2.032
	c-0.678,0.135-1.351,0.29-2.018,0.458c-5.058-9.453-7.726-20.064-7.726-30.877v-31.742H310.424L310.424,230.316z M180.547,317.8
	c3.508-5.248,5.624-11.133,6.097-16.836c1.271-0.428,2.579-0.788,3.918-1.054c9.641-1.914,18.937,0.986,22.643,6.506l-24.351,4.84
	c-2.052,0.408-3.386,2.402-2.978,4.455c0.358,1.803,1.941,3.051,3.712,3.051c0.245,0,0.494-0.023,0.743-0.074l24.366-4.844
	c-0.486,2.493-1.875,4.992-4.101,7.287c-0.006,0.006-0.012,0.013-0.017,0.019c-0.928,0.952-1.978,1.839-3.12,2.651h-31.858
	C177.417,322.011,179.073,320.004,180.547,317.8z M296.547,358.383H193.22v-6.81h103.327V358.383z"/>
<path d="M254.795,183.022c-1.771,1.114-2.303,3.454-1.189,5.225c0.721,1.145,1.951,1.771,3.211,1.771
	c0.689,0,1.388-0.188,2.014-0.582c7.614-4.791,12.16-13.012,12.16-21.992c0-7.214-2.939-13.935-8.041-18.785
	c5.103-4.85,8.041-11.57,8.041-18.784c0-8.98-4.545-17.201-12.16-21.992c-1.771-1.115-4.111-0.582-5.225,1.189
	c-1.114,1.771-0.582,4.11,1.189,5.225c5.396,3.396,8.618,9.219,8.618,15.578c0,6.358-3.222,12.182-8.618,15.578
	c-2.316,1.453-2.316,4.956,0,6.414c5.396,3.395,8.618,9.218,8.618,15.578S260.193,179.627,254.795,183.022
	C253.024,184.137,260.193,179.627,254.795,183.022z"/>
<path d="M281.461,183.022c-1.771,1.114-2.304,3.454-1.189,5.225c0.72,1.145,1.951,1.771,3.211,1.771
	c0.689,0,1.387-0.188,2.014-0.582c7.613-4.791,12.159-13.012,12.159-21.992c0-8.979-4.546-17.201-12.159-21.991
	c-1.771-1.114-4.111-0.583-5.225,1.189c-1.115,1.77-0.582,4.11,1.188,5.224c5.397,3.396,8.618,9.22,8.618,15.579
	C290.078,173.803,286.857,179.627,281.461,183.022z"/>
<path d="M225.948,183.022c-1.771,1.114-2.304,3.454-1.189,5.225c0.72,1.145,1.951,1.771,3.21,1.771c0.689,0,1.388-0.188,2.015-0.582
	c7.614-4.791,12.16-13.012,12.16-21.992c0-8.979-4.546-17.201-12.16-21.992c-1.771-1.114-4.112-0.582-5.225,1.189
	c-1.114,1.771-0.582,4.11,1.189,5.225c5.396,3.395,8.618,9.219,8.618,15.578C234.566,173.803,231.344,179.627,225.948,183.022z"/>
</svg>
