<?xml version="1.0" encoding="utf-8"?>
<!-- Generator: Adobe Illustrator 16.0.0, SVG Export Plug-In . SVG Version: 6.00 Build 0)  -->
<!DOCTYPE svg PUBLIC "-//W3C//DTD SVG 1.1//EN" "http://www.w3.org/Graphics/SVG/1.1/DTD/svg11.dtd">
<svg version="1.1" id="Layer_1" xmlns="http://www.w3.org/2000/svg" xmlns:xlink="http://www.w3.org/1999/xlink" x="0px" y="0px"
	 width="512px" height="512px" viewBox="0 0 512 512" enable-background="new 0 0 512 512" xml:space="preserve">
<g id="Layer_1_1_">
	<g id="Layer_2" display="none">
	</g>
	<g id="shadows">
		<g opacity="0.9">
			<g>
				<path fill="#B7B7B7" d="M466.5,381.5c0,48.6-39.4,88-88,88h-246c-48.602,0-88-39.4-88-88V164.833c0-48.601,39.398-88,88-88h246
					c48.6,0,88,39.399,88,88V381.5z"/>
			</g>
		</g>
		<g>
			<g>
				<path fill="#FFFFFF" d="M466.5,360.5c0,48.6-39.4,88-88,88h-246c-48.602,0-88-39.4-88-88V143.833c0-48.601,39.398-88,88-88h246
					c48.6,0,88,39.399,88,88V360.5z"/>
			</g>
		</g>
	</g>
	
		<radialGradient id="SVGID_1_" cx="262.8596" cy="-555.2788" r="203.7987" gradientTransform="matrix(1 0 0 -1 -8.3599 -300.9453)" gradientUnits="userSpaceOnUse">
		<stop  offset="0" style="stop-color:#77B2C6"/>
		<stop  offset="0.5" style="stop-color:#349AB4"/>
		<stop  offset="1" style="stop-color:#0089A6"/>
	</radialGradient>
	<path fill="url(#SVGID_1_)" stroke="#E2E2E2" stroke-width="10" stroke-miterlimit="10" d="M465.5,362.667c0,48.6-39.399,88-88,88
		h-246c-48.602,0-88-39.4-88-88V146c0-48.601,39.398-88,88-88h246c48.601,0,88,39.399,88,88V362.667z"/>
</g>
<path fill="#231F20" d="M451.112,376.851c0,9.245-5.84,16.74-13.044,16.74H73.932c-7.204,0-13.043-7.495-13.043-16.74v-25.11
	c0-9.245,5.84-16.74,13.043-16.74h364.135c7.204,0,13.044,7.495,13.044,16.74V376.851z"/>
<path fill="#ECEFF1" d="M149.437,360.688H121.24c-1.112,0-2.014-0.901-2.014-2.014c0-1.111,0-39.17,0-40.282
	c0-1.111,0.902-2.014,2.014-2.014h28.197c1.112,0,2.014,0.902,2.014,2.014v40.282C151.451,359.787,150.549,360.688,149.437,360.688z
	"/>
<g>
	<path fill="#388E3C" d="M129.296,328.463h-8.056c-1.112,0-2.014-0.901-2.014-2.014c0-1.111,0.902-2.014,2.014-2.014h8.056
		c1.112,0,2.015,0.902,2.015,2.014C131.311,327.562,130.408,328.463,129.296,328.463z"/>
	<path fill="#388E3C" d="M129.296,336.52h-8.056c-1.112,0-2.014-0.902-2.014-2.014c0-1.112,0.902-2.014,2.014-2.014h8.056
		c1.112,0,2.015,0.901,2.015,2.014C131.311,335.617,130.408,336.52,129.296,336.52z"/>
	<path fill="#388E3C" d="M129.296,344.576h-8.056c-1.112,0-2.014-0.902-2.014-2.014c0-1.112,0.902-2.015,2.014-2.015h8.056
		c1.112,0,2.015,0.902,2.015,2.015C131.311,343.674,130.408,344.576,129.296,344.576z"/>
	<path fill="#388E3C" d="M129.296,352.633h-8.056c-1.112,0-2.014-0.902-2.014-2.015c0-1.111,0.902-2.014,2.014-2.014h8.056
		c1.112,0,2.015,0.902,2.015,2.014C131.311,351.73,130.408,352.633,129.296,352.633z"/>
	<path fill="#388E3C" d="M141.381,328.463h-4.028c-1.112,0-2.014-0.901-2.014-2.014c0-1.111,0.902-2.014,2.014-2.014h4.028
		c1.112,0,2.014,0.902,2.014,2.014C143.395,327.562,142.493,328.463,141.381,328.463z"/>
	<path fill="#388E3C" d="M141.381,336.52h-4.028c-1.112,0-2.014-0.902-2.014-2.014c0-1.112,0.902-2.014,2.014-2.014h4.028
		c1.112,0,2.014,0.901,2.014,2.014C143.395,335.617,142.493,336.52,141.381,336.52z"/>
	<path fill="#388E3C" d="M141.381,344.576h-4.028c-1.112,0-2.014-0.902-2.014-2.014c0-1.112,0.902-2.015,2.014-2.015h4.028
		c1.112,0,2.014,0.902,2.014,2.015C143.395,343.674,142.493,344.576,141.381,344.576z"/>
	<path fill="#388E3C" d="M141.381,352.633h-4.028c-1.112,0-2.014-0.902-2.014-2.015c0-1.111,0.902-2.014,2.014-2.014h4.028
		c1.112,0,2.014,0.902,2.014,2.014C143.395,351.73,142.493,352.633,141.381,352.633z"/>
</g>
<path fill="#2E7D32" d="M122.525,308.785c-0.459-0.383-1.075-0.547-1.655-0.426L88.644,314.4c-0.955,0.178-1.644,1.008-1.644,1.979
	v44.31c0,0.968,0.689,1.802,1.644,1.979l32.226,6.043c0.121,0.023,0.246,0.035,0.371,0.035c0.467,0,0.922-0.16,1.285-0.463
	c0.463-0.383,0.729-0.955,0.729-1.551v-56.395C123.254,309.736,122.988,309.168,122.525,308.785z"/>
<path fill="#FAFAFA" d="M114.698,345.265l-6.369-7.278l6.441-8.282c0.685-0.878,0.523-2.143-0.351-2.827
	c-0.874-0.686-2.139-0.524-2.828,0.35l-5.966,7.67l-5.027-5.744c-0.737-0.846-2.01-0.923-2.84-0.189
	c-0.838,0.733-0.922,2.007-0.189,2.84l5.539,6.332l-5.615,7.22c-0.685,0.877-0.524,2.143,0.35,2.827
	c0.371,0.286,0.81,0.423,1.241,0.423c0.6,0,1.192-0.266,1.591-0.777l5.136-6.606l5.857,6.691c0.399,0.459,0.955,0.692,1.515,0.692
	c0.472,0,0.943-0.165,1.326-0.499C115.346,347.372,115.431,346.099,114.698,345.265z"/>
<path fill="#E3E4D8" d="M246.173,361.475h-50.788v-69.833h39.361l11.427,11.427V361.475z"/>
<path fill="#D0CEBD" d="M234.746,291.642v11.427h11.427L234.746,291.642z"/>
<path fill="#B53438" d="M195.385,342.429h50.788v22.855h-50.788V342.429z"/>
<g>
	<path fill="#FFFFFF" d="M203.003,361.475c-0.701,0-1.27-0.568-1.27-1.27v-12.696c0-0.702,0.569-1.271,1.27-1.271
		s1.27,0.568,1.27,1.271v12.696C204.273,360.906,203.704,361.475,203.003,361.475z"/>
	<path fill="#FFFFFF" d="M238.554,348.777h-7.618c-0.7,0-1.27-0.568-1.27-1.269c0-0.702,0.57-1.271,1.27-1.271h7.618
		c0.701,0,1.27,0.568,1.27,1.271C239.824,348.209,239.256,348.777,238.554,348.777z"/>
	<path fill="#FFFFFF" d="M238.554,355.126h-7.618c-0.7,0-1.27-0.568-1.27-1.27s0.57-1.27,1.27-1.27h7.618
		c0.701,0,1.27,0.568,1.27,1.27S239.256,355.126,238.554,355.126z"/>
	<path fill="#FFFFFF" d="M230.936,361.475c-0.7,0-1.27-0.568-1.27-1.27v-12.696c0-0.702,0.57-1.271,1.27-1.271
		c0.702,0,1.27,0.568,1.27,1.271v12.696C232.206,360.906,231.638,361.475,230.936,361.475z"/>
</g>
<path fill="#B53438" d="M219.865,305.325c-0.124,0.041-1.682,2.196,0.122,4.019C221.189,306.701,219.921,305.308,219.865,305.325
	 M220.635,315.9c-0.906,3.093-2.1,6.43-3.384,9.451c2.644-1.013,5.52-1.898,8.219-2.523
	C223.762,320.869,222.054,318.422,220.635,315.9 M230.086,324.124c1.031,0.784,1.282,1.18,1.958,1.18c0.295,0,1.14-0.013,1.53-0.551
	c0.189-0.262,0.263-0.43,0.291-0.518c-0.154-0.082-0.362-0.245-1.486-0.245C231.738,323.99,230.935,324.018,230.086,324.124
	 M212.832,329.677c-2.705,1.499-3.807,2.732-3.885,3.428c-0.013,0.116-0.047,0.418,0.544,0.864
	C209.68,333.91,210.781,333.415,212.832,329.677 M209.463,336.081c-0.44,0-0.863-0.142-1.224-0.407
	c-1.317-0.978-1.495-2.064-1.411-2.804c0.23-2.033,2.777-4.164,7.573-6.334c1.903-4.118,3.714-9.193,4.793-13.433
	c-1.262-2.715-2.49-6.235-1.596-8.302c0.314-0.724,0.707-1.279,1.435-1.52c0.29-0.094,1.018-0.214,1.286-0.214
	c0.665,0,1.302,0.793,1.608,1.309c0.572,0.956,0.575,2.069,0.484,3.145c-0.088,1.042-0.265,2.08-0.47,3.105
	c-0.149,0.755-0.319,1.505-0.499,2.253c1.705,3.478,4.12,7.021,6.437,9.447c1.66-0.296,3.086-0.445,4.25-0.445
	c1.979,0,3.182,0.456,3.67,1.395c0.407,0.776,0.239,1.687-0.494,2.699c-0.705,0.974-1.674,1.487-2.808,1.487
	c-1.541,0-3.331-0.96-5.33-2.854c-3.589,0.741-7.781,2.063-11.169,3.526c-1.058,2.216-2.07,4.001-3.015,5.312
	C211.689,335.244,210.571,336.081,209.463,336.081"/>
<path fill="#FFFFFF" d="M206.813,356.396h-3.81c-0.701,0-1.27-0.569-1.27-1.271v-7.617c0-0.702,0.569-1.271,1.27-1.271h3.81
	c2.801,0,5.079,2.278,5.079,5.079S209.614,356.396,206.813,356.396z M204.273,353.856h2.54c1.399,0,2.539-1.14,2.539-2.539
	c0-1.4-1.139-2.54-2.539-2.54h-2.54V353.856z"/>
<path fill="#FFFFFF" d="M218.24,361.475h-1.27c-0.701,0-1.27-0.568-1.27-1.27v-12.696c0-0.702,0.568-1.271,1.27-1.271h1.27
	c4.2,0,7.619,3.417,7.619,7.618S222.44,361.475,218.24,361.475z M218.24,358.937h0.013H218.24z M218.24,348.777v10.159
	c2.801,0,5.079-2.279,5.079-5.08S221.041,348.777,218.24,348.777z"/>
<g>
	<g>
		<path fill="#FFE100" d="M345.224,357.016c-0.578,2.426-2.746,4.138-5.24,4.138h-49.679c-2.111,0-3.222-1.11-3.222-3.331
			l8.882-21.219c0.506-1.141,1.34-2.098,2.599-2.098h16.382c2.748,0,5.354-1.221,7.112-3.331c1.76-2.112,4.365-3.331,7.112-3.331
			h19.658c1.68,0,2.937,1.527,2.598,3.158L345.224,357.016z"/>
		<path fill="#FFE100" d="M297.075,321.182h46.634v-3.331c0-1.84-1.492-3.331-3.331-3.331h-30.511c-0.366,0-0.712-0.166-0.94-0.451
			l-4.303-5.38c-0.421-0.525-1.056-0.831-1.729-0.831h-12.48c-1.839,0-3.332,1.491-3.332,3.332v46.633l7.396-34.542
			C294.732,322.058,295.817,321.182,297.075,321.182"/>
	</g>
	<path fill="#FFFFFF" d="M290.414,311.189c0-1.841,1.492-3.332,3.33-3.332h-3.33c-1.839,0-3.332,1.491-3.332,3.332v46.633
		l3.332-15.561V311.189z"/>
	<path fill="#FDCC00" d="M298.564,334.506h16.383c2.746,0,5.353-1.223,7.111-3.331c1.759-2.11,4.365-3.331,7.112-3.331h18.558
		l0.367-3.503c0.34-1.632-0.918-3.159-2.599-3.159h-48.421c-1.259,0-2.344,0.876-2.599,2.099l-7.395,34.542l8.883-21.219
		C296.47,335.463,297.304,334.506,298.564,334.506"/>
	<g>
		<path fill="#FFA800" d="M348.828,327.844h-3.331c1.68,0,2.937,1.527,2.598,3.158l-6.202,26.013
			c-0.578,2.426-2.747,4.139-5.24,4.139h3.331c2.494,0,4.662-1.712,5.24-4.139l6.202-26.013
			C351.765,329.371,350.508,327.844,348.828,327.844"/>
		<path fill="#FFA800" d="M340.378,314.52h-3.331c1.84,0,3.331,1.491,3.331,3.331v3.331h3.331v-3.331
			C343.709,316.011,342.218,314.52,340.378,314.52"/>
		<path fill="#FFA800" d="M345.497,321.182h-3.331c1.68,0,2.938,1.527,2.598,3.159l-0.367,3.503h3.331l0.367-3.503
			C348.435,322.709,347.177,321.182,345.497,321.182"/>
	</g>
	<g>
		<path d="M344.82,335.615h-17.766c-0.613,0-1.11-0.496-1.11-1.109c0-0.614,0.497-1.11,1.11-1.11h17.766
			c0.614,0,1.11,0.496,1.11,1.11C345.93,335.119,345.434,335.615,344.82,335.615"/>
		<path d="M344.82,340.057h-8.883c-0.614,0-1.11-0.496-1.11-1.109c0-0.615,0.496-1.111,1.11-1.111h8.883
			c0.614,0,1.11,0.496,1.11,1.111C345.93,339.561,345.434,340.057,344.82,340.057"/>
		<path d="M288.197,358.036c0.054,1.439,0.659,2.007,2.108,2.007h49.679c1.989,0,3.7-1.351,4.16-3.284l6.203-26.014
			c0.084-0.412-0.028-0.869-0.316-1.222c-0.294-0.362-0.732-0.568-1.203-0.568h-19.658c-2.424,0-4.705,1.067-6.258,2.93
			c-1.977,2.371-4.878,3.732-7.965,3.732h-16.383c-0.629,0-1.161,0.482-1.584,1.438L288.197,358.036z M339.984,362.264h-49.679
			c-2.754,0-4.332-1.619-4.332-4.441c0-0.147,0.028-0.293,0.085-0.429l8.883-21.218c0.798-1.801,2.08-2.78,3.623-2.78h16.383
			c2.425,0,4.706-1.067,6.259-2.931c1.976-2.372,4.878-3.731,7.964-3.731h19.658c1.143,0,2.208,0.507,2.926,1.388
			c0.712,0.875,0.988,2.006,0.761,3.106l-6.21,26.046C345.603,360.211,343.004,362.264,339.984,362.264L339.984,362.264z"/>
		<path d="M297.075,322.291c-0.729,0-1.364,0.512-1.51,1.215l-4.899,22.88l4.274-10.21c0.798-1.801,2.08-2.78,3.623-2.78h16.383
			c2.424,0,4.705-1.069,6.258-2.933c1.976-2.369,4.88-3.729,7.966-3.729h17.558l0.264-2.51c0.003-0.036,0.009-0.073,0.017-0.11
			c0.092-0.442-0.021-0.898-0.307-1.25c-0.294-0.363-0.733-0.572-1.206-0.572H297.075z M287.082,358.933
			c-0.11,0-0.222-0.017-0.331-0.052c-0.548-0.171-0.874-0.73-0.754-1.291l7.396-34.542c0.356-1.722,1.906-2.977,3.683-2.977h48.42
			c1.144,0,2.211,0.507,2.93,1.389c0.697,0.858,0.976,1.966,0.77,3.047l-0.363,3.452c-0.058,0.564-0.535,0.994-1.104,0.994H329.17
			c-2.426,0-4.707,1.068-6.259,2.932c-1.978,2.371-4.88,3.73-7.965,3.73h-16.383c-0.629,0-1.161,0.484-1.584,1.438l-8.872,21.197
			C287.931,358.674,287.52,358.933,287.082,358.933L287.082,358.933z"/>
		<path d="M287.084,358.933c-0.039,0-0.078-0.003-0.118-0.007c-0.565-0.061-0.993-0.535-0.993-1.104v-27.758
			c0-0.614,0.496-1.111,1.109-1.111c0.614,0,1.111,0.497,1.111,1.111v17.268l5.199-24.284c0.356-1.722,1.906-2.977,3.683-2.977
			h45.523v-2.221c0-1.225-0.996-2.221-2.221-2.221h-30.509c-0.707,0-1.366-0.316-1.809-0.867l-4.303-5.38
			c-0.211-0.264-0.525-0.415-0.862-0.415h-12.481c-1.225,0-2.221,0.996-2.221,2.221v9.993c0,0.613-0.496,1.109-1.111,1.109
			c-0.613,0-1.109-0.496-1.109-1.109v-9.992c0-2.45,1.992-4.441,4.441-4.441h12.48c1.015,0,1.961,0.453,2.596,1.246l4.304,5.38
			l30.584,0.035c2.449,0,4.441,1.992,4.441,4.441v3.331c0,0.613-0.497,1.109-1.11,1.109h-46.634c-0.729,0-1.364,0.512-1.51,1.215
			l-7.397,34.548C288.058,358.571,287.602,358.933,287.084,358.933"/>
		<path d="M288.194,325.623c0,0.613-0.496,1.11-1.111,1.11c-0.613,0-1.109-0.497-1.109-1.11c0-0.614,0.496-1.11,1.109-1.11
			C287.698,324.513,288.194,325.009,288.194,325.623"/>
	</g>
</g>
<path fill="#3B5999" stroke="#FAFDFF" stroke-width="2" stroke-miterlimit="10" d="M408.434,300.379h6.576v-11.453
	c-1.134-0.156-5.036-0.508-9.581-0.508c-20.806,0-15.145,23.562-15.974,27.013H378.99v12.805h10.463v32.218h12.829v-32.215h10.039
	l1.594-12.805h-11.637C402.842,306.958,399.993,300.379,408.434,300.379L408.434,300.379z"/>
</svg>
