<?xml version="1.0" encoding="utf-8"?>
<!-- Generator: Adobe Illustrator 16.0.0, SVG Export Plug-In . SVG Version: 6.00 Build 0)  -->
<!DOCTYPE svg PUBLIC "-//W3C//DTD SVG 1.1//EN" "http://www.w3.org/Graphics/SVG/1.1/DTD/svg11.dtd">
<svg version="1.1" id="Layer_1" xmlns="http://www.w3.org/2000/svg" xmlns:xlink="http://www.w3.org/1999/xlink" x="0px" y="0px"
	 width="512px" height="512px" viewBox="0 0 512 512" enable-background="new 0 0 512 512" xml:space="preserve">
<g id="Layer_1_1_">
	<g id="Layer_2" display="none">
	</g>
	<g id="shadows">
		<g opacity="0.9">
			<g>
				<path fill="#B7B7B7" d="M466.5,381.5c0,48.6-39.4,88-88,88h-246c-48.601,0-88-39.4-88-88V164.833c0-48.601,39.399-88,88-88h246
					c48.6,0,88,39.399,88,88V381.5z"/>
			</g>
		</g>
		<g>
			<g>
				<path fill="#FFFFFF" d="M466.5,360.5c0,48.6-39.4,88-88,88h-246c-48.601,0-88-39.4-88-88V143.833c0-48.601,39.399-88,88-88h246
					c48.6,0,88,39.399,88,88V360.5z"/>
			</g>
		</g>
	</g>
	<radialGradient id="SVGID_1_" cx="254.5" cy="254.3335" r="203.7987" gradientUnits="userSpaceOnUse">
		<stop  offset="0" style="stop-color:#482F92"/>
		<stop  offset="0.5" style="stop-color:#13007C"/>
		<stop  offset="1" style="stop-color:#251353"/>
	</radialGradient>
	<path fill="url(#SVGID_1_)" stroke="#E2E2E2" stroke-width="10" stroke-miterlimit="10" d="M465.5,362.667c0,48.6-39.399,88-88,88
		h-246c-48.601,0-88-39.4-88-88V146c0-48.601,39.399-88,88-88h246c48.601,0,88,39.399,88,88V362.667z"/>
</g>
<g id="Layer_2_1_">
</g>
<rect x="165.678" y="123.753" display="none" fill="#2B2B2B" width="181.061" height="62.091"/>
<g display="none">
	
		<image display="inline" overflow="visible" opacity="0.75" width="240" height="309" xlink:href="F101B1D3.png"  transform="matrix(1 0 0 1 139.5 94.5)">
	</image>
	<g display="inline">
		<g>
			<rect x="173.5" y="194.5" fill="#FFFFFF" width="170" height="170.333"/>
			<path fill="#277AFF" d="M327.856,383.007h-139.01c-19.195,0-34.752-15.559-34.752-34.753V139.739
				c0-19.195,15.558-34.752,34.752-34.752h139.01c19.194,0,34.753,15.558,34.753,34.752v208.515
				C362.609,367.448,347.051,383.007,327.856,383.007z M188.846,128.155c-6.395,0-11.584,5.189-11.584,11.584v208.515
				c0,6.395,5.189,11.584,11.584,11.584h139.01c6.395,0,11.584-5.189,11.584-11.584V139.739c0-6.395-5.189-11.584-11.584-11.584
				H188.846z"/>
			<path fill="#277AFF" d="M212.015,243.996c-1.518-0.023-3.012-0.336-4.402-0.927c-2.908-1.054-5.202-3.348-6.256-6.255
				c-0.59-1.39-0.903-2.885-0.927-4.402c-0.023-3.082,1.193-6.036,3.36-8.225c4.668-4.541,12.14-4.437,16.681,0.232
				c4.541,4.668,4.437,12.14-0.232,16.681l0,0C217.98,243.104,215.026,244.135,212.015,243.996z"/>
			<path fill="#277AFF" d="M212.015,290.333c-1.518-0.023-3.012-0.337-4.402-0.927c-1.553-0.336-3.024-1.008-4.286-1.97
				c-4.541-4.507-4.576-11.839-0.07-16.38c0.024-0.023,0.046-0.046,0.07-0.07c1.089-1.076,2.387-1.899,3.823-2.432
				c4.309-1.818,9.291-0.857,12.626,2.432c4.542,4.508,4.576,11.84,0.069,16.381c-0.023,0.023-0.046,0.046-0.069,0.069
				C217.633,289.325,214.876,290.355,212.015,290.333z"/>
			<path fill="#277AFF" d="M258.352,243.996c-1.518-0.023-3.012-0.336-4.402-0.927c-1.529-0.394-2.989-1.066-4.286-1.97
				c-1.054-1.101-1.876-2.397-2.433-3.823c-0.591-1.39-0.903-2.884-0.927-4.401c-0.023-3.082,1.193-6.036,3.359-8.225
				c4.542-4.506,11.874-4.472,16.38,0.069s4.472,11.874-0.07,16.38c-2.154,2.131-5.062,3.336-8.086,3.359L258.352,243.996z"/>
			<path fill="#277AFF" d="M258.352,290.102c-1.518-0.023-3.012-0.336-4.402-0.927c-1.401-0.591-2.699-1.413-3.823-2.433
				c-1.054-1.102-1.877-2.398-2.433-3.823c-0.591-1.39-0.904-2.884-0.927-4.402c-0.023-3.081,1.193-6.035,3.36-8.225
				c4.541-4.507,11.874-4.472,16.379,0.069c4.507,4.541,4.473,11.874-0.069,16.38C264.294,288.873,261.387,290.078,258.352,290.102z
				"/>
			<path fill="#277AFF" d="M212.015,336.67c-1.518-0.023-3.012-0.336-4.402-0.927c-1.553-0.337-3.024-1.008-4.286-1.97
				c-4.541-4.506-4.576-11.839-0.07-16.38c0.024-0.023,0.046-0.046,0.07-0.069c1.089-1.078,2.387-1.9,3.823-2.434
				c4.309-1.818,9.291-0.856,12.626,2.434c4.542,4.506,4.576,11.839,0.069,16.38c-0.023,0.023-0.046,0.046-0.069,0.069
				C217.633,335.662,214.876,336.692,212.015,336.67z"/>
			<path fill="#277AFF" d="M258.352,336.438c-1.518-0.023-3.012-0.337-4.402-0.928c-1.401-0.59-2.699-1.413-3.823-2.433
				c-1.054-1.101-1.877-2.397-2.433-3.822c-0.591-1.391-0.904-2.885-0.927-4.402c-0.023-3.082,1.193-6.035,3.36-8.225
				c4.541-4.507,11.874-4.473,16.379,0.069c4.507,4.541,4.473,11.874-0.069,16.38C264.294,335.21,261.387,336.415,258.352,336.438z"
				/>
			<path fill="#277AFF" d="M304.688,243.996c-1.518-0.023-3.012-0.336-4.402-0.927c-1.529-0.394-2.988-1.066-4.285-1.97
				c-1.055-1.101-1.877-2.397-2.434-3.823c-0.59-1.39-0.903-2.884-0.926-4.401c-0.023-3.082,1.192-6.036,3.359-8.225
				c1.123-1.02,2.421-1.842,3.822-2.433c4.31-1.819,9.291-0.857,12.627,2.433c2.166,2.189,3.383,5.143,3.359,8.225
				c-0.023,1.517-0.336,3.012-0.927,4.401c-0.557,1.425-1.379,2.722-2.433,3.823C310.283,242.942,307.537,243.973,304.688,243.996z"
				/>
			<path fill="#277AFF" d="M316.271,278.749v46.337c0,6.394-5.188,11.583-11.583,11.583s-11.585-5.189-11.585-11.583v-46.337
				c0-6.395,5.189-11.585,11.584-11.585S316.271,272.354,316.271,278.749z"/>
			<rect x="177.262" y="174.376" fill="#277AFF" width="162.179" height="23.168"/>
		</g>
	</g>
</g>
<rect x="293.271" y="143.5" fill="none" width="72" height="22"/>
<text transform="matrix(1 0 0 1 293.2715 157.8198)" display="none" fill="#FFFFFF" font-family="'ArialMT'" font-size="20">123</text>
<g display="none">
</g>
<line fill="none" stroke="#E2E2E2" stroke-width="10" stroke-miterlimit="10" x1="254.5" y1="106" x2="254.5" y2="418"/>
<line fill="none" stroke="#E2E2E2" stroke-width="10" stroke-miterlimit="10" x1="77.5" y1="252.167" x2="440" y2="252.167"/>
<rect x="98" y="83.167" fill="none" width="205.5" height="184"/>
<text transform="matrix(1 0 0 1 98 240.6841)" fill="#FFFFFF" font-family="'ArialMT'" font-size="220">+</text>
<rect x="294" y="330.5" fill="#FFFFFF" width="127.5" height="8.5"/>
<circle fill="#FFFFFF" cx="356.581" cy="362.254" r="12.5"/>
<circle fill="#FFFFFF" cx="356.25" cy="306" r="12.5"/>
<rect x="92.5" y="327.999" transform="matrix(0.7071 -0.7071 0.7071 0.7071 -189.1209 211.9207)" fill="#FFFFFF" width="137.501" height="12.5"/>
<rect x="92.5" y="328" transform="matrix(-0.7012 -0.713 0.713 -0.7012 36.0021 683.5888)" fill="#FFFFFF" width="137.5" height="12.5"/>
<rect x="297.833" y="159.167" fill="#FFFFFF" width="106" height="15.999"/>
</svg>
