<?xml version="1.0" encoding="utf-8"?>
<!-- Generator: Adobe Illustrator 16.0.0, SVG Export Plug-In . SVG Version: 6.00 Build 0)  -->
<!DOCTYPE svg PUBLIC "-//W3C//DTD SVG 1.1//EN" "http://www.w3.org/Graphics/SVG/1.1/DTD/svg11.dtd">
<svg version="1.1" id="Layer_1" xmlns="http://www.w3.org/2000/svg" xmlns:xlink="http://www.w3.org/1999/xlink" x="0px" y="0px"
	 width="512px" height="512px" viewBox="0 0 512 512" enable-background="new 0 0 512 512" xml:space="preserve">
<g id="Layer_1_1_">
	<g id="Layer_2" display="none">
	</g>
	<g id="shadows">
		<g opacity="0.9">
			<g>
				<path fill="#B7B7B7" d="M466.5,381.5c0,48.6-39.4,88-88,88h-246c-48.604,0-88-39.4-88-88V164.833c0-48.601,39.396-88,88-88h246
					c48.6,0,88,39.399,88,88V381.5z"/>
			</g>
		</g>
		<g>
			<g>
				<path fill="#FFFFFF" d="M466.5,360.5c0,48.6-39.4,88-88,88h-246c-48.604,0-88-39.4-88-88V143.833c0-48.601,39.396-88,88-88h246
					c48.6,0,88,39.399,88,88V360.5z"/>
			</g>
		</g>
	</g>
	
		<linearGradient id="SVGID_1_" gradientUnits="userSpaceOnUse" x1="68.5798" y1="-836.1694" x2="490.5803" y2="-836.1694" gradientTransform="matrix(1 0 0 -1 -25.0796 -581.8359)">
		<stop  offset="0" style="stop-color:#5B57A5"/>
		<stop  offset="0.5" style="stop-color:#2E3092"/>
		<stop  offset="1" style="stop-color:#474374"/>
	</linearGradient>
	<path fill="url(#SVGID_1_)" stroke="#E2E2E2" stroke-width="10" stroke-miterlimit="10" d="M465.5,362.667c0,48.6-39.399,88-88,88
		h-246c-48.604,0-88-39.4-88-88V146c0-48.601,39.396-88,88-88h246c48.601,0,88,39.399,88,88V362.667z"/>
</g>
<path id="rect4254-2" inkscape:connector-curvature="0" fill="#ECF0F1" d="M167.198,152.27v11.104v0.105
	c1.113-0.057,2.227-0.095,3.34-0.105c45.979,0,83.246,37.265,83.246,83.246l0,0c0,34.405-21.183,65.27-53.284,77.65v-16.603h-44.397
	v44.396H200.5v-16.065c0.499-0.19,0.998-0.383,1.497-0.585h110.232c2.535,9.788,11.355,16.641,21.471,16.65
	c12.254,0,22.197-9.934,22.197-22.198c0-12.255-9.943-22.198-22.197-22.198c-10.125,0-18.955,6.853-21.488,16.65h-88.409
	c25.663-17.553,41.028-46.613,41.085-77.698c-0.039-34.885-19.308-66.892-50.125-83.246h107.834V152.27H167.198z M167.198,318.762
	h22.198v22.208h-22.198V318.762z M333.699,318.762c6.121,0,11.096,4.971,11.096,11.104s-4.975,11.104-11.096,11.104
	c-6.133,0-11.104-4.972-11.104-11.104S327.567,318.762,333.699,318.762z"/>
</svg>
