<?xml version="1.0" encoding="utf-8"?>
<!-- Generator: Adobe Illustrator 16.0.0, SVG Export Plug-In . SVG Version: 6.00 Build 0)  -->
<!DOCTYPE svg PUBLIC "-//W3C//DTD SVG 1.1//EN" "http://www.w3.org/Graphics/SVG/1.1/DTD/svg11.dtd">
<svg version="1.1" xmlns="http://www.w3.org/2000/svg" xmlns:xlink="http://www.w3.org/1999/xlink" x="0px" y="0px" width="512px"
	 height="512px" viewBox="0 0 512 512" enable-background="new 0 0 512 512" xml:space="preserve">
<g id="Layer_1">
	<g id="Layer_1_1_">
		<g id="Layer_2" display="none">
		</g>
		<g id="shadows">
			<g opacity="0.9">
				<g>
					<path fill="#B7B7B7" d="M466.5,381.5c0,48.6-39.4,88-88,88h-246c-48.604,0-88-39.4-88-88V164.833c0-48.601,39.396-88,88-88h246
						c48.6,0,88,39.399,88,88V381.5z"/>
				</g>
			</g>
			<g>
				<g>
					<path fill="#FFFFFF" d="M466.5,360.5c0,48.6-39.4,88-88,88h-246c-48.604,0-88-39.4-88-88V143.833c0-48.601,39.396-88,88-88h246
						c48.6,0,88,39.399,88,88V360.5z"/>
				</g>
			</g>
		</g>
		
			<linearGradient id="SVGID_1_" gradientUnits="userSpaceOnUse" x1="68.5798" y1="-836.1694" x2="490.5803" y2="-836.1694" gradientTransform="matrix(1 0 0 -1 -25.0796 -581.8359)">
			<stop  offset="0" style="stop-color:#D471AD"/>
			<stop  offset="0.5" style="stop-color:#C7158C"/>
			<stop  offset="1" style="stop-color:#9D248E"/>
		</linearGradient>
		<path fill="url(#SVGID_1_)" stroke="#E2E2E2" stroke-width="10" stroke-miterlimit="10" d="M465.5,362.667c0,48.6-39.399,88-88,88
			h-246c-48.604,0-88-39.4-88-88V146c0-48.601,39.396-88,88-88h246c48.601,0,88,39.399,88,88V362.667z"/>
	</g>
	<linearGradient id="SVGID_2_" gradientUnits="userSpaceOnUse" x1="47.5002" y1="187.5" x2="47.5002" y2="187.5">
		<stop  offset="0" style="stop-color:#D471AD"/>
		<stop  offset="0.5" style="stop-color:#C7158C"/>
		<stop  offset="1" style="stop-color:#9D248E"/>
	</linearGradient>
	<path fill="url(#SVGID_2_)" stroke="#E2E2E2" stroke-width="10" stroke-miterlimit="10" d="M47.5,187.5"/>
	<linearGradient id="SVGID_3_" gradientUnits="userSpaceOnUse" x1="75.5002" y1="532.5" x2="75.5002" y2="532.5">
		<stop  offset="0" style="stop-color:#D471AD"/>
		<stop  offset="0.5" style="stop-color:#C7158C"/>
		<stop  offset="1" style="stop-color:#9D248E"/>
	</linearGradient>
	<path fill="url(#SVGID_3_)" stroke="#E2E2E2" stroke-width="10" stroke-miterlimit="10" d="M75.5,532.5"/>
</g>
<g id="Layer_2_1_">
	<linearGradient id="SVGID_4_" gradientUnits="userSpaceOnUse" x1="47.5002" y1="198.5" x2="47.5002" y2="198.5">
		<stop  offset="0" style="stop-color:#D471AD"/>
		<stop  offset="0.5" style="stop-color:#C7158C"/>
		<stop  offset="1" style="stop-color:#9D248E"/>
	</linearGradient>
	<path fill="url(#SVGID_4_)" stroke="#E2E2E2" stroke-width="10" stroke-miterlimit="10" d="M47.5,198.5"/>
	<linearGradient id="SVGID_5_" gradientUnits="userSpaceOnUse" x1="47.5002" y1="203.5" x2="458.5002" y2="203.5">
		<stop  offset="0" style="stop-color:#D471AD"/>
		<stop  offset="0.5" style="stop-color:#C7158C"/>
		<stop  offset="1" style="stop-color:#9D248E"/>
	</linearGradient>
	
		<line fill="url(#SVGID_5_)" stroke="#E2E2E2" stroke-width="10" stroke-miterlimit="10" x1="47.5" y1="203.5" x2="458.5" y2="203.5"/>
</g>
<g id="Layer_3">
	<linearGradient id="SVGID_6_" gradientUnits="userSpaceOnUse" x1="47.5002" y1="316.5" x2="458.5002" y2="316.5">
		<stop  offset="0" style="stop-color:#D471AD"/>
		<stop  offset="0.5" style="stop-color:#C7158C"/>
		<stop  offset="1" style="stop-color:#9D248E"/>
	</linearGradient>
	
		<line fill="url(#SVGID_6_)" stroke="#E2E2E2" stroke-width="10" stroke-miterlimit="10" x1="47.5" y1="316.5" x2="458.5" y2="316.5"/>
</g>
</svg>
