<?xml version="1.0" encoding="utf-8"?>
<!-- Generator: Adobe Illustrator 16.0.0, SVG Export Plug-In . SVG Version: 6.00 Build 0)  -->
<!DOCTYPE svg PUBLIC "-//W3C//DTD SVG 1.1//EN" "http://www.w3.org/Graphics/SVG/1.1/DTD/svg11.dtd">
<svg version="1.1" id="Layer_1" xmlns="http://www.w3.org/2000/svg" xmlns:xlink="http://www.w3.org/1999/xlink" x="0px" y="0px"
	 width="512px" height="512px" viewBox="0 0 512 512" enable-background="new 0 0 512 512" xml:space="preserve">
<g id="Layer_1_1_">
	<g id="Layer_2" display="none">
	</g>
	<g id="shadows">
		<g opacity="0.9">
			<g>
				<path fill="#B7B7B7" d="M466.5,381.5c0,48.6-39.4,88-88,88h-246c-48.603,0-88-39.4-88-88V164.833c0-48.601,39.397-88,88-88h246
					c48.6,0,88,39.399,88,88V381.5z"/>
			</g>
		</g>
		<g>
			<g>
				<path fill="#FFFFFF" d="M466.5,360.5c0,48.6-39.4,88-88,88h-246c-48.603,0-88-39.4-88-88V143.833c0-48.601,39.397-88,88-88h246
					c48.6,0,88,39.399,88,88V360.5z"/>
			</g>
		</g>
	</g>
	
		<radialGradient id="SVGID_1_" cx="271.22" cy="1372.2246" r="203.7985" gradientTransform="matrix(1 0 0 1 -16.7197 -1117.8906)" gradientUnits="userSpaceOnUse">
		<stop  offset="0" style="stop-color:#FFE7A3"/>
		<stop  offset="0.5" style="stop-color:#FFCA05"/>
		<stop  offset="1" style="stop-color:#FAAC18"/>
	</radialGradient>
	<path fill="url(#SVGID_1_)" stroke="#E2E2E2" stroke-width="10" stroke-miterlimit="10" d="M465.5,362.667c0,48.6-39.399,88-88,88
		h-246c-48.603,0-88-39.4-88-88V146c0-48.601,39.397-88,88-88h246c48.601,0,88,39.399,88,88V362.667z"/>
</g>
<g id="Page-1">
	<g id="_x30_21---Lightweight-Fabric">
		<path id="Shape" fill="#556080" d="M351.369,112.767c-19.792,0.218-39.436,3.454-58.253,9.594c-0.525,0.167-0.985,0.49-1.32,0.928
			c-6.679,8.245-11.7,17.703-14.788,27.854c-0.703,2.843-3.576,4.578-6.42,3.875c-2.842-0.703-4.577-3.577-3.874-6.419
			c1.172-4.527,2.826-8.914,4.935-13.087c0.498-0.992,0.325-2.189-0.434-3c-0.759-0.81-1.941-1.062-2.964-0.631
			c-12.826,5.774-25.106,12.693-36.69,20.672c-0.363,0.246-0.654,0.584-0.843,0.98c-7.477,15.396-11.524,32.231-11.863,49.343
			c0,2.928-2.373,5.301-5.3,5.301c-2.928,0-5.302-2.373-5.302-5.301c0.056-9.702,1.326-19.358,3.779-28.745
			c0.282-1.139-0.22-2.328-1.231-2.921c-1.013-0.594-2.295-0.451-3.151,0.351c-5.197,4.717-10.151,9.695-14.842,14.916
			c-0.289,0.328-0.494,0.72-0.599,1.145c-4.78,18.993-8.211,38.299-10.268,57.776c-0.063,1.017-0.711,1.906-1.661,2.277
			c-0.95,0.371-2.028,0.157-2.765-0.549c-5.584-4.862-9.508-11.349-11.222-18.552c-0.159-0.919-0.802-1.681-1.682-1.991
			c-0.88-0.31-1.858-0.12-2.559,0.496c-10.087,9.021-35.62,39.447-22.708,108.311l22.474,18.766
			c11.237,2.512,28.024,2.057,53.096-5.27c1.088-0.316,1.86-1.281,1.932-2.41c0.071-1.131-0.574-2.186-1.613-2.635
			c-7.627-3.453-13.402-10.018-15.854-18.022c-0.373-1.009-0.102-2.142,0.688-2.87c0.791-0.729,1.942-0.908,2.916-0.453
			c16.779,7.236,35.633,8.053,52.975,2.295c22.767-16.621,44.403-34.735,64.768-54.226c0.725-0.698,0.98-1.754,0.657-2.708
			c-0.323-0.953-1.167-1.635-2.168-1.75c-13.344-1.127-26.039-6.247-36.431-14.693c-0.854-0.774-1.109-2.01-0.633-3.06
			c0.477-1.048,1.577-1.669,2.722-1.535c13.22,2.215,40.284,4.86,55.894-6.838c8.132-6.313,15.734-13.278,22.735-20.826
			c0.809-0.837,0.978-2.104,0.415-3.124s-1.725-1.552-2.864-1.313c-11.886,2.625-24.016,3.986-36.188,4.061
			c-2.927,0-5.3-2.373-5.3-5.301c0-2.927,2.373-5.3,5.3-5.3c19.143-0.238,38.11-3.661,56.128-10.129
			c0.425-0.155,0.866-0.26,1.314-0.313c6.419-7.808,12.191-15.266,16.766-21.361c10.205-14.225,18.805-29.534,25.645-45.648
			c0.517-1.222,0.05-2.638-1.092-3.313C417.309,123.649,395.222,112.767,351.369,112.767z"/>
		<path id="Shape_1_" fill="#8697CB" d="M424.73,130.736c-0.08,0.173-0.15,0.35-0.212,0.53
			c-51.125,9.847-99.243,31.501-140.519,63.236c-41.652,32.144-78.462,70.113-109.298,112.744
			c-9.005,11.811-17.322,24.127-24.913,36.893l-10.442-8.748c-12.934-68.854,12.615-99.279,22.686-108.29
			c0.692-0.634,1.678-0.836,2.564-0.526c0.886,0.31,1.53,1.083,1.676,2.01c1.725,7.203,5.653,13.688,11.238,18.553
			c0.738,0.695,1.813,0.9,2.756,0.525c0.942-0.375,1.583-1.262,1.643-2.275c2.063-19.477,5.499-38.784,10.284-57.776
			c0.106-0.411,0.307-0.791,0.582-1.113c4.71-5.231,9.681-10.219,14.896-14.948c0.864-0.776,2.133-0.899,3.13-0.303
			c0.997,0.596,1.49,1.772,1.216,2.901c-2.454,9.38-3.719,19.033-3.764,28.729c0,2.928,2.374,5.301,5.302,5.301
			c2.927,0,5.3-2.373,5.3-5.301c0.328-17.117,4.381-33.956,11.874-49.349c0.191-0.388,0.484-0.718,0.848-0.954
			c11.571-7.994,23.849-14.914,36.68-20.672c1.019-0.465,2.221-0.229,2.988,0.586s0.931,2.03,0.404,3.018
			c-2.12,4.169-3.773,8.56-4.93,13.093c-0.539,1.866-0.014,3.878,1.368,5.243c1.383,1.365,3.401,1.864,5.261,1.301
			s3.261-2.098,3.654-4c3.063-10.153,8.088-19.607,14.789-27.828c0.316-0.463,0.785-0.801,1.325-0.954
			c18.821-6.125,38.462-9.359,58.253-9.594c43.836,0,65.939,10.866,72.247,14.629C424.781,128.067,425.258,129.501,424.73,130.736z"
			/>
		<path id="Shape_2_" fill="#2C2F38" d="M127.473,412.738c-1.657,1.326-3.946,1.535-5.817,0.533
			c-1.871-1.002-2.962-3.025-2.775-5.141c2.436-25.271,9.367-49.904,20.466-72.74c17.921-35.842,92.649-124.706,163.364-157.75
			c2.472-1.178,5.434-0.28,6.834,2.073c1.401,2.352,0.78,5.384-1.433,6.996c-39.055,27.86-104.544,83.845-147.563,169.884
			c-5.495,11.197-10.083,22.818-13.718,34.752c-1.555,5.104-4.617,9.619-8.783,12.953L127.473,412.738z"/>
	</g>
</g>
</svg>
