<?xml version="1.0" encoding="utf-8"?>
<!-- Generator: Adobe Illustrator 16.0.0, SVG Export Plug-In . SVG Version: 6.00 Build 0)  -->
<!DOCTYPE svg PUBLIC "-//W3C//DTD SVG 1.1//EN" "http://www.w3.org/Graphics/SVG/1.1/DTD/svg11.dtd">
<svg version="1.1" id="Layer_1" xmlns="http://www.w3.org/2000/svg" xmlns:xlink="http://www.w3.org/1999/xlink" x="0px" y="0px"
	 width="512px" height="512px" viewBox="0 0 512 512" enable-background="new 0 0 512 512" xml:space="preserve">
<g id="Layer_1_1_">
	<g id="Layer_2" display="none">
	</g>
	<g id="shadows">
		<g opacity="0.9">
			<g>
				<path fill="#B7B7B7" d="M466.5,381.5c0,48.6-39.4,88-88,88h-246c-48.601,0-88-39.4-88-88V164.833c0-48.601,39.399-88,88-88h246
					c48.6,0,88,39.399,88,88V381.5z"/>
			</g>
		</g>
		<g>
			<g>
				<path fill="#FFFFFF" d="M466.5,360.5c0,48.6-39.4,88-88,88h-246c-48.601,0-88-39.4-88-88V143.833c0-48.601,39.399-88,88-88h246
					c48.6,0,88,39.399,88,88V360.5z"/>
			</g>
		</g>
	</g>
	
		<radialGradient id="SVGID_1_" cx="254.5" cy="258.666" r="203.799" gradientTransform="matrix(1 0 0 -1 0 513)" gradientUnits="userSpaceOnUse">
		<stop  offset="0.0056" style="stop-color:#DBF2F7"/>
		<stop  offset="0.4494" style="stop-color:#B3E2EE"/>
		<stop  offset="1" style="stop-color:#9FD0E4"/>
	</radialGradient>
	<path fill="url(#SVGID_1_)" stroke="#E2E2E2" stroke-width="10" stroke-miterlimit="10" d="M465.5,362.667c0,48.6-39.399,88-88,88
		h-246c-48.601,0-88-39.4-88-88V146c0-48.601,39.399-88,88-88h246c48.601,0,88,39.399,88,88V362.667z"/>
</g>
<g>
	
		<image overflow="visible" opacity="0.75" width="189" height="189" xlink:href="6641F740.png"  transform="matrix(1 0 0 1 69.5 69.5)">
	</image>
	<g>
		<radialGradient id="SVGID_2_" cx="163.5493" cy="163.5493" r="71.0493" gradientUnits="userSpaceOnUse">
			<stop  offset="0" style="stop-color:#10006B"/>
			<stop  offset="0.086" style="stop-color:#12046D"/>
			<stop  offset="0.1761" style="stop-color:#191174"/>
			<stop  offset="0.2681" style="stop-color:#25267F"/>
			<stop  offset="0.3615" style="stop-color:#35438F"/>
			<stop  offset="0.455" style="stop-color:#4A69A3"/>
			<stop  offset="0.4888" style="stop-color:#5378AB"/>
			<stop  offset="0.5719" style="stop-color:#415B8E"/>
			<stop  offset="0.7018" style="stop-color:#283466"/>
			<stop  offset="0.8208" style="stop-color:#17174A"/>
			<stop  offset="0.9241" style="stop-color:#0C0638"/>
			<stop  offset="1" style="stop-color:#080032"/>
		</radialGradient>
		<circle fill="url(#SVGID_2_)" cx="163.549" cy="163.549" r="71.049"/>
		<circle fill="none" stroke="#E2E2E2" stroke-width="10" stroke-miterlimit="10" cx="163.549" cy="163.549" r="71.049"/>
	</g>
</g>
<g>
	
		<image overflow="visible" opacity="0.75" width="189" height="189" xlink:href="6641F741.png"  transform="matrix(1 0 0 1 69.5 249.2656)">
	</image>
	<g>
		<radialGradient id="SVGID_3_" cx="163.5493" cy="344.2168" r="71.0491" gradientUnits="userSpaceOnUse">
			<stop  offset="0" style="stop-color:#10006B"/>
			<stop  offset="0.086" style="stop-color:#12046D"/>
			<stop  offset="0.1761" style="stop-color:#191174"/>
			<stop  offset="0.2681" style="stop-color:#25267F"/>
			<stop  offset="0.3615" style="stop-color:#35438F"/>
			<stop  offset="0.455" style="stop-color:#4A69A3"/>
			<stop  offset="0.4888" style="stop-color:#5378AB"/>
			<stop  offset="0.5719" style="stop-color:#415B8E"/>
			<stop  offset="0.7018" style="stop-color:#283466"/>
			<stop  offset="0.8208" style="stop-color:#17174A"/>
			<stop  offset="0.9241" style="stop-color:#0C0638"/>
			<stop  offset="1" style="stop-color:#080032"/>
		</radialGradient>
		<circle fill="url(#SVGID_3_)" cx="163.549" cy="344.217" r="71.049"/>
		<circle fill="none" stroke="#E2E2E2" stroke-width="10" stroke-miterlimit="10" cx="163.549" cy="344.217" r="71.049"/>
	</g>
</g>
<g>
	
		<image overflow="visible" opacity="0.75" width="189" height="189" xlink:href="6641F747.png"  transform="matrix(1 0 0 1 239.9863 159.5796)">
	</image>
	<g>
		<radialGradient id="SVGID_4_" cx="334.0488" cy="254.333" r="71.0498" gradientUnits="userSpaceOnUse">
			<stop  offset="0" style="stop-color:#10006B"/>
			<stop  offset="0.086" style="stop-color:#12046D"/>
			<stop  offset="0.1761" style="stop-color:#191174"/>
			<stop  offset="0.2681" style="stop-color:#25267F"/>
			<stop  offset="0.3615" style="stop-color:#35438F"/>
			<stop  offset="0.455" style="stop-color:#4A69A3"/>
			<stop  offset="0.4888" style="stop-color:#5378AB"/>
			<stop  offset="0.5719" style="stop-color:#415B8E"/>
			<stop  offset="0.7018" style="stop-color:#283466"/>
			<stop  offset="0.8208" style="stop-color:#17174A"/>
			<stop  offset="0.9241" style="stop-color:#0C0638"/>
			<stop  offset="1" style="stop-color:#080032"/>
		</radialGradient>
		<circle fill="url(#SVGID_4_)" cx="334.049" cy="254.333" r="71.049"/>
		<circle fill="none" stroke="#E2E2E2" stroke-width="10" stroke-miterlimit="10" cx="334.049" cy="254.333" r="71.049"/>
	</g>
</g>
</svg>
