<?xml version="1.0" encoding="utf-8"?>
<!-- Generator: Adobe Illustrator 16.0.0, SVG Export Plug-In . SVG Version: 6.00 Build 0)  -->
<!DOCTYPE svg PUBLIC "-//W3C//DTD SVG 1.1//EN" "http://www.w3.org/Graphics/SVG/1.1/DTD/svg11.dtd">
<svg version="1.1" xmlns="http://www.w3.org/2000/svg" xmlns:xlink="http://www.w3.org/1999/xlink" x="0px" y="0px" width="512px"
	 height="512px" viewBox="0 0 512 512" enable-background="new 0 0 512 512" xml:space="preserve">
<g id="Layer_1">
	<g id="Layer_1_1_">
		<g id="Layer_2" display="none">
		</g>
		<g id="shadows">
			<g opacity="0.9">
				<g>
					<path fill="#B7B7B7" d="M466.5,381.5c0,48.6-39.4,88-88,88h-246c-48.601,0-88-39.4-88-88V164.833c0-48.601,39.399-88,88-88h246
						c48.6,0,88,39.399,88,88V381.5z"/>
				</g>
			</g>
			<g>
				<g>
					<path fill="#FFFFFF" d="M466.5,360.5c0,48.6-39.4,88-88,88h-246c-48.601,0-88-39.4-88-88V143.833c0-48.601,39.399-88,88-88h246
						c48.6,0,88,39.399,88,88V360.5z"/>
				</g>
			</g>
		</g>
		
			<linearGradient id="SVGID_1_" gradientUnits="userSpaceOnUse" x1="277" y1="82.6665" x2="699" y2="82.6665" gradientTransform="matrix(1 0 0 -1 -233.5 337)">
			<stop  offset="0" style="stop-color:#FB6040"/>
			<stop  offset="0.5" style="stop-color:#FE0000"/>
			<stop  offset="1" style="stop-color:#D50000"/>
		</linearGradient>
		<path fill="url(#SVGID_1_)" stroke="#E2E2E2" stroke-width="7" stroke-miterlimit="10" d="M465.5,362.667c0,48.6-39.399,88-88,88
			h-246c-48.601,0-88-39.4-88-88V146c0-48.601,39.399-88,88-88h246c48.601,0,88,39.399,88,88V362.667z"/>
	</g>
</g>
<g id="Layer_2_1_">
	<path fill="#303C42" d="M312.014,163.601c-9.537-27.429-43.461-55.736-61.889-55.736c-7.08,0-17.625,4.693-17.625,17.625
		c0,2.013,0.323,4.024,0.81,6.03c-27.604,0.5-47.809,2.994-47.809,17.471c0,8.038,7.459,14.13,23.764,19.047
		c-28,14.205-47.144,38.509-58.401,65.685l-0.728-3.635c-0.425-2.123-1.986-3.844-4.062-4.469c-2.02-0.631-4.327-0.063-5.852,1.468
		l-5.875,5.875c-1.79,1.79-2.238,4.521-1.102,6.782l4.838,9.676l-15.027-6.011c-1.802-0.717-3.855-0.499-5.474,0.591
		c-1.617,1.096-2.581,2.914-2.581,4.865v11.75c0,3.247,2.628,5.874,5.875,5.874h11.757l-9.406,7.052
		c-1.365,1.021-2.214,2.583-2.341,4.279c-0.114,1.699,0.505,3.368,1.71,4.574l5.875,5.874c1.102,1.107,2.604,1.722,4.154,1.722
		c0.138,0,0.275-0.006,0.413-0.019c1.698-0.119,3.259-0.968,4.292-2.328l1.534-2.044c-0.223,3.448-0.363,6.878-0.363,10.266
		c0,57.103,53.035,93.999,135.124,93.999c77.26,0,123.375-41.726,123.375-111.624C397,230.841,361.4,183.103,312.014,163.601z"/>
	<path fill="#FFFFFF" d="M355.875,272.365c0,2.812-0.516,5.559-1.561,8.209c-7.439-1.557-14.795-2.158-22-2.031
		c0.006-0.106,0.061-0.195,0.061-0.303c0-3.246-2.629-5.875-5.875-5.875c-3.244,0-5.875,2.629-5.875,5.875
		c0,0.013,0.008,0.025,0.008,0.04c-0.906-0.007-1.809,0.161-2.635,0.578c-1.352,0.676-5.49,2.799-10.813,5.896
		c-10.336-1.011-21.074-0.58-32,1.697c-1.033-2.652-1.561-5.4-1.561-8.211c0-8.171,4.357-15.431,11.277-19.712l33.543,13.418
		c0.699,0.281,1.434,0.419,2.18,0.419c0.631,0,1.252-0.097,1.859-0.305l30.506-10.17
		C354.703,265.187,355.875,268.678,355.875,272.365z"/>
	<path fill="#FDD835" d="M282.449,318.813c5.67-7.539,19.221-18.308,38.256-28.153c7.092,3.58,27.965,15.428,37.213,34.971
		c-1.617-0.563-6.139-1.951-6.701-2.021C328.336,317.667,297.664,318.102,282.449,318.813z"/>
	<path opacity="0.2" fill="#FFFFFF" enable-background="new    " d="M320.705,296.612c6.162,3.11,22.705,12.476,33.01,27.688
		c1.521,0.456,3.297,1.015,4.203,1.331c-9.248-19.543-30.121-31.391-37.213-34.971c-19.037,9.846-32.588,20.614-38.256,28.153
		c1.688-0.078,3.629-0.15,5.662-0.214C295.205,311.922,306.408,304.008,320.705,296.612z"/>
	<path fill="#FDD835" d="M340.27,333.191c-6.539,6.666-17.475,14.848-25.715,20.392c-13.482-7.993-25.656-17.011-31.475-23.053
		C298.318,329.818,321.613,329.853,340.27,333.191z"/>
	<path opacity="0.1" enable-background="new    " d="M334.84,338.232c1.994-1.727,3.85-3.43,5.43-5.041
		c-18.656-3.339-41.951-3.373-57.189-2.661c1.611,1.671,3.791,3.602,6.268,5.644C302.635,335.805,319.756,336.105,334.84,338.232z"
		/>
	<g>
		<path fill="#E53935" d="M273.625,378.115c-56.913,0-123.375-21.544-123.375-82.25c0-48.916,24.705-106.14,79.887-123.708
			c2.766-0.878,4.979-3.585,4.532-6.448c-0.437-2.863-2.398-4.917-5.29-4.917c-29.834-5.794-32.118-11.79-32.129-11.801
			c0-1.622,4.215-5.345,41.411-5.799c7.249,11.087,19.836,21.192,31.993,28.237c2.789,1.607,6.391,0.677,8.031-2.14
			c1.629-2.806,0.666-6.397-2.133-8.026c-19.025-11.016-32.302-25.726-32.302-35.772c0-4.733,3.236-5.807,5.875-5.875
			c13.034,0,44.614,25.721,51.565,50.036c0.529,1.861,2.006,2.98,3.689,3.613l-0.096,0.259c27.1,10.038,50.168,30.049,64.477,53.598
			l-49.113,26.788l-50.041-27.803c-1.412-0.774-3.074-0.947-4.59-0.476c-1.537,0.47-2.799,1.549-3.521,2.983l-5.875,11.75
			c-0.734,1.468-0.815,3.178-0.24,4.715c0.584,1.539,1.789,2.754,3.314,3.369l12.545,5.018
			c-6.523,6.475-10.365,15.255-10.365,24.775c0,6.226,1.756,12.445,5.07,17.987c1.08,1.807,3.008,2.861,5.039,2.861
			c0.469,0,0.963-0.057,1.434-0.178c5.447-1.37,10.844-2.192,16.168-2.609c-11.398,8.52-21.836,19.006-21.836,28.938
			c0,13.683,30.832,32.776,44.086,40.35c0.906,0.517,1.904,0.775,2.914,0.775c1.113,0,2.215-0.316,3.18-0.937
			c2.867-1.848,25.748-16.793,35.146-29.104c4.395,1.457,8.17,3.224,11.027,5.363c0.33,0.25,0.75,0.233,1.115,0.402
			C346.553,365.412,315.383,378.115,273.625,378.115z"/>
		<path fill="#E53935" d="M372.395,331.581c-4.672-18.674-17.9-32.282-29.563-40.997c4.377,0.511,8.807,1.334,13.25,2.453
			c0.471,0.12,0.953,0.178,1.436,0.178c2.029,0,3.957-1.057,5.035-2.864c3.318-5.542,5.072-11.761,5.072-17.985
			c0-4.978-1.162-9.789-3.205-14.283l16.814-5.606c2.576,8.517,4.016,17.181,4.016,25.765
			C385.25,299.065,380.789,316.913,372.395,331.581z"/>
	</g>
	<g>
		<path opacity="0.2" fill="#FFFFFF" enable-background="new    " d="M267.744,258.954c1.313-1.964,2.803-3.812,4.496-5.49
			l-4.49-1.796l4.125,1.796C270.32,255.143,268.949,256.99,267.744,258.954z"/>
		<path opacity="0.2" fill="#FFFFFF" enable-background="new    " d="M268.313,225.404c-0.188-0.021-0.373,0.055-0.563,0.055
			C267.939,225.458,268.125,225.386,268.313,225.404z"/>
		<path opacity="0.2" fill="#FFFFFF" enable-background="new    " d="M270.418,171.428c0.746,0.468,1.553,0.66,2.361,0.714
			c-0.729-0.101-1.453-0.326-2.125-0.714c-0.969-0.562-1.934-1.258-2.904-1.857C268.643,170.17,269.527,170.867,270.418,171.428z"/>
		<path opacity="0.2" fill="#FFFFFF" enable-background="new    " d="M271.641,299.089c0.074,0,0.152-0.027,0.227-0.031
			c-1.607-0.032-3.031-0.844-4.117-2.049C268.773,298.244,270.121,299.089,271.641,299.089z"/>
		<path opacity="0.2" fill="#FFFFFF" enable-background="new    " d="M289.586,296.302c-0.684,0.053-1.375,0.176-2.063,0.241
			c-10.355,8.478-19.771,18.855-19.771,28.695C267.75,315.308,278.189,304.821,289.586,296.302z"/>
	</g>
	<circle fill="#303C42" cx="297.125" cy="278.239" r="5.875"/>
	
		<linearGradient id="SVGID_2_" gradientUnits="userSpaceOnUse" x1="84.7212" y1="-225.5552" x2="88.4661" y2="-221.8092" gradientTransform="matrix(10.8333 0 0 10.8333 -614.4619 2767.0015)">
		<stop  offset="0" style="stop-color:#000000;stop-opacity:0.1"/>
		<stop  offset="1" style="stop-color:#000000;stop-opacity:0"/>
	</linearGradient>
	<path fill="url(#SVGID_2_)" d="M353.076,336.324c-9.398,12.312-32.279,27.257-35.148,29.104c-0.963,0.62-2.064,0.937-3.178,0.937
		c-1.01,0-2.008-0.259-2.916-0.775c-7.381-4.218-20.215-12.016-30.139-20.46l28.932,28.934c23.482-5.413,41.961-16.193,54.59-31.974
		c-0.365-0.169-0.785-0.152-1.115-0.4C361.246,339.548,357.471,337.781,353.076,336.324z"/>
	<path opacity="0.1" enable-background="new    " d="M151.236,307.816c8.188,51.579,69.396,70.299,122.389,70.299
		c41.758,0,72.928-12.701,91.592-36.027c-0.365-0.167-0.785-0.152-1.113-0.4c-2.857-2.14-6.633-3.906-11.027-5.363
		c-9.398,12.312-32.279,27.257-35.148,29.104c-0.963,0.62-2.064,0.937-3.178,0.937c-1.01,0-2.008-0.259-2.916-0.775
		c-8.422-4.813-23.926-14.282-34.123-24.057c-6.902,0.828-14.096,1.332-21.711,1.332
		C208.615,342.865,171.882,329.935,151.236,307.816z"/>
	<path opacity="0.1" enable-background="new    " d="M367.625,272.365c0,6.225-1.756,12.443-5.072,17.985
		c-1.078,1.808-3.006,2.864-5.035,2.864c-0.318,0-0.631-0.065-0.945-0.118c-1.107,2.147-2.348,4.186-3.615,6.202
		c8.381,8.232,16.1,18.94,19.438,32.282c8.395-14.668,12.855-32.516,12.855-53.341c0-8.584-1.439-17.248-4.016-25.764l-14.434,4.811
		c-0.203,1.91-0.445,3.794-0.73,5.647C366.98,265.996,367.625,269.122,367.625,272.365z"/>
	
		<linearGradient id="SVGID_3_" gradientUnits="userSpaceOnUse" x1="69.3691" y1="-236.9238" x2="92.8687" y2="-225.9663" gradientTransform="matrix(10.8333 0 0 10.8333 -614.4619 2767.0015)">
		<stop  offset="0" style="stop-color:#FFFFFF;stop-opacity:0.2"/>
		<stop  offset="1" style="stop-color:#FFFFFF;stop-opacity:0"/>
	</linearGradient>
	<path fill="url(#SVGID_3_)" d="M312.014,163.601c-9.537-27.429-43.461-55.736-61.889-55.736c-7.08,0-17.625,4.693-17.625,17.625
		c0,2.013,0.323,4.024,0.81,6.03c-27.604,0.5-47.809,2.994-47.809,17.471c0,8.038,7.459,14.13,23.764,19.047
		c-28,14.205-47.144,38.509-58.401,65.685l-0.728-3.635c-0.425-2.123-1.986-3.844-4.062-4.469c-2.02-0.631-4.327-0.063-5.852,1.468
		l-5.875,5.875c-1.79,1.79-2.238,4.521-1.102,6.782l4.838,9.676l-15.027-6.011c-1.802-0.717-3.855-0.499-5.474,0.591
		c-1.617,1.096-2.581,2.914-2.581,4.865v11.75c0,3.247,2.628,5.874,5.875,5.874h11.757l-9.406,7.052
		c-1.365,1.021-2.214,2.583-2.341,4.279c-0.114,1.699,0.505,3.368,1.71,4.574l5.875,5.874c1.102,1.107,2.604,1.722,4.154,1.722
		c0.138,0,0.275-0.006,0.413-0.019c1.698-0.119,3.259-0.968,4.292-2.328l1.534-2.044c-0.223,3.448-0.363,6.878-0.363,10.266
		c0,57.103,53.035,93.999,135.124,93.999c77.26,0,123.375-41.726,123.375-111.624C397,230.841,361.4,183.103,312.014,163.601z"/>
</g>
</svg>
