<?xml version="1.0" encoding="utf-8"?>
<!-- Generator: Adobe Illustrator 16.0.0, SVG Export Plug-In . SVG Version: 6.00 Build 0)  -->
<!DOCTYPE svg PUBLIC "-//W3C//DTD SVG 1.1//EN" "http://www.w3.org/Graphics/SVG/1.1/DTD/svg11.dtd">
<svg version="1.1" id="Layer_1" xmlns="http://www.w3.org/2000/svg" xmlns:xlink="http://www.w3.org/1999/xlink" x="0px" y="0px"
	 width="512px" height="512px" viewBox="0 0 512 512" enable-background="new 0 0 512 512" xml:space="preserve">
<g id="Layer_1_1_">
	<g id="Layer_2" display="none">
	</g>
	<g id="shadows">
		<g opacity="0.9">
			<g>
				<path fill="#B7B7B7" d="M466.5,381.5c0,48.6-39.4,88-88,88h-246c-48.602,0-88-39.4-88-88V164.833c0-48.601,39.398-88,88-88h246
					c48.6,0,88,39.399,88,88V381.5z"/>
			</g>
		</g>
		<g>
			<g>
				<path fill="#FFFFFF" d="M466.5,360.5c0,48.6-39.4,88-88,88h-246c-48.602,0-88-39.4-88-88V143.833c0-48.601,39.398-88,88-88h246
					c48.6,0,88,39.399,88,88V360.5z"/>
			</g>
		</g>
	</g>
	<radialGradient id="SVGID_1_" cx="254.5002" cy="254.3335" r="203.7987" gradientUnits="userSpaceOnUse">
		<stop  offset="0" style="stop-color:#B07EB7"/>
		<stop  offset="0.5" style="stop-color:#8C3D96"/>
		<stop  offset="1" style="stop-color:#762A90"/>
	</radialGradient>
	<path fill="url(#SVGID_1_)" stroke="#E2E2E2" stroke-width="10" stroke-miterlimit="10" d="M465.5,362.667c0,48.6-39.399,88-88,88
		h-246c-48.602,0-88-39.4-88-88V146c0-48.601,39.398-88,88-88h246c48.601,0,88,39.399,88,88V362.667z"/>
</g>
<g id="layer1" transform="translate(0,-540.36218)" inkscape:label="Capa 1" inkscape:groupmode="layer">
	<path id="rect3766" inkscape:connector-curvature="0" fill="#0B6790" d="M217.118,793.473c-8.435,0-15.213,6.798-15.213,15.233
		v60.893c0,8.434,6.778,15.232,15.213,15.232h15.233c8.435,0,15.213-6.799,15.213-15.232V832.72
		c-8.099-3.078-13.891-10.941-13.891-20.088v-19.1c-0.436-0.038-0.875-0.059-1.322-0.059H217.118z M279.588,793.473
		c-1.025,0-2.01,0.084-2.979,0.276v18.883c0,8.512-5.012,15.891-12.233,19.357v37.609c0,8.434,6.778,15.232,15.212,15.232h15.234
		c8.434,0,15.213-6.799,15.213-15.232v-60.893c0-8.435-6.779-15.233-15.213-15.233H279.588z M243.44,798.248v14.384
		c0,3.643,1.596,6.83,4.124,8.959v-12.885C247.564,804.655,246,800.971,243.44,798.248L243.44,798.248z M266.842,800.359
		c-1.566,2.394-2.466,5.261-2.466,8.347v11.168c1.543-1.98,2.466-4.479,2.466-7.242V800.359z"/>
	<path id="path2985" inkscape:connector-curvature="0" fill="#0E7EB0" d="M255.99,636.113c-6.62,33.864-18.76,65.515-34.136,95.876
		v-24.092c0-5.817-4.681-10.498-10.498-10.498s-10.497,4.681-10.497,10.498v61.858c-12.137,20.195-25.328,39.968-38.852,59.609
		l93.982,25.85l94.001-25.85c-14.819-19.414-28.646-39.292-41.002-59.826v-61.642c0-5.817-4.681-10.498-10.498-10.498
		c-5.816,0-10.497,4.681-10.497,10.498v23.007C273.522,701.037,262.429,669.632,255.99,636.113z M255.142,770.663
		c11.81,0,21.468,9.658,21.468,21.468v20.5c0,11.811-9.658,21.469-21.468,21.469c-11.811,0-21.469-9.658-21.469-21.469v-20.5
		C233.673,780.321,243.331,770.663,255.142,770.663z M255.142,780.43c-6.564,0-11.702,5.137-11.702,11.701v20.5
		c0,6.564,5.137,11.701,11.702,11.701c6.563,0,11.7-5.137,11.7-11.701v-20.5C266.842,785.567,261.705,780.43,255.142,780.43z"/>
	<path id="path3773" inkscape:connector-curvature="0" sodipodi:nodetypes="acacaaa" fill="#F85C59" d="M273.242,903.714
		c-2.617,6.924,9.381,19.959,9.381,19.959s-1.035-16.654,3.752-15.756c8.656,1.623-1.877,29.412-1.877,29.412
		s15.958-16.617,18.291-27.838c1.01-4.85,1.436-12.084-2.344-14.705C292.412,889.214,276.928,893.97,273.242,903.714z"/>
	<path id="path3775" inkscape:connector-curvature="0" sodipodi:nodetypes="acacaaa" fill="#F85C59" d="M273.242,903.714
		c-2.617,6.924,9.381,19.959,9.381,19.959s-1.035-16.654,3.752-15.756c8.656,1.623-1.877,29.412-1.877,29.412
		s15.958-16.617,18.291-27.838c1.01-4.85,1.436-12.084-2.344-14.705C292.412,889.214,276.928,893.97,273.242,903.714z"/>
	<path id="path3777" inkscape:connector-curvature="0" sodipodi:nodetypes="acacaaa" fill="#F85C59" d="M238.524,903.714
		c2.618,6.924-9.38,19.959-9.38,19.959s1.035-16.654-3.752-15.756c-8.656,1.623,1.876,29.412,1.876,29.412
		s-15.958-16.617-18.292-27.838c-1.009-4.85-1.436-12.084,2.345-14.705C219.355,889.214,234.839,893.97,238.524,903.714z"/>
	<g>
		<defs>
			<path id="SVGID_2_" d="M255.99,636.113c-6.62,33.864-18.76,65.515-34.136,95.876v-24.093c0-5.816-4.681-10.497-10.498-10.497
				s-10.497,4.681-10.497,10.497v61.859c-12.137,20.195-25.328,39.968-38.852,59.609l93.982,25.85l94.001-25.85
				c-14.819-19.414-28.646-39.292-41.002-59.826v-61.642c0-5.817-4.681-10.498-10.498-10.498c-5.816,0-10.497,4.681-10.497,10.498
				v23.007C273.522,701.037,262.429,669.632,255.99,636.113z M255.142,770.663c11.81,0,21.468,9.658,21.468,21.468v20.501
				c0,11.811-9.658,21.469-21.468,21.469c-11.811,0-21.469-9.658-21.469-21.469v-20.501
				C233.673,780.321,243.331,770.663,255.142,770.663z M255.142,780.43c-6.564,0-11.702,5.137-11.702,11.701v20.501
				c0,6.564,5.137,11.701,11.702,11.701c6.563,0,11.7-5.137,11.7-11.701v-20.501C266.842,785.567,261.705,780.43,255.142,780.43z"/>
		</defs>
		<clipPath id="SVGID_3_">
			<use xlink:href="#SVGID_2_"  overflow="visible"/>
		</clipPath>
		<path id="path3784" inkscape:connector-curvature="0" sodipodi:nodetypes="cccc" clip-path="url(#SVGID_3_)" fill="#108DC4" d="
			M220.799,663.276l33.599,191.619l39.374-200.019C255.766,590.246,240.092,635.681,220.799,663.276z"/>
	</g>
</g>
</svg>
