<?xml version="1.0" encoding="utf-8"?>
<!-- Generator: Adobe Illustrator 16.0.0, SVG Export Plug-In . SVG Version: 6.00 Build 0)  -->
<!DOCTYPE svg PUBLIC "-//W3C//DTD SVG 1.1//EN" "http://www.w3.org/Graphics/SVG/1.1/DTD/svg11.dtd">
<svg version="1.1" id="Layer_1" xmlns="http://www.w3.org/2000/svg" xmlns:xlink="http://www.w3.org/1999/xlink" x="0px" y="0px"
	 width="512px" height="512px" viewBox="0 0 512 512" enable-background="new 0 0 512 512" xml:space="preserve">
<g id="Layer_1_1_">
	<g id="Layer_2" display="none">
	</g>
	<g id="shadows">
		<g opacity="0.9">
			<g>
				<path fill="#B7B7B7" d="M466.5,381.5c0,48.6-39.4,88-88,88h-246c-48.602,0-88-39.4-88-88V164.833c0-48.601,39.398-88,88-88h246
					c48.6,0,88,39.399,88,88V381.5z"/>
			</g>
		</g>
		<g>
			<g>
				<path fill="#FFFFFF" d="M466.5,360.5c0,48.6-39.4,88-88,88h-246c-48.602,0-88-39.4-88-88V143.833c0-48.601,39.398-88,88-88h246
					c48.6,0,88,39.399,88,88V360.5z"/>
			</g>
		</g>
	</g>
	<radialGradient id="SVGID_1_" cx="254.5002" cy="254.3335" r="203.7987" gradientUnits="userSpaceOnUse">
		<stop  offset="0" style="stop-color:#D471AD"/>
		<stop  offset="0.5" style="stop-color:#C7158C"/>
		<stop  offset="1" style="stop-color:#9D248E"/>
	</radialGradient>
	<path fill="url(#SVGID_1_)" stroke="#E2E2E2" stroke-width="10" stroke-miterlimit="10" d="M465.5,362.667c0,48.6-39.399,88-88,88
		h-246c-48.602,0-88-39.4-88-88V146c0-48.601,39.398-88,88-88h246c48.601,0,88,39.399,88,88V362.667z"/>
</g>
<circle fill="#E8AF2A" cx="260.64" cy="256" r="146.64"/>
<path fill="#4C4C4C" d="M393.652,238.532c-7.579-59.719-55.806-107.946-115.525-115.543
	c-87.608-11.145-161.633,62.881-150.498,150.49c7.589,59.719,55.806,107.936,115.525,115.533
	C330.761,400.147,404.786,326.15,393.652,238.532z M167.615,179.894c1.742-2.125,4.995-2.208,6.938-0.275l61.534,61.534
	c2.941,2.942,0.861,7.974-3.3,7.974h-87.059c-2.749,0-4.995-2.383-4.72-5.114C143.41,219.817,152.988,197.738,167.615,179.894z
	 M167.615,332.106c-14.627-17.845-24.195-39.913-26.606-64.118c-0.275-2.731,1.971-5.114,4.72-5.114h87.04
	c4.162,0,6.251,5.032,3.3,7.974l-61.525,61.524C172.601,334.315,169.347,334.232,167.615,332.106z M253.767,370.912
	c0,2.748-2.384,4.984-5.115,4.72c-24.195-2.411-46.264-11.979-64.109-26.598c-2.126-1.741-2.208-4.995-0.266-6.938l61.525-61.525
	c2.942-2.941,7.974-0.861,7.974,3.301v87.04H253.767z M253.767,228.121c0,4.161-5.032,6.25-7.975,3.299l-61.524-61.515
	c-1.943-1.943-1.852-5.197,0.266-6.938c17.844-14.618,39.914-24.186,64.109-26.597c2.731-0.275,5.114,1.97,5.114,4.72v87.031
	H253.767z M267.514,141.09c0-2.75,2.382-4.995,5.113-4.72c24.195,2.411,46.274,11.979,64.119,26.606
	c2.126,1.741,2.208,4.995,0.266,6.938l-61.525,61.525c-2.941,2.942-7.973,0.861-7.973-3.3V141.09z M336.746,349.025
	c-17.845,14.627-39.924,24.195-64.119,26.597c-2.731,0.274-5.113-1.971-5.113-4.72v-87.04c0-4.161,5.031-6.251,7.973-3.3
	l61.534,61.534C338.954,344.03,338.872,347.284,336.746,349.025z M353.673,332.106c-1.74,2.126-4.994,2.209-6.938,0.266
	l-61.524-61.524c-2.941-2.941-0.861-7.974,3.299-7.974h87.031c2.75,0,4.995,2.383,4.721,5.114
	C377.86,292.193,368.291,314.262,353.673,332.106z M375.551,249.127H288.51c-4.16,0-6.25-5.032-3.299-7.974l61.524-61.525
	c1.943-1.943,5.197-1.851,6.938,0.266c14.628,17.844,24.195,39.923,26.606,64.119C380.545,246.744,378.3,249.127,375.551,249.127z"
	/>
</svg>
