<?xml version="1.0" encoding="utf-8"?>
<!-- Generator: Adobe Illustrator 16.0.0, SVG Export Plug-In . SVG Version: 6.00 Build 0)  -->
<!DOCTYPE svg PUBLIC "-//W3C//DTD SVG 1.1//EN" "http://www.w3.org/Graphics/SVG/1.1/DTD/svg11.dtd">
<svg version="1.1" id="Layer_1" xmlns="http://www.w3.org/2000/svg" xmlns:xlink="http://www.w3.org/1999/xlink" x="0px" y="0px"
	 width="512px" height="512px" viewBox="0 0 512 512" enable-background="new 0 0 512 512" xml:space="preserve">
<g id="Layer_1_1_">
	<g id="Layer_2" display="none">
	</g>
	<g id="shadows">
		<g opacity="0.9">
			<g>
				<path fill="#B7B7B7" d="M466.5,381.5c0,48.6-39.4,88-88,88h-246c-48.602,0-88-39.4-88-88V164.833c0-48.601,39.398-88,88-88h246
					c48.6,0,88,39.399,88,88V381.5z"/>
			</g>
		</g>
		<g>
			<g>
				<path fill="#FFFFFF" d="M466.5,360.5c0,48.6-39.4,88-88,88h-246c-48.602,0-88-39.4-88-88V143.833c0-48.601,39.398-88,88-88h246
					c48.6,0,88,39.399,88,88V360.5z"/>
			</g>
		</g>
	</g>
	<path fill="#70CAC8" stroke="#E2E2E2" stroke-width="10" stroke-miterlimit="10" d="M465.5,362.667c0,48.6-39.399,88-88,88h-246
		c-48.602,0-88-39.4-88-88V146c0-48.601,39.398-88,88-88h246c48.601,0,88,39.399,88,88V362.667z"/>
</g>
<rect id="rect4262" x="196.961" y="236.596" fill="#FFFFFF" width="103.877" height="98.073"/>
<path id="path4120" inkscape:connector-curvature="0" sodipodi:nodetypes="cccc" fill="#D41A1A" d="M378.125,365.332
	l-113.311-43.521l-15.713-214.525L378.125,365.332z"/>
<path id="path4160-8" inkscape:connector-curvature="0" sodipodi:nodetypes="cccc" opacity="0.3" enable-background="new    " d="
	M378.179,365.661l-116.271-89.296l2.824,41.869L378.179,365.661z"/>
<path id="path4116" inkscape:connector-curvature="0" sodipodi:nodetypes="cccc" fill="#1BA389" d="M120.078,365.332l91.808-68.969
	l166.239,68.969H120.078z"/>
<path id="path4160" inkscape:connector-curvature="0" sodipodi:nodetypes="cccc" opacity="0.3" enable-background="new    " d="
	M120.07,365.341l129.036-53.771l-40.773-16.241L120.07,365.341z"/>
<path id="path4118" inkscape:connector-curvature="0" sodipodi:nodetypes="cccc" fill="#367BF0" d="M120.078,365.332
	l140.449-102.981l-11.426-155.065L120.078,365.332z"/>
<path id="path4160-8-1" inkscape:connector-curvature="0" sodipodi:nodetypes="cccc" opacity="0.3" enable-background="new    " d="
	M249.27,107.553l-24.674,181.041l35.773-26.509L249.27,107.553z"/>
</svg>
