<?xml version="1.0" encoding="utf-8"?>
<!-- Generator: Adobe Illustrator 16.0.0, SVG Export Plug-In . SVG Version: 6.00 Build 0)  -->
<!DOCTYPE svg PUBLIC "-//W3C//DTD SVG 1.1//EN" "http://www.w3.org/Graphics/SVG/1.1/DTD/svg11.dtd">
<svg version="1.1" id="Layer_1" xmlns="http://www.w3.org/2000/svg" xmlns:xlink="http://www.w3.org/1999/xlink" x="0px" y="0px"
	 width="512px" height="512px" viewBox="0 0 512 512" enable-background="new 0 0 512 512" xml:space="preserve">
<g id="Layer_1_1_">
	<g id="Layer_2" display="none">
	</g>
	<g id="shadows">
		<g opacity="0.9">
			<g>
				<path fill="#B7B7B7" d="M466.5,381.5c0,48.6-39.4,88-88,88h-246c-48.603,0-88-39.4-88-88V164.833c0-48.601,39.397-88,88-88h246
					c48.6,0,88,39.399,88,88V381.5z"/>
			</g>
		</g>
		<g>
			<g>
				<path fill="#FFFFFF" d="M466.5,360.5c0,48.6-39.4,88-88,88h-246c-48.603,0-88-39.4-88-88V143.833c0-48.601,39.397-88,88-88h246
					c48.6,0,88,39.399,88,88V360.5z"/>
			</g>
		</g>
	</g>
	<radialGradient id="SVGID_1_" cx="254.5002" cy="254.3335" r="203.7987" gradientUnits="userSpaceOnUse">
		<stop  offset="0" style="stop-color:#FFF33B"/>
		<stop  offset="0.0401" style="stop-color:#FEE72E"/>
		<stop  offset="0.1171" style="stop-color:#FED51B"/>
		<stop  offset="0.1964" style="stop-color:#FDCA10"/>
		<stop  offset="0.2809" style="stop-color:#FDC70C"/>
		<stop  offset="0.6685" style="stop-color:#F3903F"/>
		<stop  offset="0.8876" style="stop-color:#ED683C"/>
		<stop  offset="1" style="stop-color:#E93E3A"/>
	</radialGradient>
	<path fill="url(#SVGID_1_)" stroke="#E2E2E2" stroke-width="10" stroke-miterlimit="10" d="M465.5,362.667c0,48.6-39.399,88-88,88
		h-246c-48.603,0-88-39.4-88-88V146c0-48.601,39.397-88,88-88h246c48.601,0,88,39.399,88,88V362.667z"/>
</g>
<g id="g57" transform="matrix(4.6488298,0,0,4.6488298,-47.410586,-48.303003)">
	<g id="g59">
		<g id="g61">
			<path id="path63" inkscape:connector-curvature="0" fill="#2D2D2D" d="M40.65,58.923h51.377v20.099H40.65"/>
			<path id="path65" inkscape:connector-curvature="0" fill="#2D2D2D" d="M42.728,82.891h47.214v7.606H42.728"/>
			<path id="path67" inkscape:connector-curvature="0" fill="#F9F9F9" d="M41.734,79.168h49.027v3.753H41.734"/>
			<path id="path69" inkscape:connector-curvature="0" fill="#58A235" d="M66.133,34.913c-0.997,0-1.93,0.074-2.897,0.173
				c-0.761,0.074-1.546,0.173-2.296,0.299v0.063c-2.446,0.428-4.838,1.085-7.057,2.037c-3.905,1.661-6.854,3.336-9.836,6.296
				c0.901,1.779,2.639,4.923,3.776,6.425h-8.721c-1.878,2.735-3.111,4.912-4.13,8.153c-1.019,3.251-1.587,6.724-1.587,10.308
				c0,16.689,11.939,30.558,27.568,33.278v0.064c0.731,0.118,1.502,0.173,2.241,0.247c0.975,0.085,1.93,0.173,2.949,0.173
				c0.129,0,0.269,0,0.406,0c1.008,0,2.015-0.085,3.004-0.173c0.742-0.074,1.447-0.129,2.177-0.247v-0.064
				C87.37,99.234,99.3,85.363,99.3,68.668c0-3.584-0.579-7.068-1.587-10.308c-1.018-3.251-2.241-5.418-4.129-8.153h-8.71
				c1.126-1.502,2.864-4.635,3.764-6.425c-2.993-2.96-5.942-4.643-9.825-6.296c-2.24-0.956-4.624-1.609-7.068-2.037v-0.063
				c-0.771-0.129-1.513-0.214-2.295-0.299c-0.944-0.096-1.919-0.173-2.886-0.173c-0.14,0-0.28,0-0.418,0 M48.289,65.021
				c2.672,0,4.827,2.199,4.827,4.923c0,2.714-2.155,4.924-4.827,4.924c-2.661,0-4.827-2.2-4.827-4.924
				C43.461,67.232,45.627,65.021,48.289,65.021 M84.391,65.021c2.671,0,4.827,2.199,4.827,4.923c0,2.714-2.156,4.924-4.827,4.924
				c-2.661,0-4.827-2.2-4.827-4.924C79.564,67.232,81.73,65.021,84.391,65.021 M42.344,81.873h47.997v1.018h-4.119
				c-0.074,3.55-2.466,5.458-4.654,7.562c-2.222-2.413-3.422-5.02-2.65-7.562h-25.13c0.772,2.542-0.428,5.149-2.65,7.562
				c-2.2-2.104-4.58-4.012-4.654-7.562h-4.119v-1.018"/>
			<path id="path71" inkscape:connector-curvature="0" fill="#2D2D2D" d="M86.381,49.34c3.015-4.001,3.86-7.669,9.728-18.287
				c2.414,2.628,3.026,13.666-2.66,18.287"/>
			<path id="path73" inkscape:connector-curvature="0" fill="#2D2D2D" d="M45.883,49.34c-3.015-4.001-3.861-7.669-9.729-18.287
				c-2.413,2.628-3.026,13.666,2.661,18.287"/>
		</g>
	</g>
</g>
</svg>
