<?xml version="1.0" encoding="utf-8"?>
<!-- Generator: Adobe Illustrator 24.0.1, SVG Export Plug-In . SVG Version: 6.00 Build 0)  -->
<svg version="1.1" id="Layer_1" xmlns="http://www.w3.org/2000/svg" xmlns:xlink="http://www.w3.org/1999/xlink" x="0px" y="0px"
	 viewBox="0 0 512 512" style="enable-background:new 0 0 512 512;" xml:space="preserve">
<style type="text/css">
	.st0{display:none;}
	.st1{opacity:0.9;}
	.st2{fill:#B7B7B7;}
	.st3{fill:#FFFFFF;}
	.st4{fill:url(#SVGID_1_);stroke:#E2E2E2;stroke-width:10;stroke-miterlimit:10;}
	.st5{fill:url(#SVGID_2_);stroke:#E2E2E2;stroke-width:10;stroke-miterlimit:10;}
	.st6{fill:url(#SVGID_3_);stroke:#E2E2E2;stroke-width:10;stroke-miterlimit:10;}
	.st7{fill:url(#SVGID_4_);stroke:#E2E2E2;stroke-width:10;stroke-miterlimit:10;}
	.st8{fill:url(#rect4157_1_);}
	.st9{fill:url(#rect4159_1_);}
	.st10{fill:#1B83CE;fill-opacity:0.1186;}
</style>
<g id="Layer_1_2_">
	<g id="Layer_1_1_">
		<g id="Layer_2_1_" class="st0">
		</g>
		<g id="shadows">
			<g class="st1">
				<g>
					<path class="st2" d="M466.5,381.5c0,48.6-39.4,88-88,88h-246c-48.6,0-88-39.4-88-88V164.8c0-48.6,39.4-88,88-88h246
						c48.6,0,88,39.4,88,88V381.5z"/>
				</g>
			</g>
			<g>
				<g>
					<path class="st3" d="M466.5,360.5c0,48.6-39.4,88-88,88h-246c-48.6,0-88-39.4-88-88V143.8c0-48.6,39.4-88,88-88h246
						c48.6,0,88,39.4,88,88V360.5z"/>
				</g>
			</g>
		</g>
		
			<linearGradient id="SVGID_1_" gradientUnits="userSpaceOnUse" x1="85.2993" y1="2845.0601" x2="507.2993" y2="2845.0601" gradientTransform="matrix(1 0 0 1 -41.7993 -2590.7266)">
			<stop  offset="0" style="stop-color:#867278"/>
			<stop  offset="0.5" style="stop-color:#5C4A56"/>
			<stop  offset="1" style="stop-color:#433545"/>
		</linearGradient>
		<path class="st4" d="M465.5,362.7c0,48.6-39.4,88-88,88h-246c-48.6,0-88-39.4-88-88V146c0-48.6,39.4-88,88-88h246
			c48.6,0,88,39.4,88,88V362.7z"/>
	</g>
	
		<linearGradient id="SVGID_2_" gradientUnits="userSpaceOnUse" x1="64.2197" y1="45.6094" x2="64.2197" y2="45.6094" gradientTransform="matrix(1 0 0 -1 -16.7197 233.1094)">
		<stop  offset="0" style="stop-color:#D471AD"/>
		<stop  offset="0.5" style="stop-color:#C7158C"/>
		<stop  offset="1" style="stop-color:#9D248E"/>
	</linearGradient>
	<path class="st5" d="M47.5,187.5"/>
	
		<linearGradient id="SVGID_3_" gradientUnits="userSpaceOnUse" x1="92.2197" y1="-299.3906" x2="92.2197" y2="-299.3906" gradientTransform="matrix(1 0 0 -1 -16.7197 233.1094)">
		<stop  offset="0" style="stop-color:#D471AD"/>
		<stop  offset="0.5" style="stop-color:#C7158C"/>
		<stop  offset="1" style="stop-color:#9D248E"/>
	</linearGradient>
	<path class="st6" d="M75.5,532.5"/>
</g>
<g id="Layer_2_2_">
	
		<linearGradient id="SVGID_4_" gradientUnits="userSpaceOnUse" x1="64.2197" y1="34.6094" x2="64.2197" y2="34.6094" gradientTransform="matrix(1 0 0 -1 -16.7197 233.1094)">
		<stop  offset="0" style="stop-color:#D471AD"/>
		<stop  offset="0.5" style="stop-color:#C7158C"/>
		<stop  offset="1" style="stop-color:#9D248E"/>
	</linearGradient>
	<path class="st7" d="M47.5,198.5"/>
</g>
<linearGradient id="rect4157_1_" gradientUnits="userSpaceOnUse" x1="69" y1="265.25" x2="436" y2="265.25">
	<stop  offset="0" style="stop-color:#B85E42"/>
	<stop  offset="0.5" style="stop-color:#9F2214"/>
	<stop  offset="1" style="stop-color:#700101"/>
</linearGradient>
<path id="rect4157" class="st8" d="M160.8,173.5h183.5c50.7,0,91.8,41.1,91.8,91.8l0,0c0,50.7-41.1,91.8-91.8,91.8H160.8
	c-50.7,0-91.8-41.1-91.8-91.8l0,0C69,214.6,110.1,173.5,160.8,173.5z"/>
<linearGradient id="rect4159_1_" gradientUnits="userSpaceOnUse" x1="553.3236" y1="2037.2742" x2="553.3236" y2="1876.7122" gradientTransform="matrix(1 0 0 1 -392.9316 -1691.7432)">
	<stop  offset="0" style="stop-color:#9ED3FB"/>
	<stop  offset="1" style="stop-color:#EFFAFF"/>
</linearGradient>
<path id="rect4159" class="st9" d="M160.4,185L160.4,185c44.3,0,80.3,35.9,80.3,80.3l0,0c0,44.3-35.9,80.3-80.3,80.3l0,0
	c-44.3,0-80.3-35.9-80.3-80.3l0,0C80.1,220.9,116.1,185,160.4,185z"/>
<path id="rect4413" class="st10" d="M200,210.6c10.3,12,16.6,27.7,16.6,44.8c0,38.1-30.7,68.8-68.8,68.8c-14.8,0-28.4-4.6-39.6-12.5
	c12.6,14.7,31.3,24,52.2,24c38.1,0,68.8-30.7,68.8-68.8C229.2,243.6,217.7,223,200,210.6z"/>
</svg>
