<?xml version="1.0" encoding="utf-8"?>
<!-- Generator: Adobe Illustrator 16.0.0, SVG Export Plug-In . SVG Version: 6.00 Build 0)  -->
<!DOCTYPE svg PUBLIC "-//W3C//DTD SVG 1.1//EN" "http://www.w3.org/Graphics/SVG/1.1/DTD/svg11.dtd">
<svg version="1.1" id="Layer_1" xmlns="http://www.w3.org/2000/svg" xmlns:xlink="http://www.w3.org/1999/xlink" x="0px" y="0px"
	 width="512px" height="512px" viewBox="0 0 512 512" enable-background="new 0 0 512 512" xml:space="preserve">
<g id="Layer_1_2_">
	<g id="Layer_1_1_">
		<g id="Layer_2" display="none">
		</g>
		<g id="shadows">
			<g opacity="0.9">
				<g>
					<path fill="#B7B7B7" d="M466.5,381.5c0,48.6-39.4,88-88,88h-246c-48.602,0-88-39.4-88-88V164.833c0-48.601,39.398-88,88-88h246
						c48.6,0,88,39.399,88,88V381.5z"/>
				</g>
			</g>
			<g>
				<g>
					<path fill="#FFFFFF" d="M466.5,360.5c0,48.6-39.4,88-88,88h-246c-48.602,0-88-39.4-88-88V143.833c0-48.601,39.398-88,88-88h246
						c48.6,0,88,39.399,88,88V360.5z"/>
				</g>
			</g>
		</g>
		<path fill="#60C7CB" stroke="#E2E2E2" stroke-width="7" stroke-miterlimit="10" d="M465.5,146v216.67c0,48.6-39.4,88-88,88h-246
			c-30.22,0-56.89-15.24-72.72-38.45c-9.65-14.109-15.28-31.17-15.28-49.55V146c0-48.6,39.4-88,88-88h246
			C426.1,58,465.5,97.4,465.5,146z"/>
	</g>
</g>
<linearGradient id="SVGID_1_" gradientUnits="userSpaceOnUse" x1="254.5002" y1="434" x2="254.5002" y2="434">
	<stop  offset="0" style="stop-color:#5B57A5"/>
	<stop  offset="0.5" style="stop-color:#2E3092"/>
	<stop  offset="1" style="stop-color:#474374"/>
</linearGradient>
<radialGradient id="SVGID_2_" cx="254.5002" cy="434" r="0" gradientUnits="userSpaceOnUse">
	<stop  offset="0" style="stop-color:#F37E5F"/>
	<stop  offset="0.5" style="stop-color:#EC1C24"/>
	<stop  offset="1" style="stop-color:#CF232A"/>
</radialGradient>
<path fill="url(#SVGID_1_)" stroke="url(#SVGID_2_)" stroke-width="16" stroke-miterlimit="10" d="M254.5,434"/>
<rect x="74.5" y="196.5" fill="none" width="412" height="181"/>
<text transform="matrix(1 0 0 1 74.5002 267.499)" font-family="'MyriadPro-Regular'" font-size="100">UBUNTU</text>
<circle cx="149" cy="307" r="8.5"/>
<circle cx="191.125" cy="307" r="8.5"/>
<circle cx="233.208" cy="307" r="8.5"/>
<circle cx="279" cy="307" r="8.5"/>
<circle cx="324.249" cy="307" r="8.5"/>
<circle cx="370.5" cy="307" r="8.5"/>
</svg>
