<?xml version="1.0" encoding="utf-8"?>
<!-- Generator: Adobe Illustrator 16.0.0, SVG Export Plug-In . SVG Version: 6.00 Build 0)  -->
<!DOCTYPE svg PUBLIC "-//W3C//DTD SVG 1.1//EN" "http://www.w3.org/Graphics/SVG/1.1/DTD/svg11.dtd">
<svg version="1.1" id="Layer_1" xmlns="http://www.w3.org/2000/svg" xmlns:xlink="http://www.w3.org/1999/xlink" x="0px" y="0px"
	 width="512px" height="512px" viewBox="0 0 512 512" enable-background="new 0 0 512 512" xml:space="preserve">
<g id="Layer_1_1_">
	<g id="Layer_2" display="none">
	</g>
	<g id="shadows">
		<g opacity="0.9">
			<g>
				<path fill="#B7B7B7" d="M466.5,381.5c0,48.6-39.4,88-88,88h-246c-48.604,0-88-39.4-88-88V164.833c0-48.601,39.396-88,88-88h246
					c48.6,0,88,39.399,88,88V381.5z"/>
			</g>
		</g>
		<g>
			<g>
				<path fill="#FFFFFF" d="M466.5,360.5c0,48.6-39.4,88-88,88h-246c-48.604,0-88-39.4-88-88V143.833c0-48.601,39.396-88,88-88h246
					c48.6,0,88,39.399,88,88V360.5z"/>
			</g>
		</g>
	</g>
	<path fill="#E3B7D6" stroke="#E2E2E2" stroke-width="10" stroke-miterlimit="10" d="M465.5,362.667c0,48.6-39.399,88-88,88h-246
		c-48.604,0-88-39.4-88-88V146c0-48.601,39.396-88,88-88h246c48.601,0,88,39.399,88,88V362.667z"/>
</g>
<g id="g3" transform="matrix(-1.2118641,0,0,1.2118641,655.29367,-51.425737)">
	<g id="g5">
		
			<path id="path7" inkscape:connector-curvature="0" sodipodi:nodetypes="cccccccccccccccccccccccccccccccccccssccsccccccccccccccccccc" fill="#6C5353" d="
			M196.339,264.623c2.356,3.045,4.359,6.408,6.977,9.199c2.417,2.575,5.308,4.776,8.238,6.78
			c10.997,6.465,17.989,13.661,29.609,17.479c13.616,4.396,25.929,11.776,39.127,17.122c3.699,1.498,7.452,2.896,11.25,4.125
			c5.372,1.74,10.953,1.695,16.537,1.646c4.13-0.037,8.288,0.591,12.391,0.309c5.873-0.405,11.689-1.542,17.558-2.054
			c8.132-0.71,16.274-0.86,24.418,0.265c2.54,0.351,5.204,0.06,7.78-0.223c1.503-0.165,1.882-2.023,0.593-2.977
			c-3.15-2.333-5.789-5.475-9.754-6.568c-2.085-0.575-4.209-1.291-6.333-1.349c-2.625-0.073-4.78-0.678-6.335-3.06
			c1.886-2.026,4.402-3.186,7.3-3.663c7.492-1.23,13.477-5.182,19.079-10.108c5.335-4.693,10.837-9.373,18.644-9.229
			c0.51,0.01,1.019-0.216,1.534-0.288c3.347-0.471,6.092-0.127,8.261,3.218c1.687,2.601,4.306,4.709,6.839,6.595
			c1.023,0.762,2.988,0.682,4.411,0.403c5.024-0.987,9.974-2.347,15.003-3.314c2.203-0.423,4.526-0.19,6.788-0.351
			c2.766-0.198,3.294-2.208,3.361-4.46c0.062-2.182-0.109-3.92-2.939-4.696c-5.463-1.5-10.488-0.057-15.623,1.322
			c-2.163,0.583-4.221,1.932-6.659,0.057c-1.8-1.386-2.29-2.838-1.666-4.716c2.453-7.377,5.82-14.334,10.005-20.879
			c0.485-0.76,1.611-1.396,2.53-1.547c8.264-1.37,16.339-3.393,24.011-6.819c1.746-0.78,3.407-1.764,5.051-2.75
			c0.655-0.395,1.489-0.954,1.672-1.6c1.549-5.435,6.227-8.829,8.76-13.629c2.171-4.111,1.848-10.396-1.635-13.529
			c-6.716-6.042-13.475-12.073-20.595-17.624c-7.65-5.965-16.564-5.935-25.697-4.261c-5.113,0.939-10.37,2.151-15.472,1.833
			c-6.784-0.423-13.471-2.3-20.224-3.401c-5.902-0.963-11.817-1.95-17.766-2.495c-5.945-0.544-11.869-0.08-17.759,1.261
			c-3.871,0.882-7.986,0.691-11.859,1.563c-10.583,2.383-20.721,6.026-30.41,11.018c-6.998,3.605-12.611,8.831-18.052,14.274
			c-4.181,4.183-8.29,8.52-11.826,13.241c-3.182,4.247-5.703,8.986-8.233,13.727c-3.472,6.501-5.343,13.394-7.679,20.197
			c-0.955,2.781-1.409,5.735-2.09,8.61c-0.173,0.731-0.338,1.464-0.634,2.751c-3.339-2.007-6.349-3.455-8.9-5.483
			c-5.996-6.664-9.966-14.221-12.943-21.903c-1.449-3.698-2.419-7.595-4.02-11.218c-2.525-5.715-4.671-11.819-8.336-16.749
			c-3.53-4.749-8.382-9.151-15.454-7.697c-1.74,0.358-3.59,1.042-4.97,2.116c-5.105,3.975-9.506,8.617-13.146,14.044
			c-3.175,4.731-3.06,9.695-1.751,14.736C187.321,251.634,191.472,258.334,196.339,264.623L196.339,264.623z"/>
	</g>
</g>
<ellipse id="path4173" fill="#D3BFBF" cx="125.031" cy="205.121" rx="4.774" ry="5.371"/>
</svg>
