<?xml version="1.0" encoding="utf-8"?>
<!-- Generator: Adobe Illustrator 16.0.0, SVG Export Plug-In . SVG Version: 6.00 Build 0)  -->
<!DOCTYPE svg PUBLIC "-//W3C//DTD SVG 1.1//EN" "http://www.w3.org/Graphics/SVG/1.1/DTD/svg11.dtd">
<svg version="1.1" id="Layer_1" xmlns="http://www.w3.org/2000/svg" xmlns:xlink="http://www.w3.org/1999/xlink" x="0px" y="0px"
	 width="512px" height="512px" viewBox="0 0 512 512" enable-background="new 0 0 512 512" xml:space="preserve">
<g id="Layer_1_1_">
	<g id="Layer_2" display="none">
	</g>
	<g id="shadows">
		<g opacity="0.9">
			<g>
				<path fill="#B7B7B7" d="M466.5,381.5c0,48.6-39.4,88-88,88h-246c-48.604,0-88-39.4-88-88V164.833c0-48.601,39.396-88,88-88h246
					c48.6,0,88,39.399,88,88V381.5z"/>
			</g>
		</g>
		<g>
			<g>
				<path fill="#FFFFFF" d="M466.5,360.5c0,48.6-39.4,88-88,88h-246c-48.604,0-88-39.4-88-88V143.833c0-48.601,39.396-88,88-88h246
					c48.6,0,88,39.399,88,88V360.5z"/>
			</g>
		</g>
	</g>
	<path fill="#2F4F4F" d="M465.5,362.667c0,48.6-39.399,88-88,88h-246c-48.604,0-88-39.4-88-88V146c0-48.601,39.396-88,88-88h246
		c48.601,0,88,39.399,88,88V362.667z"/>
</g>
<path id="rect3808" fill="#32CD32" d="M297.852,117.139l92.844,83.513c22.987,20.679,28.667,51.846,12.686,69.611L298.29,387.093
	c-15.981,17.767-47.572,15.407-70.561-5.271l-92.842-83.515c-22.988-20.677-28.668-51.843-12.687-69.61l105.09-116.829
	C243.274,94.099,274.865,96.459,297.852,117.139z"/>
<g id="g47" transform="matrix(4.1054452,0,0,4.1054452,-37.043909,-33.824702)">
	<g id="g51">
		<path id="path53" inkscape:connector-curvature="0" fill="#2F4F4F" d="M70.644,116.264c-10.436-2.579-34.552-25.594-41.8-39.868
			c-2.333-4.611-2.333-7.248,0-11.856c3.23-6.365,9.814-14.521,18.663-23.109c11.415-11.086,20.101-16.786,25.526-16.786
			c5.619,0,15.076,6.365,27.113,18.264c9.899,9.789,16.554,18.801,18.335,24.809c0.827,2.802,0.65,4.555-0.841,7.966
			c-5.054,11.486-27.156,33.806-38.91,39.302c-3.202,1.491-5.672,1.891-8.075,1.297 M81.328,85.179
			c11.514-7.648,21.123-14.08,21.346-14.302c0.275-0.261,0.028-0.717-0.665-1.202c-1.657-1.202-10.436-7.192-20.596-14.08
			c-4.983-3.382-9.623-6.556-10.327-7.068l-1.268-0.954c-2.29-1.325-6.337-4.375-8.023-5.177c-0.731-0.523-1.449-0.954-1.601-0.954
			c-0.152,0-0.276,1.548-0.276,3.439c0,6.266,0,10.16,0,14.91c0,5.619,0.124,10.231,0.29,10.231c0.371,0,2.442-1.269,8.531-5.205
			c8.407-5.453,7.276-4.969,9.196-3.81c3.576,2.152,11.237,7.329,12.217,8.227c1.891,1.767,3.092,0.746-15.875,13.461l-14.383,9.647
			l0.11,3.354c0.071,1.849,0.18,3.368,0.261,3.368c0.096,0,9.566-6.255,21.08-13.889"/>
	</g>
</g>
</svg>
