<?xml version="1.0" encoding="utf-8"?>
<!-- Generator: Adobe Illustrator 16.0.0, SVG Export Plug-In . SVG Version: 6.00 Build 0)  -->
<!DOCTYPE svg PUBLIC "-//W3C//DTD SVG 1.1//EN" "http://www.w3.org/Graphics/SVG/1.1/DTD/svg11.dtd">
<svg version="1.1" id="Layer_1" xmlns="http://www.w3.org/2000/svg" xmlns:xlink="http://www.w3.org/1999/xlink" x="0px" y="0px"
	 width="512px" height="512px" viewBox="0 0 512 512" enable-background="new 0 0 512 512" xml:space="preserve">
<g id="Layer_1_1_">
	<g id="Layer_2" display="none">
	</g>
	<g id="shadows">
		<g opacity="0.9">
			<g>
				<path fill="#B7B7B7" d="M466.5,381.5c0,48.6-39.4,88-88,88h-246c-48.604,0-88-39.4-88-88V164.833c0-48.601,39.396-88,88-88h246
					c48.6,0,88,39.399,88,88V381.5z"/>
			</g>
		</g>
		<g>
			<g>
				<path fill="#FFFFFF" d="M466.5,360.5c0,48.6-39.4,88-88,88h-246c-48.604,0-88-39.4-88-88V143.833c0-48.601,39.396-88,88-88h246
					c48.6,0,88,39.399,88,88V360.5z"/>
			</g>
		</g>
	</g>
	<path fill="#45C5E0" d="M465.5,362.667c0,48.6-39.399,88-88,88h-246c-48.604,0-88-39.4-88-88V146c0-48.601,39.396-88,88-88h246
		c48.601,0,88,39.399,88,88V362.667z"/>
</g>
<path id="path3833" inkscape:connector-curvature="0" sodipodi:nodetypes="cccccsccscccccccccccccccccscscccc" fill="#FFFFEB" d="
	M156.004,181.223c-2.752,0.261-5.084,2.835-5.076,5.6v34.482c-5.083-3.543-10.71-5.64-16.798-5.64
	c-11.106,0-20.957,5.448-27.916,15.065c-7.174,9.845-10.313,23.464-10.313,40.484c0,16.691,3.259,30.338,10.474,40.566
	c0.014,0.012,0.028,0.025,0.04,0.039c7.077,9.887,16.682,15.631,27.433,15.631c5.506,0,10.913-1.723,15.912-4.834
	c0.933-0.588,1.823-1.289,2.699-1.975c0.456,2.582,2.937,4.65,5.559,4.633h18.973l5.6-5.6V186.823c-0.003-2.931-2.667-5.597-5.6-5.6
	h-20.464C156.353,181.216,156.178,181.216,156.004,181.223L156.004,181.223z M139.528,235.122
	C-29.445,559.844,55.042,397.482,139.528,235.122z M139.528,246.361c3.171,0,5.143,1.017,7.614,4.793c0,0.014,0,0.027,0,0.041
	c2.116,3.194,3.867,10.229,3.867,20.745c0,9.254-1.633,15.648-3.988,19.256c-0.009,0.014-0.032,0.027-0.041,0.041
	c-2.598,3.881-4.604,4.914-7.332,4.914c-3.824,0-6.115-1.438-8.822-6.889c-1.541-3.102-2.82-9.922-2.82-19.777
	c0-8.912,1.634-14.993,3.907-18.33C134.493,247.377,136.534,246.361,139.528,246.361L139.528,246.361z"/>
<path id="path3835" inkscape:connector-curvature="0" sodipodi:nodetypes="ccccccccscscccccccccccccccscsccc" fill="#FFFFEB" d="
	M223.155,181.223c-2.737,0.28-5.046,2.847-5.035,5.6v132.853l5.6,5.6h19.014c2.677-0.02,5.17-2.221,5.519-4.875
	c0.839,0.666,1.567,1.516,2.457,2.096c0.028,0.012,0.054,0.025,0.08,0.041c5.05,3.176,10.547,4.914,16.114,4.914
	c10.826,0,20.444-5.758,27.432-15.67c7.255-10.215,10.474-24.059,10.474-41.211c0-16.616-3.164-30.03-10.312-39.84
	c-6.959-9.617-16.81-15.065-27.916-15.065c-6.088,0-11.715,2.096-16.798,5.64v-34.482c-0.004-2.931-2.668-5.597-5.6-5.6h-20.464
	C223.531,181.214,223.343,181.214,223.155,181.223L223.155,181.223z M229.318,192.422
	C0.485,545.611,114.903,369.016,229.318,192.422z M261.142,246.361c3.171,0,5.143,1.017,7.613,4.793c0,0.014,0,0.027,0,0.041
	c2.122,3.203,3.907,10.173,3.907,20.624c0,9.754-1.72,16.357-3.907,19.658c-2.477,3.748-4.27,4.674-6.809,4.674
	c-3.719,0-6.231-1.529-9.184-7.17c-1.77-3.348-3.142-10-3.142-19.498c0-9.039,1.672-15.17,3.906-18.409
	C256.042,247.383,258.059,246.361,261.142,246.361L261.142,246.361z"/>
<path id="path3837" inkscape:connector-curvature="0" sodipodi:nodetypes="csccccccccccscccscccccccc" fill="#FFFFEB" d="
	M326.117,181.223c-1.813,0.187-3.502,1.319-4.364,2.924c-0.86,1.606-0.872,3.639-0.026,5.253l31.703,60.948l-35.128,66.71
	l4.956,8.217h25.86c2.048,0.006,4.053-1.207,4.996-3.021l18.73-36.295l18.692,36.295c0.944,1.814,2.948,3.027,4.994,3.021h25.983
	c1.919-0.004,3.804-1.068,4.795-2.713c0.991-1.643,1.055-3.807,0.159-5.504l-35.127-65.784l31.864-61.915
	c0.859-1.699,0.772-3.841-0.224-5.464s-2.867-2.671-4.771-2.673h-24.935c-2.078-0.007-4.107,1.244-5.036,3.102l-15.991,32.589
	l-16.355-32.629c-0.933-1.831-2.94-3.062-4.995-3.062h-25.218C326.494,181.214,326.305,181.214,326.117,181.223z"/>
</svg>
