<?xml version="1.0" encoding="utf-8"?>
<!-- Generator: Adobe Illustrator 16.0.0, SVG Export Plug-In . SVG Version: 6.00 Build 0)  -->
<!DOCTYPE svg PUBLIC "-//W3C//DTD SVG 1.1//EN" "http://www.w3.org/Graphics/SVG/1.1/DTD/svg11.dtd">
<svg version="1.1" id="Layer_1" xmlns="http://www.w3.org/2000/svg" xmlns:xlink="http://www.w3.org/1999/xlink" x="0px" y="0px"
	 width="512px" height="512px" viewBox="0 0 512 512" enable-background="new 0 0 512 512" xml:space="preserve">
<g id="Layer_1_1_">
	<g id="Layer_2" display="none">
	</g>
	<g id="shadows">
		<g opacity="0.9">
			<g>
				<path fill="#B7B7B7" d="M466.5,381.5c0,48.6-39.4,88-88,88h-246c-48.604,0-88-39.4-88-88V164.833c0-48.601,39.396-88,88-88h246
					c48.6,0,88,39.399,88,88V381.5z"/>
			</g>
		</g>
		<g>
			<g>
				<path fill="#FFFFFF" d="M466.5,360.5c0,48.6-39.4,88-88,88h-246c-48.604,0-88-39.4-88-88V143.833c0-48.601,39.396-88,88-88h246
					c48.6,0,88,39.399,88,88V360.5z"/>
			</g>
		</g>
	</g>
	<path fill="#B7479A" d="M465.5,362.667c0,48.6-39.399,88-88,88h-246c-48.604,0-88-39.4-88-88V146c0-48.601,39.396-88,88-88h246
		c48.601,0,88,39.399,88,88V362.667z"/>
</g>
<path id="path4151-4" inkscape:connector-curvature="0" fill="#FFFFEE" d="M253,99.553c-84.194,0-152.447,68.253-152.447,152.447
	S168.806,404.447,253,404.447c84.193,0,152.446-68.253,152.446-152.447S337.194,99.553,253,99.553z M253,123.373
	c32.532,0,62.205,12.092,84.857,32.008c-16.669,20.333-39.864,35.104-67.143,45.704c-14.738-27.752-30.994-52.735-47.639-74.139
	C232.685,124.655,242.691,123.373,253,123.373L253,123.373z M198.214,135.581c15.743,21.287,32.119,45.686,47.491,73.692
	c-35.804,10.033-76.699,14.652-118.503,16.079C135.595,185.536,162.315,152.494,198.214,135.581L198.214,135.581z M352.596,170.417
	c17.864,21.789,28.646,49.662,29.031,79.945c-31.267-5.775-61.215-7.744-89.473-3.87c-3.659-8.715-7.331-17.163-11.314-25.458
	C307.845,209.644,332.44,193.414,352.596,170.417z M256.424,229.818c3.518,7.089,6.947,14.362,10.273,21.884
	c-41.163,11.544-78.037,37.946-109.571,86.05c-20.379-22.76-32.752-52.799-32.752-85.752c0-1.312,0.109-2.568,0.148-3.87
	C166.805,246.896,213.449,243.187,256.424,229.818L256.424,229.818z M320.737,264.953c18.547-0.738,38.365,1.53,59.252,7.591
	c-5.693,35.553-25.972,66.097-54.487,85.603c-5.835-31.938-14.465-62.493-25.159-91.111
	C306.959,265.987,313.753,265.229,320.737,264.953L320.737,264.953z M275.481,272.842c11.496,29.314,21.231,61.648,27.988,97.513
	c-15.503,6.623-32.545,10.272-50.469,10.272c-29.933,0-57.496-10.247-79.35-27.393C191.478,322.941,227.079,288.162,275.481,272.842
	L275.481,272.842z"/>
</svg>
