<?xml version="1.0" encoding="utf-8"?>
<!-- Generator: Adobe Illustrator 16.0.0, SVG Export Plug-In . SVG Version: 6.00 Build 0)  -->
<!DOCTYPE svg PUBLIC "-//W3C//DTD SVG 1.1//EN" "http://www.w3.org/Graphics/SVG/1.1/DTD/svg11.dtd">
<svg version="1.1" id="Layer_1" xmlns="http://www.w3.org/2000/svg" xmlns:xlink="http://www.w3.org/1999/xlink" x="0px" y="0px"
	 width="512px" height="512px" viewBox="0 0 512 512" enable-background="new 0 0 512 512" xml:space="preserve">
<g id="Layer_1_1_">
	<g id="Layer_2" display="none">
	</g>
	<g id="shadows">
		<g opacity="0.9">
			<g>
				<path fill="#B7B7B7" d="M466.5,381.5c0,48.6-39.4,88-88,88h-246c-48.604,0-88-39.4-88-88V164.833c0-48.601,39.396-88,88-88h246
					c48.6,0,88,39.399,88,88V381.5z"/>
			</g>
		</g>
		<g>
			<g>
				<path fill="#FFFFFF" d="M466.5,360.5c0,48.6-39.4,88-88,88h-246c-48.604,0-88-39.4-88-88V143.833c0-48.601,39.396-88,88-88h246
					c48.6,0,88,39.399,88,88V360.5z"/>
			</g>
		</g>
	</g>
	<path fill="#191A4C" d="M465.5,362.667c0,48.6-39.399,88-88,88h-246c-48.604,0-88-39.4-88-88V146c0-48.601,39.396-88,88-88h246
		c48.601,0,88,39.399,88,88V362.667z"/>
</g>
<path id="rect5752-11" fill="#6D7A7F" d="M145.789,91.193h231.247c8.229,0,14.899,6.672,14.899,14.901v286.946
	c0,8.229-6.671,14.9-14.899,14.9H145.789c-8.229,0-14.9-6.671-14.9-14.9V106.095C130.889,97.865,137.56,91.193,145.789,91.193z"/>
<path id="rect6297-3" fill="#15495D" d="M150.351,379.374h109.756c2.261,0,4.096,1.833,4.096,4.096v8.089
	c0,2.263-1.835,4.096-4.096,4.096H150.351c-2.263,0-4.097-1.833-4.097-4.096v-8.089
	C146.254,381.207,148.088,379.374,150.351,379.374z"/>
<path id="rect5752-1-3" fill="#F5F5F5" d="M145.797,90.346h231.247c8.229,0,14.9,5.847,14.9,13.059v251.503
	c0,7.214-6.671,13.062-14.9,13.062H145.797c-8.229,0-14.901-5.848-14.901-13.062V103.405
	C130.896,96.193,137.568,90.346,145.797,90.346z"/>
<path id="path6" inkscape:connector-curvature="0" fill="#EBEBEB" d="M328.799,296.536c18.604-18.604,27.906-41.063,27.906-67.378
	c0-26.321-9.297-48.769-27.906-67.378c-18.609-18.609-41.058-27.906-67.378-27.906c-26.321,0-48.769,9.296-67.379,27.906
	c-18.61,18.61-27.906,41.057-27.906,67.378c0,26.322,9.296,48.768,27.906,67.378s41.058,27.905,67.379,27.905
	C287.741,324.441,310.19,315.146,328.799,296.536L328.799,296.536z"/>
<circle id="path6382-0" fill="#D1D2D3" cx="333.405" cy="387.492" r="7.301"/>
<circle id="path6382-7-3" fill="#D1D2D3" cx="355.952" cy="387.488" r="7.3"/>
</svg>
