<?xml version="1.0" encoding="utf-8"?>
<!-- Generator: Adobe Illustrator 16.0.0, SVG Export Plug-In . SVG Version: 6.00 Build 0)  -->
<!DOCTYPE svg PUBLIC "-//W3C//DTD SVG 1.1//EN" "http://www.w3.org/Graphics/SVG/1.1/DTD/svg11.dtd">
<svg version="1.1" id="Layer_1" xmlns="http://www.w3.org/2000/svg" xmlns:xlink="http://www.w3.org/1999/xlink" x="0px" y="0px"
	 width="512px" height="512px" viewBox="0 0 512 512" enable-background="new 0 0 512 512" xml:space="preserve">
<g id="Layer_1_1_">
	<g id="Layer_2" display="none">
	</g>
	<g id="shadows">
		<g opacity="0.9">
			<g>
				<path fill="#B7B7B7" d="M466.5,381.5c0,48.6-39.4,88-88,88h-246c-48.604,0-88-39.4-88-88V164.833c0-48.601,39.396-88,88-88h246
					c48.6,0,88,39.399,88,88V381.5z"/>
			</g>
		</g>
		<g>
			<g>
				<path fill="#FFFFFF" d="M466.5,360.5c0,48.6-39.4,88-88,88h-246c-48.604,0-88-39.4-88-88V143.833c0-48.601,39.396-88,88-88h246
					c48.6,0,88,39.399,88,88V360.5z"/>
			</g>
		</g>
	</g>
	<path fill="#FEEE07" d="M465.5,362.667c0,48.6-39.399,88-88,88h-246c-48.604,0-88-39.4-88-88V146c0-48.601,39.396-88,88-88h246
		c48.601,0,88,39.399,88,88V362.667z"/>
</g>
<path id="path2984" inkscape:connector-curvature="0" fill="#3176E2" d="M208.642,375.946l-46.535-28.24l-0.181-8.562
	c-0.099-4.71,0.066-8.563,0.367-8.563c0.302,0,6.331,3.635,13.399,8.079c7.068,4.442,13.305,8.079,13.859,8.079
	c0.555,0,15.547-12.207,33.317-27.124c17.769-14.918,32.453-27.124,32.631-27.124s14.861,12.206,32.632,27.124
	c17.769,14.917,32.762,27.124,33.316,27.124s6.791-3.637,13.86-8.079c7.067-4.444,13.097-8.079,13.397-8.079
	c0.302,0,0.468,3.851,0.367,8.558l-0.181,8.556l-46.535,28.246c-25.594,15.535-46.68,28.244-46.857,28.244
	S234.237,391.478,208.642,375.946L208.642,375.946z M142.902,303.211c-25.138-16.405-45.715-30.008-45.727-30.23
	c-0.031-0.533,62.454-50.657,63.149-50.657c0.807,0,92.575,56.805,92.583,57.31c0.013,0.676-62.922,53.541-63.652,53.471
	C188.898,333.07,168.039,319.619,142.902,303.211z M289.593,306.623c-17.33-14.61-31.505-26.759-31.501-26.995
	c0.009-0.501,91.781-57.304,92.583-57.304c0.694,0,63.181,50.124,63.151,50.657c-0.024,0.448-90.964,59.765-92.043,60.036
	C321.409,333.11,306.924,321.232,289.593,306.623z M128.417,193.506c-17.374-13.895-31.673-25.491-31.777-25.771
	c-0.211-0.571,89.099-59.449,90.883-59.917c0.787-0.206,11.025,7.919,33.104,26.274c17.582,14.615,32.05,26.811,32.151,27.104
	c0.163,0.458-91.535,57.572-92.435,57.572C160.157,218.769,145.791,207.401,128.417,193.506z M304.297,190.345
	c-25.238-15.616-45.888-28.678-45.888-29.029s14.384-12.6,31.963-27.217c22.08-18.36,32.318-26.486,33.104-26.28
	c1.784,0.467,91.096,59.346,90.884,59.917c-0.238,0.649-63.227,51.041-63.768,51.018
	C350.368,218.744,329.536,205.96,304.297,190.345z"/>
</svg>
