<?xml version="1.0" encoding="utf-8"?>
<!-- Generator: Adobe Illustrator 16.0.0, SVG Export Plug-In . SVG Version: 6.00 Build 0)  -->
<!DOCTYPE svg PUBLIC "-//W3C//DTD SVG 1.1//EN" "http://www.w3.org/Graphics/SVG/1.1/DTD/svg11.dtd">
<svg version="1.1" id="Layer_1" xmlns="http://www.w3.org/2000/svg" xmlns:xlink="http://www.w3.org/1999/xlink" x="0px" y="0px"
	 width="512px" height="512px" viewBox="0 0 512 512" enable-background="new 0 0 512 512" xml:space="preserve">
<g id="Layer_1_1_">
	<g id="Layer_2" display="none">
	</g>
	<g id="shadows">
		<g opacity="0.9">
			<g>
				<path fill="#B7B7B7" d="M466.5,381.5c0,48.6-39.4,88-88,88h-246c-48.602,0-88-39.4-88-88V164.833c0-48.601,39.398-88,88-88h246
					c48.6,0,88,39.399,88,88V381.5z"/>
			</g>
		</g>
		<g>
			<g>
				<path fill="#FFFFFF" d="M466.5,360.5c0,48.6-39.4,88-88,88h-246c-48.602,0-88-39.4-88-88V143.833c0-48.601,39.398-88,88-88h246
					c48.6,0,88,39.399,88,88V360.5z"/>
			</g>
		</g>
	</g>
	<path fill="#FFFAC0" stroke="#E2E2E2" stroke-width="10" stroke-miterlimit="10" d="M465.5,362.667c0,48.6-39.399,88-88,88h-246
		c-48.602,0-88-39.4-88-88V146c0-48.601,39.398-88,88-88h246c48.601,0,88,39.399,88,88V362.667z"/>
</g>
<g>
	<g>
		<path d="M257.016,77.651h-0.184l0.266,0.007l0.368,0.007c0.587,0.007,1.071,0.021,1.494,0.041l0.784,0.041
			c0.021,0,0.042,0,0.062,0.007l7.068,0.239C263.613,77.787,260.324,77.671,257.016,77.651z"/>
	</g>
</g>
<g id="layer1" transform="translate(0,-540.36219)" inkscape:label="Capa 1" inkscape:groupmode="layer">
	<path id="path49" sodipodi:nodetypes="ccccccccccccscsccaaaaa" inkscape:connector-curvature="0" fill="#1BA389" d="
		M419.494,803.103L289.126,675.125c-7.399-7.267-21.58-15.658-31.511-18.65l-52.48-15.809c-9.931-2.991-23.998,0.618-31.267,8.019
		l-17.752,18.083c-7.264,7.403-19.153,19.515-26.421,26.915l-17.751,18.084c-7.264,7.402-10.614,21.539-7.437,31.41l16.773,52.176
		c3.174,9.876,11.827,23.899,19.227,31.164l130.366,127.978c7.401,7.267,19.4,7.153,26.664-0.245l47.891-48.783
		c7.271-7.401,19.154-19.512,26.422-26.912l47.89-48.782C427.006,822.367,426.894,810.37,419.494,803.103L419.494,803.103z
		 M183.043,742.616c-10.896,0.045-23.166-12.123-23.211-23.02c-0.046-10.897,12.123-23.167,23.02-23.212
		c10.897-0.045,23.166,12.123,23.211,23.02S193.94,742.572,183.043,742.616z"/>
	<g>
		<defs>
			<path id="SVGID_1_" d="M247.637,959.829l128.072-130.275c7.272-7.395,15.673-21.569,18.673-31.498l15.844-52.469
				c2.999-9.93-0.599-23.999-7.994-31.272l-18.07-17.765c-7.397-7.27-19.501-19.167-26.896-26.441l-18.071-17.764
				c-7.396-7.27-21.53-10.629-31.403-7.46l-52.188,16.736c-9.878,3.168-23.908,11.811-31.178,19.205L96.354,811.099
				c-7.272,7.397-7.169,19.396,0.226,26.665l48.748,47.925c7.398,7.274,19.498,19.169,26.895,26.44l48.747,47.925
				C228.368,967.326,240.365,967.223,247.637,959.829L247.637,959.829z M314.124,723.401c-0.033-9.546,7.679-17.313,17.225-17.346
				c9.547-0.032,17.313,7.68,17.347,17.227c0.033,9.545-7.681,17.312-17.227,17.345
				C321.923,740.659,314.156,732.947,314.124,723.401z"/>
		</defs>
		<defs>
			<path id="SVGID_2_" d="M247.637,959.829l128.072-130.275c7.272-7.395,15.673-21.569,18.673-31.498l15.844-52.469
				c2.999-9.93-0.599-23.999-7.994-31.272l-18.07-17.765c-7.397-7.27-19.501-19.167-26.896-26.441l-18.071-17.764
				c-7.396-7.27-21.53-10.629-31.403-7.46l-52.188,16.736c-9.878,3.168-23.908,11.811-31.178,19.205L96.354,811.099
				c-7.272,7.397-7.169,19.396,0.226,26.665l48.748,47.925c7.398,7.274,19.498,19.169,26.895,26.44l48.747,47.925
				C228.368,967.326,240.365,967.223,247.637,959.829L247.637,959.829z M314.124,723.401c-0.033-9.546,7.679-17.313,17.225-17.346
				c9.547-0.032,17.313,7.68,17.347,17.227c0.033,9.545-7.681,17.312-17.227,17.345
				C321.923,740.659,314.156,732.947,314.124,723.401z"/>
		</defs>
		<clipPath id="SVGID_3_">
			<use xlink:href="#SVGID_1_"  overflow="visible"/>
		</clipPath>
		<clipPath id="SVGID_4_" clip-path="url(#SVGID_3_)">
			<use xlink:href="#SVGID_2_"  overflow="visible"/>
		</clipPath>
		<g id="g89" transform="matrix(0.00639841,1.8636339,-1.8636339,0.00639841,472.52391,563.02552)" clip-path="url(#SVGID_4_)">
		</g>
	</g>
	<path id="rect4224" opacity="0.3" fill="#FFFFFF" enable-background="new    " d="M289.926,695.614l117.716,114.3
		c3.633,3.528,2.146,10.956-3.325,16.59l-108.97,112.225c-5.469,5.633-12.85,7.339-16.483,3.811l-117.715-114.3
		c-3.634-3.529-2.146-10.957,3.325-16.59l108.97-112.224C278.912,693.792,286.292,692.085,289.926,695.614z"/>
	<g id="g4260" transform="matrix(11.52195,0.10195619,-0.10195619,11.52195,187.95611,730.7062)" enable-background="new    ">
		<g id="layer15" transform="translate(-725,251)">
			<path id="path7472" inkscape:connector-curvature="0" fill="#1BA389" d="M730.991-248.373c0,0,0,0.002,0,0.714l0,5.115
				c-0.225-0.081-0.459-0.133-0.712-0.133c-1.179,0-2.135,0.956-2.135,2.135c0,1.179,0.956,2.135,2.135,2.135
				c1.179,0,2.135-0.956,2.135-2.135l0-4.982l4.27,0v2.98c-0.225-0.081-0.459-0.133-0.712-0.133c-1.179,0-2.135,0.956-2.135,2.135
				c0,1.179,0.956,2.135,2.135,2.135c1.179,0,2.135-0.956,2.135-2.135v-7.829c0,0,0,0.003-0.712,0.002L730.991-248.373z"/>
		</g>
	</g>
	<path id="path7472-2" inkscape:connector-curvature="0" opacity="0.3" enable-background="new    " d="M338.648,762.334
		l-0.737,83.475c-0.121,13.586-11.232,24.502-24.818,24.383c-12.363-0.109-22.512-9.322-24.148-21.219
		c-0.139,1.024-0.224,2.065-0.232,3.126c-0.12,13.586,10.796,24.697,24.381,24.816c13.586,0.121,24.697-10.796,24.818-24.382
		l0.798-90.199H338.648L338.648,762.334z M272.818,787.828l-0.507,57.4c-0.12,13.586-11.232,24.503-24.819,24.382
		c-12.363-0.108-22.512-9.322-24.148-21.218c-0.139,1.023-0.223,2.065-0.232,3.125c-0.12,13.586,10.795,24.696,24.38,24.818
		c13.586,0.119,24.699-10.798,24.819-24.383l0.51-57.4l49.139,0.437l0.06-6.724L272.818,787.828z"/>
</g>
</svg>
