<?xml version="1.0" encoding="utf-8"?>
<!-- Generator: Adobe Illustrator 16.0.0, SVG Export Plug-In . SVG Version: 6.00 Build 0)  -->
<!DOCTYPE svg PUBLIC "-//W3C//DTD SVG 1.1//EN" "http://www.w3.org/Graphics/SVG/1.1/DTD/svg11.dtd">
<svg version="1.1" id="Layer_1" xmlns="http://www.w3.org/2000/svg" xmlns:xlink="http://www.w3.org/1999/xlink" x="0px" y="0px"
	 width="512px" height="512px" viewBox="0 0 512 512" enable-background="new 0 0 512 512" xml:space="preserve">
<g id="Layer_1_1_">
	<g id="Layer_2" display="none">
	</g>
	<g id="shadows">
		<g opacity="0.9">
			<g>
				<path fill="#B7B7B7" d="M466.5,381.5c0,48.6-39.4,88-88,88h-246c-48.602,0-88-39.4-88-88V164.833c0-48.601,39.398-88,88-88h246
					c48.6,0,88,39.399,88,88V381.5z"/>
			</g>
		</g>
		<g>
			<g>
				<path fill="#FFFFFF" d="M466.5,360.5c0,48.6-39.4,88-88,88h-246c-48.602,0-88-39.4-88-88V143.833c0-48.601,39.398-88,88-88h246
					c48.6,0,88,39.399,88,88V360.5z"/>
			</g>
		</g>
	</g>
	<radialGradient id="SVGID_1_" cx="254.5002" cy="254.335" r="203.7994" gradientUnits="userSpaceOnUse">
		<stop  offset="0" style="stop-color:#2BC4F3"/>
		<stop  offset="0.5" style="stop-color:#00AEEE"/>
		<stop  offset="1" style="stop-color:#0095DA"/>
	</radialGradient>
	<path fill="url(#SVGID_1_)" stroke="#E2E2E2" stroke-width="10" stroke-miterlimit="10" d="M465.5,146v216.67c0,48.6-39.4,88-88,88
		h-246c-48.6,0-88-39.4-88-88V146c0-48.6,39.4-88,88-88h246C426.1,58,465.5,97.4,465.5,146z"/>
	
		<g id="svg2" xmlns:cc="http://creativecommons.org/ns#" xmlns:svg="http://www.w3.org/2000/svg" xmlns:inkscape="http://www.inkscape.org/namespaces/inkscape" xmlns:dc="http://purl.org/dc/elements/1.1/" xmlns:rdf="http://www.w3.org/1999/02/22-rdf-syntax-ns#" xmlns:sodipodi="http://sodipodi.sourceforge.net/DTD/sodipodi-0.dtd" sodipodi:docname="amazon.svg" inkscape:version="0.48.4 r9939" display="none">
		
			<sodipodi:namedview  bordercolor="#666666" pagecolor="#ffffff" inkscape:zoom="0.51420519" borderopacity="1.0" showgrid="false" inkscape:cy="331.75675" inkscape:cx="125.01135" id="base" inkscape:document-units="px" inkscape:pageshadow="2" inkscape:window-width="1360" inkscape:window-y="25" inkscape:current-layer="layer1" inkscape:window-height="719" inkscape:window-maximized="1" inkscape:window-x="0" inkscape:pageopacity="0.0">
			</sodipodi:namedview>
		<path display="inline" fill="#EF3A24" d="M50.502,119.833h409.995c-12.802-32.778-44.688-56-81.997-56h-246
			C95.188,63.833,63.304,87.055,50.502,119.833z"/>
		<g display="inline">
			<g>
				<rect x="172.5" y="147" fill="none" width="305" height="240"/>
				<text transform="matrix(1 0 0 1 172.4998 336.999)" fill="#FF9900" font-family="'Tahoma'" font-size="250">A</text>
			</g>
		</g>
	</g>
	<ellipse display="none" fill="#B4DFF7" cx="147.5" cy="178" rx="63" ry="61.5"/>
	<circle display="none" fill="#31C4E9" cx="146.5" cy="171.5" r="62"/>
</g>
<g id="Layer_3" display="none">
	<path display="inline" fill="#200A7F" stroke="#18E5EA" stroke-width="20" stroke-miterlimit="10" d="M401.137,212.167
		c5.104,15.338,7.863,31.744,7.863,48.795c0,85.328-69.173,154.5-154.5,154.5c-85.328,0-154.5-69.172-154.5-154.5
		s69.172-154.5,154.5-154.5c51.227,0,96.63,24.93,124.738,63.319"/>
	<path display="inline" fill="#EF0B79" d="M333.363,255.151c0,4.226-3.301,7.651-7.371,7.651H174.872
		c-4.072,0-7.372-3.425-7.372-7.651l0,0c0-4.226,3.3-7.651,7.372-7.651h151.119C330.063,247.5,333.363,250.925,333.363,255.151
		L333.363,255.151z"/>
	<path display="inline" fill="#EF0B79" d="M333.363,284.797c0,4.227-3.301,7.65-7.371,7.65H174.872c-4.072,0-7.372-3.426-7.372-7.65
		l0,0c0-4.227,3.3-7.65,7.372-7.65h151.119C330.063,277.146,333.363,280.57,333.363,284.797L333.363,284.797z"/>
	<path display="inline" fill="#EF0B79" d="M333.363,313.008c0,4.227-3.301,7.651-7.371,7.651H174.872
		c-4.072,0-7.372-3.427-7.372-7.651l0,0c0-4.225,3.3-7.65,7.372-7.65h151.119C330.063,305.357,333.363,308.783,333.363,313.008
		L333.363,313.008z"/>
	<path display="inline" fill="#EF0B79" d="M333.363,338.352c0,4.229-3.301,7.651-7.371,7.651H174.872
		c-4.072,0-7.372-3.426-7.372-7.651l0,0c0-4.225,3.3-7.647,7.372-7.647h151.119C330.063,330.701,333.363,334.127,333.363,338.352
		L333.363,338.352z"/>
	<polygon display="inline" fill="#18E5EA" points="394.991,191.49 320.191,165.163 380.392,113.547 	"/>
	<g display="inline">
		<g>
			<g>
				<path fill="#E9F21C" d="M241.48,239.22c-2.284,0-4.444-1.068-5.833-2.901l-18.76-24.775c-2.44-3.222-1.805-7.81,1.417-10.251
					c3.229-2.442,7.813-1.803,10.253,1.417l12.338,16.293l31.033-49.826c2.135-3.429,6.646-4.478,10.082-2.344
					c3.432,2.135,4.479,6.65,2.342,10.08l-36.658,58.857c-1.272,2.047-3.472,3.333-5.879,3.442
					C241.702,239.217,241.592,239.22,241.48,239.22z"/>
			</g>
		</g>
	</g>
</g>
<g id="Layer_2_1_" display="none">
	<rect x="121" y="171.5" display="inline" fill="none" width="298" height="251"/>
	
		<text transform="matrix(1 0 0 1 120.9998 348.998)" display="inline" fill="#EF3A24" font-family="'MyriadPro-Regular'" font-size="250">24</text>
	<circle display="inline" fill="#FFFFFF" cx="138.25" cy="91.833" r="17.25"/>
	<circle display="inline" fill="#FFFFFF" cx="185.25" cy="91.833" r="17.25"/>
	<circle display="inline" fill="#FFFFFF" cx="232.25" cy="91.833" r="17.25"/>
	<circle display="inline" fill="#FFFFFF" cx="278.25" cy="91.833" r="17.25"/>
	<circle display="inline" fill="#FFFFFF" cx="323.25" cy="91.833" r="17.25"/>
	<circle display="inline" fill="#FFFFFF" cx="368.25" cy="91.833" r="17.25"/>
</g>
<path fill="#F8971D" d="M465.5,165.91v196.76c0,48.6-39.4,88-88,88h-246c-48.6,0-88-39.4-88-88V177.29
	c5.12-12.32,15-36.7,22.25-54.91c7.42-18.62,13.76-33.59,14.08-33.27c0.33,0.32,4.14,10.76,8.47,23.19l7.88,22.6l3.13-0.36
	c1.73-0.2,11.16-0.42,20.96-0.5c15.68-0.12,18.63,0.14,24.49,2.16c3.67,1.26,7.3,2.04,8.08,1.73c0.79-0.31,6.45-8.43,12.6-18.06
	c6.14-9.63,11.5-17.51,11.91-17.51c0.41,0,2.72,14.03,5.12,31.17c2.51,17.87,4.94,31.73,5.69,32.48
	c1.66,1.66,49.25,11.14,50.38,10.04c0.89-0.87,23.37,3.4,24.61,4.67c0.399,0.41-0.28,1.55-1.521,2.54
	c-1.229,0.99-5.63,4.64-9.76,8.12c-8.36,7.03-8.49,7.01-10.56-1.78c-0.74-3.15-1.77-5.08-2.71-5.08c-3.07,0-34.4,7.52-35.35,8.49
	c-0.61,0.62-0.48,4.12,0.33,9.23c0.71,4.53,1.27,12.95,1.23,18.71l-0.07,10.47l11.42,9.9c6.29,5.44,11.46,10.19,11.51,10.56
	c0,0.38-9.74,6.33-21.68,13.22c-26.03,15.021-31.35,18.891-35.86,26.03c-11.89,18.86-9.22,43.811,6.39,59.69
	c19.02,19.37,50.48,18.52,68.12-1.83c6.63-7.66,9-13.04,11.89-27.09l0.609-2.931h39l-0.739,7.03
	c-4.15,39.37-33.82,71.36-72.11,77.77c-4.94,0.82-5.19,3.341-0.53,5.301c5.9,2.479,22.74,4.859,34.391,4.859
	c34.119,0,64.149-12.779,88.68-37.739c24.7-25.141,37.09-55.49,37.3-91.37c0.101-16.811-4.689-38.2-11.67-52.12
	c-1.27-2.55-2.1-4.86-1.84-5.13c0.649-0.66,11.31,12.22,16.31,19.71c5.08,7.63,10.681,18.951,13.801,27.94
	c3.09,8.88,4.029,10.19,5.92,8.261c0.93-0.94,1.84-6.69,2.619-16.48c4.49-56.14-16.649-116.74-55.1-157.97
	c-3.97-4.26-6.61-7.74-5.88-7.74c1.79,0,13.05,6.38,24.09,13.65c29.49,19.4,54.16,47.52,70.13,79.98
	c8.61,17.5,10.76,14.04,5.931-9.57c-4.9-23.97-17.65-57.03-29.53-76.58l-2.92-4.8l4.33,3.49c5.18,4.18,17.109,17.05,25.649,27.69
	C452.27,144.25,459.191,154.62,465.5,165.91z"/>
<path id="path2999" inkscape:connector-curvature="0" fill="#FFFFFF" d="M221.142,208.028c19.013-15.19,19.242-15.433,18.456-19.512
	c-1.564-8.116-2.985-10.356-6.072-9.572c-1.566,0.398-10.021,2.184-18.789,3.968c-8.768,1.785-16.41,3.663-16.984,4.174
	c-0.573,0.511-0.394,4.384,0.399,8.606c0.794,4.222,1.457,12.354,1.474,18.071c0.016,5.717,0.532,10.226,1.147,10.02
	C201.387,223.577,210.554,216.487,221.142,208.028L221.142,208.028z"/>
<path id="path3227" inkscape:connector-curvature="0" fill="#FFFFFF" d="M289.429,309.891c0-4.125-3.426-12.387-6.705-16.167
	c-5.896-6.799-13.523-7.788-20.949-2.719c-5.114,3.493-8.865,10.039-10.287,17.952l-0.649,3.616h19.296
	C288.913,312.573,289.429,312.502,289.429,309.891L289.429,309.891z"/>
<path id="path2989" inkscape:connector-curvature="0" sodipodi:nodetypes="sssssss" d="M235.736,184.695
	c-2.647-8.706-2.86-10.67-2.083-12.116c0.514-0.956,22.511,2.618,23.797,4.758c0.285,0.476-0.301,1.461-1.483,2.442
	c-1.309,1.086-5.295,4.554-9.209,7.802c-3.913,3.248-7.655,5.552-7.98,5.552C238.45,193.133,237.177,189.437,235.736,184.695
	L235.736,184.695z"/>
</svg>
