<?xml version="1.0" encoding="utf-8"?>
<!-- Generator: Adobe Illustrator 16.0.0, SVG Export Plug-In . SVG Version: 6.00 Build 0)  -->
<!DOCTYPE svg PUBLIC "-//W3C//DTD SVG 1.1//EN" "http://www.w3.org/Graphics/SVG/1.1/DTD/svg11.dtd">
<svg version="1.1" id="Layer_1" xmlns="http://www.w3.org/2000/svg" xmlns:xlink="http://www.w3.org/1999/xlink" x="0px" y="0px"
	 width="512px" height="512px" viewBox="0 0 512 512" enable-background="new 0 0 512 512" xml:space="preserve">
<g id="Layer_1_2_">
	<g id="Layer_1_1_">
		<g id="Layer_2" display="none">
		</g>
		<g id="shadows">
			<g opacity="0.9">
				<g>
					<path fill="#B7B7B7" d="M466.5,381.5c0,48.6-39.4,88-88,88h-246c-48.602,0-88-39.4-88-88V164.833c0-48.601,39.398-88,88-88h246
						c48.6,0,88,39.399,88,88V381.5z"/>
				</g>
			</g>
			<g>
				<g>
					<path fill="#FFFFFF" d="M466.5,360.5c0,48.6-39.4,88-88,88h-246c-48.602,0-88-39.4-88-88V143.833c0-48.601,39.398-88,88-88h246
						c48.6,0,88,39.399,88,88V360.5z"/>
				</g>
			</g>
		</g>
		<path fill="#09080D" stroke="#E2E2E2" stroke-width="7" stroke-miterlimit="10" d="M465.5,146v216.67
			c0,42.08-29.53,77.26-69,85.94c-6.12,1.35-12.48,2.06-19,2.06h-246c-30.22,0-56.89-15.24-72.72-38.45
			c-9.65-14.109-15.28-31.17-15.28-49.55V146c0-48.6,39.4-88,88-88h246c6.52,0,12.88,0.71,19,2.06
			C435.97,68.74,465.5,103.92,465.5,146z"/>
	</g>
</g>
<rect x="75.166" y="119.834" fill="none" width="373.333" height="284.666"/>
<text transform="matrix(1 0 0 1 75.1663 153.9136)"><tspan x="0" y="0" fill="#37B44A" font-family="'MyriadPro-Regular'" font-size="48">3242j9324rrerf32u</tspan><tspan x="0" y="57.6" fill="#37B44A" font-family="'MyriadPro-Regular'" font-size="48">3432fe4fgr3234fu</tspan><tspan x="0" y="115.2" fill="#37B44A" font-family="'MyriadPro-Regular'" font-size="48">ewe3424or324532</tspan><tspan x="0" y="172.799" fill="#37B44A" font-family="'MyriadPro-Regular'" font-size="48">3535j9o90iok6okl</tspan><tspan x="0" y="230.401" fill="#37B44A" font-family="'MyriadPro-Regular'" font-size="48">y8uiui89787yi5iou</tspan></text>
</svg>
