<?xml version="1.0" encoding="utf-8"?>
<!-- Generator: Adobe Illustrator 16.0.0, SVG Export Plug-In . SVG Version: 6.00 Build 0)  -->
<!DOCTYPE svg PUBLIC "-//W3C//DTD SVG 1.1//EN" "http://www.w3.org/Graphics/SVG/1.1/DTD/svg11.dtd">
<svg version="1.1" id="Layer_1" xmlns="http://www.w3.org/2000/svg" xmlns:xlink="http://www.w3.org/1999/xlink" x="0px" y="0px"
	 width="512px" height="512px" viewBox="0 0 512 512" enable-background="new 0 0 512 512" xml:space="preserve">
<g id="Layer_1_1_">
	<g id="Layer_2" display="none">
	</g>
	<g id="shadows">
		<g opacity="0.9">
			<g>
				<path fill="#B7B7B7" d="M466.5,381.5c0,48.6-39.4,88-88,88h-246c-48.602,0-88-39.4-88-88V164.833c0-48.601,39.398-88,88-88h246
					c48.6,0,88,39.399,88,88V381.5z"/>
			</g>
		</g>
		<g>
			<g>
				<path fill="#FFFFFF" d="M466.5,360.5c0,48.6-39.4,88-88,88h-246c-48.602,0-88-39.4-88-88V143.833c0-48.601,39.398-88,88-88h246
					c48.6,0,88,39.399,88,88V360.5z"/>
			</g>
		</g>
	</g>
	<path fill="#7552A1" stroke="#E2E2E2" stroke-width="9" stroke-miterlimit="10" d="M465.5,362.667c0,48.6-39.399,88-88,88h-246
		c-48.602,0-88-39.4-88-88V146c0-48.601,39.398-88,88-88h246c48.601,0,88,39.399,88,88V362.667z"/>
</g>
<path id="path66" inkscape:connector-curvature="0" fill="#FFFFFF" d="M243.662,105.044c-18.799,0-34.038,10.55-34.038,23.565
	c0.547,4.855,3.617,10.987,5.237,13.092c7.855,10.474,7.855,17.019,5.892,20.946h-63.494c-11.604,0-20.946,9.341-20.946,20.946
	v53.025c3.927,1.963,10.474,1.963,20.946-5.892c2.105-1.621,8.237-4.689,13.092-5.237c13.015,0,23.565,15.235,23.565,34.038
	c0,18.799-10.55,34.037-23.565,34.037c-3.994-0.066-10.067-3.639-13.092-5.236c-10.474-7.854-17.019-7.854-20.946-5.891v68.733
	c0,11.604,9.342,20.946,20.946,20.946h84.443c1.963-3.927,1.963-10.474-5.891-20.946c-1.62-2.104-4.69-8.236-5.237-13.091
	c0-13.016,15.235-23.566,34.037-23.566c18.799,0,34.038,10.551,34.038,23.566c-0.067,3.993-3.64,10.066-5.237,13.091
	c-7.854,10.474-7.854,17.02-5.891,20.946h37.312c11.604,0,20.946-9.342,20.946-20.946v-58.257
	c3.928-1.964,10.473-1.964,20.945,5.891c3.025,1.597,9.098,5.17,13.092,5.237c13.014,0,23.564-15.235,23.564-34.038
	c0-18.798-10.551-34.038-23.564-34.038c-4.855,0.547-10.986,3.616-13.092,5.237c-10.473,7.855-17.018,7.855-20.945,5.892v-63.494
	c0-11.604-9.343-20.946-20.946-20.946h-58.257c-1.965-3.928-1.965-10.474,5.891-20.947c1.596-3.024,5.169-9.096,5.236-13.091
	c0-13.015-15.234-23.565-34.038-23.565"/>
</svg>
