<?xml version="1.0" encoding="utf-8"?>
<!-- Generator: Adobe Illustrator 16.0.0, SVG Export Plug-In . SVG Version: 6.00 Build 0)  -->
<!DOCTYPE svg PUBLIC "-//W3C//DTD SVG 1.1//EN" "http://www.w3.org/Graphics/SVG/1.1/DTD/svg11.dtd">
<svg version="1.1" id="Layer_1" xmlns="http://www.w3.org/2000/svg" xmlns:xlink="http://www.w3.org/1999/xlink" x="0px" y="0px"
	 width="512px" height="512px" viewBox="0 0 512 512" enable-background="new 0 0 512 512" xml:space="preserve">
<g id="Layer_1_1_">
	<g id="Layer_2" display="none">
	</g>
	<g id="shadows">
		<g opacity="0.9">
			<g>
				<path fill="#B7B7B7" d="M466.5,381.5c0,48.6-39.4,88-88,88h-246c-48.604,0-88-39.4-88-88V164.833c0-48.601,39.396-88,88-88h246
					c48.6,0,88,39.399,88,88V381.5z"/>
			</g>
		</g>
		<g>
			<g>
				<path fill="#FFFFFF" d="M466.5,360.5c0,48.6-39.4,88-88,88h-246c-48.604,0-88-39.4-88-88V143.833c0-48.601,39.396-88,88-88h246
					c48.6,0,88,39.399,88,88V360.5z"/>
			</g>
		</g>
	</g>
	<radialGradient id="SVGID_1_" cx="254.5002" cy="254.3335" r="203.7987" gradientUnits="userSpaceOnUse">
		<stop  offset="0" style="stop-color:#FFE7A3"/>
		<stop  offset="0.5" style="stop-color:#FFCA05"/>
		<stop  offset="1" style="stop-color:#FAAC18"/>
	</radialGradient>
	<path fill="url(#SVGID_1_)" d="M465.5,362.667c0,48.6-39.399,88-88,88h-246c-48.604,0-88-39.4-88-88V146c0-48.601,39.396-88,88-88
		h246c48.601,0,88,39.399,88,88V362.667z"/>
</g>
<path id="path2984" inkscape:connector-curvature="0" fill="#333333" d="M238.549,436.648
	c-25.559-2.242-53.587-11.332-76.075-24.672c-49.343-29.268-81.217-77.777-88.728-135.039c-2.539-19.354-1.25-45.016,3.208-63.857
	c4.705-19.887,14.54-43.067,25-58.92c30.735-46.584,80.107-76.502,135.723-82.244c12.412-1.282,35.424-0.508,47.795,1.607
	c68.252,11.668,122.859,58.651,144.502,124.327c5.849,17.746,8.566,35.676,8.566,56.515c0,22.187-3.084,40.54-10.303,61.325
	c-5.913,17.021-18.688,39.867-30.034,53.709C359.064,417.15,299.974,442.041,238.549,436.648L238.549,436.648z M277.874,366.994
	c11.476-2.332,18.845-4.865,29.321-10.08c19.044-9.48,35.507-24.66,46.882-43.229c12.342-20.146,18.362-46.133,16.063-69.341
	c-2.871-28.988-14.455-53.122-34.983-72.882c-16.218-15.611-35.733-25.821-57.89-30.287c-10.008-2.017-34.048-2.013-43.531,0.007
	c-23.498,5.006-43.137,15.52-59.365,31.784c-19.72,19.76-31.23,44.433-33.487,71.778l-0.595,7.215l-10.017,0.4
	c-9.013,0.361-10.047,0.553-10.308,1.917c-0.387,2.024,32.381,34.958,34.781,34.958c2.067,0,36.015-33.855,35.5-35.403
	c-0.269-0.812-3.11-1.125-11.72-1.293l-11.364-0.222v-2.643c0-8.442,4.676-25.998,9.428-35.392
	c8.846-17.487,26.48-33.98,44.227-41.363c11.957-4.975,20.011-6.559,33.776-6.641c13.129-0.079,17.512,0.549,28.476,4.078
	c13.551,4.361,24.354,11.099,34.91,21.773c17.479,17.675,25.649,37.492,25.649,62.216c0,15.5-2.854,27.394-9.755,40.662
	c-8.917,17.141-22.523,30.283-40.021,38.654c-33.943,16.24-72.726,9.939-100.143-16.27c-2.825-2.699-5.423-4.91-5.774-4.91
	s-4.627,3.508-9.503,7.795c-5.544,4.877-8.864,8.377-8.864,9.348c0,3.404,17.601,18.131,30.08,25.164
	c11.545,6.51,28.6,12.096,41.986,13.754C250.972,369.701,268.171,368.967,277.874,366.994L277.874,366.994z"/>
</svg>
