<?xml version="1.0" encoding="utf-8"?>
<!-- Generator: Adobe Illustrator 16.0.0, SVG Export Plug-In . SVG Version: 6.00 Build 0)  -->
<!DOCTYPE svg PUBLIC "-//W3C//DTD SVG 1.1//EN" "http://www.w3.org/Graphics/SVG/1.1/DTD/svg11.dtd">
<svg version="1.1" id="Layer_1" xmlns="http://www.w3.org/2000/svg" xmlns:xlink="http://www.w3.org/1999/xlink" x="0px" y="0px"
	 width="512px" height="512px" viewBox="0 0 512 512" enable-background="new 0 0 512 512" xml:space="preserve">
<g id="Layer_1_2_">
	<g id="Layer_1_1_">
		<g id="Layer_2" display="none">
			<rect x="91.5" y="101.5" display="inline" fill="none" width="327" height="289"/>
			<text transform="matrix(1 0 0 1 91.4998 110.0195)" display="inline" font-family="'MyriadPro-Regular'" font-size="12">hhfh</text>
			
				<text transform="matrix(1 0 0 1 91.4998 110.0195)" display="inline" fill="none" stroke="#E2E2E2" stroke-width="60" stroke-miterlimit="10" font-family="'MyriadPro-Regular'" font-size="12">hhfh</text>
		</g>
		<g id="shadows">
			<g opacity="0.9">
				<g>
					<path fill="#B7B7B7" d="M466.5,381.5c0,48.6-39.4,88-88,88h-246c-48.604,0-88-39.4-88-88V164.833c0-48.601,39.396-88,88-88h246
						c48.6,0,88,39.399,88,88V381.5z"/>
				</g>
			</g>
			<g>
				<g>
					<path fill="#FFFFFF" d="M466.5,360.5c0,48.6-39.4,88-88,88h-246c-48.604,0-88-39.4-88-88V143.833c0-48.601,39.396-88,88-88h246
						c48.6,0,88,39.399,88,88V360.5z"/>
				</g>
			</g>
		</g>
		<path fill="#4C4FA1" stroke="#E2E2E2" stroke-width="7" stroke-miterlimit="10" d="M465.5,146v216.67
			c0,42.08-29.53,77.26-69,85.94c-6.12,1.35-12.48,2.06-19,2.06h-246c-30.222,0-56.892-15.24-72.722-38.45
			C49.13,398.111,43.5,381.05,43.5,362.67V146c0-48.6,39.398-88,88-88h246c6.52,0,12.88,0.71,19,2.06
			C435.97,68.74,465.5,103.92,465.5,146z"/>
	</g>
</g>
<rect x="116" y="114.5" fill="none" width="471" height="418"/>
<g id="_x31_5_refresh">
	<path fill="#F2F8EE" d="M363.694,244.485c-2.255-0.248-11.521-1.271-12.808-1.414c-6.246-50.293-49.148-90.291-102.422-90.291
		c-57.049,0-103.221,46.166-103.221,103.221c0,57.05,46.166,103.22,103.221,103.22c29.975,0,57.082-12.773,76.044-33.422
		c3.372-3.672,3.13-9.383-0.543-12.758c-3.673-3.373-9.386-3.129-12.758,0.545c-15.571,16.955-37.89,27.576-62.743,27.576
		c-46.958,0-85.162-38.203-85.162-85.162c0-46.959,38.204-85.162,85.162-85.162c41.849,0,76.743,30.342,83.842,70.182
		c-2.512-0.277-0.035-0.004-13.402-1.479c-2.637-0.291-4.595,2.389-3.516,4.813l18.166,40.787c1.069,2.4,4.329,2.76,5.896,0.65
		l26.625-35.842C367.657,247.819,366.331,244.777,363.694,244.485L363.694,244.485z"/>
	<g>
		<path fill="#F2F8EE" d="M363.694,244.485c-2.255-0.249-11.521-1.271-12.808-1.414c-6.246-50.294-49.149-90.291-102.422-90.291
			c-2.117,0-4.217,0.071-6.303,0.196c50.309,3.022,90.095,41.811,96.091,90.095c1.287,0.143,10.552,1.165,12.808,1.414
			c2.637,0.292,3.963,3.334,2.381,5.465l-22.23,29.927l2.344,5.264c1.068,2.4,4.329,2.76,5.896,0.65l26.624-35.841
			C367.657,247.819,366.331,244.777,363.694,244.485z"/>
	</g>
</g>
</svg>
