<?xml version="1.0" encoding="utf-8"?>
<!-- Generator: Adobe Illustrator 16.0.0, SVG Export Plug-In . SVG Version: 6.00 Build 0)  -->
<!DOCTYPE svg PUBLIC "-//W3C//DTD SVG 1.1//EN" "http://www.w3.org/Graphics/SVG/1.1/DTD/svg11.dtd">
<svg version="1.1" id="Layer_1" xmlns="http://www.w3.org/2000/svg" xmlns:xlink="http://www.w3.org/1999/xlink" x="0px" y="0px"
	 width="512px" height="512px" viewBox="0 0 512 512" enable-background="new 0 0 512 512" xml:space="preserve">
<g id="Layer_1_2_">
	<g id="Layer_1_1_">
		<g id="Layer_2" display="none">
		</g>
		<g id="shadows">
			<g opacity="0.9">
				<g>
					<path fill="#B7B7B7" d="M466.5,381.5c0,48.6-39.4,88-88,88h-246c-48.603,0-88-39.4-88-88V164.833c0-48.601,39.397-88,88-88h246
						c48.6,0,88,39.399,88,88V381.5z"/>
				</g>
			</g>
			<g>
				<g>
					<path fill="#FFFFFF" d="M466.5,360.5c0,48.6-39.4,88-88,88h-246c-48.603,0-88-39.4-88-88V143.833c0-48.601,39.397-88,88-88h246
						c48.6,0,88,39.399,88,88V360.5z"/>
				</g>
			</g>
		</g>
		<path fill="#FFF200" stroke="#E2E2E2" stroke-width="7" stroke-miterlimit="10" d="M465.5,146v216.67
			c0,42.08-29.53,77.26-69,85.94c-6.12,1.35-12.48,2.06-19,2.06h-246c-30.221,0-56.891-15.24-72.721-38.45
			C49.13,398.111,43.5,381.05,43.5,362.67V146c0-48.6,39.399-88,88-88h246c6.52,0,12.88,0.71,19,2.06
			C435.97,68.74,465.5,103.92,465.5,146z"/>
	</g>
</g>
<rect x="75.166" y="119.834" fill="none" width="373.332" height="284.666"/>
<g>
	<g>
		<g>
			<path fill="#7C8B96" d="M113.252,357.795c-9.669,0-17.508-7.84-17.508-17.509V177.654c0-9.669,7.839-17.508,17.508-17.508
				c9.67,0,17.509,7.839,17.509,17.508v162.632C130.761,349.955,122.923,357.795,113.252,357.795z"/>
		</g>
	</g>
	<g>
		<g>
			<path fill="#7C8B96" d="M207.418,357.795c-9.67,0-17.509-7.84-17.509-17.509V177.654c0-9.669,7.839-17.508,17.509-17.508
				c9.669,0,17.508,7.839,17.508,17.508v162.632C224.926,349.955,217.087,357.795,207.418,357.795z"/>
		</g>
	</g>
	<g>
		<g>
			<path fill="#7C8B96" d="M301.582,357.795c-9.669,0-17.509-7.84-17.509-17.509V177.654c0-9.669,7.84-17.508,17.509-17.508
				s17.508,7.839,17.508,17.508v162.632C319.09,349.955,311.252,357.795,301.582,357.795z"/>
		</g>
	</g>
	<g>
		<g>
			<path fill="#7C8B96" d="M395.747,357.795c-9.669,0-17.509-7.84-17.509-17.509V177.654c0-9.669,7.84-17.508,17.509-17.508
				s17.508,7.839,17.508,17.508v162.632C413.255,349.955,405.416,357.795,395.747,357.795z"/>
		</g>
	</g>
	<g>
		<path fill="#465961" d="M116.087,160.395c0.151,0.925,0.25,1.867,0.25,2.834v162.633c0,9.669-7.839,17.508-17.508,17.508
			c-0.967,0-1.909-0.1-2.834-0.25c1.357,8.318,8.556,14.674,17.258,14.674c9.67,0,17.509-7.839,17.509-17.508V177.654
			C130.761,168.951,124.406,161.753,116.087,160.395z"/>
	</g>
	<g>
		<path fill="#465961" d="M210.252,160.395c0.15,0.925,0.25,1.867,0.25,2.834v162.633c0,9.669-7.84,17.508-17.509,17.508
			c-0.967,0-1.91-0.1-2.834-0.25c1.357,8.318,8.557,14.674,17.259,14.674c9.669,0,17.508-7.839,17.508-17.508V177.654
			C224.926,168.951,218.57,161.753,210.252,160.395z"/>
	</g>
	<g>
		<path fill="#465961" d="M304.417,160.395c0.151,0.925,0.25,1.867,0.25,2.834v162.633c0,9.669-7.839,17.508-17.509,17.508
			c-0.967,0-1.908-0.1-2.834-0.25c1.357,8.318,8.557,14.674,17.259,14.674c9.669,0,17.508-7.839,17.508-17.508V177.654
			C319.09,168.951,312.735,161.753,304.417,160.395L304.417,160.395z"/>
	</g>
	<g>
		<path fill="#465961" d="M398.581,160.395c0.151,0.925,0.25,1.867,0.25,2.834v162.633c0,9.669-7.839,17.508-17.509,17.508
			c-0.967,0-1.909-0.1-2.834-0.25c1.357,8.318,8.557,14.674,17.259,14.674c9.669,0,17.508-7.839,17.508-17.508V177.654
			C413.255,168.951,406.9,161.753,398.581,160.395L398.581,160.395z"/>
	</g>
	<g>
		<circle fill="#DD636E" cx="395.747" cy="267.67" r="30.584"/>
	</g>
	<g>
		<circle fill="#1690FB" cx="113.253" cy="225.19" r="30.585"/>
	</g>
	<g>
		<circle fill="#F9C301" cx="207.418" cy="299.501" r="30.584"/>
	</g>
	<g>
		<circle fill="#1690FB" cx="302.313" cy="225.19" r="30.585"/>
	</g>
	<g>
		<path fill="#D82E3D" d="M409.046,240.123c1.945,4.021,3.036,8.532,3.036,13.299c0,16.892-13.693,30.584-30.584,30.584
			c-4.767,0-9.278-1.09-13.3-3.035c4.947,10.229,15.424,17.285,27.549,17.285c16.891,0,30.584-13.693,30.584-30.585
			C426.331,255.546,419.276,245.07,409.046,240.123z"/>
	</g>
	<g>
		<path fill="#0571F9" d="M126.553,197.642c1.944,4.021,3.036,8.533,3.036,13.299c0,16.891-13.693,30.584-30.585,30.584
			c-4.766,0-9.278-1.091-13.299-3.036c4.947,10.229,15.423,17.285,27.548,17.285c16.892,0,30.585-13.692,30.585-30.584
			C143.838,213.065,136.781,202.589,126.553,197.642z"/>
	</g>
	<g>
		<path fill="#D4A806" d="M220.717,271.954c1.945,4.021,3.036,8.533,3.036,13.3c0,16.891-13.693,30.584-30.585,30.584
			c-4.766,0-9.277-1.092-13.299-3.036c4.947,10.229,15.423,17.285,27.549,17.285c16.891,0,30.584-13.692,30.584-30.585
			C238.002,287.377,230.947,276.901,220.717,271.954z"/>
	</g>
	<g>
		<path fill="#0571F9" d="M315.613,197.642c1.944,4.021,3.035,8.533,3.035,13.299c0,16.891-13.692,30.584-30.584,30.584
			c-4.766,0-9.278-1.091-13.299-3.036c4.947,10.229,15.423,17.285,27.548,17.285c16.892,0,30.585-13.692,30.585-30.584
			C332.898,213.065,325.841,202.589,315.613,197.642L315.613,197.642z"/>
	</g>
</g>
</svg>
