<?xml version="1.0" encoding="utf-8"?>
<!-- Generator: Adobe Illustrator 24.0.1, SVG Export Plug-In . SVG Version: 6.00 Build 0)  -->
<svg version="1.1" id="Layer_1" xmlns="http://www.w3.org/2000/svg" xmlns:xlink="http://www.w3.org/1999/xlink" x="0px" y="0px"
	 viewBox="0 0 512 512" style="enable-background:new 0 0 512 512;" xml:space="preserve">
<style type="text/css">
	.st0{fill:#3B5999;}
	.st1{fill:#FF8087;}
	.st2{fill:#AFD755;}
	.st3{fill:#96BE4B;}
	.st4{fill:#FFDC64;}
	.st5{fill:#FFC850;}
	.st6{fill:#4B3F4E;}
	.st7{display:none;}
	.st8{opacity:0.9;}
	.st9{fill:#B7B7B7;}
	.st10{fill:#FFFFFF;}
	.st11{fill:url(#SVGID_1_);stroke:#E2E2E2;stroke-width:10;stroke-miterlimit:10;}
	.st12{display:inline;fill:#EF3A24;}
	.st13{display:inline;}
	.st14{fill:none;}
	.st15{fill:#FF9900;}
	.st16{font-family:'Tahoma';}
	.st17{font-size:250px;}
	.st18{display:none;fill:#B4DFF7;}
	.st19{display:none;fill:#31C4E9;}
	.st20{display:inline;fill:#200A7F;stroke:#18E5EA;stroke-width:20;stroke-miterlimit:10;}
	.st21{display:inline;fill:#EF0B79;}
	.st22{display:inline;fill:#18E5EA;}
	.st23{fill:#E9F21C;}
	.st24{display:inline;fill:none;}
	.st25{font-family:'MyriadPro-Regular';}
	.st26{display:inline;fill:#FFFFFF;}
	.st27{fill:url(#SVGID_2_);stroke:url(#SVGID_3_);stroke-width:8;stroke-miterlimit:10;}
	.st28{fill:none;stroke:#FFFFFF;stroke-width:20;stroke-miterlimit:10;}
</style>
<path class="st0" d="M217,99.4l9.5,6.6L238,89.5c-1.5-1.4-6.8-5.8-13.3-10.4c-30-20.9-45.6,18.8-50.2,22.9l-15.1-10.5L146.5,110
	l15.1,10.5L129.2,167l18.5,12.9l32.4-46.5l14.5,10.1l15.2-16.9L193,115C202.3,103.3,204.8,90.9,217,99.4L217,99.4z"/>
<g>
	<path d="M336,90.6h38.3v-5.9c0-2.1,1.7-3.8,3.8-3.8h21.1c2.1,0,3.8,1.7,3.8,3.8v5.9h37.8c1.3,0,2.3,1.1,2.3,2.3v11.5H333.6V92.9
		C333.6,91.7,334.7,90.6,336,90.6L336,90.6z M342.3,110.6h92.9c1.9,0,3.7,1.6,3.5,3.5l-7.9,86.2c-0.2,1.9-1.6,3.5-3.5,3.5H350
		c-1.9,0-3.4-1.6-3.5-3.5l-7.8-86.2C338.6,112.2,340.4,110.6,342.3,110.6L342.3,110.6z M402.7,124h9.9v65.3h-9.9V124L402.7,124z
		 M363.7,124h9.9v65.3h-9.9V124L363.7,124z M383.2,124h9.9v65.3h-9.9V124L383.2,124z"/>
</g>
<g>
	<g>
		<path d="M80.7,151.5c17.2,12.6,38.9,6.8,58,1.7c16.3-4.3,31.8-8.4,41.6-1.2c10.3,7.5,8.9,22.6,3.3,30.2c-5.1,7-19.5,12.1-30.3,4.2
			c-10.5-7.7-9.8-20.1-9.8-20.7c0.3-4-2.7-7.5-6.7-7.8s-7.6,2.6-7.9,6.7c-0.1,0.9-1.6,21.1,15.8,33.7c17.4,12.7,40.7,6.3,50.7-7.4
			c10.3-14.1,10.2-38.4-6.5-50.6c-15.5-11.3-35.1-6.1-54-1.1c-17.5,4.6-34,9-45.6,0.6c-6.9-5-9.7-10.7-8.6-17.2
			c0.9-5.7,4.4-10.4,5.6-12c0.7-0.9,4.6-5.3,10-7.8c6.1-2.9,11.5-2.4,16.8,1.5c10.8,7.9,11.5,19.2,11.8,23.4
			c0.1,1.1,0.1,1.9,0.3,2.8c0.9,3.9,4.9,6.4,8.8,5.4c3.8-0.9,6.2-4.6,5.5-8.4c0-0.2,0-0.5,0-0.7c-0.3-5.5-1.4-22.4-17.7-34.3
			c-19.9-14.5-40.4,0.2-47.3,9.6c-4.4,6-7.1,12.1-8.1,18.2C64.8,128.6,66.2,140.9,80.7,151.5z"/>
	</g>
</g>
<g>
	<g>
		<path class="st1" d="M280.9,94.7c-0.5-0.8-1.6-1-2.4-0.4l-11.4,8.1h-4.6c-0.9,0-1.7,0.8-1.7,1.7s0.8,1.7,1.7,1.7h2.8l-1,2.9
			c-0.3,0.9,0.2,1.9,1.1,2.2c0.2,0.1,0.4,0.1,0.5,0.1c0.7,0,1.4-0.5,1.6-1.2l1.5-4.6l11.4-8C281.3,96.5,281.4,95.5,280.9,94.7z"/>
		<path class="st2" d="M348,165.5c20.8-9,21.8-20.6,20.3-25.3c-1.7-5.4-15.1-20.1-58.9-17.4l-3.5,8.2c10.6-1.6,20.7-1.3,28.5,0.4
			c13,2.9,23,8.3,20.3,15.6c-3.4,8.8-22,14.6-35.8,14.6c-2.3,0-6.1-0.1-9.4-1l-11,7.7C310.9,173.7,331.2,172.8,348,165.5z"/>
		<path class="st3" d="M306.3,129.7l-0.5,1.4c10.6-1.6,20.7-1.3,28.5,0.4c13,2.9,23,8.3,20.3,15.6c-1.6,4.3-6.9,7.8-13.5,10.4
			c12.3-4,22.4-10.5,20-17.2C358.4,132.4,337.5,122.8,306.3,129.7z"/>
		<path class="st3" d="M345.7,116.5c-2.5,0.2-11.3,1.6-17.7,20.3c-2.3,6.8-8.7,32.3-40.3,31.8c-12.4-0.2-20.3-10.7-19.8-21
			c-2.4,16.7,15.3,34,43,19.7C335.8,154.4,327.9,125.9,345.7,116.5z"/>
		<path class="st4" d="M297.1,162.9c-10.6-14.5-0.4-35,3.8-43.5c4.4-9,2.9-20.3,2.9-20.3c-3,1.9-12.5,3.7-12.5,3.7s0.4,3.1-5.4,24
			c-2.8,10-5.5,25.1,4.2,35.9C292.3,163.1,294.7,163.2,297.1,162.9z"/>
		<path class="st5" d="M295.8,94.6c-9.6,3.7-15.9,3.9-19.5,2.6l0,0c5.3,12.3,27.5,2.2,27.5,1.8C303.7,93.9,299.9,93,295.8,94.6z"/>
		<g>
			<path class="st2" d="M314.8,105.1c2.7-26.2-24.9-32.3-40.9-14.8c-2.2,2.4-1.5,5.6,2.5,7c0.4,1.2,3,7.2,14.9,5.5
				c0,0,0.4,3.1-5.4,24c-2.8,10.2-5.6,25.8,4.9,36.7c1.8,1.9,4.2,3.5,7,4.7c5.1-2,10-4.3,14.5-6.9c-2.7-0.4-5.5-1.1-7.3-2.4
				c-9-6.3-4.4-15.8,1.3-27.9C307.8,127.6,313.9,114.1,314.8,105.1z"/>
			<path class="st2" d="M311.3,157c-14.2,10.3-29.7,6.4-32.8-3c-2.4-7.2,1.8-12.5,5.5-15.6l2.4-11c-7.9,3.1-14.6,9.2-17,14.8
				c-7.8,17.9,10.7,41,41.4,25.1c25-12.9,17.1-41.4,34.9-50.8c0.6-0.3,0.4-1.3-0.4-1.3C325.8,117.4,324.6,147.4,311.3,157z"/>
		</g>
	</g>
	<path class="st6" d="M291.2,92.4c-1.2,0-2.1-1-2.1-2.1v-1.7c0-1.2,1-2.1,2.1-2.1c1.2,0,2.1,1,2.1,2.1v1.7
		C293.4,91.4,292.4,92.4,291.2,92.4z"/>
</g>
<g id="Layer_1_1_">
	<g id="Layer_2_1_" class="st7">
	</g>
	<g id="shadows">
		<g class="st8">
			<g>
				<path class="st9" d="M465.5,151.5c-1.4-8.8-4-17.2-7.8-25H55.4c-0.9,1.1-2.1,2.1-3.5,2.9c-4.8,10.8-7.5,22.9-7.5,35.5v216.7
					c0,48.6,39.4,88,88,88h246c48.6,0,88-39.4,88-88V164.8C466.5,160.3,466.2,155.9,465.5,151.5z"/>
			</g>
		</g>
		<g>
			<g>
				<path class="st10" d="M464.8,126.5c-8-40.3-43.6-70.7-86.3-70.7h-246c-32.4,0-60.8,17.5-76,43.7c0.1,0,0.2,0.1,0.2,0.2
					C72.2,74.6,99.9,58,131.5,58h246c41.9,0,77,29.3,85.8,68.5H55.4c-2.1,2.6-5.3,4.3-9.6,4.3c-0.1,0-0.2,0-0.4,0
					c-0.6,4.3-1,8.6-1,13v216.7c0,48.6,39.4,88,88,88h246c35.1,0,65.4-20.5,79.5-50.2c5.5-11.5,8.5-24.3,8.5-37.8V143.8
					C466.5,137.9,465.9,132.1,464.8,126.5z"/>
			</g>
		</g>
	</g>
	
		<linearGradient id="SVGID_1_" gradientUnits="userSpaceOnUse" x1="43.5" y1="224.6756" x2="465.5" y2="224.6756" gradientTransform="matrix(1 0 0 -1 0 513.2756)">
		<stop  offset="0" style="stop-color:#64C08A"/>
		<stop  offset="0.5" style="stop-color:#00A550"/>
		<stop  offset="1" style="stop-color:#00914C"/>
	</linearGradient>
	<path class="st11" d="M463.3,126.5H55.4c-2.1,2.6-5.3,4.3-9.6,4.3c-0.3,0-0.7,0-1,0c-0.9,5-1.3,10-1.3,15.2v216.7
		c0,4.5,0.3,9,1,13.3c6.4,42.3,42.9,74.7,87,74.7h246c35.9,0,66.8-21.5,80.5-52.4c4.8-10.9,7.5-22.9,7.5-35.6V146
		C465.5,139.3,464.8,132.8,463.3,126.5z"/>
	
		<g id="svg2" xmlns:cc="http://creativecommons.org/ns#" xmlns:dc="http://purl.org/dc/elements/1.1/" xmlns:inkscape="http://www.inkscape.org/namespaces/inkscape" xmlns:rdf="http://www.w3.org/1999/02/22-rdf-syntax-ns#" xmlns:sodipodi="http://sodipodi.sourceforge.net/DTD/sodipodi-0.dtd" xmlns:svg="http://www.w3.org/2000/svg" class="st7">
		
			<sodipodi:namedview  bordercolor="#666666" borderopacity="1.0" id="base" inkscape:current-layer="layer1" inkscape:cx="125.01135" inkscape:cy="331.75675" inkscape:document-units="px" inkscape:pageopacity="0.0" inkscape:pageshadow="2" inkscape:window-height="719" inkscape:window-maximized="1" inkscape:window-width="1360" inkscape:window-x="0" inkscape:window-y="25" inkscape:zoom="0.51420519" pagecolor="#ffffff" showgrid="false">
			</sodipodi:namedview>
		<path class="st12" d="M50.5,119.8h410c-12.8-32.8-44.7-56-82-56h-246C95.2,63.8,63.3,87.1,50.5,119.8z"/>
		<g class="st13">
			<g>
				<rect x="172.5" y="147" class="st14" width="305" height="240"/>
				<text transform="matrix(1 0 0 1 172.4998 336.999)" class="st15 st16 st17">A</text>
			</g>
		</g>
	</g>
	<ellipse class="st18" cx="147.5" cy="178" rx="63" ry="61.5"/>
	<circle class="st19" cx="146.5" cy="171.5" r="62"/>
</g>
<g id="Layer_3" class="st7">
	<path class="st20" d="M401.1,212.2c5.1,15.3,7.9,31.7,7.9,48.8c0,85.3-69.2,154.5-154.5,154.5S100,346.3,100,261
		s69.2-154.5,154.5-154.5c51.2,0,96.6,24.9,124.7,63.3"/>
	<path class="st21" d="M333.4,255.2c0,4.2-3.3,7.7-7.4,7.7H174.9c-4.1,0-7.4-3.4-7.4-7.7l0,0c0-4.2,3.3-7.7,7.4-7.7H326
		C330.1,247.5,333.4,250.9,333.4,255.2L333.4,255.2z"/>
	<path class="st21" d="M333.4,284.8c0,4.2-3.3,7.6-7.4,7.6H174.9c-4.1,0-7.4-3.4-7.4-7.6l0,0c0-4.2,3.3-7.6,7.4-7.6H326
		C330.1,277.1,333.4,280.6,333.4,284.8L333.4,284.8z"/>
	<path class="st21" d="M333.4,313c0,4.2-3.3,7.7-7.4,7.7H174.9c-4.1,0-7.4-3.4-7.4-7.7l0,0c0-4.2,3.3-7.6,7.4-7.6H326
		C330.1,305.4,333.4,308.8,333.4,313L333.4,313z"/>
	<path class="st21" d="M333.4,338.4c0,4.2-3.3,7.7-7.4,7.7H174.9c-4.1,0-7.4-3.4-7.4-7.7l0,0c0-4.2,3.3-7.6,7.4-7.6H326
		C330.1,330.7,333.4,334.1,333.4,338.4L333.4,338.4z"/>
	<polygon class="st22" points="395,191.5 320.2,165.2 380.4,113.5 	"/>
	<g class="st13">
		<g>
			<g>
				<path class="st23" d="M241.5,239.2c-2.3,0-4.4-1.1-5.8-2.9l-18.8-24.8c-2.4-3.2-1.8-7.8,1.4-10.3c3.2-2.4,7.8-1.8,10.3,1.4
					l12.3,16.3l31-49.8c2.1-3.4,6.6-4.5,10.1-2.3c3.4,2.1,4.5,6.6,2.3,10.1l-36.7,58.9c-1.3,2-3.5,3.3-5.9,3.4
					C241.7,239.2,241.6,239.2,241.5,239.2z"/>
			</g>
		</g>
	</g>
</g>
<g id="Layer_2_2_" class="st7">
	<rect x="121" y="171.5" class="st24" width="298" height="251"/>
	<text transform="matrix(1 0 0 1 120.9998 348.998)" class="st12 st25 st17">24</text>
	<circle class="st26" cx="138.3" cy="91.8" r="17.3"/>
	<circle class="st26" cx="185.3" cy="91.8" r="17.3"/>
	<circle class="st26" cx="232.3" cy="91.8" r="17.3"/>
	<circle class="st26" cx="278.3" cy="91.8" r="17.3"/>
	<circle class="st26" cx="323.3" cy="91.8" r="17.3"/>
	<circle class="st26" cx="368.3" cy="91.8" r="17.3"/>
</g>
<g>
	
		<linearGradient id="SVGID_2_" gradientUnits="userSpaceOnUse" x1="43.5" y1="457.4256" x2="465.5" y2="457.4256" gradientTransform="matrix(1 0 0 -1 0 513.2756)">
		<stop  offset="0" style="stop-color:#64C08A"/>
		<stop  offset="0.5" style="stop-color:#00A550"/>
		<stop  offset="1" style="stop-color:#00914C"/>
	</linearGradient>
	
		<radialGradient id="SVGID_3_" cx="254.5" cy="376.15" r="153.7183" gradientTransform="matrix(1 0 0 -1 0 432)" gradientUnits="userSpaceOnUse">
		<stop  offset="5.600000e-03" style="stop-color:#FFFEEE"/>
		<stop  offset="0.2849" style="stop-color:#F3F4E9"/>
		<stop  offset="0.7472" style="stop-color:#D7DADE"/>
		<stop  offset="0.8764" style="stop-color:#DCD8D4"/>
	</radialGradient>
	<path class="st27" d="M465.5,56.4c0-3.1-4.1-5.6-9-5.6H310.6V36.7c0-5-6.5-9-14.5-9h-81.5c-8,0-14.5,4.1-14.5,9v14.1H52.5
		c-5,0-9,2.5-9,5.6V84h422V56.4L465.5,56.4z"/>
</g>
<line class="st28" x1="195.8" y1="169.2" x2="195.8" y2="416.5"/>
<line class="st28" x1="244.7" y1="169.2" x2="244.7" y2="416.5"/>
<line class="st28" x1="293.5" y1="169.2" x2="293.5" y2="416.5"/>
</svg>
