<?xml version="1.0" encoding="utf-8"?>
<!-- Generator: Adobe Illustrator 16.0.0, SVG Export Plug-In . SVG Version: 6.00 Build 0)  -->
<!DOCTYPE svg PUBLIC "-//W3C//DTD SVG 1.1//EN" "http://www.w3.org/Graphics/SVG/1.1/DTD/svg11.dtd">
<svg version="1.1" id="Layer_1" xmlns="http://www.w3.org/2000/svg" xmlns:xlink="http://www.w3.org/1999/xlink" x="0px" y="0px"
	 width="512px" height="512px" viewBox="0 0 512 512" enable-background="new 0 0 512 512" xml:space="preserve">
<g id="Layer_1_1_">
	<g id="Layer_2" display="none">
	</g>
	<g id="shadows">
		<g opacity="0.9">
			<g>
				<path fill="#B7B7B7" d="M466.5,381.5c0,48.6-39.4,88-88,88h-246c-48.601,0-88-39.4-88-88V164.833c0-48.601,39.399-88,88-88h246
					c48.6,0,88,39.399,88,88V381.5z"/>
			</g>
		</g>
		<g>
			<g>
				<path fill="#FFFFFF" d="M466.5,360.5c0,48.6-39.4,88-88,88h-246c-48.601,0-88-39.4-88-88V143.833c0-48.601,39.399-88,88-88h246
					c48.6,0,88,39.399,88,88V360.5z"/>
			</g>
		</g>
	</g>
	
		<radialGradient id="SVGID_1_" cx="254.5" cy="812.334" r="203.7985" gradientTransform="matrix(1 0 0 1 0 -558)" gradientUnits="userSpaceOnUse">
		<stop  offset="0" style="stop-color:#64BC6B"/>
		<stop  offset="0.5" style="stop-color:#008837"/>
		<stop  offset="1" style="stop-color:#006F2D"/>
	</radialGradient>
	<path fill="url(#SVGID_1_)" stroke="#E2E2E2" stroke-width="10" stroke-miterlimit="10" d="M465.5,362.667c0,48.6-39.399,88-88,88
		h-246c-48.601,0-88-39.4-88-88V146c0-48.601,39.399-88,88-88h246c48.601,0,88,39.399,88,88V362.667z"/>
	
		<g id="svg2" sodipodi:docname="amazon.svg" inkscape:version="0.48.4 r9939" xmlns:svg="http://www.w3.org/2000/svg" xmlns:inkscape="http://www.inkscape.org/namespaces/inkscape" xmlns:dc="http://purl.org/dc/elements/1.1/" xmlns:cc="http://creativecommons.org/ns#" xmlns:rdf="http://www.w3.org/1999/02/22-rdf-syntax-ns#" xmlns:sodipodi="http://sodipodi.sourceforge.net/DTD/sodipodi-0.dtd" display="none">
		
			<sodipodi:namedview  inkscape:cx="125.01135" inkscape:cy="331.75675" showgrid="false" borderopacity="1.0" inkscape:zoom="0.51420519" pagecolor="#ffffff" id="base" bordercolor="#666666" inkscape:window-y="25" inkscape:current-layer="layer1" inkscape:window-x="0" inkscape:window-height="719" inkscape:pageshadow="2" inkscape:document-units="px" inkscape:window-width="1360" inkscape:window-maximized="1" inkscape:pageopacity="0.0">
			</sodipodi:namedview>
		<path display="inline" fill="#EF3A24" d="M50.502,119.833h409.996c-12.802-32.778-44.688-56-81.998-56h-246
			C95.188,63.833,63.304,87.055,50.502,119.833z"/>
		<g display="inline">
			<g>
				<rect x="172.5" y="147" fill="none" width="305" height="240"/>
				<text transform="matrix(1 0 0 1 172.5 336.999)" fill="#FF9900" font-family="'Tahoma'" font-size="250">A</text>
			</g>
		</g>
	</g>
	<ellipse display="none" fill="#B4DFF7" cx="147.5" cy="178" rx="63" ry="61.5"/>
	<circle display="none" fill="#31C4E9" cx="146.5" cy="171.5" r="62"/>
</g>
<g id="Layer_3" display="none">
	<path display="inline" fill="#200A7F" stroke="#18E5EA" stroke-width="20" stroke-miterlimit="10" d="M401.137,212.167
		c5.104,15.338,7.863,31.744,7.863,48.795c0,85.328-69.172,154.5-154.5,154.5S100,346.29,100,260.962s69.172-154.5,154.5-154.5
		c51.227,0,96.63,24.93,124.739,63.319"/>
	<path display="inline" fill="#EF0B79" d="M333.363,255.151c0,4.226-3.301,7.651-7.371,7.651h-151.12
		c-4.072,0-7.372-3.425-7.372-7.651l0,0c0-4.226,3.3-7.651,7.372-7.651h151.12C330.063,247.5,333.363,250.925,333.363,255.151
		L333.363,255.151z"/>
	<path display="inline" fill="#EF0B79" d="M333.363,284.797c0,4.227-3.301,7.65-7.371,7.65h-151.12c-4.072,0-7.372-3.426-7.372-7.65
		l0,0c0-4.227,3.3-7.65,7.372-7.65h151.12C330.063,277.146,333.363,280.57,333.363,284.797L333.363,284.797z"/>
	<path display="inline" fill="#EF0B79" d="M333.363,313.008c0,4.227-3.301,7.651-7.371,7.651h-151.12
		c-4.072,0-7.372-3.427-7.372-7.651l0,0c0-4.225,3.3-7.65,7.372-7.65h151.12C330.063,305.357,333.363,308.783,333.363,313.008
		L333.363,313.008z"/>
	<path display="inline" fill="#EF0B79" d="M333.363,338.352c0,4.228-3.301,7.651-7.371,7.651h-151.12
		c-4.072,0-7.372-3.426-7.372-7.651l0,0c0-4.225,3.3-7.648,7.372-7.648h151.12C330.063,330.701,333.363,334.127,333.363,338.352
		L333.363,338.352z"/>
	<polygon display="inline" fill="#18E5EA" points="394.992,191.49 320.191,165.163 380.392,113.547 	"/>
	<g display="inline">
		<g>
			<g>
				<path fill="#E9F21C" d="M241.48,239.22c-2.284,0-4.445-1.068-5.833-2.901l-18.76-24.775c-2.44-3.222-1.805-7.81,1.417-10.251
					c3.228-2.442,7.813-1.803,10.253,1.417l12.338,16.293l31.033-49.826c2.135-3.429,6.646-4.478,10.082-2.344
					c3.432,2.135,4.479,6.65,2.342,10.08l-36.658,58.857c-1.273,2.047-3.472,3.333-5.879,3.442
					C241.702,239.217,241.592,239.22,241.48,239.22z"/>
			</g>
		</g>
	</g>
</g>
<g id="Layer_2_1_" display="none">
	<rect x="121" y="171.5" display="inline" fill="none" width="298" height="251"/>
	
		<text transform="matrix(1 0 0 1 121 348.998)" display="inline" fill="#EF3A24" font-family="'MyriadPro-Regular'" font-size="250">24</text>
	<circle display="inline" fill="#FFFFFF" cx="138.25" cy="91.833" r="17.25"/>
	<circle display="inline" fill="#FFFFFF" cx="185.25" cy="91.833" r="17.25"/>
	<circle display="inline" fill="#FFFFFF" cx="232.25" cy="91.833" r="17.25"/>
	<circle display="inline" fill="#FFFFFF" cx="278.25" cy="91.833" r="17.25"/>
	<circle display="inline" fill="#FFFFFF" cx="323.25" cy="91.833" r="17.25"/>
	<circle display="inline" fill="#FFFFFF" cx="368.25" cy="91.833" r="17.25"/>
</g>
<g>
	
		<image overflow="visible" opacity="0.75" width="54" height="358" xlink:href="48DFE27C.png"  transform="matrix(1 0 0 1 235.5 86.5)">
	</image>
	<g>
		<rect x="247.709" y="98.724" fill="#FFFFFF" width="16.121" height="319.896"/>
		
			<rect x="247.709" y="98.724" fill="none" stroke="#FFFFFF" stroke-width="7" stroke-miterlimit="10" width="16.121" height="319.896"/>
	</g>
</g>
<g>
	
		<image overflow="visible" opacity="0.75" width="364" height="51" xlink:href="48DFE27D.png"  transform="matrix(1 0 0 1 82.5 239.5)">
	</image>
	<g>
		<rect x="94.973" y="251.318" fill="#FFFFFF" width="325.836" height="13.011"/>
		
			<rect x="94.973" y="251.318" fill="none" stroke="#FFFFFF" stroke-width="7" stroke-miterlimit="10" width="325.836" height="13.011"/>
	</g>
</g>
<g>
	
		<image overflow="visible" opacity="0.75" width="373" height="373" xlink:href="48DFE27B.png"  transform="matrix(1 0 0 1 76.5 78.5)">
	</image>
	<g>
		<circle fill="none" stroke="#FFFFFF" stroke-width="20" stroke-miterlimit="10" cx="255.77" cy="258.248" r="160.797"/>
	</g>
</g>
</svg>
