<?xml version="1.0" encoding="utf-8"?>
<!-- Generator: Adobe Illustrator 16.0.0, SVG Export Plug-In . SVG Version: 6.00 Build 0)  -->
<!DOCTYPE svg PUBLIC "-//W3C//DTD SVG 1.1//EN" "http://www.w3.org/Graphics/SVG/1.1/DTD/svg11.dtd">
<svg version="1.1" id="Layer_1" xmlns="http://www.w3.org/2000/svg" xmlns:xlink="http://www.w3.org/1999/xlink" x="0px" y="0px"
	 width="512px" height="512px" viewBox="0 0 512 512" enable-background="new 0 0 512 512" xml:space="preserve">
<g id="Layer_1_1_">
	<g id="Layer_2" display="none">
	</g>
	<g id="shadows">
		<g opacity="0.9">
			<g>
				<path fill="#B7B7B7" d="M466.5,381.5c0,48.6-39.4,88-88,88h-246c-48.601,0-88-39.4-88-88V164.833c0-48.601,39.399-88,88-88h246
					c48.6,0,88,39.399,88,88V381.5z"/>
			</g>
		</g>
		<g>
			<g>
				<path fill="#FFFFFF" d="M466.5,360.5c0,48.6-39.4,88-88,88h-246c-48.601,0-88-39.4-88-88V143.833c0-48.601,39.399-88,88-88h246
					c48.6,0,88,39.399,88,88V360.5z"/>
			</g>
		</g>
	</g>
	
		<radialGradient id="SVGID_1_" cx="254.5" cy="1091.334" r="203.7985" gradientTransform="matrix(1 0 0 1 0 -837)" gradientUnits="userSpaceOnUse">
		<stop  offset="0" style="stop-color:#E6D8EA"/>
		<stop  offset="0.5" style="stop-color:#D2B9DA"/>
		<stop  offset="1" style="stop-color:#C3A3CF"/>
	</radialGradient>
	<path fill="url(#SVGID_1_)" stroke="#E2E2E2" stroke-width="10" stroke-miterlimit="10" d="M465.5,362.667c0,48.6-39.399,88-88,88
		h-246c-48.601,0-88-39.4-88-88V146c0-48.601,39.399-88,88-88h246c48.601,0,88,39.399,88,88V362.667z"/>
	
		<g id="svg2" inkscape:version="0.48.4 r9939" sodipodi:docname="amazon.svg" xmlns:svg="http://www.w3.org/2000/svg" xmlns:rdf="http://www.w3.org/1999/02/22-rdf-syntax-ns#" xmlns:inkscape="http://www.inkscape.org/namespaces/inkscape" xmlns:cc="http://creativecommons.org/ns#" xmlns:dc="http://purl.org/dc/elements/1.1/" xmlns:sodipodi="http://sodipodi.sourceforge.net/DTD/sodipodi-0.dtd" display="none">
		
			<sodipodi:namedview  bordercolor="#666666" id="base" pagecolor="#ffffff" inkscape:zoom="0.51420519" borderopacity="1.0" showgrid="false" inkscape:cy="331.75675" inkscape:cx="125.01135" inkscape:pageshadow="2" inkscape:window-height="719" inkscape:pageopacity="0.0" inkscape:window-maximized="1" inkscape:window-x="0" inkscape:current-layer="layer1" inkscape:window-width="1360" inkscape:document-units="px" inkscape:window-y="25">
			</sodipodi:namedview>
		<path display="inline" fill="#EF3A24" d="M50.502,119.833h409.996c-12.802-32.778-44.688-56-81.998-56h-246
			C95.188,63.833,63.304,87.055,50.502,119.833z"/>
		<g display="inline">
			<g>
				<rect x="172.5" y="147" fill="none" width="305" height="240"/>
				<text transform="matrix(1 0 0 1 172.5 336.999)" fill="#FF9900" font-family="'Tahoma'" font-size="250">A</text>
			</g>
		</g>
	</g>
	<ellipse display="none" fill="#B4DFF7" cx="147.5" cy="178" rx="63" ry="61.5"/>
	<circle display="none" fill="#31C4E9" cx="146.5" cy="171.5" r="62"/>
</g>
<g id="Layer_3" display="none">
	<path display="inline" fill="#200A7F" stroke="#18E5EA" stroke-width="20" stroke-miterlimit="10" d="M401.137,212.167
		c5.104,15.338,7.863,31.744,7.863,48.795c0,85.328-69.172,154.5-154.5,154.5S100,346.29,100,260.962s69.172-154.5,154.5-154.5
		c51.227,0,96.63,24.93,124.739,63.319"/>
	<path display="inline" fill="#EF0B79" d="M333.363,255.151c0,4.226-3.301,7.651-7.371,7.651h-151.12
		c-4.072,0-7.372-3.425-7.372-7.651l0,0c0-4.226,3.3-7.651,7.372-7.651h151.12C330.063,247.5,333.363,250.925,333.363,255.151
		L333.363,255.151z"/>
	<path display="inline" fill="#EF0B79" d="M333.363,284.797c0,4.227-3.301,7.65-7.371,7.65h-151.12c-4.072,0-7.372-3.426-7.372-7.65
		l0,0c0-4.227,3.3-7.65,7.372-7.65h151.12C330.063,277.146,333.363,280.57,333.363,284.797L333.363,284.797z"/>
	<path display="inline" fill="#EF0B79" d="M333.363,313.008c0,4.227-3.301,7.651-7.371,7.651h-151.12
		c-4.072,0-7.372-3.427-7.372-7.651l0,0c0-4.225,3.3-7.65,7.372-7.65h151.12C330.063,305.357,333.363,308.783,333.363,313.008
		L333.363,313.008z"/>
	<path display="inline" fill="#EF0B79" d="M333.363,338.352c0,4.229-3.301,7.651-7.371,7.651h-151.12
		c-4.072,0-7.372-3.426-7.372-7.651l0,0c0-4.225,3.3-7.646,7.372-7.646h151.12C330.063,330.701,333.363,334.127,333.363,338.352
		L333.363,338.352z"/>
	<polygon display="inline" fill="#18E5EA" points="394.992,191.49 320.191,165.163 380.392,113.547 	"/>
	<g display="inline">
		<g>
			<g>
				<path fill="#E9F21C" d="M241.48,239.22c-2.284,0-4.445-1.068-5.833-2.901l-18.76-24.775c-2.44-3.222-1.805-7.81,1.417-10.251
					c3.228-2.442,7.813-1.803,10.253,1.417l12.338,16.293l31.033-49.826c2.135-3.429,6.646-4.478,10.082-2.344
					c3.432,2.135,4.479,6.65,2.342,10.08l-36.658,58.857c-1.273,2.047-3.472,3.333-5.879,3.442
					C241.702,239.217,241.592,239.22,241.48,239.22z"/>
			</g>
		</g>
	</g>
</g>
<g id="Layer_2_1_" display="none">
	<rect x="121" y="171.5" display="inline" fill="none" width="298" height="251"/>
	
		<text transform="matrix(1 0 0 1 121 348.998)" display="inline" fill="#EF3A24" font-family="'MyriadPro-Regular'" font-size="250">24</text>
	<circle display="inline" fill="#FFFFFF" cx="138.25" cy="91.833" r="17.25"/>
	<circle display="inline" fill="#FFFFFF" cx="185.25" cy="91.833" r="17.25"/>
	<circle display="inline" fill="#FFFFFF" cx="232.25" cy="91.833" r="17.25"/>
	<circle display="inline" fill="#FFFFFF" cx="278.25" cy="91.833" r="17.25"/>
	<circle display="inline" fill="#FFFFFF" cx="323.25" cy="91.833" r="17.25"/>
	<circle display="inline" fill="#FFFFFF" cx="368.25" cy="91.833" r="17.25"/>
</g>
<g id="Zipper-Mouth_Face">
	<g id="Filled">
		<path fill="#FFCC80" d="M394.438,308.078c0,19.047,66.666,95.237-138.096,95.237c-199.999,0-138.095-76.19-138.095-95.237
			c0-42.857-57.142-200,138.095-200C456.342,108.078,394.438,265.221,394.438,308.078z"/>
		<path fill="#FFB74D" d="M394.438,308.078c0-20.965,14.808-69.274,6.531-113.161c-23.988,83.562-100.973,144.708-192.246,144.708
			c-32.22,0.044-63.969-7.732-92.521-22.662c-8.9,27.045-36.315,86.354,140.14,86.354
			C461.103,403.315,394.438,327.125,394.438,308.078z"/>
		<path fill="#E5E5E5" d="M346.818,298.555h19.047v23.809h-19.047V298.555z"/>
		<path fill="#616161" d="M356.631,369.982c-10.515,0-18.399-9.017-16.338-18.68l4.184-19.601c1.157-5.433,6.245-9.341,12.154-9.341
			c5.908,0,10.995,3.908,12.153,9.341l4.184,19.601C375.032,360.967,367.145,369.982,356.631,369.982L356.631,369.982z"/>
		<circle fill="#FFFFFF" cx="303.96" cy="222.364" r="9.524"/>
		<circle fill="#FFFFFF" cx="208.723" cy="222.364" r="9.524"/>
		<path fill="#CFCFCF" d="M365.865,304.387c-5.164,4.975-11.898,7.992-19.047,8.536v9.44h19.047V304.387z"/>
		<path fill="#424242" d="M340.018,355.607c0.658,7.875,7.688,14.375,16.613,14.375c10.514,0,18.398-9.017,16.337-18.68
			l-2.44-11.428C363.002,349.15,351.938,354.855,340.018,355.607L340.018,355.607z"/>
		<g>
			<circle fill="#FFE4C0" cx="142.057" cy="246.173" r="14.286"/>
			<circle fill="#FFE4C0" cx="370.627" cy="246.173" r="14.286"/>
		</g>
	</g>
	<g id="Outline">
		<path fill="#231F20" d="M142.057,308.078c0,2.629,2.132,4.761,4.761,4.761h14.286v9.524c0,2.63,2.132,4.762,4.762,4.762
			c2.63,0,4.762-2.132,4.762-4.762v-9.524h9.523v9.524c0,2.63,2.132,4.762,4.762,4.762s4.762-2.132,4.762-4.762v-9.524h9.523v9.524
			c0,2.63,2.132,4.762,4.762,4.762s4.762-2.132,4.762-4.762v-9.524h9.524v9.524c0,2.63,2.132,4.762,4.762,4.762
			c2.629,0,4.761-2.132,4.761-4.762v-9.524h9.524v9.524c0,2.63,2.132,4.762,4.762,4.762c2.63,0,4.762-2.132,4.762-4.762v-9.524
			h9.523v9.524c0,2.63,2.132,4.762,4.762,4.762c2.629,0,4.762-2.132,4.762-4.762v-9.524h9.524v9.524c0,2.63,2.132,4.762,4.763,4.762
			c2.629,0,4.761-2.132,4.761-4.762v-9.524h9.524v9.524c0,2.63,2.133,4.762,4.762,4.762s4.762-2.132,4.762-4.762v-9.524h9.523v9.524
			c0,2.63,2.133,4.762,4.763,4.762s4.762-2.132,4.762-4.762v-9.524h19.048v9.524c-0.001,0.771,0.188,1.533,0.549,2.217
			c-1.354,1.82-2.306,3.912-2.786,6.131l-4.184,19.604c-1.229,5.817,0.247,11.881,4.014,16.481
			c7.819,9.378,21.762,10.642,31.141,2.823c1.022-0.854,1.97-1.799,2.823-2.823c3.768-4.603,5.243-10.664,4.014-16.481
			l-4.185-19.604c-0.521-2.416-1.6-4.676-3.146-6.604c0.22-0.556,0.332-1.146,0.333-1.744v-28.571h-28.571v9.524h-9.522v-9.524
			c0-2.63-2.133-4.763-4.763-4.763c-2.631,0-4.763,2.133-4.763,4.763v9.524h-9.523v-9.524c0-2.63-2.132-4.763-4.762-4.763
			c-2.631,0-4.763,2.133-4.763,4.763v9.524h-9.522v-9.524c0-2.63-2.133-4.763-4.763-4.763s-4.763,2.133-4.763,4.763v9.524h-9.522
			v-9.524c0-2.63-2.133-4.763-4.763-4.763c-2.629,0-4.762,2.133-4.762,4.763v9.524h-9.524v-9.524c0-2.63-2.132-4.763-4.761-4.763
			c-2.63,0-4.762,2.133-4.762,4.763v9.524h-9.524v-9.524c0-2.63-2.132-4.763-4.762-4.763s-4.762,2.133-4.762,4.763v9.524h-9.523
			v-9.524c0-2.63-2.132-4.763-4.762-4.763s-4.762,2.133-4.762,4.763v9.524h-9.524v-9.524c0-2.63-2.132-4.763-4.761-4.763
			c-2.63,0-4.762,2.133-4.762,4.763v9.524h-9.524v-9.524c0-2.63-2.132-4.763-4.762-4.763c-2.63,0-4.762,2.133-4.762,4.763v9.524
			h-9.524v-9.524c0-2.63-2.132-4.763-4.762-4.763s-4.762,2.133-4.762,4.763v9.524h-4.762
			C144.188,303.316,142.057,305.448,142.057,308.078z M351.58,303.316h9.521v14.856c-3.13-0.817-6.425-0.758-9.521,0.175V303.316z
			 M344.95,352.299l4.184-19.604c0.688-3.229,3.841-5.57,7.499-5.57s6.81,2.343,7.497,5.57l4.185,19.604
			c0.646,3.008-0.131,6.145-2.104,8.504c-4.514,5.289-12.461,5.918-17.75,1.405c-0.504-0.431-0.975-0.899-1.405-1.405
			C345.082,358.443,344.306,355.307,344.95,352.299L344.95,352.299z"/>
		<path fill="#231F20" d="M404.097,323.369c-0.542-1.499-1.07-2.922-1.589-4.297c-0.72-1.936-1.405-3.762-1.946-5.352
			c-0.981-2.822-1.393-4.898-1.361-5.644c-0.024-6.154,1.535-15.964,3.338-27.322c0.369-2.315,0.746-4.704,1.131-7.165
			c2.375-15.412,4.578-32.096,4.578-49.626c0-16.231-1.905-30.332-5.828-43.107c-7.23-23.667-21.619-42.148-42.768-54.934
			c-6.171-3.708-12.648-6.879-19.363-9.477c-7.626-2.944-15.458-5.322-23.435-7.113c-9.188-2.054-18.492-3.545-27.862-4.464
			c-10.851-1.063-21.747-1.582-32.649-1.553c-20.577,0-39.279,1.756-55.589,5.214c-7.487,1.567-14.86,3.633-22.072,6.185
			c-6.411,2.275-12.638,5.041-18.624,8.274c-2.331,1.218-3.233,4.095-2.016,6.426c1.218,2.331,4.095,3.233,6.426,2.015
			c0.048-0.025,0.096-0.051,0.143-0.078c22.542-12.28,53.392-18.512,91.708-18.512h0.041c28.829,0,53.589,3.363,73.59,10
			c25.986,8.655,44.111,22.471,55.409,42.233c9.001,15.785,13.368,35.047,13.362,58.892c0.006,16.965-2.255,33.87-4.471,48.174
			c-0.445,2.909-0.889,5.726-1.327,8.446c-1.73,10.886-3.226,20.285-3.249,27.493c0.035,2.928,0.834,5.564,1.874,8.701
			c0.619,1.816,1.328,3.721,2.083,5.738c1.131,3.035,2.305,6.172,3.353,9.494c2.061,6.529,3.064,12.118,3.061,17.084
			c-0.019,6.493-1.596,11.867-4.953,16.903c-6.368,9.542-19.345,17.112-38.564,22.501c-23.757,6.672-57.423,10.053-100.077,10.053
			h-0.47c-54.815,0-94.321-5.846-117.416-17.375c-9.232-4.595-15.686-9.898-19.733-16.22c-3.268-5.126-4.857-10.821-4.874-17.423
			c-0.007-7.702,2.285-15.648,4.291-21.715c0.441-1.346,0.887-2.66,1.322-3.93c0.655-1.934,1.273-3.754,1.815-5.498
			c0.875-2.895,1.595-5.52,1.625-8.315c-0.018-6.935-1.31-15.946-2.81-26.382c-0.369-2.577-0.745-5.239-1.131-7.987
			c-1.905-13.673-3.851-29.857-3.851-46.184c-0.006-31.292,7.072-55.286,21.637-73.369c1.649-2.05,1.323-5.047-0.726-6.697
			c-2.05-1.648-5.048-1.323-6.697,0.727l0,0c-4.55,5.685-8.443,11.865-11.607,18.423c-3.052,6.364-5.49,13.005-7.28,19.833
			c-3.262,12.286-4.851,25.719-4.851,41.083c0,16.845,1.893,32.779,3.94,47.494c0.334,2.369,0.661,4.668,0.983,6.898
			c1.547,10.828,2.886,20.18,2.869,26.161c0.024,0.772-0.34,2.778-1.203,5.506c-0.47,1.529-1.065,3.269-1.69,5.113
			c-0.982,2.897-2.102,6.179-3.113,9.696c-2.072,7.268-3.042,13.351-3.048,19.143c-0.118,7.977,2.098,15.813,6.375,22.547
			c3.655,5.727,8.953,10.854,15.756,15.232c6.114,3.82,12.637,6.945,19.446,9.314c8.875,3.102,17.98,5.499,27.232,7.173
			c12.02,2.19,24.148,3.732,36.333,4.619c14.006,1.084,29.743,1.644,46.767,1.655c15.227-0.006,29.452-0.436,42.292-1.263
			c12.334-0.804,23.751-2,33.946-3.565c8.942-1.33,17.798-3.191,26.519-5.577c6.864-1.879,13.563-4.325,20.022-7.315
			c5.133-2.377,9.965-5.349,14.398-8.856c3.655-2.903,6.852-6.341,9.482-10.196c4.392-6.563,6.682-14.311,6.564-22.207
			C409.55,339.816,406.931,331.245,404.097,323.369L404.097,323.369z"/>
		<path fill="#231F20" d="M146.538,142.477c2.444,0.002,4.493-1.848,4.738-4.28c0.267-2.616-1.639-4.953-4.255-5.219
			c-2.617-0.267-4.954,1.639-5.22,4.255c-0.267,2.616,1.639,4.953,4.255,5.219C146.217,142.469,146.377,142.477,146.538,142.477z"/>
		<path fill="#231F20" d="M303.96,236.649c7.891,0,14.286-6.396,14.286-14.286c0-7.89-6.396-14.286-14.286-14.286
			s-14.285,6.396-14.285,14.286C289.684,230.25,296.073,236.641,303.96,236.649z M303.96,217.602c2.631,0,4.763,2.133,4.763,4.762
			c0,2.63-2.132,4.762-4.763,4.762c-2.629,0-4.762-2.132-4.762-4.762C299.202,219.735,301.332,217.604,303.96,217.602z"/>
		<path fill="#231F20" d="M208.723,236.649c7.89,0,14.286-6.396,14.286-14.286c0-7.89-6.396-14.286-14.286-14.286
			c-7.89,0-14.285,6.396-14.285,14.286C194.446,230.25,200.837,236.641,208.723,236.649z M208.723,217.602
			c2.63,0,4.762,2.133,4.762,4.762c0,2.63-2.132,4.762-4.762,4.762c-2.63,0-4.762-2.132-4.762-4.762
			C203.964,219.735,206.094,217.604,208.723,217.602z"/>
		<path fill="#231F20" d="M351.58,189.03c0,2.63,2.132,4.762,4.761,4.762c2.63,0,4.762-2.132,4.762-4.762
			c-0.022-21.029-17.063-38.071-38.095-38.095c-2.63,0-4.762,2.132-4.762,4.762c0,2.629,2.132,4.761,4.762,4.761
			C338.779,160.477,351.563,173.258,351.58,189.03z"/>
		<path fill="#231F20" d="M189.675,150.936c-21.029,0.023-38.071,17.065-38.095,38.095c0,2.63,2.132,4.762,4.762,4.762
			c2.63,0,4.762-2.132,4.762-4.762c0.018-15.772,12.799-28.553,28.571-28.571c2.63,0,4.762-2.132,4.762-4.761
			C194.438,153.067,192.306,150.936,189.675,150.936z"/>
	</g>
</g>
</svg>
