<?xml version="1.0" encoding="utf-8"?>
<!-- Generator: Adobe Illustrator 16.0.0, SVG Export Plug-In . SVG Version: 6.00 Build 0)  -->
<!DOCTYPE svg PUBLIC "-//W3C//DTD SVG 1.1//EN" "http://www.w3.org/Graphics/SVG/1.1/DTD/svg11.dtd">
<svg version="1.1" id="Layer_1" xmlns="http://www.w3.org/2000/svg" xmlns:xlink="http://www.w3.org/1999/xlink" x="0px" y="0px"
	 width="512px" height="512px" viewBox="0 0 512 512" enable-background="new 0 0 512 512" xml:space="preserve">
<g id="Layer_1_1_">
	<g id="Layer_2" display="none">
	</g>
	<g id="shadows">
		<g opacity="0.9">
			<g>
				<path fill="#B7B7B7" d="M466.5,381.5c0,48.6-39.4,88-88,88h-246c-48.601,0-88-39.4-88-88V164.833c0-48.601,39.399-88,88-88h246
					c48.6,0,88,39.399,88,88V381.5z"/>
			</g>
		</g>
		<g>
			<g>
				<path fill="#FFFFFF" d="M466.5,360.5c0,48.6-39.4,88-88,88h-246c-48.601,0-88-39.4-88-88V143.833c0-48.601,39.399-88,88-88h246
					c48.6,0,88,39.399,88,88V360.5z"/>
			</g>
		</g>
	</g>
	
		<radialGradient id="SVGID_1_" cx="721.5" cy="159.6665" r="203.7987" gradientTransform="matrix(1 0 0 -1 -467 414)" gradientUnits="userSpaceOnUse">
		<stop  offset="0" style="stop-color:#988952"/>
		<stop  offset="0.0772" style="stop-color:#8E7F47"/>
		<stop  offset="0.5" style="stop-color:#594E10"/>
		<stop  offset="0.6404" style="stop-color:#4E450E"/>
		<stop  offset="1" style="stop-color:#37300A"/>
	</radialGradient>
	<path fill="url(#SVGID_1_)" stroke="#E2E2E2" stroke-width="10" stroke-miterlimit="10" d="M465.5,362.667c0,48.6-39.399,88-88,88
		h-246c-48.601,0-88-39.4-88-88V146c0-48.601,39.399-88,88-88h246c48.601,0,88,39.399,88,88V362.667z"/>
</g>
<path fill="#F69D23" d="M336.623,363.347c1.791-2.646,39.317-59.139,14.032-92.798c-25.896-34.47-58.076-8.603-35.372,5.735
	C334.974,288.714,359.546,326.603,336.623,363.347z M214.631,376.021c-6.477-2.694-12.646-5.98-18.431-9.793l-0.084,0.657
	c-87.803-7.441-94.833-59.126-94.833-59.126c17.361,7.422,26.454,0,26.454,0c-19.843-9.106-20.997-33.867-20.997-33.867
	c13.716,7.442,29.258,0,29.258,0c-16.528-2.483-19.836-31.561-19.836-31.561s32.587,23.909,41.058-9.176
	c0.161-0.734,0.335-1.462,0.511-2.182c1.042-4.253,2.273-8.346,3.686-12.262c2.658-7.408,5.952-14.213,9.855-20.389
	c5.049-7.996,11.114-14.934,18.116-20.767c5.646-4.702,11.912-8.688,18.752-11.92c14.109-6.659,30.665-10.122,49.361-10.122
	c18.695,0,35.253,3.462,49.361,10.122c5.615,2.658,10.849,5.82,15.668,9.471c1.048,0.789,2.077,1.609,3.083,2.448
	c7.009,5.839,13.072,12.786,18.123,20.787c3.903,6.169,7.197,12.968,9.85,20.369c1.412,3.917,2.644,8.009,3.687,12.263
	c0.175,0.72,0.351,1.448,0.511,2.182c8.471,33.084,41.058,9.176,41.058,9.176s-3.308,29.079-19.837,31.561
	c0,0,15.542,7.442,29.258,0c0,0-1.153,24.761-20.996,33.867c0,0,9.092,7.422,26.452,0c0,0-7.03,51.685-94.832,59.126l-0.085-0.657
	c-5.785,3.813-11.953,7.1-18.431,9.793c-12.764,5.315-26.747,8.33-41.409,8.512c-0.481,0.016-0.971,0.016-1.46,0.016
	s-0.979,0-1.462-0.016C241.379,384.351,227.396,381.336,214.631,376.021z M178.378,363.347
	c-22.921-36.744,1.651-74.633,21.34-87.063c22.705-14.338-9.478-40.206-35.372-5.735
	C139.062,304.207,176.587,360.701,178.378,363.347z M295.88,244.78c8.31-10.974,23.146-33,4.463-28.433
	c-10.569,2.587-17.809,8.344-22.627,14.087c-5.541,6.604-2.009,16.751,6.4,18.641C288.543,250.075,293.145,248.396,295.88,244.78z
	 M230.887,249.075c8.407-1.89,11.94-12.039,6.4-18.641c-4.819-5.743-12.059-11.5-22.628-14.087
	c-18.683-4.567-3.848,17.459,4.462,28.433C221.857,248.396,226.459,250.075,230.887,249.075z"/>
<path fill="#F0DF9E" d="M258.963,384.548c16.269,0,30.952-2.778,41.408-8.527c9.926-5.464,16.033-13.605,16.033-24.6
	c0-22.566-28.644-48.579-60.363-48.579c-31.722,0-57.441,26.013-57.441,48.579c0,10.995,6.106,19.136,16.032,24.6
	c10.457,5.748,28.062,8.512,44.333,8.512"/>
<path fill="#666666" d="M256.039,329.785c-9.498,0-17.2,3.162-17.2,9.919c0,6.755,7.702,14.547,17.2,14.547h2.924
	c9.499,0,17.199-7.792,17.199-14.547c0-6.757-7.7-9.919-17.199-9.919H256.039z"/>
<radialGradient id="SVGID_2_" cx="348.4854" cy="174.7412" r="42.8129" gradientUnits="userSpaceOnUse">
	<stop  offset="0" style="stop-color:#FCF7D9"/>
	<stop  offset="0" style="stop-color:#FDEEA5"/>
	<stop  offset="0" style="stop-color:#FEE56E"/>
	<stop  offset="0.5506" style="stop-color:#FFCF00"/>
	<stop  offset="0.7073" style="stop-color:#F3C002"/>
	<stop  offset="1" style="stop-color:#E0A905"/>
</radialGradient>
<path fill="url(#SVGID_2_)" d="M383.285,135.839c15.66,14.15,1.448,55.391-13.367,71.779c-4.659,5.155-10.302,8.869-16.331,11.093
	c-2.652-7.4-5.946-14.2-9.85-20.368l0.049-0.028c4.154-0.511,8.205-2.498,11.29-5.918c6.588-7.288,12.911-25.635,5.944-31.93
	c-6.961-6.295-24.579,1.847-31.169,9.134c-2.133,2.358-3.538,5.107-4.237,7.954c-1.008-0.84-2.037-1.658-3.085-2.449
	c-4.819-3.651-10.052-6.813-15.668-9.471c1.645-3.28,3.764-6.4,6.359-9.274C328.027,139.979,367.631,121.689,383.285,135.839z"/>
<g>
	<path fill="#F0DF9E" d="M361.021,160.467c6.967,6.296,0.644,24.642-5.944,31.931c-3.084,3.419-7.136,5.407-11.29,5.917
		l-0.049,0.029c-5.049-8.003-11.114-14.948-18.123-20.789c0.7-2.847,2.106-5.596,4.238-7.953
		C336.441,162.313,354.063,154.172,361.021,160.467z"/>
	<path fill="#F0DF9E" d="M350.655,270.549c25.286,33.659-12.24,90.152-14.031,92.798c22.922-36.744-1.65-74.633-21.34-87.063
		C292.579,261.945,324.76,236.079,350.655,270.549z"/>
	<path fill="#F0DF9E" d="M300.343,216.347c18.683-4.567,3.847,17.459-4.463,28.433c-2.735,3.616-7.337,5.295-11.764,4.295
		c-8.409-1.89-11.941-12.039-6.4-18.641C282.535,224.691,289.773,218.934,300.343,216.347z"/>
	<path fill="#F0DF9E" d="M237.287,230.435c5.54,6.604,2.008,16.751-6.401,18.641c-4.427,1-9.029-0.679-11.765-4.295
		c-8.31-10.974-23.146-33-4.463-28.433C225.229,218.934,232.468,224.691,237.287,230.435z"/>
</g>
<radialGradient id="SVGID_3_" cx="166.5161" cy="174.7412" r="42.8127" gradientUnits="userSpaceOnUse">
	<stop  offset="0" style="stop-color:#FCF7D9"/>
	<stop  offset="0" style="stop-color:#FDEEA5"/>
	<stop  offset="0" style="stop-color:#FEE56E"/>
	<stop  offset="0.5506" style="stop-color:#FFCF00"/>
	<stop  offset="0.7073" style="stop-color:#F3C002"/>
	<stop  offset="1" style="stop-color:#E0A905"/>
</radialGradient>
<path fill="url(#SVGID_3_)" d="M201.782,156.361c2.595,2.875,4.708,5.994,6.358,9.274c-6.84,3.233-13.107,7.218-18.751,11.919
	c-0.699-2.853-2.105-5.596-4.239-7.952c-6.589-7.289-24.208-15.431-31.168-9.136c-6.967,6.296-0.644,24.643,5.945,31.931
	c3.099,3.434,7.177,5.428,11.345,5.924c-3.903,6.176-7.197,12.981-9.855,20.389h-0.007c-6.03-2.224-11.667-5.938-16.326-11.093
	c-14.814-16.388-29.028-57.628-13.368-71.779C147.371,121.689,186.975,139.979,201.782,156.361z"/>
<g>
	<path fill="#F0DF9E" d="M164.347,270.549c25.894-34.47,58.077-8.603,35.372,5.735c-19.689,12.43-44.261,50.318-21.34,87.063
		C176.587,360.701,139.062,304.207,164.347,270.549z"/>
	<path fill="#F0DF9E" d="M185.149,169.602c2.133,2.357,3.539,5.099,4.239,7.953c-7.002,5.833-13.067,12.772-18.116,20.767
		c-4.169-0.498-8.247-2.49-11.345-5.924c-6.588-7.288-12.912-25.635-5.945-31.931C160.941,154.172,178.56,162.313,185.149,169.602z"
		/>
</g>
<path d="M94.563,308.673c0.083,0.613,2.205,15.205,16.218,30.449c18.023,19.606,46.408,31.209,84.376,34.488
	c5.274,3.274,10.828,6.137,16.546,8.534c8.174,4.395,20.405,7.431,34.19,8.615c3.313,0.32,6.65,0.51,10.011,0.554
	c0.527,0.015,1.063,0.015,1.596,0.015c0.379,0,0.755-0.005,1.132-0.011c0.109,0.006,0.219,0.011,0.331,0.011
	c17.883,0,33.182-3.172,44.298-9.168c5.733-2.402,11.297-5.27,16.585-8.55c37.968-3.28,66.354-14.882,84.376-34.49
	c14.013-15.242,16.135-29.834,16.219-30.448c0.327-2.419-0.669-4.827-2.611-6.308s-4.531-1.802-6.776-0.841
	c-2.874,1.228-5.427,1.963-7.664,2.361c10.696-12.473,11.607-28.782,11.65-29.679c0.114-2.444-1.099-4.761-3.174-6.061
	c-2.071-1.301-4.687-1.383-6.837-0.216c-3.007,1.631-6.194,2.312-9.211,2.453c7.568-10.342,9.496-24.939,9.764-27.285
	c0.303-2.672-1.006-5.267-3.329-6.62c-2.323-1.355-5.232-1.204-7.41,0.376c-3.454,2.511-14.974,9.086-22.349,6.424
	c-3.718-1.341-6.449-5.275-8.112-11.697c-0.163-0.743-0.34-1.479-0.521-2.223c-0.58-2.37-1.227-4.704-1.923-6.995
	c4.853-2.609,9.279-6.063,13.014-10.196c8.313-9.194,16.031-24.766,19.669-39.668c4.585-18.788,2.174-33.594-6.785-41.689
	c-8.957-8.097-23.931-9.004-42.162-2.551c-14.461,5.119-29.174,14.365-37.485,23.56c-1.497,1.656-2.87,3.402-4.113,5.223
	c-1.254-0.501-2.52-0.986-3.795-1.439c-3.531-1.254-7.407,0.592-8.662,4.122c-1.252,3.53,0.594,7.408,4.123,8.661
	c2.821,1.001,5.59,2.141,8.221,3.383c5.18,2.449,10.049,5.393,14.489,8.757c0.926,0.698,1.876,1.451,2.824,2.241
	c6.458,5.381,12.085,11.84,16.733,19.204c3.636,5.75,6.731,12.152,9.197,19.043c1.33,3.682,2.499,7.577,3.477,11.56
	c0.164,0.672,0.326,1.351,0.477,2.035c0.018,0.077,0.034,0.155,0.054,0.23c2.852,11.128,8.478,18.267,16.73,21.22
	c7.024,2.513,14.467,1.332,20.686-0.839c-2.284,5.837-5.746,11.232-10.63,11.966c-2.946,0.442-5.26,2.756-5.701,5.701
	c-0.439,2.947,1.091,5.836,3.778,7.123c0.576,0.277,11.053,5.184,23.29,3.68c-2.147,6.332-6.43,14.007-14.93,17.907
	c-2.129,0.978-3.602,2.981-3.898,5.304c-0.298,2.324,0.625,4.634,2.439,6.115c0.948,0.775,7.817,5.954,19.975,4.648
	c-2.021,3.846-5.004,8.368-9.375,12.984c-10.328,10.905-25.269,19.063-43.993,24.149c3.412-6.346,7.398-14.681,10.621-24.005
	c9.104-26.364,7.678-48.604-4.127-64.316c-11.458-15.254-26.327-22.378-39.769-19.065c-8.268,2.039-14.135,7.811-15.312,15.062
	c-1.197,7.387,2.689,14.511,10.665,19.549c16.733,10.563,39.402,43.66,19.931,76.537c-3.065,0.47-6.21,0.871-9.425,1.204
	c0.674-2.653,1.017-5.436,1.017-8.34c0-13.088-7.549-26.918-20.712-37.948c-13.203-11.065-30.128-17.412-46.434-17.412
	c-36.168,0-64.222,29.76-64.222,55.36c0,2.904,0.343,5.688,1.017,8.341c-3.216-0.334-6.358-0.735-9.424-1.205
	c-19.471-32.876,3.195-65.974,19.932-76.537c7.975-5.036,11.861-12.162,10.664-19.549c-1.176-7.251-7.043-13.021-15.312-15.06
	c-13.445-3.316-28.309,3.813-39.769,19.064c-11.803,15.713-13.23,37.953-4.125,64.316c3.22,9.324,7.209,17.659,10.621,24.007
	c-18.725-5.089-33.666-13.245-43.995-24.151c-4.371-4.616-7.356-9.14-9.375-12.984c12.16,1.304,19.028-3.871,19.977-4.648
	c1.814-1.479,2.736-3.79,2.439-6.115c-0.298-2.321-1.77-4.326-3.898-5.304c-8.421-3.864-12.708-11.554-14.878-17.901
	c12.217,1.484,22.663-3.408,23.24-3.686c2.686-1.287,4.219-4.176,3.777-7.123c-0.44-2.945-2.754-5.259-5.699-5.701
	c-4.886-0.734-8.347-6.13-10.631-11.966c6.217,2.17,13.665,3.35,20.686,0.839c8.252-2.954,13.881-10.094,16.73-21.22
	c0.019-0.076,0.038-0.153,0.055-0.23c0.149-0.685,0.313-1.363,0.472-2.019c0.98-3.999,2.15-7.896,3.482-11.586
	c2.474-6.895,5.572-13.308,9.206-19.059c4.641-7.348,10.268-13.8,16.721-19.176c5.198-4.329,11.021-8.029,17.309-10.998
	c13.316-6.286,28.949-9.473,46.467-9.473c3.744,0,6.783-3.037,6.783-6.782s-3.039-6.782-6.783-6.782
	c-17.14,0-32.774,2.791-46.579,8.302c-1.247-1.824-2.619-3.57-4.11-5.222c-8.309-9.191-23.021-18.438-37.484-23.557
	c-18.23-6.451-33.203-5.546-42.16,2.551c-8.961,8.096-11.372,22.903-6.786,41.689c3.636,14.903,11.357,30.474,19.668,39.669
	c3.737,4.135,8.164,7.59,13.013,10.199c-0.697,2.292-1.343,4.633-1.926,7.009c-0.178,0.729-0.354,1.464-0.519,2.208
	c-1.663,6.423-4.392,10.357-8.111,11.697c-7.374,2.663-18.894-3.913-22.338-6.413c-2.171-1.596-5.083-1.751-7.415-0.399
	c-2.332,1.352-3.641,3.955-3.337,6.634c0.268,2.346,2.195,16.94,9.761,27.28c-3.017-0.141-6.205-0.82-9.208-2.448
	c-2.152-1.168-4.764-1.087-6.837,0.216c-2.074,1.3-3.286,3.616-3.172,6.061c0.042,0.896,0.953,17.207,11.648,29.679
	c-2.236-0.399-4.79-1.134-7.664-2.361c-2.247-0.961-4.834-0.64-6.775,0.841C95.23,303.846,94.234,306.256,94.563,308.673z
	 M316.5,163.021c0.558-0.721,1.135-1.429,1.751-2.111c6.803-7.528,19.644-15.511,31.946-19.865
	c12.93-4.576,23.598-4.641,28.541-0.174s5.954,15.087,2.703,28.411c-3.095,12.679-9.748,26.258-16.554,33.789
	c-2.253,2.493-4.855,4.635-7.684,6.369c-1.093-2.527-2.262-4.991-3.51-7.377c2.378-1.331,4.55-3.05,6.412-5.117
	c4.147-4.587,7.833-11.976,9.614-19.278c2.382-9.764,0.908-17.66-4.148-22.23c-5.059-4.575-13.064-5.244-22.538-1.89
	c-7.084,2.509-14.063,6.919-18.21,11.504c-0.611,0.676-1.177,1.388-1.71,2.124C320.979,165.708,318.773,164.321,316.5,163.021z
	 M333.718,175.68c0.347-0.538,0.734-1.052,1.167-1.529c2.605-2.881,7.816-6.095,12.678-7.816c5.338-1.892,8.31-1.381,8.913-0.834
	c0.603,0.545,1.411,3.448,0.069,8.952c-1.223,5.007-3.895,10.517-6.504,13.403c-0.986,1.092-2.152,1.971-3.431,2.611
	C342.789,185.053,338.475,180.105,333.718,175.68z M318.905,270.551c-3.063-1.937-4.795-4.198-4.518-5.908
	c0.227-1.4,1.941-3.267,5.169-4.062c0.972-0.24,2.037-0.372,3.182-0.372c6.119,0,14.472,3.733,22.495,14.413
	c8.625,11.479,8.604,26.553,5.273,40.813c-0.648-2.523-1.404-4.892-2.207-7.077C341.509,289.875,328.662,276.709,318.905,270.551z
	 M256.039,309.625c28.354,0,53.582,23.371,53.582,41.796c0,7.822-4.006,13.87-12.225,18.486c-12.214,5.033-25.158,7.673-38.48,7.843
	c-4.018-0.001-7.977-0.173-11.796-0.498c-10.165-0.992-20.057-3.448-29.515-7.345c-8.219-4.616-12.224-10.665-12.224-18.486
	C205.382,332.489,227.979,309.625,256.039,309.625z M169.769,274.622c8.022-10.68,16.376-14.413,22.497-14.413
	c1.144,0,2.208,0.13,3.18,0.372c3.228,0.795,4.942,2.663,5.169,4.062c0.277,1.709-1.454,3.972-4.516,5.906
	c-9.757,6.16-22.604,19.326-29.396,37.809c-0.803,2.186-1.559,4.554-2.208,7.077C161.167,301.176,161.145,286.103,169.769,274.622z
	 M168.387,190.465c-1.273-0.642-2.441-1.521-3.431-2.615c-2.604-2.881-5.275-8.39-6.498-13.398
	c-1.342-5.503-0.533-8.407,0.072-8.955c0.601-0.544,3.569-1.055,8.908,0.837c4.86,1.72,10.074,4.935,12.681,7.818
	c0.437,0.481,0.823,0.992,1.167,1.523C176.527,180.104,172.21,185.052,168.387,190.465z M150.114,203.07
	c-6.807-7.533-13.459-21.109-16.553-33.79c-3.25-13.321-2.24-23.942,2.704-28.41c4.94-4.467,15.611-4.401,28.539,0.174
	c12.305,4.355,25.143,12.337,31.944,19.862c0.617,0.684,1.198,1.395,1.758,2.121c-2.268,1.298-4.479,2.677-6.617,4.145
	c-0.532-0.734-1.097-1.443-1.708-2.119c-4.147-4.588-11.126-8.997-18.212-11.506c-9.476-3.354-17.479-2.684-22.534,1.887
	c-5.061,4.572-6.536,12.468-4.153,22.232c1.782,7.303,5.466,14.689,9.61,19.272c1.867,2.069,4.04,3.79,6.417,5.121
	c-1.248,2.389-2.416,4.853-3.508,7.378C154.972,207.708,152.37,205.565,150.114,203.07z"/>
<path d="M282.038,150.815c-0.872-0.155-1.75-0.302-2.631-0.44c-3.693-0.581-7.172,1.949-7.751,5.649
	c-0.581,3.701,1.947,7.171,5.649,7.751c0.788,0.124,1.574,0.256,2.354,0.395c0.402,0.071,0.802,0.105,1.196,0.105
	c3.226,0,6.085-2.309,6.67-5.594C288.183,154.993,285.726,151.472,282.038,150.815z"/>
<path d="M231.181,370.694h1.54c8.976,0,17.784-3.129,24.782-8.688c6.995,5.557,15.807,8.688,24.782,8.688h1.539
	c3.745,0,6.781-3.037,6.781-6.781c0-3.746-3.036-6.784-6.781-6.784h-1.539c-2.78,0-5.532-0.46-8.151-1.322
	c5.285-4.014,8.813-9.903,8.813-16.102c0-10.146-9.414-16.701-23.982-16.701h-2.922c-14.569,0-23.983,6.555-23.983,16.701
	c0,6.198,3.528,12.088,8.813,16.102c-2.619,0.862-5.371,1.322-8.15,1.322h-1.54c-3.745,0-6.782,3.038-6.782,6.784
	C224.398,367.657,227.435,370.694,231.181,370.694z M256.039,336.568h2.924c6.709,0,10.418,1.854,10.418,3.136
	c0,2.657-4.399,7.767-10.418,7.767h-2.924c-6.018,0-10.417-5.109-10.417-7.767C245.622,338.422,249.331,336.568,256.039,336.568z"/>
<path d="M227.389,272.523c-8.564,0-15.532,6.971-15.532,15.54c0,3.745,3.037,6.782,6.782,6.782s6.782-3.037,6.782-6.782
	c0-1.089,0.884-1.976,1.968-1.976c1.088,0,1.975,0.887,1.975,1.976c0,3.745,3.037,6.782,6.782,6.782
	c3.745,0,6.783-3.037,6.783-6.782C242.929,279.494,235.958,272.523,227.389,272.523z"/>
<path d="M242.482,226.074c-6.938-8.266-15.755-13.755-26.212-16.316c-9.338-2.284-13.679,0.862-15.676,3.903
	c-3.11,4.734-3.984,12.621,13.12,35.209c3.503,4.632,8.968,7.27,14.639,7.27c1.338,0,2.69-0.148,4.028-0.45
	c6.309-1.421,11.312-5.931,13.386-12.069C247.823,237.536,246.595,230.977,242.482,226.074z M232.916,239.279
	c-0.263,0.778-1.13,2.643-3.516,3.177c-0.003,0.002-0.005,0.002-0.007,0.002c-1.826,0.411-3.737-0.281-4.864-1.772
	c-6.492-8.575-9.743-14.325-11.164-17.673c7.454,1.892,13.754,5.854,18.726,11.78C233.597,236.588,233.17,238.53,232.916,239.279z"
	/>
<path d="M272.075,288.063c0,3.746,3.036,6.783,6.78,6.783c3.746,0,6.784-3.037,6.784-6.783c0-1.088,0.886-1.975,1.973-1.975
	s1.969,0.887,1.969,1.975c0,3.746,3.038,6.783,6.782,6.783c3.745,0,6.782-3.037,6.782-6.783c0-8.569-6.967-15.539-15.533-15.539
	C279.044,272.523,272.075,279.494,272.075,288.063z"/>
<path d="M314.409,213.662c-1.996-3.039-6.338-6.187-15.679-3.901c-10.454,2.559-19.272,8.048-26.21,16.314
	c-4.112,4.903-5.341,11.461-3.284,17.548c2.073,6.137,7.077,10.646,13.385,12.068c1.34,0.302,2.691,0.449,4.029,0.449
	c5.67,0,11.135-2.637,14.637-7.267C318.394,226.283,317.52,218.396,314.409,213.662z M290.471,240.688
	c-1.124,1.488-3.032,2.184-4.861,1.771c-0.002,0-0.005,0-0.007-0.002c-2.386-0.534-3.254-2.4-3.518-3.177
	c-0.253-0.75-0.681-2.691,0.826-4.484c4.972-5.928,11.271-9.889,18.726-11.781C300.215,226.362,296.964,232.114,290.471,240.688z"/>
</svg>
