<?xml version="1.0" encoding="utf-8"?>
<!-- Generator: Adobe Illustrator 16.0.0, SVG Export Plug-In . SVG Version: 6.00 Build 0)  -->
<!DOCTYPE svg PUBLIC "-//W3C//DTD SVG 1.1//EN" "http://www.w3.org/Graphics/SVG/1.1/DTD/svg11.dtd">
<svg version="1.1" id="Layer_1" xmlns="http://www.w3.org/2000/svg" xmlns:xlink="http://www.w3.org/1999/xlink" x="0px" y="0px"
	 width="512px" height="512px" viewBox="0 0 512 512" enable-background="new 0 0 512 512" xml:space="preserve">
<g id="Layer_1_1_">
	<g id="Layer_2" display="none">
	</g>
	<g id="shadows">
		<g opacity="0.9">
			<g>
				<path fill="#B7B7B7" d="M466.5,381.5c0,48.6-39.4,88-88,88h-246c-48.601,0-88-39.4-88-88V164.833c0-48.601,39.399-88,88-88h246
					c48.6,0,88,39.399,88,88V381.5z"/>
			</g>
		</g>
		<g>
			<g>
				<path fill="#FFFFFF" d="M466.5,360.5c0,48.6-39.4,88-88,88h-246c-48.601,0-88-39.4-88-88V143.833c0-48.601,39.399-88,88-88h246
					c48.6,0,88,39.399,88,88V360.5z"/>
			</g>
		</g>
	</g>
	
		<linearGradient id="SVGID_1_" gradientUnits="userSpaceOnUse" x1="744" y1="276.334" x2="1166" y2="276.334" gradientTransform="matrix(1 0 0 1 -700.5 -22)">
		<stop  offset="0" style="stop-color:#FFFC46"/>
		<stop  offset="0.0076" style="stop-color:#FDFA45"/>
		<stop  offset="0.0947" style="stop-color:#EAEC3E"/>
		<stop  offset="0.1844" style="stop-color:#DFE439"/>
		<stop  offset="0.28" style="stop-color:#DBE138"/>
		<stop  offset="0.5947" style="stop-color:#38A22B"/>
		<stop  offset="0.7932" style="stop-color:#22565E"/>
		<stop  offset="1" style="stop-color:#13007C"/>
	</linearGradient>
	<path fill="url(#SVGID_1_)" stroke="#E2E2E2" stroke-width="9" stroke-miterlimit="10" d="M465.5,362.667c0,48.6-39.399,88-88,88
		h-246c-48.601,0-88-39.4-88-88V146c0-48.601,39.399-88,88-88h246c48.601,0,88,39.399,88,88V362.667z"/>
</g>
<path fill="#E2F2E3" stroke="#131409" stroke-width="3" stroke-miterlimit="10" d="M363.898,360.057L290.203,226.52v-50.703h11.791
	c5.012,0,8.844-3.832,8.844-8.843v-35.964c0-5.011-3.832-8.843-8.844-8.843H197.051c-5.011,0-8.843,3.833-8.843,8.843v35.964
	c0,5.012,3.833,8.843,8.843,8.843h11.792v50.703l-73.696,133.538c0,0,0,0.295-0.295,0.295c-2.358,4.717-2.063,10.022,0.59,14.738
	c2.653,4.422,7.37,7.076,12.675,7.076h202.812c5.306,0,10.022-2.654,12.676-7.076C366.258,370.375,366.552,364.773,363.898,360.057z
	 M205.895,158.13v-18.277h87.256v18.277h-11.791c-5.012,0-8.844,3.832-8.844,8.843v61.905c0,1.474,0.295,2.947,1.18,4.422
	l39.207,71.043H186.144l11.497-20.635h43.039c5.012,0,8.843-3.833,8.843-8.843c0-5.012-3.832-8.844-8.843-8.844h-33.311
	l6.485-11.791h26.825c5.012,0,8.843-3.833,8.843-8.844s-3.832-8.843-8.843-8.843h-17.097l1.769-3.243
	c0.59-1.179,1.179-2.653,1.179-4.422v-4.127h14.15c5.012,0,8.843-3.832,8.843-8.843c0-5.011-3.832-8.843-8.843-8.843h-14.15v-12.086
	h14.15c5.012,0,8.843-3.832,8.843-8.843c0-5.011-3.832-8.843-8.843-8.843h-14.15v-10.32c0-5.012-3.832-8.843-8.843-8.843H205.895
	L205.895,158.13z M152.833,364.479l23.583-42.449h146.213l23.584,42.449H152.833z"/>
</svg>
