<?xml version="1.0" encoding="utf-8"?>
<!-- Generator: Adobe Illustrator 16.0.0, SVG Export Plug-In . SVG Version: 6.00 Build 0)  -->
<!DOCTYPE svg PUBLIC "-//W3C//DTD SVG 1.1//EN" "http://www.w3.org/Graphics/SVG/1.1/DTD/svg11.dtd">
<svg version="1.1" id="Layer_1" xmlns="http://www.w3.org/2000/svg" xmlns:xlink="http://www.w3.org/1999/xlink" x="0px" y="0px"
	 width="512px" height="512px" viewBox="0 0 512 512" enable-background="new 0 0 512 512" xml:space="preserve">
<g id="Layer_1_1_">
	<g id="Layer_2" display="none">
	</g>
	<g id="shadows">
		<g opacity="0.9">
			<g>
				<path fill="#B7B7B7" d="M466.5,381.5c0,48.6-39.4,88-88,88h-246c-48.601,0-88-39.4-88-88V164.833c0-48.601,39.399-88,88-88h246
					c48.6,0,88,39.399,88,88V381.5z"/>
			</g>
		</g>
		<g>
			<g>
				<path fill="#FFFFFF" d="M466.5,360.5c0,48.6-39.4,88-88,88h-246c-48.601,0-88-39.4-88-88V143.833c0-48.601,39.399-88,88-88h246
					c48.6,0,88,39.399,88,88V360.5z"/>
			</g>
		</g>
	</g>
	
		<radialGradient id="SVGID_1_" cx="488" cy="82.6665" r="203.7987" gradientTransform="matrix(1 0 0 -1 -233.5 337)" gradientUnits="userSpaceOnUse">
		<stop  offset="0" style="stop-color:#64BC6B"/>
		<stop  offset="0.1828" style="stop-color:#3FA958"/>
		<stop  offset="0.5" style="stop-color:#008837"/>
		<stop  offset="1" style="stop-color:#006F2D"/>
	</radialGradient>
	<path fill="url(#SVGID_1_)" stroke="#E2E2E2" stroke-width="7" stroke-miterlimit="10" d="M465.5,362.667c0,48.6-39.399,88-88,88
		h-246c-48.601,0-88-39.4-88-88V146c0-48.601,39.399-88,88-88h246c48.601,0,88,39.399,88,88V362.667z"/>
</g>
<path fill="#314E55" d="M291.997,143.195l12.746-21.245c1.452-2.418,0.669-5.554-1.748-7.004c-2.425-1.456-5.555-0.673-7.006,1.75
	l-13.453,22.423c-8.01-2.849-16.59-4.481-25.563-4.481c-8.975,0-17.553,1.632-25.563,4.481l-13.454-22.424
	c-1.451-2.423-4.587-3.201-7.004-1.75c-2.418,1.45-3.2,4.586-1.75,7.004l12.747,21.246c-24.641,12.74-41.554,38.418-41.554,68.021
	c0,2.822,2.286,5.105,5.105,5.105h142.945c2.818,0,5.105-2.284,5.105-5.105C333.551,181.614,316.638,155.936,291.997,143.195z"/>
<path fill="#5ECB66" d="M190.8,206.11c2.615-34.221,31.296-61.262,66.173-61.262c34.877,0,63.559,27.041,66.173,61.262H190.8z"/>
<g>
	<path fill="#314E55" d="M292.596,172.227h-6.731c-1.858,0-3.365,1.505-3.365,3.366v6.732c0,1.86,1.507,3.365,3.365,3.365h6.731
		c1.859,0,3.366-1.505,3.366-3.365v-6.732C295.962,173.732,294.455,172.227,292.596,172.227z"/>
	<path fill="#314E55" d="M228.081,172.227h-6.732c-1.859,0-3.366,1.505-3.366,3.366v6.732c0,1.86,1.507,3.365,3.366,3.365h6.732
		c1.858,0,3.366-1.505,3.366-3.365v-6.732C231.447,173.732,229.94,172.227,228.081,172.227z"/>
	<path fill="#314E55" d="M328.446,221.426H185.5c-2.819,0-5.105,2.284-5.105,5.105v102.977c0,13.596,11.073,24.653,24.681,24.653
		h5.95v30.661c0,11.242,9.161,20.391,20.421,20.391c11.259,0,20.421-9.148,20.421-20.391v-30.661h10.209v30.661
		c0,11.242,9.161,20.391,20.422,20.391c11.26,0,20.42-9.148,20.42-20.391v-30.661h5.949c13.609,0,24.683-11.059,24.683-24.653
		V226.532C333.551,223.709,331.266,221.426,328.446,221.426z"/>
</g>
<path fill="#5ECB66" d="M323.34,329.508c0,7.961-6.49,14.442-14.471,14.442h-11.056c-2.818,0-5.104,2.284-5.104,5.105v35.767
	c0,5.613-4.58,10.18-10.211,10.18c-5.632,0-10.211-4.566-10.211-10.18v-35.767c0-2.822-2.285-5.105-5.104-5.105h-20.42
	c-2.82,0-5.105,2.284-5.105,5.105v35.767c0,5.613-4.579,10.18-10.21,10.18c-5.632,0-10.211-4.566-10.211-10.18v-35.767
	c0-2.822-2.286-5.105-5.105-5.105h-11.056c-7.979,0-14.471-6.481-14.471-14.442v-97.872H323.34V329.508L323.34,329.508z"/>
<path fill="#314E55" d="M356.523,221.426c-9.851,0-17.867,8.027-17.867,17.888v71.434c0,9.861,8.017,17.888,17.867,17.888
	c9.853,0,17.868-8.026,17.868-17.888v-71.434C374.393,229.453,366.376,221.426,356.523,221.426z"/>
<path fill="#5ECB66" d="M364.182,310.747c0,4.232-3.436,7.678-7.657,7.678c-4.223,0-7.657-3.444-7.657-7.678v-71.434
	c0-4.232,3.435-7.678,7.657-7.678c4.222,0,7.657,3.445,7.657,7.678V310.747z"/>
<path fill="#314E55" d="M157.422,221.426c-9.852,0-17.868,8.027-17.868,17.888v71.434c0,9.861,8.017,17.888,17.868,17.888
	c9.851,0,17.868-8.026,17.868-17.888v-71.434C175.29,229.453,167.273,221.426,157.422,221.426z"/>
<path fill="#5ECB66" d="M165.08,310.747c0,4.232-3.436,7.678-7.658,7.678c-4.223,0-7.657-3.444-7.657-7.678v-71.434
	c0-4.232,3.435-7.678,7.657-7.678c4.223,0,7.658,3.445,7.658,7.678V310.747z"/>
<g>
	<g>
		<path fill="#314E55" d="M235.24,306.357l-34.282-18.697v-10.355l34.282-18.59v12.163l-23.889,11.475l23.889,11.908V306.357z"/>
		<path fill="#314E55" d="M241.096,312.899l22.735-60.733h7.182l-22.787,60.733H241.096z"/>
		<path fill="#314E55" d="M278.705,306.357v-12.097l23.884-11.812l-23.884-11.721v-12.02l34.282,18.615v10.292L278.705,306.357z"/>
	</g>
</g>
</svg>
