<?xml version="1.0" encoding="utf-8"?>
<!-- Generator: Adobe Illustrator 16.0.0, SVG Export Plug-In . SVG Version: 6.00 Build 0)  -->
<!DOCTYPE svg PUBLIC "-//W3C//DTD SVG 1.1//EN" "http://www.w3.org/Graphics/SVG/1.1/DTD/svg11.dtd">
<svg version="1.1" id="Layer_1" xmlns="http://www.w3.org/2000/svg" xmlns:xlink="http://www.w3.org/1999/xlink" x="0px" y="0px"
	 width="512px" height="512px" viewBox="0 0 512 512" enable-background="new 0 0 512 512" xml:space="preserve">
<g id="Layer_1_1_">
	<g id="Layer_2" display="none">
	</g>
	<g id="shadows">
		<g opacity="0.9">
			<g>
				<path fill="#B7B7B7" d="M466.5,381.5c0,48.6-39.4,88-88,88h-246c-48.602,0-88-39.4-88-88V164.833c0-48.601,39.398-88,88-88h246
					c48.6,0,88,39.399,88,88V381.5z"/>
			</g>
		</g>
		<g>
			<g>
				<path fill="#FFFFFF" d="M466.5,360.5c0,48.6-39.4,88-88,88h-246c-48.602,0-88-39.4-88-88V143.833c0-48.601,39.398-88,88-88h246
					c48.6,0,88,39.399,88,88V360.5z"/>
			</g>
		</g>
	</g>
	<radialGradient id="SVGID_1_" cx="254.5002" cy="254.3335" r="203.7987" gradientUnits="userSpaceOnUse">
		<stop  offset="0" style="stop-color:#F69453"/>
		<stop  offset="0.5" style="stop-color:#F37521"/>
		<stop  offset="1" style="stop-color:#D4622A"/>
	</radialGradient>
	<path fill="url(#SVGID_1_)" stroke="#E2E2E2" stroke-width="10" stroke-miterlimit="10" d="M465.5,362.667c0,48.6-39.399,88-88,88
		h-246c-48.602,0-88-39.4-88-88V146c0-48.601,39.398-88,88-88h246c48.601,0,88,39.399,88,88V362.667z"/>
</g>
<rect x="128.5" y="157.5" fill="#FFFFFF" width="32" height="213"/>
<rect x="128.5" y="157.5" fill="#FFFFFF" width="79" height="21"/>
<rect x="128.5" y="349.5" fill="#FFFFFF" width="79" height="21"/>
<rect x="342.5" y="157.5" fill="#FFFFFF" width="32" height="213"/>
<rect x="295.5" y="157.5" fill="#FFFFFF" width="79" height="21"/>
<rect x="295.5" y="349.5" fill="#FFFFFF" width="79" height="21"/>
</svg>
