<?xml version="1.0" encoding="utf-8"?>
<!-- Generator: Adobe Illustrator 16.0.0, SVG Export Plug-In . SVG Version: 6.00 Build 0)  -->
<!DOCTYPE svg PUBLIC "-//W3C//DTD SVG 1.1//EN" "http://www.w3.org/Graphics/SVG/1.1/DTD/svg11.dtd">
<svg version="1.1" id="Layer_1" xmlns="http://www.w3.org/2000/svg" xmlns:xlink="http://www.w3.org/1999/xlink" x="0px" y="0px"
	 width="512px" height="512px" viewBox="0 0 512 512" enable-background="new 0 0 512 512" xml:space="preserve">
<g id="Layer_1_1_">
	<g id="Layer_2" display="none">
	</g>
	<g id="shadows">
		<g opacity="0.9">
			<g>
				<path fill="#B7B7B7" d="M466.5,381.5c0,48.6-39.4,88-88,88h-246c-48.603,0-88-39.4-88-88V164.833c0-48.601,39.397-88,88-88h246
					c48.6,0,88,39.399,88,88V381.5z"/>
			</g>
		</g>
		<g>
			<g>
				<path fill="#FFFFFF" d="M466.5,360.5c0,48.6-39.4,88-88,88h-246c-48.603,0-88-39.4-88-88V143.833c0-48.601,39.397-88,88-88h246
					c48.6,0,88,39.399,88,88V360.5z"/>
			</g>
		</g>
	</g>
	
		<radialGradient id="SVGID_1_" cx="262.8596" cy="281.7207" r="203.799" gradientTransform="matrix(1 0 0 -1 -8.3599 536.0547)" gradientUnits="userSpaceOnUse">
		<stop  offset="0" style="stop-color:#FFE7A3"/>
		<stop  offset="0.5" style="stop-color:#FFCA05"/>
		<stop  offset="1" style="stop-color:#FAAC18"/>
	</radialGradient>
	<path fill="url(#SVGID_1_)" stroke="#E2E2E2" stroke-width="10" stroke-miterlimit="10" d="M465.5,362.667c0,48.6-39.399,88-88,88
		h-246c-48.603,0-88-39.4-88-88V146c0-48.601,39.397-88,88-88h246c48.601,0,88,39.399,88,88V362.667z"/>
</g>
<path fill="#656D88" d="M170.563,349.786c-0.087-28.657-0.078-25.756-0.078-25.964c0-6.13,4.964-11.094,11.094-11.094H303.61
	c6.13,0,11.094,4.964,11.094,11.094c0,0.208,0.009-2.693-0.078,25.964c15.781,2.609,27.813,16.313,27.813,32.833H142.75
	C142.75,366.1,154.782,352.396,170.563,349.786z"/>
<path fill="#656D88" d="M339.664,187.657c-11.189-44.758-54.531-77.944-90.559-77.944h-11.408l16.545,36.997
	c27.977,4.804,48.814,26.283,54.455,48.873c8.975,35.901,1.241,56.642-6.48,81.073l0.045,0.018h33.541
	C342.949,253.732,349.51,227.058,339.664,187.657z"/>
<path fill="#ED5575" d="M242.65,223.157c-0.65-0.271-1.298-0.576-1.958-0.903c-23.713-11.854-39,10.455-40.991,11.642
	c-6.474,6.475-16.97,6.475-23.436,0l-13.585-13.579c-4.331-4.332-4.331-11.358,0-15.692l25.299-25.299
	c0-18.305,14.678-33.143,32.982-33.143v-36.471h16.736c9.152,0,16.545,7.421,16.545,16.573v20.424
	c27.977,4.804,48.814,26.283,54.455,48.873c8.975,35.901,1.241,56.642-6.48,81.073c-2.367,7.497-6.668,19.93-1.825,36.072H186.3
	v-2.386c2.256-22.636,13.889-44.553,32.287-58.347C228.876,244.281,237.053,234.357,242.65,223.157z"/>
<path d="M248.141,349.338c0,3.063-2.483,5.547-5.547,5.547s-5.547-2.483-5.547-5.547s2.483-5.547,5.547-5.547
	S248.141,346.274,248.141,349.338z"/>
<path d="M215.26,247.557c-18.461,13.842-31.106,35.983-34.181,59.638c-8.944,0.265-16.142,7.618-16.142,16.628v21.581
	c-16.324,4.813-27.734,19.765-27.734,37.216c0,3.063,2.483,5.547,5.547,5.547h199.688c3.064,0,5.547-2.483,5.547-5.547
	c0-17.449-11.408-32.403-27.734-37.216v-21.581c0-8.802-6.871-16.025-15.529-16.6c-1.815-8.762-0.979-16.719,1.573-25.002h29.509
	c2.43,0,4.574-1.58,5.298-3.898c7.23-23.219,14.095-51.395,3.946-92.011c-11.844-47.374-57.502-82.146-95.942-82.146
	c-8.897,0-19.291,0-28.144,0c-3.064,0-5.547,2.483-5.547,5.547v31.325c-17.865,2.596-31.799,17.548-32.911,35.92l-23.746,23.745
	c-6.502,6.502-6.504,17.033,0,23.538l13.581,13.577c8.606,8.612,22.383,8.578,30.976,0.304c3.484-2.802,14.266-18.541,31.557-12.331
	C229.81,234.215,223.115,241.668,215.26,247.557z M309.156,323.822v19.969h-44.375c-3.064,0-5.547,2.483-5.547,5.547
	s2.482,5.547,5.547,5.547h44.375c13.189,0,24.573,9.189,27.186,22.188H148.845c2.604-12.959,13.954-22.188,27.186-22.188h44.375
	c3.064,0,5.547-2.483,5.547-5.547s-2.483-5.547-5.547-5.547h-44.375v-19.969c0-3.06,2.487-5.547,5.547-5.547H303.61
	C306.669,318.275,309.156,320.763,309.156,323.822z M334.281,189.003c8.921,35.688,3.966,60.322-2.58,82.124h-21.908
	c6.893-21.787,12.732-43.097,4.284-76.887c-5.835-23.375-26.397-45.46-54.288-52.058v-15.896c0-3.774-0.951-7.33-2.624-10.443
	C289.088,120.339,324.592,150.233,334.281,189.003z M245.307,229.933c11.189,2.995,20.714-0.505,27.988-4.097
	c2.747-1.356,3.873-4.685,2.518-7.432c-1.357-2.747-4.683-3.872-7.43-2.516c-8.766,4.329-16.277,5.837-25.213,1.404
	c-10.179-5.092-20.705-5.354-30.434-0.765c-8.171,3.855-13.104,9.605-16.959,13.448c-4.31,4.309-11.282,4.311-15.592,0
	l-13.583-13.58c-2.167-2.167-2.167-5.679,0-7.848l25.299-25.299c1.04-1.04,1.625-2.451,1.625-3.922
	c0-15.217,12.307-27.596,27.436-27.596c3.064,0,5.547-2.483,5.547-5.547V115.26h11.189c6.065,0,10.999,4.947,10.999,11.026v20.424
	c0,2.702,1.946,5.01,4.609,5.467c25.735,4.418,44.875,24.177,50.01,44.752c8.288,33.151,1.92,51.783-6.387,78.058
	c-3.26,10.318-5.619,19.366-3.5,32.195H192.284c3.005-20.189,13.897-38.951,29.63-50.748
	C231.398,249.32,239.413,240.227,245.307,229.933z"/>
<path d="M225.953,179.604H214.86c-3.064,0-5.547,2.483-5.547,5.547s2.483,5.547,5.547,5.547h11.094c3.064,0,5.547-2.483,5.547-5.547
	S229.017,179.604,225.953,179.604z"/>
</svg>
