<?xml version="1.0" encoding="utf-8"?>
<!-- Generator: Adobe Illustrator 16.0.0, SVG Export Plug-In . SVG Version: 6.00 Build 0)  -->
<!DOCTYPE svg PUBLIC "-//W3C//DTD SVG 1.1//EN" "http://www.w3.org/Graphics/SVG/1.1/DTD/svg11.dtd">
<svg version="1.1" id="Layer_1" xmlns="http://www.w3.org/2000/svg" xmlns:xlink="http://www.w3.org/1999/xlink" x="0px" y="0px"
	 width="512px" height="512px" viewBox="0 0 512 512" enable-background="new 0 0 512 512" xml:space="preserve">
<g id="Layer_1_1_">
	<g id="Layer_2" display="none">
	</g>
	<g id="shadows">
		<g opacity="0.9">
			<g>
				<path fill="#B7B7B7" d="M466.5,381.5c0,48.6-39.4,88-88,88h-246c-48.602,0-88-39.4-88-88V164.833c0-48.601,39.398-88,88-88h246
					c48.6,0,88,39.399,88,88V381.5z"/>
			</g>
		</g>
		<g>
			<g>
				<path fill="#FFFFFF" d="M466.5,360.5c0,48.6-39.4,88-88,88h-246c-48.602,0-88-39.4-88-88V143.833c0-48.601,39.398-88,88-88h246
					c48.6,0,88,39.399,88,88V360.5z"/>
			</g>
		</g>
	</g>
	<path fill="#FFFFFF" stroke="#E2E2E2" stroke-width="10" stroke-miterlimit="10" d="M465.5,362.667c0,48.6-39.399,88-88,88h-246
		c-48.602,0-88-39.4-88-88V146c0-48.601,39.398-88,88-88h246c48.601,0,88,39.399,88,88V362.667z"/>
</g>
<g>
	<path fill="#323C3C" d="M294.746,248.885l-47.572-10.262l10.262,108.593l69.084-10.262
		C305.729,316.079,297.782,276.078,294.746,248.885L294.746,248.885z"/>
	<path fill="#495959" d="M220.157,248.885c-0.667,5.97-1.573,12.556-2.806,19.428c-3.991,22.25-12.243,51.787-28.997,68.641
		l69.083,10.263V238.623L220.157,248.885z"/>
	<path fill="#323C3C" d="M280.526,143.705c0-12.728-10.354-23.083-23.083-23.083c-0.002,0-0.004,0-0.007,0l-10.262,23.083
		l10.262,23.083h0.007C270.171,166.788,280.526,156.433,280.526,143.705z"/>
	<path fill="#495959" d="M234.359,143.705c0,12.727,10.353,23.081,23.078,23.083v-46.167
		C244.711,120.624,234.359,130.978,234.359,143.705L234.359,143.705z"/>
	<path fill="#495959" d="M257.443,151.408c-0.002,0-0.004,0-0.007,0l-10.262,38.477l10.262,38.477h0.007
		c21.216,0,38.477-17.261,38.477-38.478C295.919,168.668,278.658,151.408,257.443,151.408z"/>
	<path fill="#607882" d="M218.966,189.884c0,21.214,17.256,38.473,38.47,38.477v-76.954
		C236.222,151.41,218.966,168.67,218.966,189.884L218.966,189.884z"/>
	<path fill="#495959" d="M346.525,336.954h-89.089l-10.262,41.048l99.351-10.264V336.954z"/>
	<path fill="#607882" d="M168.36,336.954v30.784l89.076,10.264v-41.048H168.36z"/>
	<path fill="#495959" d="M293.108,228.361l-45.934-10.263l10.262,30.786h37.311C293.813,240.523,293.343,233.372,293.108,228.361
		L293.108,228.361z"/>
	<path fill="#607882" d="M221.787,228.361c-0.231,5.008-0.695,12.159-1.63,20.523h37.279v-30.786L221.787,228.361z"/>
	<path fill="#323C3C" d="M308.252,212.98h-50.816l-5.131,7.69l5.131,7.691h50.816V212.98z"/>
	<path fill="#495959" d="M206.632,212.98h50.804v15.381h-50.804V212.98z"/>
	<path fill="#323C3C" d="M361.906,367.738h-104.47l-5.131,7.691l5.131,7.691h104.47V367.738z"/>
	<path fill="#495959" d="M152.98,367.738h104.456v15.383H152.98V367.738z"/>
</g>
</svg>
