<?xml version="1.0" encoding="utf-8"?>
<!-- Generator: Adobe Illustrator 16.0.0, SVG Export Plug-In . SVG Version: 6.00 Build 0)  -->
<!DOCTYPE svg PUBLIC "-//W3C//DTD SVG 1.1//EN" "http://www.w3.org/Graphics/SVG/1.1/DTD/svg11.dtd">
<svg version="1.1" id="Layer_1" xmlns="http://www.w3.org/2000/svg" xmlns:xlink="http://www.w3.org/1999/xlink" x="0px" y="0px"
	 width="512px" height="512px" viewBox="0 0 512 512" enable-background="new 0 0 512 512" xml:space="preserve">
<g id="Layer_1_1_">
	<g id="Layer_2" display="none">
	</g>
	<g id="shadows">
		<g opacity="0.9">
			<g>
				<path fill="#B7B7B7" d="M466.5,381.5c0,48.6-39.4,88-88,88h-246c-48.604,0-88-39.4-88-88V164.833c0-48.601,39.396-88,88-88h246
					c48.6,0,88,39.399,88,88V381.5z"/>
			</g>
		</g>
		<g>
			<g>
				<path fill="#FFFFFF" d="M466.5,360.5c0,48.6-39.4,88-88,88h-246c-48.604,0-88-39.4-88-88V143.833c0-48.601,39.396-88,88-88h246
					c48.6,0,88,39.399,88,88V360.5z"/>
			</g>
		</g>
	</g>
	<radialGradient id="SVGID_1_" cx="254.5002" cy="254.335" r="203.7994" gradientUnits="userSpaceOnUse">
		<stop  offset="0" style="stop-color:#7C76B7"/>
		<stop  offset="0.5" style="stop-color:#6561AB"/>
		<stop  offset="1" style="stop-color:#483F99"/>
	</radialGradient>
	<path fill="url(#SVGID_1_)" stroke="#E2E2E2" stroke-width="10" stroke-miterlimit="10" d="M465.5,146v216.67c0,48.6-39.4,88-88,88
		h-246c-48.6,0-88-39.4-88-88V146c0-48.6,39.4-88,88-88h246C426.1,58,465.5,97.4,465.5,146z"/>
</g>
<path opacity="0.3" fill="#0E0C08" d="M45.503,138.5h417.996c-13.053-44.681-45.56-76.336-83.598-76.336h-250.8
	C91.06,62.164,58.554,93.819,45.503,138.5z"/>
<path id="path4151" fill="#FFFFFF" d="M118.974,77.63l-0.038,0.028l17.816,24.083l-17.727,23.961h28.572l17.726-23.961
	L147.487,77.63H118.974z M174.66,77.63l-0.039,0.028l17.816,24.083l-17.727,23.961h28.57l17.727-23.961L203.171,77.63H174.66z
	 M230.346,77.63l-0.038,0.028l17.814,24.083l-17.726,23.961h28.57l17.728-23.961L258.858,77.63H230.346z M286.031,77.63
	l-0.038,0.028l17.816,24.083l-17.728,23.961h28.572l17.726-23.961L314.543,77.63H286.031z M341.716,77.63l-0.038,0.028
	l17.815,24.083l-17.726,23.961h28.57l17.727-23.961L370.228,77.63H341.716z"/>
<path id="path4191" inkscape:connector-curvature="0" fill="#FFFFFF" d="M245.136,181.541c-27.583,0-52.802,11.251-70.934,29.383
	c-7.923,7.697-8.105,20.361-0.407,28.283c7.698,7.924,20.361,8.105,28.284,0.408c0.138-0.134,0.273-0.27,0.406-0.406
	c10.938-10.938,25.876-17.668,42.65-17.668c16.775,0,31.713,6.729,42.65,17.668c6.932,6.932,12.165,15.474,15.074,25.068h-15.943
	c-4.316,0.002-6.603,5.105-3.73,8.328l36.225,40.602c1.988,2.227,5.473,2.227,7.461,0l36.227-40.602
	c2.873-3.223,0.587-8.326-3.73-8.328h-15.463c-3.663-20.618-13.639-39.159-27.834-53.354
	C297.941,192.792,272.72,181.541,245.136,181.541z M164.572,251.42c-1.368,0-2.736,0.556-3.73,1.67l-36.227,40.602
	c-2.872,3.222-0.586,8.326,3.73,8.328h18.514c4.014,19.583,13.743,37.172,27.344,50.773c18.132,18.131,43.351,29.383,70.934,29.383
	c27.584,0,52.805-11.252,70.936-29.383c7.923-7.699,8.104-20.362,0.405-28.285c-7.698-7.922-20.361-8.104-28.283-0.405
	c-0.138,0.134-0.273,0.269-0.407,0.407c-10.938,10.938-25.875,17.666-42.65,17.666c-16.774,0-31.712-6.729-42.65-17.666
	c-6.304-6.305-11.197-13.943-14.223-22.49h12.533c4.317-0.002,6.604-5.106,3.73-8.328l-36.225-40.602
	C167.308,251.976,165.94,251.42,164.572,251.42z"/>
</svg>
