<?xml version="1.0" encoding="utf-8"?>
<!-- Generator: Adobe Illustrator 16.0.0, SVG Export Plug-In . SVG Version: 6.00 Build 0)  -->
<!DOCTYPE svg PUBLIC "-//W3C//DTD SVG 1.1//EN" "http://www.w3.org/Graphics/SVG/1.1/DTD/svg11.dtd">
<svg version="1.1" id="Layer_1" xmlns="http://www.w3.org/2000/svg" xmlns:xlink="http://www.w3.org/1999/xlink" x="0px" y="0px"
	 width="512px" height="512px" viewBox="0 0 512 512" enable-background="new 0 0 512 512" xml:space="preserve">
<g id="Layer_1_1_">
	<g id="Layer_2" display="none">
	</g>
	<g id="shadows">
		<g opacity="0.9">
			<g>
				<path fill="#B7B7B7" d="M466,392c0,48.6-39.4,88-88,88H132c-48.602,0-88-39.4-88-88V175.333c0-48.601,39.398-88,88-88h246
					c48.6,0,88,39.399,88,88V392z"/>
			</g>
		</g>
		<g>
			<g>
				<path fill="#FFFFFF" d="M466,371c0,48.6-39.4,88-88,88H132c-48.602,0-88-39.4-88-88V154.333c0-48.601,39.398-88,88-88h246
					c48.6,0,88,39.399,88,88V371z"/>
			</g>
		</g>
	</g>
	
		<radialGradient id="SVGID_1_" cx="262.3596" cy="-565.7788" r="203.7987" gradientTransform="matrix(1 0 0 -1 -8.3599 -300.9453)" gradientUnits="userSpaceOnUse">
		<stop  offset="0" style="stop-color:#64C08A"/>
		<stop  offset="0.5" style="stop-color:#00A550"/>
		<stop  offset="1" style="stop-color:#00914C"/>
	</radialGradient>
	<path fill="url(#SVGID_1_)" stroke="#E2E2E2" stroke-width="10" stroke-miterlimit="10" d="M465,373.167c0,48.6-39.399,88-88,88
		H131c-48.602,0-88-39.4-88-88V156.5c0-48.601,39.398-88,88-88h246c48.601,0,88,39.399,88,88V373.167z"/>
</g>
<g id="g3883" transform="matrix(1.3797304,0,0,1.3797304,-863.80508,-32.823271)">
	<path id="path3059" inkscape:connector-curvature="0" fill="#D52F41" d="M744.496,295.91c-16.99-16.991-27.5-40.465-27.5-66.391
		c0-51.855,42.036-93.891,93.891-93.891c51.854,0,93.89,42.036,93.89,93.891c0,25.926-10.509,49.4-27.499,66.391
		c0,0,13.117,13.004,24.553,0.093c13.649-18.636,21.725-41.613,21.725-66.484c0-62.225-50.444-112.669-112.669-112.669
		c-62.225,0-112.669,50.444-112.669,112.669c0,24.885,8.085,47.874,21.747,66.517C721.108,297.292,731.94,308.467,744.496,295.91"/>
	<path id="path3061" inkscape:connector-curvature="0" fill="#EE7616" d="M810.887,135.629c-51.854,0-93.891,42.036-93.891,93.891
		c0,25.926,10.51,49.4,27.5,66.391l13.279-13.278c-13.594-13.592-22-32.37-22-53.113c0-41.482,33.63-75.113,75.113-75.113
		c41.482,0,75.112,33.63,75.112,75.113c0,20.743-8.406,39.52-22,53.113l8.318,8.318c1.517,1.516,2.757,2.756,3.618,3.618
		l1.343,1.342c16.99-16.991,27.499-40.465,27.499-66.391C904.777,177.665,862.741,135.629,810.887,135.629"/>
	<path id="path3063" inkscape:connector-curvature="0" fill="#F9C447" d="M810.887,154.407c-41.483,0-75.113,33.63-75.113,75.113
		c0,20.743,8.406,39.52,22,53.113l13.278-13.278c-10.195-10.195-16.5-24.279-16.5-39.835c0-31.112,25.222-56.335,56.335-56.335
		c31.112,0,56.334,25.223,56.334,56.335c0,15.556-6.305,29.639-16.5,39.835c3.267,3.266,6.717,6.717,10.012,10.012l3.266,3.266
		c13.595-13.592,22-32.37,22-53.113C885.999,188.037,852.369,154.407,810.887,154.407"/>
	<path id="path3065" inkscape:connector-curvature="0" fill="#60B0E0" d="M810.887,173.185c-31.112,0-56.335,25.223-56.335,56.335
		c0,15.556,6.305,29.639,16.5,39.835l13.277-13.278c-6.796-6.795-10.999-16.186-10.999-26.556c0-20.742,16.814-37.557,37.557-37.557
		c20.742,0,37.555,16.814,37.555,37.557c0,10.371-4.203,19.762-10.999,26.556l10.019,10.018c1.056,1.057,2.147,2.147,3.259,3.26
		c10.195-10.195,16.5-24.279,16.5-39.835C867.221,198.407,841.999,173.185,810.887,173.185"/>
	<path id="path3067" inkscape:connector-curvature="0" fill="#3A4F7A" d="M810.887,191.963c-20.743,0-37.557,16.814-37.557,37.557
		c0,10.371,4.203,19.762,10.999,26.556c0,0,7.779-7.681,7.779-26.556c0-10.372,8.406-18.778,18.778-18.778
		c10.372,0,18.778,8.406,18.778,18.778c0,0-1.217,17.56,7.779,26.556c6.796-6.795,10.999-16.186,10.999-26.556
		C848.443,208.777,831.629,191.963,810.887,191.963"/>
</g>
<path id="polygon19" inkscape:connector-curvature="0" sodipodi:nodetypes="cssssc" fill="#BC5FD3" d="M356.645,228.873
	l-100.175,26.131c-12.799,3.338-25.34,8.406-27.767,22.168c-2.562,14.529,6.765,28.332,20.812,30.809
	c10.079,1.777,17.956-4.488,25.517-10.814L356.645,228.873z"/>
</svg>
