<?xml version="1.0" encoding="utf-8"?>
<!-- Generator: Adobe Illustrator 16.0.0, SVG Export Plug-In . SVG Version: 6.00 Build 0)  -->
<!DOCTYPE svg PUBLIC "-//W3C//DTD SVG 1.1//EN" "http://www.w3.org/Graphics/SVG/1.1/DTD/svg11.dtd">
<svg version="1.1" id="Layer_1" xmlns="http://www.w3.org/2000/svg" xmlns:xlink="http://www.w3.org/1999/xlink" x="0px" y="0px"
	 width="512px" height="512px" viewBox="0 0 512 512" enable-background="new 0 0 512 512" xml:space="preserve">
<g id="Layer_1_1_">
	<g id="Layer_2" display="none">
	</g>
	<g id="shadows">
		<g opacity="0.9">
			<g>
				<path fill="#B7B7B7" d="M466.5,381.5c0,48.6-39.4,88-88,88h-246c-48.602,0-88-39.4-88-88V164.833c0-48.601,39.398-88,88-88h246
					c48.6,0,88,39.399,88,88V381.5z"/>
			</g>
		</g>
		<g>
			<g>
				<path fill="#FFFFFF" d="M466.5,360.5c0,48.6-39.4,88-88,88h-246c-48.602,0-88-39.4-88-88V143.833c0-48.601,39.398-88,88-88h246
					c48.6,0,88,39.399,88,88V360.5z"/>
			</g>
		</g>
	</g>
	
		<radialGradient id="SVGID_1_" cx="262.8596" cy="1395.2793" r="203.7985" gradientTransform="matrix(1 0 0 1 -8.3599 -1140.9453)" gradientUnits="userSpaceOnUse">
		<stop  offset="0" style="stop-color:#D471AD"/>
		<stop  offset="0.5" style="stop-color:#C7158C"/>
		<stop  offset="1" style="stop-color:#9D248E"/>
	</radialGradient>
	<path fill="url(#SVGID_1_)" stroke="#E2E2E2" stroke-width="10" stroke-miterlimit="10" d="M465.5,362.667c0,48.6-39.399,88-88,88
		h-246c-48.602,0-88-39.4-88-88V146c0-48.601,39.398-88,88-88h246c48.601,0,88,39.399,88,88V362.667z"/>
</g>
<g id="Layer_2_1_">
</g>
<g id="g47">
	<g id="g49">
		<g id="g51">
			<path id="path53" fill="#FFFFFF" d="M297.205,131.99h35.854c53.773,0,53.773,53.141,53.773,53.141v52.559
				c0,17.734-35.902,53.773-35.902,53.773v17.685l53.773,35.407v35.456H207.629v-35.456l71.693-35.407v-17.685
				c0,0-35.989-35.989-35.853-53.773v-52.559c0,0,0-53.141,53.724-53.141 M171.813,167.446h35.804v70.293
				c0,17.734,35.902,53.773,35.902,53.773l-71.645,35.406v35.457l-89.577-0.533v-17.734l71.595-34.924V291.5
				c0,0-35.939-35.939-35.803-53.724v-17.201c0-53.092,53.724-53.092,53.724-53.092"/>
		</g>
	</g>
</g>
</svg>
