<?xml version="1.0" encoding="utf-8"?>
<!-- Generator: Adobe Illustrator 16.0.0, SVG Export Plug-In . SVG Version: 6.00 Build 0)  -->
<!DOCTYPE svg PUBLIC "-//W3C//DTD SVG 1.1//EN" "http://www.w3.org/Graphics/SVG/1.1/DTD/svg11.dtd">
<svg version="1.1" id="Layer_1" xmlns="http://www.w3.org/2000/svg" xmlns:xlink="http://www.w3.org/1999/xlink" x="0px" y="0px"
	 width="512px" height="512px" viewBox="0 0 512 512" enable-background="new 0 0 512 512" xml:space="preserve">
<g id="Layer_1_1_">
	<g id="Layer_2" display="none">
	</g>
	<g id="shadows">
		<g opacity="0.9">
			<g>
				<path fill="#B7B7B7" d="M466.5,381.5c0,48.6-39.4,88-88,88h-246c-48.604,0-88-39.4-88-88V164.833c0-48.601,39.396-88,88-88h246
					c48.6,0,88,39.399,88,88V381.5z"/>
			</g>
		</g>
		<g>
			<g>
				<path fill="#FFFFFF" d="M466.5,360.5c0,48.6-39.4,88-88,88h-246c-48.604,0-88-39.4-88-88V143.833c0-48.601,39.396-88,88-88h246
					c48.6,0,88,39.399,88,88V360.5z"/>
			</g>
		</g>
	</g>
	<path fill="#7ACFDC" stroke="#E2E2E2" stroke-width="10" stroke-miterlimit="10" d="M465.5,362.667c0,48.6-39.399,88-88,88h-246
		c-48.604,0-88-39.4-88-88V146c0-48.601,39.396-88,88-88h246c48.601,0,88,39.399,88,88V362.667z"/>
</g>
<g id="layer1" transform="translate(0,-540.3622)" inkscape:label="Layer 1" inkscape:groupmode="layer">
	<g id="layer4-0" transform="matrix(6.5428582,0,0,6.5342041,-4301.9194,-4192.4237)">
	</g>
	<g id="layer4-0-7" transform="matrix(6.5428582,0,0,6.5342041,-4301.9194,-4140.1501)">
	</g>
	<g id="layer1-0" transform="matrix(6.5428582,0,0,6.5342041,-709.89021,690.14238)">
	</g>
	<circle id="path4151-3" fill="#13A0BF" cx="324.727" cy="708.388" r="0"/>
	<circle id="path4151-1" fill="#13A0BF" cx="324.727" cy="708.388" r="0"/>
	<path id="rect4135-9" inkscape:connector-curvature="0" fill="#D41A1A" d="M294.357,640.602
		c-47.799-0.003-86.551,38.933-86.554,86.964c0,0.004,0,0.007,0,0.012c-0.003,48.031,38.744,86.973,86.543,86.973
		c0.004,0,0.008,0,0.011,0c47.8,0.006,86.553-38.931,86.555-86.963c0-0.003,0-0.007,0-0.01
		c0.003-48.034-38.744-86.974-86.543-86.976C294.365,640.602,294.36,640.602,294.357,640.602z"/>
	<path id="path4962-2" inkscape:connector-curvature="0" fill-opacity="0.2" d="M376.898,666.483
		c-40.048-40.049-105.293-40.049-145.343,0c-37.593,37.595-39.883,97.392-6.898,137.707l-31.438,31.439
		c-6.841-1.818-14.415-0.123-19.79,5.303l-87.206,87.207c-8.051,8.055-8.051,21.02,0,29.068c8.052,8.053,21.016,8.053,29.068,0
		l87.206-87.203c5.386-5.387,7.085-12.959,5.266-19.803l31.438-31.438c40.317,32.986,100.114,30.695,137.708-6.898
		c40.05-40.05,40.05-105.294,0-145.343L376.898,666.483z M362.365,681.019c32.195,32.194,32.195,84.081,0,116.274
		c-32.195,32.194-84.08,32.194-116.274,0c-32.195-32.193-32.196-84.079,0-116.274C278.284,648.823,330.169,648.825,362.365,681.019
		L362.365,681.019z"/>
	
		<path id="path4424" inkscape:connector-curvature="0" inkscape:transform-center-y="71.201013" inkscape:transform-center-x="72.498434" fill="#F2F2F2" d="
		M343.959,678.868l15.459,16.12l-91.102,90.537l-48.415-54.152l16.054-15.13l33.355,37.277L343.959,678.868z"/>
	<path id="path4962" inkscape:connector-curvature="0" sodipodi:nodetypes="csccccsscsccccccccsc" fill="#3D444D" d="
		M366.622,656.207c-40.05-40.049-105.294-40.049-145.343,0c-37.594,37.595-39.883,97.391-6.898,137.708l-31.438,31.437
		c-6.842-1.816-14.415-0.121-19.791,5.303l-87.206,87.207c-8.051,8.053-8.051,21.018,0,29.07c4.016,4.014,9.252,6.027,14.492,6.039
		c5.268,0,10.541-2.004,14.577-6.039l87.206-87.207c5.385-5.387,7.083-12.959,5.265-19.801l31.438-31.439
		c40.317,32.986,100.112,30.697,137.708-6.895c40.048-40.05,40.048-105.295,0-145.345L366.622,656.207z M352.086,670.741
		c32.194,32.195,32.194,84.081,0,116.274c-32.194,32.199-84.079,32.195-116.273,0c-32.194-32.193-32.195-84.078,0-116.274
		C268.006,638.547,319.893,638.547,352.086,670.741z"/>
	<path id="path4995-9" inkscape:connector-curvature="0" sodipodi:nodetypes="cscc" fill="#FFFFFF" fill-opacity="0.2" d="
		M352.086,670.741c32.108,32.108,32.108,84.166,0,116.274c-32.109,32.109-84.166,32.109-116.273,0
		C265.302,757.526,315.875,706.952,352.086,670.741z"/>
	
		<path id="path5013" inkscape:connector-curvature="0" sodipodi:nodetypes="cscsc" inkscape:transform-center-y="50.868825" inkscape:transform-center-x="-2.354796" fill-opacity="0.2" d="
		M393.167,702.342c14.688,54.827-17.848,111.182-72.673,125.872c-54.825,14.691-111.179-17.848-125.871-72.672
		c10.64,39.707,68.386,77.436,123.211,62.746C372.66,803.596,403.806,742.051,393.167,702.342L393.167,702.342z"/>
	
		<path id="path5013-3" inkscape:connector-curvature="0" sodipodi:nodetypes="cscsc" inkscape:transform-center-y="-50.868823" inkscape:transform-center-x="2.35479" fill="#FFFFFF" fill-opacity="0.2" d="
		M393.167,702.342c-14.691-54.824-71.045-87.361-125.872-72.671c-54.824,14.691-87.362,71.046-72.671,125.871
		c-10.64-39.708,20.505-101.253,75.333-115.943C324.782,624.908,382.526,662.634,393.167,702.342L393.167,702.342z"/>
	<path id="path5066" inkscape:connector-curvature="0" fill-opacity="0.2" d="M182.942,825.352l14.557,14.559l31.425-31.426
		l-14.544-14.57L182.942,825.352z"/>
	<path id="rect5108" inkscape:connector-curvature="0" sodipodi:nodetypes="ccssssscc" fill="#CCE5FF" fill-opacity="0.2" d="
		M190.221,832.629c2.635,2.637,5.086,4.934,7.317,7.166c1.873,6.871,0.099,14.512-5.317,19.93l-87.206,87.207
		c-8.053,8.051-21.017,8.051-29.069,0c-8.051-8.053-8.051-21.018,0-29.07l87.206-87.203c5.397-5.398,13.004-7.178,19.857-5.34
		c2.36,2.361,4.558,4.658,7.211,7.314L190.221,832.629z"/>
</g>
</svg>
