<?xml version="1.0" encoding="utf-8"?>
<!-- Generator: Adobe Illustrator 16.0.0, SVG Export Plug-In . SVG Version: 6.00 Build 0)  -->
<!DOCTYPE svg PUBLIC "-//W3C//DTD SVG 1.1//EN" "http://www.w3.org/Graphics/SVG/1.1/DTD/svg11.dtd">
<svg version="1.1" id="Layer_1" xmlns="http://www.w3.org/2000/svg" xmlns:xlink="http://www.w3.org/1999/xlink" x="0px" y="0px"
	 width="512px" height="512px" viewBox="0 0 512 512" enable-background="new 0 0 512 512" xml:space="preserve">
<g id="Layer_1_1_">
	<g id="Layer_2" display="none">
	</g>
	<g id="shadows">
		<g opacity="0.9">
			<g>
				<path fill="#B7B7B7" d="M466.5,381.5c0,48.6-39.4,88-88,88h-246c-48.604,0-88-39.4-88-88V164.833c0-48.601,39.396-88,88-88h246
					c48.6,0,88,39.399,88,88V381.5z"/>
			</g>
		</g>
		<g>
			<g>
				<path fill="#FFFFFF" d="M466.5,360.5c0,48.6-39.4,88-88,88h-246c-48.604,0-88-39.4-88-88V143.833c0-48.601,39.396-88,88-88h246
					c48.6,0,88,39.399,88,88V360.5z"/>
			</g>
		</g>
	</g>
	<radialGradient id="SVGID_1_" cx="254.5002" cy="254.3335" r="203.7987" gradientUnits="userSpaceOnUse">
		<stop  offset="0" style="stop-color:#FFF33B"/>
		<stop  offset="0.0401" style="stop-color:#FEE72E"/>
		<stop  offset="0.1171" style="stop-color:#FED51B"/>
		<stop  offset="0.1964" style="stop-color:#FDCA10"/>
		<stop  offset="0.2809" style="stop-color:#FDC70C"/>
		<stop  offset="0.6685" style="stop-color:#F3903F"/>
		<stop  offset="0.8876" style="stop-color:#ED683C"/>
		<stop  offset="1" style="stop-color:#E93E3A"/>
	</radialGradient>
	<path fill="url(#SVGID_1_)" d="M465.5,362.667c0,48.6-39.399,88-88,88h-246c-48.604,0-88-39.4-88-88V146c0-48.601,39.396-88,88-88
		h246c48.601,0,88,39.399,88,88V362.667z"/>
</g>
<g id="layer1_1_" transform="translate(-384.57143,-499.798)" inkscape:label="Capa 1" inkscape:groupmode="layer">
	<path id="path4909-2" inkscape:connector-curvature="0" fill="#333333" d="M728.376,610.52
		c-10.998,0.495-23.596,5.603-33.758,13.928c-12.453,10.225-22.566,36.146-19.859,50.639c1.398,7.447,7.023,16.538,12.41,19.371
		c10.037,5.255,28.322-3.529,45.189-21.363c18.209-19.336,26.576-40.594,20.354-52.628
		C748.884,613.054,739.376,609.824,728.376,610.52z M638.516,621.943c-15.299,0-23.401,10.794-23.338,31.315
		c0.02,14.032,4.977,26.666,11.422,29.778c4.788,2.317,4.906,2.075,10.921,0c9.961-3.523,19.315-26.708,17.379-42.223
		C653.314,628.13,647.843,621.935,638.516,621.943z M577.937,642.803c-2.861,0.271-5.729,2.262-8.443,4.942
		c-5.45,5.513-5.527,8.465-5.457,18.863c0.048,12.307,3.076,19.044,11.415,27.85c6.244,6.528,10.741,6.954,16.385,0.654
		c6.125-6.467,8.02-16.643,5.958-27.794c-3.138-17.011-11.269-26.061-19.858-24.821V642.803z M535.234,680.022
		c-2.965,0.32-5.639,2.2-8.437,5.005c-7.329,7.294-2.199,27.5,9.438,37.672c13.887,12.221,25.1,0.688,20.354-20.341
		C553.206,687.149,544.15,678.574,535.234,680.022z M662.843,706.854c-9.834-0.125-20.861,0.425-32.276,2.945
		c-29.402,5.993-52.929,17.103-68.019,32.276c-8.688,8.784-13.657,16.859-17.875,29.263c-10.197,30.195,8.687,73.003,44.688,102.313
		c13.405,10.895,21.592,15.766,35.249,20.347c7.085,2.339,12.694,2.896,25.824,2.484c15.035-0.333,18.098-0.786,27.801-5.951
		c14.227-7.051,30.342-23.206,37.238-37.226c4.203-8.561,4.887-12.235,4.469-19.384c-0.709-12.244-5.443-15.502-20.854-15.412
		c-21.996,0.133-31.232,5.354-35.75,20.861c-3.41,11.736-7.184,15.912-14.896,15.912c-12.223,0-24.821-9.703-24.821-19.894
		c0-7.003,11.359-17.528,39.717-36.696c39.947-27.049,53.68-43.455,51.641-61.546C712.869,718.382,692.349,707.369,662.843,706.854
		L662.843,706.854z"/>
</g>
</svg>
