<?xml version="1.0" encoding="utf-8"?>
<!-- Generator: Adobe Illustrator 16.0.0, SVG Export Plug-In . SVG Version: 6.00 Build 0)  -->
<!DOCTYPE svg PUBLIC "-//W3C//DTD SVG 1.1//EN" "http://www.w3.org/Graphics/SVG/1.1/DTD/svg11.dtd">
<svg version="1.1" id="Layer_1" xmlns="http://www.w3.org/2000/svg" xmlns:xlink="http://www.w3.org/1999/xlink" x="0px" y="0px"
	 width="512px" height="512px" viewBox="0 0 512 512" enable-background="new 0 0 512 512" xml:space="preserve">
<g id="Layer_1_1_">
	<g id="Layer_2" display="none">
	</g>
	<g id="shadows">
		<g opacity="0.9">
			<g>
				<path fill="#B7B7B7" d="M466.5,381.5c0,48.6-39.4,88-88,88h-246c-48.604,0-88-39.4-88-88V164.833c0-48.601,39.396-88,88-88h246
					c48.6,0,88,39.399,88,88V381.5z"/>
			</g>
		</g>
		<g>
			<g>
				<path fill="#FFFFFF" d="M466.5,360.5c0,48.6-39.4,88-88,88h-246c-48.604,0-88-39.4-88-88V143.833c0-48.601,39.396-88,88-88h246
					c48.6,0,88,39.399,88,88V360.5z"/>
			</g>
		</g>
	</g>
	<path fill="#66BC46" d="M465.5,362.667c0,48.6-39.399,88-88,88h-246c-48.604,0-88-39.4-88-88V146c0-48.601,39.396-88,88-88h246
		c48.601,0,88,39.399,88,88V362.667z"/>
</g>
<g id="layer1" transform="translate(-384.57143,-499.798)" inkscape:label="Capa 1" inkscape:groupmode="layer">
	<path id="path4309" inkscape:connector-curvature="0" fill-opacity="0.2353" d="M517.848,623.839v156.368
		c0,18.945,2.167,36.082,6.164,51.745c4.058,15.34,10.624,28.877,19.763,40.24c9.138,11.417,20.845,20.052,35.828,26.479
		c15.039,6.051,33.673,9.007,55.636,9.007c25.248,0,47.671-1.012,66.711-4.2c19.404-3.226,34.568-6.785,46.329-9.614V623.792h-46.1
		v234.127c-1.797,0.742-10.087,2.127-14.449,2.862c-4.06,0.364-8.414,1.067-13.599,1.797c-5.13,0.323-10.222,0.823-16.027,1.208
		c-5.861,0.317-11.789,0.601-17.338,0.601c-25.97,0-44.605-7.629-55.587-22.272c-10.981-14.598-21.294-37.885-21.294-71.684V623.782
		"/>
	<path id="path4203-5" inkscape:connector-curvature="0" fill="#9D396F" d="M517.848,620.153v156.368
		c0,18.945,2.167,36.08,6.164,51.745c4.058,15.34,10.624,28.877,19.763,40.24c9.138,11.417,20.845,20.052,35.828,26.48
		c15.039,6.05,33.673,9.006,55.636,9.006c25.248,0,47.671-1.012,66.711-4.2c19.404-3.226,34.568-6.785,46.329-9.614V620.106h-46.1
		v234.128c-1.797,0.742-10.087,2.126-14.449,2.861c-4.06,0.364-8.414,1.067-13.599,1.797c-5.13,0.323-10.222,0.823-16.027,1.208
		c-5.861,0.317-11.789,0.601-17.338,0.601c-25.97,0-44.605-7.629-55.587-22.272c-10.981-14.598-21.294-37.884-21.294-71.684V620.095
		"/>
	<path id="path4317" inkscape:connector-curvature="0" fill="#7C2B57" fill-opacity="0.3137" d="M517.855,769.134v7.387
		c0,18.945,2.157,36.08,6.157,51.738c4.055,15.347,10.627,28.891,19.766,40.254c9.138,11.417,20.846,20.045,35.828,26.467
		c15.036,6.057,33.664,9.02,55.626,9.02c25.248,0,47.683-1.014,66.718-4.193c19.409-3.234,34.568-6.806,46.329-9.635v-7.365
		c-11.761,2.829-26.925,6.388-46.329,9.614c-19.035,3.188-41.47,4.199-66.718,4.199c-21.963,0-40.591-2.95-55.626-9.006
		c-14.981-6.421-26.689-15.07-35.828-26.481c-9.138-11.368-15.71-24.899-19.766-40.239
		C520.012,805.236,517.855,788.086,517.855,769.134L517.855,769.134z"/>
</g>
</svg>
