<?xml version="1.0" encoding="utf-8"?>
<!-- Generator: Adobe Illustrator 16.0.0, SVG Export Plug-In . SVG Version: 6.00 Build 0)  -->
<!DOCTYPE svg PUBLIC "-//W3C//DTD SVG 1.1//EN" "http://www.w3.org/Graphics/SVG/1.1/DTD/svg11.dtd">
<svg version="1.1" id="Layer_1" xmlns="http://www.w3.org/2000/svg" xmlns:xlink="http://www.w3.org/1999/xlink" x="0px" y="0px"
	 width="512px" height="512px" viewBox="0 0 512 512" enable-background="new 0 0 512 512" xml:space="preserve">
<g id="Layer_1_1_">
	<g id="Layer_2" display="none">
	</g>
	<g id="shadows">
		<g opacity="0.9">
			<g>
				<path fill="#B7B7B7" d="M466.5,381.5c0,48.6-39.4,88-88,88h-246c-48.604,0-88-39.4-88-88V164.833c0-48.601,39.396-88,88-88h246
					c48.6,0,88,39.399,88,88V381.5z"/>
			</g>
		</g>
		<g>
			<g>
				<path fill="#FFFFFF" d="M466.5,360.5c0,48.6-39.4,88-88,88h-246c-48.604,0-88-39.4-88-88V143.833c0-48.601,39.396-88,88-88h246
					c48.6,0,88,39.399,88,88V360.5z"/>
			</g>
		</g>
	</g>
	<path fill="#3E5BA9" d="M465.5,362.667c0,48.6-39.399,88-88,88h-246c-48.604,0-88-39.4-88-88V146c0-48.601,39.396-88,88-88h246
		c48.601,0,88,39.399,88,88V362.667z"/>
</g>
<g id="layer1" transform="translate(-384.57143,-499.798)" inkscape:label="Capa 1" inkscape:groupmode="layer">
	<path id="path4203-2" inkscape:connector-curvature="0" fill="#A3DB13" d="M647.896,604.471
		c-46.783,0-88.279,22.182-115.088,56.455l18.372,11.713c22.931-28.18,57.957-46.134,96.996-46.134
		c69.037,0,125.076,56.21,125.076,125.483c0,69.227-56.039,125.432-125.076,125.432c-38.905,0-73.809-17.854-96.762-45.885
		l-18.375,11.711c26.91,34.174,68.272,56.211,115.09,56.211c81.035,0,146.75-66.057,146.75-147.469
		c0-81.366-65.768-147.417-146.75-147.417 M499.892,665.917V837.97l149.109-86.892 M647.896,662.083
		c-26.383,0-50.084,11.479-66.541,29.668l19.049,11.908c12.232-12.142,29.02-19.589,47.539-19.589
		c37.469,0,67.881,30.719,67.881,68.547c0,37.876-30.369,68.599-67.881,68.599c-18.85,0-35.885-7.734-48.166-20.25l-18.375,11.711
		c16.458,18.184,40.11,29.664,66.54,29.664c49.617,0,89.854-40.424,89.854-90.152c0-49.788-40.242-90.153-89.854-90.153"/>
</g>
</svg>
