<?xml version="1.0" encoding="utf-8"?>
<!-- Generator: Adobe Illustrator 16.0.0, SVG Export Plug-In . SVG Version: 6.00 Build 0)  -->
<!DOCTYPE svg PUBLIC "-//W3C//DTD SVG 1.1//EN" "http://www.w3.org/Graphics/SVG/1.1/DTD/svg11.dtd">
<svg version="1.1" id="Layer_1" xmlns="http://www.w3.org/2000/svg" xmlns:xlink="http://www.w3.org/1999/xlink" x="0px" y="0px"
	 width="512px" height="512px" viewBox="0 0 512 512" enable-background="new 0 0 512 512" xml:space="preserve">
<g id="Layer_1_1_">
	<g id="Layer_2" display="none">
	</g>
	<g id="shadows">
		<g opacity="0.9">
			<g>
				<path fill="#B7B7B7" d="M466.5,381.5c0,48.6-39.4,88-88,88h-246c-48.604,0-88-39.4-88-88V164.833c0-48.601,39.396-88,88-88h246
					c48.6,0,88,39.399,88,88V381.5z"/>
			</g>
		</g>
		<g>
			<g>
				<path fill="#FFFFFF" d="M466.5,360.5c0,48.6-39.4,88-88,88h-246c-48.604,0-88-39.4-88-88V143.833c0-48.601,39.396-88,88-88h246
					c48.6,0,88,39.399,88,88V360.5z"/>
			</g>
		</g>
	</g>
	<path fill="#ED1667" d="M465.5,362.667c0,48.6-39.399,88-88,88h-246c-48.604,0-88-39.4-88-88V146c0-48.601,39.396-88,88-88h246
		c48.601,0,88,39.399,88,88V362.667z"/>
</g>
<path id="rect4140" inkscape:connector-curvature="0" sodipodi:nodetypes="cccccc" fill="#FFC82D" d="M301.502,58h89.155v123.75
	l-44.578-45l-44.577,45V58z"/>
<g id="text3010" transform="matrix(7.1228354,0,0,7.0916546,710.15926,212.67351)">
	<path id="path3015" inkscape:connector-curvature="0" fill="#FFFFFF" d="M-57.373,7.528c0,4.701-1.341,8.301-4.023,10.801
		c-2.669,2.5-6.53,3.75-11.582,3.75h-8.086V-6.476h8.965c4.662,0,8.281,1.231,10.859,3.691C-58.662-0.323-57.373,3.114-57.373,7.528
		 M-63.662,7.684c0-6.133-2.708-9.199-8.125-9.199h-3.223v18.594h2.598C-66.578,17.079-63.662,13.947-63.662,7.684"/>
</g>
</svg>
