<?xml version="1.0" encoding="utf-8"?>
<!-- Generator: Adobe Illustrator 16.0.0, SVG Export Plug-In . SVG Version: 6.00 Build 0)  -->
<!DOCTYPE svg PUBLIC "-//W3C//DTD SVG 1.1//EN" "http://www.w3.org/Graphics/SVG/1.1/DTD/svg11.dtd">
<svg version="1.1" id="Layer_1" xmlns="http://www.w3.org/2000/svg" xmlns:xlink="http://www.w3.org/1999/xlink" x="0px" y="0px"
	 width="512px" height="512px" viewBox="0 0 512 512" enable-background="new 0 0 512 512" xml:space="preserve">
<g id="Layer_1_1_">
	<g id="Layer_2" display="none">
	</g>
	<g id="shadows">
		<g opacity="0.9">
			<g>
				<path fill="#B7B7B7" d="M466.5,381.5c0,48.6-39.4,88-88,88h-246c-48.604,0-88-39.4-88-88V164.833c0-48.601,39.396-88,88-88h246
					c48.6,0,88,39.399,88,88V381.5z"/>
			</g>
		</g>
		<g>
			<g>
				<path fill="#FFFFFF" d="M466.5,360.5c0,48.6-39.4,88-88,88h-246c-48.604,0-88-39.4-88-88V143.833c0-48.601,39.396-88,88-88h246
					c48.6,0,88,39.399,88,88V360.5z"/>
			</g>
		</g>
	</g>
	<linearGradient id="SVGID_1_" gradientUnits="userSpaceOnUse" x1="43.5002" y1="254.3335" x2="465.5002" y2="254.3335">
		<stop  offset="0" style="stop-color:#2BC4F3"/>
		<stop  offset="0.5" style="stop-color:#00AEEE"/>
		<stop  offset="1" style="stop-color:#0095DA"/>
	</linearGradient>
	<path fill="url(#SVGID_1_)" d="M465.5,362.667c0,48.6-39.399,88-88,88h-246c-48.604,0-88-39.4-88-88V146c0-48.601,39.396-88,88-88
		h246c48.601,0,88,39.399,88,88V362.667z"/>
</g>
<path id="path3969" sodipodi:cy="595.875" sodipodi:type="arc" sodipodi:cx="254.6875" sodipodi:ry="446.875" sodipodi:rx="482.8125" fill="#4155A5" d="
	M386.584,254.333c0,76.634-62.125,138.758-138.758,138.758c-76.634,0-138.758-62.124-138.758-138.758
	s62.124-138.758,138.758-138.758C324.459,115.575,386.584,177.699,386.584,254.333z"/>
<path id="path3211" inkscape:connector-curvature="0" fill="#FFFFFF" d="M262.25,363.969c6.529-0.578,10.221-1.769,18.803-6.065
	c13.543-6.781,24.256-14.903,30.21-22.903c8.241-11.075,13.289-23.453,15.042-36.889c0.619-4.756,0.447-18.832-0.28-23.008
	c-2.577-14.775-8.938-28.301-18.03-38.348c-8.976-9.917-19.137-16.213-32.327-20.032c-1.74-0.504-3.278-1.026-3.418-1.16
	c-0.292-0.281,1.906-0.955,4.855-1.488c3.128-0.566,12.897-0.479,16.251,0.146c6.07,1.129,14.246,4.671,19.536,8.463
	c3.259,2.336,8.251,7.045,11.142,10.51c8.17,9.792,13.715,22.76,15.52,36.291c0.232,1.745,0.539,7.056,0.682,11.801
	c0.283,9.503,0.51,10.897,2.049,12.651c2.184,2.486,5.715,1.226,8.641-3.085c3.248-4.784,6.135-13.487,7.129-21.494
	c0.453-3.655,0.375-13.225-0.141-17.158c-2.959-22.574-17.014-44.557-36.227-56.668c-8.424-5.31-16.988-8.45-27.467-10.075
	c-4.16-0.644-17.203-0.728-21.859-0.139c-13.092,1.653-25.406,6.061-35.088,12.559c-6.948,4.663-11.606,9.446-15.874,16.296
	c-3.352,5.381-3.173,5.298-3.003,1.394c0.411-9.488,4.545-18.539,12.021-26.315c5.369-5.585,10.211-9.092,17.262-12.502
	c9.731-4.707,18.319-6.656,29.426-6.678c9.409-0.019,14.687,0.982,24.327,4.614c6.504,2.451,8.441,2.974,11.05,2.988
	c2.474,0.013,3.954-0.565,4.737-1.851c1.6-2.625-0.17-6.697-5.148-11.84c-8.328-8.605-18.282-13.624-31.802-16.032
	c-4.309-0.768-15.376-1.071-20.852-0.572c-19.73,1.798-35.675,8.915-48.341,21.576c-9.606,9.603-16.431,21.251-20.274,34.604
	c-4.49,15.599-3.896,32.399,1.635,46.313c2.239,5.632,4.806,10.184,9.282,16.459c1.354,1.899,2.464,3.612,2.469,3.81
	c0.011,0.502-3.072-0.697-6.887-2.681c-23.41-12.163-31.082-46.136-17.098-75.713c2.107-4.457,4.814-8.815,8.676-13.969
	c4.065-5.425,5.344-7.878,5.474-10.499c0.075-1.517-0.022-2.084-0.485-2.822c-1.88-2.997-7.146-2.812-13.426,0.471
	c-6.154,3.217-11.147,7.481-16.694,14.257c-3.767,4.603-8.293,12.868-10.855,19.826c-1.44,3.909-3.313,10.803-4.03,14.831
	c-0.801,4.498-1.039,7.98-1.037,15.161c0.002,7.767,0.227,10.505,1.291,15.758c1.919,9.479,5.028,17.192,9.854,24.447
	c15.883,23.877,48.38,38.881,75.271,34.75c3.829-0.588,7.701-1.769,12.122-3.697c2.007-0.875,3.768-1.552,3.913-1.504
	c0.519,0.174-3.334,5.127-5.971,7.678c-7.245,7.009-16.093,10.451-27.897,10.854c-7.695,0.262-13.552-0.49-20.755-2.664
	c-11.747-3.548-21.579-9.453-30.305-18.204c-4.286-4.299-6.756-7.372-10.178-12.667c-2.281-3.529-4.731-6.218-6.339-6.957
	c-0.658-0.303-1.818-0.531-2.709-0.535c-1.467-0.006-1.63,0.067-2.754,1.24c-1.584,1.654-2.002,3.209-1.955,7.271
	c0.061,5.267,1.582,10.573,5.105,17.818c10.431,21.444,34.522,37.877,60.554,41.301c1.533,0.202,5.699,0.357,9.491,0.354
	c7.579-0.006,11.018-0.448,17.68-2.274c24.633-6.752,45.945-26.216,53.847-49.179c2.477-7.199,3.013-10.546,3.225-20.133
	l0.171-7.766l1.222,1.609c11.084,14.58,10.286,34.995-2.103,53.783c-2.886,4.377-5.036,6.954-9.589,11.49
	c-6.082,6.06-12.544,10.685-19.729,14.118c-3.87,1.85-7.615,3.178-13.804,4.896c-6.36,1.767-7.622,2.298-8.948,3.766
	c-0.979,1.083-1.034,1.246-0.913,2.7c0.304,3.671,4.31,6.003,11.504,6.698C252.623,364.293,258.524,364.299,262.25,363.969
	L262.25,363.969z"/>
</svg>
