<?xml version="1.0" encoding="utf-8"?>
<!-- Generator: Adobe Illustrator 16.0.0, SVG Export Plug-In . SVG Version: 6.00 Build 0)  -->
<!DOCTYPE svg PUBLIC "-//W3C//DTD SVG 1.1//EN" "http://www.w3.org/Graphics/SVG/1.1/DTD/svg11.dtd">
<svg version="1.1" id="Layer_1" xmlns="http://www.w3.org/2000/svg" xmlns:xlink="http://www.w3.org/1999/xlink" x="0px" y="0px"
	 width="512px" height="512px" viewBox="0 0 512 512" enable-background="new 0 0 512 512" xml:space="preserve">
<g id="Layer_1_1_">
	<g id="Layer_2" display="none">
	</g>
	<g id="shadows">
		<g opacity="0.9">
			<g>
				<path fill="#B7B7B7" d="M466.5,381.5c0,48.6-39.4,88-88,88h-246c-48.604,0-88-39.4-88-88V164.833c0-48.601,39.396-88,88-88h246
					c48.6,0,88,39.399,88,88V381.5z"/>
			</g>
		</g>
		<g>
			<g>
				<path fill="#FFFFFF" d="M466.5,360.5c0,48.6-39.4,88-88,88h-246c-48.604,0-88-39.4-88-88V143.833c0-48.601,39.396-88,88-88h246
					c48.6,0,88,39.399,88,88V360.5z"/>
			</g>
		</g>
	</g>
	<radialGradient id="SVGID_1_" cx="254.5002" cy="254.3335" r="203.7987" gradientUnits="userSpaceOnUse">
		<stop  offset="0" style="stop-color:#FFF7A9"/>
		<stop  offset="0.5" style="stop-color:#FFF100"/>
		<stop  offset="1" style="stop-color:#FFD700"/>
	</radialGradient>
	<path fill="url(#SVGID_1_)" d="M465.5,362.667c0,48.6-39.399,88-88,88h-246c-48.604,0-88-39.4-88-88V146c0-48.601,39.396-88,88-88
		h246c48.601,0,88,39.399,88,88V362.667z"/>
</g>
<path id="rect3427" fill="#ECF0F1" d="M254.499,131.894L254.499,131.894c74.256,0,134.455,60.197,134.455,134.454l0,0
	c0,74.256-60.199,134.453-134.455,134.453l0,0c-74.256,0-134.454-60.197-134.454-134.453l0,0
	C120.046,192.091,180.243,131.894,254.499,131.894z"/>
<path id="rect3429" fill="#34495E" d="M254.499,154.303L254.499,154.303c61.88,0,112.045,50.164,112.045,112.044l0,0
	c0,61.881-50.165,112.045-112.045,112.045l0,0c-61.881,0-112.044-50.164-112.044-112.045l0,0
	C142.455,204.467,192.618,154.303,254.499,154.303z"/>
<path id="rect3431" fill="#2C3E50" d="M254.499,176.712L254.499,176.712c49.505,0,89.635,40.131,89.635,89.635l0,0
	c0,49.504-40.13,89.639-89.635,89.639l0,0c-49.504,0-89.636-40.135-89.636-89.639l0,0
	C164.863,216.843,204.995,176.712,254.499,176.712z"/>
<path id="rect3433" fill="#103151" d="M254.499,199.121L254.499,199.121c37.129,0,67.229,30.1,67.229,67.227l0,0
	c0,37.127-30.1,67.229-67.229,67.229l0,0c-37.129,0-67.227-30.102-67.227-67.229l0,0C187.272,229.22,217.37,199.121,254.499,199.121
	z"/>
<path id="rect3435" fill="#202332" d="M254.499,221.53L254.499,221.53c24.754,0,44.818,20.065,44.818,44.818l0,0
	c0,24.752-20.064,44.816-44.818,44.816l0,0c-24.752,0-44.818-20.064-44.818-44.816l0,0
	C209.681,241.595,229.747,221.53,254.499,221.53z"/>
<path id="rect3437" fill="#8EA6BB" d="M276.907,221.53L276.907,221.53c12.376,0,22.41,10.033,22.41,22.409l0,0
	c0,12.376-10.034,22.409-22.41,22.409l0,0c-12.376,0-22.408-10.033-22.408-22.409l0,0
	C254.499,231.563,264.531,221.53,276.907,221.53z"/>
<path id="rect3439" fill="#8EA6BB" d="M220.886,288.758L220.886,288.758c6.188,0,11.204,5.014,11.204,11.201l0,0
	c0,6.191-5.016,11.205-11.204,11.205l0,0c-6.188,0-11.205-5.014-11.205-11.205l0,0C209.681,293.771,214.698,288.758,220.886,288.758
	z"/>
</svg>
