<?xml version="1.0" encoding="utf-8"?>
<!-- Generator: Adobe Illustrator 16.0.0, SVG Export Plug-In . SVG Version: 6.00 Build 0)  -->
<!DOCTYPE svg PUBLIC "-//W3C//DTD SVG 1.1//EN" "http://www.w3.org/Graphics/SVG/1.1/DTD/svg11.dtd">
<svg version="1.1" id="Layer_1" xmlns="http://www.w3.org/2000/svg" xmlns:xlink="http://www.w3.org/1999/xlink" x="0px" y="0px"
	 width="512px" height="512px" viewBox="0 0 512 512" enable-background="new 0 0 512 512" xml:space="preserve">
<g id="Layer_1_1_">
	<g id="Layer_2" display="none">
	</g>
	<g id="shadows">
		<g opacity="0.9">
			<g>
				<path fill="#B7B7B7" d="M466.5,381.5c0,48.6-39.4,88-88,88h-246c-48.604,0-88-39.4-88-88V164.833c0-48.601,39.396-88,88-88h246
					c48.6,0,88,39.399,88,88V381.5z"/>
			</g>
		</g>
		<g>
			<g>
				<path fill="#FFFFFF" d="M466.5,360.5c0,48.6-39.4,88-88,88h-246c-48.604,0-88-39.4-88-88V143.833c0-48.601,39.396-88,88-88h246
					c48.6,0,88,39.399,88,88V360.5z"/>
			</g>
		</g>
	</g>
	<path fill="#37B44A" d="M465.5,362.667c0,48.6-39.399,88-88,88h-246c-48.604,0-88-39.4-88-88V146c0-48.601,39.396-88,88-88h246
		c48.601,0,88,39.399,88,88V362.667z"/>
</g>
<path id="path3080" inkscape:connector-curvature="0" fill="#F9F9F9" d="M248.373,105.538c-9.955,1.459-20.396,3.957-29.942,7.25
	c0.45,11.453,4.722,23.093,6.667,34.622c1.534,7.149,3.145,14.373,4.68,21.522c0.072,0.045,0.158,0.07,0.232,0.115
	c2.067-0.669,4.184-1.25,6.316-1.754c43.418-12.202,92.776,13.863,107.376,56.494c2.072,5.665,3.654,11.466,4.559,17.428
	c18.374-4.017,36.839-8.032,55.206-12.048c2.885-6.026-2.322-13.652-2.921-20.352c-0.411-7.41-3.782-13.661-12.166-11.228h-36.61
	c-4.68-10.853-18.661-18.591-9.941-30.645c3.293-10.442,8.17-20.557,10.527-31.112c-8.12-6.026-17.22-11.607-26.319-16.025
	c-11.001,9.246-20.63,20.419-31.11,30.413c-11.527-5.617-29.156,0.813-31.813-15.207
	C258.059,125.281,254.213,114.708,248.373,105.538L248.373,105.538z M161.703,145.188c-6.662,0.673-10.48,9.015-15.906,12.982
	c-6.138,4.231-9.83,10.345-3.392,16.259c6.324,10.443,12.74,20.903,19.065,31.346c-6.813,9.62-6.157,25.526-21.054,24.33
	c-10.592,2.582-21.775,3.772-32.048,7.251c-0.92,10.032-0.95,20.731,0,30.764c13.642,4.602,28.226,7.097,42.223,10.874
	c1.162,12.766,15.94,24.498,3.626,35.093c-5.688,9.357-12.871,18.067-17.662,27.837c6.438,7.744,13.972,15.28,21.756,21.756
	c7.897-5.465,13.747-14.6,20.82-21.524c6.176-6.847,12.267-13.736,18.48-20.584c0.011-0.23-0.01-0.47,0-0.701
	c-14.82-13.649-25.289-31.96-27.955-52.284c-5.696-32.152,8.891-65.438,34.038-85.267
	C189.706,170.591,175.656,157.915,161.703,145.188z M347.329,274.201c-8.328,37.562-42.326,68.563-81.409,70.646
	c-13.444,1.358-26.86-0.88-39.184-5.73c-0.124,0.065-0.228,0.164-0.352,0.23c-4.828,18.191-9.675,36.278-14.503,54.504
	c3.892,5.432,13.159,4.521,19.298,7.254c6.737,3.183,13.882,3.39,15.791-5.145l17.545-32.167c11.752,1.084,25.18-7.43,31.577,6.082
	c7.528,7.861,14.186,16.981,22.345,24.096c9.131-4.191,18.431-9.521,26.667-15.322c-2.807-14.111-7.99-27.876-11.695-41.876
	c10.44-7.374,13.345-26.053,28.651-20.699c10.97,0.376,22.136,2.076,32.988,1.403c3.479-9.468,6.23-19.753,7.952-29.707
	c-8.682-4.197-19.5-4.72-29.006-7.486C365.107,278.313,356.19,276.208,347.329,274.201z"/>
</svg>
