<?xml version="1.0" encoding="utf-8"?>
<!-- Generator: Adobe Illustrator 16.0.0, SVG Export Plug-In . SVG Version: 6.00 Build 0)  -->
<!DOCTYPE svg PUBLIC "-//W3C//DTD SVG 1.1//EN" "http://www.w3.org/Graphics/SVG/1.1/DTD/svg11.dtd">
<svg version="1.1" id="Layer_1" xmlns="http://www.w3.org/2000/svg" xmlns:xlink="http://www.w3.org/1999/xlink" x="0px" y="0px"
	 width="512px" height="512px" viewBox="0 0 512 512" enable-background="new 0 0 512 512" xml:space="preserve">
<g id="Layer_1_1_">
	<g id="Layer_2" display="none">
	</g>
	<g id="shadows">
		<g opacity="0.9">
			<g>
				<path fill="#B7B7B7" d="M466.5,381.5c0,48.6-39.4,88-88,88h-246c-48.604,0-88-39.4-88-88V164.833c0-48.601,39.396-88,88-88h246
					c48.6,0,88,39.399,88,88V381.5z"/>
			</g>
		</g>
		<g>
			<g>
				<path fill="#FFFFFF" d="M466.5,360.5c0,48.6-39.4,88-88,88h-246c-48.604,0-88-39.4-88-88V143.833c0-48.601,39.396-88,88-88h246
					c48.6,0,88,39.399,88,88V360.5z"/>
			</g>
		</g>
	</g>
	<path fill="#2AB34B" d="M465.5,362.667c0,48.6-39.399,88-88,88h-246c-48.604,0-88-39.4-88-88V146c0-48.601,39.396-88,88-88h246
		c48.601,0,88,39.399,88,88V362.667z"/>
</g>
<path id="path3877" inkscape:connector-curvature="0" fill="#F2F2F2" d="M235.984,93.609c-56.735,0-89.139,23.406-110.292,49.58
	c16.212,4.448,27.313,8.102,30.962,9.309c0.046-2.45,0.405-24.486,0.405-24.486l0.607-0.809l0.606-0.203
	c4.982,0.727,111.228,16.385,156.028,42.499c5.542,3.256,8.508,6.811,11.938,10.321c12.38,12.799,28.828,65.889,30.562,76.901
	l-0.608,1.213c-0.638,0.235-2.414,1.441-4.451,2.834c-10.453,7.309-34.642,24.232-65.974,21.451
	c-28.178-2.513-65.133-18.555-109.481-47.76c1.951,4.605,11.208,26.276,12.75,29.953l0.607,1.012
	c6.426,3.313,67.984,34.636,98.556,33.993c24.669-0.488,51.183-12.5,61.721-18.818l3.238-0.605c0.939,0.734,0.693,2.117,0.403,3.439
	c-0.647,3.02-2.028,8.558-3.035,11.131l-0.808,2.226c-1.2,3.185-2.212,6.256-4.451,8.095c-6.216,5.654-16.242,9.987-31.775,16.795
	c-24.021,10.496-62.99,17.209-99.16,17c-12.947-0.288-25.422-1.782-36.426-3.036c-22.962-2.615-41.675-4.6-52.819,4.048
	c27.103,30.631,66.779,49.784,110.9,49.784c81.702,0,147.931-66.223,147.931-147.933C383.915,159.841,317.693,93.609,235.984,93.609
	L235.984,93.609z M275.042,172.129c-11.323,0.169-22.036,4.136-30.356,11.939c-8.912,8.255-13.94,19.622-14.368,31.773
	c-0.815,25.045,18.859,46.216,43.915,47.152c12.201,0.393,23.494-4.018,32.376-12.344c8.862-8.281,14.127-19.437,14.572-31.57
	c0.856-25.08-18.817-46.049-43.913-46.95C276.507,172.103,275.796,172.118,275.042,172.129z M273.824,185.284
	c1.046-0.065,1.978-0.04,3.036,0c17.522,0.613,31.349,15.43,30.76,32.985c-0.261,8.448-3.922,16.249-10.114,22.06
	c-6.215,5.768-14.359,8.965-22.867,8.701c-17.513-0.648-31.14-15.66-30.56-33.188c0.271-8.485,3.956-16.274,10.117-22.06
	C259.607,188.713,266.511,185.728,273.824,185.284z M280.907,202.282c-7.594,0-13.758,4.244-13.758,9.309
	c0,5.032,6.164,9.106,13.758,9.106c7.573,0,13.563-4.066,13.563-9.106C294.47,206.526,288.481,202.282,280.907,202.282z"/>
</svg>
