<?xml version="1.0" encoding="utf-8"?>
<!-- Generator: Adobe Illustrator 16.0.0, SVG Export Plug-In . SVG Version: 6.00 Build 0)  -->
<!DOCTYPE svg PUBLIC "-//W3C//DTD SVG 1.1//EN" "http://www.w3.org/Graphics/SVG/1.1/DTD/svg11.dtd">
<svg version="1.1" id="Layer_1" xmlns="http://www.w3.org/2000/svg" xmlns:xlink="http://www.w3.org/1999/xlink" x="0px" y="0px"
	 width="512px" height="512px" viewBox="0 0 512 512" enable-background="new 0 0 512 512" xml:space="preserve">
<g id="Layer_1_1_">
	<g id="Layer_2" display="none">
	</g>
	<g id="shadows">
		<g opacity="0.9">
			<g>
				<path fill="#B7B7B7" d="M466.5,381.5c0,48.6-39.4,88-88,88h-246c-48.603,0-88-39.4-88-88V164.833c0-48.601,39.397-88,88-88h246
					c48.6,0,88,39.399,88,88V381.5z"/>
			</g>
		</g>
		<g>
			<g>
				<path fill="#FFFFFF" d="M466.5,360.5c0,48.6-39.4,88-88,88h-246c-48.603,0-88-39.4-88-88V143.833c0-48.601,39.397-88,88-88h246
					c48.6,0,88,39.399,88,88V360.5z"/>
			</g>
		</g>
	</g>
	<path fill="#3385FF" stroke="#E2E2E2" stroke-width="10" stroke-miterlimit="10" d="M465.5,362.667c0,48.6-39.399,88-88,88h-246
		c-48.603,0-88-39.4-88-88V146c0-48.601,39.397-88,88-88h246c48.601,0,88,39.399,88,88V362.667z"/>
</g>
<g>
	<g>
		<path d="M266.296,126.4c-39.957,31.146-40.934,84.425-41.79,131.438c-0.733,40.163-1.426,78.089-24.35,95.957
			c-23.826,18.573-57.543,5.488-71.229-12.066c-12.687-16.276-15.079-52.439,10.073-72.047c24.404-19.022,52.347-9.401,53.768-8.898
			c8.943,3.314,18.905-1.217,22.28-10.151c3.395-8.975-1.131-19-10.109-22.393c-1.899-0.716-47.124-17.276-87.3,14.042
			c-40.429,31.514-40.939,88.966-16.116,120.812c25.604,32.849,81.184,48.364,119.993,18.111
			c35.994-28.06,36.876-76.188,37.727-122.729c0.791-43.048,1.535-83.716,28.413-104.667c15.993-12.467,30.729-15.233,45.034-8.463
			c12.408,5.88,20.938,16.83,23.889,20.625c1.696,2.175,9.053,13.977,11.387,27.949c2.654,15.917-1.896,27.838-14.345,37.542
			c-25.063,19.538-51.307,13.8-61.188,11.637c-2.571-0.562-4.421-0.969-6.549-1.065c-9.571-0.443-17.711,6.963-18.158,16.551
			c-0.43,9.248,6.454,17.133,15.53,18.078c0.467,0.086,1.053,0.225,1.743,0.379c12.88,2.816,52.047,11.387,89.972-18.178
			c46.094-35.929,25.968-92.493,8.862-114.438c-10.893-13.979-23.091-24.235-36.281-30.481
			C329.037,105.171,299.899,100.207,266.296,126.4z"/>
	</g>
</g>
<path fill="#FFFFFF" d="M286.406,197.597l19.763,2.313l3.37-28.811c-3.363-0.792-14.984-3.047-28.64-4.644
	c-62.518-7.314-52.44,53.945-55.946,62.335l-31.449-3.679l-3.768,32.209l31.439,3.678l-9.481,81.043l38.545,4.511l9.482-81.036
	l30.17,3.529l8.559-31.648l-34.971-4.09C267.671,212.183,261.049,194.631,286.406,197.597L286.406,197.597z"/>
</svg>
