<?xml version="1.0" encoding="utf-8"?>
<!-- Generator: Adobe Illustrator 16.0.0, SVG Export Plug-In . SVG Version: 6.00 Build 0)  -->
<!DOCTYPE svg PUBLIC "-//W3C//DTD SVG 1.1//EN" "http://www.w3.org/Graphics/SVG/1.1/DTD/svg11.dtd">
<svg version="1.1" id="Layer_1" xmlns="http://www.w3.org/2000/svg" xmlns:xlink="http://www.w3.org/1999/xlink" x="0px" y="0px"
	 width="512px" height="512px" viewBox="0 0 512 512" enable-background="new 0 0 512 512" xml:space="preserve">
<g id="Layer_1_1_">
	<g id="Layer_2" display="none">
	</g>
	<g id="shadows">
		<g opacity="0.9">
			<g>
				<path fill="#B7B7B7" d="M466.5,381.5c0,48.6-39.4,88-88,88h-246c-48.604,0-88-39.4-88-88V164.833c0-48.601,39.396-88,88-88h246
					c48.6,0,88,39.399,88,88V381.5z"/>
			</g>
		</g>
		<g>
			<g>
				<path fill="#FFFFFF" d="M466.5,360.5c0,48.6-39.4,88-88,88h-246c-48.604,0-88-39.4-88-88V143.833c0-48.601,39.396-88,88-88h246
					c48.6,0,88,39.399,88,88V360.5z"/>
			</g>
		</g>
	</g>
	<path fill="#8C1A1B" d="M465.5,362.667c0,48.6-39.399,88-88,88h-246c-48.604,0-88-39.4-88-88V146c0-48.601,39.396-88,88-88h246
		c48.601,0,88,39.399,88,88V362.667z"/>
</g>
<path id="path3968" inkscape:connector-curvature="0" fill="#FFFFFF" d="M282.027,100.608c-4.791,0.4-9.55,0.644-14.255,1.244
	l2.064,0.273C273.294,100.86,278.348,101.441,282.027,100.608L282.027,100.608z M261.129,102.792
	c-7.782,0.472-18.591,4.544-15.257,0.849c-12.697,5.668-35.268,13.611-47.925,25.479l-0.394-2.639
	c-5.799,6.962-25.291,20.793-26.844,29.816l-1.547,0.364c-3.013,5.11-4.978,10.882-7.371,16.137
	c-3.945,6.728-5.779,2.583-5.218,3.64c-7.763,15.738-11.625,28.976-14.952,39.826c2.371,3.547,0.077,21.354,0.97,35.609
	c-3.894,70.41,49.407,138.758,107.679,154.541c8.541,3.057,21.227,2.943,32.032,3.244c-12.745-3.646-14.396-1.924-26.815-6.246
	c-8.955-4.222-10.912-9.055-17.259-14.563l2.518,4.464c-12.439-4.411-7.226-5.443-17.35-8.647l2.67-3.518
	c-4.034-0.308-10.68-6.802-12.497-10.401l-4.397,0.181c-5.299-6.535-8.125-11.24-7.917-14.894l-1.426,2.547
	c-1.614-2.773-19.532-24.541-10.251-19.475c-1.725-1.568-4.006-2.573-6.491-7.098l1.88-2.151c-4.458-5.75-8.204-13.108-7.916-15.563
	c2.381,3.217,4.034,3.816,5.672,4.369c-11.28-27.98-11.907-1.541-20.443-28.484l1.789-0.15c-1.381-2.094-2.227-4.325-3.336-6.551
	l0.788-7.854c-8.115-9.378-2.268-39.889-1.093-56.632c0.806-6.806,6.781-14.079,11.315-25.448l-2.761-0.454
	c5.285-9.212,30.177-37.005,41.706-35.579c5.583-7.012-1.12-0.028-2.213-1.789c12.268-12.693,16.109-8.968,24.386-11.253
	c8.923-5.296-7.656,2.056-3.428-2.032c15.433-3.938,10.933-8.953,31.061-10.95c2.125,1.207-4.905,1.862-6.673,3.427
	c12.853-6.292,40.671-4.855,58.75,3.488c20.964,9.806,44.537,38.776,45.468,66.033l1.066,0.273
	c-0.537,10.837,1.651,23.372-2.158,34.882l2.58-5.429c0.301,8.258-2.423,12.305-4.887,19.411l-4.423,2.185
	c-3.626,7.039,0.348,4.472-2.246,10.068c-5.663,5.03-17.156,15.734-20.836,16.716c-2.695-0.06,1.803-3.184,2.393-4.397
	c-7.57,5.195-6.073,7.816-17.654,10.979l-0.331-0.757c-28.549,13.435-68.192-13.187-67.671-49.503
	c-0.301,2.305-0.885,1.714-1.516,2.639c-1.473-18.682,8.651-37.43,25.692-45.104c16.665-8.246,36.205-4.886,48.136,6.25
	c-6.555-8.589-19.635-17.678-35.093-16.834c-15.153,0.246-29.334,9.865-34.065,20.322c-7.758,4.884-8.662,18.828-12.041,21.384
	c-4.555,33.448,8.572,47.907,30.758,64.908c1.738,1.18,1.979,1.85,1.849,2.46c26.169,9.771,53.22,7.409,75.86-10.737
	c5.763-4.489,12.04-12.124,13.863-12.225c-2.741,4.118,0.463,1.974-1.643,5.61c5.731-9.256-2.48-3.771,5.944-15.986l3.098,4.276
	c-1.167-7.687,9.55-17.023,8.462-29.178c2.455-3.714,2.758,4.012,0.153,12.558c3.616-9.483,0.955-11.008,1.881-18.835
	c0.998,2.632,2.298,5.44,2.975,8.219c-2.359-9.167,2.421-15.446,3.606-20.776c-1.173-0.514-3.646,4.06-4.215-6.765
	c0.086-4.701,1.319-2.481,1.789-3.639c-0.918-0.53-3.353-4.128-4.823-11.042c1.06-1.627,2.853,4.223,4.306,4.458
	c-0.934-5.492-2.539-9.702-2.606-13.922c-4.248-8.875-1.502,1.206-4.946-3.79c-4.524-14.1,3.747-3.274,4.31-9.676
	c6.85,9.92,10.757,25.294,12.557,31.667c-1.371-7.771-3.575-15.285-6.275-22.567c2.083,0.879-3.369-15.99,2.697-4.824
	c-6.475-23.802-27.677-46.045-47.194-56.479c2.379,2.185,5.382,4.938,4.303,5.37c-9.712-5.776-7.979-6.235-9.369-8.676
	c-7.902-3.217-8.452,0.254-13.68,0c-14.908-7.911-17.768-7.063-31.487-12.011l0.61,2.913c-9.876-3.291-11.509,1.229-22.174,0
	c-0.647-0.503,3.417-1.818,6.765-2.306c-9.518,1.25-9.082-1.895-18.412,0.333c2.298-1.615,4.733-2.694,7.188-4.064H261.129z
	 M268.834,104.581c2.734,0.487,5.914,0.863,5.458,1.519C277.295,105.438,277.965,104.843,268.834,104.581z M274.292,106.1
	l-1.909,0.424l1.759-0.183L274.292,106.1L274.292,106.1z M148.264,166.792c0.799,7.382-5.531,10.243,1.425,5.37
	C153.427,163.75,148.217,169.849,148.264,166.792z M142.592,190.239c-4.43,5.668-2.02,6.882-2.486,10.737
	C141.713,196.052,141.979,193.095,142.592,190.239z M325.1,224.482c-0.634,0.019-1.441,1.61-1.854,3.368
	c0.954,0.5,1.719,6.505,2.641,2.79C326.201,226.029,325.733,224.468,325.1,224.482z M381.12,240.013l-0.759,1.881
	c-1.376,9.795-4.35,19.493-8.916,28.48C376.488,260.891,379.74,250.523,381.12,240.013L381.12,240.013z M321.792,243.472
	c-0.688,3.39-2.534,6.302-4.276,9.401c-9.57,6.027-0.896-3.562,0-7.217c-10.288,12.963-1.415,7.782-1.789,11.405
	C318.789,252.848,321.007,248.235,321.792,243.472z M300.924,263.247c-4.158,1.019-8.407,1.025-12.678,0.637
	c-5.12,0.066,0.956,2.636,7.642,3.669C297.743,266.108,299.43,264.664,300.924,263.247z M236.288,263.913
	c1.131,4.152,3.461,7.715,5.611,11.348l-1.609-4.646C238.509,268.645,237.473,266.272,236.288,263.913z M232.344,270.92l-0.728,3.58
	c3.369,4.574,6.049,9.541,10.343,13.105C238.869,281.573,236.575,279.084,232.344,270.92L232.344,270.92z M238.805,276.26
	c11.979,21.446,48.61,37.596,67.792,29.572c-8.88,0.332-20.152,0.198-30.118-3.487c-3.909-2.005-9.099-6.003-8.981-7.22
	c-0.182,0.518-0.503,1.016-0.303,1.79c-7.368-3.448-14.133-8.636-19.684-15.013c2.948,4.306,6.143,8.478,10.251,11.77
	C250.808,291.322,241.509,276.849,238.805,276.26L238.805,276.26z"/>
</svg>
