<?xml version="1.0" encoding="utf-8"?>
<!-- Generator: Adobe Illustrator 16.0.0, SVG Export Plug-In . SVG Version: 6.00 Build 0)  -->
<!DOCTYPE svg PUBLIC "-//W3C//DTD SVG 1.1//EN" "http://www.w3.org/Graphics/SVG/1.1/DTD/svg11.dtd">
<svg version="1.1" id="Layer_1" xmlns="http://www.w3.org/2000/svg" xmlns:xlink="http://www.w3.org/1999/xlink" x="0px" y="0px"
	 width="512px" height="512px" viewBox="0 0 512 512" enable-background="new 0 0 512 512" xml:space="preserve">
<g id="Layer_1_1_">
	<g id="Layer_2" display="none">
	</g>
	<g id="shadows">
		<g opacity="0.9">
			<g>
				<path fill="#B7B7B7" d="M466.5,381.5c0,48.6-39.4,88-88,88h-246c-48.604,0-88-39.4-88-88V164.833c0-48.601,39.396-88,88-88h246
					c48.6,0,88,39.399,88,88V381.5z"/>
			</g>
		</g>
		<g>
			<g>
				<path fill="#FFFFFF" d="M466.5,360.5c0,48.6-39.4,88-88,88h-246c-48.604,0-88-39.4-88-88V143.833c0-48.601,39.396-88,88-88h246
					c48.6,0,88,39.399,88,88V360.5z"/>
			</g>
		</g>
	</g>
	<radialGradient id="SVGID_1_" cx="254.5002" cy="254.3335" r="203.7987" gradientUnits="userSpaceOnUse">
		<stop  offset="0" style="stop-color:#FFF33B"/>
		<stop  offset="0.0401" style="stop-color:#FEE72E"/>
		<stop  offset="0.1171" style="stop-color:#FED51B"/>
		<stop  offset="0.1964" style="stop-color:#FDCA10"/>
		<stop  offset="0.2809" style="stop-color:#FDC70C"/>
		<stop  offset="0.6685" style="stop-color:#F3903F"/>
		<stop  offset="0.8876" style="stop-color:#ED683C"/>
		<stop  offset="1" style="stop-color:#E93E3A"/>
	</radialGradient>
	<path fill="url(#SVGID_1_)" d="M465.5,362.667c0,48.6-39.399,88-88,88h-246c-48.604,0-88-39.4-88-88V146c0-48.601,39.396-88,88-88
		h246c48.601,0,88,39.399,88,88V362.667z"/>
</g>
<path id="path3106" inkscape:connector-curvature="0" fill="#F9F9F9" d="M269.519,112.263c-1.477,0.097-2.421,0.573-3.364,1.452
	c-3.865,3.611-2.541,12.565,4.659,32.075c1.188,3.218,5.745,14.85,10.157,25.813c16.611,41.274,21.328,57.486,21.309,73.623
	c-0.014,9.949-1.746,15.419-6.49,20.544c-4.57,4.939-10.994,7.334-21.232,7.791c-5.536,0.246-5.913,0.25-4.658,0.764
	c0.756,0.311,3.231,0.867,5.574,1.22c5.93,0.897,18.063,0.622,23.369-0.533c23.684-5.159,41.053-23.991,49.795-54.071
	c3.775-12.997,5.18-23.866,5.193-39.79c0.014-16.966-1.361-26.341-5.807-39.713c-5.158-15.535-9.939-23.503-16.037-26.654
	c-3.271-1.69-8.76-1.908-19.32-0.688c-8.715,1.008-21.342,1.224-27.494,0.458c-2.021-0.25-6.107-0.935-9.092-1.527
	C272.992,112.412,270.99,112.166,269.519,112.263z M165.192,136.32c-2.684,0.044-5.025,0.214-6.644,0.382
	c-13.033,1.345-18.95,4.42-21.766,11.456c-0.605,1.514-1.846,6.645-2.827,11.379c-3.007,14.516-5.458,21.693-10.692,31.159
	c-4.393,7.95-4.658,8.351-4.658,10.388c0,4.355,4.758,6.577,16.191,7.561c7.825,0.673,18.079,0.39,48.725-1.528
	c15.021-0.939,44.874-1.343,52.772-0.687c19.126,1.588,30.849,5.384,37.577,12.143c6.538,6.567,7.735,15.124,3.894,27.112
	c-0.707,2.202-1.223,4.108-1.223,4.276c0,1.583,3.58-4.484,6.033-10.233c8.242-19.308,5.699-38.949-7.33-56.285
	c-16.859-22.431-50.441-40.355-86.454-46.129C184.44,136.614,173.243,136.189,165.192,136.32z M210.098,213.073
	c-6.97,0.026-14.185,1.338-21.765,3.896c-26.796,9.038-55.435,35.89-70.721,66.367c-4.32,8.609-8.075,19.637-10.081,29.479
	c-1.888,9.264-0.721,14.896,4.2,19.627c1.716,1.652,4.815,3.495,11.837,7.258c12.09,6.476,17.676,10.609,27.035,19.777
	c3.338,3.271,6.693,6.271,7.408,6.646c6.274,3.294,11.904-5.102,18.636-27.647c1.07-3.58,3.844-13.455,6.109-21.917
	c9.843-36.779,14.131-49.99,20.926-63.924c4.037-8.275,7.635-13.482,12.372-18.177c5.829-5.774,10.633-8.019,17.261-8.019
	c1.889,0,4.646,0.239,6.11,0.61c3.49,0.886,8.857,3.568,13.059,6.492c1.855,1.291,3.533,2.274,3.668,2.138
	c0.473-0.479-9.381-9.533-13.214-12.143C232.597,216.498,221.716,213.031,210.098,213.073L210.098,213.073z M396.219,221.245
	c-3.803,0.033-9.402,2.674-17.795,8.325c-6.813,4.583-12.416,8.871-30.629,23.446c-27.934,22.359-41.732,32.044-55.443,38.72
	c-18.43,8.973-31.352,8.785-39.943-0.458c-2.841-3.057-4.767-6.312-6.645-11.151c-0.785-2.022-1.672-4.247-1.985-4.962l-0.612-1.298
	v2.062c-0.038,2.777,1.464,9.974,3.055,14.74c1.695,5.072,4.66,11.051,7.637,15.196c3.093,4.304,9.333,10.269,13.748,13.213
	c8.985,5.991,22.046,10.449,34.673,11.761c5.818,0.605,19.957,0.459,26.426-0.229c28.023-2.974,55.621-13.539,74.535-28.638
	c11.291-9.011,15.555-14.722,15.582-20.929c0.014-3.47-0.896-6.061-5.422-15.655c-6.563-13.908-8.744-21.18-10.539-34.978
	c-0.713-5.458-1.355-7.101-3.361-8.325C398.586,221.529,397.483,221.234,396.219,221.245L396.219,221.245z M234.996,250.342
	c-0.307-0.102-2.649,0.827-5.193,2.063c-21.177,10.28-32.768,27.406-33.758,49.87c-0.74,16.79,5.377,37.791,16.419,56.593
	c3.463,5.89,9.373,14.581,13.595,19.855c4.565,5.7,14.138,15.373,19.246,19.477c8.542,6.855,20.622,14.034,27.11,16.112
	c5.629,1.803,10.113,1.152,15.125-2.216c1.207-0.811,4.797-3.825,8.016-6.718c11.23-10.098,16.84-13.89,28.869-19.705
	c4.23-2.045,7.859-4.155,8.553-4.888c2.82-2.982,1.662-6.519-3.814-11.99c-5.943-5.93-14.582-11.943-40.477-27.951
	c-25.518-15.772-40.148-25.812-49.644-34.063c-18.714-16.264-24.571-29.241-18.712-41.395c1.618-3.354,7.985-10.04,12.372-12.981
	C234.243,251.373,235.302,250.445,234.996,250.342z"/>
</svg>
