<?xml version="1.0" encoding="utf-8"?>
<!-- Generator: Adobe Illustrator 16.0.0, SVG Export Plug-In . SVG Version: 6.00 Build 0)  -->
<!DOCTYPE svg PUBLIC "-//W3C//DTD SVG 1.1//EN" "http://www.w3.org/Graphics/SVG/1.1/DTD/svg11.dtd">
<svg version="1.1" id="Layer_1" xmlns="http://www.w3.org/2000/svg" xmlns:xlink="http://www.w3.org/1999/xlink" x="0px" y="0px"
	 width="512px" height="512px" viewBox="0 0 512 512" enable-background="new 0 0 512 512" xml:space="preserve">
<g id="Layer_1_1_">
	<g id="Layer_2" display="none">
	</g>
	<g id="shadows">
		<g opacity="0.9">
			<g>
				<path fill="#B7B7B7" d="M466.5,381.5c0,48.6-39.4,88-88,88h-246c-48.604,0-88-39.4-88-88V164.833c0-48.601,39.396-88,88-88h246
					c48.6,0,88,39.399,88,88V381.5z"/>
			</g>
		</g>
		<g>
			<g>
				<path fill="#FFFFFF" d="M466.5,360.5c0,48.6-39.4,88-88,88h-246c-48.604,0-88-39.4-88-88V143.833c0-48.601,39.396-88,88-88h246
					c48.6,0,88,39.399,88,88V360.5z"/>
			</g>
		</g>
	</g>
	<radialGradient id="SVGID_1_" cx="254.5002" cy="254.3335" r="203.7987" gradientUnits="userSpaceOnUse">
		<stop  offset="0" style="stop-color:#F69453"/>
		<stop  offset="0.5" style="stop-color:#F37521"/>
		<stop  offset="1" style="stop-color:#D4622A"/>
	</radialGradient>
	<path fill="url(#SVGID_1_)" d="M465.5,362.667c0,48.6-39.399,88-88,88h-246c-48.604,0-88-39.4-88-88V146c0-48.601,39.396-88,88-88
		h246c48.601,0,88,39.399,88,88V362.667z"/>
</g>
<path id="path2518" inkscape:connector-curvature="0" fill="#F9F9F9" d="M254.473,97.789c-13.168,32.28-21.109,53.397-35.768,84.718
	c8.987,9.528,20.02,20.623,37.936,33.152c-19.261-7.924-32.401-15.882-42.22-24.141c-18.761,39.15-48.154,94.918-107.804,202.09
	c46.884-27.063,83.225-43.75,117.095-50.119c-1.455-6.256-2.283-13.021-2.227-20.076l0.057-1.508
	c0.743-30.035,16.368-53.131,34.877-51.564c18.508,1.571,32.896,27.207,32.152,57.242c-0.138,5.65-0.778,11.088-1.892,16.131
	c33.5,6.551,69.454,23.197,115.703,49.895c-9.12-16.789-17.256-31.922-25.03-46.336c-12.244-9.49-25.018-21.84-51.063-35.209
	c17.903,4.652,30.722,10.021,40.716,16.018C287.975,180.94,281.576,161.388,254.473,97.789z"/>
</svg>
