<?xml version="1.0" encoding="utf-8"?>
<!-- Generator: Adobe Illustrator 16.0.0, SVG Export Plug-In . SVG Version: 6.00 Build 0)  -->
<!DOCTYPE svg PUBLIC "-//W3C//DTD SVG 1.1//EN" "http://www.w3.org/Graphics/SVG/1.1/DTD/svg11.dtd">
<svg version="1.1" id="Layer_1" xmlns="http://www.w3.org/2000/svg" xmlns:xlink="http://www.w3.org/1999/xlink" x="0px" y="0px"
	 width="512px" height="512px" viewBox="0 0 512 512" enable-background="new 0 0 512 512" xml:space="preserve">
<g id="Layer_1_1_">
	<g id="Layer_2" display="none">
	</g>
	<g id="shadows">
		<g opacity="0.9">
			<g>
				<path fill="#B7B7B7" d="M466.5,381.5c0,48.6-39.4,88-88,88h-246c-48.604,0-88-39.4-88-88V164.833c0-48.601,39.396-88,88-88h246
					c48.6,0,88,39.399,88,88V381.5z"/>
			</g>
		</g>
		<g>
			<g>
				<path fill="#FFFFFF" d="M466.5,360.5c0,48.6-39.4,88-88,88h-246c-48.604,0-88-39.4-88-88V143.833c0-48.601,39.396-88,88-88h246
					c48.6,0,88,39.399,88,88V360.5z"/>
			</g>
		</g>
	</g>
	<path fill="#3C58A7" d="M465.5,362.667c0,48.6-39.399,88-88,88h-246c-48.604,0-88-39.4-88-88V146c0-48.601,39.396-88,88-88h246
		c48.601,0,88,39.399,88,88V362.667z"/>
</g>
<g id="layer1" transform="matrix(4.2917647,0,0,4.2917647,7243.0029,-2217.4536)" inkscape:label="Camada 1">
	<g id="scalable-3" transform="matrix(0.77893781,0,0,0.77893781,-777.42115,1929.5381)" inkscape:label="#g3701">
	</g>
	<path id="path1369" inkscape:connector-curvature="0" fill="#F9F9F9" d="M-1608.335,540.62c-14.9,0-17.689,21.217-9.307,21.217
		C-1609.261,561.838-1593.435,540.62-1608.335,540.62z M-1632.078,543.302c-8.385,1.088-5.411,15.66-0.946,15.933
		C-1628.56,559.508-1623.689,542.214-1632.078,543.302z M-1646.118,548.981c-0.366,0.039-0.762,0.142-1.182,0.316
		c-6.739,2.781-1.015,14.26,2.761,13.488C-1640.997,562.062-1640.601,548.396-1646.118,548.981L-1646.118,548.981z
		 M-1656.607,557.973c-0.586-0.023-1.219,0.165-1.893,0.631c-5.395,3.727,1.874,12.754,5.048,11.358
		C-1650.676,568.74-1652.506,558.111-1656.607,557.973L-1656.607,557.973z M-1625.768,564.914
		c-11.565-0.196-26.818,5.542-29.42,17.195c-2.818,12.61,11.616,30.131,26.66,30.131c7.402,0,15.913-6.679,17.511-15.145
		c1.219-6.455-14.363-3.876-13.804,0.395c0.672,5.12-3.788,7.639-8.123,4.338c-13.801-10.507,22.924-15.698,20.507-30.052
		C-1613.189,567.308-1618.827,565.031-1625.768,564.914L-1625.768,564.914z"/>
</g>
</svg>
