<?xml version="1.0" encoding="utf-8"?>
<!-- Generator: Adobe Illustrator 16.0.0, SVG Export Plug-In . SVG Version: 6.00 Build 0)  -->
<!DOCTYPE svg PUBLIC "-//W3C//DTD SVG 1.1//EN" "http://www.w3.org/Graphics/SVG/1.1/DTD/svg11.dtd">
<svg version="1.1" id="Layer_1" xmlns="http://www.w3.org/2000/svg" xmlns:xlink="http://www.w3.org/1999/xlink" x="0px" y="0px"
	 width="512px" height="512px" viewBox="0 0 512 512" enable-background="new 0 0 512 512" xml:space="preserve">
<g id="Layer_1_2_">
	<g id="Layer_1_1_">
		<g id="Layer_2" display="none">
			<rect x="91.5" y="101.5" display="inline" fill="none" width="327" height="289"/>
			<text transform="matrix(1 0 0 1 91.4998 110.0195)" display="inline" font-family="'MyriadPro-Regular'" font-size="12">hhfh</text>
			
				<text transform="matrix(1 0 0 1 91.4998 110.0195)" display="inline" fill="none" stroke="#E2E2E2" stroke-width="60" stroke-miterlimit="10" font-family="'MyriadPro-Regular'" font-size="12">hhfh</text>
		</g>
		<g id="shadows">
			<g opacity="0.9">
				<g>
					<path fill="#B7B7B7" d="M466.5,381.5c0,48.6-39.4,88-88,88h-246c-48.604,0-88-39.4-88-88V164.833c0-48.601,39.396-88,88-88h246
						c48.6,0,88,39.399,88,88V381.5z"/>
				</g>
			</g>
			<g>
				<g>
					<path fill="#FFFFFF" d="M466.5,360.5c0,48.6-39.4,88-88,88h-246c-48.604,0-88-39.4-88-88V143.833c0-48.601,39.396-88,88-88h246
						c48.6,0,88,39.399,88,88V360.5z"/>
				</g>
			</g>
		</g>
		<path fill="#E90882" stroke="#E2E2E2" stroke-width="7" stroke-miterlimit="10" d="M465.5,146v216.67c0,3.32-0.18,6.59-0.54,9.82
			c-0.38,3.399-0.95,6.74-1.71,10.01c-0.71,3.1-1.58,6.13-2.61,9.09c-2.25,6.46-5.229,12.58-8.84,18.25c-0.8,1.26-1.63,2.5-2.5,3.71
			c-2.359,3.33-4.95,6.49-7.74,9.45c-4.399,4.67-9.3,8.85-14.609,12.47c-2.34,1.59-4.75,3.08-7.25,4.44h-0.01
			c-0.03,0.02-0.061,0.04-0.091,0.04c0,0.01,0,0.01,0,0.01c-2.52,1.38-5.119,2.64-7.79,3.771c-4.89,2.069-10.01,3.71-15.31,4.88
			c-0.23,0.05-0.46,0.1-0.7,0.14c0,0-0.01,0.01-0.02,0.01c-1.67,0.36-3.36,0.67-5.07,0.92c-2.22,0.34-4.46,0.59-6.74,0.75
			c-0.01,0.011-0.01,0-0.01,0c-1.32,0.101-2.65,0.17-3.979,0.21h-0.04c-0.811,0.021-1.62,0.03-2.44,0.03h-246
			c-2.5,0-4.98-0.1-7.42-0.32c-0.01,0.011-0.02,0.011-0.03,0c-1.24-0.1-2.48-0.229-3.7-0.38c-2.19-0.279-4.36-0.63-6.49-1.08
			c-2.47-0.489-4.9-1.1-7.28-1.8c-4.48-1.32-8.81-2.99-12.96-4.97c-2.6-1.24-5.13-2.61-7.59-4.101l-0.01-0.01
			c-2.41-1.45-4.75-3.02-7-4.7c-5.16-3.84-9.88-8.229-14.07-13.09c-2.21-2.54-4.27-5.21-6.17-8c-0.08-0.12-0.16-0.239-0.24-0.359
			c-1.19-1.761-2.32-3.561-3.37-5.41c-3.45-5.97-6.2-12.38-8.17-19.13c-0.91-3.13-1.66-6.34-2.22-9.61c-0.6-3.5-1-7.07-1.17-10.7
			c-0.07-1.439-0.11-2.88-0.11-4.34V146c0-2.52,0.11-5.02,0.32-7.49c3.07-36.53,28.47-66.71,62.5-76.84
			C114.3,59.28,122.75,58,131.5,58h246c5.06,0,10.03,0.43,14.86,1.26c1.39,0.23,2.77,0.5,4.14,0.8c2.14,0.47,4.24,1.02,6.31,1.64
			c30.591,9.16,54.171,34.52,60.801,66.12C464.85,133.69,465.5,139.77,465.5,146z"/>
	</g>
</g>
<rect x="116" y="114.5" fill="none" width="471" height="418"/>
<g>
	<g>
		<g>
			<g>
				<g>
					<polygon fill="#FDB0A0" points="398.35,53.13 395.17,56.38 398.34,53.13 					"/>
					<path fill="#FDB0A0" d="M463.611,127.82l-8.12,8.3l-136.13,139.07l-68.68,70.18l-1.62,1.649l-14.9,15.221
						c-4.7,4.8-8.73,10.21-12.01,16.08c-0.61,1.09-1.19,2.189-1.73,3.31c-0.23,0.44-0.44,0.87-0.65,1.311
						c-0.44,0.93-0.87,1.869-1.27,2.829c-0.98,2.28-1.85,4.61-2.61,6.98c-1.01,3.15-2.16,6.24-3.43,9.27
						c-5.54,13.15-13.55,25.16-23.66,35.301l-13.72,13.35l-16.41,15.96l-8.43,8.19l-0.31,0.3c-0.44,0.45-0.9,0.88-1.38,1.29
						c-0.01,0-0.01,0-0.01,0c-0.71,0.59-1.46,1.13-2.24,1.609c-1.31,0.79-2.7,1.4-4.12,1.841c-0.56,0.17-1.14,0.31-1.71,0.43
						c-3.01,0.6-6.14,0.43-9.06-0.55c-0.51-0.17-1.01-0.36-1.51-0.59h-0.01c-0.5-0.23-0.98-0.471-1.46-0.74
						c-1.2-0.68-2.33-1.51-3.38-2.51v-0.011c-5.57-5.31-7.02-13.35-4.35-20.09c0.22-0.55,0.46-1.08,0.73-1.609
						c0.4-0.79,0.87-1.561,1.4-2.29c0.35-0.49,0.73-0.96,1.13-1.42c0.04-0.051,0.08-0.091,0.12-0.131
						c0.17-0.189,0.34-0.369,0.51-0.55l-0.54,0.55l-12.92,13.221c-3.46,3.54-7.99,5.319-12.52,5.31c-0.32,0-0.64-0.01-0.96-0.03
						c-0.32-0.01-0.64-0.04-0.97-0.08h-0.03c-0.22-0.02-0.44-0.05-0.66-0.09c-0.17-0.029-0.35-0.05-0.52-0.09
						c-0.17-0.03-0.35-0.06-0.52-0.1c-0.06-0.01-0.12-0.03-0.18-0.04c-0.68-0.15-1.35-0.351-2.02-0.59
						c-2.43-0.86-4.71-2.29-6.65-4.28c-1.08-1.11-2-2.33-2.73-3.62c-0.29-0.51-0.56-1.03-0.81-1.57c-0.01,0,0-0.01,0-0.01
						c-0.24-0.53-0.46-1.08-0.65-1.63c-0.1-0.28-0.18-0.56-0.26-0.84c-0.12-0.4-0.22-0.811-0.3-1.22
						c-0.01-0.021-0.02-0.03-0.02-0.051c-0.01-0.05-0.03-0.109-0.03-0.159c-0.06-0.25-0.1-0.5-0.14-0.75c0-0.011,0-0.021,0-0.021
						c-0.04-0.229-0.07-0.45-0.1-0.67V453c-0.02-0.14-0.04-0.28-0.05-0.42c-0.03-0.28-0.05-0.561-0.06-0.84
						c-0.02-0.33-0.03-0.65-0.03-0.98v-0.01c0-3.19,0.82-6.38,2.45-9.21c0.29-0.51,0.61-1.01,0.97-1.5c0,0-0.01,0,0-0.01
						c0.34-0.48,0.72-0.95,1.13-1.41c0.13-0.16,0.28-0.32,0.44-0.48c0.03-0.04,0.07-0.09,0.11-0.13l-6.34,6.5
						c-0.89,0.91-1.85,1.71-2.86,2.4c-1.84,1.24-3.85,2.109-5.93,2.609c-1.64,0.4-3.32,0.561-4.98,0.48
						c-0.2-0.01-0.39-0.02-0.58-0.04c-0.15,0-0.3-0.02-0.45-0.03c-0.08-0.01-0.16-0.02-0.25-0.029c-0.17-0.021-0.35-0.04-0.53-0.07
						c-0.04-0.01-0.08-0.01-0.13-0.021l-0.18-0.029c-0.18-0.03-0.36-0.07-0.54-0.11c-0.06,0-0.12-0.02-0.18-0.03
						c-0.83-0.18-1.66-0.409-2.46-0.72c-0.15-0.05-0.29-0.1-0.43-0.16c-0.35-0.14-0.69-0.3-1.03-0.46
						c-1.56-0.75-3.02-1.76-4.34-3.02H54.8c-0.47-0.45-0.91-0.92-1.32-1.4c-0.62-0.729-1.17-1.5-1.65-2.29
						c-0.49-0.8-0.91-1.63-1.26-2.479c-0.56-1.341-0.95-2.73-1.17-4.15c-0.05-0.33-0.1-0.66-0.13-0.99
						c-0.04-0.33-0.07-0.66-0.08-0.989c-0.02-0.33-0.03-0.65-0.03-0.971c0-1.16,0.11-2.319,0.32-3.46c0.03-0.16,0.07-0.319,0.1-0.47
						c0.02-0.13,0.05-0.26,0.08-0.39c0.01-0.011,0.01-0.011,0.01-0.021c0.13-0.56,0.29-1.11,0.48-1.66
						c0.05-0.16,0.11-0.31,0.16-0.46c0.05-0.13,0.09-0.25,0.14-0.37c0,0,0.01,0,0.01-0.01c0.11-0.27,0.22-0.53,0.34-0.8
						c0.06-0.13,0.12-0.26,0.19-0.39c0.06-0.141,0.12-0.271,0.19-0.41c0,0,0-0.011,0.01-0.011c0.13-0.26,0.28-0.52,0.42-0.779
						c0.15-0.25,0.3-0.5,0.46-0.75c0-0.011,0.01-0.011,0.01-0.011c0.16-0.25,0.33-0.5,0.51-0.739c0.17-0.25,0.35-0.48,0.53-0.721
						c0.01-0.01,0.01-0.01,0.01-0.01c0.19-0.229,0.38-0.46,0.58-0.689c0-0.011,0.01-0.011,0.01-0.011
						c0.14-0.159,0.29-0.31,0.44-0.47c0.05-0.07,0.12-0.13,0.18-0.2l-6.4,6.561c-3.75,3.84-8.82,5.71-13.78,5.49
						c-0.14,0-0.28-0.011-0.42-0.03c-0.21-0.01-0.41-0.021-0.61-0.05c-0.31-0.03-0.61-0.07-0.91-0.12
						c-0.24-0.03-0.48-0.08-0.72-0.13c-0.06-0.011-0.12-0.021-0.17-0.04c-3-0.63-5.86-2.07-8.26-4.36c-2.59-2.47-4.29-5.53-5.1-8.77
						c-0.07-0.301-0.14-0.591-0.2-0.881c-0.63-3.199-0.42-6.529,0.65-9.63c0.1-0.27,0.2-0.54,0.3-0.81c0-0.01,0-0.01,0-0.01
						c0.11-0.271,0.22-0.54,0.34-0.811c0.12-0.26,0.25-0.53,0.38-0.79c0.14-0.26,0.28-0.53,0.43-0.78c0-0.01,0-0.01,0-0.01
						c0.15-0.26,0.31-0.51,0.47-0.76c0.32-0.5,0.67-0.99,1.05-1.46c0-0.01,0-0.01,0-0.01c0.16-0.2,0.32-0.391,0.49-0.58
						c0.23-0.271,0.48-0.54,0.73-0.8L23,400l13.56-13.88h-0.01c-0.73-0.12-1.46-0.28-2.17-0.49c-0.37-0.1-0.72-0.21-1.08-0.33
						c-0.27-0.09-0.54-0.18-0.81-0.29c-0.16-0.06-0.32-0.12-0.48-0.189c-0.18-0.07-0.36-0.15-0.54-0.23
						c-0.15-0.06-0.3-0.13-0.45-0.21c-0.28-0.13-0.56-0.27-0.83-0.42c-0.31-0.16-0.61-0.33-0.9-0.5c-0.36-0.22-0.72-0.45-1.07-0.69
						c-0.56-0.38-1.11-0.789-1.64-1.229c-0.53-0.45-1.04-0.92-1.54-1.43c-0.6-0.62-1.18-1.28-1.71-1.99
						c-0.12-0.16-0.25-0.33-0.37-0.5c-0.68-0.94-1.27-1.93-1.78-2.94c-2.99-6-2.95-13.08-0.19-19.1c0.3-0.66,0.63-1.3,1-1.93
						c0-0.011,0-0.011,0-0.011c0.91-1.58,2.03-3.069,3.34-4.409l5.5-5.62l3.85-3.94l8.61-8.81c0.04-0.051,0.09-0.11,0.14-0.16
						l0.07-0.061l12.22-12.52c16.557-16.947,38.888-24.34,60.492-22.208l-0.002-0.002c0.53,0.05,1.05,0.109,1.58,0.17
						c1.05,0.13,2.1,0.27,3.14,0.439c1.57,0.25,3.13,0.561,4.69,0.931c1.04,0.229,2.07,0.49,3.1,0.78
						c5.347,1.484,10.818,1.828,16.147,1.143c1.777-0.229,3.538-0.571,5.273-1.023c0.01,0,0.02-0.01,0.02-0.01
						c0.68-0.17,1.35-0.37,2.03-0.58c0.01,0,0.02-0.01,0.02-0.01c0.33-0.1,0.67-0.21,1.01-0.33c1.34-0.46,2.67-0.99,3.97-1.59
						c0.54-0.25,1.08-0.51,1.61-0.78c2.81-1.42,5.49-3.17,7.97-5.2c0.31-0.25,0.61-0.51,0.91-0.77c0.96-0.83,1.89-1.7,2.79-2.62
						l10.52-10.78l68.69-70.33l142.68-146.09l2.81-2.88c2.59,1.68,5.14,3.45,7.64,5.32C433.401,70.86,456.981,96.22,463.611,127.82z
						"/>
				</g>
			</g>
		</g>
		<path fill="#F69583" d="M249.059,347.018l-14.895,15.218c-8.361,8.539-14.588,19.016-18.276,30.514
			c-1.303,4.068-2.834,8.047-4.597,11.923c-0.59-1.636-1.149-3.272-1.685-4.932c-2.626-8.189-7.104-15.677-12.948-21.649
			l-80.448-82.185c4.213,0.414,8.394,1.188,12.509,2.331c14.905,4.134,30.829-0.593,41.751-11.777l9.729-9.951
			C203.161,300.007,226.11,323.518,249.059,347.018z"/>
		<path fill="#F69583" d="M463.611,127.82l-8.12,8.3c-3.33-10.66-7.891-20.99-13.641-30.79c-5.96-10.16-13.21-19.74-21.76-28.5
			c-5.45-5.59-11.229-10.63-17.28-15.13C433.401,70.86,456.981,96.22,463.611,127.82z"/>
		<g>
			<g>
				<g>
					<path fill="#F69583" d="M47.943,425.739l6.403-6.557c-7.067,7.236-6.917,19.066,0.46,26.095
						c7.028,6.698,18.086,6.187,24.873-0.761l6.424-6.578c-3.458,3.539-5.187,8.18-5.181,12.817
						c-0.006,4.638,1.722,9.278,5.181,12.82c6.911,7.074,18.12,7.08,25.035,0L124.59,449.8c-7.067,7.238-6.911,19.06,0.46,26.095
						c7.028,6.698,18.087,6.187,24.879-0.768l14.977-15.027c-6.765,4.005-15.818,2.935-21.756-2.741
						c-7.377-7.027-7.528-18.855-0.46-26.094l-13.459,13.782c-6.916,7.081-18.126,7.075-25.036,0
						c-3.458-3.541-5.188-8.179-5.181-12.819c-0.007-4.638,1.722-9.275,5.181-12.817l-6.417,6.568
						c-6.791,6.956-17.85,7.467-24.879,0.77c-7.37-7.034-7.52-18.864-0.459-26.094l-6.396,6.551
						c-6.792,6.953-17.852,7.465-24.88,0.769c-7.37-7.036-7.528-18.857-0.459-26.094l-18.101,18.532
						c-7.061,7.232-6.91,19.06,0.467,26.088C30.092,433.205,41.157,432.687,47.943,425.739L47.943,425.739z"/>
					<path fill="#F69583" d="M36.564,386.117l18.093-18.525c-5.221-0.862-10.164-3.716-13.603-8.505
						c-6.246-8.657-5.05-20.774,2.379-28.383L25.34,349.232c-7.437,7.615-8.626,19.726-2.387,28.389
						C26.399,382.402,31.337,385.264,36.564,386.117z"/>
				</g>
			</g>
		</g>
		<g>
			<path fill="#F69583" d="M60.464,373.53l-42.615,43.637c-1.27-5.852,0.317-12.217,4.76-16.766l13.955-14.288
				c-2.944-0.482-5.791-1.591-8.34-3.34l20.629-21.122c3.207-3.284,8.405-3.284,11.611,0C63.67,364.934,63.67,370.247,60.464,373.53
				L60.464,373.53z"/>
		</g>
		<g>
			<path fill="#F69583" d="M141.974,443.881l-22.14,22.671c-1.27-5.838,0.318-12.203,4.76-16.752l-13.461,13.771
				c-4.443,4.551-10.66,6.174-16.36,4.874l35.59-36.453c3.206-3.272,8.404-3.272,11.611,0
				C145.18,435.274,145.18,440.598,141.974,443.881z"/>
		</g>
		<g>
			<path fill="#F69583" d="M116.934,418.241l-35.59,36.454c-0.284-1.301-0.426-2.622-0.426-3.944c0-4.639,1.729-9.279,5.177-12.809
				l-6.414,6.567c-4.475,4.583-10.802,6.365-16.614,5.131l42.267-43.278c3.207-3.282,8.405-3.282,11.601,0
				C120.141,409.647,120.141,414.959,116.934,418.241L116.934,418.241z"/>
		</g>
		<g>
			<path fill="#F69583" d="M91.906,392.613l-42.32,43.323c-1.28-5.837,0.317-12.203,4.76-16.754l-6.402,6.557
				c-4.476,4.585-10.813,6.364-16.624,5.133l48.974-50.148c3.207-3.282,8.405-3.282,11.612,0
				C95.112,384.006,95.112,389.33,91.906,392.613L91.906,392.613z"/>
		</g>
	</g>
</g>
<g>
	<g>
		<g>
			<g>
				<g>
					<g>
						<path fill="#FFCEC0" d="M487.5,414.2c0,0.319-0.01,0.64-0.03,0.96c-0.02,0.33-0.04,0.66-0.08,0.979
							c-0.029,0.311-0.08,0.62-0.12,0.931c-0.02,0.06-0.029,0.12-0.039,0.17c-0.04,0.25-0.091,0.5-0.141,0.74
							c-0.01,0.029-0.01,0.069-0.02,0.1c-0.75,3.4-2.5,6.63-5.261,9.2c-2.409,2.26-5.3,3.68-8.329,4.3
							c-0.11,0.03-0.221,0.05-0.33,0.07c-0.23,0.05-0.46,0.09-0.69,0.119c-0.17,0.03-0.34,0.051-0.52,0.061
							c-0.24,0.04-0.48,0.06-0.721,0.07c-0.189,0.02-0.39,0.029-0.58,0.04c-5,0.229-10.09-1.62-13.87-5.41h-0.01l-6.279-6.29
							l-0.171-0.17c0.431,0.43,0.841,0.88,1.23,1.35c1.14,1.41,2.04,2.95,2.69,4.561c0.109,0.27,0.21,0.55,0.31,0.819
							c0.67,1.91,1,3.91,1,5.91c0,0.32-0.01,0.64-0.03,0.95c-0.01,0.33-0.04,0.66-0.08,0.979c-0.029,0.33-0.08,0.65-0.13,0.971
							c-0.05,0.31-0.109,0.62-0.18,0.93c0,0.01-0.01,0.03-0.01,0.04c-0.74,3.41-2.5,6.63-5.261,9.21c-2.409,2.25-5.29,3.67-8.31,4.3
							c-0.03,0.01-0.05,0.01-0.08,0.01c-0.28,0.061-0.55,0.11-0.83,0.15c-0.3,0.05-0.61,0.09-0.91,0.12
							c-0.31,0.04-0.62,0.06-0.92,0.07c-1.49,0.079-2.99-0.03-4.46-0.32h-0.01c-0.487-0.097-0.969-0.22-1.447-0.354
							c-0.172-0.049-0.343-0.097-0.513-0.15c-0.434-0.136-0.864-0.283-1.288-0.452c-0.06-0.023-0.122-0.039-0.182-0.063
							c-0.271-0.119-0.551-0.239-0.82-0.369c-0.28-0.131-0.55-0.261-0.82-0.4c-0.529-0.29-1.06-0.6-1.569-0.94
							c-0.261-0.17-0.511-0.34-0.761-0.52c-0.25-0.19-0.489-0.38-0.729-0.58c-0.24-0.19-0.48-0.39-0.71-0.6v-0.011c0,0,0,0-0.01,0
							c-0.23-0.21-0.45-0.42-0.671-0.64v-0.01l-5.119-5.12l-1.12-1.12l-0.011-0.01l-0.22-0.221c0.21,0.21,0.42,0.431,0.63,0.65
							c0,0.01,0,0.01,0,0.01c0.2,0.23,0.4,0.45,0.59,0.681c0,0.01,0,0.01,0,0.01c0.021,0.02,0.03,0.04,0.04,0.05
							c0.181,0.22,0.351,0.43,0.511,0.65c0,0.01,0,0.01,0,0.01c0.18,0.24,0.34,0.479,0.51,0.729c0,0,0,0,0,0.011
							c0.16,0.239,0.32,0.489,0.47,0.739c0,0,0,0,0,0.011c0.15,0.239,0.29,0.489,0.42,0.75c0.141,0.26,0.271,0.52,0.391,0.79
							c0.25,0.529,0.47,1.069,0.649,1.609c0.101,0.271,0.181,0.54,0.271,0.82c0.16,0.55,0.3,1.11,0.399,1.67
							c0.061,0.28,0.11,0.56,0.15,0.84c0.13,0.86,0.189,1.72,0.189,2.59c0,0.33-0.01,0.65-0.029,0.98
							c-0.011,0.26-0.03,0.52-0.061,0.78c0,0.069-0.01,0.13-0.02,0.199c-0.021,0.2-0.05,0.41-0.07,0.61
							c-0.02,0.06-0.03,0.13-0.04,0.2c0,0.03,0,0.06-0.01,0.08c-0.01,0.09-0.03,0.18-0.05,0.26c-0.03,0.21-0.07,0.42-0.12,0.63
							c-0.01,0.05-0.021,0.11-0.03,0.16c-0.02,0.12-0.05,0.24-0.08,0.36c-0.75,3.069-2.319,5.979-4.71,8.38
							c-2.487,2.495-5.53,4.089-8.729,4.8l0,0c-0.001,0-0.002,0-0.003,0.001c-1.614,0.358-3.265,0.49-4.907,0.395
							c-0.063-0.004-0.124-0.011-0.187-0.016c-0.463-0.031-0.924-0.08-1.383-0.147c-0.113-0.017-0.227-0.037-0.34-0.057
							c-0.409-0.068-0.816-0.15-1.222-0.248c-0.132-0.031-0.264-0.063-0.396-0.099c-0.389-0.103-0.772-0.221-1.154-0.35
							c-0.134-0.046-0.268-0.088-0.401-0.137c-0.39-0.143-0.773-0.303-1.154-0.474c-0.115-0.051-0.231-0.096-0.345-0.149
							c-0.488-0.231-0.97-0.481-1.439-0.76c-0.26-0.15-0.51-0.311-0.75-0.47c-0.739-0.49-1.449-1.04-2.13-1.66
							c-0.229-0.2-0.45-0.41-0.67-0.63l-13.149-13.181h-0.011l-0.229-0.229c0.08,0.07,0.149,0.149,0.21,0.229h0.01
							c0.09,0.091,0.17,0.181,0.25,0.271c1.12,1.24,2.03,2.6,2.74,4.04c0.069,0.13,0.14,0.27,0.2,0.399v0.011
							c0.119,0.26,0.239,0.529,0.35,0.79c0,0-0.01,0.01,0,0.01c0.11,0.27,0.21,0.54,0.3,0.81c0.101,0.271,0.19,0.55,0.271,0.82
							c0.06,0.2,0.109,0.4,0.16,0.61c0.38,1.47,0.569,2.97,0.569,4.479c0,0.32-0.01,0.65-0.03,0.97
							c-0.01,0.33-0.039,0.66-0.079,0.98c-0.03,0.32-0.07,0.64-0.131,0.95c0,0.02,0,0.04-0.01,0.06
							c-0.05,0.311-0.109,0.62-0.18,0.93c-0.351,1.65-0.95,3.25-1.79,4.761c-0.44,0.8-0.96,1.58-1.53,2.319
							c-0.189,0.25-0.39,0.49-0.6,0.74c-0.22,0.24-0.431,0.47-0.65,0.7c-0.22,0.24-0.45,0.46-0.68,0.68
							c-1.061,0.99-2.2,1.811-3.41,2.48c-0.479,0.27-0.97,0.51-1.47,0.72l-0.01,0.01c-3.351,1.46-7.07,1.82-10.62,1.12
							c-0.011,0-0.011,0-0.011,0c-1.46-0.28-2.89-0.74-4.25-1.39c-0.83-0.391-1.63-0.83-2.399-1.34c-0.51-0.33-1.01-0.7-1.48-1.101
							c-0.489-0.39-0.95-0.81-1.399-1.26h-0.011l-8.8-8.38l-16.97-16.16l-13.37-12.729c-12.53-12.301-21.85-27.381-27.27-43.931
							c-3.721-11.33-9.98-21.649-18.41-30.08L43.82,138.51c3.07-36.53,28.47-66.71,62.5-76.84l227.06,227.57
							c11,11.029,27.03,15.689,42.04,11.609c25.36-6.89,53.59-0.35,73.51,19.601l16.57,16.609l4.62,4.631l9.41,9.43
							c0.79,0.8,1.51,1.64,2.16,2.52c0,0-0.011,0,0,0.011c0.439,0.59,0.84,1.199,1.199,1.819c0.74,1.24,1.351,2.54,1.82,3.891
							c0.08,0.229,0.16,0.46,0.23,0.689c0.25,0.78,0.46,1.58,0.619,2.391c1.12,5.68-0.02,11.739-3.64,16.659
							c-0.65,0.881-1.35,1.7-2.1,2.45c-1,1-2.07,1.88-3.2,2.63c-0.3,0.2-0.61,0.4-0.92,0.59c-0.12,0.07-0.25,0.141-0.37,0.211
							c-0.29,0.159-0.58,0.319-0.87,0.46c-0.17,0.1-0.34,0.18-0.51,0.26c-0.08,0.04-0.17,0.08-0.26,0.109
							c-0.021,0.021-0.051,0.03-0.07,0.04c-0.04,0.021-0.09,0.04-0.13,0.061c-0.24,0.109-0.48,0.21-0.721,0.3
							c-0.029,0.021-0.06,0.03-0.09,0.04c-0.17,0.07-0.34,0.13-0.51,0.19c-0.04,0.02-0.09,0.04-0.13,0.05
							c-0.29,0.109-0.59,0.21-0.89,0.3c-0.011,0-0.021,0.01-0.03,0.01c-0.22,0.07-0.45,0.13-0.67,0.19
							c-0.09,0.02-0.181,0.05-0.26,0.069c-0.65,0.171-1.301,0.311-1.96,0.41h-0.011v0.011h0.011l14.039,14.079l0.011,0.011
							c0.21,0.21,0.42,0.43,0.62,0.66c0.01,0,0.01,0,0.01,0.01c1.03,1.13,1.88,2.359,2.55,3.649c0.14,0.261,0.271,0.521,0.39,0.78
							c0.03,0.08,0.07,0.17,0.101,0.25c0.21,0.45,0.39,0.91,0.55,1.37C487.17,410.2,487.5,412.2,487.5,414.2z"/>
					</g>
				</g>
			</g>
			<g>
				<g>
					<g>
						<path fill="#FDB0A0" d="M456.764,426.529l-6.449-6.463c7.117,7.133,6.965,18.792-0.463,25.72
							c-7.077,6.604-18.213,6.1-25.046-0.749l-6.469-6.483c3.482,3.489,5.225,8.063,5.218,12.635
							c0.007,4.571-1.734,9.144-5.218,12.635c-6.959,6.974-18.246,6.981-25.21,0l-13.546-13.577
							c7.117,7.134,6.959,18.786-0.463,25.72c-7.077,6.603-18.213,6.098-25.052-0.757l-15.081-14.812
							c6.812,3.948,15.929,2.893,21.907-2.7c7.428-6.928,7.58-18.587,0.463-25.721l13.552,13.583c6.965,6.981,18.254,6.974,25.211,0
							c3.482-3.489,5.224-8.062,5.217-12.634c0.007-4.572-1.733-9.144-5.217-12.634l6.461,6.475
							c6.838,6.854,17.975,7.358,25.052,0.758c7.422-6.935,7.573-18.594,0.463-25.72l6.441,6.456
							c6.839,6.854,17.975,7.359,25.053,0.758c7.422-6.936,7.58-18.588,0.463-25.72l18.226,18.267
							c7.111,7.128,6.959,18.787-0.469,25.715C474.738,433.889,463.596,433.378,456.764,426.529L456.764,426.529z"/>
						<path fill="#FDB0A0" d="M468.221,387.477l-18.219-18.263c5.256-0.849,10.234-3.661,13.696-8.381
							c6.289-8.534,5.085-20.478-2.396-27.976l18.22,18.262c7.487,7.506,8.687,19.442,2.403,27.982
							C478.455,383.813,473.485,386.633,468.221,387.477z"/>
					</g>
				</g>
			</g>
			<g>
				<path fill="#FDB0A0" d="M487.071,418.079l-42.911-43.012c-3.229-3.235-3.229-8.472,0-11.708c3.228-3.237,8.463-3.237,11.691,0
					l20.772,20.82c-2.566,1.724-5.433,2.817-8.396,3.292l14.05,14.084C486.75,406.039,488.349,412.314,487.071,418.079
					L487.071,418.079z"/>
			</g>
			<g>
				<path fill="#FDB0A0" d="M409.611,468.623c-5.741,1.281-12.003-0.32-16.477-4.805l-13.554-13.575
					c4.475,4.485,6.084,10.77,4.794,16.524l-22.295-22.356c-3.229-3.235-3.229-8.482,0-11.719c3.218-3.226,8.452-3.226,11.682,0
					L409.611,468.623z"/>
			</g>
			<g>
				<path fill="#FDB0A0" d="M441.535,450.09c-5.851,1.215-12.222-0.542-16.728-5.06l-6.459-6.473
					c3.472,3.479,5.214,8.053,5.214,12.625c0,1.304-0.145,2.618-0.432,3.898l-35.848-35.941c-3.229-3.235-3.229-8.472,0-11.708
					s8.464-3.236,11.691,0L441.535,450.09z"/>
			</g>
			<g>
				<path fill="#FDB0A0" d="M473.493,431.587c-5.851,1.215-12.222-0.541-16.728-5.059l-6.448-6.462
					c4.475,4.485,6.083,10.758,4.794,16.513l-42.615-42.701c-3.228-3.236-3.228-8.483,0-11.72c3.229-3.236,8.464-3.236,11.692,0
					L473.493,431.587z"/>
			</g>
		</g>
	</g>
</g>
</svg>
