<?xml version="1.0" encoding="utf-8"?>
<!-- Generator: Adobe Illustrator 16.0.0, SVG Export Plug-In . SVG Version: 6.00 Build 0)  -->
<!DOCTYPE svg PUBLIC "-//W3C//DTD SVG 1.1//EN" "http://www.w3.org/Graphics/SVG/1.1/DTD/svg11.dtd">
<svg version="1.1" id="Layer_1" xmlns="http://www.w3.org/2000/svg" xmlns:xlink="http://www.w3.org/1999/xlink" x="0px" y="0px"
	 width="512px" height="512px" viewBox="0 0 512 512" enable-background="new 0 0 512 512" xml:space="preserve">
<g id="Layer_1_1_">
	<g id="Layer_2" display="none">
	</g>
	<g id="shadows">
		<g opacity="0.9">
			<g>
				<path fill="#B7B7B7" d="M466.5,381.5c0,48.6-39.4,88-88,88h-246c-48.602,0-88-39.4-88-88V164.833c0-48.601,39.398-88,88-88h246
					c48.6,0,88,39.399,88,88V381.5z"/>
			</g>
		</g>
		<g>
			<g>
				<path fill="#FFFFFF" d="M466.5,360.5c0,48.6-39.4,88-88,88h-246c-48.602,0-88-39.4-88-88V143.833c0-48.601,39.398-88,88-88h246
					c48.6,0,88,39.399,88,88V360.5z"/>
			</g>
		</g>
	</g>
	<radialGradient id="SVGID_1_" cx="254.5002" cy="254.3335" r="203.7987" gradientUnits="userSpaceOnUse">
		<stop  offset="0" style="stop-color:#F37E5F"/>
		<stop  offset="0.6022" style="stop-color:#EC1C24"/>
		<stop  offset="1" style="stop-color:#CF232A"/>
	</radialGradient>
	<path fill="url(#SVGID_1_)" stroke="#E2E2E2" stroke-width="9" stroke-miterlimit="10" d="M465.5,362.667c0,48.6-39.399,88-88,88
		h-246c-48.602,0-88-39.4-88-88V146c0-48.601,39.398-88,88-88h246c48.601,0,88,39.399,88,88V362.667z"/>
</g>
<path id="rect4196" sodipodi:nodetypes="sscccccsccccsccccccccccsssscccccccccccccssscccccccccsscsccccccsssscccccccsccccccsccccccccccccccccccscsscccccccccccscccccccccccccccccccccsscccscccccccccccccsscccccccsscssscccccccsc" inkscape:connector-curvature="0" fill="#FFFFFF" d="
	M283.828,159.57c-0.246,0-28.995,5.03-63.889,11.18s-63.925,11.294-64.514,11.432l-1.07,0.248v83.525v83.525l0.832,0.322
	c0.458,0.178,29.421,5.388,64.363,11.58s63.746,11.217,64.008,11.164l0.477-0.096l0.119-106.441l0.121-106.439H283.828z
	 M310.924,190.031c-5.628,0-12.321,0.138-14.873,0.307l-4.639,0.309v19.168v19.166l2.736,0.299c1.505,0.164,3.164,0.364,3.688,0.445
	s5.233,0.176,10.469,0.211l9.52,0.063l7.613-0.479c4.188-0.264,9.435-0.708,11.66-0.986c2.225-0.278,6.614-0.929,9.756-1.447
	c3.141-0.518,8.182-1.559,11.203-2.313c3.021-0.753,6.876-1.891,8.566-2.527c1.689-0.637,4.537-1.872,6.328-2.746l3.254-1.588
	l2.115-1.863l2.115-1.861l0.697-1.35l0.697-1.35v-1.855v-1.855l-1.381-1.908l-1.383-1.908l-3.02-1.977l-3.02-1.979l-3.656-1.414
	c-2.012-0.778-5.866-2.047-8.566-2.82c-2.701-0.773-7.158-1.833-9.906-2.355c-2.749-0.522-7.568-1.279-10.709-1.68
	c-3.142-0.4-8.709-0.948-12.373-1.217l-6.662-0.488H310.924z M382.91,216.676c-0.062,0-1.476,1.368-3.145,3.037l-3.037,3.035
	l-4.865,2.436l-4.867,2.438l-5.313,1.652c-2.922,0.909-7.455,2.079-10.072,2.6c-2.618,0.521-7.115,1.171-9.994,1.445l-5.234,0.498
	l-15.941,0.484c-8.769,0.267-18.834,0.533-22.367,0.592l-6.426,0.105l-0.125,14.271c-0.069,7.85-0.02,14.554,0.113,14.898
	l0.24,0.627l7.5-0.279c4.125-0.153,14.006-0.492,21.957-0.752c7.95-0.26,16.623-0.69,19.273-0.955
	c2.649-0.266,6.423-0.781,8.387-1.15c1.963-0.369,5.059-1.018,6.879-1.443c1.819-0.426,5.353-1.424,7.852-2.219l4.543-1.443
	l4.439-2.117l4.438-2.119l2.535-2.473l2.533-2.473l0.293-7.852c0.161-4.319,0.343-11.225,0.404-15.348
	C382.971,220.049,382.971,216.675,382.91,216.676z M213.461,229.459l7.307,0.152l7.305,0.152l0.533,0.533l0.533,0.535l5.609,20.404
	c3.085,11.223,7.597,27.51,10.025,36.191l4.414,15.785l-0.287,0.752l-0.289,0.752l-5.607-0.031l-5.605-0.029l-1.078-0.434
	l-1.078-0.432l-0.502-1.322c-0.277-0.727-1.112-3.57-1.855-6.318s-1.595-5.912-1.891-7.029l-0.539-2.031l-10.086,0.129
	l-10.086,0.127l-1.064,4.76c-0.586,2.617-1.292,5.957-1.57,7.422l-0.508,2.664l-6.744,0.289c-3.71,0.158-6.834,0.199-6.943,0.09
	s0.014-1.009,0.277-2c0.263-0.99,3.518-12.831,7.232-26.311s7.82-28.363,9.123-33.074c1.302-4.711,2.594-9.278,2.871-10.146
	L213.461,229.459z M220.123,247.039l-0.818,2.783c-0.45,1.531-1.961,7.271-3.357,12.756l-2.539,9.971l0.512,0.617l0.514,0.617h6.365
	h6.367l0.012-0.357c0.006-0.196-1.421-6.031-3.172-12.967s-3.341-12.793-3.533-13.016L220.123,247.039z M382.821,251.893
	c-0.11,0-1.613,1.363-3.34,3.031l-3.141,3.033l-3.561,1.795l-3.561,1.797l-4.746,1.602l-4.748,1.602l-6.912,1.414l-6.912,1.414
	l-6.064,0.709c-3.336,0.39-9.97,0.956-14.74,1.258l-8.674,0.549l-11.967-0.207l-11.967-0.207l-0.297,5.502
	c-0.163,3.025-0.327,9.418-0.361,14.205l-0.063,8.705l0.307,0.307c0.168,0.168,1.213,0.454,2.32,0.635s4.583,0.353,7.725,0.383
	c3.141,0.03,10.528-0.16,16.418-0.422c5.889-0.262,14.562-0.802,19.273-1.201l8.566-0.727l5.473-1.209
	c3.01-0.666,7.292-1.73,9.518-2.365c2.225-0.635,6.026-1.92,8.449-2.855l4.406-1.703l2.732-1.828
	c1.503-1.006,3.338-2.461,4.076-3.234l1.34-1.406l0.324-15.287C382.873,258.771,382.93,251.893,382.821,251.893z M382.893,286.156
	c-0.07,0-1.527,1.482-3.236,3.295l-3.107,3.297l-4.141,2.117l-4.141,2.117l-3.807,1.229c-2.095,0.676-5.627,1.649-7.852,2.166
	c-2.226,0.517-6.295,1.292-9.043,1.721c-2.749,0.429-8.102,1.096-11.896,1.484l-6.9,0.707l-18.68,0.281l-18.678,0.283v14.223v14.225
	l0.68,0.26c0.374,0.144,2.998,0.428,5.83,0.631s7.825,0.4,11.098,0.438l5.949,0.068l9.518-0.713
	c5.234-0.393,12.812-1.149,16.84-1.682c4.027-0.532,9.917-1.516,13.088-2.184c3.17-0.668,7.798-1.863,10.285-2.658l4.52-1.445
	l3.775-1.895l3.775-1.895l2.77-2.768l2.768-2.77l0.061-2.299c0.032-1.264,0.191-8.133,0.355-15.266
	C382.886,291.992,382.962,286.156,382.893,286.156L382.893,286.156z"/>
</svg>
