<?xml version="1.0" encoding="utf-8"?>
<!-- Generator: Adobe Illustrator 16.0.0, SVG Export Plug-In . SVG Version: 6.00 Build 0)  -->
<!DOCTYPE svg PUBLIC "-//W3C//DTD SVG 1.1//EN" "http://www.w3.org/Graphics/SVG/1.1/DTD/svg11.dtd">
<svg version="1.1" id="Layer_1" xmlns="http://www.w3.org/2000/svg" xmlns:xlink="http://www.w3.org/1999/xlink" x="0px" y="0px"
	 width="512px" height="512px" viewBox="0 0 512 512" enable-background="new 0 0 512 512" xml:space="preserve">
<g id="Layer_1_1_">
	<g id="Layer_2" display="none">
	</g>
	<g id="shadows">
		<g opacity="0.9">
			<g>
				<path fill="#B7B7B7" d="M466.5,381.5c0,48.6-39.4,88-88,88h-246c-48.602,0-88-39.4-88-88V164.833c0-48.601,39.398-88,88-88h246
					c48.6,0,88,39.399,88,88V381.5z"/>
			</g>
		</g>
		<g>
			<g>
				<path fill="#FFFFFF" d="M466.5,360.5c0,48.6-39.4,88-88,88h-246c-48.602,0-88-39.4-88-88V143.833c0-48.601,39.398-88,88-88h246
					c48.6,0,88,39.399,88,88V360.5z"/>
			</g>
		</g>
	</g>
	<radialGradient id="SVGID_1_" cx="254.5002" cy="254.3335" r="203.7987" gradientUnits="userSpaceOnUse">
		<stop  offset="0.0056" style="stop-color:#E2E5F4"/>
		<stop  offset="0.4494" style="stop-color:#C7CEE9"/>
		<stop  offset="1" style="stop-color:#A8B5DC"/>
	</radialGradient>
	<path fill="url(#SVGID_1_)" stroke="#E2E2E2" stroke-width="9" stroke-miterlimit="10" d="M465.5,362.667c0,48.6-39.399,88-88,88
		h-246c-48.602,0-88-39.4-88-88V146c0-48.601,39.398-88,88-88h246c48.601,0,88,39.399,88,88V362.667z"/>
</g>
<path id="path5033" fill="#FEFEFE" d="M280.639,149.506c-1.085,0.003-3.031,0.296-6.756,0.953
	c-5.826,1.028-105.453,16.434-126.979,19.635c-3.012,0.448-5.958,0.991-6.547,1.207l-1.07,0.393v83.988
	c0,66.632,0.121,84.081,0.594,84.439c0.327,0.248,18.057,3.084,39.398,6.301c58.455,8.813,86.259,13.209,93.35,14.76
	c3.519,0.77,7.146,1.36,8.063,1.311l1.668-0.092l0.127-11.057l0.127-11.059l45.342-0.131l45.342-0.131l2.48-1.121
	c3.051-1.38,4.347-3.693,4.918-8.785c0.211-1.884,0.325-36.741,0.256-77.461c-0.127-73.57-0.133-74.047-1.102-75.939
	c-1.214-2.368-2.185-3.256-4.896-4.486c-2.098-0.951-2.917-0.968-47.244-0.979l-45.113-0.01v-10.416
	c0-8.833-0.112-10.511-0.738-11.031C281.629,149.605,281.289,149.504,280.639,149.506z M282.121,178.859h44.277h44.279v75.939
	v75.941h-44.279h-44.277l0.035-34.639l0.037-34.637l2.939,11.189c1.616,6.154,3.132,11.486,3.367,11.852
	c0.345,0.536,1.659,0.611,6.842,0.395c3.671-0.154,6.646-0.494,6.953-0.795c0.295-0.289,3.542-13.109,7.217-28.486l6.682-27.959
	l7.602-0.291c4.181-0.161,15.647-0.322,25.48-0.357c13.195-0.048,18.029-0.215,18.451-0.637c0.39-0.391,0.57-2.697,0.57-7.283
	s-0.181-6.895-0.57-7.285c-0.742-0.742-65.867-0.835-66.324-0.096c-0.162,0.262-1.777,10.373-3.59,22.469
	c-1.813,12.097-3.362,22.197-3.445,22.445s-1.074-2.417-2.203-5.924s-2.27-6.644-2.535-6.971c-0.308-0.379-1.761-0.596-3.996-0.596
	h-3.512v-32.139V178.859z M216.287,235.105c1.674-0.006,2.978,0.097,3.311,0.309c0.722,0.459,2.696,7.514,8.955,32.002
	c2.777,10.867,5.14,20.026,5.25,20.354c0.204,0.606-1.163,0.648-8.123,0.246l-2.879-0.166l-3.467-17.715
	c-1.907-9.743-3.573-18.091-3.701-18.549s-0.638-0.834-1.131-0.834c-1.106,0-0.911-0.693-5.535,19.705
	c-2.025,8.934-3.696,16.27-3.711,16.303c-0.016,0.033-2.484-0.071-5.486-0.236l-5.457-0.301l-4.369-17.615
	c-3.769-15.195-4.489-17.617-5.244-17.617c-0.709,0-0.991,0.637-1.48,3.334c-1.793,9.877-5.445,29.154-5.66,29.875
	c-0.215,0.72-0.883,0.834-4.916,0.834h-4.668l1.145-5.357c3.677-17.204,9.396-41.621,9.859-42.092
	c0.318-0.324,2.646-0.623,5.668-0.727l5.129-0.176l0.443,1.68c0.243,0.923,1.847,7.57,3.563,14.771
	c4.554,19.115,4.184,17.855,5.221,17.855c0.779,0,1.126-0.974,2.459-6.904c0.854-3.797,2.718-11.725,4.143-17.617l2.59-10.711
	l2.564-0.311C212.57,235.227,214.613,235.111,216.287,235.105z M357.729,236.406c-1.717-0.027-3.225,0.05-3.715,0.209
	c-0.74,0.239-2.8,2.537-5.439,6.07c-2.337,3.127-4.381,5.686-4.543,5.686c-0.163,0-2.287-2.57-4.719-5.713
	c-2.524-3.261-4.866-5.827-5.455-5.975c-0.568-0.143-2.748-0.195-4.842-0.117c-3.445,0.128-3.821,0.234-3.949,1.135
	c-0.079,0.551,1.166,3.314,2.789,6.189c1.611,2.857,3.551,6.294,4.309,7.635l1.377,2.438l-4.533,5.656
	c-5.913,7.378-5.897,7.516,0.826,7.693l5.102,0.137l4.537-4.098l4.537-4.098l4.82,4.381l4.822,4.379l4.57-0.334
	c2.513-0.185,4.736-0.439,4.941-0.566c0.903-0.559,0.09-1.982-4.15-7.266c-2.488-3.1-4.523-5.749-4.523-5.889
	s2.153-3.723,4.787-7.963c2.633-4.24,4.719-8.066,4.637-8.5c-0.123-0.644-0.941-0.833-4.43-1.027
	C358.896,236.436,358.3,236.415,357.729,236.406z"/>
</svg>
