<?xml version="1.0" encoding="utf-8"?>
<!-- Generator: Adobe Illustrator 16.0.0, SVG Export Plug-In . SVG Version: 6.00 Build 0)  -->
<!DOCTYPE svg PUBLIC "-//W3C//DTD SVG 1.1//EN" "http://www.w3.org/Graphics/SVG/1.1/DTD/svg11.dtd">
<svg version="1.1" id="Layer_1" xmlns="http://www.w3.org/2000/svg" xmlns:xlink="http://www.w3.org/1999/xlink" x="0px" y="0px"
	 width="512px" height="512px" viewBox="0 0 512 512" enable-background="new 0 0 512 512" xml:space="preserve">
<g id="Layer_1_2_">
	<g id="Layer_1_1_">
		<g id="Layer_2" display="none">
		</g>
		<g id="shadows">
			<g opacity="0.9">
				<g>
					<path fill="#B7B7B7" d="M466.5,381.5c0,48.6-39.4,88-88,88h-246c-48.603,0-88-39.4-88-88V164.833c0-48.601,39.397-88,88-88h246
						c48.6,0,88,39.399,88,88V381.5z"/>
				</g>
			</g>
			<g>
				<g>
					<path fill="#FFFFFF" d="M464.488,125.067c-8.599-39.584-43.829-69.234-85.987-69.234h-246c-48.603,0-88,39.399-88,88V360.5
						c0,48.6,39.397,88,88,88h246c48.6,0,88-39.4,88-88V143.833c0-4.11-0.288-8.151-0.833-12.111
						C464.752,129.658,464.365,127.347,464.488,125.067z"/>
				</g>
			</g>
		</g>
		<path fill="#3D5AA8" stroke="#E2E2E2" stroke-width="7" stroke-miterlimit="10" d="M465.5,146v216.67c0,7.6-0.96,14.97-2.77,21.99
			c-0.86,3.359-1.921,6.63-3.15,9.82c-1.07,2.739-2.26,5.409-3.58,8.01c-10.23,20.12-27.96,35.779-49.52,43.29
			c-3.24,1.13-6.57,2.08-9.98,2.83c-6.12,1.35-12.48,2.06-19,2.06h-246c-10.15,0-19.9-1.72-28.97-4.89
			c-16.15-5.62-30.16-15.83-40.46-29.05c-1.14-1.471-2.24-2.971-3.29-4.511c-0.49-0.71-0.96-1.43-1.42-2.16
			c-7-10.909-11.65-23.47-13.24-36.96c-0.41-3.42-0.62-6.899-0.62-10.43V146c0-2.41,0.1-4.79,0.29-7.14
			c0.89-11.16,3.87-21.72,8.54-31.31c1.71-3.52,3.65-6.91,5.8-10.14c1.67-2.53,3.48-4.97,5.4-7.3c0.51-0.62,1.02-1.23,1.54-1.83
			c3.04-3.5,6.35-6.75,9.91-9.72C90.26,65.73,109.98,58,131.5,58h246c6.52,0,12.88,0.71,19,2.06c14.07,3.09,26.88,9.55,37.53,18.5
			c7.21,6.04,13.43,13.22,18.39,21.26c0.43,0.69,0.85,1.39,1.25,2.09c1.57,2.69,2.99,5.48,4.271,8.34
			c1.659,3.73,3.069,7.6,4.199,11.59c0.73,2.53,1.341,5.1,1.83,7.72v0.01C464.97,134.89,465.5,140.38,465.5,146z"/>
	</g>
</g>
<line fill="none" stroke="#FFFFFF" stroke-width="6" stroke-miterlimit="10" x1="131.834" y1="167.167" x2="409.167" y2="167.167"/>
<line fill="none" stroke="#FFFFFF" stroke-width="6" stroke-miterlimit="10" x1="127.834" y1="204.5" x2="405.167" y2="204.5"/>
<line fill="none" stroke="#FFFFFF" stroke-width="6" stroke-miterlimit="10" x1="131.834" y1="238.5" x2="409.167" y2="238.5"/>
<line fill="none" stroke="#FFFFFF" stroke-width="6" stroke-miterlimit="10" x1="131.834" y1="280.5" x2="409.167" y2="280.5"/>
<line fill="none" stroke="#FFFFFF" stroke-width="6" stroke-miterlimit="10" x1="131.834" y1="327.167" x2="409.167" y2="327.167"/>
<line fill="none" stroke="#FFFFFF" stroke-width="6" stroke-miterlimit="10" x1="131.834" y1="365.167" x2="409.167" y2="365.167"/>
<path fill="#76C043" stroke="#73BF44" stroke-miterlimit="10" d="M99.498,152.084c-8.317,0-15.083,6.766-15.083,15.083
	c0,8.316,6.766,15.083,15.083,15.083c8.316,0,15.082-6.766,15.082-15.083C114.58,158.85,107.815,152.084,99.498,152.084z
	 M107.142,163.971l-8.17,8.169c-0.245,0.245-0.566,0.368-0.888,0.368s-0.644-0.124-0.889-0.368l-4.085-4.085
	c-0.491-0.491-0.491-1.286,0-1.777c0.492-0.492,1.286-0.492,1.777,0l3.196,3.196l7.281-7.28c0.492-0.492,1.286-0.492,1.777,0
	C107.634,162.685,107.634,163.479,107.142,163.971z"/>
<path fill="#76C043" stroke="#73BF44" stroke-miterlimit="10" d="M99.498,189.418c-8.317,0-15.083,6.766-15.083,15.083
	c0,8.316,6.766,15.083,15.083,15.083c8.316,0,15.082-6.766,15.082-15.083C114.58,196.184,107.815,189.418,99.498,189.418z
	 M107.142,201.304l-8.17,8.169c-0.245,0.245-0.566,0.368-0.888,0.368s-0.644-0.124-0.889-0.368l-4.085-4.085
	c-0.491-0.491-0.491-1.286,0-1.777c0.492-0.492,1.286-0.492,1.777,0l3.196,3.196l7.281-7.28c0.492-0.492,1.286-0.492,1.777,0
	C107.634,200.018,107.634,200.813,107.142,201.304z"/>
</svg>
