<?xml version="1.0" encoding="utf-8"?>
<!-- Generator: Adobe Illustrator 16.0.0, SVG Export Plug-In . SVG Version: 6.00 Build 0)  -->
<!DOCTYPE svg PUBLIC "-//W3C//DTD SVG 1.1//EN" "http://www.w3.org/Graphics/SVG/1.1/DTD/svg11.dtd">
<svg version="1.1" id="Layer_1" xmlns="http://www.w3.org/2000/svg" xmlns:xlink="http://www.w3.org/1999/xlink" x="0px" y="0px"
	 width="512px" height="512px" viewBox="0 0 512 512" enable-background="new 0 0 512 512" xml:space="preserve">
<g id="Layer_1_2_">
	<g id="Layer_1_1_">
		<g id="Layer_2" display="none">
		</g>
		<g id="shadows">
			<g opacity="0.9">
				<g>
					<path fill="#B7B7B7" d="M466.5,381.5c0,48.6-39.4,88-88,88h-246c-48.603,0-88-39.4-88-88V164.833c0-48.601,39.397-88,88-88h246
						c48.6,0,88,39.399,88,88V381.5z"/>
				</g>
			</g>
			<g>
				<g>
					<path fill="#FFFFFF" d="M464.488,125.067c-8.599-39.584-43.829-69.234-85.987-69.234h-246c-48.603,0-88,39.399-88,88V360.5
						c0,48.6,39.397,88,88,88h246c48.6,0,88-39.4,88-88V143.833c0-4.11-0.288-8.151-0.833-12.111
						C464.752,129.658,464.365,127.347,464.488,125.067z"/>
				</g>
			</g>
		</g>
		<linearGradient id="SVGID_1_" gradientUnits="userSpaceOnUse" x1="43.5002" y1="254.335" x2="465.5002" y2="254.335">
			<stop  offset="0" style="stop-color:#E1E4EF"/>
			<stop  offset="0.5" style="stop-color:#CBD1E4"/>
			<stop  offset="1" style="stop-color:#B4BED8"/>
		</linearGradient>
		<path fill="url(#SVGID_1_)" stroke="#E2E2E2" stroke-width="7" stroke-miterlimit="10" d="M465.5,146v216.67
			c0,7.6-0.96,14.97-2.77,21.99c-0.86,3.359-1.921,6.63-3.15,9.82c-1.07,2.739-2.26,5.409-3.58,8.01
			c-10.23,20.12-27.96,35.779-49.52,43.29c-3.24,1.13-6.57,2.08-9.98,2.83c-6.12,1.35-12.48,2.06-19,2.06h-246
			c-10.15,0-19.9-1.72-28.97-4.89c-16.15-5.62-30.16-15.83-40.46-29.05c-1.14-1.471-2.24-2.971-3.29-4.511
			c-0.49-0.71-0.96-1.43-1.42-2.16c-7-10.909-11.65-23.47-13.24-36.96c-0.41-3.42-0.62-6.899-0.62-10.43V146
			c0-2.41,0.1-4.79,0.29-7.14c0.89-11.16,3.87-21.72,8.54-31.31c1.71-3.52,3.65-6.91,5.8-10.14c1.67-2.53,3.48-4.97,5.4-7.3
			c0.51-0.62,1.02-1.23,1.54-1.83c3.04-3.5,6.35-6.75,9.91-9.72C90.26,65.73,109.98,58,131.5,58h246c6.52,0,12.88,0.71,19,2.06
			c14.07,3.09,26.88,9.55,37.53,18.5c7.21,6.04,13.43,13.22,18.39,21.26c0.43,0.69,0.85,1.39,1.25,2.09
			c1.57,2.69,2.99,5.48,4.271,8.34c1.659,3.73,3.069,7.6,4.199,11.59c0.73,2.53,1.341,5.1,1.83,7.72v0.01
			C464.97,134.89,465.5,140.38,465.5,146z"/>
	</g>
</g>
<path fill="#FFD54F" d="M464.79,128.967l-0.82,0.593c-0.489-2.62-1.1-5.19-1.83-7.72c-1.13-3.99-2.54-7.86-4.199-11.59
	c-1.28-2.86-2.7-5.65-4.271-8.34c-0.4-0.7-0.82-1.4-1.25-2.09c-4.96-8.04-11.18-15.22-18.39-21.26
	c-10.65-8.95-23.46-15.41-37.53-18.5c-6.12-1.35-12.48-2.06-19-2.06h-246c-21.52,0-41.24,7.73-56.52,20.56
	c-3.56,2.97-6.87,6.22-9.91,9.72c-0.52,0.6-1.03,1.21-1.54,1.83c-1.92,2.33-3.73,4.77-5.4,7.3c-2.15,3.23-4.09,6.62-5.8,10.14
	c-4.67,9.59-7.65,20.15-8.54,31.31l136.3,98.26L215.81,263c18.92,13.98,44.75,13.98,63.67,0l35.71-25.88L463.97,129.57l0.822-0.594
	C464.791,128.973,464.791,128.97,464.79,128.967z"/>
<g>
	<path fill="#FFC107" d="M180.09,237.12L44.12,373.1c-0.41-3.42-0.62-6.899-0.62-10.43V146c0-2.41,0.1-4.79,0.29-7.14L180.09,237.12
		z"/>
	<path fill="#FFC107" d="M463.97,129.57c1,5.32,1.53,10.81,1.53,16.43v216.67c0,7.6-0.96,14.97-2.77,21.99l-147.54-147.54
		L463.97,129.57z"/>
	<line fill="#FFC107" x1="463.97" y1="129.57" x2="463.97" y2="129.56"/>
</g>
<path fill="#FFA000" d="M462.731,384.66c-0.86,3.359-1.921,6.63-3.15,9.82c-1.07,2.739-2.26,5.409-3.58,8.01
	c-10.23,20.12-27.96,35.779-49.52,43.29c-3.24,1.13-6.57,2.08-9.98,2.83c-6.12,1.35-12.48,2.06-19,2.06h-246
	c-10.15,0-19.9-1.72-28.97-4.89c-16.15-5.62-30.16-15.83-40.46-29.05c-1.14-1.471-2.24-2.971-3.29-4.511
	c-0.49-0.71-0.96-1.43-1.42-2.16c-7-10.909-11.65-23.47-13.24-36.96L180.09,237.12L215.81,263c18.92,13.98,44.75,13.98,63.67,0
	l35.71-25.88L462.731,384.66z"/>
</svg>
