<?xml version="1.0" encoding="utf-8"?>
<!-- Generator: Adobe Illustrator 16.0.0, SVG Export Plug-In . SVG Version: 6.00 Build 0)  -->
<!DOCTYPE svg PUBLIC "-//W3C//DTD SVG 1.1//EN" "http://www.w3.org/Graphics/SVG/1.1/DTD/svg11.dtd">
<svg version="1.1" id="Layer_1" xmlns="http://www.w3.org/2000/svg" xmlns:xlink="http://www.w3.org/1999/xlink" x="0px" y="0px"
	 width="512px" height="512px" viewBox="0 0 512 512" enable-background="new 0 0 512 512" xml:space="preserve">
<g id="Layer_1_1_">
	<g id="Layer_2" display="none">
	</g>
	<g id="shadows">
		<g opacity="0.9">
			<g>
				<path fill="#B7B7B7" d="M466.5,381.5c0,48.6-39.4,88-88,88h-246c-48.604,0-88-39.4-88-88V164.833c0-48.601,39.396-88,88-88
					c0,0,56.889,25.138,130.5,41.167c1.341,0.292,203.5,32.882,203.5,46.833V381.5z"/>
			</g>
		</g>
		<g>
			<g>
				<path fill="#FFFFFF" d="M466.5,360.5c0,48.6-39.4,88-88,88h-246c-48.604,0-88-39.4-88-88V143.833c0-48.601,39.396-88,88-88
					L289,136c48.6,0,177.5-40.768,177.5,7.833V360.5z"/>
			</g>
		</g>
	</g>
	<path fill="#666666" stroke="#E2E2E2" stroke-width="10" stroke-miterlimit="10" d="M465.5,146v216.67c0,48.6-39.4,88-88,88h-246
		c-48.603,0-88-39.4-88-88V146c0-48.6,39.397-88,88-88h101.21c6.55,13.96,22.41,47.1,27.13,50.84c4.57,3.62,135.5,1.73,197.729,0.62
		C462.67,120.59,465.5,132.96,465.5,146z"/>
	
		<radialGradient id="SVGID_1_" cx="279.5803" cy="-5.1719" r="203.7994" gradientTransform="matrix(1 0 0 -0.8803 -25.0796 279.2818)" gradientUnits="userSpaceOnUse">
		<stop  offset="0" style="stop-color:#FEEC8E"/>
		<stop  offset="0.5" style="stop-color:#FECB00"/>
		<stop  offset="1" style="stop-color:#FEA300"/>
	</radialGradient>
	<path fill="url(#SVGID_1_)" stroke="#E2E2E2" stroke-width="10" stroke-miterlimit="10" d="M465.5,188.467v190.736
		c0,42.782-39.4,77.467-88,77.467h-246c-48.603,0-88-34.685-88-77.467V188.467c0-42.783,39.397-77.467,88-77.467h101.21
		c6.55,12.289,22.41,41.462,27.13,44.755c4.57,3.187,135.5,1.522,197.729,0.546C462.67,166.098,465.5,176.988,465.5,188.467z"/>
	
		<g id="svg2" xmlns:svg="http://www.w3.org/2000/svg" xmlns:inkscape="http://www.inkscape.org/namespaces/inkscape" xmlns:dc="http://purl.org/dc/elements/1.1/" xmlns:rdf="http://www.w3.org/1999/02/22-rdf-syntax-ns#" xmlns:sodipodi="http://sodipodi.sourceforge.net/DTD/sodipodi-0.dtd" xmlns:cc="http://creativecommons.org/ns#" sodipodi:docname="amazon.svg" inkscape:version="0.48.4 r9939" display="none">
		
			<sodipodi:namedview  inkscape:cx="125.01135" inkscape:cy="331.75675" showgrid="false" borderopacity="1.0" inkscape:zoom="0.51420519" pagecolor="#ffffff" id="base" bordercolor="#666666" inkscape:window-maximized="1" inkscape:window-height="719" inkscape:document-units="px" inkscape:current-layer="layer1" inkscape:window-y="25" inkscape:pageopacity="0.0" inkscape:window-width="1360" inkscape:window-x="0" inkscape:pageshadow="2">
			</sodipodi:namedview>
		<path display="inline" fill="#EF3A24" d="M50.502,119.833h409.992c-12.802-32.778-44.688-56-81.996-56H132.5
			C95.188,63.833,63.304,87.055,50.502,119.833z"/>
		<g display="inline">
			<g>
				<rect x="172.5" y="147" fill="none" width="305" height="240"/>
				<text transform="matrix(1 0 0 1 172.4998 336.999)" fill="#FF9900" font-family="'Tahoma'" font-size="250">A</text>
			</g>
		</g>
	</g>
	<ellipse display="none" fill="#B4DFF7" cx="147.5" cy="178" rx="63" ry="61.5"/>
	<circle display="none" fill="#31C4E9" cx="146.5" cy="171.5" r="62"/>
</g>
<g id="Layer_3" display="none">
	<path display="inline" fill="#200A7F" stroke="#18E5EA" stroke-width="20" stroke-miterlimit="10" d="M401.137,212.167
		c5.104,15.338,7.863,31.744,7.863,48.795c0,85.328-69.176,154.5-154.5,154.5c-85.328,0-154.5-69.172-154.5-154.5
		s69.172-154.5,154.5-154.5c51.227,0,96.63,24.93,124.735,63.319"/>
	<path display="inline" fill="#EF0B79" d="M333.363,255.151c0,4.226-3.301,7.651-7.371,7.651H174.872
		c-4.072,0-7.372-3.425-7.372-7.651l0,0c0-4.226,3.3-7.651,7.372-7.651H325.99C330.063,247.5,333.363,250.925,333.363,255.151
		L333.363,255.151z"/>
	<path display="inline" fill="#EF0B79" d="M333.363,284.797c0,4.227-3.301,7.65-7.371,7.65H174.872c-4.072,0-7.372-3.426-7.372-7.65
		l0,0c0-4.227,3.3-7.65,7.372-7.65H325.99C330.063,277.146,333.363,280.57,333.363,284.797L333.363,284.797z"/>
	<path display="inline" fill="#EF0B79" d="M333.363,313.008c0,4.227-3.301,7.651-7.371,7.651H174.872
		c-4.072,0-7.372-3.427-7.372-7.651l0,0c0-4.225,3.3-7.65,7.372-7.65H325.99C330.063,305.357,333.363,308.783,333.363,313.008
		L333.363,313.008z"/>
	<path display="inline" fill="#EF0B79" d="M333.363,338.352c0,4.229-3.301,7.651-7.371,7.651H174.872
		c-4.072,0-7.372-3.426-7.372-7.651l0,0c0-4.225,3.3-7.646,7.372-7.646H325.99C330.063,330.701,333.363,334.127,333.363,338.352
		L333.363,338.352z"/>
	<polygon display="inline" fill="#18E5EA" points="394.99,191.49 320.191,165.163 380.392,113.547 	"/>
	<g display="inline">
		<g>
			<g>
				<path fill="#E9F21C" d="M241.48,239.22c-2.284,0-4.441-1.068-5.833-2.901l-18.76-24.775c-2.44-3.222-1.805-7.81,1.417-10.251
					c3.229-2.442,7.813-1.803,10.253,1.417l12.338,16.293l31.033-49.826c2.135-3.429,6.646-4.478,10.082-2.344
					c3.432,2.135,4.479,6.65,2.342,10.08l-36.658,58.857c-1.271,2.047-3.472,3.333-5.879,3.442
					C241.702,239.217,241.592,239.22,241.48,239.22z"/>
			</g>
		</g>
	</g>
</g>
<g id="Layer_2_1_" display="none">
	<rect x="121" y="171.5" display="inline" fill="none" width="298" height="251"/>
	
		<text transform="matrix(1 0 0 1 120.9998 348.998)" display="inline" fill="#EF3A24" font-family="'MyriadPro-Regular'" font-size="250">24</text>
	<circle display="inline" fill="#FFFFFF" cx="138.25" cy="91.833" r="17.25"/>
	<circle display="inline" fill="#FFFFFF" cx="185.25" cy="91.833" r="17.25"/>
	<circle display="inline" fill="#FFFFFF" cx="232.25" cy="91.833" r="17.25"/>
	<circle display="inline" fill="#FFFFFF" cx="278.25" cy="91.833" r="17.25"/>
	<circle display="inline" fill="#FFFFFF" cx="323.25" cy="91.833" r="17.25"/>
	<circle display="inline" fill="#FFFFFF" cx="368.25" cy="91.833" r="17.25"/>
</g>
<g>
	<g>
		<path d="M247.81,184.177c-52.917,0-125.263,39.996-125.263,125.263c0,83.098,69.585,125.263,125.263,125.263
			c95.525,0,125.263-83.689,125.263-125.263C373.073,248.091,326.124,184.177,247.81,184.177z M218.763,195.964
			c-13.069,11.145-23.919,29.59-30.922,52.473c-9.074-5.376-17.408-12.033-24.806-19.776
			C178.323,212.633,197.656,201.389,218.763,195.964z M157.66,234.677c8.284,8.63,17.705,15.978,27.962,21.798
			c-3.847,14.942-6.115,31.513-6.411,48.92h-48.478C131.621,279.406,141.089,254.601,157.66,234.677z M157.66,384.204
			c-16.62-19.924-26.039-44.73-26.927-70.72h48.478c0.296,17.458,2.564,33.979,6.411,48.921
			C175.414,368.274,165.994,375.573,157.66,384.204z M163.035,390.269c7.397-7.742,15.732-14.4,24.806-19.775
			c7.003,22.834,17.853,41.327,30.922,52.473C197.656,417.492,178.323,406.248,163.035,390.269z M243.766,426.319
			c-21.009-2.663-39.107-26.137-48.873-59.771c15.091-7.644,31.76-11.934,48.873-12.575V426.319L243.766,426.319z M243.766,345.934
			c-17.853,0.593-35.212,4.981-50.943,12.675c-3.304-13.809-5.277-29.048-5.573-45.124h56.517V345.934z M243.766,305.396h-56.517
			c0.296-16.077,2.27-31.315,5.573-45.123c15.781,7.692,33.141,12.082,50.943,12.674V305.396z M243.766,264.908
			c-17.162-0.593-33.782-4.933-48.873-12.577c9.765-33.682,27.864-57.107,48.873-59.77V264.908z M337.96,234.677
			c16.57,19.923,26.039,44.729,26.926,70.718h-48.429c-0.295-17.458-2.564-33.978-6.411-48.92
			C320.255,250.606,329.674,243.308,337.96,234.677z M332.584,228.611c-7.397,7.743-15.731,14.399-24.806,19.775
			c-7.003-22.833-17.854-41.278-30.922-52.472C297.964,201.389,317.296,212.633,332.584,228.611z M251.854,192.561
			c21.009,2.663,39.106,26.138,48.872,59.77c-15.092,7.645-31.711,11.936-48.872,12.577V192.561z M251.854,272.946
			c17.853-0.592,35.211-4.981,50.943-12.674c3.304,13.808,5.277,29.046,5.573,45.123h-56.517V272.946z M251.854,313.484h56.517
			c-0.296,16.076-2.27,31.315-5.573,45.124c-15.732-7.742-33.091-12.132-50.943-12.675V313.484z M251.854,426.319v-72.347
			c17.161,0.592,33.78,4.932,48.872,12.575C290.96,400.231,272.863,423.656,251.854,426.319z M276.857,422.917
			c13.068-11.146,23.919-29.59,30.922-52.473c9.074,5.375,17.408,12.033,24.806,19.775
			C317.296,406.248,297.964,417.492,276.857,422.917z M337.96,384.204c-8.286-8.631-17.705-15.93-27.914-21.799
			c3.847-14.942,6.116-31.513,6.411-48.921h48.429C363.999,339.474,354.531,364.28,337.96,384.204z"/>
	</g>
</g>
</svg>
