<?xml version="1.0" encoding="utf-8"?>
<!-- Generator: Adobe Illustrator 16.0.0, SVG Export Plug-In . SVG Version: 6.00 Build 0)  -->
<!DOCTYPE svg PUBLIC "-//W3C//DTD SVG 1.1//EN" "http://www.w3.org/Graphics/SVG/1.1/DTD/svg11.dtd">
<svg version="1.1" id="Layer_1" xmlns="http://www.w3.org/2000/svg" xmlns:xlink="http://www.w3.org/1999/xlink" x="0px" y="0px"
	 width="512px" height="512px" viewBox="0 0 512 512" enable-background="new 0 0 512 512" xml:space="preserve">
<g id="Layer_1_1_">
	<g id="Layer_2" display="none">
	</g>
	<g id="shadows">
		<g opacity="0.9">
			<g>
				<path fill="#B7B7B7" d="M466.5,381.5c0,48.6-39.4,88-88,88h-246c-48.604,0-88-39.4-88-88V164.833c0-48.601,39.396-88,88-88
					c0,0,56.889,25.138,130.5,41.167c1.341,0.292,203.5,32.882,203.5,46.833V381.5z"/>
			</g>
		</g>
		<g>
			<g>
				<path fill="#FFFFFF" d="M466.5,360.5c0,48.6-39.4,88-88,88h-246c-48.604,0-88-39.4-88-88V143.833c0-48.601,39.396-88,88-88
					L289,136c48.6,0,177.5-40.768,177.5,7.833V360.5z"/>
			</g>
		</g>
	</g>
	
		<radialGradient id="SVGID_1_" cx="279.5803" cy="0.8291" r="203.7994" gradientTransform="matrix(1 0 0 -1 -25.0796 255.1641)" gradientUnits="userSpaceOnUse">
		<stop  offset="0" style="stop-color:#FEEC8E"/>
		<stop  offset="0.5" style="stop-color:#FECB00"/>
		<stop  offset="1" style="stop-color:#FEA300"/>
	</radialGradient>
	<path fill="url(#SVGID_1_)" stroke="#E2E2E2" stroke-width="10" stroke-miterlimit="10" d="M465.5,146v216.67c0,48.6-39.4,88-88,88
		h-246c-48.603,0-88-39.4-88-88V146c0-48.6,39.397-88,88-88h101.21c6.55,13.96,22.41,47.1,27.13,50.84
		c4.57,3.62,135.5,1.73,197.729,0.62C462.67,120.59,465.5,132.96,465.5,146z"/>
	
		<g id="svg2" xmlns:dc="http://purl.org/dc/elements/1.1/" xmlns:inkscape="http://www.inkscape.org/namespaces/inkscape" xmlns:svg="http://www.w3.org/2000/svg" xmlns:sodipodi="http://sodipodi.sourceforge.net/DTD/sodipodi-0.dtd" xmlns:cc="http://creativecommons.org/ns#" xmlns:rdf="http://www.w3.org/1999/02/22-rdf-syntax-ns#" inkscape:version="0.48.4 r9939" sodipodi:docname="amazon.svg" display="none">
		
			<sodipodi:namedview  bordercolor="#666666" id="base" pagecolor="#ffffff" inkscape:zoom="0.51420519" borderopacity="1.0" showgrid="false" inkscape:cy="331.75675" inkscape:cx="125.01135" inkscape:pageshadow="2" inkscape:pageopacity="0.0" inkscape:window-y="25" inkscape:window-height="719" inkscape:window-maximized="1" inkscape:window-x="0" inkscape:window-width="1360" inkscape:current-layer="layer1" inkscape:document-units="px">
			</sodipodi:namedview>
		<path display="inline" fill="#EF3A24" d="M50.502,119.833h409.992c-12.802-32.778-44.688-56-81.996-56H132.5
			C95.188,63.833,63.304,87.055,50.502,119.833z"/>
		<g display="inline">
			<g>
				<rect x="172.5" y="147" fill="none" width="305" height="240"/>
				<text transform="matrix(1 0 0 1 172.4998 336.999)" fill="#FF9900" font-family="'Tahoma'" font-size="250">A</text>
			</g>
		</g>
	</g>
	<ellipse display="none" fill="#B4DFF7" cx="147.5" cy="178" rx="63" ry="61.5"/>
	<circle display="none" fill="#31C4E9" cx="146.5" cy="171.5" r="62"/>
</g>
<g id="Layer_3" display="none">
	<path display="inline" fill="#200A7F" stroke="#18E5EA" stroke-width="20" stroke-miterlimit="10" d="M401.137,212.167
		c5.104,15.338,7.863,31.744,7.863,48.795c0,85.328-69.176,154.5-154.5,154.5c-85.328,0-154.5-69.172-154.5-154.5
		s69.172-154.5,154.5-154.5c51.227,0,96.63,24.93,124.735,63.319"/>
	<path display="inline" fill="#EF0B79" d="M333.363,255.151c0,4.226-3.301,7.651-7.371,7.651H174.872
		c-4.072,0-7.372-3.425-7.372-7.651l0,0c0-4.226,3.3-7.651,7.372-7.651H325.99C330.063,247.5,333.363,250.925,333.363,255.151
		L333.363,255.151z"/>
	<path display="inline" fill="#EF0B79" d="M333.363,284.797c0,4.227-3.301,7.65-7.371,7.65H174.872c-4.072,0-7.372-3.426-7.372-7.65
		l0,0c0-4.227,3.3-7.65,7.372-7.65H325.99C330.063,277.146,333.363,280.57,333.363,284.797L333.363,284.797z"/>
	<path display="inline" fill="#EF0B79" d="M333.363,313.008c0,4.227-3.301,7.651-7.371,7.651H174.872
		c-4.072,0-7.372-3.427-7.372-7.651l0,0c0-4.225,3.3-7.65,7.372-7.65H325.99C330.063,305.357,333.363,308.783,333.363,313.008
		L333.363,313.008z"/>
	<path display="inline" fill="#EF0B79" d="M333.363,338.352c0,4.229-3.301,7.651-7.371,7.651H174.872
		c-4.072,0-7.372-3.426-7.372-7.651l0,0c0-4.225,3.3-7.646,7.372-7.646H325.99C330.063,330.701,333.363,334.127,333.363,338.352
		L333.363,338.352z"/>
	<polygon display="inline" fill="#18E5EA" points="394.99,191.49 320.191,165.163 380.392,113.547 	"/>
	<g display="inline">
		<g>
			<g>
				<path fill="#E9F21C" d="M241.48,239.22c-2.284,0-4.441-1.068-5.833-2.901l-18.76-24.775c-2.44-3.222-1.805-7.81,1.417-10.251
					c3.229-2.442,7.813-1.803,10.253,1.417l12.338,16.293l31.033-49.826c2.135-3.429,6.646-4.478,10.082-2.344
					c3.432,2.135,4.479,6.65,2.342,10.08l-36.658,58.857c-1.271,2.047-3.472,3.333-5.879,3.442
					C241.702,239.217,241.592,239.22,241.48,239.22z"/>
			</g>
		</g>
	</g>
</g>
<g id="Layer_2_1_" display="none">
	<rect x="121" y="171.5" display="inline" fill="none" width="298" height="251"/>
	
		<text transform="matrix(1 0 0 1 120.9998 348.998)" display="inline" fill="#EF3A24" font-family="'MyriadPro-Regular'" font-size="250">24</text>
	<circle display="inline" fill="#FFFFFF" cx="138.25" cy="91.833" r="17.25"/>
	<circle display="inline" fill="#FFFFFF" cx="185.25" cy="91.833" r="17.25"/>
	<circle display="inline" fill="#FFFFFF" cx="232.25" cy="91.833" r="17.25"/>
	<circle display="inline" fill="#FFFFFF" cx="278.25" cy="91.833" r="17.25"/>
	<circle display="inline" fill="#FFFFFF" cx="323.25" cy="91.833" r="17.25"/>
	<circle display="inline" fill="#FFFFFF" cx="368.25" cy="91.833" r="17.25"/>
</g>
<path fill="#FFFFFF" stroke="#231F20" stroke-width="3" stroke-miterlimit="10" d="M317.425,365.411h21.716
	c9.078,0,16.447-7.369,16.447-16.452v-80.238c0-9.084-7.369-16.454-16.447-16.454H171.858c-9.083,0-16.452,7.37-16.452,16.454
	v17.286l0,0c0,0.212-0.008,0.425-0.044,0.627l0,0l0,0c0.036,0.202,0.044,0.414,0.044,0.628l0,0v61.697
	c0,9.083,7.369,16.452,16.452,16.452h27.193c-6.887-11.017-10.617-23.836-10.617-37.015l0,0c0-18.532,7.335-36.301,20.423-49.396
	c13.098-13.046,30.866-20.427,49.397-20.427c18.488,0,36.262,7.381,49.35,20.427c13.09,13.095,20.469,30.862,20.469,49.396
	C328.073,341.575,324.322,354.395,317.425,365.411z M299.615,384.609h5.244h42.511c15.131,0,27.421-12.286,27.421-27.424v-75.78
	v-20.913c0-15.134-12.29-27.422-27.421-27.422h-45.774l-12.919-75.948c-0.999-5.884-6.586-9.853-12.472-8.85l-57.187,9.726l0,0
	c-3.927,0.663-6.566,4.394-5.898,8.316l0,0c0.669,3.921,4.392,6.568,8.313,5.9l0,0l46.521-7.91c3.923-0.671,7.652,1.971,8.315,5.899
	l2.171,12.733c-0.601,0.334-1.149,0.786-1.605,1.353l0,0l-31.949,29.269c-1.47,1.347-3.975,1.502-5.6,0.349l-21.752-15.428
	c-4.873-3.456-11.944-2.546-15.786,2.016l-27.422,32.574h-0.804l-7.433-44.132c-0.664-3.925,1.985-7.65,5.907-8.319l19.727-3.353
	l0,0c3.922-0.668,6.563-4.394,5.899-8.314l0,0c-0.669-3.928-4.396-6.57-8.319-5.902l0,0l-30.388,5.169
	c-5.884,0.998-9.833,6.584-8.808,12.47l9.169,52.727l0,0l0,0c-13.07,2.085-23.071,13.422-23.071,27.077v25.515l0,0
	c0,0.212,0.005,0.425,0.042,0.627c-0.037,0.202-0.042,0.414-0.042,0.628l0,0v69.926c0,15.137,12.289,27.422,27.421,27.422h42.505
	h10.713c11.918,8.777,26.414,13.606,41.407,13.606C273.214,398.216,287.698,393.387,299.615,384.609z M284.645,233.07
	c1.188-1.401,1.757-3.312,1.405-5.365l-5.462-32.101l-28.522,27.59c-4.293,4.15-11.727,4.712-16.597,1.259l-21.256-15.076
	c-1.619-1.15-4.002-0.871-5.307,0.632l-20.114,23.061l0,0H284.645L284.645,233.07L284.645,233.07L284.645,233.07z M244.122,185.414
	c-0.831-4.901,2.467-9.56,7.376-10.394c4.901-0.832,9.561,2.475,10.394,7.376c0.829,4.905-2.477,9.563-7.376,10.395
	C249.615,193.625,244.956,190.319,244.122,185.414L244.122,185.414L244.122,185.414L244.122,185.414L244.122,185.414
	L244.122,185.414z M267.841,361.302L267.841,361.302c3.628-1.063,7.441,1.032,8.498,4.664l0,0c1.062,3.627-1.058,7.437-4.715,8.503
	l0,0c-4.332,1.26-8.83,1.917-13.38,1.917c-12.727,0-24.957-5.047-33.95-14.042c-9-8.996-14.045-21.225-14.045-33.949
	c0-12.729,5.044-24.957,14.045-33.951c8.993-8.996,21.225-14.037,33.95-14.037c12.722,0,24.956,5.041,33.944,14.037
	c8.99,8.994,14.037,21.224,14.037,33.951c0,8.994-2.518,17.823-7.285,25.445l0,0c-2,3.207-6.229,4.182-9.436,2.171l0,0
	c-3.208-2.016-4.192-6.259-2.197-9.461l0,0c3.405-5.431,5.207-11.735,5.207-18.155c0-9.105-3.616-17.826-10.031-24.246
	c-6.42-6.414-15.141-10.032-24.239-10.032c-9.109,0-17.83,3.618-24.245,10.032c-6.417,6.42-10.035,15.141-10.035,24.246
	c0,9.104,3.617,17.823,10.035,24.238c6.415,6.415,15.135,10.037,24.245,10.037C261.479,362.67,264.712,362.234,267.841,361.302
	L267.841,361.302L267.841,361.302L267.841,361.302L267.841,361.302z M178.714,261.744L178.714,261.744
	c4.394,0,7.959,3.564,7.959,7.959l0,0c0,4.395-3.565,7.962-7.959,7.962l0,0c-4.393,0-7.959-3.567-7.959-7.962l0,0
	C170.755,265.309,174.322,261.744,178.714,261.744L178.714,261.744z M201.933,328.396c0-14.938,5.938-29.291,16.465-39.813
	c10.571-10.571,24.924-16.51,39.857-16.51c14.933,0,29.234,5.938,39.814,16.51c10.571,10.522,16.505,24.876,16.505,39.813
	c0,14.931-5.934,29.283-16.505,39.813c-10.579,10.571-24.882,16.509-39.814,16.509c-14.934,0-29.287-5.938-39.857-16.509
	C207.871,357.68,201.933,343.327,201.933,328.396L201.933,328.396z"/>
</svg>
