<?xml version="1.0" encoding="utf-8"?>
<!-- Generator: Adobe Illustrator 16.0.0, SVG Export Plug-In . SVG Version: 6.00 Build 0)  -->
<!DOCTYPE svg PUBLIC "-//W3C//DTD SVG 1.1//EN" "http://www.w3.org/Graphics/SVG/1.1/DTD/svg11.dtd">
<svg version="1.1" id="Layer_1" xmlns="http://www.w3.org/2000/svg" xmlns:xlink="http://www.w3.org/1999/xlink" x="0px" y="0px"
	 width="512px" height="512px" viewBox="0 0 512 512" enable-background="new 0 0 512 512" xml:space="preserve">
<g id="Layer_1_1_">
	<g id="Layer_2" display="none">
	</g>
	<g id="shadows">
		<g opacity="0.9">
			<g>
				<path fill="#B7B7B7" d="M466.5,381.5c0,48.6-39.4,88-88,88h-246c-48.604,0-88-39.4-88-88V164.833c0-48.601,39.396-88,88-88
					c0,0,56.889,25.138,130.5,41.167c1.341,0.292,203.5,32.882,203.5,46.833V381.5z"/>
			</g>
		</g>
		<g>
			<g>
				<path fill="#FFFFFF" d="M466.5,360.5c0,48.6-39.4,88-88,88h-246c-48.604,0-88-39.4-88-88V143.833c0-48.601,39.396-88,88-88
					L289,136c48.6,0,177.5-40.768,177.5,7.833V360.5z"/>
			</g>
		</g>
	</g>
	
		<radialGradient id="SVGID_1_" cx="279.5803" cy="0.8291" r="203.7994" gradientTransform="matrix(1 0 0 -1 -25.0796 255.1641)" gradientUnits="userSpaceOnUse">
		<stop  offset="0" style="stop-color:#FEEC8E"/>
		<stop  offset="0.5" style="stop-color:#FECB00"/>
		<stop  offset="1" style="stop-color:#FEA300"/>
	</radialGradient>
	<path fill="url(#SVGID_1_)" stroke="#E2E2E2" stroke-width="10" stroke-miterlimit="10" d="M465.5,146v216.67c0,48.6-39.4,88-88,88
		h-246c-48.603,0-88-39.4-88-88V146c0-48.6,39.397-88,88-88h101.21c6.55,13.96,22.41,47.1,27.13,50.84
		c4.57,3.62,135.5,1.73,197.729,0.62C462.67,120.59,465.5,132.96,465.5,146z"/>
	
		<g id="svg2" xmlns:svg="http://www.w3.org/2000/svg" xmlns:inkscape="http://www.inkscape.org/namespaces/inkscape" xmlns:dc="http://purl.org/dc/elements/1.1/" xmlns:rdf="http://www.w3.org/1999/02/22-rdf-syntax-ns#" xmlns:sodipodi="http://sodipodi.sourceforge.net/DTD/sodipodi-0.dtd" xmlns:cc="http://creativecommons.org/ns#" sodipodi:docname="amazon.svg" inkscape:version="0.48.4 r9939" display="none">
		
			<sodipodi:namedview  inkscape:cx="125.01135" inkscape:cy="331.75675" showgrid="false" borderopacity="1.0" inkscape:zoom="0.51420519" pagecolor="#ffffff" id="base" bordercolor="#666666" inkscape:window-maximized="1" inkscape:document-units="px" inkscape:pageshadow="2" inkscape:window-height="719" inkscape:current-layer="layer1" inkscape:window-y="25" inkscape:window-width="1360" inkscape:pageopacity="0.0" inkscape:window-x="0">
			</sodipodi:namedview>
		<path display="inline" fill="#EF3A24" d="M50.502,119.833h409.992c-12.802-32.778-44.688-56-81.996-56H132.5
			C95.188,63.833,63.304,87.055,50.502,119.833z"/>
		<g display="inline">
			<g>
				<rect x="172.5" y="147" fill="none" width="305" height="240"/>
				<text transform="matrix(1 0 0 1 172.4998 336.999)" fill="#FF9900" font-family="'Tahoma'" font-size="250">A</text>
			</g>
		</g>
	</g>
	<ellipse display="none" fill="#B4DFF7" cx="147.5" cy="178" rx="63" ry="61.5"/>
	<circle display="none" fill="#31C4E9" cx="146.5" cy="171.5" r="62"/>
</g>
<g id="Layer_3" display="none">
	<path display="inline" fill="#200A7F" stroke="#18E5EA" stroke-width="20" stroke-miterlimit="10" d="M401.137,212.167
		c5.104,15.338,7.863,31.744,7.863,48.795c0,85.328-69.176,154.5-154.5,154.5c-85.328,0-154.5-69.172-154.5-154.5
		s69.172-154.5,154.5-154.5c51.227,0,96.63,24.93,124.735,63.319"/>
	<path display="inline" fill="#EF0B79" d="M333.363,255.151c0,4.226-3.301,7.651-7.371,7.651H174.872
		c-4.072,0-7.372-3.425-7.372-7.651l0,0c0-4.226,3.3-7.651,7.372-7.651H325.99C330.063,247.5,333.363,250.925,333.363,255.151
		L333.363,255.151z"/>
	<path display="inline" fill="#EF0B79" d="M333.363,284.797c0,4.227-3.301,7.65-7.371,7.65H174.872c-4.072,0-7.372-3.426-7.372-7.65
		l0,0c0-4.227,3.3-7.65,7.372-7.65H325.99C330.063,277.146,333.363,280.57,333.363,284.797L333.363,284.797z"/>
	<path display="inline" fill="#EF0B79" d="M333.363,313.008c0,4.227-3.301,7.651-7.371,7.651H174.872
		c-4.072,0-7.372-3.427-7.372-7.651l0,0c0-4.225,3.3-7.65,7.372-7.65H325.99C330.063,305.357,333.363,308.783,333.363,313.008
		L333.363,313.008z"/>
	<path display="inline" fill="#EF0B79" d="M333.363,338.352c0,4.229-3.301,7.651-7.371,7.651H174.872
		c-4.072,0-7.372-3.426-7.372-7.651l0,0c0-4.225,3.3-7.646,7.372-7.646H325.99C330.063,330.701,333.363,334.127,333.363,338.352
		L333.363,338.352z"/>
	<polygon display="inline" fill="#18E5EA" points="394.99,191.49 320.191,165.163 380.392,113.547 	"/>
	<g display="inline">
		<g>
			<g>
				<path fill="#E9F21C" d="M241.48,239.22c-2.284,0-4.441-1.068-5.833-2.901l-18.76-24.775c-2.44-3.222-1.805-7.81,1.417-10.251
					c3.229-2.442,7.813-1.803,10.253,1.417l12.338,16.293l31.033-49.826c2.135-3.429,6.646-4.478,10.082-2.344
					c3.432,2.135,4.479,6.65,2.342,10.08l-36.658,58.857c-1.271,2.047-3.472,3.333-5.879,3.442
					C241.702,239.217,241.592,239.22,241.48,239.22z"/>
			</g>
		</g>
	</g>
</g>
<g id="Layer_2_1_" display="none">
	<rect x="121" y="171.5" display="inline" fill="none" width="298" height="251"/>
	
		<text transform="matrix(1 0 0 1 120.9998 348.998)" display="inline" fill="#EF3A24" font-family="'MyriadPro-Regular'" font-size="250">24</text>
	<circle display="inline" fill="#FFFFFF" cx="138.25" cy="91.833" r="17.25"/>
	<circle display="inline" fill="#FFFFFF" cx="185.25" cy="91.833" r="17.25"/>
	<circle display="inline" fill="#FFFFFF" cx="232.25" cy="91.833" r="17.25"/>
	<circle display="inline" fill="#FFFFFF" cx="278.25" cy="91.833" r="17.25"/>
	<circle display="inline" fill="#FFFFFF" cx="323.25" cy="91.833" r="17.25"/>
	<circle display="inline" fill="#FFFFFF" cx="368.25" cy="91.833" r="17.25"/>
</g>
<path fill="#FFFFFF" stroke="#000000" stroke-width="3" stroke-miterlimit="10" d="M157.234,293.843L157.234,293.843
	c1.023,7.005-3.828,13.545-10.835,14.584l0,0c-7.005,1.041-13.524-3.8-14.553-10.8l0,0c-0.898-6.092-1.346-12.306-1.346-18.461
	c0-33.145,13.201-64.935,36.601-88.402c23.463-23.397,55.256-36.598,88.399-36.598c33.145,0,64.935,13.2,88.402,36.598
	c23.396,23.467,36.598,55.257,36.598,88.402c0,33.145-13.201,64.936-36.598,88.402c-23.468,23.397-55.258,36.598-88.402,36.598
	c-32.691,0-64.102-12.823-87.434-35.703l0,0c-5.06-4.958-5.15-13.078-0.198-18.142l0,0c4.959-5.063,13.085-5.151,18.145-0.192l0,0
	c18.523,18.207,43.525,28.391,69.487,28.391c26.344,0,51.601-10.439,70.254-29.1c18.66-18.654,29.1-43.91,29.1-70.254
	c0-26.343-10.439-51.601-29.1-70.254c-18.653-18.66-43.91-29.103-70.254-29.103s-51.601,10.443-70.257,29.103
	c-18.654,18.654-29.1,43.911-29.1,70.254C156.143,284.101,156.525,288.979,157.234,293.843L157.234,293.843L157.234,293.843
	L157.234,293.843z M279.926,209.424L279.926,209.424c-3.366-1.134-5.173-4.779-4.04-8.144l0,0c1.133-3.355,4.784-5.169,8.139-4.04
	l0,0c22.955,7.695,41.8,24.36,52.31,46.159l0,0c1.558,3.179,0.237,7.016-2.947,8.55l0,0c-3.187,1.546-7.039,0.21-8.585-2.975l0,0
	C315.756,230.256,299.603,216.027,279.926,209.424L279.926,209.424L279.926,209.424L279.926,209.424z M249.089,195.832
	c0-3.533,2.875-6.411,6.411-6.411s6.411,2.878,6.411,6.411c0,3.535-2.875,6.413-6.411,6.413S249.089,199.367,249.089,195.832
	L249.089,195.832L249.089,195.832z M239.012,279.166c0-4.348,1.726-8.568,4.821-11.667c3.096-3.098,7.322-4.818,11.667-4.818
	c4.349,0,8.567,1.721,11.667,4.818c3.1,3.099,4.818,7.319,4.818,11.667s-1.719,8.568-4.818,11.667
	c-3.1,3.098-7.318,4.818-11.667,4.818c-4.345,0-8.571-1.721-11.667-4.818C240.738,287.734,239.012,283.514,239.012,279.166
	L239.012,279.166L239.012,279.166z M227.107,279.166c0-7.498,2.976-14.765,8.334-20.06c5.297-5.355,12.562-8.331,20.06-8.331
	s14.767,2.976,20.06,8.331c5.354,5.295,8.331,12.562,8.331,20.06s-2.977,14.765-8.331,20.06c-5.293,5.354-12.562,8.331-20.06,8.331
	s-14.762-2.977-20.06-8.331C230.083,293.931,227.107,286.664,227.107,279.166L227.107,279.166L227.107,279.166z M213.357,279.166
	c0-11.19,4.463-21.902,12.381-29.761c7.856-7.918,18.571-12.382,29.762-12.382s21.902,4.463,29.762,12.382
	c7.918,7.859,12.381,18.571,12.381,29.761s-4.463,21.902-12.381,29.762c-7.859,7.918-18.571,12.381-29.762,12.381
	s-21.906-4.463-29.762-12.381C217.821,301.068,213.357,290.356,213.357,279.166L213.357,279.166z M201.452,279.166
	c0-14.346,5.714-28.092,15.835-38.213c10.117-10.121,23.867-15.835,38.213-15.835s28.1,5.715,38.214,15.835
	c10.119,10.121,15.835,23.867,15.835,38.213s-5.716,28.093-15.835,38.214c-10.114,10.12-23.868,15.835-38.214,15.835
	s-28.096-5.715-38.213-15.835C207.166,307.259,201.452,293.512,201.452,279.166L201.452,279.166z"/>
</svg>
