<?xml version="1.0" encoding="utf-8"?>
<!-- Generator: Adobe Illustrator 16.0.0, SVG Export Plug-In . SVG Version: 6.00 Build 0)  -->
<!DOCTYPE svg PUBLIC "-//W3C//DTD SVG 1.1//EN" "http://www.w3.org/Graphics/SVG/1.1/DTD/svg11.dtd">
<svg version="1.1" id="Layer_1" xmlns="http://www.w3.org/2000/svg" xmlns:xlink="http://www.w3.org/1999/xlink" x="0px" y="0px"
	 width="512px" height="512px" viewBox="0 0 512 512" enable-background="new 0 0 512 512" xml:space="preserve">
<g id="Layer_1_1_">
	<g id="Layer_2" display="none">
	</g>
	<g id="shadows">
		<g opacity="0.9">
			<g>
				<path fill="#B7B7B7" d="M466.5,381.5c0,48.6-39.4,88-88,88h-246c-48.604,0-88-39.4-88-88V164.833c0-48.601,39.396-88,88-88
					c0,0,56.889,25.138,130.5,41.167c1.341,0.292,203.5,32.882,203.5,46.833V381.5z"/>
			</g>
		</g>
		<g>
			<g>
				<path fill="#FFFFFF" d="M466.5,360.5c0,48.6-39.4,88-88,88h-246c-48.604,0-88-39.4-88-88V143.833c0-48.601,39.396-88,88-88
					L289,136c48.6,0,177.5-40.768,177.5,7.833V360.5z"/>
			</g>
		</g>
	</g>
	
		<radialGradient id="SVGID_1_" cx="279.5803" cy="0.8291" r="203.7994" gradientTransform="matrix(1 0 0 -1 -25.0796 255.1641)" gradientUnits="userSpaceOnUse">
		<stop  offset="0" style="stop-color:#FEEC8E"/>
		<stop  offset="0.5" style="stop-color:#FECB00"/>
		<stop  offset="1" style="stop-color:#FEA300"/>
	</radialGradient>
	<path fill="url(#SVGID_1_)" stroke="#E2E2E2" stroke-width="10" stroke-miterlimit="10" d="M465.5,146v216.67c0,48.6-39.4,88-88,88
		h-246c-48.603,0-88-39.4-88-88V146c0-48.6,39.397-88,88-88h101.21c6.55,13.96,22.41,47.1,27.13,50.84
		c4.57,3.62,135.5,1.73,197.729,0.62C462.67,120.59,465.5,132.96,465.5,146z"/>
	
		<g id="svg2" xmlns:dc="http://purl.org/dc/elements/1.1/" xmlns:inkscape="http://www.inkscape.org/namespaces/inkscape" xmlns:svg="http://www.w3.org/2000/svg" xmlns:sodipodi="http://sodipodi.sourceforge.net/DTD/sodipodi-0.dtd" xmlns:cc="http://creativecommons.org/ns#" xmlns:rdf="http://www.w3.org/1999/02/22-rdf-syntax-ns#" inkscape:version="0.48.4 r9939" sodipodi:docname="amazon.svg" display="none">
		
			<sodipodi:namedview  bordercolor="#666666" id="base" pagecolor="#ffffff" inkscape:zoom="0.51420519" borderopacity="1.0" showgrid="false" inkscape:cy="331.75675" inkscape:cx="125.01135" inkscape:pageshadow="2" inkscape:pageopacity="0.0" inkscape:window-y="25" inkscape:window-height="719" inkscape:window-maximized="1" inkscape:window-x="0" inkscape:window-width="1360" inkscape:current-layer="layer1" inkscape:document-units="px">
			</sodipodi:namedview>
		<path display="inline" fill="#EF3A24" d="M50.502,119.833h409.992c-12.802-32.778-44.688-56-81.996-56H132.5
			C95.188,63.833,63.304,87.055,50.502,119.833z"/>
		<g display="inline">
			<g>
				<rect x="172.5" y="147" fill="none" width="305" height="240"/>
				<text transform="matrix(1 0 0 1 172.4998 336.999)" fill="#FF9900" font-family="'Tahoma'" font-size="250">A</text>
			</g>
		</g>
	</g>
	<ellipse display="none" fill="#B4DFF7" cx="147.5" cy="178" rx="63" ry="61.5"/>
	<circle display="none" fill="#31C4E9" cx="146.5" cy="171.5" r="62"/>
</g>
<g id="Layer_3" display="none">
	<path display="inline" fill="#200A7F" stroke="#18E5EA" stroke-width="20" stroke-miterlimit="10" d="M401.137,212.167
		c5.104,15.338,7.863,31.744,7.863,48.795c0,85.328-69.176,154.5-154.5,154.5c-85.328,0-154.5-69.172-154.5-154.5
		s69.172-154.5,154.5-154.5c51.227,0,96.63,24.93,124.735,63.319"/>
	<path display="inline" fill="#EF0B79" d="M333.363,255.151c0,4.226-3.301,7.651-7.371,7.651H174.872
		c-4.072,0-7.372-3.425-7.372-7.651l0,0c0-4.226,3.3-7.651,7.372-7.651H325.99C330.063,247.5,333.363,250.925,333.363,255.151
		L333.363,255.151z"/>
	<path display="inline" fill="#EF0B79" d="M333.363,284.797c0,4.227-3.301,7.65-7.371,7.65H174.872c-4.072,0-7.372-3.426-7.372-7.65
		l0,0c0-4.227,3.3-7.65,7.372-7.65H325.99C330.063,277.146,333.363,280.57,333.363,284.797L333.363,284.797z"/>
	<path display="inline" fill="#EF0B79" d="M333.363,313.008c0,4.227-3.301,7.651-7.371,7.651H174.872
		c-4.072,0-7.372-3.427-7.372-7.651l0,0c0-4.225,3.3-7.65,7.372-7.65H325.99C330.063,305.357,333.363,308.783,333.363,313.008
		L333.363,313.008z"/>
	<path display="inline" fill="#EF0B79" d="M333.363,338.352c0,4.229-3.301,7.651-7.371,7.651H174.872
		c-4.072,0-7.372-3.426-7.372-7.651l0,0c0-4.225,3.3-7.646,7.372-7.646H325.99C330.063,330.701,333.363,334.127,333.363,338.352
		L333.363,338.352z"/>
	<polygon display="inline" fill="#18E5EA" points="394.99,191.49 320.191,165.163 380.392,113.547 	"/>
	<g display="inline">
		<g>
			<g>
				<path fill="#E9F21C" d="M241.48,239.22c-2.284,0-4.441-1.068-5.833-2.901l-18.76-24.775c-2.44-3.222-1.805-7.81,1.417-10.251
					c3.229-2.442,7.813-1.803,10.253,1.417l12.338,16.293l31.033-49.826c2.135-3.429,6.646-4.478,10.082-2.344
					c3.432,2.135,4.479,6.65,2.342,10.08l-36.658,58.857c-1.271,2.047-3.472,3.333-5.879,3.442
					C241.702,239.217,241.592,239.22,241.48,239.22z"/>
			</g>
		</g>
	</g>
</g>
<g id="Layer_2_1_" display="none">
	<rect x="121" y="171.5" display="inline" fill="none" width="298" height="251"/>
	
		<text transform="matrix(1 0 0 1 120.9998 348.998)" display="inline" fill="#EF3A24" font-family="'MyriadPro-Regular'" font-size="250">24</text>
	<circle display="inline" fill="#FFFFFF" cx="138.25" cy="91.833" r="17.25"/>
	<circle display="inline" fill="#FFFFFF" cx="185.25" cy="91.833" r="17.25"/>
	<circle display="inline" fill="#FFFFFF" cx="232.25" cy="91.833" r="17.25"/>
	<circle display="inline" fill="#FFFFFF" cx="278.25" cy="91.833" r="17.25"/>
	<circle display="inline" fill="#FFFFFF" cx="323.25" cy="91.833" r="17.25"/>
	<circle display="inline" fill="#FFFFFF" cx="368.25" cy="91.833" r="17.25"/>
</g>
<path fill="#FFFFFF" stroke="#231F20" stroke-width="3" stroke-miterlimit="10" d="M247.639,206.996h-45.39v-12.008h23.732
	c1.963,0,3.87-0.729,5.386-1.964c1.515-1.233,2.526-2.973,2.918-4.937c0.448-2.469,1.348-4.882,2.58-7.068
	c0.785-1.515,1.908-2.805,3.255-3.816c1.461-1.178,3.143-2.019,4.938-2.523c3.199-0.898,6.508-1.348,9.817-1.348
	c3.313,0,6.625,0.45,9.818,1.402c1.798,0.504,3.479,1.348,4.938,2.526c1.349,1.008,2.411,2.298,3.255,3.759
	c1.238,2.186,2.076,4.6,2.586,7.068c0.329,1.964,1.343,3.704,2.861,4.937c1.511,1.235,3.418,1.964,5.379,1.964h20.427v12.008
	H247.639L247.639,206.996L247.639,206.996L247.639,206.996L247.639,206.996L247.639,206.996L247.639,206.996z M337.355,206.996
	L337.355,206.996c-4.646,0-8.415-3.77-8.415-8.416l0,0c0-4.646,3.771-8.417,8.415-8.417l0,0h14.026
	c12.389,0,22.442,10.054,22.442,22.443v162.708c0,12.389-10.055,22.442-22.442,22.442H160.618
	c-12.389,0-22.442-10.055-22.442-22.442V212.607c0-12.389,10.054-22.443,22.442-22.443h8.416l0,0c4.646,0,8.417,3.77,8.417,8.417
	l0,0c0,4.646-3.771,8.416-8.417,8.416l0,0h-2.806c-6.193,0-11.222,5.027-11.222,11.221v151.488c0,6.19,5.027,11.222,11.222,11.222
	h179.542c6.191,0,11.222-5.029,11.222-11.222V218.217c0-6.194-5.029-11.221-11.222-11.221H337.355L337.355,206.996L337.355,206.996
	L337.355,206.996L337.355,206.996L337.355,206.996z M225.141,277.129L225.141,277.129c6.195,0,11.222,5.03,11.222,11.223l0,0
	c0,6.191-5.026,11.222-11.222,11.222l0,0c-6.194,0-11.221-5.029-11.221-11.222l0,0C213.92,282.159,218.947,277.129,225.141,277.129
	L225.141,277.129L225.141,277.129L225.141,277.129z M258.806,277.129h33.663c3.097,0,5.61,2.516,5.61,5.611v11.222
	c0,3.095-2.515,5.61-5.61,5.61h-33.663c-3.096,0-5.611-2.516-5.611-5.61V282.74C253.195,279.645,255.71,277.129,258.806,277.129
	L258.806,277.129L258.806,277.129z M258.806,316.402h33.663c3.097,0,5.61,2.517,5.61,5.613v11.219c0,3.098-2.515,5.611-5.61,5.611
	h-33.663c-3.096,0-5.611-2.515-5.611-5.611v-11.219C253.195,318.919,255.71,316.402,258.806,316.402L258.806,316.402z
	 M247.639,223.828h-51c-6.194,0-11.221-5.027-11.221-11.221v-23.229c0-6.195,5.026-11.222,11.221-11.222h23.005
	c0.729-1.849,1.569-3.646,2.526-5.386c1.907-3.421,4.487-6.451,7.629-8.865c3.197-2.469,6.789-4.321,10.717-5.386
	c4.655-1.346,9.481-2.019,14.36-2.019c4.883,0,9.765,0.673,14.422,2.019c3.929,1.124,7.577,2.975,10.771,5.498
	c3.084,2.414,5.609,5.386,7.518,8.811c0.954,1.737,1.798,3.479,2.472,5.329h19.691c6.19,0,11.223,5.027,11.223,11.222v23.229
	c0,6.194-5.031,11.221-11.223,11.221L247.639,223.828L247.639,223.828L247.639,223.828L247.639,223.828L247.639,223.828
	L247.639,223.828L247.639,223.828z M202.698,257.492h106.604v95.382H202.698V257.492L202.698,257.492L202.698,257.492
	L202.698,257.492L202.698,257.492L202.698,257.492z M185.867,240.66h140.266v129.045H185.867V240.66L185.867,240.66L185.867,240.66
	L185.867,240.66L185.867,240.66L185.867,240.66z M225.141,316.402L225.141,316.402c6.195,0,11.222,5.031,11.222,11.223l0,0
	c0,6.191-5.026,11.223-11.222,11.223l0,0c-6.194,0-11.221-5.029-11.221-11.223l0,0C213.92,321.434,218.947,316.402,225.141,316.402z
	"/>
</svg>
