<?xml version="1.0" encoding="utf-8"?>
<!-- Generator: Adobe Illustrator 16.0.0, SVG Export Plug-In . SVG Version: 6.00 Build 0)  -->
<!DOCTYPE svg PUBLIC "-//W3C//DTD SVG 1.1//EN" "http://www.w3.org/Graphics/SVG/1.1/DTD/svg11.dtd">
<svg version="1.1" id="Layer_1" xmlns="http://www.w3.org/2000/svg" xmlns:xlink="http://www.w3.org/1999/xlink" x="0px" y="0px"
	 width="512px" height="512px" viewBox="0 0 512 512" enable-background="new 0 0 512 512" xml:space="preserve">
<path fill="#3B5999" d="M217.025,99.432l9.488,6.618l11.524-16.524c-1.479-1.367-6.756-5.799-13.312-10.372
	c-30.016-20.936-45.558,18.751-50.226,22.897L159.401,91.52l-12.884,18.472l15.095,10.528L129.193,167l18.506,12.908l32.416-46.475
	l14.484,10.103l15.184-16.869l-16.788-11.709C202.339,103.297,204.849,90.939,217.025,99.432L217.025,99.432z"/>
<g>
	<path d="M378.031,90.599h38.297v-5.873c0-2.068,1.688-3.76,3.76-3.76h21.144c2.07,0,3.761,1.691,3.761,3.76V90.6h37.83
		c1.293,0,2.347,1.057,2.347,2.349v11.514H375.684V92.948C375.684,91.656,376.74,90.599,378.031,90.599L378.031,90.599z
		 M384.374,110.571h92.921c1.937,0,3.696,1.599,3.521,3.524l-7.863,86.229c-0.174,1.926-1.59,3.521-3.523,3.521h-77.3
		c-1.934,0-3.353-1.592-3.524-3.521l-7.755-86.229C380.678,112.163,382.435,110.571,384.374,110.571L384.374,110.571z
		 M444.761,123.964h9.866v65.314h-9.866V123.964L444.761,123.964z M405.756,123.964h9.867v65.314h-9.867V123.964L405.756,123.964z
		 M425.256,123.964h9.869v65.314h-9.869V123.964L425.256,123.964z"/>
</g>
<path fill="#FF8087" d="M322.981,94.699c-0.547-0.772-1.617-0.957-2.388-0.412l-11.408,8.051h-4.598
	c-0.947,0-1.714,0.767-1.714,1.713s0.767,1.713,1.714,1.713h2.763l-0.961,2.885c-0.299,0.897,0.186,1.868,1.083,2.167
	c0.181,0.061,0.363,0.089,0.542,0.089c0.718,0,1.386-0.454,1.625-1.172l1.536-4.607l11.392-8.04
	C323.34,96.542,323.526,95.472,322.981,94.699z"/>
<path fill="#AFD755" d="M390.119,165.513c20.847-8.996,21.759-20.579,20.276-25.274c-1.714-5.426-15.101-20.134-58.938-17.421
	l-3.498,8.221c10.602-1.581,20.669-1.296,28.466,0.433c12.95,2.872,23.046,8.349,20.262,15.631
	c-3.362,8.794-21.967,14.556-35.767,14.59c-2.338,0.006-6.067-0.146-9.375-0.954l-11.04,7.749
	C352.973,173.721,373.229,172.801,390.119,165.513z"/>
<path fill="#96BE4B" d="M348.424,129.672l-0.464,1.367c10.602-1.581,20.669-1.296,28.466,0.433
	c12.95,2.872,23.046,8.349,20.262,15.631c-1.64,4.288-6.914,7.847-13.478,10.381c12.348-4.049,22.431-10.526,20.046-17.246
	C400.475,132.403,379.553,122.818,348.424,129.672z"/>
<path fill="#96BE4B" d="M387.735,116.522c-2.471,0.156-11.323,1.583-17.749,20.289c-2.348,6.833-8.711,32.271-40.268,31.843
	c-12.379-0.168-20.276-10.709-19.828-21.026c-2.445,16.663,15.312,33.955,42.961,19.681
	C377.897,154.377,369.936,125.864,387.735,116.522z"/>
<path fill="#FFDC64" d="M339.219,162.876c-10.56-14.518-0.402-34.988,3.779-43.485c4.426-8.996,2.855-20.337,2.855-20.337
	c-2.999,1.938-12.459,3.738-12.459,3.738s0.429,3.106-5.39,24.025c-2.776,9.98-5.479,25.065,4.201,35.941
	C334.38,163.141,336.742,163.193,339.219,162.876z"/>
<path fill="#FFC850" d="M337.858,94.627c-9.608,3.669-15.942,3.868-19.514,2.597l0,0c5.27,12.314,27.518,2.22,27.51,1.83
	C345.746,93.867,341.998,93.046,337.858,94.627z"/>
<g>
	<path fill="#AFD755" d="M356.919,105.123c2.69-26.19-24.916-32.342-40.91-14.779c-2.178,2.391-1.491,5.588,2.496,6.974
		c0.379,1.155,2.951,7.221,14.89,5.474c0,0,0.429,3.105-5.39,24.024c-2.84,10.21-5.641,25.774,4.854,36.698
		c1.82,1.895,4.204,3.461,7.002,4.709c5.068-2.014,9.966-4.272,14.481-6.949c-2.71-0.379-5.464-1.082-7.347-2.391
		c-9.022-6.27-4.386-15.764,1.25-27.881C349.834,127.637,355.991,114.144,356.919,105.123z"/>
	<path fill="#AFD755" d="M353.421,157.027c-14.181,10.274-29.692,6.355-32.842-2.998c-2.427-7.211,1.785-12.47,5.533-15.576
		l2.356-11.03c-7.925,3.105-14.601,9.185-17.028,14.754c-7.809,17.913,10.71,40.981,41.41,25.131
		c25.046-12.932,17.085-41.445,34.884-50.786c0.648-0.34,0.351-1.333-0.377-1.254C367.887,117.362,366.668,147.431,353.421,157.027z
		"/>
</g>
<g>
	<g>
		<path d="M45.668,151.515c17.209,12.572,38.876,6.822,57.995,1.745c16.333-4.335,31.756-8.43,41.629-1.217
			c10.263,7.497,8.858,22.646,3.334,30.208c-5.121,7.01-19.476,12.149-30.309,4.235c-10.512-7.68-9.842-20.093-9.803-20.727
			c0.31-4-2.672-7.508-6.676-7.842c-4.022-0.338-7.557,2.649-7.893,6.672c-0.071,0.852-1.554,21.058,15.75,33.699
			c17.413,12.721,40.714,6.301,50.735-7.415c10.335-14.147,10.202-38.422-6.514-50.634c-15.503-11.325-35.076-6.131-54.002-1.106
			c-17.508,4.645-34.046,9.035-45.623,0.578c-6.888-5.032-9.707-10.674-8.619-17.243c0.948-5.698,4.395-10.412,5.589-12.043
			c0.685-0.937,4.611-5.274,9.994-7.83c6.132-2.911,11.481-2.444,16.843,1.473c10.795,7.886,11.5,19.164,11.766,23.412
			c0.069,1.104,0.118,1.899,0.324,2.771c0.924,3.924,4.86,6.362,8.791,5.438c3.791-0.894,6.187-4.587,5.522-8.368
			c-0.019-0.199-0.031-0.452-0.048-0.749c-0.346-5.536-1.397-22.37-17.732-34.303c-19.853-14.503-40.414,0.164-47.319,9.616
			c-4.399,6.019-7.141,12.137-8.146,18.193C29.843,128.581,31.195,140.942,45.668,151.515z"/>
	</g>
</g>
<g id="Layer_1_1_">
	<g id="Layer_2" display="none">
	</g>
	<g id="shadows">
		<g opacity="0.9">
			<g>
				<path fill="#B7B7B7" d="M465.5,151.5c-1.35-8.84-4-17.24-7.77-25H55.436c-0.936,1.149-2.098,2.125-3.482,2.858
					c-4.79,10.847-7.454,22.85-7.454,35.472V381.5c0,48.6,39.4,88,88,88h246c48.6,0,88-39.4,88-88V164.83
					C466.5,160.3,466.16,155.85,465.5,151.5z"/>
			</g>
		</g>
		<g>
			<g>
				<path fill="#FFFFFF" d="M464.79,126.5c-8.05-40.3-43.62-70.67-86.29-70.67h-246c-32.424,0-60.754,17.539-76.017,43.65
					c0.076,0.049,0.15,0.1,0.225,0.151C72.233,74.643,99.922,58,131.5,58h246c41.9,0,76.96,29.28,85.83,68.5H55.436
					c-2.089,2.566-5.283,4.302-9.602,4.302c-0.127,0-0.244-0.015-0.369-0.018c-0.634,4.257-0.964,8.615-0.964,13.046V360.5
					c0,48.6,39.4,88,88,88h246c35.07,0,65.35-20.52,79.49-50.21c5.46-11.45,8.51-24.26,8.51-37.79V143.83
					C466.5,137.9,465.91,132.1,464.79,126.5z"/>
			</g>
		</g>
	</g>
	<radialGradient id="SVGID_1_" cx="254.5002" cy="279.4395" r="192.1469" gradientUnits="userSpaceOnUse">
		<stop  offset="0" style="stop-color:#F452A6"/>
		<stop  offset="0.5" style="stop-color:#EF047F"/>
		<stop  offset="1" style="stop-color:#CE037E"/>
	</radialGradient>
	<path fill="url(#SVGID_1_)" stroke="#E2E2E2" stroke-width="10" stroke-miterlimit="10" d="M463.33,126.5H55.436
		c-2.089,2.566-5.283,4.302-9.602,4.302c-0.348,0-0.677-0.027-1.011-0.049C43.957,135.706,43.5,140.8,43.5,146v216.67
		c0,4.53,0.34,8.98,1,13.33c6.43,42.28,42.93,74.67,87,74.67h246c35.92,0,66.82-21.52,80.49-52.38c4.83-10.89,7.51-22.94,7.51-35.62
		V146C465.5,139.3,464.75,132.77,463.33,126.5z"/>
	
		<g id="svg2" xmlns:dc="http://purl.org/dc/elements/1.1/" xmlns:inkscape="http://www.inkscape.org/namespaces/inkscape" xmlns:svg="http://www.w3.org/2000/svg" xmlns:sodipodi="http://sodipodi.sourceforge.net/DTD/sodipodi-0.dtd" xmlns:cc="http://creativecommons.org/ns#" xmlns:rdf="http://www.w3.org/1999/02/22-rdf-syntax-ns#" inkscape:version="0.48.4 r9939" sodipodi:docname="amazon.svg" display="none">
		
			<sodipodi:namedview  bordercolor="#666666" id="base" pagecolor="#ffffff" inkscape:zoom="0.51420519" borderopacity="1.0" showgrid="false" inkscape:cy="331.75675" inkscape:cx="125.01135" inkscape:pageshadow="2" inkscape:pageopacity="0.0" inkscape:window-y="25" inkscape:window-height="719" inkscape:window-maximized="1" inkscape:window-x="0" inkscape:window-width="1360" inkscape:current-layer="layer1" inkscape:document-units="px">
			</sodipodi:namedview>
		<path display="inline" fill="#EF3A24" d="M50.502,119.833h409.995c-12.802-32.778-44.688-56-81.997-56h-246
			C95.188,63.833,63.304,87.055,50.502,119.833z"/>
		<g display="inline">
			<g>
				<rect x="172.5" y="147" fill="none" width="305" height="240"/>
				<text transform="matrix(1 0 0 1 172.4998 336.999)" fill="#FF9900" font-family="'Tahoma'" font-size="250">A</text>
			</g>
		</g>
	</g>
	<ellipse display="none" fill="#B4DFF7" cx="147.5" cy="178" rx="63" ry="61.5"/>
	<circle display="none" fill="#31C4E9" cx="146.5" cy="171.5" r="62"/>
</g>
<g id="Layer_3" display="none">
	<path display="inline" fill="#200A7F" stroke="#18E5EA" stroke-width="20" stroke-miterlimit="10" d="M401.137,212.167
		c5.104,15.338,7.863,31.744,7.863,48.795c0,85.328-69.173,154.5-154.5,154.5c-85.328,0-154.5-69.172-154.5-154.5
		s69.172-154.5,154.5-154.5c51.227,0,96.63,24.93,124.738,63.319"/>
	<path display="inline" fill="#EF0B79" d="M333.363,255.151c0,4.226-3.301,7.651-7.371,7.651H174.872
		c-4.072,0-7.372-3.425-7.372-7.651l0,0c0-4.226,3.3-7.651,7.372-7.651h151.119C330.063,247.5,333.363,250.925,333.363,255.151
		L333.363,255.151z"/>
	<path display="inline" fill="#EF0B79" d="M333.363,284.797c0,4.227-3.301,7.65-7.371,7.65H174.872c-4.072,0-7.372-3.426-7.372-7.65
		l0,0c0-4.227,3.3-7.65,7.372-7.65h151.119C330.063,277.146,333.363,280.57,333.363,284.797L333.363,284.797z"/>
	<path display="inline" fill="#EF0B79" d="M333.363,313.008c0,4.227-3.301,7.651-7.371,7.651H174.872
		c-4.072,0-7.372-3.427-7.372-7.651l0,0c0-4.225,3.3-7.65,7.372-7.65h151.119C330.063,305.357,333.363,308.783,333.363,313.008
		L333.363,313.008z"/>
	<path display="inline" fill="#EF0B79" d="M333.363,338.352c0,4.229-3.301,7.651-7.371,7.651H174.872
		c-4.072,0-7.372-3.426-7.372-7.651l0,0c0-4.225,3.3-7.647,7.372-7.647h151.119C330.063,330.701,333.363,334.127,333.363,338.352
		L333.363,338.352z"/>
	<polygon display="inline" fill="#18E5EA" points="394.991,191.49 320.191,165.163 380.392,113.547 	"/>
	<g display="inline">
		<g>
			<g>
				<path fill="#E9F21C" d="M241.48,239.22c-2.284,0-4.444-1.068-5.833-2.901l-18.76-24.775c-2.44-3.222-1.805-7.81,1.417-10.251
					c3.229-2.442,7.813-1.803,10.253,1.417l12.338,16.293l31.033-49.826c2.135-3.429,6.646-4.478,10.082-2.344
					c3.432,2.135,4.479,6.65,2.342,10.08l-36.658,58.857c-1.272,2.047-3.472,3.333-5.879,3.442
					C241.702,239.217,241.592,239.22,241.48,239.22z"/>
			</g>
		</g>
	</g>
</g>
<g id="Layer_2_1_" display="none">
	<rect x="121" y="171.5" display="inline" fill="none" width="298" height="251"/>
	
		<text transform="matrix(1 0 0 1 120.9998 348.998)" display="inline" fill="#EF3A24" font-family="'MyriadPro-Regular'" font-size="250">24</text>
	<circle display="inline" fill="#FFFFFF" cx="138.25" cy="91.833" r="17.25"/>
	<circle display="inline" fill="#FFFFFF" cx="185.25" cy="91.833" r="17.25"/>
	<circle display="inline" fill="#FFFFFF" cx="232.25" cy="91.833" r="17.25"/>
	<circle display="inline" fill="#FFFFFF" cx="278.25" cy="91.833" r="17.25"/>
	<circle display="inline" fill="#FFFFFF" cx="323.25" cy="91.833" r="17.25"/>
	<circle display="inline" fill="#FFFFFF" cx="368.25" cy="91.833" r="17.25"/>
</g>
<g>
	<linearGradient id="SVGID_2_" gradientUnits="userSpaceOnUse" x1="43.5002" y1="55.833" x2="465.5002" y2="55.833">
		<stop  offset="0" style="stop-color:#D471AD"/>
		<stop  offset="0.5" style="stop-color:#C7158C"/>
		<stop  offset="1" style="stop-color:#9D248E"/>
	</linearGradient>
	<radialGradient id="SVGID_3_" cx="254.5002" cy="55.833" r="153.7197" gradientUnits="userSpaceOnUse">
		<stop  offset="0.0056" style="stop-color:#FFFEEE"/>
		<stop  offset="0.2849" style="stop-color:#F3F4E9"/>
		<stop  offset="0.7472" style="stop-color:#D7DADE"/>
		<stop  offset="0.8764" style="stop-color:#DCD8D4"/>
	</radialGradient>
	<path fill="url(#SVGID_2_)" stroke="url(#SVGID_3_)" stroke-width="8" stroke-miterlimit="10" d="M465.5,56.396
		c0-3.1-4.062-5.632-9.045-5.632H310.643V36.682c0-4.96-6.516-9.013-14.495-9.013h-81.496c-7.984,0-14.492,4.057-14.492,9.013
		v14.079H52.549c-4.98,0-9.048,2.535-9.048,5.63v27.605h422V56.396z"/>
</g>
<line fill="none" stroke="#FFFFFF" stroke-width="20" stroke-miterlimit="10" x1="195.84" y1="169.18" x2="195.84" y2="416.5"/>
<line fill="none" stroke="#FFFFFF" stroke-width="20" stroke-miterlimit="10" x1="244.67" y1="169.18" x2="244.67" y2="416.5"/>
<line fill="none" stroke="#FFFFFF" stroke-width="20" stroke-miterlimit="10" x1="293.5" y1="169.18" x2="293.5" y2="416.5"/>
<path fill="#4B3F4E" d="M333.288,92.404c-1.184,0-2.142-0.959-2.142-2.142v-1.713c0-1.183,0.958-2.142,2.142-2.142
	c1.183,0,2.142,0.959,2.142,2.142v1.713C335.43,91.445,334.471,92.404,333.288,92.404z"/>
</svg>
