<?xml version="1.0" encoding="utf-8"?>
<!-- Generator: Adobe Illustrator 16.0.0, SVG Export Plug-In . SVG Version: 6.00 Build 0)  -->
<!DOCTYPE svg PUBLIC "-//W3C//DTD SVG 1.1//EN" "http://www.w3.org/Graphics/SVG/1.1/DTD/svg11.dtd">
<svg version="1.1" id="Layer_1" xmlns="http://www.w3.org/2000/svg" xmlns:xlink="http://www.w3.org/1999/xlink" x="0px" y="0px"
	 width="512px" height="512px" viewBox="0 0 512 512" enable-background="new 0 0 512 512" xml:space="preserve">
<g id="Layer_1_1_">
	<g id="Layer_2" display="none">
	</g>
	<g id="shadows">
		<g opacity="0.9">
			<g>
				<path fill="#B7B7B7" d="M466.5,381.5c0,48.6-39.4,88-88,88h-246c-48.601,0-88-39.4-88-88V164.833c0-48.601,39.399-88,88-88h246
					c48.6,0,88,39.399,88,88V381.5z"/>
			</g>
		</g>
		<g>
			<g>
				<path fill="#FFFFFF" d="M466.5,360.5c0,48.6-39.4,88-88,88h-246c-48.601,0-88-39.4-88-88V143.833c0-48.601,39.399-88,88-88h246
					c48.6,0,88,39.399,88,88V360.5z"/>
			</g>
		</g>
	</g>
	
		<radialGradient id="SVGID_1_" cx="254.5" cy="-299.3335" r="203.7987" gradientTransform="matrix(1 0 0 -1 0 -45)" gradientUnits="userSpaceOnUse">
		<stop  offset="0" style="stop-color:#FD7E32"/>
		<stop  offset="0.5" style="stop-color:#FF5400"/>
		<stop  offset="1" style="stop-color:#D83C01"/>
	</radialGradient>
	<path fill="url(#SVGID_1_)" stroke="#E2E2E2" stroke-width="10" stroke-miterlimit="10" d="M465.5,362.667c0,48.6-39.399,88-88,88
		h-246c-48.601,0-88-39.4-88-88V146c0-48.601,39.399-88,88-88h246c48.601,0,88,39.399,88,88V362.667z"/>
	
		<g id="svg2" inkscape:version="0.48.4 r9939" sodipodi:docname="amazon.svg" xmlns:svg="http://www.w3.org/2000/svg" xmlns:rdf="http://www.w3.org/1999/02/22-rdf-syntax-ns#" xmlns:inkscape="http://www.inkscape.org/namespaces/inkscape" xmlns:cc="http://creativecommons.org/ns#" xmlns:dc="http://purl.org/dc/elements/1.1/" xmlns:sodipodi="http://sodipodi.sourceforge.net/DTD/sodipodi-0.dtd" display="none">
		
			<sodipodi:namedview  bordercolor="#666666" id="base" pagecolor="#ffffff" inkscape:zoom="0.51420519" borderopacity="1.0" showgrid="false" inkscape:cy="331.75675" inkscape:cx="125.01135" inkscape:pageshadow="2" inkscape:window-height="719" inkscape:pageopacity="0.0" inkscape:window-maximized="1" inkscape:window-x="0" inkscape:current-layer="layer1" inkscape:window-width="1360" inkscape:document-units="px" inkscape:window-y="25">
			</sodipodi:namedview>
		<path display="inline" fill="#EF3A24" d="M50.502,119.833h409.996c-12.802-32.778-44.688-56-81.998-56h-246
			C95.188,63.833,63.304,87.055,50.502,119.833z"/>
		<g display="inline">
			<g>
				<rect x="172.5" y="147" fill="none" width="305" height="240"/>
				<text transform="matrix(1 0 0 1 172.5 336.999)" fill="#FF9900" font-family="'Tahoma'" font-size="250">A</text>
			</g>
		</g>
	</g>
	<ellipse display="none" fill="#B4DFF7" cx="147.5" cy="178" rx="63" ry="61.5"/>
	<circle display="none" fill="#31C4E9" cx="146.5" cy="171.5" r="62"/>
</g>
<g id="Layer_3" display="none">
	<path display="inline" fill="#200A7F" stroke="#18E5EA" stroke-width="20" stroke-miterlimit="10" d="M401.137,212.167
		c5.104,15.338,7.863,31.744,7.863,48.795c0,85.328-69.172,154.5-154.5,154.5S100,346.29,100,260.962s69.172-154.5,154.5-154.5
		c51.227,0,96.63,24.93,124.739,63.319"/>
	<path display="inline" fill="#EF0B79" d="M333.363,255.151c0,4.226-3.301,7.651-7.371,7.651h-151.12
		c-4.072,0-7.372-3.425-7.372-7.651l0,0c0-4.226,3.3-7.651,7.372-7.651h151.12C330.063,247.5,333.363,250.925,333.363,255.151
		L333.363,255.151z"/>
	<path display="inline" fill="#EF0B79" d="M333.363,284.797c0,4.227-3.301,7.65-7.371,7.65h-151.12c-4.072,0-7.372-3.426-7.372-7.65
		l0,0c0-4.227,3.3-7.65,7.372-7.65h151.12C330.063,277.146,333.363,280.57,333.363,284.797L333.363,284.797z"/>
	<path display="inline" fill="#EF0B79" d="M333.363,313.008c0,4.227-3.301,7.651-7.371,7.651h-151.12
		c-4.072,0-7.372-3.427-7.372-7.651l0,0c0-4.225,3.3-7.65,7.372-7.65h151.12C330.063,305.357,333.363,308.783,333.363,313.008
		L333.363,313.008z"/>
	<path display="inline" fill="#EF0B79" d="M333.363,338.352c0,4.229-3.301,7.651-7.371,7.651h-151.12
		c-4.072,0-7.372-3.426-7.372-7.651l0,0c0-4.225,3.3-7.647,7.372-7.647h151.12C330.063,330.701,333.363,334.127,333.363,338.352
		L333.363,338.352z"/>
	<polygon display="inline" fill="#18E5EA" points="394.992,191.49 320.191,165.163 380.392,113.547 	"/>
	<g display="inline">
		<g>
			<g>
				<path fill="#E9F21C" d="M241.48,239.22c-2.284,0-4.445-1.068-5.833-2.901l-18.76-24.775c-2.44-3.222-1.805-7.81,1.417-10.251
					c3.228-2.442,7.813-1.803,10.253,1.417l12.338,16.293l31.033-49.826c2.135-3.429,6.646-4.478,10.082-2.344
					c3.432,2.135,4.479,6.65,2.342,10.08l-36.658,58.857c-1.273,2.047-3.472,3.333-5.879,3.442
					C241.702,239.217,241.592,239.22,241.48,239.22z"/>
			</g>
		</g>
	</g>
</g>
<g id="Layer_2_1_" display="none">
	<rect x="121" y="171.5" display="inline" fill="none" width="298" height="251"/>
	
		<text transform="matrix(1 0 0 1 121 348.998)" display="inline" fill="#EF3A24" font-family="'MyriadPro-Regular'" font-size="250">24</text>
	<circle display="inline" fill="#FFFFFF" cx="138.25" cy="91.833" r="17.25"/>
	<circle display="inline" fill="#FFFFFF" cx="185.25" cy="91.833" r="17.25"/>
	<circle display="inline" fill="#FFFFFF" cx="232.25" cy="91.833" r="17.25"/>
	<circle display="inline" fill="#FFFFFF" cx="278.25" cy="91.833" r="17.25"/>
	<circle display="inline" fill="#FFFFFF" cx="323.25" cy="91.833" r="17.25"/>
	<circle display="inline" fill="#FFFFFF" cx="368.25" cy="91.833" r="17.25"/>
</g>
<g>
	<g>
		<path fill="#FFFFFF" d="M332.719,291.051c0,5.357-4.342,9.701-9.701,9.701c-5.357,0-9.701-4.344-9.701-9.701
			c0-5.359,4.344-9.701,9.701-9.701C328.377,281.35,332.719,285.691,332.719,291.051z"/>
		<path fill="#57A4FF" d="M274.51,271.646h-19.403v19.404C255.107,280.334,263.795,271.646,274.51,271.646z"/>
		<path fill="#57A4FF" d="M255.107,291.051v19.402h19.403C263.795,310.453,255.107,301.764,255.107,291.051z"/>
		<path fill="#FFFFFF" d="M284.213,291.051c0,5.357-4.346,9.701-9.703,9.701s-9.699-4.344-9.699-9.701
			c0-5.359,4.342-9.701,9.699-9.701S284.213,285.691,284.213,291.051z"/>
		<path fill="#57A4FF" d="M293.912,291.051c0,10.713-8.688,19.402-19.402,19.402h48.508c-10.715,0-19.402-8.689-19.402-19.402
			c0-10.717,8.688-19.404,19.402-19.404H274.51C285.225,271.646,293.912,280.334,293.912,291.051z"/>
		<linearGradient id="SVGID_2_" gradientUnits="userSpaceOnUse" x1="109.584" y1="283.7734" x2="138.688" y2="283.7734">
			<stop  offset="0" style="stop-color:#FEFE93"/>
			<stop  offset="0.5" style="stop-color:#FEFE00"/>
			<stop  offset="1" style="stop-color:#FEDD00"/>
		</linearGradient>
		<path fill="url(#SVGID_2_)" d="M109.584,330.805l29.104-18.189v-57.683l-29.104-18.19V330.805z"/>
		<path fill="#57A4FF" d="M342.422,291.051v-19.404h-19.404C333.732,271.646,342.422,280.334,342.422,291.051z"/>
		<path fill="#57A4FF" d="M323.018,310.453h19.404v-19.402C342.422,301.764,333.732,310.453,323.018,310.453z"/>
		<path fill="#57A4FF" d="M352.121,156.292l9.703,2.426v-31.232l-9.703,2.426V156.292z"/>
		<path fill="#4C4C4C" d="M371.525,126.124h19.404v33.956h-19.404V126.124z"/>
		<path fill="#57A4FF" d="M182.345,213.438h179.479v9.701H182.345V213.438z"/>
		<radialGradient id="SVGID_3_" cx="211.4502" cy="291.0498" r="15.3397" gradientUnits="userSpaceOnUse">
			<stop  offset="0" style="stop-color:#FB6040"/>
			<stop  offset="0.5" style="stop-color:#FE0000"/>
			<stop  offset="1" style="stop-color:#D50000"/>
		</radialGradient>
		<path fill="url(#SVGID_3_)" d="M201.749,271.646h19.403v38.807h-19.403V271.646z"/>
	</g>
	<path fill="#FFFFFF" stroke="#000000" stroke-miterlimit="10" d="M395.779,116.422h-29.105c-0.225,0.028-0.445,0.073-0.664,0.135
		c-0.162-0.006-0.322-0.006-0.484,0l-19.402,4.852c-0.143,0.035-0.248,0.123-0.379,0.166c-0.318,0.102-0.623,0.234-0.91,0.397
		c-0.184,0.117-0.357,0.244-0.52,0.384c-0.158,0.1-0.307,0.211-0.449,0.33l-61.662,61.649h-95.007
		c-8.036,0-14.552,6.514-14.552,14.552v48.507h-27.711l-37.629-23.517c-1.495-0.933-3.379-0.983-4.921-0.128
		c-1.542,0.855-2.499,2.477-2.499,4.243v111.566c0,1.768,0.958,3.389,2.499,4.242c1.542,0.855,3.427,0.807,4.921-0.127
		l37.629-23.518h27.711v24.254c0,2.68,2.173,4.852,4.851,4.852h189.18c2.68,0,4.852-2.172,4.852-4.852V198.886
		c0-8.038-6.516-14.552-14.553-14.552h-27.096l18.885-18.885l16.738,4.188c0.383,0.094,0.779,0.145,1.174,0.145h29.105
		c2.678,0,4.852-2.173,4.852-4.852v-43.656C400.631,118.594,398.457,116.422,395.779,116.422z M361.824,223.14H182.345v-9.701
		h179.479V223.14z M109.584,236.721l29.104,18.189v57.706l-29.104,18.211V236.721z M148.39,310.453v-53.357h24.254v53.357H148.39z
		 M361.824,339.557H182.345V232.841h179.479V339.557z M361.824,198.886v4.851H182.345v-4.851c0-2.679,2.173-4.85,4.851-4.85h169.777
		C359.652,194.036,361.824,196.207,361.824,198.886z M295.922,184.334l46.5-46.5v20.236l-26.264,26.264H295.922z M352.121,129.912
		l9.703-2.426v31.232l-9.703-2.426V129.912z M390.93,160.079h-19.404v-33.956h19.404V160.079z"/>
	<path fill="#004FAC" d="M196.898,320.154h29.104c2.679,0,4.851-2.172,4.851-4.85v-48.508c0-2.68-2.171-4.852-4.851-4.852h-29.104
		c-2.679,0-4.851,2.172-4.851,4.852v48.508C192.047,317.982,194.219,320.154,196.898,320.154z M201.749,271.646h19.403v38.807
		h-19.403V271.646z"/>
	<path fill="#FFFFFF" stroke="#000000" stroke-miterlimit="10" d="M250.256,320.154h97.015c2.678,0,4.85-2.172,4.85-4.85v-48.508
		c0-2.68-2.172-4.852-4.85-4.852h-97.015c-2.679,0-4.851,2.172-4.851,4.852v48.508C245.406,317.982,247.578,320.154,250.256,320.154
		z M255.107,291.051v-19.404h87.315v38.807h-87.315V291.051z"/>
	<path fill="#1E1E1E" d="M274.51,310.453c10.715,0,19.402-8.689,19.402-19.402c0-10.717-8.688-19.404-19.402-19.404
		s-19.403,8.688-19.403,19.404C255.107,301.764,263.795,310.453,274.51,310.453z M274.51,281.35c5.357,0,9.703,4.342,9.703,9.701
		c0,5.357-4.346,9.701-9.703,9.701s-9.699-4.344-9.699-9.701C264.811,285.691,269.152,281.35,274.51,281.35z"/>
	<path fill="#262626" d="M303.615,291.051c0,10.713,8.688,19.402,19.402,19.402s19.404-8.689,19.404-19.402
		c0-10.717-8.689-19.404-19.404-19.404S303.615,280.334,303.615,291.051z M323.018,281.35c5.359,0,9.701,4.342,9.701,9.701
		c0,5.357-4.342,9.701-9.701,9.701c-5.357,0-9.701-4.344-9.701-9.701C313.316,285.691,317.66,281.35,323.018,281.35z"/>
</g>
</svg>
