<?xml version="1.0" encoding="utf-8"?>
<!-- Generator: Adobe Illustrator 16.0.0, SVG Export Plug-In . SVG Version: 6.00 Build 0)  -->
<!DOCTYPE svg PUBLIC "-//W3C//DTD SVG 1.1//EN" "http://www.w3.org/Graphics/SVG/1.1/DTD/svg11.dtd">
<svg version="1.1" id="Layer_1" xmlns="http://www.w3.org/2000/svg" xmlns:xlink="http://www.w3.org/1999/xlink" x="0px" y="0px"
	 width="512px" height="512px" viewBox="0 0 512 512" enable-background="new 0 0 512 512" xml:space="preserve">
<g id="Layer_1_1_">
	<g id="Layer_2" display="none">
	</g>
	<g id="shadows">
		<g opacity="0.9">
			<g>
				<path fill="#B7B7B7" d="M466.5,381.5c0,48.6-39.4,88-88,88h-246c-48.601,0-88-39.4-88-88V164.833c0-48.601,39.399-88,88-88h246
					c48.6,0,88,39.399,88,88V381.5z"/>
			</g>
		</g>
		<g>
			<g>
				<path fill="#FFFFFF" d="M466.5,360.5c0,48.6-39.4,88-88,88h-246c-48.601,0-88-39.4-88-88V143.833c0-48.601,39.399-88,88-88h246
					c48.6,0,88,39.399,88,88V360.5z"/>
			</g>
		</g>
	</g>
	
		<linearGradient id="SVGID_1_" gradientUnits="userSpaceOnUse" x1="744" y1="276.334" x2="1166" y2="276.334" gradientTransform="matrix(1 0 0 1 -700.5 -22)">
		<stop  offset="0" style="stop-color:#FFFF25"/>
		<stop  offset="0.0332" style="stop-color:#FAED31"/>
		<stop  offset="0.0921" style="stop-color:#F4D242"/>
		<stop  offset="0.1523" style="stop-color:#EFBF4E"/>
		<stop  offset="0.2141" style="stop-color:#ECB456"/>
		<stop  offset="0.28" style="stop-color:#EBB058"/>
		<stop  offset="0.67" style="stop-color:#DB7971"/>
		<stop  offset="0.89" style="stop-color:#CD497E"/>
		<stop  offset="1" style="stop-color:#BB1284"/>
	</linearGradient>
	<path fill="url(#SVGID_1_)" stroke="#E2E2E2" stroke-width="10" stroke-miterlimit="10" d="M465.5,362.667c0,48.6-39.399,88-88,88
		h-246c-48.601,0-88-39.4-88-88V146c0-48.601,39.399-88,88-88h246c48.601,0,88,39.399,88,88V362.667z"/>
</g>
<linearGradient id="SVGID_2_" gradientUnits="userSpaceOnUse" x1="279.167" y1="158.5" x2="279.167" y2="158.5">
	<stop  offset="0" style="stop-color:#FFFF25"/>
	<stop  offset="0.0332" style="stop-color:#FAED31"/>
	<stop  offset="0.0921" style="stop-color:#F4D242"/>
	<stop  offset="0.1523" style="stop-color:#EFBF4E"/>
	<stop  offset="0.2141" style="stop-color:#ECB456"/>
	<stop  offset="0.28" style="stop-color:#EBB058"/>
	<stop  offset="0.67" style="stop-color:#DB7971"/>
	<stop  offset="0.89" style="stop-color:#CD497E"/>
	<stop  offset="1" style="stop-color:#BB1284"/>
</linearGradient>
<path fill="#EDF5E1" stroke="url(#SVGID_2_)" stroke-width="4" stroke-miterlimit="10" d="M279.167,158.5"/>
<circle fill="#1FA9CC" stroke="#E2E2E2" stroke-width="10" stroke-miterlimit="10" cx="144" cy="156" r="26.5"/>
<circle fill="#1FA9CC" stroke="#E2E2E2" stroke-width="10" stroke-miterlimit="10" cx="144" cy="242.166" r="26.5"/>
<circle fill="#1FA9CC" stroke="#E2E2E2" stroke-width="10" stroke-miterlimit="10" cx="144" cy="329.166" r="26.5"/>
<path fill="#EFF41B" stroke="#F4F8CE" stroke-width="10" stroke-miterlimit="10" d="M405.5,166.75c0,5.937-3.791,10.75-8.466,10.75
	H195.966c-4.675,0-8.466-4.813-8.466-10.75v-21.5c0-5.937,3.791-10.75,8.466-10.75h201.068c4.675,0,8.466,4.813,8.466,10.75V166.75z
	"/>
<path fill="#EFF41B" stroke="#F4F8CE" stroke-width="10" stroke-miterlimit="10" d="M405.5,247.916c0,5.937-3.791,10.75-8.466,10.75
	H195.966c-4.675,0-8.466-4.813-8.466-10.75v-21.5c0-5.937,3.791-10.75,8.466-10.75h201.068c4.675,0,8.466,4.813,8.466,10.75V247.916
	z"/>
<path fill="#EFF41B" stroke="#F4F8CE" stroke-width="10" stroke-miterlimit="10" d="M405.5,339.916c0,5.938-3.791,10.75-8.466,10.75
	H195.966c-4.675,0-8.466-4.813-8.466-10.75v-21.5c0-5.938,3.791-10.75,8.466-10.75h201.068c4.675,0,8.466,4.813,8.466,10.75V339.916
	z"/>
</svg>
