<?xml version="1.0" encoding="utf-8"?>
<!-- Generator: Adobe Illustrator 16.0.0, SVG Export Plug-In . SVG Version: 6.00 Build 0)  -->
<!DOCTYPE svg PUBLIC "-//W3C//DTD SVG 1.1//EN" "http://www.w3.org/Graphics/SVG/1.1/DTD/svg11.dtd">
<svg version="1.1" id="Layer_1" xmlns="http://www.w3.org/2000/svg" xmlns:xlink="http://www.w3.org/1999/xlink" x="0px" y="0px"
	 width="512px" height="512px" viewBox="0 0 512 512" enable-background="new 0 0 512 512" xml:space="preserve">
<g id="Layer_1_1_">
	<g id="Layer_2" display="none">
	</g>
	<g id="shadows">
		<g opacity="0.9">
			<g>
				<path fill="#B7B7B7" d="M466.5,381.5c0,48.6-39.4,88-88,88h-246c-48.601,0-88-39.4-88-88V164.833c0-48.601,39.399-88,88-88h246
					c48.6,0,88,39.399,88,88V381.5z"/>
			</g>
		</g>
		<g>
			<g>
				<path fill="#FFFFFF" d="M466.5,360.5c0,48.6-39.4,88-88,88h-246c-48.601,0-88-39.4-88-88V143.833c0-48.601,39.399-88,88-88h246
					c48.6,0,88,39.399,88,88V360.5z"/>
			</g>
		</g>
	</g>
	<path fill="#1E1E1A" stroke="#E2E2E2" stroke-width="9" stroke-miterlimit="10" d="M465.5,362.667c0,48.6-39.399,88-88,88h-246
		c-48.601,0-88-39.4-88-88V146c0-48.601,39.399-88,88-88h246c48.601,0,88,39.399,88,88V362.667z"/>
</g>
<path fill="#FF6536" d="M134.425,248.417c0,0,12.037,17.684,37.264,32.652c0,0-18.271-154.418,100.778-181.236
	c-30.501,111.942,38.797,143.511,64.059,84.369c42.184,56.323,10.154,105.462,10.154,105.462
	c17.297,2.492,31.826-16.405,31.826-16.405c0.131,2.327,0.203,4.671,0.203,7.032C378.711,348.89,323.1,404.5,254.5,404.5
	c-68.599,0-124.21-55.61-124.21-124.21C130.29,269.271,131.732,258.59,134.425,248.417z"/>
<path fill="#FF421D" d="M378.508,273.259c0,0-14.529,18.897-31.828,16.405c0,0,32.031-49.139-10.154-105.462
	c-25.262,59.142-94.559,27.573-64.059-84.369c-6.375,1.437-12.355,3.241-17.967,5.366V404.5c68.6,0,124.211-55.61,124.211-124.21
	C378.711,277.93,378.637,275.586,378.508,273.259z"/>
<path fill="#FBBF00" d="M200.026,342.026c0,34.504,27.971,62.474,62.474,62.474c34.502,0,62.473-27.97,62.473-62.474
	c0-18.466-8.01-35.063-20.751-46.499c-24.153,32.815-58.576-16.965-31.749-53.315C272.473,242.212,200.026,251.291,200.026,342.026z
	"/>
<path fill="#FFA900" d="M324.141,342.857c0-18.22-7.903-34.596-20.475-45.88c-23.832,32.379-57.796-16.738-31.326-52.605
	c0,0-3.884,0.488-9.84,2.367V404.5C296.543,404.5,324.141,376.903,324.141,342.857z"/>
<g>
	<g>
		<path d="M281.212,360.262c-2.04-2.283-5.546-2.481-7.829-0.44l-13.338,11.914v-68.215c0-3.063-2.483-5.545-5.545-5.545
			c-3.063,0-5.545,2.482-5.545,5.545v68.215l-13.337-11.915c-2.283-2.04-5.79-1.842-7.829,0.44c-2.041,2.284-1.844,5.789,0.44,7.83
			l20.169,18.018c1.739,1.555,3.92,2.332,6.102,2.332c2.18,0,4.361-0.777,6.1-2.331l20.17-18.019
			C283.055,366.052,283.252,362.546,281.212,360.262z"/>
	</g>
</g>
</svg>
