<?xml version="1.0" encoding="utf-8"?>
<!-- Generator: Adobe Illustrator 16.0.0, SVG Export Plug-In . SVG Version: 6.00 Build 0)  -->
<!DOCTYPE svg PUBLIC "-//W3C//DTD SVG 1.1//EN" "http://www.w3.org/Graphics/SVG/1.1/DTD/svg11.dtd">
<svg version="1.1" id="Layer_1" xmlns="http://www.w3.org/2000/svg" xmlns:xlink="http://www.w3.org/1999/xlink" x="0px" y="0px"
	 width="512px" height="512px" viewBox="0 0 512 512" enable-background="new 0 0 512 512" xml:space="preserve">
<g id="Layer_1_2_">
	<g id="Layer_1_1_">
		<g id="Layer_2" display="none">
		</g>
		<g id="shadows">
			<g opacity="0.9">
				<g>
					<path fill="#B7B7B7" d="M466.5,381.5c0,48.6-39.4,88-88,88h-246c-48.601,0-88-39.4-88-88V164.833c0-48.601,39.399-88,88-88h246
						c48.6,0,88,39.399,88,88V381.5z"/>
				</g>
			</g>
			<g>
				<g>
					<path fill="#FFFFFF" d="M466.5,360.5c0,48.6-39.4,88-88,88h-246c-48.601,0-88-39.4-88-88V143.833c0-48.601,39.399-88,88-88h246
						c48.6,0,88,39.399,88,88V360.5z"/>
				</g>
			</g>
		</g>
		
			<radialGradient id="SVGID_1_" cx="721.5" cy="353.334" r="203.7985" gradientTransform="matrix(1 0 0 1 -467 -99)" gradientUnits="userSpaceOnUse">
			<stop  offset="0.0056" style="stop-color:#E6E6F1"/>
			<stop  offset="0.4494" style="stop-color:#CBCBE3"/>
			<stop  offset="1" style="stop-color:#AAACD2"/>
		</radialGradient>
		<path fill="url(#SVGID_1_)" stroke="#E2E2E2" stroke-width="7" stroke-miterlimit="10" d="M465.5,362.667c0,48.6-39.399,88-88,88
			h-246c-48.601,0-88-39.4-88-88V146c0-48.601,39.399-88,88-88h246c48.601,0,88,39.399,88,88V362.667z"/>
	</g>
</g>
<g>
	<g>
		<g>
			<path fill="#F7F9E1" d="M379.704,285.628c-33.901,18.264-37.14-15.011-37.14-15.011c-28.042-3.239-48.883-34.558-48.883-34.558
				c-37.862,19.559-16.758,74.726-0.44,95.907c20.962,27.149,5.612,71.078,5.612,71.078s-85.473-6.91-129.105-61.729
				c-32.766-41.152-24.29-80.059-14.973-105.737c11.222-30.857,26.392-47.796,48.51-65.809
				c32.878-26.811,93.626-30.164,93.626-30.164c0.398-2.277,2.266-4.936,4.648-7.671c-7.315,0.199-16.252,0.81-26.43,2.141
				c-6.938,1.34-14.607,2.104-22.375,4.38c-7.95,1.716-16.008,4.476-24.252,7.634c-8.235,3.072-16.332,7.434-24.33,11.976
				c-7.596,5.296-15.662,10.177-22.044,17.149c-7.319,5.967-12.652,13.72-18.127,21.156c-5.718,7.293-8.526,16.19-12.804,23.853
				c-3.175,8.175-4.947,16.599-7.345,24.31c-2.157,7.772-2.124,15.558-3.218,22.552c-0.926,7.011-1.629,13.443-1.096,19.194
				c0.188,5.74,0.304,10.775,0.438,14.888c0.243,8.245,0.395,12.974,0.395,12.974l-1.14,0.103c0,0-0.981-4.619-2.264-12.939
				c-0.612-4.149-1.376-9.23-2.195-15.063c-1.251-5.835-1.286-12.496-0.745-19.804c0.414-5.263,0.491-10.969,0.979-16.816
				l-13.698-0.301l14.028-17.19l-14.728-2.108l21.041-16.141l-15.445-4.914l21.768-11.926l-16.49-4.909L159.9,183l-19.647-5.613
				l31.926-8.783l-17.53-8.056l32.276-4.215l-15.786-9.119l39.398-4.128c0.189-0.086,0.379-0.177,0.558-0.241l-18.208-8.245
				l41.416-3.506l-18.979-9.838l78.339,6.216c4.232,0.188,7.931,0.52,11.299,0.886c10.059-9.639,25.877-19.402,25.877-19.402
				c-3.258,3.244-4.555,20.871-4.555,20.871c3.247-5.89,13.683-11.751,13.683-11.751c-5.854,13.685,0,43.016,0,43.016
				c16.968,16.974,35.871,75.633,35.871,75.633l7.194,10.422C392.106,260.22,388.759,280.741,379.704,285.628z"/>
		</g>
	</g>
	<defs>
		<filter id="Adobe_OpacityMaskFilter" filterUnits="userSpaceOnUse" x="120.607" y="108.955" width="267.786" height="294.09">
			<feFlood  style="flood-color:white;flood-opacity:1" result="back"/>
			<feBlend  in="SourceGraphic" in2="back" mode="normal"/>
		</filter>
	</defs>
	<mask maskUnits="userSpaceOnUse" x="120.607" y="108.955" width="267.786" height="294.09" id="SVGID_2_">
		<g filter="url(#Adobe_OpacityMaskFilter)">
			<image overflow="visible" width="272" height="299" xlink:href="17F1230A.jpg"  transform="matrix(1 0 0 1 118.5 106.5)">
			</image>
		</g>
	</mask>
	<g mask="url(#SVGID_2_)">
		<g>
			<path d="M379.704,285.628c-33.901,18.264-37.14-15.011-37.14-15.011c-28.042-3.239-48.883-34.558-48.883-34.558
				c-37.862,19.559-16.758,74.726-0.44,95.907c20.962,27.149,5.612,71.078,5.612,71.078s-85.473-6.91-129.105-61.729
				c-32.766-41.152-24.29-80.059-14.973-105.737c11.222-30.857,26.392-47.796,48.51-65.809
				c32.878-26.811,93.626-30.164,93.626-30.164c0.398-2.277,2.266-4.936,4.648-7.671c-7.315,0.199-16.252,0.81-26.43,2.141
				c-6.938,1.34-14.607,2.104-22.375,4.38c-7.95,1.716-16.008,4.476-24.252,7.634c-8.235,3.072-16.332,7.434-24.33,11.976
				c-7.596,5.296-15.662,10.177-22.044,17.149c-7.319,5.967-12.652,13.72-18.127,21.156c-5.718,7.293-8.526,16.19-12.804,23.853
				c-3.175,8.175-4.947,16.599-7.345,24.31c-2.157,7.772-2.124,15.558-3.218,22.552c-0.926,7.011-1.629,13.443-1.096,19.194
				c0.188,5.74,0.304,10.775,0.438,14.888c0.243,8.245,0.395,12.974,0.395,12.974l-1.14,0.103c0,0-0.981-4.619-2.264-12.939
				c-0.612-4.149-1.376-9.23-2.195-15.063c-1.251-5.835-1.286-12.496-0.745-19.804c0.414-5.263,0.491-10.969,0.979-16.816
				l-13.698-0.301l14.028-17.19l-14.728-2.108l21.041-16.141l-15.445-4.914l21.768-11.926l-16.49-4.909L159.9,183l-19.647-5.613
				l31.926-8.783l-17.53-8.056l32.276-4.215l-15.786-9.119l39.398-4.128c0.189-0.086,0.379-0.177,0.558-0.241l-18.208-8.245
				l41.416-3.506l-18.979-9.838l78.339,6.216c4.232,0.188,7.931,0.52,11.299,0.886c10.059-9.639,25.877-19.402,25.877-19.402
				c-3.258,3.244-4.555,20.871-4.555,20.871c3.247-5.89,13.683-11.751,13.683-11.751c-5.854,13.685,0,43.016,0,43.016
				c16.968,16.974,35.871,75.633,35.871,75.633l7.194,10.422C392.106,260.22,388.759,280.741,379.704,285.628z"/>
		</g>
	</g>
</g>
</svg>
