<?xml version="1.0" encoding="utf-8"?>
<!-- Generator: Adobe Illustrator 16.0.0, SVG Export Plug-In . SVG Version: 6.00 Build 0)  -->
<!DOCTYPE svg PUBLIC "-//W3C//DTD SVG 1.1//EN" "http://www.w3.org/Graphics/SVG/1.1/DTD/svg11.dtd">
<svg version="1.1" id="Layer_1" xmlns="http://www.w3.org/2000/svg" xmlns:xlink="http://www.w3.org/1999/xlink" x="0px" y="0px"
	 width="512px" height="512px" viewBox="0 0 512 512" enable-background="new 0 0 512 512" xml:space="preserve">
<g id="Layer_1_2_">
	<g id="Layer_1_1_">
		<g id="Layer_2" display="none">
		</g>
		<g id="shadows">
			<g opacity="0.9">
				<g>
					<path fill="#B7B7B7" d="M466.5,381.5c0,48.6-39.4,88-88,88h-246c-48.601,0-88-39.4-88-88V164.833c0-48.601,39.399-88,88-88h246
						c48.6,0,88,39.399,88,88V381.5z"/>
				</g>
			</g>
			<g>
				<g>
					<path fill="#FFFFFF" d="M466.5,360.5c0,48.6-39.4,88-88,88h-246c-48.601,0-88-39.4-88-88V143.833c0-48.601,39.399-88,88-88h246
						c48.6,0,88,39.399,88,88V360.5z"/>
				</g>
			</g>
		</g>
		
			<linearGradient id="SVGID_1_" gradientUnits="userSpaceOnUse" x1="744" y1="-16.3335" x2="1166" y2="-16.3335" gradientTransform="matrix(1 0 0 -1 -700.5 238)">
			<stop  offset="0.0056" style="stop-color:#F6602B"/>
			<stop  offset="0.5891" style="stop-color:#F79A27"/>
			<stop  offset="1" style="stop-color:#F8C524"/>
		</linearGradient>
		<path fill="url(#SVGID_1_)" stroke="#E2E2E2" stroke-width="7" stroke-miterlimit="10" d="M465.5,362.667c0,48.6-39.399,88-88,88
			h-246c-48.601,0-88-39.4-88-88V146c0-48.601,39.399-88,88-88h246c48.601,0,88,39.399,88,88V362.667z"/>
	</g>
</g>
<g>
	<g>
		<path fill="#FFFFFF" d="M124.5,130v260h260V130H124.5z M206.085,374.766h-66.351v-66.357h66.351V374.766z M206.085,293.174
			h-66.351V226.82h66.351V293.174z M206.085,211.585h-66.351v-66.351h66.351V211.585z M287.674,374.766H221.32v-66.357h66.354
			V374.766z M287.674,293.174H221.32V226.82h66.354V293.174z M287.674,211.585H221.32v-66.351h66.354V211.585z M369.266,374.766
			h-66.357v-66.357h66.357V374.766z M369.266,293.174h-66.357V226.82h66.357V293.174z M369.266,211.585h-66.357v-66.351h66.357
			V211.585z"/>
	</g>
</g>
<rect x="232.404" y="198.344" fill="none" width="132.571" height="129.846"/>
<text transform="matrix(1 0 0 1 232.4043 283.543)" fill="#405CFF" font-family="'MyriadPro-Regular'" font-size="120">A</text>
<g>
	<g>
		<path d="M300.922,173.484c-2.803,0-5.078,2.275-5.078,5.078s2.275,5.078,5.078,5.078s5.078-2.275,5.078-5.078
			S303.725,173.484,300.922,173.484z"/>
	</g>
</g>
<g>
	<g>
		<path d="M425.092,358.593l-67.783-67.783c11.043-16.633,16.859-35.894,16.859-55.98c0-56.001-45.561-101.563-101.563-101.563
			c-56.001,0-101.563,45.561-101.563,101.563c0,56.002,45.561,101.563,101.563,101.563c20.087,0,39.348-5.816,55.98-16.858
			l18.736,18.735c0.002,0.003,0.005,0.006,0.008,0.009l49.039,49.038c3.838,3.838,8.938,5.951,14.361,5.951
			s10.523-2.113,14.359-5.949c3.839-3.836,5.953-8.937,5.953-14.363S428.929,362.427,425.092,358.593z M326.197,308.831
			C326.197,308.831,326.197,308.831,326.197,308.831c-15.675,11.387-34.206,17.404-53.592,17.404
			c-50.401,0-91.406-41.005-91.406-91.406s41.005-91.406,91.406-91.406s91.406,41.005,91.406,91.406
			c0,19.386-6.018,37.917-17.404,53.592C340.912,296.269,334.045,303.136,326.197,308.831z M336.852,313.435
			c5.256-4.299,10.061-9.104,14.359-14.359l14.408,14.407c-4.383,5.171-9.189,9.979-14.36,14.36L336.852,313.435z M417.91,380.134
			c-1.92,1.92-4.469,2.977-7.18,2.977s-5.26-1.057-7.18-2.977l-45.092-45.091c5.143-4.413,9.947-9.217,14.359-14.359l45.094,45.093
			c1.918,1.916,2.975,4.465,2.975,7.178S419.83,378.216,417.91,380.134z"/>
	</g>
</g>
<g>
	<g>
		<path d="M272.605,153.579c-44.802,0-81.25,36.448-81.25,81.25s36.448,81.25,81.25,81.25s81.25-36.448,81.25-81.25
			S317.407,153.579,272.605,153.579z M272.605,305.923c-39.201,0-71.094-31.893-71.094-71.094s31.893-71.094,71.094-71.094
			s71.094,31.893,71.094,71.094S311.807,305.923,272.605,305.923z"/>
	</g>
</g>
<g>
	<g>
		<path d="M329.514,213.03c-4.373-11.381-11.986-21.112-22.02-28.14c-10.271-7.195-22.335-10.999-34.889-10.999
			c-2.805,0-5.078,2.274-5.078,5.078s2.273,5.078,5.078,5.078c20.871,0,39.93,13.111,47.428,32.625
			c0.775,2.019,2.7,3.258,4.741,3.258c0.605,0,1.222-0.109,1.82-0.339C329.213,218.586,330.52,215.648,329.514,213.03z"/>
	</g>
</g>
</svg>
