<?xml version="1.0" encoding="utf-8"?>
<!-- Generator: Adobe Illustrator 16.0.0, SVG Export Plug-In . SVG Version: 6.00 Build 0)  -->
<!DOCTYPE svg PUBLIC "-//W3C//DTD SVG 1.1//EN" "http://www.w3.org/Graphics/SVG/1.1/DTD/svg11.dtd">
<svg version="1.1" id="Layer_1" xmlns="http://www.w3.org/2000/svg" xmlns:xlink="http://www.w3.org/1999/xlink" x="0px" y="0px"
	 width="512px" height="512px" viewBox="0 0 512 512" enable-background="new 0 0 512 512" xml:space="preserve">
<g id="Layer_1_2_">
	<g id="Layer_1_1_">
		<g id="Layer_2" display="none">
		</g>
		<g id="shadows">
			<g opacity="0.9">
				<g>
					<path fill="#B7B7B7" d="M466.5,381.5c0,48.6-39.4,88-88,88h-246c-48.601,0-88-39.4-88-88V164.833c0-48.601,39.399-88,88-88h246
						c48.6,0,88,39.399,88,88V381.5z"/>
				</g>
			</g>
			<g>
				<g>
					<path fill="#FFFFFF" d="M466.5,360.5c0,48.6-39.4,88-88,88h-246c-48.601,0-88-39.4-88-88V143.833c0-48.601,39.399-88,88-88h246
						c48.6,0,88,39.399,88,88V360.5z"/>
				</g>
			</g>
		</g>
		
			<radialGradient id="SVGID_1_" cx="955" cy="-16.3335" r="203.7987" gradientTransform="matrix(1 0 0 -1 -700.5 238)" gradientUnits="userSpaceOnUse">
			<stop  offset="0" style="stop-color:#FFFFFF"/>
			<stop  offset="0.0773" style="stop-color:#FDE6E6"/>
			<stop  offset="0.2229" style="stop-color:#F9BCBD"/>
			<stop  offset="0.3717" style="stop-color:#F69A9A"/>
			<stop  offset="0.5224" style="stop-color:#F37F80"/>
			<stop  offset="0.6755" style="stop-color:#F16C6D"/>
			<stop  offset="0.8326" style="stop-color:#F06162"/>
			<stop  offset="1" style="stop-color:#F05D5E"/>
		</radialGradient>
		<path fill="url(#SVGID_1_)" stroke="#E2E2E2" stroke-width="7" stroke-miterlimit="10" d="M465.5,362.667c0,48.6-39.399,88-88,88
			h-246c-48.601,0-88-39.4-88-88V146c0-48.601,39.399-88,88-88h246c48.601,0,88,39.399,88,88V362.667z"/>
	</g>
</g>
<g id="Layer_3">
</g>
<g id="Layer_2_1_">
</g>
<path id="path4220" inkscape:connector-curvature="0" fill="#223656" d="M160.87,159.196h185.938v139.455h-39.844v19.923h-19.922
	v26.562h-66.406v-26.562h-19.923v-19.923H160.87V159.196z"/>
<path id="rect4144" sodipodi:nodetypes="cccccccccccccccccccc" inkscape:connector-curvature="0" fill="#F1CB6D" d="
	M187.433,159.196V192.4h13.281v-33.204H187.433z M227.277,159.196V192.4h13.282v-33.204H227.277z M267.121,159.196V192.4h13.281
	v-33.204H267.121z M306.965,159.196V192.4h13.283v-33.204H306.965z"/>
<path id="rect4201" inkscape:connector-curvature="0" fill="#95A5A6" d="M140.948,139.274v19.922v152.737v6.641h46.485v26.562
	h19.922v19.923h92.971v-19.923h19.922v-26.562h46.484v-6.641v-13.282V139.274H140.948L140.948,139.274z M160.87,159.196h185.938
	v139.455h-39.844v19.923h-19.922v26.562h-66.406v-26.562h-19.923v-19.923H160.87V159.196L160.87,159.196z"/>
<path id="path4305" sodipodi:nodetypes="cccccccccccccccccccc" inkscape:connector-curvature="0" fill="#F7DEA3" d="
	M187.433,159.196v6.641h13.281v-6.641H187.433z M227.277,159.196v6.641h13.282v-6.641H227.277z M267.121,159.196v6.641h13.281
	v-6.641H267.121z M306.965,159.196v6.641h13.283v-6.641H306.965z"/>
<path id="path4307" sodipodi:nodetypes="cccccccccccccccccccc" inkscape:connector-curvature="0" fill="#EDBC44" d="
	M187.433,185.759v6.641h13.281v-6.641H187.433z M227.277,185.759v6.641h13.282v-6.641H227.277z M267.121,185.759v6.641h13.281
	v-6.641H267.121z M306.965,185.759v6.641h13.283v-6.641H306.965z"/>
</svg>
