<?xml version="1.0" encoding="utf-8"?>
<!-- Generator: Adobe Illustrator 16.0.0, SVG Export Plug-In . SVG Version: 6.00 Build 0)  -->
<!DOCTYPE svg PUBLIC "-//W3C//DTD SVG 1.1//EN" "http://www.w3.org/Graphics/SVG/1.1/DTD/svg11.dtd">
<svg version="1.1" id="Layer_1" xmlns="http://www.w3.org/2000/svg" xmlns:xlink="http://www.w3.org/1999/xlink" x="0px" y="0px"
	 width="512px" height="512px" viewBox="0 0 512 512" enable-background="new 0 0 512 512" xml:space="preserve">
<g id="Layer_1_2_">
	<g id="Layer_1_1_">
		<g id="Layer_2" display="none">
		</g>
		<g id="shadows">
			<g opacity="0.9">
				<g>
					<path fill="#B7B7B7" d="M466.5,381.5c0,48.6-39.4,88-88,88h-246c-48.601,0-88-39.4-88-88V164.833c0-48.601,39.399-88,88-88h246
						c48.6,0,88,39.399,88,88V381.5z"/>
				</g>
			</g>
			<g>
				<g>
					<path fill="#FFFFFF" d="M466.5,360.5c0,48.6-39.4,88-88,88h-246c-48.601,0-88-39.4-88-88V143.833c0-48.601,39.399-88,88-88h246
						c48.6,0,88,39.399,88,88V360.5z"/>
				</g>
			</g>
		</g>
		
			<radialGradient id="SVGID_1_" cx="955" cy="-16.3335" r="203.7987" gradientTransform="matrix(1 0 0 -1 -700.5 238)" gradientUnits="userSpaceOnUse">
			<stop  offset="0.0753" style="stop-color:#FFFFFF"/>
			<stop  offset="0.1769" style="stop-color:#FAFCF7"/>
			<stop  offset="0.3335" style="stop-color:#ECF6E2"/>
			<stop  offset="0.5253" style="stop-color:#D5EABE"/>
			<stop  offset="0.745" style="stop-color:#B6DB8D"/>
			<stop  offset="0.9854" style="stop-color:#8EC74F"/>
			<stop  offset="0.9944" style="stop-color:#8CC64D"/>
		</radialGradient>
		<path fill="url(#SVGID_1_)" stroke="#E2E2E2" stroke-width="7" stroke-miterlimit="10" d="M465.5,362.667c0,48.6-39.399,88-88,88
			h-246c-48.601,0-88-39.4-88-88V146c0-48.601,39.399-88,88-88h246c48.601,0,88,39.399,88,88V362.667z"/>
	</g>
</g>
<g id="Layer_3">
</g>
<g id="Layer_2_1_">
</g>
<path fill="#787780" d="M292.586,124.539c0,21.023-17.063,38.086-38.086,38.086s-38.086-17.063-38.086-38.086
	c0-4.266,3.351-7.617,7.617-7.617s7.617,3.351,7.617,7.617c0,12.645,10.206,22.852,22.852,22.852
	c12.646,0,22.852-10.207,22.852-22.852c0-4.266,3.351-7.617,7.617-7.617C289.234,116.922,292.586,120.273,292.586,124.539z"/>
<g>
	<path fill="#57555C" d="M292.586,124.539c0,21.023-17.063,38.086-38.086,38.086v-15.234c12.646,0,22.852-10.207,22.852-22.852
		c0-4.266,3.351-7.617,7.617-7.617C289.234,116.922,292.586,120.273,292.586,124.539z"/>
	<path fill="#57555C" d="M292.128,191.722c-0.61,3.809-3.961,6.399-7.617,6.399h-58.804c-4.112,0.609-8.073-2.133-8.835-6.399
		c-3.809-23.308,14.167-44.332,37.628-44.332C277.961,147.391,295.937,168.414,292.128,191.722z"/>
	<path fill="#57555C" d="M174.161,234.743l-29.606-11.716c-1.756-0.691-3.184-2-4.017-3.674l-15.234-30.469
		c-1.874-3.764-0.357-8.339,3.407-10.221c3.764-1.867,8.331-0.365,10.221,3.407l13.925,27.865l26.898,10.645
		c3.913,1.547,5.832,5.973,4.285,9.886C182.467,234.416,178.007,236.288,174.161,234.743z"/>
</g>
<g>
	<path fill="#3C3A41" d="M324.961,230.465c-1.547-3.913,0.371-8.338,4.285-9.886l26.898-10.645l13.924-27.865
		c1.904-3.771,6.457-5.259,10.221-3.407c3.765,1.882,5.281,6.457,3.408,10.221l-15.234,30.469c-0.834,1.674-2.262,2.983-4.018,3.674
		l-29.605,11.716C330.993,236.288,326.533,234.416,324.961,230.465z"/>
	<path fill="#3C3A41" d="M292.128,191.722c-0.61,3.809-3.961,6.399-7.617,6.399H254.5v-50.73
		C277.961,147.391,295.937,168.414,292.128,191.722z"/>
</g>
<g>
	<path fill="#57555C" d="M288.319,347.672l-26.354-118.168c-0.763-3.505-3.961-5.941-7.465-5.941c-3.503,0-6.702,2.437-7.465,5.941
		L220.68,347.52c-0.762,3.656,1.218,7.465,4.724,8.836c9.139,3.504,19.043,5.332,29.096,5.332c9.902,0,19.652-1.676,28.945-5.181
		C287.102,355.137,289.082,351.328,288.319,347.672z"/>
	<path fill="#57555C" d="M162.586,285.516h-30.469c-4.21,0-7.617-3.407-7.617-7.617c0-4.211,3.407-7.617,7.617-7.617h30.469
		c4.21,0,7.617,3.406,7.617,7.617C170.203,282.108,166.796,285.516,162.586,285.516z"/>
</g>
<path fill="#3C3A41" d="M376.883,285.516h-30.469c-4.211,0-7.617-3.407-7.617-7.617c0-4.211,3.406-7.617,7.617-7.617h30.469
	c4.21,0,7.617,3.406,7.617,7.617C384.5,282.108,381.093,285.516,376.883,285.516z"/>
<path fill="#57555C" d="M128.71,376.118c-3.764-1.882-5.281-6.457-3.407-10.221l15.234-30.469c0.833-1.674,2.261-2.983,4.017-3.675
	l29.606-11.715c3.853-1.548,8.316,0.363,9.878,4.276c1.547,3.913-0.372,8.339-4.285,9.886l-26.897,10.645l-13.925,27.865
	C137.075,376.412,132.566,378.02,128.71,376.118z"/>
<path fill="#3C3A41" d="M370.068,372.711l-13.925-27.865l-26.898-10.645c-3.913-1.547-5.831-5.973-4.285-9.887
	c1.562-3.912,6.025-5.824,9.878-4.276l29.606,11.716c1.756,0.691,3.185,2,4.017,3.674l15.234,30.469
	c1.875,3.764,0.357,8.339-3.406,10.221C376.434,378.02,371.924,376.412,370.068,372.711z"/>
<path fill="#FD3018" d="M353.523,277.898c0,42.352-26.813,79.98-66.879,93.691c-4.265,1.523-8.836-1.066-9.903-5.484L254.5,266.93
	l-22.242,99.175c-1.067,4.571-5.792,7.009-9.903,5.485c-40.066-13.711-66.879-51.34-66.879-93.691
	c0-30.774,14.319-59.973,37.171-78.254h123.704C339.203,217.773,353.523,246.82,353.523,277.898z"/>
<path fill="#3C3A41" d="M283.445,356.507c-9.293,3.505-19.043,5.181-28.945,5.181V223.563c3.503,0,6.701,2.437,7.465,5.941
	l26.354,118.168C289.082,351.328,287.102,355.137,283.445,356.507z"/>
<path fill="#C1001F" d="M353.523,277.898c0,42.352-26.813,79.98-66.879,93.691c-4.265,1.523-8.836-1.066-9.903-5.484L254.5,266.93
	v-67.285h61.852C339.203,217.773,353.523,246.82,353.523,277.898z"/>
<path fill="#787780" d="M286.949,183.344c-10.666-3.656-21.481-5.484-32.449-5.484c-10.968,0-21.784,1.828-32.449,5.484
	c-10.817,3.656-21.786,9.75-29.403,16.301c11.121,23.46,35.04,39.152,61.853,39.152c27.27,0,50.884-15.843,61.852-39.152
	C307.82,192.789,297.461,186.848,286.949,183.344z"/>
<path fill="#57555C" d="M316.352,199.645c-10.968,23.309-34.582,39.152-61.852,39.152v-60.938c10.968,0,21.783,1.828,32.449,5.484
	C297.461,186.848,307.82,192.789,316.352,199.645z"/>
<circle fill="#3C3A41" cx="300.203" cy="262.664" r="7.617"/>
<circle fill="#57555C" cx="208.797" cy="262.664" r="7.617"/>
<path fill="#3C3A41" d="M307.82,315.984c-8.406,0-15.234-6.836-15.234-15.234s6.828-15.234,15.234-15.234
	c8.405,0,15.234,6.836,15.234,15.234S316.226,315.984,307.82,315.984z"/>
<path fill="#57555C" d="M201.18,315.984c-8.406,0-15.234-6.836-15.234-15.234s6.829-15.234,15.234-15.234
	s15.234,6.836,15.234,15.234S209.585,315.984,201.18,315.984z"/>
</svg>
