<?xml version="1.0" encoding="utf-8"?>
<!-- Generator: Adobe Illustrator 16.0.0, SVG Export Plug-In . SVG Version: 6.00 Build 0)  -->
<!DOCTYPE svg PUBLIC "-//W3C//DTD SVG 1.1//EN" "http://www.w3.org/Graphics/SVG/1.1/DTD/svg11.dtd">
<svg version="1.1" id="Layer_1" xmlns="http://www.w3.org/2000/svg" xmlns:xlink="http://www.w3.org/1999/xlink" x="0px" y="0px"
	 width="512px" height="512px" viewBox="0 0 512 512" enable-background="new 0 0 512 512" xml:space="preserve">
<g id="Layer_1_1_">
	<g id="Layer_2" display="none">
	</g>
	<g id="shadows">
		<g opacity="0.9">
			<g>
				<path fill="#B7B7B7" d="M466.5,381.5c0,48.6-39.4,88-88,88h-246c-48.602,0-88-39.4-88-88V164.833c0-48.601,39.398-88,88-88h246
					c48.6,0,88,39.399,88,88V381.5z"/>
			</g>
		</g>
		<g>
			<g>
				<path fill="#FFFFFF" d="M466.5,360.5c0,48.6-39.4,88-88,88h-246c-48.602,0-88-39.4-88-88V143.833c0-48.601,39.398-88,88-88h246
					c48.6,0,88,39.399,88,88V360.5z"/>
			</g>
		</g>
	</g>
	<linearGradient id="SVGID_1_" gradientUnits="userSpaceOnUse" x1="43.5002" y1="254.3335" x2="465.5002" y2="254.3335">
		<stop  offset="0.0056" style="stop-color:#EC7D4C"/>
		<stop  offset="0.8017" style="stop-color:#F6B744"/>
		<stop  offset="1" style="stop-color:#F8C642"/>
	</linearGradient>
	<path fill="url(#SVGID_1_)" stroke="#E2E2E2" stroke-width="10" stroke-miterlimit="10" d="M465.5,362.667c0,48.6-39.399,88-88,88
		h-246c-48.602,0-88-39.4-88-88V146c0-48.601,39.398-88,88-88h246c48.601,0,88,39.399,88,88V362.667z"/>
</g>
<g display="none">
	<g display="inline">
		<path d="M266.296,126.4c-39.957,31.146-40.933,84.425-41.79,131.438c-0.733,40.163-1.426,78.089-24.349,95.957
			c-23.827,18.573-57.543,5.488-71.229-12.066c-12.687-16.277-15.079-52.44,10.073-72.047c24.405-19.023,52.347-9.402,53.768-8.899
			c8.943,3.315,18.905-1.216,22.28-10.151c3.395-8.975-1.131-19-10.109-22.393c-1.9-0.716-47.124-17.276-87.3,14.042
			c-40.429,31.514-40.94,88.966-16.116,120.812c25.604,32.848,81.183,48.364,119.993,18.111
			c35.994-28.059,36.876-76.188,37.726-122.729c0.791-43.048,1.536-83.716,28.414-104.667c15.993-12.467,30.728-15.233,45.034-8.463
			c12.408,5.88,20.938,16.83,23.889,20.625c1.696,2.175,9.052,13.977,11.386,27.949c2.655,15.917-1.896,27.838-14.344,37.542
			c-25.064,19.538-51.307,13.8-61.188,11.637c-2.571-0.562-4.421-0.969-6.549-1.065c-9.571-0.443-17.711,6.963-18.158,16.551
			c-0.43,9.248,6.454,17.133,15.53,18.078c0.467,0.086,1.053,0.225,1.743,0.379c12.88,2.816,52.047,11.387,89.972-18.178
			c46.094-35.929,25.968-92.493,8.862-114.437c-10.892-13.979-23.09-24.235-36.281-30.481
			C329.038,105.171,299.899,100.207,266.296,126.4z"/>
	</g>
</g>
<path display="none" fill="#FFFFFF" d="M286.406,197.597l19.762,2.313l3.371-28.811c-3.364-0.792-14.985-3.047-28.64-4.644
	c-62.518-7.314-52.441,53.945-55.947,62.335l-31.449-3.679l-3.767,32.209l31.439,3.678l-9.481,81.043l38.545,4.511l9.482-81.037
	l30.17,3.53l8.558-31.648l-34.97-4.09C267.671,212.183,261.049,194.631,286.406,197.597L286.406,197.597z"/>
<g id="layer1" transform="translate(0,-924.3622)" inkscape:label="Capa 1" inkscape:groupmode="layer">
	<g id="text6661" transform="translate(-631.5516,396.70229)">
	</g>
	<path id="path2999" fill="#FFCC00" d="M318.112,1043.898c-1.968,0-3.761,0.129-5.758,0.528
		c-13.871,2.698-24.623,13.285-27.474,26.951c-1.114,5.337-2.476,9.512-4.186,12.82c-1.455,2.813-7.606,8.849-11.252,10.99
		c-5.636,3.309-13.735,5.169-17.007,3.925c-12.628-2.82-24.471-1.138-37.417-0.527c-6.33,0.099-8.625-1.353-11.513-6.279
		c-1.467-2.506-1.831-3.958-1.831-8.374c0-6.395-1.74-10.949-5.495-14.391c-10-9.161-26.109-1.65-26.165,12.036
		c-1.033,7.125,2.935,11.375,8.896,14.391c5.201,2.738,8.019,5.81,9.158,10.204c0.866,3.34,0.666,3.917-0.523,6.542
		c-0.725,1.598-1.875,3.669-2.617,4.449c-6.801,7.148-13.595,18.493-15.96,26.427c-2.076,6.962-3.233,17.01-2.879,24.857
		c0.333,7.353,0.148,7.549-2.093,11.25c-4.994,7.091-15.814,10.179-20.671,8.897c-4.208-1.122-10.705-0.688-12.036-0.261
		c-4.691,1.334-8.908,4.123-12.298,6.804c-7.626,7.771-9.027,18.611-3.664,28.259c3.189,5.734,7.936,9.089,15.7,11.511
		c5.503,1.719,12.532,0.379,18.578-3.398c3.283-2.055,3.669-2.359,7.85-8.636c5.229-7.856,10.432-11.07,18.839-11.774
		c6.022-0.506,10.099,0.776,14.914,4.709c4.032,3.297,12.689,8.08,18.054,9.943c7.489,2.598,13.713,3.607,26.427,3.924
		c10.32,0.26,13.251,0.617,16.747,1.834c6.471,2.255,13.218,6.731,17.267,11.252c4.463,4.974,8.864,13.692,9.945,19.884
		c2.528,14.509,7.645,23.503,18.313,31.924c4.246,3.348,7.951,5.421,13.086,7.063c3.577,1.144,6.189,1.214,15.437,1.046
		c12.393-0.229,15.459-0.976,22.504-5.231c4.661-2.823,12.807-10.208,14.391-13.083c6.537-11.881,7.848-16.298,7.848-25.906
		c0-4.716-0.311-8.887-1.046-11.511c-5.152-18.418-18.345-30.581-37.417-34.278c-6.632-1.284-8.838-1.879-13.081-3.927
		c-9.898-4.768-18.935-16.266-21.456-27.209c-0.506-2.193-0.982-11.703-1.047-24.858c-0.085-17.36,0.174-21.667,1.047-24.072
		c4.086-11.263,12.957-18.917,24.596-20.933c11.161-1.931,20.178-7.982,25.119-17.007c3.198-5.845,3.926-7.946,4.447-14.391
		C353.963,1060.72,337.114,1043.789,318.112,1043.898z"/>
	<path id="path2997" fill="#FFFFFF" d="M230.194,1117.946c12.626-0.109,22.606,3.92,31.921,12.821
		c4.75,4.538,6.222,6.54,8.897,12.037c1.752,3.606,3.203,7.616,3.4,8.896c0.199,1.281,0.747,3.596,1.047,5.233
		c1.063,5.776-0.227,16.711-2.616,22.765c-5.127,12.986-16.494,23.164-30.09,27.212c-7.213,2.148-18.697,2.05-25.905-0.261
		c-5.081-1.626-12.288-5.823-16.222-9.419c-15.202-13.894-19.777-36.306-10.728-54.162
		C197.767,1127.545,213.074,1118.089,230.194,1117.946z"/>
	<path id="path933" fill-opacity="0.498" d="M229.671,1135.214c-7.526,0.1-14.479,3.479-20.147,9.682
		c-4.899,5.36-6.506,10.198-6.542,18.316c-0.022,5.023,0.295,7.258,1.57,10.465c1.972,4.959,7.369,11.039,12.298,13.867
		c6.04,3.466,13.567,2.719,18.055-2.093c1.878-2.014,3.984-6.907,3.401-7.848c-0.229-0.37-2.883-0.529-5.755-0.529
		c-2.874,0-6.23-0.377-7.328-0.785c-4.619-1.748-8.604-7.938-8.634-13.084c-0.056-9.758,10.429-16.588,19.363-12.821
		c2.886,1.217,6.56,4.862,7.586,7.589c0.434,1.148,0.787,7.705,0.787,15.437v13.343h1.57c2.574,0,7.155-2.329,9.158-4.708
		c3.024-3.598,3.497-6.358,3.14-16.224c-0.4-10.985-1.914-15.295-7.066-20.931c-4.188-4.583-8.037-7.184-13.605-8.634
		C234.902,1135.559,232.179,1135.188,229.671,1135.214L229.671,1135.214z"/>
</g>
</svg>
