<?xml version="1.0" encoding="utf-8"?>
<!-- Generator: Adobe Illustrator 16.0.0, SVG Export Plug-In . SVG Version: 6.00 Build 0)  -->
<!DOCTYPE svg PUBLIC "-//W3C//DTD SVG 1.1//EN" "http://www.w3.org/Graphics/SVG/1.1/DTD/svg11.dtd">
<svg version="1.1" id="Layer_1" xmlns="http://www.w3.org/2000/svg" xmlns:xlink="http://www.w3.org/1999/xlink" x="0px" y="0px"
	 width="512px" height="512px" viewBox="0 0 512 512" enable-background="new 0 0 512 512" xml:space="preserve">
<g id="Layer_1_1_">
	<g id="Layer_2" display="none">
	</g>
	<g id="shadows">
		<g opacity="0.9">
			<g>
				<path fill="#B7B7B7" d="M466.5,381.5c0,48.6-39.4,88-88,88h-246c-48.603,0-88-39.4-88-88V164.833c0-48.601,39.397-88,88-88h246
					c48.6,0,88,39.399,88,88V381.5z"/>
			</g>
		</g>
		<g>
			<g>
				<path fill="#FFFFFF" d="M466.5,360.5c0,48.6-39.4,88-88,88h-246c-48.603,0-88-39.4-88-88V143.833c0-48.601,39.397-88,88-88h246
					c48.6,0,88,39.399,88,88V360.5z"/>
			</g>
		</g>
	</g>
	<linearGradient id="SVGID_1_" gradientUnits="userSpaceOnUse" x1="43.5002" y1="254.3335" x2="465.5002" y2="254.3335">
		<stop  offset="0" style="stop-color:#F37E5F"/>
		<stop  offset="0.5" style="stop-color:#EC1C24"/>
		<stop  offset="1" style="stop-color:#CF232A"/>
	</linearGradient>
	<path fill="url(#SVGID_1_)" stroke="#E2E2E2" stroke-width="10" stroke-miterlimit="10" d="M465.5,362.667c0,48.6-39.399,88-88,88
		h-246c-48.603,0-88-39.4-88-88V146c0-48.601,39.397-88,88-88h246c48.601,0,88,39.399,88,88V362.667z"/>
</g>
<rect x="180.34" y="147.472" fill="#FFFFFF" width="148.323" height="230.724"/>
<path fill="#F44336" d="M292.059,256.935l-52.737-26.369c-3.255-1.629-7.215-0.311-8.845,2.945
	c-0.459,0.917-0.697,1.929-0.697,2.954v52.736c-0.002,3.642,2.948,6.595,6.588,6.598c1.026,0,2.038-0.237,2.954-0.696l52.737-26.367
	c3.26-1.626,4.584-5.584,2.959-8.842C294.38,258.611,293.34,257.572,292.059,256.935L292.059,256.935z"/>
<path d="M369.863,394.676H139.139c-9.102,0-16.48-7.378-16.48-16.48V147.472c0-9.102,7.378-16.48,16.48-16.48h230.724
	c9.102,0,16.479,7.379,16.479,16.48v230.724C386.342,387.298,378.964,394.676,369.863,394.676z M139.139,147.472v230.724h230.724
	V147.472H139.139z"/>
<path d="M180.34,394.676c-4.551,0-8.24-3.689-8.24-8.24V139.231c0-4.551,3.689-8.24,8.24-8.24c4.551,0,8.24,3.689,8.24,8.24v247.204
	C188.579,390.986,184.89,394.676,180.34,394.676z"/>
<path d="M328.662,394.676c-4.553,0-8.24-3.689-8.24-8.24V139.231c0-4.551,3.688-8.24,8.24-8.24c4.551,0,8.24,3.689,8.24,8.24
	v247.204C336.903,390.986,333.213,394.676,328.662,394.676z"/>
<path d="M180.34,196.913h-49.441c-4.551,0-8.24-3.689-8.24-8.24c0-4.551,3.689-8.24,8.24-8.24h49.441c4.551,0,8.24,3.689,8.24,8.24
	C188.579,193.223,184.89,196.913,180.34,196.913z"/>
<path d="M180.34,246.354h-49.441c-4.551,0-8.24-3.689-8.24-8.24c0-4.551,3.689-8.24,8.24-8.24h49.441c4.551,0,8.24,3.689,8.24,8.24
	C188.579,242.664,184.89,246.354,180.34,246.354z"/>
<path d="M180.34,295.794h-49.441c-4.551,0-8.24-3.688-8.24-8.24s3.689-8.24,8.24-8.24h49.441c4.551,0,8.24,3.688,8.24,8.24
	S184.89,295.794,180.34,295.794z"/>
<path d="M180.34,345.235h-49.441c-4.551,0-8.24-3.689-8.24-8.24c0-4.553,3.689-8.24,8.24-8.24h49.441c4.551,0,8.24,3.688,8.24,8.24
	C188.579,341.546,184.89,345.235,180.34,345.235z"/>
<path d="M378.103,196.913h-49.44c-4.553,0-8.24-3.689-8.24-8.24c0-4.551,3.688-8.24,8.24-8.24h49.44c4.551,0,8.239,3.689,8.239,8.24
	C386.342,193.223,382.654,196.913,378.103,196.913z"/>
<path d="M378.103,246.354h-49.44c-4.553,0-8.24-3.689-8.24-8.24c0-4.551,3.688-8.24,8.24-8.24h49.44c4.551,0,8.239,3.689,8.239,8.24
	C386.342,242.664,382.654,246.354,378.103,246.354z"/>
<path d="M378.103,295.794h-49.44c-4.553,0-8.24-3.688-8.24-8.24s3.688-8.24,8.24-8.24h49.44c4.551,0,8.239,3.688,8.239,8.24
	S382.654,295.794,378.103,295.794z"/>
<path d="M378.103,345.235h-49.44c-4.553,0-8.24-3.689-8.24-8.24c0-4.553,3.688-8.24,8.24-8.24h49.44c4.551,0,8.239,3.688,8.239,8.24
	C386.342,341.546,382.654,345.235,378.103,345.235z"/>
<path d="M229.78,304.034c-1.53-0.001-3.031-0.428-4.333-1.236c-2.427-1.501-3.905-4.15-3.907-7.004v-65.921
	c0-4.551,3.69-8.24,8.242-8.24c1.281,0,2.545,0.299,3.69,0.873l65.921,32.961c4.067,2.039,5.713,6.99,3.675,11.059
	c-0.796,1.589-2.085,2.877-3.675,3.674l-65.921,32.96C232.324,303.731,231.061,304.029,229.78,304.034z M238.02,243.206v39.255
	l39.256-19.627L238.02,243.206z"/>
</svg>
