<?xml version="1.0" encoding="utf-8"?>
<!-- Generator: Adobe Illustrator 16.0.0, SVG Export Plug-In . SVG Version: 6.00 Build 0)  -->
<!DOCTYPE svg PUBLIC "-//W3C//DTD SVG 1.1//EN" "http://www.w3.org/Graphics/SVG/1.1/DTD/svg11.dtd">
<svg version="1.1" id="Layer_1" xmlns="http://www.w3.org/2000/svg" xmlns:xlink="http://www.w3.org/1999/xlink" x="0px" y="0px"
	 width="512px" height="512px" viewBox="0 0 512 512" enable-background="new 0 0 512 512" xml:space="preserve">
<g id="Layer_1_1_">
	<g id="Layer_2" display="none">
	</g>
	<g id="shadows">
		<g opacity="0.9">
			<g>
				<path fill="#B7B7B7" d="M466.5,381.5c0,48.6-39.4,88-88,88h-246c-48.602,0-88-39.4-88-88V164.833c0-48.601,39.398-88,88-88h246
					c48.6,0,88,39.399,88,88V381.5z"/>
			</g>
		</g>
		<g>
			<g>
				<path fill="#FFFFFF" d="M466.5,360.5c0,48.6-39.4,88-88,88h-246c-48.602,0-88-39.4-88-88V143.833c0-48.601,39.398-88,88-88h246
					c48.6,0,88,39.399,88,88V360.5z"/>
			</g>
		</g>
	</g>
	
		<radialGradient id="SVGID_1_" cx="262.8596" cy="-555.2788" r="203.7987" gradientTransform="matrix(1 0 0 -1 -8.3599 -300.9453)" gradientUnits="userSpaceOnUse">
		<stop  offset="0" style="stop-color:#B07EB7"/>
		<stop  offset="0.5" style="stop-color:#8C3D96"/>
		<stop  offset="1" style="stop-color:#762A90"/>
	</radialGradient>
	<path fill="url(#SVGID_1_)" stroke="#E2E2E2" stroke-width="10" stroke-miterlimit="10" d="M465.5,362.667c0,48.6-39.399,88-88,88
		h-246c-48.602,0-88-39.4-88-88V146c0-48.601,39.398-88,88-88h246c48.601,0,88,39.399,88,88V362.667z"/>
</g>
<g>
	<path fill="#3AAAFF" d="M379.168,193.881L321.86,179.18l-87.026,71.496l-69.302,57.019l-3.663,14.16
		c-0.982,3.781,1.286,7.666,5.1,8.652l67.866,17.421l97.683,25.252c3.685,0.985,7.653-1.228,8.651-5.099l43.1-165.55
		C385.247,198.739,382.974,194.866,379.168,193.881L379.168,193.881z"/>
	<path fill="#6B77E8" d="M341.167,368.082l43.1-165.549c0.98-3.794-1.293-7.667-5.1-8.651L321.86,179.18l-87.027,71.496v97.251
		l97.683,25.252C336.201,374.166,340.17,371.953,341.167,368.082L341.167,368.082z"/>
	<path fill="#F0F7FF" d="M320.084,130.92h-85.251H149.11c-3.927,0-7.104,3.178-7.104,7.104v171.449c0,3.926,3.178,7.104,7.104,7.104
		h85.724h85.251c3.926,0,7.104-3.178,7.104-7.104V138.024C327.188,134.098,324.01,130.92,320.084,130.92z"/>
	<path fill="#DFE7F4" d="M327.188,309.473V138.024c0-3.926-3.178-7.104-7.104-7.104h-85.251v185.656h85.251
		C324.01,316.576,327.188,313.398,327.188,309.473z"/>
	<circle fill="#FE8205" cx="234.833" cy="181.123" r="21.313"/>
	<path fill="#FA5D0F" d="M256.146,181.123c0-11.752-9.56-21.313-21.313-21.313v42.625
		C246.586,202.436,256.146,192.875,256.146,181.123z"/>
	<g>
		<path fill="#DFE7F4" d="M192.208,245.061h42.625h42.625c3.927,0,7.104-3.177,7.104-7.104s-3.178-7.104-7.104-7.104h-42.625
			h-42.625c-3.927,0-7.104,3.177-7.104,7.104S188.281,245.061,192.208,245.061z"/>
		<path fill="#DFE7F4" d="M277.458,259.27h-42.625h-42.625c-3.927,0-7.104,3.177-7.104,7.104s3.178,7.104,7.104,7.104h42.625h42.625
			c3.927,0,7.104-3.178,7.104-7.104S281.385,259.27,277.458,259.27z"/>
	</g>
	<g>
		<path fill="#C7CFE1" d="M284.563,237.957c0-3.927-3.178-7.104-7.104-7.104h-42.625v14.208h42.625
			C281.385,245.061,284.563,241.883,284.563,237.957z"/>
		<path fill="#C7CFE1" d="M284.563,266.373c0-3.927-3.178-7.104-7.104-7.104h-42.625v14.208h42.625
			C281.385,273.478,284.563,270.3,284.563,266.373z"/>
	</g>
</g>
</svg>
