<?xml version="1.0" encoding="utf-8"?>
<!-- Generator: Adobe Illustrator 16.0.0, SVG Export Plug-In . SVG Version: 6.00 Build 0)  -->
<!DOCTYPE svg PUBLIC "-//W3C//DTD SVG 1.1//EN" "http://www.w3.org/Graphics/SVG/1.1/DTD/svg11.dtd">
<svg version="1.1" id="Layer_1" xmlns="http://www.w3.org/2000/svg" xmlns:xlink="http://www.w3.org/1999/xlink" x="0px" y="0px"
	 width="512px" height="512px" viewBox="0 0 512 512" enable-background="new 0 0 512 512" xml:space="preserve">
<g id="Layer_1_1_">
	<g id="Layer_2" display="none">
	</g>
	<g id="shadows">
		<g opacity="0.9">
			<g>
				<path fill="#B7B7B7" d="M466,392c0,48.6-39.4,88-88,88H132c-48.602,0-88-39.4-88-88V175.333c0-48.601,39.398-88,88-88h246
					c48.6,0,88,39.399,88,88V392z"/>
			</g>
		</g>
		<g>
			<g>
				<path fill="#FFFFFF" d="M466,371c0,48.6-39.4,88-88,88H132c-48.602,0-88-39.4-88-88V154.333c0-48.601,39.398-88,88-88h246
					c48.6,0,88,39.399,88,88V371z"/>
			</g>
		</g>
	</g>
	
		<radialGradient id="SVGID_1_" cx="262.3596" cy="-565.7788" r="203.7987" gradientTransform="matrix(1 0 0 -1 -8.3599 -300.9453)" gradientUnits="userSpaceOnUse">
		<stop  offset="0" style="stop-color:#FFE7A3"/>
		<stop  offset="0.5" style="stop-color:#FFCA05"/>
		<stop  offset="1" style="stop-color:#FAAC18"/>
	</radialGradient>
	<path fill="url(#SVGID_1_)" stroke="#E2E2E2" stroke-width="10" stroke-miterlimit="10" d="M465,373.167c0,48.6-39.399,88-88,88
		H131c-48.602,0-88-39.4-88-88V156.5c0-48.601,39.398-88,88-88h246c48.601,0,88,39.399,88,88V373.167z"/>
</g>
<g>
	<path fill="#FEE158" d="M394.838,262.666c0,37.619-14.65,72.988-41.25,99.588c-26.601,26.6-61.97,41.25-99.587,41.25
		c-37.62,0-72.989-14.65-99.589-41.25c-26.6-26.6-41.25-61.969-41.25-99.588c0-37.619,14.65-72.988,41.25-99.587
		c26.6-26.6,61.969-41.25,99.589-41.25c37.617,0,72.986,14.65,99.587,41.25C380.188,189.678,394.838,225.047,394.838,262.666z"/>
	<path fill="#FFB528" d="M394.838,262.666c0,37.619-14.65,72.988-41.25,99.588c-26.601,26.6-61.97,41.25-99.587,41.25V121.829
		c37.617,0,72.986,14.65,99.587,41.25C380.188,189.678,394.838,225.047,394.838,262.666z"/>
	<circle fill="#FFB528" cx="254.001" cy="262.667" r="111.13"/>
	<path fill="#FE8C01" d="M365.131,262.666c0,61.273-49.856,111.131-111.13,111.131V151.536
		C315.275,151.536,365.131,201.391,365.131,262.666z"/>
	<path fill="#FEE158" d="M296.224,260.949c-1.85-1.848-3.861-3.466-6.002-4.852c5.054-5.672,8.142-13.143,8.142-21.329
		c0-8.539-3.345-16.593-9.412-22.661c-6.074-6.075-14.121-9.419-22.666-9.419h-4.031v-15.943h-16.507v15.943h-36.331v16.505h13.479
		v86.945h-13.479v16.504h36.331v15.943h16.507v-15.943h8.432c19.933,0,36.151-16.217,36.151-36.15
		C306.837,276.865,303.069,267.793,296.224,260.949L296.224,260.949z M239.399,219.194h26.887c4.137,0,8.037,1.627,10.991,4.583
		c2.955,2.954,4.582,6.859,4.582,10.992c0,8.504-6.849,15.437-15.32,15.568h-27.14V219.194z M270.686,306.139h-31.287v-39.286
		l14.603-0.005l16.685-0.006c5.216,0,10.146,2.053,13.868,5.783c3.725,3.725,5.778,8.646,5.778,13.867
		C290.332,297.326,281.519,306.139,270.686,306.139L270.686,306.139z"/>
	<path fill="#FFB528" d="M306.837,286.492c0,19.934-16.219,36.15-36.151,36.15h-8.432v15.943h-8.253v-32.447h16.685
		c10.833,0,19.646-8.813,19.646-19.646c0-5.221-2.054-10.143-5.778-13.867c-3.723-3.73-8.652-5.783-13.868-5.783l-16.685,0.006
		v-16.511h12.537c8.472-0.131,15.32-7.064,15.32-15.568c0-4.132-1.627-8.038-4.582-10.992c-2.954-2.956-6.854-4.583-10.991-4.583
		h-12.284v-32.448h8.253v15.943h4.031c8.545,0,16.592,3.345,22.666,9.419c6.067,6.068,9.412,14.122,9.412,22.661
		c0,8.186-3.088,15.656-8.142,21.329c2.141,1.386,4.152,3.004,6.002,4.852C303.069,267.793,306.837,276.865,306.837,286.492
		L306.837,286.492z"/>
</g>
</svg>
