<?xml version="1.0" encoding="utf-8"?>
<!-- Generator: Adobe Illustrator 16.0.0, SVG Export Plug-In . SVG Version: 6.00 Build 0)  -->
<!DOCTYPE svg PUBLIC "-//W3C//DTD SVG 1.1//EN" "http://www.w3.org/Graphics/SVG/1.1/DTD/svg11.dtd">
<svg version="1.1" id="Layer_1" xmlns="http://www.w3.org/2000/svg" xmlns:xlink="http://www.w3.org/1999/xlink" x="0px" y="0px"
	 width="512px" height="512px" viewBox="0 0 512 512" enable-background="new 0 0 512 512" xml:space="preserve">
<g id="Layer_1_1_">
	<g id="Layer_2" display="none">
	</g>
	<g id="shadows">
		<g opacity="0.9">
			<g>
				<path fill="#B7B7B7" d="M466.5,381.5c0,48.6-39.4,88-88,88h-246c-48.602,0-88-39.4-88-88V164.833c0-48.601,39.398-88,88-88h246
					c48.6,0,88,39.399,88,88V381.5z"/>
			</g>
		</g>
		<g>
			<g>
				<path fill="#FFFFFF" d="M466.5,360.5c0,48.6-39.4,88-88,88h-246c-48.602,0-88-39.4-88-88V143.833c0-48.601,39.398-88,88-88h246
					c48.6,0,88,39.399,88,88V360.5z"/>
			</g>
		</g>
	</g>
	
		<radialGradient id="SVGID_1_" cx="262.8596" cy="-555.2788" r="203.7987" gradientTransform="matrix(1 0 0 -1 -8.3599 -300.9453)" gradientUnits="userSpaceOnUse">
		<stop  offset="0" style="stop-color:#64C08A"/>
		<stop  offset="0.5" style="stop-color:#00A550"/>
		<stop  offset="1" style="stop-color:#00914C"/>
	</radialGradient>
	<path fill="url(#SVGID_1_)" stroke="#E2E2E2" stroke-width="10" stroke-miterlimit="10" d="M465.5,362.667c0,48.6-39.399,88-88,88
		h-246c-48.602,0-88-39.4-88-88V146c0-48.601,39.398-88,88-88h246c48.601,0,88,39.399,88,88V362.667z"/>
</g>
<path id="path9" inkscape:connector-curvature="0" fill-opacity="0" d="M118.795,183.178h193.937v210.111H118.795V183.178z"/>
<sodipodi:namedview  borderlayer="true" borderopacity="1" gridtolerance="10" guidetolerance="10" objecttolerance="10" bordercolor="#666666" pagecolor="#ffffff" showgrid="false" inkscape:cx="155.38428" inkscape:cy="159.71159" inkscape:zoom="0.57452426" id="namedview14" inkscape:current-layer="svg2" inkscape:window-maximized="1" inkscape:window-y="25" inkscape:window-x="0" inkscape:pageopacity="0" inkscape:window-height="717" inkscape:window-width="1360" inkscape:pageshadow="2" inkscape:document-units="px" inkscape:snap-global="false" inkscape:showpageshadow="false">
	</sodipodi:namedview>
<path id="path4198" inkscape:connector-curvature="0" sodipodi:nodetypes="sccccscccsccscccsccsccscssscscccs" fill="#EB915F" d="
	M206.709,126.282c-8.361-0.127-16.832,3.265-20.546,10.963c-0.004,0.007,0.003,0.02,0,0.027l-1.299,2.653c0,0.009,0,0.018,0,0.027
	c-2.97,6.177-1.818,13.189,1.435,18.84s8.579,10.429,15.321,13.671l22.468,10.801l-98.021,13.562
	c-7.411,1.025-13.935,3.95-18.759,8.337c-4.824,4.388-8.085,10.726-7.146,17.514l0.406,2.951
	c0.938,6.787,5.781,12.003,11.613,14.916c5.833,2.913,12.92,3.949,20.33,2.924l56.496-7.796l-76.148,85.541
	c-4.975,5.589-8.058,12.075-8.878,18.544c-0.821,6.467,0.812,13.365,5.928,17.92l2.22,1.976c5.119,4.557,12.184,5.409,18.516,3.844
	c6.332-1.564,12.403-5.372,17.379-10.963l39.874-44.801c5.464,20.01,16.782,38.365,32.538,52.028
	c19.122,16.582,44.2,25.932,69.57,25.96c13.88-0.002,27.726-2.734,40.551-8.012c12.825-5.278,24.56-13.065,34.379-22.82
	s17.667-21.439,22.982-34.19c5.315-12.75,8.069-26.504,8.067-40.307c-0.025-16.995-4.237-33.911-12.209-48.942
	c-5.758-10.858-13.463-20.652-22.605-28.881c-6.683-6.158-14.213-10.778-21.435-15.058c-36.33-21.499-79.298-38.961-117.73-57.438
	C216.967,127.649,211.751,126.358,206.709,126.282z"/>
<path id="path3772" sodipodi:type="arc" sodipodi:cx="329.8381" sodipodi:ry="84.417671" sodipodi:rx="84.417671" sodipodi:cy="323.1481" fill="#FFFFFF" fill-opacity="0.1524" d="
	M354.169,287.782c0.003,35.39-28.685,64.082-64.074,64.085c-35.39,0.003-64.082-28.684-64.084-64.074c0-0.003,0-0.007,0-0.011
	c-0.003-35.39,28.684-64.082,64.074-64.084c35.391-0.003,64.082,28.684,64.085,64.074
	C354.169,287.774,354.169,287.778,354.169,287.782z"/>
<path id="path3761" sodipodi:type="arc" sodipodi:cx="329.8381" sodipodi:ry="84.417671" sodipodi:rx="84.417671" sodipodi:cy="323.1481" fill="#C56650" d="
	M354.169,284.013c0.003,35.391-28.685,64.082-64.074,64.085c-35.39,0.004-64.082-28.684-64.084-64.073c0-0.004,0-0.008,0-0.012
	c-0.003-35.39,28.684-64.082,64.074-64.085c35.391-0.003,64.082,28.685,64.085,64.074
	C354.169,284.006,354.169,284.009,354.169,284.013z"/>
<path id="path3767" inkscape:connector-curvature="0" fill-opacity="0.1238" d="M290.084,219.944
	c-35.39,0-64.075,28.685-64.075,64.074c0,1.779,0.075,3.537,0.217,5.279c2.686-32.92,30.246-58.823,63.858-58.823
	c33.611,0,61.173,25.903,63.858,58.823c0.142-1.742,0.217-3.5,0.217-5.279C354.159,248.629,325.475,219.944,290.084,219.944z"/>
<path id="path3776" inkscape:connector-curvature="0" sodipodi:nodetypes="scccccccccscccsccscccsccsccsccccccscscc" fill="#FFFFFF" fill-opacity="0.1" d="
	M206.709,126.282c-8.361-0.127-16.832,3.265-20.546,10.963c-0.004,0.007,0.003,0.02,0,0.027l-1.299,2.653c0,0.009,0,0.018,0,0.027
	c-1.56,3.242-1.991,6.712-1.57,10.097c0.232-1.798,0.745-3.589,1.57-5.306c0-0.009,0-0.018,0-0.027l1.299-2.653
	c0.003-0.007-0.004-0.02,0-0.027c3.714-7.699,12.185-11.091,20.546-10.964c5.042,0.077,10.258,1.368,15.294,3.79
	c38.433,18.478,81.398,35.944,117.728,57.442c7.222,4.28,14.757,8.893,21.439,15.051c9.143,8.229,16.846,18.025,22.604,28.883
	c7.627,14.382,11.813,30.501,12.182,46.751c0.021-0.863,0.027-1.736,0.027-2.6c-0.025-16.995-4.237-33.911-12.209-48.942
	c-5.758-10.858-13.461-20.655-22.604-28.884c-6.682-6.158-14.218-10.771-21.439-15.051c-36.329-21.499-79.295-38.965-117.728-57.443
	C216.967,127.649,211.751,126.358,206.709,126.282z M224.261,183.122l-98.194,13.705c-7.411,1.025-13.935,3.95-18.759,8.337
	c-4.824,4.388-8.085,10.726-7.146,17.514l0.027,0.108c0.679-4.97,3.428-9.474,7.12-12.832c4.824-4.388,11.348-7.312,18.759-8.337
	l104.617-15.541L224.261,183.122z M193.622,234.621l-4.589,0.865l-76.176,85.727c-4.975,5.589-8.058,12.075-8.878,18.544
	c-0.231,1.823-0.263,3.692-0.081,5.522c0.023-0.244,0.05-0.489,0.081-0.731c0.821-6.468,3.904-12.954,8.878-18.544L193.622,234.621z
	"/>
<path id="path3781" inkscape:connector-curvature="0" fill-opacity="0.0381" d="M183.212,146.043
	c-0.37,4.415,0.872,8.904,3.086,12.75c3.253,5.651,8.579,10.429,15.321,13.671l17.623,8.473l4.846-0.677l-22.468-10.801
	c-6.742-3.242-12.068-8.02-15.321-13.671C184.586,152.813,183.465,149.452,183.212,146.043L183.212,146.043z M100.08,218.808
	c-0.113,1.266-0.1,2.56,0.082,3.871l0.406,2.951c0.938,6.787,5.781,12.003,11.613,14.916c5.833,2.913,12.92,3.949,20.33,2.924
	l53.437-7.363l3.059-3.438l-56.496,7.796c-7.41,1.025-14.497-0.011-20.33-2.924c-5.832-2.912-10.674-8.129-11.613-14.915
	l-0.406-2.951C100.121,219.385,100.105,219.094,100.08,218.808z M395.955,279.228c-0.233,13.18-2.963,26.287-8.04,38.467
	c-5.315,12.75-13.163,24.434-22.982,34.189c-9.819,9.755-21.554,17.542-34.379,22.819c-12.825,5.278-26.671,8.012-40.551,8.014
	c-25.37-0.029-50.448-9.379-69.57-25.961c-15.756-13.664-27.074-32.018-32.538-52.028l-39.874,44.801
	c-4.977,5.591-11.047,9.399-17.379,10.964c-6.332,1.563-13.397,0.712-18.516-3.844l-2.22-1.977
	c-3.922-3.491-5.799-8.376-6.09-13.373c-0.392,6.003,1.38,12.185,6.09,16.378l2.22,1.976c5.119,4.557,12.184,5.409,18.516,3.844
	c6.332-1.564,12.403-5.372,17.379-10.963l39.874-44.801c5.464,20.01,16.782,38.365,32.538,52.028
	c19.122,16.582,44.2,25.932,69.57,25.96c13.88-0.002,27.726-2.734,40.551-8.012c12.825-5.278,24.56-13.065,34.379-22.82
	s17.667-21.439,22.982-34.19c5.315-12.75,8.069-26.504,8.067-40.307C395.982,280.005,395.96,279.614,395.955,279.228
	L395.955,279.228z"/>
</svg>
