<?xml version="1.0" encoding="utf-8"?>
<!-- Generator: Adobe Illustrator 16.0.0, SVG Export Plug-In . SVG Version: 6.00 Build 0)  -->
<!DOCTYPE svg PUBLIC "-//W3C//DTD SVG 1.1//EN" "http://www.w3.org/Graphics/SVG/1.1/DTD/svg11.dtd">
<svg version="1.1" id="Layer_1" xmlns="http://www.w3.org/2000/svg" xmlns:xlink="http://www.w3.org/1999/xlink" x="0px" y="0px"
	 width="512px" height="512px" viewBox="0 0 512 512" enable-background="new 0 0 512 512" xml:space="preserve">
<g id="Layer_1_1_">
	<g id="Layer_2" display="none">
	</g>
	<g id="shadows">
		<g opacity="0.9">
			<g>
				<path fill="#B7B7B7" d="M466.5,381.5c0,48.6-39.4,88-88,88h-246c-48.602,0-88-39.4-88-88V164.833c0-48.601,39.398-88,88-88h246
					c48.6,0,88,39.399,88,88V381.5z"/>
			</g>
		</g>
		<g>
			<g>
				<path fill="#FFFFFF" d="M466.5,360.5c0,48.6-39.4,88-88,88h-246c-48.602,0-88-39.4-88-88V143.833c0-48.601,39.398-88,88-88h246
					c48.6,0,88,39.399,88,88V360.5z"/>
			</g>
		</g>
	</g>
	
		<radialGradient id="SVGID_1_" cx="262.8596" cy="-555.2788" r="203.7987" gradientTransform="matrix(1 0 0 -1 -8.3599 -300.9453)" gradientUnits="userSpaceOnUse">
		<stop  offset="0" style="stop-color:#F69453"/>
		<stop  offset="0.5" style="stop-color:#F37521"/>
		<stop  offset="1" style="stop-color:#D4622A"/>
	</radialGradient>
	<path fill="url(#SVGID_1_)" stroke="#E2E2E2" stroke-width="10" stroke-miterlimit="10" d="M465.5,362.667c0,48.6-39.399,88-88,88
		h-246c-48.602,0-88-39.4-88-88V146c0-48.601,39.398-88,88-88h246c48.601,0,88,39.399,88,88V362.667z"/>
</g>
<path id="path2994" inkscape:connector-curvature="0" fill="#FFFFFF" d="M333.808,371.11c15.333-3.994,26.494-10.796,38.338-23.366
	c19.148-20.32,22.492-33.301,22.492-87.24c0-49.992,0.154-49.686-26.34-52.277c-7.661-0.749-14.7-2.584-16.392-4.275
	c-1.626-1.629-2.963-3.121-2.963-3.316c-0.003-0.195-1.307-7.76-2.897-16.811c-5.19-29.482-21.756-52.066-46.766-63.758
	c-9.839-4.6-14.184-5.234-43.705-6.394c-43.629-1.712-62.117,0.028-76.87,7.234c-14.843,7.251-30.076,22.556-37.478,37.654
	l-5.844,11.92v72.512v72.511l5.159,10.929c10.085,21.355,32.945,40.368,54.674,45.467c4.242,0.997,34.568,1.9,67.39,2.012
	C309.937,374.069,324.671,373.49,333.808,371.11L333.808,371.11z"/>
<path id="path2992" inkscape:connector-curvature="0" fill="#FF8C00" d="M215.85,303.169c-9.54-1.239-11.927-3.773-11.927-12.67
	c0-5.879,1.027-8.187,4.47-10.04c5.428-2.923,71.401-4.868,93.826-2.769c21.397,2.007,28.365,9.746,19.093,21.204
	c-3.785,4.679-3.911,4.691-51.152,4.934C244.108,303.96,219.67,303.664,215.85,303.169z"/>
<path id="path2984" inkscape:connector-curvature="0" fill="#FF8C00" d="M214.849,207.823c-8.594-1.357-10.926-4.063-10.926-12.682
	c0-11.669,3.376-12.698,41.466-12.631c31.585,0.056,32.634,0.19,36.254,4.664c4.738,5.852,4.722,10.448-0.061,16.363
	c-3.647,4.509-4.896,4.701-32.284,4.959C233.63,208.643,218.127,208.341,214.849,207.823L214.849,207.823z"/>
</svg>
