<?xml version="1.0" encoding="utf-8"?>
<!-- Generator: Adobe Illustrator 16.0.0, SVG Export Plug-In . SVG Version: 6.00 Build 0)  -->
<!DOCTYPE svg PUBLIC "-//W3C//DTD SVG 1.1//EN" "http://www.w3.org/Graphics/SVG/1.1/DTD/svg11.dtd">
<svg version="1.1" id="Layer_1" xmlns="http://www.w3.org/2000/svg" xmlns:xlink="http://www.w3.org/1999/xlink" x="0px" y="0px"
	 width="512px" height="512px" viewBox="0 0 512 512" enable-background="new 0 0 512 512" xml:space="preserve">
<g id="Layer_1_1_">
	<g id="Layer_2" display="none">
	</g>
	<g id="shadows">
		<g opacity="0.9">
			<g>
				<path fill="#B7B7B7" d="M466.5,381.5c0,48.6-39.4,88-88,88h-246c-48.602,0-88-39.4-88-88V164.833c0-48.601,39.398-88,88-88h246
					c48.6,0,88,39.399,88,88V381.5z"/>
			</g>
		</g>
		<g>
			<g>
				<path fill="#FFFFFF" d="M466.5,360.5c0,48.6-39.4,88-88,88h-246c-48.602,0-88-39.4-88-88V143.833c0-48.601,39.398-88,88-88h246
					c48.6,0,88,39.399,88,88V360.5z"/>
			</g>
		</g>
	</g>
	<radialGradient id="SVGID_1_" cx="254.5002" cy="254.3335" r="203.7987" gradientUnits="userSpaceOnUse">
		<stop  offset="0" style="stop-color:#D471AD"/>
		<stop  offset="0.5" style="stop-color:#C7158C"/>
		<stop  offset="1" style="stop-color:#9D248E"/>
	</radialGradient>
	<path fill="url(#SVGID_1_)" stroke="#E2E2E2" stroke-width="10" stroke-miterlimit="10" d="M465.5,362.667c0,48.6-39.399,88-88,88
		h-246c-48.602,0-88-39.4-88-88V146c0-48.601,39.398-88,88-88h246c48.601,0,88,39.399,88,88V362.667z"/>
</g>
<g id="layer1" transform="translate(-384.57143,-419.798)" inkscape:label="Capa 1" inkscape:groupmode="layer">
	
		<path id="path4264" inkscape:connector-curvature="0" sodipodi:nodetypes="csccccccccccccscccccccccccccscccccccccccccccccscccsccccsscccccscc" fill="#003380" d="
		M781.267,527.457c0-0.404-4.55,2.754-10.113,7.019c-52.338,40.123-117.762,75.211-154.391,82.811l-6.906,1.435l-2.619,6.989
		c-9.123,24.378-35.055,41.668-75.71,50.47c-6.424,1.391-13.315,3.375-15.311,4.408c-6.171,3.187-13.341,10.482-16.582,16.877
		c-2.619,5.163-3.024,7.389-2.628,14.388c0.333,5.892,1.131,9.009,2.769,10.818c2.201,2.432,7.69,3.705,6.303,1.463
		c-1.091-1.763,4.076-7.388,9.183-9.99c8.272-4.217,21.122-6.21,34.566-6.026c2.402,0.048,5.289,0.149,7.281,0.307
		c10.067,0.726,20.077,2.654,28.384,5.81c4.468,1.694,8.25,3.729,11.321,6.02c11.463,5.969,21.105,13.735,29.207,22.701
		c0.007-0.3,0.025-0.583,0.032-0.887c0.059-5.894,0.252-10.716,0.437-10.721c0.185,0,0.916,1.509,1.621,3.361
		c1.709,4.489,2.601,9.213,2.769,13.967c15.374,19.409,24.47,43.321,29.806,66.404c7.115-12.322,13.855-28.616,13.885-35.271
		c0.042-9.852,6.873,9.486,9.029,25.565l1.488,11.132l2.702-6.74c4.515-11.272,6.635-23.061,6.646-36.941
		c0.01-7.177-0.351-14.205-0.8-15.624c-0.449-1.417-0.329-2.578,0.271-2.578c1.479,0,13.238,11.977,16.253,16.548
		c2.842,4.313,3.057,2.429,0.723-6.329c-6.169-23.16-23.867-44.981-49.121-60.564l-9.76-6.025l4.858-0.142
		c2.669-0.078,6.507-0.521,8.532-0.979l3.679-0.83l-4.905-1.669l-4.907-1.674l7.862-1.605c4.32-0.881,11.776-3.455,16.558-5.721
		l8.686-4.115l-11.034,0.438l-11.037,0.438l8.586-2.893c11.943-4.031,34.859-16.056,33.393-17.521
		c-0.206-0.209-4.499,0.692-9.53,1.999c-14.793,3.839-16.356,2.998-4.795-2.584c11.259-5.433,27.101-15.655,34.883-22.509
		l4.907-4.319l-9.193,4.143c-7.813,3.521-25.639,9.306-28.676,9.306c-0.517,0,2.628-1.854,6.979-4.121
		c12.451-6.488,23.71-15.081,37.63-28.716l12.879-12.619l-10.42,5.501c-9.858,5.2-30.659,14.54-30.659,13.766
		c0-0.196,2.624-2.211,5.826-4.476c12.432-8.782,34.438-31.982,47.461-50.037l4.733-6.552l-11.6,9.056
		c-12.382,9.674-37.674,26.07-38.67,25.071c-0.333-0.331,0.897-1.586,2.733-2.788c5.415-3.546,29.249-30.453,42.353-47.809
		C775.794,535.439,781.267,527.864,781.267,527.457L781.267,527.457z"/>
</g>
</svg>
