<?xml version="1.0" encoding="utf-8"?>
<!-- Generator: Adobe Illustrator 16.0.0, SVG Export Plug-In . SVG Version: 6.00 Build 0)  -->
<!DOCTYPE svg PUBLIC "-//W3C//DTD SVG 1.1//EN" "http://www.w3.org/Graphics/SVG/1.1/DTD/svg11.dtd">
<svg version="1.1" id="Layer_1" xmlns="http://www.w3.org/2000/svg" xmlns:xlink="http://www.w3.org/1999/xlink" x="0px" y="0px"
	 width="512px" height="512px" viewBox="0 0 512 512" enable-background="new 0 0 512 512" xml:space="preserve">
<g id="Layer_1_1_">
	<g id="Layer_2" display="none">
	</g>
	<g id="shadows">
		<g opacity="0.9">
			<g>
				<path fill="#B7B7B7" d="M466.5,381.5c0,48.6-39.4,88-88,88h-246c-48.602,0-88-39.4-88-88V164.833c0-48.601,39.398-88,88-88h246
					c48.6,0,88,39.399,88,88V381.5z"/>
			</g>
		</g>
		<g>
			<g>
				<path fill="#FFFFFF" d="M466.5,360.5c0,48.6-39.4,88-88,88h-246c-48.602,0-88-39.4-88-88V143.833c0-48.601,39.398-88,88-88h246
					c48.6,0,88,39.399,88,88V360.5z"/>
			</g>
		</g>
	</g>
	
		<radialGradient id="SVGID_1_" cx="262.8596" cy="-555.2788" r="203.7987" gradientTransform="matrix(1 0 0 -1 -8.3599 -300.9453)" gradientUnits="userSpaceOnUse">
		<stop  offset="0" style="stop-color:#F69453"/>
		<stop  offset="0.5" style="stop-color:#F37521"/>
		<stop  offset="1" style="stop-color:#D4622A"/>
	</radialGradient>
	<path fill="url(#SVGID_1_)" stroke="#E2E2E2" stroke-width="10" stroke-miterlimit="10" d="M465.5,362.667c0,48.6-39.399,88-88,88
		h-246c-48.602,0-88-39.4-88-88V146c0-48.601,39.398-88,88-88h246c48.601,0,88,39.399,88,88V362.667z"/>
</g>
<path fill="#3498DB" d="M143.123,149.052h57.745c2.278,0,4.125,1.847,4.125,4.125v206.231c0,2.278-1.847,4.124-4.125,4.124h-57.745
	c-2.278,0-4.125-1.846-4.125-4.124V153.176C138.998,150.898,140.845,149.052,143.123,149.052z"/>
<path fill="#FFCC5C" d="M209.117,116.055h53.62c2.278,0,4.125,1.847,4.125,4.125v239.228c0,2.278-1.847,4.124-4.125,4.124h-53.62
	c-2.278,0-4.125-1.846-4.125-4.124V120.179C204.992,117.901,206.839,116.055,209.117,116.055z"/>
<path fill="#B3B3B3" d="M383.422,346.91l-61.869,16.499c-0.351,0.081-0.711,0.122-1.072,0.122c-0.727,0-1.439-0.199-2.063-0.575
	c-0.956-0.548-1.652-1.454-1.939-2.518l-49.494-189.733c-0.559-2.195,0.745-4.432,2.93-5.031l61.869-16.499
	c2.216-0.545,4.463,0.77,5.074,2.969l49.495,189.733C386.91,344.072,385.608,346.313,383.422,346.91z"/>
<path fill="#B3B3B3" d="M162.92,194.422h26.399c1.821,0,3.299,1.478,3.299,3.301v26.397c0,1.823-1.478,3.299-3.299,3.299H162.92
	c-1.821,0-3.299-1.476-3.299-3.299v-26.397C159.621,195.9,161.099,194.422,162.92,194.422z"/>
<path d="M262.737,116.055h-53.62c-2.278,0-4.125,1.847-4.125,4.125v28.873h-61.869c-2.278,0-4.125,1.847-4.125,4.125v206.231
	c0,2.278,1.847,4.124,4.125,4.124h119.614c2.278,0,4.125-1.846,4.125-4.124V120.179
	C266.862,117.901,265.015,116.055,262.737,116.055z M258.612,330.535h-45.37v-8.25h45.37V330.535z M147.247,177.924h57.745v123.739
	h-57.745V177.924z M258.612,161.425h-45.37v-12.374h45.37V161.425z M147.247,309.912h57.745v12.373h-57.745V309.912z
	 M213.241,314.037V169.675h45.37v144.362H213.241z M258.612,124.304v16.499h-45.37v-16.499H258.612z M204.992,157.301v12.374
	h-57.745v-12.374H204.992z M147.247,330.535h57.745v24.747h-57.745V330.535z M213.241,355.282v-16.498h45.37v16.498H213.241z"/>
<path d="M386.342,341.869l-49.495-189.732c-0.276-1.063-0.964-1.972-1.915-2.524c-0.949-0.554-2.078-0.705-3.141-0.421
	l-61.868,16.499c-2.191,0.584-3.501,2.828-2.929,5.023l49.495,189.732c0.276,1.063,0.967,1.972,1.917,2.526
	c0.949,0.549,2.078,0.696,3.139,0.41l61.869-16.498C385.602,346.301,386.908,344.063,386.342,341.869z M282.584,197.796l53.9-14.37
	l1.939,7.426l-53.896,14.39L282.584,197.796z M340.506,198.853l23.922,91.765l-53.879,14.374l-23.922-91.77L340.506,198.853z
	 M366.529,298.604l4.224,16.184l-53.9,14.37l-4.207-16.181L366.529,298.604z M329.91,158.229l4.492,17.22l-53.9,14.368
	l-4.487-17.213L329.91,158.229z M323.426,354.354l-4.492-17.219l53.9-14.373l4.488,17.211L323.426,354.354z"/>
<path d="M192.618,190.298h-32.997c-2.278,0-4.125,1.847-4.125,4.125v32.997c0,2.278,1.847,4.125,4.125,4.125h32.997
	c2.278,0,4.124-1.847,4.124-4.125v-32.997C196.742,192.145,194.896,190.298,192.618,190.298z M188.494,223.295h-24.748v-24.748
	h24.748V223.295z"/>
</svg>
