<?xml version="1.0" encoding="utf-8"?>
<!-- Generator: Adobe Illustrator 16.0.0, SVG Export Plug-In . SVG Version: 6.00 Build 0)  -->
<!DOCTYPE svg PUBLIC "-//W3C//DTD SVG 1.1//EN" "http://www.w3.org/Graphics/SVG/1.1/DTD/svg11.dtd">
<svg version="1.1" id="Layer_1" xmlns="http://www.w3.org/2000/svg" xmlns:xlink="http://www.w3.org/1999/xlink" x="0px" y="0px"
	 width="512px" height="512px" viewBox="0 0 512 512" enable-background="new 0 0 512 512" xml:space="preserve">
<g id="Layer_1_2_">
	<g id="Layer_1_1_">
		<g id="Layer_2" display="none">
		</g>
		<g id="shadows">
			<g opacity="0.9">
				<g>
					<path fill="#B7B7B7" d="M466.5,381.5c0,48.6-39.4,88-88,88h-246c-48.604,0-88-39.4-88-88V164.833c0-48.601,39.396-88,88-88h246
						c48.6,0,88,39.399,88,88V381.5z"/>
				</g>
			</g>
			<g>
				<g>
					<path fill="#FFFFFF" d="M466.5,360.5c0,48.6-39.4,88-88,88h-246c-48.604,0-88-39.4-88-88V143.833c0-48.601,39.396-88,88-88h246
						c48.6,0,88,39.399,88,88V360.5z"/>
				</g>
			</g>
		</g>
		
			<linearGradient id="SVGID_1_" gradientUnits="userSpaceOnUse" x1="85.2996" y1="-1117.0601" x2="507.2991" y2="-1117.0601" gradientTransform="matrix(1 0 0 -1 -41.7993 -862.7266)">
			<stop  offset="0" style="stop-color:#5B57A5"/>
			<stop  offset="0.5" style="stop-color:#2E3092"/>
			<stop  offset="1" style="stop-color:#474374"/>
		</linearGradient>
		<path fill="url(#SVGID_1_)" stroke="#E2E2E2" stroke-width="10" stroke-miterlimit="10" d="M465.5,362.667c0,48.6-39.399,88-88,88
			h-246c-48.604,0-88-39.4-88-88V146c0-48.601,39.396-88,88-88h246c48.601,0,88,39.399,88,88V362.667z"/>
	</g>
	
		<linearGradient id="SVGID_2_" gradientUnits="userSpaceOnUse" x1="64.22" y1="468.3906" x2="64.22" y2="468.3906" gradientTransform="matrix(1 0 0 1 -16.7197 -280.8906)">
		<stop  offset="0" style="stop-color:#D471AD"/>
		<stop  offset="0.5" style="stop-color:#C7158C"/>
		<stop  offset="1" style="stop-color:#9D248E"/>
	</linearGradient>
	<path fill="url(#SVGID_2_)" stroke="#E2E2E2" stroke-width="10" stroke-miterlimit="10" d="M47.5,187.5"/>
	
		<linearGradient id="SVGID_3_" gradientUnits="userSpaceOnUse" x1="92.22" y1="813.3906" x2="92.22" y2="813.3906" gradientTransform="matrix(1 0 0 1 -16.7197 -280.8906)">
		<stop  offset="0" style="stop-color:#D471AD"/>
		<stop  offset="0.5" style="stop-color:#C7158C"/>
		<stop  offset="1" style="stop-color:#9D248E"/>
	</linearGradient>
	<path fill="url(#SVGID_3_)" stroke="#E2E2E2" stroke-width="10" stroke-miterlimit="10" d="M75.5,532.5"/>
</g>
<g id="Layer_2_1_">
	
		<linearGradient id="SVGID_4_" gradientUnits="userSpaceOnUse" x1="64.22" y1="479.3906" x2="64.22" y2="479.3906" gradientTransform="matrix(1 0 0 1 -16.7197 -280.8906)">
		<stop  offset="0" style="stop-color:#D471AD"/>
		<stop  offset="0.5" style="stop-color:#C7158C"/>
		<stop  offset="1" style="stop-color:#9D248E"/>
	</linearGradient>
	<path fill="url(#SVGID_4_)" stroke="#E2E2E2" stroke-width="10" stroke-miterlimit="10" d="M47.5,198.5"/>
</g>
<linearGradient id="rect4413_1_" gradientUnits="userSpaceOnUse" x1="292.179" y1="210.6143" x2="413.2043" y2="210.6143">
	<stop  offset="0" style="stop-color:#97A4B7"/>
	<stop  offset="0.882" style="stop-color:#FFFFFF"/>
</linearGradient>
<path id="rect4413" fill="url(#rect4413_1_)" fill-opacity="0.1186" d="M383.995,148.063c10.326,12.028,16.599,27.653,16.599,44.822
	c0,38.125-30.688,68.812-68.813,68.812c-14.783,0-28.414-4.646-39.603-12.521c12.6,14.671,31.271,23.989,52.213,23.989
	c38.125,0,68.813-30.687,68.813-68.812C413.204,181.014,401.669,160.495,383.995,148.063z"/>
<path fill="#FFC107" d="M178.056,142.777c-0.295-0.915-1.107-1.564-2.067-1.651l-13.038-1.184l-5.156-12.067
	c-0.38-0.884-1.246-1.457-2.208-1.457s-1.828,0.573-2.208,1.459l-5.155,12.065l-13.041,1.184c-0.958,0.088-1.768,0.736-2.065,1.651
	c-0.297,0.915-0.022,1.917,0.702,2.55l9.855,8.644l-2.906,12.801c-0.212,0.941,0.153,1.914,0.934,2.479
	c0.42,0.303,0.911,0.458,1.407,0.458c0.427,0,0.85-0.115,1.23-0.342l11.247-6.723l11.243,6.723c0.823,0.495,1.86,0.449,2.639-0.116
	c0.781-0.566,1.146-1.539,0.934-2.479l-2.906-12.801l9.855-8.642C178.076,144.694,178.353,143.693,178.056,142.777z"/>
<path fill="#FFC107" d="M266.056,307.328c-0.296-0.914-1.106-1.564-2.067-1.65l-13.038-1.184l-5.156-12.068
	c-0.38-0.884-1.246-1.457-2.208-1.457s-1.828,0.573-2.208,1.459l-5.155,12.066l-13.041,1.184c-0.958,0.088-1.768,0.736-2.065,1.65
	c-0.297,0.915-0.022,1.918,0.702,2.551l9.855,8.644l-2.906,12.802c-0.212,0.941,0.153,1.914,0.934,2.479
	c0.42,0.303,0.911,0.457,1.407,0.457c0.427,0,0.85-0.115,1.23-0.342l11.247-6.723l11.243,6.723c0.823,0.494,1.86,0.449,2.639-0.115
	c0.781-0.566,1.146-1.539,0.934-2.479l-2.906-12.802l9.855-8.642C266.076,309.246,266.354,308.245,266.056,307.328z"/>
<path fill="#FFC107" d="M237.056,219.974c-0.296-0.915-1.106-1.564-2.067-1.651l-13.038-1.184l-5.156-12.067
	c-0.38-0.884-1.246-1.457-2.208-1.457s-1.828,0.573-2.208,1.459l-5.155,12.065l-13.041,1.184c-0.958,0.088-1.768,0.736-2.065,1.651
	c-0.297,0.915-0.022,1.917,0.702,2.55l9.855,8.644l-2.906,12.801c-0.212,0.941,0.153,1.914,0.934,2.479
	c0.42,0.303,0.911,0.458,1.407,0.458c0.427,0,0.85-0.115,1.23-0.342l11.247-6.723l11.243,6.723c0.823,0.495,1.86,0.449,2.639-0.116
	c0.781-0.566,1.146-1.539,0.934-2.479l-2.906-12.801l9.855-8.642C237.076,221.892,237.354,220.891,237.056,219.974z"/>
<path fill="#FFC107" d="M155.469,299.714c-0.296-0.914-1.106-1.564-2.067-1.65l-13.038-1.184l-5.156-12.068
	c-0.38-0.884-1.246-1.457-2.208-1.457s-1.828,0.573-2.208,1.459l-5.155,12.066l-13.041,1.184c-0.958,0.088-1.768,0.736-2.065,1.65
	c-0.297,0.915-0.022,1.918,0.702,2.551l9.855,8.644l-2.906,12.802c-0.212,0.941,0.153,1.914,0.934,2.479
	c0.42,0.303,0.911,0.457,1.407,0.457c0.427,0,0.85-0.115,1.23-0.342L133,319.581l11.243,6.723c0.823,0.494,1.86,0.449,2.639-0.115
	c0.781-0.566,1.146-1.539,0.934-2.479l-2.906-12.802l9.855-8.642C155.49,301.632,155.767,300.631,155.469,299.714z"/>
</svg>
