<?xml version="1.0" encoding="utf-8"?>
<!-- Generator: Adobe Illustrator 16.0.0, SVG Export Plug-In . SVG Version: 6.00 Build 0)  -->
<!DOCTYPE svg PUBLIC "-//W3C//DTD SVG 1.1//EN" "http://www.w3.org/Graphics/SVG/1.1/DTD/svg11.dtd">
<svg version="1.1" id="Layer_1" xmlns="http://www.w3.org/2000/svg" xmlns:xlink="http://www.w3.org/1999/xlink" x="0px" y="0px"
	 width="512px" height="512px" viewBox="0 0 512 512" enable-background="new 0 0 512 512" xml:space="preserve">
<g id="Layer_1_1_">
	<g id="Layer_2" display="none">
	</g>
	<g id="shadows">
		<g opacity="0.9">
			<g>
				<path fill="#B7B7B7" d="M466.5,381.5c0,48.6-39.4,88-88,88h-246c-48.602,0-88-39.4-88-88V164.833c0-48.601,39.398-88,88-88h246
					c48.6,0,88,39.399,88,88V381.5z"/>
			</g>
		</g>
		<g>
			<g>
				<path fill="#FFFFFF" d="M466.5,360.5c0,48.6-39.4,88-88,88h-246c-48.602,0-88-39.4-88-88V143.833c0-48.601,39.398-88,88-88h246
					c48.6,0,88,39.399,88,88V360.5z"/>
			</g>
		</g>
	</g>
	<linearGradient id="SVGID_1_" gradientUnits="userSpaceOnUse" x1="43.5002" y1="254.3335" x2="465.5002" y2="254.3335">
		<stop  offset="0.0056" style="stop-color:#8AD0C3"/>
		<stop  offset="0.5" style="stop-color:#00B6A9"/>
		<stop  offset="1" style="stop-color:#00A185"/>
	</linearGradient>
	<path fill="url(#SVGID_1_)" stroke="#E2E2E2" stroke-width="10" stroke-miterlimit="10" d="M465.5,362.667c0,48.6-39.399,88-88,88
		h-246c-48.602,0-88-39.4-88-88V146c0-48.601,39.398-88,88-88h246c48.601,0,88,39.399,88,88V362.667z"/>
</g>
<g>
	<g>
		<path d="M329.5,66c0.393-26.399,23.724-49.065,50.124-48.693c27.239,0.394,49.083,22.879,48.688,50.119l-1.694,191.062
			c-0.235,16.249-14.596,30.199-30.844,29.965c-16.765-0.243-30.204-14.077-29.96-30.84l1.58-183.467
			c0.088-6.088,5.476-11.323,11.563-11.235c6.288,0.09,11.332,5.282,11.24,11.57l-1.47,175.856c-0.053,3.626,3.864,7.658,7.491,7.71
			c4.198,0.061,7.648-3.291,7.71-7.489L405.398,74.7c0.213-14.675-11.544-26.777-26.219-26.989
			c-14.213-0.206-26.779,12.023-26.983,26.214l-1.581,183.467c-0.36,24.95,19.989,45.897,44.939,46.259
			c12.188,0.177,23.637-4.476,32.373-12.963c8.737-8.487,13.721-19.798,13.891-31.98l1.695-191.062
			c0.516-35.628-28.042-65.024-63.669-65.539C344.217,1.591,314.817,30.153,314.3,65.78"/>
	</g>
</g>
</svg>
