<?xml version="1.0" encoding="utf-8"?>
<!-- Generator: Adobe Illustrator 24.0.1, SVG Export Plug-In . SVG Version: 6.00 Build 0)  -->
<svg version="1.1" id="Layer_1" xmlns="http://www.w3.org/2000/svg" xmlns:xlink="http://www.w3.org/1999/xlink" x="0px" y="0px"
	 viewBox="0 0 512 512" style="enable-background:new 0 0 512 512;" xml:space="preserve">
<style type="text/css">
	.st0{display:none;}
	.st1{opacity:0.9;}
	.st2{fill:#B7B7B7;}
	.st3{fill:#FFFFFF;}
	.st4{fill:url(#SVGID_1_);stroke:#E2E2E2;stroke-width:10;stroke-miterlimit:10;}
</style>
<g id="Layer_1_1_">
	<g id="Layer_2_1_" class="st0">
	</g>
	<g id="shadows">
		<g class="st1">
			<g>
				<path class="st2" d="M466.5,381.5c0,48.6-39.4,88-88,88h-246c-48.6,0-88-39.4-88-88V164.8c0-48.6,39.4-88,88-88h246
					c48.6,0,88,39.4,88,88V381.5z"/>
			</g>
		</g>
		<g>
			<g>
				<path class="st3" d="M466.5,360.5c0,48.6-39.4,88-88,88h-246c-48.6,0-88-39.4-88-88V143.8c0-48.6,39.4-88,88-88h246
					c48.6,0,88,39.4,88,88V360.5z"/>
			</g>
		</g>
	</g>
	<radialGradient id="SVGID_1_" cx="254.5" cy="254.3335" r="203.7987" gradientUnits="userSpaceOnUse">
		<stop  offset="0" style="stop-color:#2BC4F3"/>
		<stop  offset="0.5" style="stop-color:#00AEEE"/>
		<stop  offset="1" style="stop-color:#0095DA"/>
	</radialGradient>
	<path class="st4" d="M465.5,362.7c0,48.6-39.4,88-88,88h-246c-48.6,0-88-39.4-88-88V146c0-48.6,39.4-88,88-88h246
		c48.6,0,88,39.4,88,88V362.7z"/>
</g>
<sodipodi:namedview  bordercolor="#666666" borderopacity="1.0" id="base" pagecolor="#ffffff" showgrid="false" showguides="false" units="px">
	</sodipodi:namedview>
<g>
	<g transform="translate(0.000000,216.000000) scale(0.100000,-0.100000)">
		<path class="st3" d="M2507.1,797.5c-68.5-55.5-149.9-123.9-183-151.1c-72-61.4-453.2-376.6-617.3-511.1
			C1638.3,79.8,1558,13.7,1527.3-12.3c-30.7-26-90.9-76.7-135.7-112.1C1139-329.8,1115.4-364,1181.5-441.9
			c23.6-29.5,40.1-36.6,74.4-36.6c48.4,0,73.2,15.4,190,115.7c40.1,33.1,75.5,61.4,80.3,61.4c4.7,0,7.1-297.4,4.7-661l-3.5-661
			h1104.8h1104.9l-4.7,639.8c-2.4,352.9-8.3,652.8-13,668.1c-5.9,14.2-4.7,26,0,26c5.9,0,53.1-36.6,105.1-82.6
			c51.9-44.8,107.4-86.2,123.9-92.1c70.8-24.8,141.7,30.7,141.7,112.1c0,41.3-79.1,116.8-342.3,328.1
			C3722.9-4,3633.2,70.4,3547,141.2c-86.2,72-173.5,142.8-193.6,159.4c-20.1,15.3-87.4,72-149.9,123.9
			c-62.6,51.9-139.3,115.7-171.1,141.7c-31.9,26-89.7,74.4-128.7,106.2c-38.9,33.1-115.7,98-172.3,144L2631,900.2L2507.1,797.5z
			 M2942.7-574.2c49.6-16.5,73.2-57.8,73.2-126.3c0-47.2-5.9-62.6-34.2-89.7c-66.1-63.7-184.1-43.7-213.7,35.4
			C2720.7-632,2818.7-530.4,2942.7-574.2z M3225.9-574.2c49.6-16.5,73.2-57.8,73.2-126.3c0-47.2-5.9-63.7-30.7-88.5
			c-55.5-55.5-142.8-55.5-198.3,0c-24.8,24.8-30.7,41.3-30.7,90.9C3040.6-589.5,3119.7-536.4,3225.9-574.2z M3557.7-601.3
			c26-26,30.7-41.3,30.7-95.6c0-53.1-4.7-69.6-30.7-95.6c-40.1-40.1-108.6-48.4-164.1-20.1c-85,44.8-90.9,177.1-8.3,229
			C3437.2-550.5,3515.1-558.8,3557.7-601.3z M2956.8-873.9c46-23.6,59-50.8,59-120.4c0-49.6-5.9-63.7-35.4-92.1
			c-29.5-28.3-46-34.2-95.6-34.2c-53.1,0-64.9,4.7-94.4,37.8c-56.6,62.6-42.5,172.3,26,210.1
			C2854.1-851.5,2915.5-852.7,2956.8-873.9z M3240.1-876.3c47.2-31.9,57.8-53.1,59-109.8c0-64.9-23.6-102.7-79.1-125.1
			c-92.1-38.9-180.6,21.2-180.6,122.8c0,62.6,3.5,69.6,51.9,106.2C3132.7-850.3,3198.8-848,3240.1-876.3z M3554.1-896.4
			c31.9-31.9,40.1-49.6,40.1-85c0-63.7-22.4-101.5-74.4-127.5c-118-57.8-234.9,61.4-177.1,179.4c24.8,50.8,62.6,73.2,126.3,73.2
			C3504.5-856.2,3522.3-864.5,3554.1-896.4z M2956.8-1171.4c47.2-33.1,57.8-53.1,59-113.3c0-48.4-5.9-62.6-34.2-92.1
			c-28.3-28.3-44.9-34.2-92.1-34.2c-81.4,0-122.8,37.8-131,118c-4.7,54.3-2.4,61.4,36.6,100.3c33.1,33.1,50.8,41.3,87.4,41.3
			C2907.3-1151.4,2941.5-1160.8,2956.8-1171.4z M3240.1-1169.1c44.9-23.6,59-50.8,59-118c0-44.8-5.9-61.4-34.2-89.7
			c-29.5-29.5-43.7-34.2-95.6-34.2s-66.1,4.7-95.6,34.2c-28.3,29.5-34.2,44.8-34.2,93.2c0,53.1,4.7,62.6,41.3,95.6
			C3129.2-1146.6,3183.5-1139.5,3240.1-1169.1z M3534-1167.9c57.8-30.7,77.9-115.7,42.5-184.1c-23.6-46-50.8-59-120.4-59
			c-48.4,0-63.8,5.9-88.5,33.1c-82.6,88.5-29.5,226.6,87.4,226.6C3479.7-1151.4,3515.1-1158.4,3534-1167.9z"/>
	</g>
</g>
</svg>
