<?xml version="1.0" encoding="utf-8"?>
<!-- Generator: Adobe Illustrator 16.0.0, SVG Export Plug-In . SVG Version: 6.00 Build 0)  -->
<!DOCTYPE svg PUBLIC "-//W3C//DTD SVG 1.1//EN" "http://www.w3.org/Graphics/SVG/1.1/DTD/svg11.dtd">
<svg version="1.1" id="Layer_1" xmlns="http://www.w3.org/2000/svg" xmlns:xlink="http://www.w3.org/1999/xlink" x="0px" y="0px"
	 width="512px" height="512px" viewBox="0 0 512 512" enable-background="new 0 0 512 512" xml:space="preserve">
<g id="Layer_1_1_">
	<g id="Layer_2" display="none">
	</g>
	<g id="shadows">
		<g opacity="0.9">
			<g>
				<path fill="#B7B7B7" d="M466.5,381.5c0,48.6-39.4,88-88,88h-246c-48.602,0-88-39.4-88-88V164.833c0-48.601,39.398-88,88-88h246
					c48.6,0,88,39.399,88,88V381.5z"/>
			</g>
		</g>
		<g>
			<g>
				<path fill="#FFFFFF" d="M466.5,360.5c0,48.6-39.4,88-88,88h-246c-48.602,0-88-39.4-88-88V143.833c0-48.601,39.398-88,88-88h246
					c48.6,0,88,39.399,88,88V360.5z"/>
			</g>
		</g>
	</g>
	
		<radialGradient id="SVGID_1_" cx="262.8596" cy="1395.2793" r="203.7985" gradientTransform="matrix(1 0 0 1 -8.3599 -1140.9453)" gradientUnits="userSpaceOnUse">
		<stop  offset="0.0112" style="stop-color:#53A9B3"/>
		<stop  offset="0.5" style="stop-color:#048399"/>
		<stop  offset="0.9944" style="stop-color:#045A64"/>
	</radialGradient>
	<path fill="url(#SVGID_1_)" stroke="#E2E2E2" stroke-width="10" stroke-miterlimit="10" d="M465.5,362.667c0,48.6-39.399,88-88,88
		h-246c-48.602,0-88-39.4-88-88V146c0-48.601,39.398-88,88-88h246c48.601,0,88,39.399,88,88V362.667z"/>
</g>
<g id="Layer_2_1_">
</g>
<path id="shape0" inkscape:connector-curvature="0" fill="#E6E6E6" d="M256,124.118c-76.385,0-138.316,59.052-138.316,131.887
	c0,72.83,61.931,131.878,138.316,131.878c76.381,0,138.315-59.049,138.315-131.878C394.316,183.17,332.381,124.118,256,124.118z
	 M307.868,288.975v-16.488h-34.579v32.971h17.287L256,338.428l-34.579-32.971h17.291v-32.971h-34.582v16.488l-34.579-32.97
	l34.579-32.973v16.487h34.582v-32.973h-17.291L256,173.58l34.576,32.967h-17.287v32.973h34.579v-16.487l34.579,32.973
	L307.868,288.975z"/>
</svg>
