<?xml version="1.0" encoding="utf-8"?>
<!-- Generator: Adobe Illustrator 16.0.0, SVG Export Plug-In . SVG Version: 6.00 Build 0)  -->
<!DOCTYPE svg PUBLIC "-//W3C//DTD SVG 1.1//EN" "http://www.w3.org/Graphics/SVG/1.1/DTD/svg11.dtd">
<svg version="1.1" id="Layer_1" xmlns="http://www.w3.org/2000/svg" xmlns:xlink="http://www.w3.org/1999/xlink" x="0px" y="0px"
	 width="512px" height="512px" viewBox="0 0 512 512" enable-background="new 0 0 512 512" xml:space="preserve">
<g id="Layer_1_1_">
	<g id="Layer_2" display="none">
	</g>
	<g id="shadows">
		<g opacity="0.9">
			<g>
				<path fill="#B7B7B7" d="M466.5,381.5c0,48.6-39.4,88-88,88h-246c-48.604,0-88-39.4-88-88V164.833c0-48.601,39.396-88,88-88h246
					c48.6,0,88,39.399,88,88V381.5z"/>
			</g>
		</g>
		<g>
			<g>
				<path fill="#FFFFFF" d="M466.5,360.5c0,48.6-39.4,88-88,88h-246c-48.604,0-88-39.4-88-88V143.833c0-48.601,39.396-88,88-88h246
					c48.6,0,88,39.399,88,88V360.5z"/>
			</g>
		</g>
	</g>
	
		<linearGradient id="SVGID_1_" gradientUnits="userSpaceOnUse" x1="51.8601" y1="281.7207" x2="473.8596" y2="281.7207" gradientTransform="matrix(1 0 0 -1 -8.3599 536.0547)">
		<stop  offset="0" style="stop-color:#5B57A5"/>
		<stop  offset="0.5" style="stop-color:#2E3092"/>
		<stop  offset="1" style="stop-color:#474374"/>
	</linearGradient>
	<path fill="url(#SVGID_1_)" stroke="#E2E2E2" stroke-width="10" stroke-miterlimit="10" d="M465.5,362.667c0,48.6-39.399,88-88,88
		h-246c-48.604,0-88-39.4-88-88V146c0-48.601,39.396-88,88-88h246c48.601,0,88,39.399,88,88V362.667z"/>
</g>
<path id="path3345" inkscape:connector-curvature="0" fill="#FDFEFF" d="M240.152,390.73c-37.142-4.855-70.553-24.666-92.51-54.848
	c-9.146-12.572-16.285-27.203-20.69-42.406c-6.806-23.484-6.806-51.321,0-74.805c13.068-45.097,48.012-80.041,93.109-93.108
	c23.485-6.806,51.32-6.806,74.806,0c20.763,6.017,38.297,15.97,55.386,31.441c6.474,5.859,9.587,9.927,11.697,15.275
	c2.06,5.221,2.141,8.065,0.34,11.933c-2.983,6.407-11.889,10.839-21.75,10.825c-5.71-0.009-9.509-0.951-14.458-3.587
	c-3.473-1.849-3.981-2.398-7.657-8.268c-5.285-8.438-8.634-12.71-14.621-18.653c-12.634-12.538-27.917-19.352-43.406-19.352
	c-51.441,0-88.767,72.387-74.253,144.001c7.8,38.484,28.45,67.471,55.254,77.559c14.941,5.625,29.532,4.695,44.526-2.834
	c9.744-4.893,19.256-13.16,26.496-23.035c5.832-7.949,8.526-10.529,13.671-13.086c4.246-2.107,4.557-2.17,10.856-2.17
	c6.112,0,6.708,0.107,10.341,1.887c4.744,2.32,9.002,5.99,10.609,9.141c0.93,1.822,1.156,3.154,0.972,5.707
	c-0.309,4.275-2.597,7.496-10.031,14.125c-21.797,19.43-46.576,30.781-74.922,34.318
	C265.698,391.816,248.218,391.785,240.152,390.73L240.152,390.73z M238.978,293.891c-2.233-1.148-3.785-3.111-3.801-4.807
	c-0.019-1.943,3.583-1.895,4.868,0.064c1.778,2.715,8.029,2.332,8.029-0.492c0-1.492-1.216-2.113-6.42-3.281
	c-4.282-0.961-5.903-2.633-5.903-6.086c0-2.098,0.355-3.055,1.683-4.541c1.508-1.688,2.086-1.91,5.545-2.129
	c3.174-0.203,4.214-0.029,5.845,0.979c1.927,1.191,3.358,3.363,3.358,5.098c0,1.543-3.608,1.055-4.987-0.674
	c-0.911-1.143-1.755-1.525-3.357-1.525c-2.707,0-3.393,0.432-3.393,2.135c0,1.49,1.2,2.148,6.069,3.328
	c4.23,1.025,6.254,2.973,6.254,6.02c0,4.494-2.95,6.828-8.626,6.822C242.233,294.799,239.966,294.4,238.978,293.891L238.978,293.891
	z M278.883,293.891c-2.234-1.148-3.785-3.111-3.802-4.807c-0.019-1.943,3.583-1.895,4.868,0.064
	c1.777,2.715,8.029,2.332,8.029-0.492c0-1.492-1.217-2.113-6.422-3.281c-4.281-0.961-5.902-2.633-5.902-6.086
	c0-2.098,0.355-3.055,1.684-4.541c1.508-1.688,2.086-1.91,5.545-2.129c3.174-0.203,4.215-0.029,5.845,0.979
	c1.927,1.191,3.358,3.363,3.358,5.098c0,1.543-3.608,1.055-4.987-0.674c-0.911-1.143-1.755-1.525-3.357-1.525
	c-2.706,0-3.392,0.432-3.392,2.135c0,1.49,1.199,2.148,6.068,3.328c4.23,1.025,6.254,2.973,6.254,6.02
	c0,4.494-2.949,6.828-8.626,6.822C282.137,294.799,279.87,294.4,278.883,293.891L278.883,293.891z M261.459,289.963
	c-0.221-3.879-0.533-4.77-3.549-10.094c-1.818-3.211-3.175-6.049-3.015-6.307c0.159-0.26,1.345-0.471,2.633-0.471
	c2.31,0,2.369,0.055,4.129,3.814c0.981,2.098,2.021,3.814,2.311,3.814s1.304-1.717,2.255-3.814c1.711-3.771,1.756-3.814,4.08-3.814
	c1.291,0,2.479,0.211,2.639,0.471c0.16,0.258-1.197,3.096-3.016,6.307c-3.016,5.324-3.328,6.215-3.547,10.094l-0.242,4.256h-2.219
	h-2.219L261.459,289.963z M300.889,286.119c0-5.516-0.225-8.322-0.705-8.803c-0.387-0.387-1.84-0.703-3.228-0.703
	c-2.413,0-2.522-0.078-2.522-1.76v-1.762h8.802h8.802v1.762c0,1.682-0.109,1.76-2.522,1.76c-1.388,0-2.841,0.316-3.228,0.703
	c-0.48,0.48-0.705,3.287-0.705,8.803v8.1h-2.347h-2.347V286.119z M314.972,283.654v-10.563h7.629h7.629v1.738v1.738l-5.073,0.168
	c-4.072,0.137-5.2,0.373-5.719,1.197c-0.469,0.746-0.469,1.309-0.001,2.055c0.496,0.787,1.718,1.094,5.278,1.32
	c4.474,0.283,4.634,0.344,4.634,1.76c0,1.418-0.146,1.473-4.374,1.641c-4.879,0.195-5.895,0.715-5.895,3.008
	c0,2.547,0.955,2.98,6.572,2.98h5.164v1.76v1.762h-7.923h-7.922V283.654L314.972,283.654z M334.337,283.625v-10.592l3.368,0.176
	l3.368,0.178l1.481,6.34c0.813,3.488,1.736,6.393,2.051,6.455s1.249-2.791,2.078-6.34l1.508-6.455l3.342-0.178l3.343-0.176v10.592
	v10.594h-2.054h-2.054l-0.01-5.135c-0.013-7.49-0.751-7.777-2.407-0.936l-1.397,5.775h-2.348h-2.348l-1.397-5.775
	c-1.656-6.842-2.395-6.555-2.407,0.936l-0.01,5.135h-2.054h-2.054V283.625L334.337,283.625z M359.865,264.314
	c-1.646-0.686-4.21-3.529-4.951-5.49c-0.343-0.908-0.619-3.287-0.614-5.282c0.011-4.093,1.49-7.368,4.251-9.415
	c2.284-1.694,8.212-1.993,10.977-0.555c2.143,1.114,4.477,4.42,3.844,5.443c-0.741,1.201-4.146,0.664-5.475-0.864
	c-1.48-1.703-4.408-1.973-6.385-0.588c-1.612,1.129-2.64,5.703-1.959,8.721c0.904,4.012,3.531,5.592,6.923,4.165
	c1.741-0.73,2.765-2.275,2.159-3.254c-0.182-0.293-1.106-0.533-2.056-0.533c-1.526,0-1.727-0.205-1.727-1.761v-1.761h4.401h4.401
	v5.575c0,5.426-0.036,5.574-1.35,5.574c-0.743,0-1.636-0.285-1.986-0.637c-0.458-0.457-1.143-0.375-2.436,0.293
	C365.971,264.936,361.813,265.125,359.865,264.314L359.865,264.314z M236.338,253.727v-10.563h6.207
	c6.078,0,6.242,0.035,7.922,1.715c1.491,1.491,1.715,2.148,1.715,5.033s-0.224,3.542-1.715,5.033
	c-1.47,1.47-2.166,1.716-4.871,1.716c-1.735,0-3.472,0.316-3.859,0.703c-0.388,0.387-0.705,2.104-0.705,3.814v3.109h-2.347h-2.347
	V253.727L236.338,253.727z M246.515,252c0.913-0.913,0.582-3.719-0.534-4.535c-1.327-0.97-3.315-1.005-4.245-0.075
	c-0.923,0.923-0.904,4.14,0.029,5.086C242.538,253.257,245.561,252.955,246.515,252z M255.703,253.727v-10.563h7.086
	c7.051,0,7.096,0.009,8.803,1.715c2.016,2.015,2.299,5.038,0.723,7.706c-0.787,1.333-0.856,1.957-0.336,3.024
	c0.361,0.739,0.822,3.011,1.026,5.048l0.368,3.703l-2.526-0.184l-2.527-0.182l-0.384-3.141c-0.451-3.701-0.786-4.125-3.623-4.585
	c-3.119-0.506-3.916,0.423-3.916,4.57v3.449h-2.347h-2.347V253.727z M266.522,251.981c1.161-0.441,1.504-0.98,1.504-2.361
	c0-1.954-1.541-2.935-4.615-2.935c-2.014,0-3.014,0.972-3.014,2.935c0,0.839,0.317,1.842,0.705,2.229
	C261.953,252.701,264.468,252.761,266.522,251.981z M276.828,253.727v-10.563h2.348h2.348v10.563v10.562h-2.348h-2.348V253.727z
	 M285.631,253.693v-10.596l2.494,0.18l2.494,0.181l3.445,6.006c1.895,3.303,3.677,5.862,3.961,5.687
	c0.283-0.175,0.516-2.943,0.516-6.152v-5.833h2.054h2.054v10.596v10.597l-2.434-0.182c-2.422-0.178-2.451-0.209-5.722-5.984
	c-1.808-3.193-3.552-5.769-3.874-5.724c-0.334,0.046-0.66,2.611-0.755,5.951l-0.167,5.871h-2.033h-2.033V253.693L285.631,253.693z
	 M311.451,256.191c0-5.516-0.225-8.321-0.705-8.802c-0.387-0.388-1.839-0.704-3.227-0.704c-2.413,0-2.523-0.078-2.523-1.761v-1.76
	h8.803h8.802v1.76c0,1.683-0.11,1.761-2.523,1.761c-1.388,0-2.84,0.316-3.228,0.704c-0.479,0.48-0.704,3.286-0.704,8.802v8.098
	h-2.347h-2.348V256.191z M325.534,253.727v-10.563h2.348h2.348v10.563v10.562h-2.348h-2.348V253.727z M334.337,253.693v-10.596
	l2.494,0.18l2.494,0.181l3.445,6.006c1.895,3.303,3.677,5.862,3.961,5.687c0.283-0.175,0.516-2.943,0.516-6.152v-5.833h2.054h2.054
	v10.596v10.597l-2.434-0.182c-2.421-0.178-2.45-0.209-5.722-5.984c-1.808-3.193-3.552-5.769-3.874-5.724
	c-0.334,0.046-0.659,2.611-0.754,5.951l-0.168,5.871h-2.033h-2.033V253.693L334.337,253.693z M239.719,234.03
	c-2.867-1.556-3.382-3.467-3.382-12.549v-8.244h2.29h2.29l0.204,7.833c0.228,8.733,0.624,9.772,3.725,9.772
	c3.102,0,3.498-1.039,3.726-9.772l0.204-7.833h2.29h2.29v8.244c0,9.17-0.52,11.036-3.501,12.578
	C247.66,235.193,241.832,235.176,239.719,234.03L239.719,234.03z M257.463,223.765v-10.596l2.494,0.18l2.494,0.181l3.445,6.006
	c1.895,3.302,3.678,5.862,3.961,5.687s0.516-2.944,0.516-6.153v-5.833h2.055h2.053v10.596v10.597l-2.434-0.181
	c-2.421-0.18-2.45-0.21-5.721-5.985c-1.809-3.193-3.553-5.769-3.875-5.724c-0.334,0.046-0.659,2.611-0.754,5.951l-0.167,5.872
	h-2.034h-2.033V223.765z M278.589,223.799v-10.563h2.347h2.348v10.563v10.563h-2.348h-2.347V223.799z M285.987,233.877
	c-0.164-0.267,1.009-2.525,2.607-5.02c1.598-2.494,2.902-4.852,2.898-5.238c-0.004-0.385-1.189-2.682-2.635-5.103
	c-1.444-2.42-2.63-4.599-2.633-4.841c-0.004-0.242,1.174-0.44,2.615-0.44c2.445,0,2.715,0.159,3.961,2.343
	c0.736,1.288,1.604,2.344,1.926,2.345c0.322,0.002,1.115-0.987,1.76-2.196c1.074-2.011,1.412-2.214,3.961-2.377
	c1.533-0.099,2.788,0.04,2.788,0.308s-1.188,2.396-2.641,4.73c-1.452,2.334-2.641,4.583-2.641,4.997
	c0,0.415,1.319,2.844,2.932,5.397c1.649,2.611,2.71,4.865,2.425,5.15c-0.279,0.279-1.529,0.423-2.777,0.321
	c-1.989-0.164-2.441-0.497-3.643-2.681c-0.754-1.372-1.682-2.486-2.062-2.476c-0.38,0.01-1.405,1.198-2.28,2.641
	c-1.456,2.398-1.791,2.622-3.927,2.622C287.338,234.362,286.153,234.144,285.987,233.877L285.987,233.877z"/>
</svg>
