<?xml version="1.0" encoding="utf-8"?>
<!-- Generator: Adobe Illustrator 16.0.0, SVG Export Plug-In . SVG Version: 6.00 Build 0)  -->
<!DOCTYPE svg PUBLIC "-//W3C//DTD SVG 1.1//EN" "http://www.w3.org/Graphics/SVG/1.1/DTD/svg11.dtd">
<svg version="1.1" id="Layer_1" xmlns="http://www.w3.org/2000/svg" xmlns:xlink="http://www.w3.org/1999/xlink" x="0px" y="0px"
	 width="512px" height="512px" viewBox="0 0 512 512" enable-background="new 0 0 512 512" xml:space="preserve">
<g id="Layer_1_1_">
	<g id="Layer_2" display="none">
	</g>
	<g id="shadows">
		<g opacity="0.9">
			<g>
				<path fill="#B7B7B7" d="M466.5,381.5c0,48.6-39.4,88-88,88h-246c-48.604,0-88-39.4-88-88V164.833c0-48.601,39.396-88,88-88h246
					c48.6,0,88,39.399,88,88V381.5z"/>
			</g>
		</g>
		<g>
			<g>
				<path fill="#FFFFFF" d="M466.5,360.5c0,48.6-39.4,88-88,88h-246c-48.604,0-88-39.4-88-88V143.833c0-48.601,39.396-88,88-88h246
					c48.6,0,88,39.399,88,88V360.5z"/>
			</g>
		</g>
	</g>
	<path fill="#140F2B" stroke="#E2E2E2" stroke-width="10" stroke-miterlimit="10" d="M465.5,362.667c0,48.6-39.399,88-88,88h-246
		c-48.604,0-88-39.4-88-88V146c0-48.601,39.396-88,88-88h246c48.601,0,88,39.399,88,88V362.667z"/>
</g>
<g id="layer1-7-9-9" transform="matrix(0.26435381,0,0,0.26435381,90.456844,574.82969)" inkscape:label="Capa 1">
	<rect id="rect3260-3-5" x="69.319" y="-1629.614" fill="none" width="174.057" height="174.065"/>
	<rect id="rect3272-5-2" x="156.349" y="-1629.614" fill="none" width="87.027" height="87.027"/>
	<rect id="rect3322-3-0" x="130.242" y="-1568.694" fill="none" width="52.22" height="52.213"/>
	
		<rect id="rect3284-2-9" x="144.751" y="-1567.908" transform="matrix(-0.7071 0.7071 -0.7071 -0.7071 -823.8633 -2743.9194)" fill="#FF8080" width="23.204" height="50.642"/>
	<rect id="rect3331-6-7" x="243.376" y="-1629.614" fill="none" width="23.214" height="87.027"/>
	<g id="g4083-1-1">
		<rect id="rect4077-9-4" x="51.917" y="-1658.624" fill="#2C3E50" width="232.074" height="232.074"/>
		<path id="path3304-4-1" inkscape:connector-curvature="0" fill="#2ECC71" d="M156.316-1629.614
			c-22.782,0-45.416,9.387-61.522,25.493c-16.095,16.106-25.475,38.75-25.475,61.533c0,22.784,9.379,45.416,25.475,61.533
			c16.106,16.118,38.741,25.504,61.522,25.504c22.784,0,45.438-9.387,61.556-25.504s25.504-38.75,25.504-61.533h-23.201
			c0,16.716-6.89,33.329-18.709,45.139c-11.819,11.808-28.443,18.667-45.15,18.667c-16.707,0-33.306-6.858-45.106-18.689
			c-11.808-11.808-18.678-28.401-18.678-45.117c0-16.705,6.869-33.308,18.678-45.128c11.799-11.808,28.399-18.7,45.106-18.7
			c0.011,0,0.022,0,0.033,0v-23.199C156.338-1629.614,156.327-1629.614,156.316-1629.614z"/>
		<path id="path4149-9-8" inkscape:connector-curvature="0" fill="#ECF0F1" d="M250.18-1629.614l-82.226,82.215l-21.304-21.295
			l-16.408,16.408l21.306,21.293l14.498,14.513l1.908,1.908l98.636-98.636L250.18-1629.614z"/>
	</g>
</g>
<g id="layer1-7-9-9_1_" transform="matrix(0.26435381,0,0,0.26435381,90.456844,574.82969)" inkscape:label="Capa 1">
	<rect id="rect3260-3-5_1_" x="69.319" y="-1299.402" fill="none" width="174.057" height="174.063"/>
	<rect id="rect3272-5-2_1_" x="156.349" y="-1299.402" fill="none" width="87.027" height="87.027"/>
	<rect id="rect3322-3-0_1_" x="130.242" y="-1238.482" fill="none" width="52.22" height="52.211"/>
	
		<rect id="rect3284-2-9_1_" x="144.751" y="-1237.696" transform="matrix(-0.7071 0.7071 -0.7071 -0.7071 -590.3678 -2180.2117)" fill="#FF8080" width="23.204" height="50.642"/>
	<rect id="rect3331-6-7_1_" x="243.376" y="-1299.402" fill="none" width="23.214" height="87.027"/>
	<g id="g4083-1-1_1_">
		<rect id="rect4077-9-4_1_" x="51.917" y="-1328.412" fill="#2C3E50" width="232.074" height="232.072"/>
		<path id="path3304-4-1_1_" inkscape:connector-curvature="0" fill="#2ECC71" d="M156.316-1299.402
			c-22.782,0-45.416,9.387-61.522,25.493c-16.095,16.106-25.475,38.75-25.475,61.533c0,22.784,9.379,45.418,25.475,61.531
			c16.106,16.121,38.741,25.504,61.522,25.504c22.784,0,45.438-9.383,61.556-25.504c16.118-16.114,25.504-38.748,25.504-61.531
			h-23.201c0,16.714-6.89,33.33-18.709,45.137c-11.819,11.81-28.443,18.67-45.15,18.67c-16.707,0-33.306-6.86-45.106-18.692
			c-11.808-11.807-18.678-28.401-18.678-45.115c0-16.705,6.869-33.308,18.678-45.128c11.799-11.808,28.399-18.7,45.106-18.7
			c0.011,0,0.022,0,0.033,0v-23.199C156.338-1299.402,156.327-1299.402,156.316-1299.402z"/>
		<path id="path4149-9-8_1_" inkscape:connector-curvature="0" fill="#ECF0F1" d="M250.18-1299.402l-82.226,82.215l-21.304-21.295
			l-16.408,16.408l21.306,21.293l14.498,14.511l1.908,1.91l98.636-98.636L250.18-1299.402z"/>
	</g>
</g>
<g id="layer1-7-9-9_2_" transform="matrix(0.26435381,0,0,0.26435381,90.456844,574.82969)" inkscape:label="Capa 1">
	<rect id="rect3260-3-5_2_" x="69.319" y="-958.061" fill="none" width="174.057" height="174.061"/>
	<rect id="rect3272-5-2_2_" x="156.349" y="-958.061" fill="none" width="87.027" height="87.027"/>
	<rect id="rect3322-3-0_2_" x="130.242" y="-897.144" fill="none" width="52.22" height="52.213"/>
	
		<rect id="rect3284-2-9_2_" x="144.75" y="-896.357" transform="matrix(-0.7071 0.7071 -0.7071 -0.7071 -349.0455 -1597.481)" fill="#FF8080" width="23.205" height="50.643"/>
	<rect id="rect3331-6-7_2_" x="243.376" y="-958.061" fill="none" width="23.214" height="87.027"/>
	<g id="g4083-1-1_2_">
		<rect id="rect4077-9-4_2_" x="51.917" y="-987.075" fill="#2C3E50" width="232.074" height="232.074"/>
		<path id="path3304-4-1_2_" inkscape:connector-curvature="0" fill="#2ECC71" d="M156.316-958.061
			c-22.782,0-45.416,9.383-61.522,25.49c-16.095,16.107-25.475,38.752-25.475,61.537c0,22.782,9.379,45.416,25.475,61.53
			C110.9-793.383,133.534-784,156.316-784c22.784,0,45.438-9.383,61.556-25.504c16.118-16.114,25.504-38.748,25.504-61.53h-23.201
			c0,16.712-6.89,33.329-18.709,45.135c-11.819,11.81-28.443,18.67-45.15,18.67c-16.707,0-33.306-6.86-45.106-18.692
			c-11.808-11.806-18.678-28.401-18.678-45.113c0-16.705,6.869-33.31,18.678-45.128c11.799-11.81,28.399-18.7,45.106-18.7
			c0.011,0,0.022,0,0.033,0v-23.199C156.338-958.061,156.327-958.061,156.316-958.061z"/>
		<path id="path4149-9-8_2_" inkscape:connector-curvature="0" fill="#ECF0F1" d="M250.18-958.061l-82.226,82.213l-21.304-21.297
			l-16.408,16.409l21.306,21.293l14.498,14.511l1.908,1.91l98.636-98.637L250.18-958.061z"/>
	</g>
</g>
</svg>
