<?xml version="1.0" encoding="utf-8"?>
<!-- Generator: Adobe Illustrator 16.0.0, SVG Export Plug-In . SVG Version: 6.00 Build 0)  -->
<!DOCTYPE svg PUBLIC "-//W3C//DTD SVG 1.1//EN" "http://www.w3.org/Graphics/SVG/1.1/DTD/svg11.dtd">
<svg version="1.1" id="Layer_1" xmlns="http://www.w3.org/2000/svg" xmlns:xlink="http://www.w3.org/1999/xlink" x="0px" y="0px"
	 width="512px" height="512px" viewBox="0 0 512 512" enable-background="new 0 0 512 512" xml:space="preserve">
<g id="Layer_1_1_">
	<g id="Layer_2" display="none">
	</g>
	<g id="shadows">
		<g opacity="0.9">
			<g>
				<path fill="#B7B7B7" d="M466.5,381.5c0,48.6-39.4,88-88,88h-246c-48.604,0-88-39.4-88-88V164.833c0-48.601,39.396-88,88-88h246
					c48.6,0,88,39.399,88,88V381.5z"/>
			</g>
		</g>
		<g>
			<g>
				<path fill="#FFFFFF" d="M466.5,360.5c0,48.6-39.4,88-88,88h-246c-48.604,0-88-39.4-88-88V143.833c0-48.601,39.396-88,88-88h246
					c48.6,0,88,39.399,88,88V360.5z"/>
			</g>
		</g>
	</g>
	<path fill="#475BA9" stroke="#E2E2E2" stroke-width="10" stroke-miterlimit="10" d="M465.5,362.667c0,48.6-39.399,88-88,88h-246
		c-48.604,0-88-39.4-88-88V146c0-48.601,39.396-88,88-88h246c48.601,0,88,39.399,88,88V362.667z"/>
</g>
<g id="Calque.__202" transform="matrix(0.98038434,0,0,1,2.8432893,0)">
	<g id="shape">
		<path id="path" inkscape:connector-curvature="0" fill-opacity="0.098" d="M367.544,131.433c-0.088-3.804-1.488-7.065-4.203-9.781
			c-2.797-2.796-6.182-4.202-10.139-4.202H159.825c-3.958,0-7.343,1.406-10.139,4.202c-2.711,2.71-4.116,5.98-4.202,9.781v241.862
			c0,3.959,1.405,7.346,4.202,10.141c2.796,2.797,6.18,4.205,10.139,4.205h193.377c3.958,0,7.342-1.408,10.139-4.205
			c2.796-2.795,4.203-6.182,4.203-10.141V131.433z"/>
	</g>
</g>
<g id="Calque.__203" transform="translate(13.01695,17.355932)">
	<g id="shape2">
		<path id="path1" inkscape:connector-curvature="0" fill="#CCCCCC" d="M348.309,103.538c-2.795-2.796-6.181-4.202-10.139-4.202
			H144.795c-3.958,0-7.343,1.406-10.14,4.202c-2.71,2.71-4.116,5.98-4.202,9.781v-0.007v207.824
			c0.088,3.801,1.488,7.053,4.202,9.768c2.797,2.797,6.181,4.201,10.14,4.201h193.375c3.958,0,7.344-1.404,10.139-4.201
			c2.712-2.713,4.117-5.965,4.203-9.768V113.312v0.007C352.427,109.519,351.021,106.248,348.309,103.538L348.309,103.538z"/>
		<path id="path2" inkscape:connector-curvature="0" fill="#86837C" fill-opacity="0.9882" d="M134.656,330.904
			c-2.713-2.715-4.114-5.967-4.202-9.768v34.047c0,3.957,1.405,7.344,4.202,10.139c2.797,2.797,6.181,4.203,10.14,4.203h193.375
			c3.958,0,7.344-1.406,10.139-4.203c2.799-2.795,4.203-6.182,4.203-10.139v-34.047c-0.086,3.803-1.491,7.055-4.203,9.768
			c-2.795,2.797-6.181,4.201-10.139,4.201H144.795C140.837,335.105,137.453,333.701,134.656,330.904z"/>
	</g>
</g>
<g id="Calque.__204">
	<g id="Symbole.__2026_1">
		<g id="Calque.__208">
			<g id="shape17">
				<path id="path11" fill="#3B3A36" d="M252.474,363.246c0-1.588-0.56-2.943-1.68-4.061c-1.118-1.117-2.467-1.678-4.058-1.678
					h-86.62c-1.592,0-2.94,0.561-4.06,1.678c-1.118,1.117-1.678,2.467-1.678,4.061v2.35c0,1.594,0.56,2.941,1.678,4.061
					c1.119,1.117,2.467,1.676,4.06,1.676h86.62c1.591,0,2.939-0.559,4.058-1.676c1.12-1.119,1.68-2.467,1.68-4.061V363.246z"/>
			</g>
		</g>
	</g>
</g>
<g id="Calque.__205">
	<g id="shape6">
		<path id="path3" fill-opacity="0.2" d="M347.599,361.566c-1.252-1.252-2.769-1.879-4.547-1.879s-3.298,0.629-4.56,1.879
			c-1.248,1.264-1.879,2.781-1.879,4.561c0,1.777,0.631,3.299,1.879,4.547c1.262,1.264,2.781,1.893,4.56,1.893
			s3.298-0.629,4.547-1.893c1.261-1.248,1.894-2.77,1.894-4.547C349.492,364.348,348.86,362.83,347.599,361.566z M328.998,366.127
			c0-1.779-0.632-3.297-1.894-4.561c-1.249-1.25-2.768-1.879-4.546-1.879c-1.779,0-3.299,0.629-4.562,1.879
			c-1.247,1.264-1.878,2.781-1.878,4.561c0,1.777,0.631,3.299,1.878,4.547c1.263,1.264,2.782,1.893,4.562,1.893
			c1.778,0,3.297-0.629,4.546-1.893C328.366,369.426,328.998,367.904,328.998,366.127z"/>
	</g>
</g>
<g id="Calque.__206">
	<g id="shape10">
		<path id="path6" fill="#FFFFFF" fill-opacity="0.098" d="M305.649,284.08c15.155-15.152,22.733-33.447,22.733-54.883
			c0-21.44-7.572-39.725-22.733-54.884c-15.156-15.158-33.441-22.73-54.882-22.73c-21.441,0-39.726,7.573-54.884,22.73
			c-15.158,15.159-22.73,33.444-22.73,54.884c0,21.44,7.572,39.725,22.73,54.883c15.159,15.162,33.443,22.73,54.884,22.73
			C272.207,306.811,290.492,299.242,305.649,284.08z"/>
		<path id="path7" fill="#CCCC00" d="M341.69,369.697c1.778,0,3.299-0.629,4.547-1.893c1.261-1.248,1.893-2.77,1.893-4.545
			c0-1.779-0.632-3.299-1.893-4.561c-1.248-1.252-2.769-1.881-4.547-1.881c-1.779,0-3.298,0.629-4.56,1.881
			c-1.249,1.262-1.88,2.781-1.88,4.561c0,1.775,0.631,3.297,1.88,4.545C338.392,369.068,339.91,369.697,341.69,369.697z
			 M327.634,363.26c0-1.779-0.631-3.299-1.892-4.561c-1.247-1.252-2.769-1.881-4.547-1.881s-3.298,0.629-4.561,1.881
			c-1.247,1.262-1.878,2.781-1.878,4.561c0,1.775,0.631,3.297,1.878,4.545c1.263,1.264,2.782,1.893,4.561,1.893
			s3.3-0.629,4.547-1.893C327.003,366.557,327.634,365.035,327.634,363.26z"/>
	</g>
</g>
<g id="layer1" transform="matrix(10.039548,0,0,10.039548,-5251.7386,-5638.8774)" inkscape:label="Capa 1">
	<path id="rect3280" inkscape:connector-curvature="0" fill="#FF0000" stroke="#E90B0B" stroke-width="5.109" d="M547.56,580.22
		v3.729h-3.729v1.147h3.729v3.729h1.147v-3.729h3.729v-1.147h-3.729v-3.729H547.56z"/>
</g>
</svg>
