<?xml version="1.0" encoding="utf-8"?>
<!-- Generator: Adobe Illustrator 16.0.0, SVG Export Plug-In . SVG Version: 6.00 Build 0)  -->
<!DOCTYPE svg PUBLIC "-//W3C//DTD SVG 1.1//EN" "http://www.w3.org/Graphics/SVG/1.1/DTD/svg11.dtd">
<svg version="1.1" id="Layer_1" xmlns="http://www.w3.org/2000/svg" xmlns:xlink="http://www.w3.org/1999/xlink" x="0px" y="0px"
	 width="512px" height="512px" viewBox="0 0 512 512" enable-background="new 0 0 512 512" xml:space="preserve">
<g id="Layer_1_1_">
	<g id="Layer_2" display="none">
	</g>
	<g id="shadows">
		<g opacity="0.9">
			<g>
				<path fill="#B7B7B7" d="M466.5,381.5c0,48.6-39.4,88-88,88h-246c-48.604,0-88-39.4-88-88V164.833c0-48.601,39.396-88,88-88h246
					c48.6,0,88,39.399,88,88V381.5z"/>
			</g>
		</g>
		<g>
			<g>
				<path fill="#FFFFFF" d="M466.5,360.5c0,48.6-39.4,88-88,88h-246c-48.604,0-88-39.4-88-88V143.833c0-48.601,39.396-88,88-88h246
					c48.6,0,88,39.399,88,88V360.5z"/>
			</g>
		</g>
	</g>
	<path fill="#FDEE23" d="M465.5,362.667c0,48.6-39.399,88-88,88h-246c-48.604,0-88-39.4-88-88V146c0-48.601,39.396-88,88-88h246
		c48.601,0,88,39.399,88,88V362.667z"/>
</g>
<g id="layer1" transform="translate(-384.57143,-499.798)" inkscape:label="Capa 1" inkscape:groupmode="layer">
	<g id="g4317" transform="matrix(1.2986722,0,0,1.2986722,305.2978,499.67909)">
	</g>
	<path id="path4337-0" inkscape:connector-curvature="0" fill="#7CC686" d="M697.068,729.533
		c-17.281-20.074-32.812-33.037-55.82,0.739c-13.75,20.073-95.921,135.228-110.996,153.563c-4.4,5.32-6.967,8.992-10.313,11.178
		c0-7.281,56.784-99.854,72.633-126.656c19.111-32.221,18.513-30.345,16.227-30.345c-3.251,0-9.81,4.905-19.84,15.897
		c-18.245,20.031-72.316,94.672-76.072,93.54c1.278-5.411,43.632-72.218,62.826-99.861c16.544-23.826,10.219-25.669,0.738-23.325
		c-40.415,9.951-88.811,33.918-90.372,33.039c0.598-1.234,162.922-118.689,184.647-120.943c2.516-0.269,7.836-4.902,17.323-8.796
		c10.311-4.167,17.233-7.604,18.973-6.514c-7.567,10.865-11.501,13.058-11.591,16.543c-0.097,5.723-2.068,14.979-4.262,17.96
		c41.976,28.776,58.344,126.806,70.299,205.711c2.84,18.699,5.5,32.813,6.188,41.159c-3.534-9.405-37.08-133.998-70.629-172.9"/>
	<path id="path4433" inkscape:connector-curvature="0" fill="#7CC686" fill-opacity="0.3137" d="M704.768,621.022
		c-1.127,0.251-2.702,0.825-4.483,1.516c-3.038,3.644-4.799,5.543-4.854,7.733c-0.097,5.723-2.075,14.983-4.269,17.959
		c0.771,0.53,1.478,1.248,2.234,1.822c1.136-3.96,1.974-8.851,2.034-12.464c0.097-3.482,4.016-5.668,11.591-16.533
		C706.583,620.784,705.827,620.788,704.768,621.022L704.768,621.022z M667.934,702.155c-7.975,0.203-16.608,6.026-26.674,20.802
		c-13.752,20.073-95.936,135.222-111.012,153.558c-1.653,1.998-2.901,3.545-4.176,5.092c-3.557,6.723-6.125,11.989-6.125,13.406
		c3.344-2.193,5.905-5.864,10.305-11.178c15.075-18.336,97.257-133.483,111.009-153.556c23.003-33.775,38.533-20.823,55.814-0.75
		h-0.062c33.563,38.902,67.108,163.495,70.643,172.894c-0.274-3.313-1.046-8.195-1.829-13.248
		c-6.517-20.829-37.204-130.326-68.813-166.968l0.062,0.021c-9.728-11.292-18.884-20.332-29.141-20.07V702.155z M582.656,716.261
		c-1.668-0.212-3.826,0.11-6.198,0.698c-24.243,5.968-50.194,16.527-68.35,24.192c-11.728,8.466-21.906,15.882-22.033,16.141
		c1.561,0.88,49.968-23.082,90.382-33.033c3.603-0.891,6.714-1.147,8.321,0.145C586.815,718.942,585.646,716.647,582.656,716.261
		L582.656,716.261z M609.545,730.692c-0.195-0.018-0.464,0.02-0.75,0.02c-3.251,0-9.806,4.898-19.836,15.892
		c-14.103,15.478-49.382,63.235-66.513,83.762c-5.325,8.826-9.195,15.577-9.553,17.084c3.753,1.14,57.821-73.517,76.066-93.543
		c7.429-8.142,12.935-12.896,16.624-14.837C608.48,734.084,610.291,730.735,609.545,730.692L609.545,730.692z"/>
</g>
</svg>
