<?xml version="1.0" encoding="utf-8"?>
<!-- Generator: Adobe Illustrator 16.0.0, SVG Export Plug-In . SVG Version: 6.00 Build 0)  -->
<!DOCTYPE svg PUBLIC "-//W3C//DTD SVG 1.1//EN" "http://www.w3.org/Graphics/SVG/1.1/DTD/svg11.dtd">
<svg version="1.1" id="Layer_1" xmlns="http://www.w3.org/2000/svg" xmlns:xlink="http://www.w3.org/1999/xlink" x="0px" y="0px"
	 width="512px" height="512px" viewBox="0 0 512 512" enable-background="new 0 0 512 512" xml:space="preserve">
<g id="Layer_1_1_">
	<g id="Layer_2" display="none">
	</g>
	<g id="shadows">
		<g opacity="0.9">
			<g>
				<path fill="#B7B7B7" d="M466.5,381.5c0,48.6-39.4,88-88,88h-246c-48.604,0-88-39.4-88-88V164.833c0-48.601,39.396-88,88-88h246
					c48.6,0,88,39.399,88,88V381.5z"/>
			</g>
		</g>
		<g>
			<g>
				<path fill="#FFFFFF" d="M466.5,360.5c0,48.6-39.4,88-88,88h-246c-48.604,0-88-39.4-88-88V143.833c0-48.601,39.396-88,88-88h246
					c48.6,0,88,39.399,88,88V360.5z"/>
			</g>
		</g>
	</g>
	<path fill="#37B44A" d="M465.5,362.667c0,48.6-39.399,88-88,88h-246c-48.604,0-88-39.4-88-88V146c0-48.601,39.396-88,88-88h246
		c48.601,0,88,39.399,88,88V362.667z"/>
</g>
<path id="path4130" inkscape:connector-curvature="0" sodipodi:nodetypes="cscccccscccscsccscsssccssscsccccscscccccc" fill="#F9F9F9" d="
	M123.776,121.473v193.658c0,20.555,7.562,38.627,22.193,53.203c12.506,12.344,27.487,20.385,44.387,22.193h47.73v-38.002
	l-41.043-0.305c-19.951,0-36.785-19.43-36.785-44.387V121.473H123.776L123.776,121.473z M260.887,153.394
	c-16.516,0-31.379,6.026-43.17,17.937c-11.785,11.905-17.938,26.702-17.938,43.474v84.82h38.61v-84.82
	c0-6.429,2.099-11.476,6.688-16.113c4.604-4.651,9.477-6.688,15.809-6.688c6.465,0,11.193,2.026,15.809,6.688
	c4.59,4.637,6.688,9.684,6.688,16.113v84.82h38.306v-84.82c0-6.429,2.099-11.476,6.688-16.113c4.615-4.662,9.648-6.688,16.113-6.688
	c6.332,0,11.203,2.037,15.809,6.688c4.59,4.637,6.688,9.684,6.688,16.113v84.212h38.609l-0.304-84.212
	c0-16.772-6.151-31.569-17.937-43.474c-11.791-11.911-26.351-17.937-42.866-17.937c-16.212,0-30.484,5.986-41.954,17.025
	C291.1,159.398,277.092,153.394,260.887,153.394L260.887,153.394z M405.598,320.604c-0.41,4.002-1.145,8.064-2.128,11.855
	C404.497,328.594,405.179,324.693,405.598,320.604z M366.076,321.516c-1.198,5.018-3.43,9.836-6.688,13.984
	C362.65,331.357,364.877,326.529,366.076,321.516z"/>
<path id="path3819" inkscape:connector-curvature="0" fill="#D2E2CB" fill-opacity="0.3996" d="M238.175,352.484v37.977h90.323
	c21.217,0,39.747-7.912,54.784-23.223h0.129c12.789-13.139,20.251-28.854,22.067-46.572v-21.555h-38.361v14.754
	c0,21.133-20.078,38.875-45.932,38.875L238.175,352.484L238.175,352.484z"/>
</svg>
