<?xml version="1.0" encoding="utf-8"?>
<!-- Generator: Adobe Illustrator 16.0.0, SVG Export Plug-In . SVG Version: 6.00 Build 0)  -->
<!DOCTYPE svg PUBLIC "-//W3C//DTD SVG 1.1//EN" "http://www.w3.org/Graphics/SVG/1.1/DTD/svg11.dtd">
<svg version="1.1" id="Layer_1" xmlns="http://www.w3.org/2000/svg" xmlns:xlink="http://www.w3.org/1999/xlink" x="0px" y="0px"
	 width="512px" height="512px" viewBox="0 0 512 512" enable-background="new 0 0 512 512" xml:space="preserve">
<g id="Layer_1_1_">
	<g id="Layer_2" display="none">
	</g>
	<g id="shadows">
		<g opacity="0.9">
			<g>
				<path fill="#B7B7B7" d="M466.5,381.5c0,48.6-39.4,88-88,88h-246c-48.604,0-88-39.4-88-88V164.833c0-48.601,39.396-88,88-88h246
					c48.6,0,88,39.399,88,88V381.5z"/>
			</g>
		</g>
		<g>
			<g>
				<path fill="#FFFFFF" d="M466.5,360.5c0,48.6-39.4,88-88,88h-246c-48.604,0-88-39.4-88-88V143.833c0-48.601,39.396-88,88-88h246
					c48.6,0,88,39.399,88,88V360.5z"/>
			</g>
		</g>
	</g>
	<radialGradient id="SVGID_1_" cx="254.5002" cy="254.3335" r="203.7987" gradientUnits="userSpaceOnUse">
		<stop  offset="0" style="stop-color:#F69453"/>
		<stop  offset="0.5" style="stop-color:#F37521"/>
		<stop  offset="1" style="stop-color:#D4622A"/>
	</radialGradient>
	<path fill="url(#SVGID_1_)" d="M465.5,362.667c0,48.6-39.399,88-88,88h-246c-48.604,0-88-39.4-88-88V146c0-48.601,39.396-88,88-88
		h246c48.601,0,88,39.399,88,88V362.667z"/>
</g>
<path id="path3841" inkscape:connector-curvature="0" inkscape:transform-center-x="6.900549" fill="#F9F9F9" d="M331.477,103.115
	c-9.213,0.297-18.059,5.282-23.002,13.851c-7.534,13.063-3.166,29.319,9.893,36.853c13.061,7.535,30.311,3.164,37.845-9.892
	c7.534-13.065,2.922-29.57-10.142-37.102C341.59,104.232,336.304,103.115,331.477,103.115z M262.221,132.3
	c-18.882,0-36.328,4.515-52.187,12.368l19.293,33.886c10.218-4.761,20.895-7.914,32.894-7.914c41.666,0,76.575,32.471,80.142,73.211
	l38.336-0.741c-1.887-30.09-15.158-57.074-35.369-76.922c-10.354,3.918-21.779,3.522-32.155-2.475
	c-10.356-5.979-16.778-16.736-18.549-27.701C284.543,133.22,273.204,132.3,262.221,132.3z M196.925,152.335
	c-23.89,15.971-41.865,39.932-49.221,68.514c8.619,7.012,14.593,17.927,14.593,29.928c0,12.002-5.95,22.888-14.593,29.929
	c7.378,28.604,25.331,52.563,49.221,68.511l20.036-33.142c-20.506-14.416-33.886-38.295-33.886-65.298
	c0-26.98,13.38-50.837,33.886-65.297L196.925,152.335z M123.714,223.816c-15.067,0-27.703,11.871-27.703,26.96
	c0,15.07,12.636,27.701,27.703,27.701c15.092,0,26.982-12.655,26.959-27.701C150.673,235.708,138.782,223.816,123.714,223.816z
	 M342.363,257.7c-3.566,40.721-38.476,73.214-80.142,73.214c-12,0-22.676-3.161-32.894-7.916l-19.293,33.887
	c15.859,7.851,33.305,12.368,52.187,12.368c10.983,0,22.322-0.897,32.404-3.711c1.765-10.966,8.196-21.703,18.549-27.7
	c10.38-5.989,21.779-6.404,32.155-2.476c20.211-19.873,33.474-46.83,35.369-76.922L342.363,257.7z M331.477,343.777
	c-4.398,0-9.029,1.592-13.109,3.957c-13.059,7.534-17.427,23.815-9.893,36.851c7.529,13.086,24.558,17.677,37.596,10.145
	c13.063-7.534,17.676-24.089,10.142-37.102C351.03,348.632,341.161,343.532,331.477,343.777z"/>
</svg>
