<?xml version="1.0" encoding="utf-8"?>
<!-- Generator: Adobe Illustrator 16.0.0, SVG Export Plug-In . SVG Version: 6.00 Build 0)  -->
<!DOCTYPE svg PUBLIC "-//W3C//DTD SVG 1.1//EN" "http://www.w3.org/Graphics/SVG/1.1/DTD/svg11.dtd">
<svg version="1.1" id="Layer_1" xmlns="http://www.w3.org/2000/svg" xmlns:xlink="http://www.w3.org/1999/xlink" x="0px" y="0px"
	 width="512px" height="512px" viewBox="0 0 512 512" enable-background="new 0 0 512 512" xml:space="preserve">
<g id="Layer_1_1_">
	<g id="Layer_2" display="none">
	</g>
	<g id="shadows">
		<g opacity="0.9">
			<g>
				<path fill="#B7B7B7" d="M466.5,381.5c0,48.6-39.4,88-88,88h-246c-48.604,0-88-39.4-88-88V164.833c0-48.601,39.396-88,88-88h246
					c48.6,0,88,39.399,88,88V381.5z"/>
			</g>
		</g>
		<g>
			<g>
				<path fill="#FFFFFF" d="M466.5,360.5c0,48.6-39.4,88-88,88h-246c-48.604,0-88-39.4-88-88V143.833c0-48.601,39.396-88,88-88h246
					c48.6,0,88,39.399,88,88V360.5z"/>
			</g>
		</g>
	</g>
	<path fill="#444FA1" d="M465.5,362.667c0,48.6-39.399,88-88,88h-246c-48.604,0-88-39.4-88-88V146c0-48.601,39.396-88,88-88h246
		c48.601,0,88,39.399,88,88V362.667z"/>
</g>
<path id="path3095" inkscape:connector-curvature="0" fill="#F9F9F9" d="M360.035,410.488
	c19.796-127.197-33.388-168.8-23.476-185.847c7.206-12.36,39.089-6.817,39.089-6.817c-24.887-20.798-47.076-21.722-68.437-16.291
	c-26.018-39.342-132.432-91.251-176.134-19.56c0,0-25.043,8.267-23,17.479c2.013,9.008,39.594-4.26,92.953,20.944
	c-3.156,36.815,13.158,60.336,43.202,74.481c-8.214-14.672-19.885-28.189-8.031-52.035c37.866,24.797,57.209,56.736,73.559,88.773
	c-3.662-33.141-36.5-115.429-140.643-139.404C251.896,124.605,371.844,274.821,360.035,410.488z"/>
</svg>
