<?xml version="1.0" encoding="utf-8"?>
<!-- Generator: Adobe Illustrator 16.0.0, SVG Export Plug-In . SVG Version: 6.00 Build 0)  -->
<!DOCTYPE svg PUBLIC "-//W3C//DTD SVG 1.1//EN" "http://www.w3.org/Graphics/SVG/1.1/DTD/svg11.dtd">
<svg version="1.1" id="Layer_1" xmlns="http://www.w3.org/2000/svg" xmlns:xlink="http://www.w3.org/1999/xlink" x="0px" y="0px"
	 width="512px" height="512px" viewBox="0 0 512 512" enable-background="new 0 0 512 512" xml:space="preserve">
<g id="Layer_1_1_">
	<g id="Layer_2" display="none">
	</g>
	<g id="shadows">
		<g opacity="0.9">
			<g>
				<path fill="#B7B7B7" d="M466.5,381.5c0,48.6-39.4,88-88,88h-246c-48.604,0-88-39.4-88-88V164.833c0-48.601,39.396-88,88-88h246
					c48.6,0,88,39.399,88,88V381.5z"/>
			</g>
		</g>
		<g>
			<g>
				<path fill="#FFFFFF" d="M466.5,360.5c0,48.6-39.4,88-88,88h-246c-48.604,0-88-39.4-88-88V143.833c0-48.601,39.396-88,88-88h246
					c48.6,0,88,39.399,88,88V360.5z"/>
			</g>
		</g>
	</g>
	<path fill="#081627" d="M465.5,362.667c0,48.6-39.399,88-88,88h-246c-48.604,0-88-39.4-88-88V146c0-48.601,39.396-88,88-88h246
		c48.601,0,88,39.399,88,88V362.667z"/>
</g>
<path id="path3005" inkscape:connector-curvature="0" opacity="0.76" fill="#FF0000" enable-background="new    " d="
	M164.755,191.158c-33.232-35.808-61.385-66.101-62.564-67.317c-1.178-1.216-1.447-2.607-0.596-3.092
	c0.851-0.485,4.871,1.858,8.932,5.207c4.062,3.349,36.143,29.337,71.291,57.754c35.147,28.417,63.985,51.809,64.084,51.983
	c0.1,0.174-2.853,2.454-6.562,5.066c-3.708,2.612-8.333,7.124-10.278,10.028c-1.945,2.902-3.615,5.323-3.71,5.378
	C225.255,256.221,197.986,226.968,164.755,191.158L164.755,191.158z"/>
<path id="path3777" sodipodi:cy="505.39194" sodipodi:type="arc" sodipodi:cx="-472.78601" sodipodi:ry="35.866524" sodipodi:rx="35.866524" fill="#E5E5E5" d="
	M294.101,248.199c10.883,19.072,4.242,43.359-14.83,54.241c-19.075,10.884-43.36,4.242-54.242-14.831
	c-0.008-0.015-0.017-0.029-0.024-0.043c-10.884-19.074-4.245-43.359,14.83-54.243c19.075-10.882,43.359-4.242,54.242,14.832
	C294.084,248.17,294.093,248.185,294.101,248.199z"/>
</svg>
