<?xml version="1.0" encoding="utf-8"?>
<!-- Generator: Adobe Illustrator 16.0.0, SVG Export Plug-In . SVG Version: 6.00 Build 0)  -->
<!DOCTYPE svg PUBLIC "-//W3C//DTD SVG 1.1//EN" "http://www.w3.org/Graphics/SVG/1.1/DTD/svg11.dtd">
<svg version="1.1" id="Layer_1" xmlns="http://www.w3.org/2000/svg" xmlns:xlink="http://www.w3.org/1999/xlink" x="0px" y="0px"
	 width="512px" height="512px" viewBox="0 0 512 512" enable-background="new 0 0 512 512" xml:space="preserve">
<g id="Layer_1_1_">
	<g id="Layer_2" display="none">
	</g>
	<g id="shadows">
		<g opacity="0.9">
			<g>
				<path fill="#B7B7B7" d="M466.5,381.5c0,48.6-39.4,88-88,88h-246c-48.602,0-88-39.4-88-88V164.833c0-48.601,39.398-88,88-88h246
					c48.6,0,88,39.399,88,88V381.5z"/>
			</g>
		</g>
		<g>
			<g>
				<path fill="#FFFFFF" d="M466.5,360.5c0,48.6-39.4,88-88,88h-246c-48.602,0-88-39.4-88-88V143.833c0-48.601,39.398-88,88-88h246
					c48.6,0,88,39.399,88,88V360.5z"/>
			</g>
		</g>
	</g>
	<path fill="#ED2C92" stroke="#E2E2E2" stroke-width="10" stroke-miterlimit="10" d="M465.5,362.667c0,48.6-39.399,88-88,88h-246
		c-48.602,0-88-39.4-88-88V146c0-48.601,39.398-88,88-88h246c48.601,0,88,39.399,88,88V362.667z"/>
</g>
<g>
	<g>
		<path d="M257.016,77.651h-0.184l0.266,0.007l0.368,0.007c0.587,0.007,1.071,0.021,1.494,0.041l0.784,0.041
			c0.021,0,0.042,0,0.062,0.007l7.068,0.239C263.613,77.787,260.324,77.671,257.016,77.651z"/>
	</g>
</g>
<g id="layer1" transform="translate(38.119153,-397.84494)" inkscape:label="Capa 1" inkscape:groupmode="layer">
	<g id="g4061" transform="translate(-14.145496,-0.83153893)">
		<path id="path3858-1-2-6" sodipodi:nodetypes="ccccc" inkscape:connector-curvature="0" fill="#95A5A6" d="M280.952,632.404
			c-4.016,28.569-19.141,72.567-50.854,107.41c0.277,1.136,17.145,12.576,17.145,12.576c40.297-47.268,47.48-83.054,53.984-114.557
			C301.228,637.833,289.511,631.261,280.952,632.404L280.952,632.404z"/>
		<path id="path3830-46" sodipodi:nodetypes="cccscc" inkscape:connector-curvature="0" fill="#BDC3C7" d="M158.467,622.309
			c-22.22-122.622,120.036-150.927,127.091-10.187l20.187,4.798c4.547-71.625-42.064-123.312-92.525-120.661
			c-44.736,2.342-91.371,53.699-74.606,134.991L158.467,622.309z"/>
		<path id="path3830-4-9" sodipodi:nodetypes="cccscc" inkscape:connector-curvature="0" fill="#7F8C8D" d="M217.353,755.925
			c-91.087,69.688-189.823-14.595-72.729-104.035l-6.105-21.84C53.77,679.394,57.147,750.671,93.347,785.907
			c32.105,31.245,100.702,24.986,140.905-17.482L217.353,755.925z"/>
		<path id="path3832-3" sodipodi:nodetypes="sccssssccsscsc" inkscape:connector-curvature="0" fill="#ECF0F1" d="M243.05,607.534
			c-65.692-1.142-104.625,22.623-104.625,22.623c0.473,1.958-0.145,16.805,30.704,71.508
			c28.284,42.277,68.014,77.944,117.151,87.665c49.135,9.721,102.588-17.599,105.439-67.873
			c2.867-50.275-36.258-78.145-44.842-84.432C338.319,630.737,308.763,608.677,243.05,607.534L243.05,607.534z M230.528,629.348
			c15.656-0.316,34.34,0.808,56.559,4.04c98.171,28.686,89.687,96.958,72.72,114.735c-15.428,16.16-52.116,35.549-108.675,5.653
			c-56.552-29.893-86.448-110.691-86.448-110.691S183.608,630.259,230.528,629.348z"/>
	</g>
</g>
</svg>
