<?xml version="1.0" encoding="utf-8"?>
<!-- Generator: Adobe Illustrator 16.0.0, SVG Export Plug-In . SVG Version: 6.00 Build 0)  -->
<!DOCTYPE svg PUBLIC "-//W3C//DTD SVG 1.1//EN" "http://www.w3.org/Graphics/SVG/1.1/DTD/svg11.dtd">
<svg version="1.1" id="Layer_1" xmlns="http://www.w3.org/2000/svg" xmlns:xlink="http://www.w3.org/1999/xlink" x="0px" y="0px"
	 width="512px" height="512px" viewBox="0 0 512 512" enable-background="new 0 0 512 512" xml:space="preserve">
<g id="Layer_1_2_">
	<g id="Layer_1_1_">
		<g id="Layer_2" display="none">
			<rect x="91.5" y="319.991" display="inline" fill="none" width="157.718" height="139.39"/>
			<text transform="matrix(1 0 0 1 91.5002 324.1016)" display="inline" font-family="'MyriadPro-Regular'" font-size="5.7878">hhfh</text>
			
				<text transform="matrix(1 0 0 1 91.5002 324.1016)" display="inline" fill="none" stroke="#E2E2E2" stroke-width="60" stroke-miterlimit="10" font-family="'MyriadPro-Regular'" font-size="5.7878">hhfh</text>
		</g>
		<g id="shadows">
			<g opacity="0.9">
				<g>
					<path fill="#B7B7B7" d="M466.5,381.5c0,48.6-39.4,88-88,88h-246c-48.604,0-88-39.4-88-88V164.833c0-48.601,39.396-88,88-88h246
						c48.6,0,88,39.399,88,88V381.5z"/>
				</g>
			</g>
			<g>
				<g>
					<path fill="#FFFFFF" d="M466.5,360.5c0,48.6-39.4,88-88,88h-246c-48.604,0-88-39.4-88-88V143.833c0-48.601,39.396-88,88-88h246
						c48.6,0,88,39.399,88,88V360.5z"/>
				</g>
			</g>
		</g>
		<radialGradient id="SVGID_1_" cx="254.5002" cy="254.335" r="203.7994" gradientUnits="userSpaceOnUse">
			<stop  offset="0" style="stop-color:#64C08A"/>
			<stop  offset="0.5" style="stop-color:#00A550"/>
			<stop  offset="1" style="stop-color:#00914C"/>
		</radialGradient>
		<path fill="url(#SVGID_1_)" stroke="#E2E2E2" stroke-width="7" stroke-miterlimit="10" d="M465.5,146v216.67
			c0,15.62-4.07,30.29-11.2,43c-12.09,21.55-32.979,37.48-57.8,42.94c-6.12,1.35-12.48,2.06-19,2.06h-246
			c-30.22,0-56.89-15.24-72.72-38.45c-7.28-10.64-12.27-22.95-14.28-36.25c0-0.02-0.01-0.04-0.01-0.06
			c-0.65-4.32-0.99-8.74-0.99-13.24V146c0-4.53,0.34-8.98,1-13.33C50.93,90.39,87.43,58,131.5,58h246c6.52,0,12.88,0.71,19,2.06
			C435.97,68.74,465.5,103.92,465.5,146z"/>
	</g>
</g>
<path fill="#9CE0F2" d="M465.5,146v216.67c0,15.62-4.07,30.29-11.2,43c-12.09,21.55-32.979,37.48-57.8,42.94
	c-6.12,1.35-12.48,2.06-19,2.06h-246c-30.22,0-56.89-15.24-72.72-38.45c-7.28-10.64-12.27-22.95-14.28-36.25v-243.3
	C50.93,90.39,87.43,58,131.5,58h246c6.52,0,12.88,0.71,19,2.06C435.97,68.74,465.5,103.92,465.5,146z"/>
<path fill="#40B3DB" d="M426.72,405.67c-28.08,0-55.5-5.85-80.63-16.85c-25.1-10.99-47.899-27.11-66.74-47.63
	c-37.66-41.04-91.2-64.48-147.359-64.48h-87.5v100.213c0.001,0.072,0.001,0.145,0,0.217v0.287c0.002,0.013,0.007,0.025,0.01,0.039
	v-1.496c2.01,13.3,7,25.61,14.28,36.25c15.83,23.21,42.5,38.45,72.72,38.45h246c6.52,0,12.88-0.71,19-2.06
	c24.82-5.46,45.71-21.391,57.8-42.94H426.72z"/>
<ellipse fill="#FFA91F" cx="327.755" cy="174.319" rx="72.601" ry="71.527"/>
</svg>
