<?xml version="1.0" encoding="utf-8"?>
<!-- Generator: Adobe Illustrator 16.0.0, SVG Export Plug-In . SVG Version: 6.00 Build 0)  -->
<!DOCTYPE svg PUBLIC "-//W3C//DTD SVG 1.1//EN" "http://www.w3.org/Graphics/SVG/1.1/DTD/svg11.dtd">
<svg version="1.1" id="Layer_1" xmlns="http://www.w3.org/2000/svg" xmlns:xlink="http://www.w3.org/1999/xlink" x="0px" y="0px"
	 width="512px" height="512px" viewBox="0 0 512 512" enable-background="new 0 0 512 512" xml:space="preserve">
<g id="Layer_1_1_">
	<g id="Layer_2" display="none">
	</g>
	<g id="shadows">
		<g opacity="0.9">
			<g>
				<path fill="#B7B7B7" d="M466.5,381.5c0,48.6-39.4,88-88,88h-246c-48.602,0-88-39.4-88-88V164.833c0-48.601,39.398-88,88-88h246
					c48.6,0,88,39.399,88,88V381.5z"/>
			</g>
		</g>
		<g>
			<g>
				<path fill="#FFFFFF" d="M466.5,360.5c0,48.6-39.4,88-88,88h-246c-48.602,0-88-39.4-88-88V143.833c0-48.601,39.398-88,88-88h246
					c48.6,0,88,39.399,88,88V360.5z"/>
			</g>
		</g>
	</g>
	<radialGradient id="SVGID_1_" cx="254.5002" cy="254.335" r="203.7994" gradientUnits="userSpaceOnUse">
		<stop  offset="0" style="stop-color:#F074AC"/>
		<stop  offset="0.5" style="stop-color:#EB008B"/>
		<stop  offset="1" style="stop-color:#CD118C"/>
	</radialGradient>
	<path fill="url(#SVGID_1_)" stroke="#E2E2E2" stroke-width="10" stroke-miterlimit="10" d="M465.5,146v216.67
		c0,42.9-30.7,78.64-71.34,86.42c-5.391,1.04-10.96,1.58-16.66,1.58h-246c-5.69,0-11.26-0.54-16.65-1.58
		c-40.64-7.78-71.35-43.51-71.35-86.42V146c0-48.6,39.4-88,88-88h246c11.66,0,22.8,2.27,32.98,6.4
		C442.74,77.44,465.5,109.06,465.5,146z"/>
	
		<g id="svg2" xmlns:cc="http://creativecommons.org/ns#" xmlns:svg="http://www.w3.org/2000/svg" xmlns:inkscape="http://www.inkscape.org/namespaces/inkscape" xmlns:dc="http://purl.org/dc/elements/1.1/" xmlns:rdf="http://www.w3.org/1999/02/22-rdf-syntax-ns#" xmlns:sodipodi="http://sodipodi.sourceforge.net/DTD/sodipodi-0.dtd" sodipodi:docname="amazon.svg" inkscape:version="0.48.4 r9939" display="none">
		
			<sodipodi:namedview  bordercolor="#666666" pagecolor="#ffffff" inkscape:zoom="0.51420519" borderopacity="1.0" showgrid="false" inkscape:cy="331.75675" inkscape:cx="125.01135" id="base" inkscape:document-units="px" inkscape:pageshadow="2" inkscape:window-width="1360" inkscape:window-y="25" inkscape:current-layer="layer1" inkscape:window-height="719" inkscape:window-maximized="1" inkscape:window-x="0" inkscape:pageopacity="0.0">
			</sodipodi:namedview>
		<path display="inline" fill="#EF3A24" d="M50.502,119.833h409.995c-12.802-32.778-44.688-56-81.997-56h-246
			C95.188,63.833,63.304,87.055,50.502,119.833z"/>
		<g display="inline">
			<g>
				<rect x="172.5" y="147" fill="none" width="305" height="240"/>
				<text transform="matrix(1 0 0 1 172.4998 336.999)" fill="#FF9900" font-family="'Tahoma'" font-size="250">A</text>
			</g>
		</g>
	</g>
	<ellipse display="none" fill="#B4DFF7" cx="147.5" cy="178" rx="63" ry="61.5"/>
	<circle display="none" fill="#31C4E9" cx="146.5" cy="171.5" r="62"/>
</g>
<g id="Layer_3" display="none">
	<path display="inline" fill="#200A7F" stroke="#18E5EA" stroke-width="20" stroke-miterlimit="10" d="M401.137,212.167
		c5.104,15.338,7.863,31.744,7.863,48.795c0,85.328-69.173,154.5-154.5,154.5c-85.328,0-154.5-69.172-154.5-154.5
		s69.172-154.5,154.5-154.5c51.227,0,96.63,24.93,124.738,63.319"/>
	<path display="inline" fill="#EF0B79" d="M333.363,255.151c0,4.226-3.301,7.651-7.371,7.651H174.872
		c-4.072,0-7.372-3.425-7.372-7.651l0,0c0-4.226,3.3-7.651,7.372-7.651h151.119C330.063,247.5,333.363,250.925,333.363,255.151
		L333.363,255.151z"/>
	<path display="inline" fill="#EF0B79" d="M333.363,284.797c0,4.227-3.301,7.65-7.371,7.65H174.872c-4.072,0-7.372-3.426-7.372-7.65
		l0,0c0-4.227,3.3-7.65,7.372-7.65h151.119C330.063,277.146,333.363,280.57,333.363,284.797L333.363,284.797z"/>
	<path display="inline" fill="#EF0B79" d="M333.363,313.008c0,4.227-3.301,7.651-7.371,7.651H174.872
		c-4.072,0-7.372-3.427-7.372-7.651l0,0c0-4.225,3.3-7.65,7.372-7.65h151.119C330.063,305.357,333.363,308.783,333.363,313.008
		L333.363,313.008z"/>
	<path display="inline" fill="#EF0B79" d="M333.363,338.352c0,4.229-3.301,7.651-7.371,7.651H174.872
		c-4.072,0-7.372-3.426-7.372-7.651l0,0c0-4.225,3.3-7.647,7.372-7.647h151.119C330.063,330.701,333.363,334.127,333.363,338.352
		L333.363,338.352z"/>
	<polygon display="inline" fill="#18E5EA" points="394.991,191.49 320.191,165.163 380.392,113.547 	"/>
	<g display="inline">
		<g>
			<g>
				<path fill="#E9F21C" d="M241.48,239.22c-2.284,0-4.444-1.068-5.833-2.901l-18.76-24.775c-2.44-3.222-1.805-7.81,1.417-10.251
					c3.229-2.442,7.813-1.803,10.253,1.417l12.338,16.293l31.033-49.826c2.135-3.429,6.646-4.478,10.082-2.344
					c3.432,2.135,4.479,6.65,2.342,10.08l-36.658,58.857c-1.272,2.047-3.472,3.333-5.879,3.442
					C241.702,239.217,241.592,239.22,241.48,239.22z"/>
			</g>
		</g>
	</g>
</g>
<g id="Layer_2_1_" display="none">
	<rect x="121" y="171.5" display="inline" fill="none" width="298" height="251"/>
	
		<text transform="matrix(1 0 0 1 120.9998 348.998)" display="inline" fill="#EF3A24" font-family="'MyriadPro-Regular'" font-size="250">24</text>
	<circle display="inline" fill="#FFFFFF" cx="138.25" cy="91.833" r="17.25"/>
	<circle display="inline" fill="#FFFFFF" cx="185.25" cy="91.833" r="17.25"/>
	<circle display="inline" fill="#FFFFFF" cx="232.25" cy="91.833" r="17.25"/>
	<circle display="inline" fill="#FFFFFF" cx="278.25" cy="91.833" r="17.25"/>
	<circle display="inline" fill="#FFFFFF" cx="323.25" cy="91.833" r="17.25"/>
	<circle display="inline" fill="#FFFFFF" cx="368.25" cy="91.833" r="17.25"/>
</g>
<path id="path2989_2_" inkscape:connector-curvature="0" sodipodi:nodetypes="sssssss" d="M249.096,170.239"/>
<path id="path2989_4_" inkscape:connector-curvature="0" sodipodi:nodetypes="sssssss" d="M225.299,165.481"/>
<path id="path2989_3_" inkscape:connector-curvature="0" sodipodi:nodetypes="sssssss" d="M227.382,177.597L227.382,177.597"/>
<path fill="#FFB751" d="M355.126,119.085h-16.911v280.174h16.911c13.952,0,25.368-11.416,25.368-25.368V144.453
	C380.494,130.501,369.078,119.085,355.126,119.085z"/>
<path fill="#FFD764" d="M363.582,373.891V144.453c0-13.952-11.415-25.368-25.367-25.368h-16.912v280.174h16.912
	C352.167,399.259,363.582,387.843,363.582,373.891z"/>
<path fill="#C6E8FF" d="M321.303,119.085h-16.912v280.174h16.912c13.952,0,25.367-11.416,25.367-25.368V144.453
	C346.67,130.501,335.255,119.085,321.303,119.085z"/>
<path fill="#FFFFFF" d="M329.758,373.891V144.453c0-13.952-11.415-25.368-25.367-25.368H153.875
	c-13.952,0-25.367,11.416-25.367,25.368v229.438c0,13.952,11.416,25.368,25.367,25.368h150.516
	C318.343,399.259,329.758,387.843,329.758,373.891z"/>
<path fill="#FF5440" d="M312.846,192.37l-66.801,7.505v-42.457l-16.912-3.382v47.74l-66.802,7.505v75.259l66.802-7.506v88.4h16.912
	v-90.302l66.801-7.505V192.37z M179.243,265.62v-41.221l49.89-5.606v41.223L179.243,265.62z M295.935,252.51l-49.89,5.605v-41.222
	l49.89-5.605V252.51z"/>
<path d="M355.126,114.857H153.875c-16.319,0-29.595,13.276-29.595,29.596v229.438c0,16.319,13.276,29.596,29.595,29.596h201.251
	c16.319,0,29.596-13.276,29.596-29.596V144.453C384.722,128.133,371.446,114.857,355.126,114.857z M376.266,373.891
	c0,11.656-9.482,21.14-21.14,21.14h-13.14c5.494-5.376,8.912-12.864,8.912-21.14V169.821c0-2.336-1.893-4.229-4.229-4.229
	c-2.334,0-4.228,1.893-4.228,4.229v204.069c0,11.656-9.483,21.14-21.14,21.14H153.875c-11.656,0-21.14-9.483-21.14-21.14V144.453
	c0-11.657,9.483-21.14,21.14-21.14h167.428c11.656,0,21.14,9.483,21.14,21.14v8.456c0,2.335,1.894,4.229,4.228,4.229
	c2.336,0,4.229-1.893,4.229-4.229v-8.456c0-8.275-3.418-15.763-8.912-21.14h13.14c11.657,0,21.14,9.483,21.14,21.14V373.891z"/>
<path d="M318.012,262.793l-0.938,0.104V192.37c0-1.204-0.513-2.35-1.41-3.152c-0.896-0.802-2.093-1.184-3.289-1.05l-62.103,6.978
	v-32.569l0.581,0.115c0.279,0.057,0.559,0.083,0.833,0.083c1.974,0,3.739-1.39,4.142-3.399c0.458-2.29-1.027-4.517-3.316-4.975
	l-5.602-1.12c-0.028-0.006-16.912-3.382-16.912-3.382c-0.027-0.006-5.672-1.135-5.672-1.135c-2.292-0.457-4.518,1.027-4.976,3.317
	c-0.458,2.29,1.027,4.517,3.317,4.975l2.238,0.448v40.494l-63.046,7.084c-2.139,0.24-3.756,2.05-3.756,4.201v75.195
	c-0.001,0.039-0.001,0.077,0,0.116v5.585c0,2.334,1.893,4.228,4.228,4.228c2.335,0,4.228-1.894,4.228-4.228v-1.858l58.346-6.556
	v49.848c0,2.334,1.893,4.228,4.228,4.228s4.228-1.894,4.228-4.228v-54.577c0-1.203-0.513-2.35-1.409-3.151
	c-0.898-0.803-2.093-1.185-3.29-1.05l-62.103,6.977v-66.748l63.046-7.084c2.139-0.24,3.755-2.05,3.755-4.201v-42.583l8.457,1.691
	v38.99c0,1.204,0.513,2.351,1.41,3.152s2.092,1.182,3.29,1.049l62.103-6.977v66.748l-63.046,7.084
	c-2.139,0.24-3.756,2.05-3.756,4.201v86.074h-8.457v-12.684c0-2.336-1.893-4.229-4.228-4.229s-4.228,1.893-4.228,4.229v16.911
	c0,2.335,1.893,4.229,4.228,4.229h16.912c2.335,0,4.228-1.894,4.228-4.229v-86.521l62.998-7.078
	c0.035-0.004,0.071-0.008,0.106-0.012l5.578-0.627c2.32-0.261,3.99-2.354,3.729-4.675
	C322.425,264.202,320.327,262.534,318.012,262.793z"/>
<path d="M246.045,262.344c0.156,0,0.314-0.009,0.472-0.026l49.89-5.606c2.139-0.24,3.756-2.049,3.756-4.201v-41.221
	c0-1.204-0.513-2.351-1.41-3.153c-0.896-0.802-2.093-1.184-3.29-1.048l-49.889,5.604c-2.139,0.24-3.756,2.05-3.756,4.201v41.223
	c0,1.203,0.513,2.349,1.41,3.151C244.006,261.964,245.011,262.344,246.045,262.344z M250.273,220.674l41.435-4.656v32.713
	l-41.435,4.655V220.674z"/>
<path d="M231.951,215.642c-0.898-0.802-2.093-1.183-3.29-1.049l-49.891,5.605c-2.139,0.24-3.756,2.049-3.756,4.201v41.222
	c0,1.204,0.514,2.351,1.41,3.153c0.779,0.695,1.784,1.075,2.817,1.075c0.157,0,0.315-0.01,0.472-0.026l49.891-5.606
	c2.138-0.239,3.755-2.049,3.755-4.201v-41.222C233.361,217.591,232.848,216.444,231.951,215.642z M224.905,256.235l-41.434,4.656
	V228.18l41.434-4.655V256.235z"/>
</svg>
