<?xml version="1.0" encoding="utf-8"?>
<!-- Generator: Adobe Illustrator 16.0.0, SVG Export Plug-In . SVG Version: 6.00 Build 0)  -->
<!DOCTYPE svg PUBLIC "-//W3C//DTD SVG 1.1//EN" "http://www.w3.org/Graphics/SVG/1.1/DTD/svg11.dtd">
<svg version="1.1" id="Layer_1" xmlns="http://www.w3.org/2000/svg" xmlns:xlink="http://www.w3.org/1999/xlink" x="0px" y="0px"
	 width="512px" height="512px" viewBox="0 0 512 512" enable-background="new 0 0 512 512" xml:space="preserve">
<g id="Layer_1_2_">
	<g id="Layer_1_1_">
		<g id="Layer_2" display="none">
		</g>
		<g id="shadows">
			<g opacity="0.9">
				<g>
					<path fill="#B7B7B7" d="M466.5,381.5c0,48.6-39.4,88-88,88h-246c-48.602,0-88-39.4-88-88V164.833c0-48.601,39.398-88,88-88h246
						c48.6,0,88,39.399,88,88V381.5z"/>
				</g>
			</g>
			<g>
				<g>
					<path fill="#FFFFFF" d="M466.5,360.5c0,48.6-39.4,88-88,88h-246c-48.602,0-88-39.4-88-88V143.833c0-48.601,39.398-88,88-88h246
						c48.6,0,88,39.399,88,88V360.5z"/>
				</g>
			</g>
		</g>
		<radialGradient id="SVGID_1_" cx="254.5002" cy="254.335" r="203.7994" gradientUnits="userSpaceOnUse">
			<stop  offset="0" style="stop-color:#6D583F"/>
			<stop  offset="0.5" style="stop-color:#483318"/>
			<stop  offset="1" style="stop-color:#282913"/>
		</radialGradient>
		<path fill="url(#SVGID_1_)" stroke="#E2E2E2" stroke-width="7" stroke-miterlimit="10" d="M465.5,146v216.67c0,48.6-39.4,88-88,88
			h-246c-30.22,0-56.89-15.24-72.72-38.45c-9.65-14.109-15.28-31.17-15.28-49.55V146c0-48.6,39.4-88,88-88h246
			C426.1,58,465.5,97.4,465.5,146z"/>
	</g>
</g>
<linearGradient id="SVGID_2_" gradientUnits="userSpaceOnUse" x1="254.5002" y1="434" x2="254.5002" y2="434">
	<stop  offset="0" style="stop-color:#5B57A5"/>
	<stop  offset="0.5" style="stop-color:#2E3092"/>
	<stop  offset="1" style="stop-color:#474374"/>
</linearGradient>
<radialGradient id="SVGID_3_" cx="254.5002" cy="434" r="0" gradientUnits="userSpaceOnUse">
	<stop  offset="0" style="stop-color:#F37E5F"/>
	<stop  offset="0.5" style="stop-color:#EC1C24"/>
	<stop  offset="1" style="stop-color:#CF232A"/>
</radialGradient>
<path fill="url(#SVGID_2_)" stroke="url(#SVGID_3_)" stroke-width="16" stroke-miterlimit="10" d="M254.5,434"/>
<g>
	<g>
		
			<image overflow="visible" opacity="0.75" width="321" height="321" xlink:href="A00C4D33.png"  transform="matrix(1 0 0 1 99.5002 93.5)">
		</image>
		<radialGradient id="SVGID_4_" cx="260.1702" cy="254.3301" r="139" gradientUnits="userSpaceOnUse">
			<stop  offset="0" style="stop-color:#FFE7A3"/>
			<stop  offset="0.5" style="stop-color:#FFCA05"/>
			<stop  offset="1" style="stop-color:#FAAC18"/>
		</radialGradient>
		<path fill="url(#SVGID_4_)" d="M260.17,115.33c-76.77,0-139,62.24-139,139c0,76.77,62.23,139,139,139c76.76,0,139-62.23,139-139
			C399.17,177.57,336.93,115.33,260.17,115.33z M259.5,270.5c-9.39,0-17-7.61-17-17c0-9.39,7.61-17,17-17c9.39,0,17,7.61,17,17
			C276.5,262.89,268.89,270.5,259.5,270.5z"/>
	</g>
</g>
<radialGradient id="SVGID_5_" cx="2.441406e-004" cy="222.5" r="0.9429" gradientUnits="userSpaceOnUse">
	<stop  offset="0" style="stop-color:#6D583F"/>
	<stop  offset="0.5" style="stop-color:#483318"/>
	<stop  offset="1" style="stop-color:#282913"/>
</radialGradient>
<ellipse fill="url(#SVGID_5_)" stroke="#E2E2E2" stroke-width="7" stroke-miterlimit="10" cx="0" cy="222.5" rx="0" ry="1.333"/>
<path fill="#231F20" d="M244.092,260.685c0,0-132.259,47.814-135.592,59.148s-8,15.334,6.667,20.667
	S244.092,260.685,244.092,260.685z"/>
<linearGradient id="SVGID_7_" gradientUnits="userSpaceOnUse" x1="-6.1663" y1="335.167" x2="-6.1663" y2="335.167">
	<stop  offset="0" style="stop-color:#5B57A5"/>
	<stop  offset="0.5" style="stop-color:#2E3092"/>
	<stop  offset="1" style="stop-color:#474374"/>
</linearGradient>
<path fill="#231F20" stroke="url(#SVGID_7_)" stroke-width="7" stroke-miterlimit="10" d="M-6.166,335.167"/>
</svg>
