<?xml version="1.0" encoding="utf-8"?>
<!-- Generator: Adobe Illustrator 16.0.0, SVG Export Plug-In . SVG Version: 6.00 Build 0)  -->
<!DOCTYPE svg PUBLIC "-//W3C//DTD SVG 1.1//EN" "http://www.w3.org/Graphics/SVG/1.1/DTD/svg11.dtd">
<svg version="1.1" id="Layer_1" xmlns="http://www.w3.org/2000/svg" xmlns:xlink="http://www.w3.org/1999/xlink" x="0px" y="0px"
	 width="512px" height="512px" viewBox="0 0 512 512" enable-background="new 0 0 512 512" xml:space="preserve">
<g id="Layer_1_2_">
	<g id="Layer_1_1_">
		<g id="Layer_2" display="none">
		</g>
		<g id="shadows">
			<g opacity="0.9">
				<g>
					<path fill="#B7B7B7" d="M466.5,381.5c0,48.6-39.4,88-88,88h-246c-48.602,0-88-39.4-88-88V164.833c0-48.601,39.398-88,88-88h246
						c48.6,0,88,39.399,88,88V381.5z"/>
				</g>
			</g>
			<g>
				<g>
					<path fill="#FFFFFF" d="M466.5,360.5c0,48.6-39.4,88-88,88h-246c-48.602,0-88-39.4-88-88V143.833c0-48.601,39.398-88,88-88h246
						c48.6,0,88,39.399,88,88V360.5z"/>
				</g>
			</g>
		</g>
		
			<radialGradient id="SVGID_1_" cx="963.3596" cy="833.2793" r="203.7985" gradientTransform="matrix(1 0 0 1 -708.8594 -578.9453)" gradientUnits="userSpaceOnUse">
			<stop  offset="0" style="stop-color:#F37E5F"/>
			<stop  offset="0.5" style="stop-color:#EC1C24"/>
			<stop  offset="1" style="stop-color:#CF232A"/>
		</radialGradient>
		<path fill="url(#SVGID_1_)" stroke="#E2E2E2" stroke-width="7" stroke-miterlimit="10" d="M465.5,362.667c0,48.6-39.399,88-88,88
			h-246c-48.602,0-88-39.4-88-88V146c0-48.601,39.398-88,88-88h246c48.601,0,88,39.399,88,88V362.667z"/>
	</g>
</g>
<g id="g3016" transform="matrix(0.11085336,0,0,0.11085336,35.049517,965.62241)">
	
		<path id="path3012" sodipodi:type="arc" sodipodi:ry="134.50847" sodipodi:rx="137.76271" sodipodi:cy="273.35593" sodipodi:cx="278.77966" fill="#D2D2D2" d="
		M2967.054-6430.28c0,523.541-435.147,948.011-972.012,948.011c-536.861,0-972.026-424.47-972.026-948.011
		c0-523.59,435.164-948.055,972.026-948.055C2531.907-7378.335,2967.054-6953.87,2967.054-6430.28z"/>
	<path id="path2986" inkscape:connector-curvature="0" fill="#FFFFFF" d="M1786.617-4956.64
		c-26.125-11.655-53.91-41.493-66.265-71.164c-6.427-15.346-12.853-74.158-18.302-168.104
		c-4.607-79.506-10.717-150.872-13.5-158.633c-3.749-10.263-21.989-19.989-67.49-35.811
		c-34.313-11.981-86.016-33.688-114.806-48.127c-28.913-14.5-58.773-26.349-66.481-26.349c-8.563,0-55.672,38.278-122.95,99.917
		c-60.006,54.91-118.722,104.852-130.548,110.895c-24.416,12.51-79.273,14.536-107.586,4.008
		c-22.53-8.404-260.881-243.011-276.135-271.827c-15.148-28.596-13.545-82.078,3.475-114.524
		c7.708-14.694,58.13-74.529,111.978-132.865c58.024-62.768,97.953-111.529,97.953-119.493c0-7.373-11.893-37-26.34-65.815
		c-14.509-28.825-36.123-80.308-48.065-114.418c-11.937-34.12-26.547-64.539-32.538-67.631
		c-5.946-3.048-75.956-9.206-155.545-13.593c-92.544-5.074-154.849-11.593-172.887-18.006
		c-34.37-12.298-73.921-54.381-79.541-84.581c-2.246-12.192-3.154-102.869-2.035-201.465l2.035-179.226l20.663-25.812
		c36.454-45.673,53.579-50.21,227.695-60.9c98.486-6.096,158.431-12.47,163.359-17.482c4.339-4.392,19.108-38.238,32.864-75.176
		c13.699-37,35.115-87.584,47.637-112.493c12.523-24.808,22.698-50.69,22.698-57.311c0-6.739-41.224-57.328-91.531-112.493
		c-50.421-55.183-98.592-109.617-107.102-120.845c-23.927-31.648-32.067-70.833-22.592-109.234
		c7.171-28.975,20.288-44.695,129.747-155.523c66.961-67.798,133.015-129.068,146.758-136.125
		c31.864-16.417,82.541-16.686,114.176-0.538c13.333,6.792,71.837,55.927,129.963,109.287
		c58.125,53.249,109.617,99.121,114.432,101.847c5.043,2.836,36.348-8.123,74.458-26.147
		c36.137-17.104,90.245-39.343,120.224-49.452c40.625-13.633,56.35-22.398,61.979-34.375c4.123-8.774,11.245-81.061,15.787-160.562
		c8.673-152.907,13.91-177.081,45.501-209.958c35.115-36.626,55.341-39.674,251.561-37.427l178.728,1.978l27.997,18.5
		c48.056,31.811,53.896,51.593,65.182,221.727c5.523,82.334,11.514,156.114,13.338,163.976
		c2.616,11.069,17.293,19.139,65.243,35.873c33.987,11.871,88.527,34.921,121.069,51.276c32.551,16.311,61.887,29.675,65.032,29.675
		c3.163,0,55.509-45.55,116.207-101.213c60.803-55.707,121.712-107.141,135.429-114.308c32.481-16.954,80.819-16.791,116.356,0.37
		c16.809,8.131,74.079,60.209,146.027,132.808c123.474,124.584,133.209,138.798,133.271,195.206
		c0.106,39.885-17.672,66.084-123.853,182.317c-57.702,63.204-104.922,117.585-104.922,120.893c0,3.251,15.1,37.317,33.503,75.656
		c18.43,38.339,40.374,92.007,48.77,119.277c10.448,33.903,19.593,51.434,28.746,55.341c7.435,3.149,81.893,9.946,165.39,15.179
		c165.822,10.387,192.532,17.166,220.317,56.249c26.323,36.894,29.336,64.587,27.072,244.98l-2.132,172.592l-20.333,28.771
		c-36.198,51.43-45.396,54.1-229.312,66.072c-89.875,5.894-164.958,12.192-166.888,14.113c-1.929,1.929-13.126,30.701-24.834,63.852
		c-11.682,33.142-34.736,86.985-51.175,119.651c-16.43,32.727-28.957,63.525-27.829,68.441c1.18,4.907,45.968,56.777,99.653,115.22
		c53.685,58.434,104.375,119.704,112.727,136.116c17.716,34.868,19.372,71.763,4.757,106.675
		c-12.897,30.798-231.435,252.675-266.964,271.069c-29.715,15.293-83.779,17.002-114.929,3.479
		c-11.875-5.188-71.613-55.077-132.689-110.947c-61.077-55.826-115.881-101.477-121.88-101.477
		c-5.885,0-40.356,13.733-76.431,30.578c-36.137,16.896-89.593,38.559-118.929,48.223c-40.471,13.268-54.064,20.853-56.531,31.547
		c-1.823,7.7-7.752,81.383-13.276,163.717c-11.981,181.141-18.949,200.707-82.105,232.686
		c-18.298,9.25-48.594,10.854-201.888,10.633C1851.486-4947.602,1801.822-4949.91,1786.617-4956.64z M2052.519-5760.88
		c162.729-17.002,298.687-81.796,414.391-197.615c88.219-88.209,145.172-187.123,179.424-311.91
		c21.46-78.281,21.354-250.975-0.211-330.207c-65.622-240.28-237.813-417.202-475.847-488.85
		c-55.447-16.681-70.538-18.227-178.336-18.707c-103.309-0.423-124.831,1.383-175.041,15.078
		c-250.49,68.322-442.053,269.36-494.461,518.89c-46.99,224.229,21.79,453.065,185.634,617.53
		c85.792,86.086,197.078,149.269,317.724,180.331c34.362,8.827,83.171,15.681,152.643,21.336
		C1984.012-5754.563,2017.299-5757.188,2052.519-5760.88z M1885.578-6042.749c-171.596-46.462-291.714-192.365-302.356-367.261
		c-7.448-122.28,31.952-225.788,118.933-312.297c158.316-157.448,411.061-158.951,567.413-3.308
		c128.734,128.258,159.673,310.633,79.708,470.706c-68.045,136.336-193.448,216.864-347.219,222.846
		C1949.65-6030.02,1923.79-6032.389,1885.578-6042.749z M2077.582-6212.235c47.422-17.76,103.935-70.265,127.703-118.585
		c16.809-34.172,18.844-45.563,18.844-105.556c0-63.786-1.172-69.388-23.072-109.709
		c-44.162-81.431-109.784-122.642-202.373-127.351c-74.41-3.748-118.99,11.972-172.676,61.059
		c-68.137,62.183-95.275,148.63-73.33,233.915c18.887,73.824,58.984,123.977,126.531,158.087
		C1942.153-6188.494,2006.921-6185.825,2077.582-6212.235z"/>
</g>
</svg>
