<?xml version="1.0" encoding="utf-8"?>
<!-- Generator: Adobe Illustrator 16.0.0, SVG Export Plug-In . SVG Version: 6.00 Build 0)  -->
<!DOCTYPE svg PUBLIC "-//W3C//DTD SVG 1.1//EN" "http://www.w3.org/Graphics/SVG/1.1/DTD/svg11.dtd">
<svg version="1.1" id="Layer_1" xmlns="http://www.w3.org/2000/svg" xmlns:xlink="http://www.w3.org/1999/xlink" x="0px" y="0px"
	 width="512px" height="512px" viewBox="0 0 512 512" enable-background="new 0 0 512 512" xml:space="preserve">
<g id="Layer_1_1_">
	<g id="Layer_2" display="none">
	</g>
	<g id="shadows">
		<g opacity="0.9">
			<g>
				<path fill="#B7B7B7" d="M466.5,381.5c0,48.6-39.4,88-88,88h-246c-48.602,0-88-39.4-88-88V164.833c0-48.601,39.398-88,88-88h246
					c48.6,0,88,39.399,88,88V381.5z"/>
			</g>
		</g>
		<g>
			<g>
				<path fill="#FFFFFF" d="M466.5,360.5c0,48.6-39.4,88-88,88h-246c-48.602,0-88-39.4-88-88V143.833c0-48.601,39.398-88,88-88h246
					c48.6,0,88,39.399,88,88V360.5z"/>
			</g>
		</g>
	</g>
	<linearGradient id="SVGID_1_" gradientUnits="userSpaceOnUse" x1="43.5002" y1="254.335" x2="465.5002" y2="254.335">
		<stop  offset="0" style="stop-color:#7C76B7"/>
		<stop  offset="0.5" style="stop-color:#6561AB"/>
		<stop  offset="1" style="stop-color:#483F99"/>
	</linearGradient>
	<path fill="url(#SVGID_1_)" stroke="#E2E2E2" stroke-width="10" stroke-miterlimit="10" d="M465.5,146v216.67
		c0,42.9-30.7,78.64-71.34,86.42c-5.391,1.04-10.96,1.58-16.66,1.58h-246c-5.69,0-11.26-0.54-16.65-1.58
		c-40.64-7.78-71.35-43.51-71.35-86.42V146c0-48.6,39.4-88,88-88h246c11.66,0,22.8,2.27,32.98,6.4
		C442.74,77.44,465.5,109.06,465.5,146z"/>
	
		<g id="svg2" xmlns:cc="http://creativecommons.org/ns#" xmlns:svg="http://www.w3.org/2000/svg" xmlns:inkscape="http://www.inkscape.org/namespaces/inkscape" xmlns:dc="http://purl.org/dc/elements/1.1/" xmlns:rdf="http://www.w3.org/1999/02/22-rdf-syntax-ns#" xmlns:sodipodi="http://sodipodi.sourceforge.net/DTD/sodipodi-0.dtd" sodipodi:docname="amazon.svg" inkscape:version="0.48.4 r9939" display="none">
		
			<sodipodi:namedview  bordercolor="#666666" pagecolor="#ffffff" inkscape:zoom="0.51420519" borderopacity="1.0" showgrid="false" inkscape:cy="331.75675" inkscape:cx="125.01135" id="base" inkscape:document-units="px" inkscape:pageshadow="2" inkscape:window-width="1360" inkscape:window-y="25" inkscape:current-layer="layer1" inkscape:window-height="719" inkscape:window-maximized="1" inkscape:window-x="0" inkscape:pageopacity="0.0">
			</sodipodi:namedview>
		<path display="inline" fill="#EF3A24" d="M50.502,119.833h409.995c-12.802-32.778-44.688-56-81.997-56h-246
			C95.188,63.833,63.304,87.055,50.502,119.833z"/>
		<g display="inline">
			<g>
				<rect x="172.5" y="147" fill="none" width="305" height="240"/>
				<text transform="matrix(1 0 0 1 172.4998 336.999)" fill="#FF9900" font-family="'Tahoma'" font-size="250">A</text>
			</g>
		</g>
	</g>
	<ellipse display="none" fill="#B4DFF7" cx="147.5" cy="178" rx="63" ry="61.5"/>
	<circle display="none" fill="#31C4E9" cx="146.5" cy="171.5" r="62"/>
</g>
<g id="Layer_3" display="none">
	<path display="inline" fill="#200A7F" stroke="#18E5EA" stroke-width="20" stroke-miterlimit="10" d="M401.137,212.167
		c5.104,15.338,7.863,31.744,7.863,48.795c0,85.328-69.173,154.5-154.5,154.5c-85.328,0-154.5-69.172-154.5-154.5
		s69.172-154.5,154.5-154.5c51.227,0,96.63,24.93,124.738,63.319"/>
	<path display="inline" fill="#EF0B79" d="M333.363,255.151c0,4.226-3.301,7.651-7.371,7.651H174.872
		c-4.072,0-7.372-3.425-7.372-7.651l0,0c0-4.226,3.3-7.651,7.372-7.651h151.119C330.063,247.5,333.363,250.925,333.363,255.151
		L333.363,255.151z"/>
	<path display="inline" fill="#EF0B79" d="M333.363,284.797c0,4.227-3.301,7.65-7.371,7.65H174.872c-4.072,0-7.372-3.426-7.372-7.65
		l0,0c0-4.227,3.3-7.65,7.372-7.65h151.119C330.063,277.146,333.363,280.57,333.363,284.797L333.363,284.797z"/>
	<path display="inline" fill="#EF0B79" d="M333.363,313.008c0,4.227-3.301,7.651-7.371,7.651H174.872
		c-4.072,0-7.372-3.427-7.372-7.651l0,0c0-4.225,3.3-7.65,7.372-7.65h151.119C330.063,305.357,333.363,308.783,333.363,313.008
		L333.363,313.008z"/>
	<path display="inline" fill="#EF0B79" d="M333.363,338.352c0,4.229-3.301,7.651-7.371,7.651H174.872
		c-4.072,0-7.372-3.426-7.372-7.651l0,0c0-4.225,3.3-7.647,7.372-7.647h151.119C330.063,330.701,333.363,334.127,333.363,338.352
		L333.363,338.352z"/>
	<polygon display="inline" fill="#18E5EA" points="394.991,191.49 320.191,165.163 380.392,113.547 	"/>
	<g display="inline">
		<g>
			<g>
				<path fill="#E9F21C" d="M241.48,239.22c-2.284,0-4.444-1.068-5.833-2.901l-18.76-24.775c-2.44-3.222-1.805-7.81,1.417-10.251
					c3.229-2.442,7.813-1.803,10.253,1.417l12.338,16.293l31.033-49.826c2.135-3.429,6.646-4.478,10.082-2.344
					c3.432,2.135,4.479,6.65,2.342,10.08l-36.658,58.857c-1.272,2.047-3.472,3.333-5.879,3.442
					C241.702,239.217,241.592,239.22,241.48,239.22z"/>
			</g>
		</g>
	</g>
</g>
<g id="Layer_2_1_" display="none">
	<rect x="121" y="171.5" display="inline" fill="none" width="298" height="251"/>
	
		<text transform="matrix(1 0 0 1 120.9998 348.998)" display="inline" fill="#EF3A24" font-family="'MyriadPro-Regular'" font-size="250">24</text>
	<circle display="inline" fill="#FFFFFF" cx="138.25" cy="91.833" r="17.25"/>
	<circle display="inline" fill="#FFFFFF" cx="185.25" cy="91.833" r="17.25"/>
	<circle display="inline" fill="#FFFFFF" cx="232.25" cy="91.833" r="17.25"/>
	<circle display="inline" fill="#FFFFFF" cx="278.25" cy="91.833" r="17.25"/>
	<circle display="inline" fill="#FFFFFF" cx="323.25" cy="91.833" r="17.25"/>
	<circle display="inline" fill="#FFFFFF" cx="368.25" cy="91.833" r="17.25"/>
</g>
<path id="path2989_2_" inkscape:connector-curvature="0" sodipodi:nodetypes="sssssss" d="M257.449,177.337"/>
<path id="path2989_4_" inkscape:connector-curvature="0" sodipodi:nodetypes="sssssss" d="M233.653,172.58"/>
<path id="path2989_3_" inkscape:connector-curvature="0" sodipodi:nodetypes="sssssss" d="M235.736,184.695L235.736,184.695"/>
<g>
	<path fill="#313A6B" d="M405.176,71.607c-1.716,0.821-3.635,1.289-5.671,1.289c-29.579,0-46.986,3.321-56.436,10.764
		c-6.164,4.848-13.22,14.266-13.22,44.277c0,61.339-59.635,91.398-62.174,92.648c-6.378,3.14-14.121,0.592-17.311-5.678
		c-3.178-6.27-0.61-13.884,5.737-17.024c0.61-0.315,47.946-24.543,47.946-69.946c0-20.717,2.423-46.3,20.877-62.437h48.285
		C384.512,65.5,395.308,67.666,405.176,71.607z"/>
	<path fill="#667197" d="M458.5,195.42v167.25c0,42.9-29.755,78.64-69.142,86.42H118.652C79.264,441.31,49.5,405.58,49.5,362.67
		V202.93c4.652-4.71,11.02-7.62,18.037-7.62h388.734C457.017,195.31,457.764,195.34,458.5,195.42z"/>
	<path fill="#F1F6FF" d="M124.298,392.302h-13.76c-7.125,0-12.9-5.96-12.9-13.31c0-7.351,5.775-13.312,12.9-13.312h13.76
		c7.125,0,12.9,5.961,12.9,13.312C137.198,386.342,131.423,392.302,124.298,392.302z"/>
	<path fill="#9CD6F4" d="M158.699,335.511h-13.76c-7.125,0-12.901-5.961-12.901-13.311c0-7.351,5.776-13.312,12.901-13.312h13.76
		c7.125,0,12.901,5.961,12.901,13.312C171.6,329.55,165.824,335.511,158.699,335.511z"/>
	<path fill="#F1F6FF" d="M227.502,335.511h-13.76c-7.125,0-12.901-5.961-12.901-13.311c0-7.351,5.776-13.312,12.901-13.312h13.76
		c7.124,0,12.9,5.961,12.9,13.312C240.403,329.55,234.626,335.511,227.502,335.511z"/>
	<g>
		<path fill="#DFE5F2" d="M296.305,335.511h-13.762c-7.123,0-12.899-5.961-12.899-13.311c0-7.351,5.776-13.312,12.899-13.312h13.762
			c7.125,0,12.9,5.961,12.9,13.312C309.205,329.55,303.43,335.511,296.305,335.511z"/>
		<path fill="#DFE5F2" d="M365.108,335.511h-13.76c-7.126,0-12.901-5.961-12.901-13.311c0-7.351,5.775-13.312,12.901-13.312h13.76
			c7.124,0,12.901,5.961,12.901,13.312C378.009,329.55,372.232,335.511,365.108,335.511z"/>
		<path fill="#DFE5F2" d="M399.508,278.719h-13.76c-7.126,0-12.9-5.962-12.9-13.311c0-7.352,5.774-13.311,12.9-13.311h13.76
			c7.123,0,12.901,5.959,12.901,13.311C412.409,272.757,406.631,278.719,399.508,278.719z"/>
		<path fill="#DFE5F2" d="M330.706,278.719h-13.762c-7.123,0-12.899-5.962-12.899-13.311c0-7.352,5.776-13.311,12.899-13.311h13.762
			c7.125,0,12.901,5.959,12.901,13.311C343.608,272.757,337.831,278.719,330.706,278.719z"/>
	</g>
	<path fill="#F1F6FF" d="M274.804,265.408c0,7.347-5.78,13.311-12.901,13.311h-13.76c-7.121,0-12.9-5.964-12.9-13.311
		c0-7.348,5.779-13.311,12.9-13.311h13.76C269.024,252.098,274.804,258.061,274.804,265.408z"/>
	<path fill="#DFE5F2" d="M261.903,278.719v-26.621c7.121,0,12.901,5.963,12.901,13.311
		C274.804,272.755,269.024,278.719,261.903,278.719z"/>
	<path fill="#F1F6FF" d="M193.101,278.719H179.34c-7.124,0-12.9-5.962-12.9-13.311c0-7.352,5.776-13.311,12.9-13.311h13.761
		c7.125,0,12.9,5.959,12.9,13.311C206.001,272.757,200.225,278.719,193.101,278.719z"/>
	<path fill="#F1F6FF" d="M124.298,278.719h-13.76c-7.125,0-12.9-5.962-12.9-13.311c0-7.352,5.775-13.311,12.9-13.311h13.76
		c7.125,0,12.9,5.959,12.9,13.311C137.198,272.757,131.423,278.719,124.298,278.719z"/>
	<path fill="#DFE5F2" d="M413.269,392.302h-13.761c-7.126,0-12.899-5.96-12.899-13.31c0-7.351,5.773-13.312,12.899-13.312h13.761
		c7.122,0,12.901,5.961,12.901,13.312C426.17,386.342,420.391,392.302,413.269,392.302z"/>
	<path fill="#F1F6FF" d="M357.366,378.992c0,7.347-5.778,13.31-12.899,13.31H179.34c-7.121,0-12.9-5.963-12.9-13.31
		c0-7.349,5.779-13.312,12.9-13.312h165.127C351.588,365.681,357.366,371.644,357.366,378.992z"/>
</g>
</svg>
