<?xml version="1.0" encoding="utf-8"?>
<!-- Generator: Adobe Illustrator 16.0.0, SVG Export Plug-In . SVG Version: 6.00 Build 0)  -->
<!DOCTYPE svg PUBLIC "-//W3C//DTD SVG 1.1//EN" "http://www.w3.org/Graphics/SVG/1.1/DTD/svg11.dtd">
<svg version="1.1" id="Layer_1" xmlns="http://www.w3.org/2000/svg" xmlns:xlink="http://www.w3.org/1999/xlink" x="0px" y="0px"
	 width="512px" height="512px" viewBox="0 0 512 512" enable-background="new 0 0 512 512" xml:space="preserve">
<g id="Layer_1_1_">
	<g id="Layer_2" display="none">
	</g>
	<g id="shadows">
		<g opacity="0.9">
			<g>
				<path fill="#B7B7B7" d="M466.5,381.5c0,48.6-39.4,88-88,88h-246c-48.602,0-88-39.4-88-88V164.833c0-48.601,39.398-88,88-88h246
					c48.6,0,88,39.399,88,88V381.5z"/>
			</g>
		</g>
		<g>
			<g>
				<path fill="#FFFFFF" d="M466.5,360.5c0,48.6-39.4,88-88,88h-246c-48.602,0-88-39.4-88-88V143.833c0-48.601,39.398-88,88-88h246
					c48.6,0,88,39.399,88,88V360.5z"/>
			</g>
		</g>
	</g>
	<radialGradient id="SVGID_1_" cx="254.5002" cy="254.3335" r="203.7987" gradientUnits="userSpaceOnUse">
		<stop  offset="0" style="stop-color:#2BC4F3"/>
		<stop  offset="0.5" style="stop-color:#00AEEE"/>
		<stop  offset="1" style="stop-color:#0095DA"/>
	</radialGradient>
	<path fill="url(#SVGID_1_)" stroke="#E2E2E2" stroke-width="9" stroke-miterlimit="10" d="M465.5,362.667c0,48.6-39.399,88-88,88
		h-246c-48.602,0-88-39.4-88-88V146c0-48.601,39.398-88,88-88h246c48.601,0,88,39.399,88,88V362.667z"/>
</g>
<path id="rect2983-0" inkscape:connector-curvature="0" fill="#FFFFFF" d="M270.437,149.098
	c-1.05-0.403-128.56,22.085-129.459,22.832c-0.585,0.485-0.682,12.368-0.682,84.084c0,66.232,0.124,83.621,0.598,84.014
	c0.728,0.604,126.659,22.996,128.68,22.881l1.434-0.08l0.119-106.711C271.239,156.112,271.197,149.39,270.437,149.098z
	 M324.294,171.371c-22.685,0-45.369,0.209-45.785,0.625c-0.813,0.813-0.813,21.935,0,22.748c0.435,0.435,8.729,0.574,34.41,0.574
	h33.838v3.346v3.344h-33.838c-25.681,0-33.976,0.139-34.41,0.574c-0.394,0.394-0.572,2.761-0.572,7.551s0.179,7.157,0.572,7.551
	c0.435,0.435,8.729,0.574,34.41,0.574h33.838v3.346v3.346h-33.838c-25.681,0-33.976,0.137-34.41,0.572
	c-0.394,0.394-0.572,2.761-0.572,7.551s0.179,7.159,0.572,7.553c0.435,0.435,8.729,0.572,34.41,0.572h33.838v3.346v3.346h-33.838
	c-25.681,0-33.976,0.139-34.41,0.574c-0.801,0.801-0.801,14.301,0,15.102c0.435,0.436,8.729,0.574,34.41,0.574h33.838v3.344v3.346
	h-33.838c-25.681,0-33.976,0.139-34.41,0.574c-0.394,0.394-0.572,2.761-0.572,7.551s0.179,7.157,0.572,7.551
	c0.435,0.436,8.729,0.574,34.41,0.574h33.838v3.346v3.346h-33.838c-25.681,0-33.976,0.137-34.41,0.572
	c-0.801,0.801-0.801,14.303,0,15.104c0.435,0.436,8.729,0.572,34.41,0.572h33.838v3.346v3.346h-33.838
	c-25.681,0-33.976,0.137-34.41,0.572c-0.412,0.412-0.572,3.611-0.572,11.375s0.16,10.963,0.572,11.375
	c0.831,0.832,90.738,0.832,91.57,0c0.834-0.834,0.834-167.201,0-168.035C369.663,171.58,346.978,171.371,324.294,171.371z
	 M237.814,217.33c3.667-0.062,8.556,0.236,9.102,0.781c0.44,0.441-0.305,4.601-3.299,18.398c-2.129,9.807-5.832,27.07-8.229,38.363
	c-2.397,11.293-4.463,20.703-4.59,20.91c-0.128,0.207-3.561,0.375-7.627,0.375c-5.489,0-7.446-0.154-7.596-0.598
	c-0.111-0.328-1.729-7.908-3.596-16.846c-3.782-18.111-6.411-29.419-7.172-30.84c-0.677-1.264-1.738-1.194-2.033,0.133
	c-0.132,0.592-2.309,11.274-4.838,23.74c-2.53,12.466-4.679,22.745-4.775,22.842c-0.405,0.404-12.789-0.53-13.4-1.012
	c-0.426-0.336-2.32-9.262-5.234-24.662c-2.513-13.274-5.479-28.814-6.592-34.535c-2.34-12.028-2.436-11.547,2.451-12.334
	c8.007-1.29,7.887-1.618,14.004,38.021c1.262,8.176,1.692,10.06,2.338,10.184c0.596,0.115,0.917-0.414,1.303-2.145
	c0.281-1.264,2.115-9.666,4.076-18.674c4.207-19.332,6.262-27.029,7.641-28.625c1.155-1.338,4.893-1.944,8.582-1.391
	c4.012,0.602,3.672-0.347,8.414,23.453c2.356,11.828,4.72,23.001,5.252,24.828c1.563,5.364,3.369,6.14,3.369,1.445
	c0-3.031,0.926-10.021,2.91-21.973c1.546-9.317,5.078-28.274,5.463-29.32C233.855,217.533,235.614,217.367,237.814,217.33
	L237.814,217.33z"/>
</svg>
