<?xml version="1.0" encoding="utf-8"?>
<!-- Generator: Adobe Illustrator 16.0.0, SVG Export Plug-In . SVG Version: 6.00 Build 0)  -->
<!DOCTYPE svg PUBLIC "-//W3C//DTD SVG 1.1//EN" "http://www.w3.org/Graphics/SVG/1.1/DTD/svg11.dtd">
<svg version="1.1" id="Layer_1" xmlns="http://www.w3.org/2000/svg" xmlns:xlink="http://www.w3.org/1999/xlink" x="0px" y="0px"
	 width="512px" height="512px" viewBox="0 0 512 512" enable-background="new 0 0 512 512" xml:space="preserve">
<g id="Layer_1_2_">
	<g id="Layer_1_1_">
		<g id="Layer_2" display="none">
		</g>
		<g id="shadows">
			<g opacity="0.9">
				<g>
					<path fill="#B7B7B7" d="M466.5,381.5c0,48.6-39.4,88-88,88h-246c-48.602,0-88-39.4-88-88V164.833c0-48.601,39.398-88,88-88h246
						c48.6,0,88,39.399,88,88V381.5z"/>
				</g>
			</g>
			<g>
				<g>
					<path fill="#FFFFFF" d="M466.5,360.5c0,48.6-39.4,88-88,88h-246c-48.602,0-88-39.4-88-88V143.833c0-48.601,39.398-88,88-88h246
						c48.6,0,88,39.399,88,88V360.5z"/>
				</g>
			</g>
		</g>
		<linearGradient id="SVGID_1_" gradientUnits="userSpaceOnUse" x1="43.5002" y1="254.335" x2="465.5002" y2="254.335">
			<stop  offset="0" style="stop-color:#FFE7A3"/>
			<stop  offset="0.5" style="stop-color:#FFCA05"/>
			<stop  offset="1" style="stop-color:#FAAC18"/>
		</linearGradient>
		<path fill="url(#SVGID_1_)" stroke="#E2E2E2" stroke-width="7" stroke-miterlimit="10" d="M465.5,146v216.67c0,48.6-39.4,88-88,88
			h-246c-30.22,0-56.89-15.24-72.72-38.45c-9.65-14.109-15.28-31.17-15.28-49.55V146c0-48.6,39.4-88,88-88h246
			C426.1,58,465.5,97.4,465.5,146z"/>
	</g>
</g>
<linearGradient id="rect3292_1_" gradientUnits="userSpaceOnUse" x1="58.78" y1="272.374" x2="462.5002" y2="272.374">
	<stop  offset="0" style="stop-color:#5B57A5"/>
	<stop  offset="0.5" style="stop-color:#2E3092"/>
	<stop  offset="1" style="stop-color:#474374"/>
</linearGradient>
<path id="rect3292" inkscape:connector-curvature="0" sodipodi:nodetypes="ccccccccccccc" fill="url(#rect3292_1_)" stroke="#FFFFFF" stroke-width="8" stroke-miterlimit="10" d="
	M358.484,101.416l-124.714,262.37l-74.813-122.437L58.78,405.28c15.713,22.97,42.187,38.052,72.184,38.052h244.187
	c48.239,0,87.35-38.991,87.35-87.087v-35.983L358.484,101.416z"/>
</svg>
