<?xml version="1.0" encoding="utf-8"?>
<!-- Generator: Adobe Illustrator 16.0.0, SVG Export Plug-In . SVG Version: 6.00 Build 0)  -->
<!DOCTYPE svg PUBLIC "-//W3C//DTD SVG 1.1//EN" "http://www.w3.org/Graphics/SVG/1.1/DTD/svg11.dtd">
<svg version="1.1" id="Layer_1" xmlns="http://www.w3.org/2000/svg" xmlns:xlink="http://www.w3.org/1999/xlink" x="0px" y="0px"
	 width="512px" height="512px" viewBox="0 0 512 512" enable-background="new 0 0 512 512" xml:space="preserve">
<g id="Layer_1_2_">
	<g id="Layer_1_1_">
		<g id="Layer_2" display="none">
			<rect x="91.5" y="101.5" display="inline" fill="none" width="327" height="289"/>
			
				<text transform="matrix(1 0 0 1 91.5002 110.02)" display="inline" stroke="#E2E2E2" stroke-width="60" stroke-miterlimit="10" font-family="'MyriadPro-Regular'" font-size="12">hhfh</text>
		</g>
		<g id="shadows">
			<g opacity="0.9">
				<g>
					<path fill="#B7B7B7" d="M466.5,381.5c0,48.6-39.4,88-88,88h-246c-48.603,0-88-39.4-88-88V164.833c0-48.601,39.397-88,88-88h246
						c48.6,0,88,39.399,88,88V381.5z"/>
				</g>
			</g>
			<g>
				<g>
					<path fill="#FFFFFF" d="M466.5,360.5c0,48.6-39.4,88-88,88h-246c-48.603,0-88-39.4-88-88V143.833c0-48.601,39.397-88,88-88h246
						c48.6,0,88,39.399,88,88V360.5z"/>
				</g>
			</g>
		</g>
		<radialGradient id="SVGID_1_" cx="254.5002" cy="254.335" r="203.7994" gradientUnits="userSpaceOnUse">
			<stop  offset="0" style="stop-color:#F69453"/>
			<stop  offset="0.5" style="stop-color:#F37521"/>
			<stop  offset="1" style="stop-color:#D4622A"/>
		</radialGradient>
		<path fill="url(#SVGID_1_)" stroke="#E2E2E2" stroke-width="7" stroke-miterlimit="10" d="M465.5,146v216.67
			c0,42.08-29.53,77.26-69,85.94c-6.12,1.35-12.48,2.06-19,2.06h-246c-30.221,0-56.891-15.24-72.721-38.45
			C49.13,398.111,43.5,381.05,43.5,362.67V146c0-48.6,39.399-88,88-88h246c6.52,0,12.88,0.71,19,2.06
			C435.97,68.74,465.5,103.92,465.5,146z"/>
	</g>
</g>
<rect x="116" y="114.5" fill="none" width="471" height="418"/>
<text transform="matrix(1 0 0 1 116.0002 398.4961)" fill="#F1F9F4" font-family="'MyriadPro-Regular'" font-size="400">U</text>
</svg>
