<?xml version="1.0" encoding="utf-8"?>
<!-- Generator: Adobe Illustrator 16.0.0, SVG Export Plug-In . SVG Version: 6.00 Build 0)  -->
<!DOCTYPE svg PUBLIC "-//W3C//DTD SVG 1.1//EN" "http://www.w3.org/Graphics/SVG/1.1/DTD/svg11.dtd">
<svg version="1.1" id="Layer_1" xmlns="http://www.w3.org/2000/svg" xmlns:xlink="http://www.w3.org/1999/xlink" x="0px" y="0px"
	 width="512px" height="512px" viewBox="0 0 512 512" enable-background="new 0 0 512 512" xml:space="preserve">
<g id="Layer_1_2_">
	<g id="Layer_1_1_">
		<g id="Layer_2" display="none">
		</g>
		<g id="shadows">
			<g opacity="0.9">
				<g>
					<path fill="#B7B7B7" d="M466.5,381.5c0,48.6-39.4,88-88,88h-246c-48.602,0-88-39.4-88-88V164.833c0-48.601,39.398-88,88-88h246
						c48.6,0,88,39.399,88,88V381.5z"/>
				</g>
			</g>
			<g>
				<g>
					<path fill="#FFFFFF" d="M466.5,360.5c0,48.6-39.4,88-88,88h-246c-48.602,0-88-39.4-88-88V143.833c0-48.601,39.398-88,88-88h246
						c48.6,0,88,39.399,88,88V360.5z"/>
				</g>
			</g>
		</g>
		<linearGradient id="SVGID_1_" gradientUnits="userSpaceOnUse" x1="43.5002" y1="254.335" x2="465.5002" y2="254.335">
			<stop  offset="0" style="stop-color:#D471AD"/>
			<stop  offset="0.5" style="stop-color:#C7158C"/>
			<stop  offset="1" style="stop-color:#9D248E"/>
		</linearGradient>
		<path fill="url(#SVGID_1_)" stroke="#E2E2E2" stroke-width="7" stroke-miterlimit="10" d="M465.5,146v216.67c0,48.6-39.4,88-88,88
			h-246c-30.22,0-56.89-15.24-72.72-38.45c-9.65-14.109-15.28-31.17-15.28-49.55V146c0-48.6,39.4-88,88-88h246
			C426.1,58,465.5,97.4,465.5,146z"/>
	</g>
</g>
<linearGradient id="SVGID_2_" gradientUnits="userSpaceOnUse" x1="254.5002" y1="434" x2="254.5002" y2="434">
	<stop  offset="0" style="stop-color:#5B57A5"/>
	<stop  offset="0.5" style="stop-color:#2E3092"/>
	<stop  offset="1" style="stop-color:#474374"/>
</linearGradient>
<radialGradient id="SVGID_3_" cx="254.5002" cy="434" r="0" gradientUnits="userSpaceOnUse">
	<stop  offset="0" style="stop-color:#F37E5F"/>
	<stop  offset="0.5" style="stop-color:#EC1C24"/>
	<stop  offset="1" style="stop-color:#CF232A"/>
</radialGradient>
<path fill="url(#SVGID_2_)" stroke="url(#SVGID_3_)" stroke-width="16" stroke-miterlimit="10" d="M254.5,434"/>
<path fill="#FFFFFF" d="M173.299,170.529l25.147,10.058c5.471,2.188,11.704-0.487,13.907-5.974s-0.471-11.741-5.974-13.959
	l-3.93-1.57c16.086-9.995,34.606-15.257,53.55-15.257c17.259,0,34.188,4.341,49.243,12.701c5.181,2.868,11.712,0.997,14.58-4.182
	c2.867-5.175,0.994-11.706-4.182-14.574c-18.269-10.073-38.793-15.38-59.642-15.38c-22.989,0-45.549,6.432-65.107,18.593
	l-0.644,0.403l1.232-6.188c1.151-5.798-2.614-11.442-8.412-12.593c-5.798-1.151-11.442,2.614-12.593,8.412l-5.021,25.02
	C164.293,161.837,167.807,168.334,173.299,170.529z"/>
<path fill="#FFFFFF" d="M256,309.947c17.039,0,33.439-6.804,45.496-18.809c12.005-12.057,18.809-28.457,18.809-45.496
	c0-17.042-6.804-33.439-18.809-45.497c-12.057-12.002-28.457-18.808-45.496-18.808c-17.042,0-33.439,6.806-45.497,18.808
	c-12.002,12.057-18.808,28.455-18.808,45.497c0,17.039,6.806,33.439,18.808,45.496C222.561,303.144,238.959,309.947,256,309.947z"/>
<path fill="#FFFFFF" d="M328.186,320.648l-19.185-9.576c-5.265-2.633-11.69-0.481-14.339,4.799
	c-2.647,5.274-0.497,11.722,4.794,14.386l7.368,3.699l-3.611,1.874c-14.579,7.661-30.76,11.628-47.213,11.628
	c-15.861,0-31.508-3.694-45.656-10.822c-5.293-2.669-11.751-0.528-14.415,4.768c-2.664,5.29-0.526,11.748,4.77,14.417
	c17.146,8.624,36.116,13.072,55.301,13.072c18.65,0,37.019-4.223,53.744-12.329c-0.89,5.626,2.836,10.995,8.467,12.114
	c5.799,1.151,11.445-2.611,12.597-8.409l4.866-24.323C336.83,330.146,333.477,323.291,328.186,320.648z"/>
</svg>
