<?xml version="1.0" encoding="utf-8"?>
<!-- Generator: Adobe Illustrator 24.0.1, SVG Export Plug-In . SVG Version: 6.00 Build 0)  -->
<svg version="1.1" id="Layer_1" xmlns="http://www.w3.org/2000/svg" xmlns:xlink="http://www.w3.org/1999/xlink" x="0px" y="0px"
	 viewBox="0 0 512 512" style="enable-background:new 0 0 512 512;" xml:space="preserve">
<style type="text/css">
	.st0{display:none;}
	.st1{opacity:0.9;}
	.st2{fill:#B7B7B7;}
	.st3{fill:#FFFFFF;}
	.st4{fill:#666666;stroke:#E2E2E2;stroke-width:10;stroke-miterlimit:10;}
	.st5{fill:url(#SVGID_1_);stroke:#E2E2E2;stroke-width:10;stroke-miterlimit:10;}
	.st6{display:inline;fill:#EF3A24;}
	.st7{display:inline;}
	.st8{fill:none;}
	.st9{fill:#FF9900;}
	.st10{font-family:'Tahoma';}
	.st11{font-size:250px;}
	.st12{display:none;fill:#B4DFF7;}
	.st13{display:none;fill:#31C4E9;}
	.st14{display:inline;fill:#200A7F;stroke:#18E5EA;stroke-width:20;stroke-miterlimit:10;}
	.st15{display:inline;fill:#EF0B79;}
	.st16{display:inline;fill:#18E5EA;}
	.st17{fill:#E9F21C;}
	.st18{display:inline;fill:none;}
	.st19{font-family:'MyriadPro-Regular';}
	.st20{display:inline;fill:#FFFFFF;}
</style>
<g id="Layer_1_1_">
	<g id="Layer_2_1_" class="st0">
	</g>
	<g id="shadows">
		<g class="st1">
			<g>
				<path class="st2" d="M466.5,381.5c0,48.6-39.4,88-88,88h-246c-48.6,0-88-39.4-88-88V164.8c0-48.6,39.4-88,88-88
					c0,0,56.9,25.1,130.5,41.2c1.3,0.3,203.5,32.9,203.5,46.8V381.5z"/>
			</g>
		</g>
		<g>
			<g>
				<path class="st3" d="M466.5,360.5c0,48.6-39.4,88-88,88h-246c-48.6,0-88-39.4-88-88V143.8c0-48.6,39.4-88,88-88L289,136
					c48.6,0,177.5-40.8,177.5,7.8V360.5z"/>
			</g>
		</g>
	</g>
	<path class="st4" d="M465.5,146v216.7c0,48.6-39.4,88-88,88h-246c-48.6,0-88-39.4-88-88V146c0-48.6,39.4-88,88-88h101.2
		c6.6,14,22.4,47.1,27.1,50.8c4.6,3.6,135.5,1.7,197.7,0.6C462.7,120.6,465.5,133,465.5,146z"/>
	
		<linearGradient id="SVGID_1_" gradientUnits="userSpaceOnUse" x1="43.5" y1="229.4256" x2="465.5" y2="229.4256" gradientTransform="matrix(1 0 0 -1 0 513.2756)">
		<stop  offset="0" style="stop-color:#64C08A"/>
		<stop  offset="0.5" style="stop-color:#00A550"/>
		<stop  offset="1" style="stop-color:#00914C"/>
	</linearGradient>
	<path class="st5" d="M465.5,188.5v190.7c0,42.8-39.4,77.5-88,77.5h-246c-48.6,0-88-34.7-88-77.5V188.5c0-42.8,39.4-77.5,88-77.5
		h101.2c6.6,12.3,22.4,41.5,27.1,44.8c4.6,3.2,135.5,1.5,197.7,0.5C462.7,166.1,465.5,177,465.5,188.5z"/>
	
		<g id="svg2" xmlns:cc="http://creativecommons.org/ns#" xmlns:dc="http://purl.org/dc/elements/1.1/" xmlns:inkscape="http://www.inkscape.org/namespaces/inkscape" xmlns:rdf="http://www.w3.org/1999/02/22-rdf-syntax-ns#" xmlns:sodipodi="http://sodipodi.sourceforge.net/DTD/sodipodi-0.dtd" xmlns:svg="http://www.w3.org/2000/svg" class="st0">
		
			<sodipodi:namedview  bordercolor="#666666" borderopacity="1.0" id="base" inkscape:current-layer="layer1" inkscape:cx="125.01135" inkscape:cy="331.75675" inkscape:document-units="px" inkscape:pageopacity="0.0" inkscape:pageshadow="2" inkscape:window-height="719" inkscape:window-maximized="1" inkscape:window-width="1360" inkscape:window-x="0" inkscape:window-y="25" inkscape:zoom="0.51420519" pagecolor="#ffffff" showgrid="false">
			</sodipodi:namedview>
		<path class="st6" d="M50.5,119.8h410c-12.8-32.8-44.7-56-82-56h-246C95.2,63.8,63.3,87.1,50.5,119.8z"/>
		<g class="st7">
			<g>
				<rect x="172.5" y="147" class="st8" width="305" height="240"/>
				<text transform="matrix(1 0 0 1 172.4998 336.999)" class="st9 st10 st11">A</text>
			</g>
		</g>
	</g>
	<ellipse class="st12" cx="147.5" cy="178" rx="63" ry="61.5"/>
	<circle class="st13" cx="146.5" cy="171.5" r="62"/>
</g>
<g id="Layer_3" class="st0">
	<path class="st14" d="M401.1,212.2c5.1,15.3,7.9,31.7,7.9,48.8c0,85.3-69.2,154.5-154.5,154.5S100,346.3,100,261
		s69.2-154.5,154.5-154.5c51.2,0,96.6,24.9,124.7,63.3"/>
	<path class="st15" d="M333.4,255.2c0,4.2-3.3,7.7-7.4,7.7H174.9c-4.1,0-7.4-3.4-7.4-7.7l0,0c0-4.2,3.3-7.7,7.4-7.7H326
		C330.1,247.5,333.4,250.9,333.4,255.2L333.4,255.2z"/>
	<path class="st15" d="M333.4,284.8c0,4.2-3.3,7.6-7.4,7.6H174.9c-4.1,0-7.4-3.4-7.4-7.6l0,0c0-4.2,3.3-7.6,7.4-7.6H326
		C330.1,277.1,333.4,280.6,333.4,284.8L333.4,284.8z"/>
	<path class="st15" d="M333.4,313c0,4.2-3.3,7.7-7.4,7.7H174.9c-4.1,0-7.4-3.4-7.4-7.7l0,0c0-4.2,3.3-7.6,7.4-7.6H326
		C330.1,305.4,333.4,308.8,333.4,313L333.4,313z"/>
	<path class="st15" d="M333.4,338.4c0,4.2-3.3,7.7-7.4,7.7H174.9c-4.1,0-7.4-3.4-7.4-7.7l0,0c0-4.2,3.3-7.6,7.4-7.6H326
		C330.1,330.7,333.4,334.1,333.4,338.4L333.4,338.4z"/>
	<polygon class="st16" points="395,191.5 320.2,165.2 380.4,113.5 	"/>
	<g class="st7">
		<g>
			<g>
				<path class="st17" d="M241.5,239.2c-2.3,0-4.4-1.1-5.8-2.9l-18.8-24.8c-2.4-3.2-1.8-7.8,1.4-10.3c3.2-2.4,7.8-1.8,10.3,1.4
					l12.3,16.3l31-49.8c2.1-3.4,6.6-4.5,10.1-2.3c3.4,2.1,4.5,6.6,2.3,10.1l-36.7,58.9c-1.3,2-3.5,3.3-5.9,3.4
					C241.7,239.2,241.6,239.2,241.5,239.2z"/>
			</g>
		</g>
	</g>
</g>
<g id="Layer_2_2_" class="st0">
	<rect x="121" y="171.5" class="st18" width="298" height="251"/>
	<text transform="matrix(1 0 0 1 120.9998 348.998)" class="st6 st19 st11">24</text>
	<circle class="st20" cx="138.3" cy="91.8" r="17.3"/>
	<circle class="st20" cx="185.3" cy="91.8" r="17.3"/>
	<circle class="st20" cx="232.3" cy="91.8" r="17.3"/>
	<circle class="st20" cx="278.3" cy="91.8" r="17.3"/>
	<circle class="st20" cx="323.3" cy="91.8" r="17.3"/>
	<circle class="st20" cx="368.3" cy="91.8" r="17.3"/>
</g>
<g>
	<g>
		<path class="st3" d="M247.8,184.2c-52.9,0-125.3,40-125.3,125.3c0,83.1,69.6,125.3,125.3,125.3c95.5,0,125.3-83.7,125.3-125.3
			C373.1,248.1,326.1,184.2,247.8,184.2z M218.8,196c-13.1,11.1-23.9,29.6-30.9,52.5c-9.1-5.4-17.4-12-24.8-19.8
			C178.3,212.6,197.7,201.4,218.8,196z M157.7,234.7c8.3,8.6,17.7,16,28,21.8c-3.8,14.9-6.1,31.5-6.4,48.9h-48.5
			C131.6,279.4,141.1,254.6,157.7,234.7z M157.7,384.2c-16.6-19.9-26-44.7-26.9-70.7h48.5c0.3,17.5,2.6,34,6.4,48.9
			C175.4,368.3,166,375.6,157.7,384.2z M163,390.3c7.4-7.7,15.7-14.4,24.8-19.8c7,22.8,17.9,41.3,30.9,52.5
			C197.7,417.5,178.3,406.2,163,390.3z M243.8,426.3c-21-2.7-39.1-26.1-48.9-59.8c15.1-7.6,31.8-11.9,48.9-12.6L243.8,426.3
			L243.8,426.3z M243.8,345.9c-17.9,0.6-35.2,5-50.9,12.7c-3.3-13.8-5.3-29-5.6-45.1h56.5L243.8,345.9L243.8,345.9z M243.8,305.4
			h-56.5c0.3-16.1,2.3-31.3,5.6-45.1c15.8,7.7,33.1,12.1,50.9,12.7L243.8,305.4L243.8,305.4z M243.8,264.9
			c-17.2-0.6-33.8-4.9-48.9-12.6c9.8-33.7,27.9-57.1,48.9-59.8L243.8,264.9L243.8,264.9z M338,234.7c16.6,19.9,26,44.7,26.9,70.7
			h-48.4c-0.3-17.5-2.6-34-6.4-48.9C320.3,250.6,329.7,243.3,338,234.7z M332.6,228.6c-7.4,7.7-15.7,14.4-24.8,19.8
			c-7-22.8-17.9-41.3-30.9-52.5C298,201.4,317.3,212.6,332.6,228.6z M251.9,192.6c21,2.7,39.1,26.1,48.9,59.8
			c-15.1,7.6-31.7,11.9-48.9,12.6V192.6z M251.9,272.9c17.9-0.6,35.2-5,50.9-12.7c3.3,13.8,5.3,29,5.6,45.1h-56.5V272.9L251.9,272.9
			z M251.9,313.5h56.5c-0.3,16.1-2.3,31.3-5.6,45.1c-15.7-7.7-33.1-12.1-50.9-12.7V313.5L251.9,313.5z M251.9,426.3V354
			c17.2,0.6,33.8,4.9,48.9,12.6C291,400.2,272.9,423.7,251.9,426.3z M276.9,422.9c13.1-11.1,23.9-29.6,30.9-52.5
			c9.1,5.4,17.4,12,24.8,19.8C317.3,406.2,298,417.5,276.9,422.9z M338,384.2c-8.3-8.6-17.7-15.9-27.9-21.8
			c3.8-14.9,6.1-31.5,6.4-48.9h48.4C364,339.5,354.5,364.3,338,384.2z"/>
	</g>
</g>
</svg>
