<?xml version="1.0" encoding="utf-8"?>
<!-- Generator: Adobe Illustrator 24.0.1, SVG Export Plug-In . SVG Version: 6.00 Build 0)  -->
<svg version="1.1" id="Layer_1" xmlns="http://www.w3.org/2000/svg" xmlns:xlink="http://www.w3.org/1999/xlink" x="0px" y="0px"
	 viewBox="0 0 512 512" style="enable-background:new 0 0 512 512;" xml:space="preserve">
<style type="text/css">
	.st0{display:none;}
	.st1{opacity:0.9;}
	.st2{fill:#B7B7B7;}
	.st3{fill:#FFFFFF;}
	.st4{fill:url(#SVGID_1_);stroke:#E2E2E2;stroke-width:10;stroke-miterlimit:10;}
	.st5{display:inline;fill:#EF3A24;}
	.st6{display:inline;}
	.st7{fill:none;}
	.st8{fill:#FF9900;}
	.st9{font-family:'Tahoma';}
	.st10{font-size:250px;}
	.st11{display:none;fill:#B4DFF7;}
	.st12{display:none;fill:#31C4E9;}
	.st13{display:inline;fill:#200A7F;stroke:#18E5EA;stroke-width:20;stroke-miterlimit:10;}
	.st14{display:inline;fill:#EF0B79;}
	.st15{display:inline;fill:#18E5EA;}
	.st16{fill:#E9F21C;}
	.st17{display:inline;fill:none;}
	.st18{font-family:'MyriadPro-Regular';}
	.st19{display:inline;fill:#FFFFFF;}
	.st20{fill:#FFFFFF;stroke:#231F20;stroke-width:3;stroke-miterlimit:10;}
</style>
<g id="Layer_1_1_">
	<g id="Layer_2_1_" class="st0">
	</g>
	<g id="shadows">
		<g class="st1">
			<g>
				<path class="st2" d="M466.5,381.5c0,48.6-39.4,88-88,88h-246c-48.6,0-88-39.4-88-88V164.8c0-48.6,39.4-88,88-88
					c0,0,56.9,25.1,130.5,41.2c1.3,0.3,203.5,32.9,203.5,46.8V381.5z"/>
			</g>
		</g>
		<g>
			<g>
				<path class="st3" d="M466.5,360.5c0,48.6-39.4,88-88,88h-246c-48.6,0-88-39.4-88-88V143.8c0-48.6,39.4-88,88-88L289,136
					c48.6,0,177.5-40.8,177.5,7.8V360.5z"/>
			</g>
		</g>
	</g>
	
		<linearGradient id="SVGID_1_" gradientUnits="userSpaceOnUse" x1="43.5" y1="258.9256" x2="465.5" y2="258.9256" gradientTransform="matrix(1 0 0 -1 0 513.2756)">
		<stop  offset="0" style="stop-color:#64C08A"/>
		<stop  offset="0.5" style="stop-color:#00A550"/>
		<stop  offset="1" style="stop-color:#00914C"/>
	</linearGradient>
	<path class="st4" d="M465.5,146v216.7c0,48.6-39.4,88-88,88h-246c-48.6,0-88-39.4-88-88V146c0-48.6,39.4-88,88-88h101.2
		c6.6,14,22.4,47.1,27.1,50.8c4.6,3.6,135.5,1.7,197.7,0.6C462.7,120.6,465.5,133,465.5,146z"/>
	
		<g id="svg2" xmlns:cc="http://creativecommons.org/ns#" xmlns:dc="http://purl.org/dc/elements/1.1/" xmlns:inkscape="http://www.inkscape.org/namespaces/inkscape" xmlns:rdf="http://www.w3.org/1999/02/22-rdf-syntax-ns#" xmlns:sodipodi="http://sodipodi.sourceforge.net/DTD/sodipodi-0.dtd" xmlns:svg="http://www.w3.org/2000/svg" class="st0">
		
			<sodipodi:namedview  bordercolor="#666666" borderopacity="1.0" id="base" inkscape:current-layer="layer1" inkscape:cx="125.01135" inkscape:cy="331.75675" inkscape:document-units="px" inkscape:pageopacity="0.0" inkscape:pageshadow="2" inkscape:window-height="719" inkscape:window-maximized="1" inkscape:window-width="1360" inkscape:window-x="0" inkscape:window-y="25" inkscape:zoom="0.51420519" pagecolor="#ffffff" showgrid="false">
			</sodipodi:namedview>
		<path class="st5" d="M50.5,119.8h410c-12.8-32.8-44.7-56-82-56h-246C95.2,63.8,63.3,87.1,50.5,119.8z"/>
		<g class="st6">
			<g>
				<rect x="172.5" y="147" class="st7" width="305" height="240"/>
				<text transform="matrix(1 0 0 1 172.4998 336.999)" class="st8 st9 st10">A</text>
			</g>
		</g>
	</g>
	<ellipse class="st11" cx="147.5" cy="178" rx="63" ry="61.5"/>
	<circle class="st12" cx="146.5" cy="171.5" r="62"/>
</g>
<g id="Layer_3" class="st0">
	<path class="st13" d="M401.1,212.2c5.1,15.3,7.9,31.7,7.9,48.8c0,85.3-69.2,154.5-154.5,154.5S100,346.3,100,261
		s69.2-154.5,154.5-154.5c51.2,0,96.6,24.9,124.7,63.3"/>
	<path class="st14" d="M333.4,255.2c0,4.2-3.3,7.7-7.4,7.7H174.9c-4.1,0-7.4-3.4-7.4-7.7l0,0c0-4.2,3.3-7.7,7.4-7.7H326
		C330.1,247.5,333.4,250.9,333.4,255.2L333.4,255.2z"/>
	<path class="st14" d="M333.4,284.8c0,4.2-3.3,7.6-7.4,7.6H174.9c-4.1,0-7.4-3.4-7.4-7.6l0,0c0-4.2,3.3-7.6,7.4-7.6H326
		C330.1,277.1,333.4,280.6,333.4,284.8L333.4,284.8z"/>
	<path class="st14" d="M333.4,313c0,4.2-3.3,7.7-7.4,7.7H174.9c-4.1,0-7.4-3.4-7.4-7.7l0,0c0-4.2,3.3-7.6,7.4-7.6H326
		C330.1,305.4,333.4,308.8,333.4,313L333.4,313z"/>
	<path class="st14" d="M333.4,338.4c0,4.2-3.3,7.7-7.4,7.7H174.9c-4.1,0-7.4-3.4-7.4-7.7l0,0c0-4.2,3.3-7.6,7.4-7.6H326
		C330.1,330.7,333.4,334.1,333.4,338.4L333.4,338.4z"/>
	<polygon class="st15" points="395,191.5 320.2,165.2 380.4,113.5 	"/>
	<g class="st6">
		<g>
			<g>
				<path class="st16" d="M241.5,239.2c-2.3,0-4.4-1.1-5.8-2.9l-18.8-24.8c-2.4-3.2-1.8-7.8,1.4-10.3c3.2-2.4,7.8-1.8,10.3,1.4
					l12.3,16.3l31-49.8c2.1-3.4,6.6-4.5,10.1-2.3c3.4,2.1,4.5,6.6,2.3,10.1l-36.7,58.9c-1.3,2-3.5,3.3-5.9,3.4
					C241.7,239.2,241.6,239.2,241.5,239.2z"/>
			</g>
		</g>
	</g>
</g>
<g id="Layer_2_2_" class="st0">
	<rect x="121" y="171.5" class="st17" width="298" height="251"/>
	<text transform="matrix(1 0 0 1 120.9998 348.998)" class="st5 st18 st10">24</text>
	<circle class="st19" cx="138.3" cy="91.8" r="17.3"/>
	<circle class="st19" cx="185.3" cy="91.8" r="17.3"/>
	<circle class="st19" cx="232.3" cy="91.8" r="17.3"/>
	<circle class="st19" cx="278.3" cy="91.8" r="17.3"/>
	<circle class="st19" cx="323.3" cy="91.8" r="17.3"/>
	<circle class="st19" cx="368.3" cy="91.8" r="17.3"/>
</g>
<path class="st20" d="M319.7,152.4c-1-0.3-2-0.4-3-0.4l0,0H158.9c-16.8,0-30.4,13.6-30.4,30.4v115.3l0,0c0,6.7,5.4,12.1,12.1,12.1
	l0,0c6.7,0,12.1-5.4,12.1-12.1l0,0l0,0l0,0V194.5c0-10.1,8.2-18.2,18.2-18.2h145.7l0,0c1.1,0,2.1-0.1,3-0.4c1,0.3,2,0.4,3,0.4l0,0
	H341c10.1,0,18.2,8.2,18.2,18.2v18.2l0,0c0,6.7,5.4,12.1,12.1,12.1l0,0c6.7,0,12.1-5.4,12.1-12.1l0,0v-30.4
	c0-16.8-13.6-30.4-30.4-30.4h-30.4l0,0C321.7,152,320.7,152.1,319.7,152.4z M280.2,291.6L280.2,291.6L280.2,291.6
	c1.3,0,2.7,0.1,4,0.4c3.3,0.5,6.5,1.4,9.5,2.8c3,1.3,5.7,3.3,7.7,6c1,1.4,1.8,3,2.2,4.6c0.7,2.4,1.1,4.9,1,7.5c0.1,2.5-0.3,5-1,7.5
	c-0.5,1.6-1.3,3.2-2.2,4.6c-2,2.7-4.7,4.7-7.7,6c-3,1.4-6.2,2.3-9.5,2.8c-1.3,0.2-2.6,0.4-3.9,0.4h-84.9c-3.2,0-6.3,1.3-8.6,3.6
	c-2.2,2.2-3.6,5.3-3.6,8.6c0,3.2,1.3,6.3,3.6,8.6c2.2,2.3,5.3,3.6,8.6,3.6h85c0.1,0,0.2,0,0.2,0c2.4-0.1,4.9-0.2,7.3-0.7
	c5.4-0.8,10.6-2.3,15.6-4.6c6.9-3,12.8-7.8,17.4-13.8c2.6-3.6,4.6-7.7,6-12c1.4-4.7,2.1-9.6,2.1-14.6c0.1-4.9-0.7-9.8-2.1-14.6
	c-1.3-4.2-3.3-8.3-6-12c-4.6-6-10.5-10.7-17.4-13.8c-5-2.2-10.2-3.8-15.6-4.6c-2.4-0.4-4.9-0.6-7.3-0.7c-0.1,0-0.3,0-0.5,0H233
	c-0.4,0-0.8-0.1-1.2-0.1l0,0c-1.3-0.1-2.7-0.2-4-0.4c-3.3-0.4-6.5-1.4-9.5-2.7c-3-1.3-5.7-3.4-7.7-6c-1-1.4-1.8-3-2.2-4.6
	c-0.7-2.4-1.1-5-1-7.5c-0.1-2.5,0.3-5.1,1-7.5c0.5-1.6,1.3-3.2,2.2-4.6c2-2.6,4.7-4.7,7.7-6s6.2-2.3,9.5-2.7
	c1.3-0.2,2.6-0.4,3.9-0.4h84.9c3.2,0,6.3-1.3,8.6-3.6c2.2-2.2,3.6-5.3,3.6-8.6c0-3.2-1.3-6.3-3.6-8.6c-2.3-2.2-5.4-3.5-8.6-3.5h-85
	c-0.1,0-0.2,0-0.2,0c-2.4,0-4.9,0.2-7.3,0.7c-5.4,0.8-10.6,2.3-15.6,4.6c-6.9,3-12.8,7.8-17.4,13.8c-2.6,3.6-4.6,7.6-5.9,12
	c-1.4,4.7-2.1,9.6-2.1,14.6c-0.1,4.9,0.7,9.8,2.1,14.5c1.3,4.3,3.3,8.4,5.9,12c4.6,6,10.5,10.8,17.4,13.8c5,2.2,10.2,3.7,15.6,4.6
	c2.4,0.4,4.9,0.6,7.3,0.7c0.1,0,0.2,0,0.2,0l0.1,0.1L280.2,291.6L280.2,291.6L280.2,291.6L280.2,291.6z M189.2,382.7L189.2,382.7
	c6.7,0,12.1,5.4,12.1,12.1l0,0c0,6.7-5.4,12.1-12.1,12.1l0,0h-30.4c-16.8,0-30.4-13.6-30.4-30.4v-30.4l0,0c0-6.7,5.4-12.1,12.1-12.1
	l0,0c6.7,0,12.1,5.4,12.1,12.1l0,0v18.2c0,10.1,8.2,18.2,18.2,18.2L189.2,382.7L189.2,382.7L189.2,382.7L189.2,382.7z M359.2,267.3
	L359.2,267.3c0-6.7,5.4-12.1,12.1-12.1l0,0c6.7,0,12.1,5.4,12.1,12.1l0,0v109.3c0,16.8-13.6,30.4-30.4,30.4H243.9l0,0
	c-6.7,0-12.1-5.4-12.1-12.1l0,0c0-6.7,5.4-12.1,12.1-12.1l0,0H341c10.1,0,18.2-8.2,18.2-18.2V267.3L359.2,267.3z"/>
</svg>
