<?xml version="1.0" encoding="utf-8"?>
<!-- Generator: Adobe Illustrator 24.0.1, SVG Export Plug-In . SVG Version: 6.00 Build 0)  -->
<svg version="1.1" id="Layer_1" xmlns="http://www.w3.org/2000/svg" xmlns:xlink="http://www.w3.org/1999/xlink" x="0px" y="0px"
	 viewBox="0 0 512 512" style="enable-background:new 0 0 512 512;" xml:space="preserve">
<style type="text/css">
	.st0{display:none;}
	.st1{opacity:0.9;}
	.st2{fill:#B7B7B7;}
	.st3{fill:#FFFFFF;}
	.st4{fill:url(#SVGID_1_);stroke:#E2E2E2;stroke-width:10;stroke-miterlimit:10;}
	.st5{display:inline;fill:#EF3A24;}
	.st6{display:inline;}
	.st7{fill:none;}
	.st8{fill:#FF9900;}
	.st9{font-family:'Tahoma';}
	.st10{font-size:250px;}
	.st11{display:none;fill:#B4DFF7;}
	.st12{display:none;fill:#31C4E9;}
	.st13{display:inline;fill:#200A7F;stroke:#18E5EA;stroke-width:20;stroke-miterlimit:10;}
	.st14{display:inline;fill:#EF0B79;}
	.st15{display:inline;fill:#18E5EA;}
	.st16{fill:#E9F21C;}
	.st17{display:inline;fill:none;}
	.st18{font-family:'MyriadPro-Regular';}
	.st19{display:inline;fill:#FFFFFF;}
	.st20{fill:url(#SVGID_2_);stroke:url(#SVGID_3_);stroke-width:8;stroke-miterlimit:10;}
	.st21{fill:none;stroke:#FFFFFF;stroke-width:20;stroke-miterlimit:10;}
</style>
<g id="Layer_1_1_">
	<g id="Layer_2_1_" class="st0">
	</g>
	<g id="shadows">
		<g class="st1">
			<g>
				<path class="st2" d="M465.5,151.5c-1.4-8.8-4-17.2-7.8-25H55.4c-0.9,1.1-2.1,2.1-3.5,2.9c-4.8,10.8-7.5,22.9-7.5,35.5v216.7
					c0,48.6,39.4,88,88,88h246c48.6,0,88-39.4,88-88V164.8C466.5,160.3,466.2,155.9,465.5,151.5z"/>
			</g>
		</g>
		<g>
			<g>
				<path class="st3" d="M464.8,126.5c-8-40.3-43.6-70.7-86.3-70.7h-246c-32.4,0-60.8,17.5-76,43.7c0.1,0,0.2,0.1,0.2,0.2
					C72.2,74.6,99.9,58,131.5,58h246c41.9,0,77,29.3,85.8,68.5H55.4c-2.1,2.6-5.3,4.3-9.6,4.3c-0.1,0-0.2,0-0.4,0
					c-0.6,4.3-1,8.6-1,13v216.7c0,48.6,39.4,88,88,88h246c35.1,0,65.4-20.5,79.5-50.2c5.5-11.5,8.5-24.3,8.5-37.8V143.8
					C466.5,137.9,465.9,132.1,464.8,126.5z"/>
			</g>
		</g>
	</g>
	
		<linearGradient id="SVGID_1_" gradientUnits="userSpaceOnUse" x1="43.5" y1="224.6756" x2="465.5" y2="224.6756" gradientTransform="matrix(1 0 0 -1 0 513.2756)">
		<stop  offset="0" style="stop-color:#64C08A"/>
		<stop  offset="0.5" style="stop-color:#00A550"/>
		<stop  offset="1" style="stop-color:#00914C"/>
	</linearGradient>
	<path class="st4" d="M463.3,126.5H55.4c-2.1,2.6-5.3,4.3-9.6,4.3c-0.3,0-0.7,0-1,0c-0.9,5-1.3,10-1.3,15.2v216.7
		c0,4.5,0.3,9,1,13.3c6.4,42.3,42.9,74.7,87,74.7h246c35.9,0,66.8-21.5,80.5-52.4c4.8-10.9,7.5-22.9,7.5-35.6V146
		C465.5,139.3,464.8,132.8,463.3,126.5z"/>
	
		<g id="svg2" xmlns:cc="http://creativecommons.org/ns#" xmlns:dc="http://purl.org/dc/elements/1.1/" xmlns:inkscape="http://www.inkscape.org/namespaces/inkscape" xmlns:rdf="http://www.w3.org/1999/02/22-rdf-syntax-ns#" xmlns:sodipodi="http://sodipodi.sourceforge.net/DTD/sodipodi-0.dtd" xmlns:svg="http://www.w3.org/2000/svg" class="st0">
		
			<sodipodi:namedview  bordercolor="#666666" borderopacity="1.0" id="base" inkscape:current-layer="layer1" inkscape:cx="125.01135" inkscape:cy="331.75675" inkscape:document-units="px" inkscape:pageopacity="0.0" inkscape:pageshadow="2" inkscape:window-height="719" inkscape:window-maximized="1" inkscape:window-width="1360" inkscape:window-x="0" inkscape:window-y="25" inkscape:zoom="0.51420519" pagecolor="#ffffff" showgrid="false">
			</sodipodi:namedview>
		<path class="st5" d="M50.5,119.8h410c-12.8-32.8-44.7-56-82-56h-246C95.2,63.8,63.3,87.1,50.5,119.8z"/>
		<g class="st6">
			<g>
				<rect x="172.5" y="147" class="st7" width="305" height="240"/>
				<text transform="matrix(1 0 0 1 172.4998 336.999)" class="st8 st9 st10">A</text>
			</g>
		</g>
	</g>
	<ellipse class="st11" cx="147.5" cy="178" rx="63" ry="61.5"/>
	<circle class="st12" cx="146.5" cy="171.5" r="62"/>
</g>
<g id="Layer_3" class="st0">
	<path class="st13" d="M401.1,212.2c5.1,15.3,7.9,31.7,7.9,48.8c0,85.3-69.2,154.5-154.5,154.5S100,346.3,100,261
		s69.2-154.5,154.5-154.5c51.2,0,96.6,24.9,124.7,63.3"/>
	<path class="st14" d="M333.4,255.2c0,4.2-3.3,7.7-7.4,7.7H174.9c-4.1,0-7.4-3.4-7.4-7.7l0,0c0-4.2,3.3-7.7,7.4-7.7H326
		C330.1,247.5,333.4,250.9,333.4,255.2L333.4,255.2z"/>
	<path class="st14" d="M333.4,284.8c0,4.2-3.3,7.6-7.4,7.6H174.9c-4.1,0-7.4-3.4-7.4-7.6l0,0c0-4.2,3.3-7.6,7.4-7.6H326
		C330.1,277.1,333.4,280.6,333.4,284.8L333.4,284.8z"/>
	<path class="st14" d="M333.4,313c0,4.2-3.3,7.7-7.4,7.7H174.9c-4.1,0-7.4-3.4-7.4-7.7l0,0c0-4.2,3.3-7.6,7.4-7.6H326
		C330.1,305.4,333.4,308.8,333.4,313L333.4,313z"/>
	<path class="st14" d="M333.4,338.4c0,4.2-3.3,7.7-7.4,7.7H174.9c-4.1,0-7.4-3.4-7.4-7.7l0,0c0-4.2,3.3-7.6,7.4-7.6H326
		C330.1,330.7,333.4,334.1,333.4,338.4L333.4,338.4z"/>
	<polygon class="st15" points="395,191.5 320.2,165.2 380.4,113.5 	"/>
	<g class="st6">
		<g>
			<g>
				<path class="st16" d="M241.5,239.2c-2.3,0-4.4-1.1-5.8-2.9l-18.8-24.8c-2.4-3.2-1.8-7.8,1.4-10.3c3.2-2.4,7.8-1.8,10.3,1.4
					l12.3,16.3l31-49.8c2.1-3.4,6.6-4.5,10.1-2.3c3.4,2.1,4.5,6.6,2.3,10.1l-36.7,58.9c-1.3,2-3.5,3.3-5.9,3.4
					C241.7,239.2,241.6,239.2,241.5,239.2z"/>
			</g>
		</g>
	</g>
</g>
<g id="Layer_2_2_" class="st0">
	<rect x="121" y="171.5" class="st17" width="298" height="251"/>
	<text transform="matrix(1 0 0 1 120.9998 348.998)" class="st5 st18 st10">24</text>
	<circle class="st19" cx="138.3" cy="91.8" r="17.3"/>
	<circle class="st19" cx="185.3" cy="91.8" r="17.3"/>
	<circle class="st19" cx="232.3" cy="91.8" r="17.3"/>
	<circle class="st19" cx="278.3" cy="91.8" r="17.3"/>
	<circle class="st19" cx="323.3" cy="91.8" r="17.3"/>
	<circle class="st19" cx="368.3" cy="91.8" r="17.3"/>
</g>
<g>
	
		<linearGradient id="SVGID_2_" gradientUnits="userSpaceOnUse" x1="43.5" y1="457.4256" x2="465.5" y2="457.4256" gradientTransform="matrix(1 0 0 -1 0 513.2756)">
		<stop  offset="0" style="stop-color:#64C08A"/>
		<stop  offset="0.5" style="stop-color:#00A550"/>
		<stop  offset="1" style="stop-color:#00914C"/>
	</linearGradient>
	
		<radialGradient id="SVGID_3_" cx="254.5" cy="376.15" r="153.7183" gradientTransform="matrix(1 0 0 -1 0 432)" gradientUnits="userSpaceOnUse">
		<stop  offset="5.600000e-03" style="stop-color:#FFFEEE"/>
		<stop  offset="0.2849" style="stop-color:#F3F4E9"/>
		<stop  offset="0.7472" style="stop-color:#D7DADE"/>
		<stop  offset="0.8764" style="stop-color:#DCD8D4"/>
	</radialGradient>
	<path class="st20" d="M465.5,56.4c0-3.1-4.1-5.6-9-5.6H310.6V36.7c0-5-6.5-9-14.5-9h-81.5c-8,0-14.5,4.1-14.5,9v14.1H52.5
		c-5,0-9,2.5-9,5.6V84h422V56.4L465.5,56.4z"/>
</g>
<line class="st21" x1="195.8" y1="169.2" x2="195.8" y2="416.5"/>
<line class="st21" x1="244.7" y1="169.2" x2="244.7" y2="416.5"/>
<line class="st21" x1="293.5" y1="169.2" x2="293.5" y2="416.5"/>
</svg>
