<?xml version="1.0" encoding="utf-8"?>
<!-- Generator: Adobe Illustrator 16.0.0, SVG Export Plug-In . SVG Version: 6.00 Build 0)  -->
<!DOCTYPE svg PUBLIC "-//W3C//DTD SVG 1.1//EN" "http://www.w3.org/Graphics/SVG/1.1/DTD/svg11.dtd">
<svg version="1.1" xmlns="http://www.w3.org/2000/svg" xmlns:xlink="http://www.w3.org/1999/xlink" x="0px" y="0px" width="512px"
	 height="512px" viewBox="0 0 512 512" enable-background="new 0 0 512 512" xml:space="preserve">
<g id="Layer_1">
	<g id="Layer_1_1_">
		<g id="Layer_2" display="none">
		</g>
		<g id="shadows">
			<g opacity="0.9">
				<g>
					<path fill="#B7B7B7" d="M466.5,381.5c0,48.6-39.4,88-88,88h-246c-48.601,0-88-39.4-88-88V164.833c0-48.601,39.399-88,88-88h246
						c48.6,0,88,39.399,88,88V381.5z"/>
				</g>
			</g>
			<g>
				<g>
					<path fill="#FFFFFF" d="M466.5,360.5c0,48.6-39.4,88-88,88h-246c-48.601,0-88-39.4-88-88V143.833c0-48.601,39.399-88,88-88h246
						c48.6,0,88,39.399,88,88V360.5z"/>
				</g>
			</g>
		</g>
		
			<radialGradient id="SVGID_1_" cx="254.5" cy="-578.3335" r="203.7987" gradientTransform="matrix(1 0 0 -1 0 -324)" gradientUnits="userSpaceOnUse">
			<stop  offset="0" style="stop-color:#735AA8"/>
			<stop  offset="0.5" style="stop-color:#553C99"/>
			<stop  offset="1" style="stop-color:#2F1284"/>
		</radialGradient>
		<path fill="url(#SVGID_1_)" stroke="#E2E2E2" stroke-width="10" stroke-miterlimit="10" d="M465.5,362.667c0,48.6-39.399,88-88,88
			h-246c-48.601,0-88-39.4-88-88V146c0-48.601,39.399-88,88-88h246c48.601,0,88,39.399,88,88V362.667z"/>
	</g>
	<g id="Layer_2_1_">
	</g>
</g>
<g id="Layer_3">
	<g>
		<g>
			<radialGradient id="SVGID_2_" cx="335.1406" cy="170.8682" r="8.2562" gradientUnits="userSpaceOnUse">
				<stop  offset="0" style="stop-color:#FEEC8E"/>
				<stop  offset="0.5" style="stop-color:#FECB00"/>
				<stop  offset="1" style="stop-color:#FEA300"/>
			</radialGradient>
			<polygon fill="url(#SVGID_2_)" stroke="#000000" stroke-miterlimit="10" points="333.326,171.312 333.645,173.758 
				329.977,174.52 329.494,179.732 333.883,179.732 339.729,179.169 342.74,175.583 339.535,174.334 337.781,172.315 
				335.148,168.044 333.883,162.004 328.932,163.014 327.541,165.145 327.541,167.542 329.924,169.178 			"/>
			<radialGradient id="SVGID_3_" cx="324.373" cy="173.2563" r="4.7348" gradientUnits="userSpaceOnUse">
				<stop  offset="0" style="stop-color:#FEEC8E"/>
				<stop  offset="0.5" style="stop-color:#FECB00"/>
				<stop  offset="1" style="stop-color:#FEA300"/>
			</radialGradient>
			<polygon fill="url(#SVGID_3_)" stroke="#000000" stroke-miterlimit="10" points="329.104,173.318 329.367,170.051 
				326.463,168.796 322.391,169.74 319.379,174.579 319.379,177.717 322.895,177.717 			"/>
			<radialGradient id="SVGID_4_" cx="244.623" cy="189.9985" r="3.7396" gradientUnits="userSpaceOnUse">
				<stop  offset="0" style="stop-color:#FEEC8E"/>
				<stop  offset="0.5" style="stop-color:#FECB00"/>
				<stop  offset="1" style="stop-color:#FEA300"/>
			</radialGradient>
			<path fill="url(#SVGID_4_)" stroke="#000000" stroke-miterlimit="10" d="M245.386,187.196l-0.894,2.305h-4.332v2.237h1.028
				c0,0,0.064,0.473,0.149,1.099l2.659-0.224l1.661-1.03l0.434-2.083l2.148-0.183l0.847-1.751l-1.971-0.407L245.386,187.196z"/>
			<radialGradient id="SVGID_5_" cx="235.7837" cy="191.4736" r="1.856" gradientUnits="userSpaceOnUse">
				<stop  offset="0" style="stop-color:#FEEC8E"/>
				<stop  offset="0.5" style="stop-color:#FECB00"/>
				<stop  offset="1" style="stop-color:#FEA300"/>
			</radialGradient>
			<polygon fill="url(#SVGID_5_)" stroke="#000000" stroke-miterlimit="10" points="234.222,191.255 234.053,193.447 
				237.191,193.182 237.515,190.984 235.632,189.501 			"/>
			<radialGradient id="SVGID_6_" cx="257.9482" cy="262.8115" r="164.812" gradientUnits="userSpaceOnUse">
				<stop  offset="0" style="stop-color:#FEEC8E"/>
				<stop  offset="0.5" style="stop-color:#FECB00"/>
				<stop  offset="1" style="stop-color:#FEA300"/>
			</radialGradient>
			<path fill="url(#SVGID_6_)" stroke="#000000" stroke-miterlimit="10" d="M422.725,261.104c-0.053-4.819-0.293-9.6-0.748-14.313
				c-1.523-15.709-5.277-30.764-10.904-44.878c-0.422-1.053-0.807-2.114-1.258-3.15c-7.494-17.716-18.02-33.843-30.916-47.761
				c-0.848-0.906-1.707-1.804-2.566-2.685c-2.432-2.53-4.934-4.995-7.521-7.362c-29.301-26.675-68.213-42.957-110.863-42.957
				c-43.013,0-82.201,16.574-111.581,43.655c-6.849,6.313-13.138,13.202-18.848,20.576c-21.528,27.848-34.381,62.731-34.381,100.582
				c0,90.881,73.94,164.813,164.816,164.813c63.928,0,119.424-36.609,146.744-89.94c5.846-11.407,10.395-23.561,13.459-36.298
				c0.781-3.237,1.449-6.481,2.033-9.764c1.66-9.361,2.568-18.994,2.568-28.812C422.764,262.242,422.73,261.674,422.725,261.104z
				 M391.703,195.234l0.953-1.069c1.258,2.434,2.43,4.909,3.549,7.418l-1.563-0.064l-2.939,0.408V195.234z M367.883,166.479
				l0.033-7.36c2.59,2.744,5.086,5.57,7.475,8.5l-2.971,4.418l-10.383-0.093l-0.654-2.165L367.883,166.479z M169.076,148.182v-0.278
				h3.301l0.285-1.132h5.401v2.359l-1.553,2.076h-7.439L169.076,148.182L169.076,148.182z M174.348,155.537
				c0,0,3.301-0.56,3.585-0.56s0,3.293,0,3.293l-7.441,0.467l-1.416-1.694L174.348,155.537z M402.201,220.963h-12.061l-7.348-5.472
				l-7.732,0.751v4.72h-2.449l-2.643-1.888l-13.393-3.395v-8.676l-16.973,1.32l-5.264,2.828h-6.74l-3.303-0.332l-8.184,4.542v8.55
				l-16.721,12.064l1.391,5.155h3.389l-0.887,4.905l-2.383,0.873l-0.133,12.83l14.457,16.457h6.291l0.377-1.006h11.307l3.264-3.02
				h6.408l3.521,3.529l9.561,0.985l-1.271,12.711l10.605,18.735l-5.582,10.678l0.379,5.024l4.395,4.39v12.094l5.779,7.773v10.042
				h4.992c-27.771,34.086-70.027,55.926-117.311,55.926c-83.397,0.008-151.247-67.848-151.247-151.248
				c0-20.999,4.313-41.009,12.072-59.196v-4.72l5.412-6.568c1.876-3.544,3.889-7.003,6.041-10.374l0.241,2.749l-6.275,7.625
				c-1.947,3.675-3.764,7.429-5.409,11.288v8.609l6.282,3.022v11.965l6.028,10.284l4.899,0.754l0.632-3.527l-5.782-8.921
				l-1.133-8.668h3.39l1.43,8.919l8.357,12.197l-2.154,3.934l5.316,8.129l13.196,3.271v-2.139l5.28,0.756l-0.499,3.767l4.148,0.761
				l6.407,1.747l9.05,10.309l11.559,0.879l1.132,9.428l-7.911,5.534l-0.374,8.415l-1.132,5.156l11.443,14.319l0.874,4.913
				c0,0,4.148,1.124,4.657,1.124c0.503,0,9.302,6.661,9.302,6.661v25.891l3.138,0.881l-2.135,11.941l5.28,7.045l-0.974,11.837
				l6.974,12.266l8.955,7.818l9.003,0.166l0.879-2.893l-6.617-5.573l0.382-2.769l1.188-3.39l0.248-3.455l-4.472-0.133l-2.257-2.832
				l3.714-3.576l0.499-2.7l-4.146-1.185l0.245-2.51l5.911-0.894l8.987-4.316l3.02-5.534l9.426-12.068l-2.143-9.434l2.898-5.025
				l8.664,0.265l5.84-4.621l1.887-18.204l6.475-8.229l1.131-5.275l-5.904-1.894l-3.898-6.395l-13.32-0.133l-10.563-4.024
				l-0.499-7.534l-3.525-6.163l-9.553-0.141l-5.519-8.665l-4.902-2.39l-0.248,2.642l-8.923,0.523l-3.267-4.542l-9.309-1.894
				l-7.665,8.857l-12.065-2.045l-0.878-13.598l-8.804-1.503l3.532-6.674l-1.01-3.825l-11.572,7.731l-7.281-0.887l-2.595-5.693
				l1.585-5.862l4.016-7.394l9.238-4.677l17.841-0.006l-0.046,5.441l6.415,2.983l-0.509-9.298l4.624-4.65l9.327-6.13l0.636-4.311
				l9.302-9.682l9.89-5.477l-0.873-0.718l6.696-6.303l2.455,0.649l1.125,1.41l2.543-2.82l0.622-0.278l-2.788-0.391l-2.826-0.943
				v-2.71l1.5-1.228h3.299l1.514,0.665l1.307,2.642l1.603-0.242v-0.233l0.459,0.155l4.638-0.71l0.655-2.265l2.644,0.666v2.452
				l-2.452,1.688h0.006l0.357,2.691l8.402,2.589c0,0,0.008,0.036,0.02,0.102l1.934-0.161l0.131-3.642l-6.662-3.028l-0.377-1.751
				l5.525-1.883l0.242-5.288l-5.775-3.518l-0.38-8.914l-7.917,3.889h-2.89l0.761-6.785l-10.777-2.542l-4.461,3.369v10.278
				l-8.021,2.542l-3.214,6.696l-3.482,0.563v-8.57l-7.54-1.042l-3.768-2.454l-1.52-5.554l13.483-7.891l6.597-2.006l0.665,4.436
				l3.675-0.192l0.284-2.231l3.842-0.546l0.07-0.78l-1.655-0.686l-0.38-2.356l4.726-0.401l2.854-2.969l0.155-0.217l0.034,0.014
				l0.867-0.895l9.933-1.255l4.393,3.731l-11.52,6.133l14.657,3.456l1.896-4.899h6.41l2.262-4.273l-4.527-1.132v-5.403
				l-14.203-6.288l-9.802,1.132l-5.531,2.893l0.377,7.037L226.214,144l-0.888-3.893l5.539-5.03l-10.053-0.5l-2.885,0.873
				l-1.255,3.391l3.766,0.639l-0.751,3.766l-6.404,0.382l-1.004,2.508l-9.294,0.258c0,0-0.258-5.276-0.633-5.276
				c-0.371,0,7.289-0.129,7.289-0.129l5.537-5.409l-3.021-1.512l-4.022,3.906l-6.67-0.382l-4.019-5.531h-8.55l-8.919,6.664h8.176
				l0.744,2.393l-2.12,1.973l9.049,0.251l1.383,3.268l-10.188-0.377l-0.496-2.516l-6.405-1.382l-3.395-1.885l-7.626,0.061
				c24.967-18.189,55.667-28.954,88.851-28.954c38.246,0,73.195,14.297,99.854,37.789l-1.795,3.209l-6.977,2.735l-2.939,3.191
				l0.676,3.724l3.6,0.499l2.174,5.423l6.209-2.499l1.02,7.252H357.9l-5.098-0.751l-5.654,0.949l-5.475,7.726l-7.824,1.228
				l-1.131,6.697l3.303,0.78l-0.961,4.303l-7.766-1.559l-7.123,1.559l-1.514,3.966l1.236,8.328l4.178,1.956l7.018-0.04l4.74-0.427
				l1.443-3.769l7.4-9.62l4.879,0.997l4.799-4.337l0.895,3.391l11.809,7.963l-1.449,1.941l-5.316-0.286l2.047,2.901l3.27,0.718
				l3.842-1.599l-0.082-4.624l1.703-0.855l-1.371-1.449l-7.877-4.392l-2.072-5.839h6.547l2.092,2.076l5.641,4.861l0.238,5.876
				l5.846,6.223l2.178-8.527l4.045-2.212l0.76,6.979l3.947,4.335l7.891-0.135c1.523,3.926,2.893,7.917,4.092,11.992L402.201,220.963
				z M183.034,172.878l3.959-1.885l3.579,0.855l-1.235,4.805l-3.864,1.229L183.034,172.878z M204.04,184.192v3.11h-9.043
				l-3.389-0.94l0.847-2.17l4.346-1.795h5.938v1.795H204.04z M208.205,188.53v3.017l-2.265,1.458l-2.82,0.521c0,0,0-4.521,0-4.996
				H208.205z M205.655,187.303v-3.585l3.111,2.834L205.655,187.303z M207.072,194.559v2.933l-2.165,2.17h-4.807l0.756-3.296
				l2.27-0.195l0.467-1.133L207.072,194.559z M195.099,188.53h4.995l-6.405,8.955l-2.644-1.418l0.569-3.766L195.099,188.53z
				 M215.56,193.526v2.93h-4.807l-1.317-1.897v-2.728h0.38L215.56,193.526z M211.116,189.501l1.371-1.436l2.311,1.436l-1.85,1.525
				L211.116,189.501z M404.658,228.596l0.471-0.557c0.197,0.854,0.41,1.708,0.596,2.575L404.658,228.596z"/>
			<radialGradient id="SVGID_7_" cx="121.4814" cy="197.9712" r="4.4253" gradientUnits="userSpaceOnUse">
				<stop  offset="0" style="stop-color:#FEEC8E"/>
				<stop  offset="0.5" style="stop-color:#FECB00"/>
				<stop  offset="1" style="stop-color:#FEA300"/>
			</radialGradient>
			<path fill="url(#SVGID_7_)" stroke="#000000" stroke-miterlimit="10" d="M118.777,198.895v4.72
				c1.645-3.85,3.462-7.607,5.409-11.288L118.777,198.895z"/>
		</g>
	</g>
</g>
</svg>
