<?xml version="1.0" encoding="utf-8"?>
<!-- Generator: Adobe Illustrator 16.0.0, SVG Export Plug-In . SVG Version: 6.00 Build 0)  -->
<!DOCTYPE svg PUBLIC "-//W3C//DTD SVG 1.1//EN" "http://www.w3.org/Graphics/SVG/1.1/DTD/svg11.dtd">
<svg version="1.1" id="Layer_1" xmlns="http://www.w3.org/2000/svg" xmlns:xlink="http://www.w3.org/1999/xlink" x="0px" y="0px"
	 width="512px" height="512px" viewBox="0 0 512 512" enable-background="new 0 0 512 512" xml:space="preserve">
<g id="Layer_1_1_">
	<g id="Layer_2" display="none">
	</g>
	<g id="shadows">
		<g opacity="0.9">
			<g>
				<path fill="#B7B7B7" d="M466.5,381.5c0,48.6-39.4,88-88,88h-246c-48.601,0-88-39.4-88-88V164.833c0-48.601,39.399-88,88-88h246
					c48.6,0,88,39.399,88,88V381.5z"/>
			</g>
		</g>
		<g>
			<g>
				<path fill="#FFFFFF" d="M466.5,360.5c0,48.6-39.4,88-88,88h-246c-48.601,0-88-39.4-88-88V143.833c0-48.601,39.399-88,88-88h246
					c48.6,0,88,39.399,88,88V360.5z"/>
			</g>
		</g>
	</g>
	
		<radialGradient id="SVGID_1_" cx="254.5" cy="-578.3335" r="203.7987" gradientTransform="matrix(1 0 0 -1 0 -324)" gradientUnits="userSpaceOnUse">
		<stop  offset="0.0112" style="stop-color:#53A9B3"/>
		<stop  offset="0.5" style="stop-color:#048399"/>
		<stop  offset="0.9944" style="stop-color:#045A64"/>
	</radialGradient>
	<path fill="url(#SVGID_1_)" stroke="#E2E2E2" stroke-width="10" stroke-miterlimit="10" d="M465.5,362.667c0,48.6-39.399,88-88,88
		h-246c-48.601,0-88-39.4-88-88V146c0-48.601,39.399-88,88-88h246c48.601,0,88,39.399,88,88V362.667z"/>
</g>
<g id="Layer_2_1_">
</g>
<g>
	
		<image overflow="visible" opacity="0.75" width="330" height="175" xlink:href="CB43DCE8.png"  transform="matrix(1 0 0 1 93.5 169.5)">
	</image>
	<g>
		<g>
			<radialGradient id="SVGID_2_" cx="257.5" cy="252.167" r="117.3812" gradientUnits="userSpaceOnUse">
				<stop  offset="0" style="stop-color:#FD7E32"/>
				<stop  offset="0.5" style="stop-color:#FF5400"/>
				<stop  offset="1" style="stop-color:#D83C01"/>
			</radialGradient>
			<path fill="url(#SVGID_2_)" d="M368.625,219.42v65.505c0,9.43-7.656,17.091-17.094,17.091c-9.439,0-17.096-7.661-17.096-17.091
				V219.42c0-9.435,7.656-17.093,17.096-17.093C360.969,202.329,368.625,209.976,368.625,219.42z M163.466,202.329
				c-9.434,0-17.094,7.658-17.094,17.093v65.504c0,9.43,7.658,17.092,17.094,17.092c9.434,0,17.091-7.662,17.091-17.092V219.42
				C180.557,209.976,172.91,202.329,163.466,202.329z M389.963,226.088c-9.432,0-17.094,7.654-17.094,17.093v17.973
				c0,9.447,7.662,17.092,17.094,17.092c9.437,0,17.096-7.645,17.096-17.092v-17.973
				C407.059,233.734,399.396,226.088,389.963,226.088z M125.033,226.088c-9.435,0-17.091,7.654-17.091,17.093v17.973
				c0,9.447,7.656,17.092,17.091,17.092s17.091-7.645,17.091-17.092v-17.973C142.124,233.734,134.469,226.088,125.033,226.088z
				 M311.561,180.145c-9.431,0-17.093,7.654-17.093,17.093v37.841h-73.942v-37.854c0-9.435-7.659-17.093-17.093-17.093
				c-9.436,0-17.094,7.658-17.094,17.093v109.865c0,9.448,7.658,17.093,17.094,17.093c9.434,0,17.093-7.645,17.093-17.093v-37.823
				h73.942v37.841c0,9.446,7.662,17.093,17.093,17.093c9.432,0,17.093-7.646,17.093-17.093V197.238
				C328.653,187.791,321.01,180.145,311.561,180.145z"/>
		</g>
	</g>
</g>
</svg>
