<?xml version="1.0" encoding="utf-8"?>
<!-- Generator: Adobe Illustrator 16.0.0, SVG Export Plug-In . SVG Version: 6.00 Build 0)  -->
<!DOCTYPE svg PUBLIC "-//W3C//DTD SVG 1.1//EN" "http://www.w3.org/Graphics/SVG/1.1/DTD/svg11.dtd">
<svg version="1.1" id="Layer_1" xmlns="http://www.w3.org/2000/svg" xmlns:xlink="http://www.w3.org/1999/xlink" x="0px" y="0px"
	 width="512px" height="512px" viewBox="0 0 512 512" enable-background="new 0 0 512 512" xml:space="preserve">
<g id="Layer_1_1_">
	<g id="Layer_2" display="none">
	</g>
	<g id="shadows">
		<g opacity="0.9">
			<g>
				<path fill="#B7B7B7" d="M466.5,381.5c0,48.6-39.4,88-88,88h-246c-48.601,0-88-39.4-88-88V164.833c0-48.601,39.399-88,88-88h246
					c48.6,0,88,39.399,88,88V381.5z"/>
			</g>
		</g>
		<g>
			<g>
				<path fill="#FFFFFF" d="M466.5,360.5c0,48.6-39.4,88-88,88h-246c-48.601,0-88-39.4-88-88V143.833c0-48.601,39.399-88,88-88h246
					c48.6,0,88,39.399,88,88V360.5z"/>
			</g>
		</g>
	</g>
	
		<radialGradient id="SVGID_1_" cx="488" cy="177.3335" r="203.7987" gradientTransform="matrix(1 0 0 1 -233.5 77)" gradientUnits="userSpaceOnUse">
		<stop  offset="0" style="stop-color:#FEEC8E"/>
		<stop  offset="0.5" style="stop-color:#FECB00"/>
		<stop  offset="1" style="stop-color:#FEA300"/>
	</radialGradient>
	<path fill="url(#SVGID_1_)" stroke="#E2E2E2" stroke-width="10" stroke-miterlimit="10" d="M465.5,362.667c0,48.6-39.399,88-88,88
		h-246c-48.601,0-88-39.4-88-88V146c0-48.601,39.399-88,88-88h246c48.601,0,88,39.399,88,88V362.667z"/>
</g>
<path fill="#C7EAFF" d="M275.809,211.103H166.121c-16.827,0-30.469,13.642-30.469,30.469v78.203
	c0,16.827,13.642,30.469,30.469,30.469h32.997l-0.458,0.039l22.304,22.305l0.016-22.344h54.828
	c16.827,0,30.469-13.642,30.469-30.469v-78.203C306.277,224.744,292.636,211.103,275.809,211.103z"/>
<path d="M220.966,377.665c-1.322,0-2.62-0.516-3.592-1.487l-20.856-20.856h-30.396c-19.601,0-35.547-15.946-35.547-35.547v-78.203
	c0-19.601,15.946-35.547,35.547-35.547h51.289c2.804,0,5.078,2.273,5.078,5.078s-2.274,5.078-5.078,5.078h-51.289
	c-14,0-25.391,11.39-25.391,25.391v78.203c0,14,11.39,25.391,25.391,25.391h32.997c2.077,0,3.873,1.25,4.657,3.051l12.121,12.12
	l0.007-10.097c0.002-2.803,2.274-5.074,5.078-5.074h54.828c14,0,25.391-11.391,25.391-25.391v-35.039
	c0-2.805,2.273-5.078,5.078-5.078s5.078,2.273,5.078,5.078v35.039c0,19.601-15.946,35.547-35.547,35.547h-49.753l-0.012,17.27
	c-0.001,2.053-1.239,3.903-3.137,4.688C222.279,377.538,221.62,377.665,220.966,377.665z"/>
<radialGradient id="SVGID_2_" cx="308.3555" cy="207.7334" r="76.4691" gradientUnits="userSpaceOnUse">
	<stop  offset="0" style="stop-color:#FEFE93"/>
	<stop  offset="0.5" style="stop-color:#FEFE00"/>
	<stop  offset="1" style="stop-color:#FEDD00"/>
</radialGradient>
<path fill="url(#SVGID_2_)" d="M314.781,129.974H301.93c-37.959,0-68.73,30.771-68.73,68.73l0,0c0,37.958,30.771,68.73,68.73,68.73
	h12.852c7.035,0,13.823-1.06,20.214-3.023l21.095,21.082v-31.855c16.653-12.543,27.422-32.48,27.422-54.934l0,0
	C383.512,160.745,352.74,129.974,314.781,129.974z"/>
<path d="M359.091,292.571c-1.321,0-2.619-0.516-3.591-1.486l-18.985-18.975c-6.094,1.595-12.381,2.402-18.733,2.402H304.93
	c-40.698,0-73.809-33.11-73.809-73.809s33.11-73.809,73.809-73.809h12.852c40.698,0,73.809,33.11,73.809,73.809
	c0,11.789-2.698,23.057-8.021,33.491c-4.687,9.186-11.363,17.41-19.401,23.919v29.379c0,2.055-1.236,3.906-3.135,4.691
	C360.406,292.445,359.746,292.571,359.091,292.571z M337.994,261.333c1.327,0,2.624,0.521,3.591,1.486l12.427,12.42v-19.602
	c0-1.596,0.75-3.098,2.022-4.057c16.142-12.156,25.399-30.701,25.399-50.877c0-35.098-28.554-63.652-63.652-63.652H304.93
	c-35.098,0-63.652,28.554-63.652,63.652c0,35.098,28.554,63.652,63.652,63.652h12.852c6.379,0,12.678-0.941,18.723-2.799
	C336.994,261.406,337.497,261.333,337.994,261.333z"/>
<path d="M270.223,285.243H163.074c-2.804,0-5.078-2.273-5.078-5.078s2.274-5.078,5.078-5.078h107.148
	c2.805,0,5.078,2.273,5.078,5.078S273.027,285.243,270.223,285.243z"/>
<path d="M275.238,311.911c-1.336,0-2.646-0.543-3.59-1.488c-0.945-0.944-1.488-2.254-1.488-3.59s0.543-2.646,1.488-3.59
	c0.944-0.945,2.254-1.488,3.59-1.488s2.646,0.543,3.59,1.488c0.944,0.944,1.488,2.254,1.488,3.59c0,1.341-0.543,2.646-1.488,3.59
	C277.884,311.368,276.574,311.911,275.238,311.911z"/>
<path d="M250.249,313.681h-87.175c-2.804,0-5.078-2.273-5.078-5.078s2.274-5.078,5.078-5.078h87.175
	c2.804,0,5.078,2.273,5.078,5.078S253.054,313.681,250.249,313.681z"/>
<path d="M237.215,256.806h-74.141c-2.804,0-5.078-2.273-5.078-5.078s2.274-5.078,5.078-5.078h74.141
	c2.804,0,5.078,2.273,5.078,5.078S240.02,256.806,237.215,256.806z"/>
<linearGradient id="SVGID_3_" gradientUnits="userSpaceOnUse" x1="260.0645" y1="226.4756" x2="279.8135" y2="226.4756">
	<stop  offset="0" style="stop-color:#FEFE93"/>
	<stop  offset="0.5" style="stop-color:#FEFE00"/>
	<stop  offset="1" style="stop-color:#FEDD00"/>
</linearGradient>
<polygon fill="url(#SVGID_3_)" points="279.645,228.244 262.116,235.318 260.064,232.614 271.701,217.762 271.87,217.634 
	279.813,228.116 "/>
<linearGradient id="SVGID_4_" gradientUnits="userSpaceOnUse" x1="334.7783" y1="172.478" x2="351.5254" y2="172.478">
	<stop  offset="0" style="stop-color:#D750A5"/>
	<stop  offset="0.5" style="stop-color:#C6037E"/>
	<stop  offset="1" style="stop-color:#91027D"/>
</linearGradient>
<path fill="url(#SVGID_4_)" d="M349.842,175.466l-7.12,5.354l-7.943-10.483l7.12-5.354c1.811-1.349,4.356-1.06,5.816,0.662
	c0.048,0.054,0.093,0.112,0.136,0.169l2.82,3.72c0.043,0.058,0.088,0.116,0.128,0.176
	C352.06,171.579,351.64,174.107,349.842,175.466z"/>
<path fill="#F8EC7D" d="M350.799,169.711c-0.04-0.06-0.085-0.118-0.128-0.176l-2.82-3.72c-0.043-0.058-0.088-0.115-0.136-0.169
	l0.179-0.127l8.478-6.373l3.075,4.059l-8.478,6.373L350.799,169.711z"/>
<linearGradient id="SVGID_5_" gradientUnits="userSpaceOnUse" x1="271.8701" y1="199.2266" x2="342.7217" y2="199.2266">
	<stop  offset="0" style="stop-color:#64BC6B"/>
	<stop  offset="0.5" style="stop-color:#008837"/>
	<stop  offset="1" style="stop-color:#006F2D"/>
</linearGradient>
<polygon fill="url(#SVGID_5_)" points="342.722,180.82 279.813,228.116 271.87,217.634 334.778,170.337 "/>
<linearGradient id="SVGID_6_" gradientUnits="userSpaceOnUse" x1="256.4917" y1="197.7695" x2="360.8184" y2="197.7695">
	<stop  offset="0" style="stop-color:#482F92"/>
	<stop  offset="0.5" style="stop-color:#13007C"/>
	<stop  offset="1" style="stop-color:#251353"/>
</linearGradient>
<path fill="url(#SVGID_6_)" d="M260.824,235.883l0.199,0.264c0.375,0.493,1.033,0.674,1.606,0.442l17.528-7.073
	c0.144-0.059,0.278-0.142,0.396-0.247c0.028-0.019,0.057-0.037,0.085-0.058l62.907-47.294l7.12-5.354
	c0.684-0.513,1.239-1.174,1.626-1.935c0.292,0.529,0.445,1.124,0.446,1.729c-0.035,0.734-0.44,1.386-1.24,1.987
	c-7.632,5.736-31.37,23.583-31.37,23.583l1.649,2.193c0,0,23.737-17.848,31.369-23.583c1.836-1.381,2.282-2.967,2.332-4.054
	c0.064-1.374-0.424-2.814-1.449-4.281c-0.395-0.561-0.836-1.087-1.322-1.571c-0.047-0.175-0.104-0.348-0.168-0.52l7.731-5.813
	c0.292-0.219,0.483-0.545,0.534-0.906l0,0c0.051-0.361-0.045-0.728-0.265-1.018l-3.075-4.059c-0.457-0.602-1.313-0.723-1.918-0.268
	l-7.737,5.817c-2.003-1.484-4.742-1.475-6.735,0.021l-7.12,5.355l-62.908,47.295c-0.029,0.022-0.058,0.046-0.084,0.071
	c-0.13,0.083-0.246,0.187-0.341,0.309l-11.636,14.852c-0.384,0.491-0.39,1.178-0.013,1.675l0.193,0.255l-2.127,1.6
	c-0.605,0.455-0.728,1.315-0.271,1.92c0.455,0.605,1.314,0.727,1.92,0.272l0,0L260.824,235.883z M357.521,162.935l-6.455,4.852
	l-1.419-1.871l6.456-4.852L357.521,162.935z M346.665,166.529c0.007,0.008,0.013,0.017,0.021,0.025
	c0.024,0.027,0.048,0.058,0.072,0.091l2.817,3.717c0.033,0.044,0.065,0.088,0.087,0.121c0.858,1.26,0.575,2.973-0.645,3.888
	l-6.03,4.533l-6.286-8.296l6.021-4.527C343.948,165.16,345.679,165.357,346.665,166.529z M340.797,180.551l-60.715,45.647
	l-6.286-8.295l60.714-45.648L340.797,180.551z M271.818,219.835l5.854,7.725l-15.097,6.093l-0.779-1.027L271.818,219.835z"/>
</svg>
