<?xml version="1.0" encoding="utf-8"?>
<!-- Generator: Adobe Illustrator 16.0.0, SVG Export Plug-In . SVG Version: 6.00 Build 0)  -->
<!DOCTYPE svg PUBLIC "-//W3C//DTD SVG 1.1//EN" "http://www.w3.org/Graphics/SVG/1.1/DTD/svg11.dtd">
<svg version="1.1" id="Layer_1" xmlns="http://www.w3.org/2000/svg" xmlns:xlink="http://www.w3.org/1999/xlink" x="0px" y="0px"
	 width="512px" height="512px" viewBox="0 0 512 512" enable-background="new 0 0 512 512" xml:space="preserve">
<g id="Layer_1_1_">
	<g id="Layer_2" display="none">
	</g>
	<g id="shadows">
		<g opacity="0.9">
			<g>
				<path fill="#B7B7B7" d="M466.5,381.5c0,48.6-39.4,88-88,88h-246c-48.601,0-88-39.4-88-88V164.833c0-48.601,39.399-88,88-88h246
					c48.6,0,88,39.399,88,88V381.5z"/>
			</g>
		</g>
		<g>
			<g>
				<path fill="#FFFFFF" d="M466.5,360.5c0,48.6-39.4,88-88,88h-246c-48.601,0-88-39.4-88-88V143.833c0-48.601,39.399-88,88-88h246
					c48.6,0,88,39.399,88,88V360.5z"/>
			</g>
		</g>
	</g>
	
		<linearGradient id="SVGID_1_" gradientUnits="userSpaceOnUse" x1="43.5" y1="258.666" x2="465.5" y2="258.666" gradientTransform="matrix(1 0 0 -1 0 513)">
		<stop  offset="0" style="stop-color:#109677"/>
		<stop  offset="0" style="stop-color:#220B80"/>
		<stop  offset="0.5056" style="stop-color:#9B1385"/>
		<stop  offset="1" style="stop-color:#E60000"/>
	</linearGradient>
	<path fill="url(#SVGID_1_)" stroke="#E2E2E2" stroke-width="10" stroke-miterlimit="10" d="M465.5,362.667c0,48.6-39.399,88-88,88
		h-246c-48.601,0-88-39.4-88-88V146c0-48.601,39.399-88,88-88h246c48.601,0,88,39.399,88,88V362.667z"/>
</g>
<g>
	<g>
		<linearGradient id="SVGID_2_" gradientUnits="userSpaceOnUse" x1="112.0542" y1="259.25" x2="397.1504" y2="259.25">
			<stop  offset="0" style="stop-color:#E60000"/>
			<stop  offset="0.5225" style="stop-color:#F9490F"/>
			<stop  offset="1" style="stop-color:#FF2A00"/>
		</linearGradient>
		<path fill="url(#SVGID_2_)" d="M383.355,169.582H125.849c-7.607,0-13.795,6.188-13.795,13.795v151.745
			c0,7.607,6.188,13.795,13.795,13.795h257.506c7.607,0,13.795-6.188,13.795-13.795V183.377
			C397.15,175.771,390.963,169.582,383.355,169.582z"/>
	</g>
	<g>
		<rect x="240.807" y="325.925" fill="#E3001E" width="27.591" height="22.992"/>
	</g>
	<g>
		<path fill="#E6BE8A" d="M378.884,312.13v13.795c0,2.541-2.06,4.6-4.599,4.6H135.172c-2.54,0-4.599-2.059-4.599-4.6V312.13
			l27.464-13.795l110.36,4.6l91.967-4.6L378.884,312.13z"/>
	</g>
	<g>
		<path fill="#FFEBB7" d="M137.025,318.479c37.786-15.6,80.519-14.65,117.704,2.848v-165.54
			c-38.411-18.075-82.741-18.491-121.424-1.251c-1.665,0.743-2.731,2.427-2.731,4.25v155.491
			C130.573,317.599,133.955,319.747,137.025,318.479z"/>
	</g>
	<g>
		<path fill="#FFD788" d="M254.729,321.327c37.185-17.498,79.918-18.447,117.704-2.848c3.069,1.268,6.451-0.881,6.451-4.203V158.786
			c0-1.822-1.066-3.507-2.731-4.25c-38.684-17.24-83.014-16.823-121.424,1.251V321.327z"/>
	</g>
	<g>
		<g>
			<path fill="#868491" d="M273.122,291.297c-1.958,0-3.772-1.259-4.388-3.223c-0.758-2.422,0.588-5.005,3.009-5.765
				c4.652-1.463,9.439-2.711,14.23-3.715c2.479-0.52,4.922,1.067,5.442,3.559c0.521,2.484-1.068,4.921-3.557,5.441
				c-4.499,0.943-8.994,2.118-13.359,3.489C274.042,291.228,273.575,291.297,273.122,291.297z"/>
		</g>
	</g>
	<g>
		<g>
			<path fill="#868491" d="M360.49,291.297c-0.454,0-0.921-0.069-1.378-0.214c-17.352-5.448-35.338-7.49-53.438-6.048
				c-2.568,0.183-4.747-1.69-4.948-4.222c-0.197-2.532,1.688-4.746,4.222-4.947c19.317-1.52,38.447,0.641,56.922,6.443
				c2.421,0.76,3.768,3.343,3.008,5.765C364.263,290.04,362.448,291.297,360.49,291.297z"/>
		</g>
	</g>
	<g>
		<g>
			<path fill="#868491" d="M360.49,272.849c-0.454,0-0.921-0.068-1.378-0.213c-27.68-8.693-56.932-8.693-84.612,0
				c-2.433,0.762-5.012-0.588-5.766-3.008c-0.758-2.423,0.588-5.004,3.009-5.766c29.484-9.26,60.641-9.26,90.126,0
				c2.421,0.762,3.768,3.343,3.008,5.766C364.263,271.593,362.448,272.849,360.49,272.849z"/>
		</g>
	</g>
	<g>
		<g>
			<path fill="#868491" d="M273.122,254.51c-1.958,0-3.772-1.257-4.388-3.221c-0.758-2.423,0.588-5.005,3.009-5.766
				c16.925-5.313,34.486-7.574,52.18-6.743c2.532,0.121,4.495,2.274,4.374,4.812c-0.117,2.542-2.237,4.481-4.814,4.375
				c-16.602-0.783-33.095,1.341-48.982,6.33C274.042,254.44,273.575,254.51,273.122,254.51z"/>
		</g>
	</g>
	<g>
		<g>
			<path fill="#868491" d="M360.49,254.51c-0.454,0-0.921-0.07-1.378-0.213c-5.811-1.825-11.806-3.29-17.819-4.349
				c-2.502-0.442-4.172-2.827-3.727-5.328c0.44-2.5,2.828-4.172,5.325-3.729c6.404,1.13,12.785,2.688,18.979,4.633
				c2.42,0.761,3.768,3.342,3.008,5.766C364.263,253.253,362.448,254.51,360.49,254.51z"/>
		</g>
	</g>
	<g>
		<g>
			<path fill="#868491" d="M360.49,236.063c-0.454,0-0.921-0.069-1.378-0.213c-27.68-8.694-56.932-8.694-84.612,0
				c-2.433,0.756-5.012-0.59-5.766-3.008c-0.758-2.423,0.588-5.005,3.009-5.766c29.484-9.259,60.641-9.259,90.126,0
				c2.421,0.761,3.768,3.343,3.008,5.766C364.263,234.806,362.448,236.063,360.49,236.063z"/>
		</g>
	</g>
	<g>
		<g>
			<path fill="#868491" d="M273.122,217.67c-1.958,0-3.772-1.258-4.388-3.222c-0.758-2.423,0.588-5.005,3.009-5.766
				c9.25-2.905,18.823-4.921,28.466-5.99c2.559-0.307,4.8,1.542,5.078,4.062c0.277,2.524-1.54,4.798-4.063,5.077
				c-9.049,1.006-18.044,2.898-26.724,5.626C274.042,217.6,273.575,217.67,273.122,217.67z"/>
		</g>
	</g>
	<g>
		<g>
			<path fill="#868491" d="M360.49,217.67c-0.454,0-0.921-0.07-1.378-0.213c-12.982-4.08-26.464-6.258-40.074-6.471
				c-2.542-0.041-4.567-2.131-4.526-4.67c0.04-2.537,2.259-4.675,4.67-4.527c14.495,0.229,28.86,2.549,42.688,6.894
				c2.421,0.761,3.768,3.343,3.008,5.766C364.258,216.412,362.448,217.67,360.49,217.67z"/>
		</g>
	</g>
	<g>
		<g>
			<path fill="#868491" d="M273.122,199.33c-1.958,0-3.772-1.258-4.388-3.222c-0.758-2.423,0.588-5.005,3.009-5.766
				c20.037-6.293,40.774-8.314,61.664-5.99c2.523,0.278,4.342,2.553,4.063,5.077c-0.278,2.521-2.506,4.39-5.078,4.062
				c-19.599-2.174-39.082-0.285-57.893,5.626C274.042,199.26,273.575,199.33,273.122,199.33z"/>
		</g>
	</g>
	<g>
		<g>
			<path fill="#868491" d="M360.49,199.33c-0.454,0-0.921-0.07-1.378-0.213c-2.92-0.918-5.914-1.751-8.91-2.48
				c-2.465-0.602-3.979-3.09-3.377-5.558c0.603-2.467,3.072-3.976,5.561-3.379c3.183,0.777,6.371,1.666,9.483,2.643
				c2.421,0.761,3.768,3.343,3.008,5.766C364.263,198.073,362.448,199.33,360.49,199.33z"/>
		</g>
	</g>
	<g>
		<g>
			<path fill="#868491" d="M273.122,180.883c-1.958,0-3.772-1.26-4.388-3.224c-0.758-2.425,0.588-5.004,3.013-5.764
				c3.161-0.993,6.351-1.879,9.48-2.641c2.452-0.604,4.952,0.915,5.554,3.382c0.603,2.468-0.916,4.955-3.381,5.555
				c-2.938,0.714-5.932,1.547-8.905,2.478C274.038,180.813,273.575,180.883,273.122,180.883z"/>
		</g>
	</g>
	<g>
		<g>
			<path fill="#868491" d="M360.49,180.883c-0.454,0-0.921-0.07-1.378-0.214c-18.816-5.911-38.292-7.797-57.894-5.626
				c-2.541,0.31-4.801-1.542-5.078-4.062c-0.278-2.523,1.541-4.798,4.063-5.076c20.881-2.324,41.623-0.303,61.664,5.99
				c2.421,0.761,3.768,3.343,3.009,5.766C364.263,179.625,362.448,180.883,360.49,180.883z"/>
		</g>
	</g>
	<g>
		<g>
			<path fill="#B4B6BC" d="M148.967,291.297c-1.958,0-3.772-1.259-4.388-3.223c-0.758-2.422,0.588-5.005,3.009-5.765
				c4.652-1.463,9.439-2.711,14.23-3.715c2.483-0.52,4.922,1.067,5.443,3.559c0.521,2.484-1.068,4.921-3.557,5.441
				c-4.499,0.943-8.994,2.118-13.359,3.489C149.887,291.228,149.42,291.297,148.967,291.297z"/>
		</g>
	</g>
	<g>
		<g>
			<path fill="#B4B6BC" d="M236.335,291.297c-0.453,0-0.92-0.069-1.378-0.214c-17.348-5.448-35.337-7.49-53.438-6.048
				c-2.604,0.183-4.747-1.69-4.949-4.222c-0.197-2.532,1.689-4.746,4.222-4.947c19.318-1.52,38.444,0.641,56.922,6.443
				c2.421,0.76,3.768,3.343,3.009,5.765C240.106,290.04,238.293,291.297,236.335,291.297z"/>
		</g>
	</g>
	<g>
		<g>
			<path fill="#B4B6BC" d="M236.335,272.849c-0.453,0-0.92-0.068-1.378-0.213c-27.68-8.693-56.932-8.693-84.611,0
				c-2.443,0.762-5.012-0.588-5.766-3.008c-0.759-2.423,0.588-5.004,3.009-5.766c29.485-9.26,60.64-9.26,90.125,0
				c2.421,0.762,3.768,3.343,3.009,5.766C240.106,271.593,238.293,272.849,236.335,272.849z"/>
		</g>
	</g>
	<g>
		<g>
			<path fill="#B4B6BC" d="M148.967,254.51c-1.958,0-3.772-1.257-4.388-3.221c-0.758-2.423,0.588-5.005,3.009-5.766
				c16.925-5.313,34.5-7.574,52.18-6.743c2.533,0.121,4.495,2.274,4.374,4.812c-0.122,2.542-2.264,4.481-4.814,4.375
				c-16.606-0.783-33.096,1.341-48.983,6.33C149.887,254.44,149.42,254.51,148.967,254.51z"/>
		</g>
	</g>
	<g>
		<g>
			<path fill="#B4B6BC" d="M236.335,254.51c-0.453,0-0.92-0.07-1.378-0.213c-5.811-1.825-11.806-3.29-17.819-4.349
				c-2.501-0.442-4.172-2.827-3.727-5.328c0.436-2.5,2.834-4.172,5.326-3.729c6.404,1.13,12.785,2.688,18.978,4.633
				c2.42,0.761,3.768,3.342,3.008,5.766C240.106,253.253,238.293,254.51,236.335,254.51z"/>
		</g>
	</g>
	<g>
		<g>
			<path fill="#B4B6BC" d="M148.967,236.063c-1.958,0-3.772-1.258-4.388-3.222c-0.758-2.423,0.588-5.005,3.009-5.766
				c26.14-8.206,54.03-9.12,80.637-2.641c2.47,0.602,3.983,3.089,3.382,5.557c-0.602,2.466-3.103,3.968-5.555,3.379
				c-24.985-6.091-51.166-5.227-75.706,2.479C149.887,235.993,149.42,236.063,148.967,236.063z"/>
		</g>
	</g>
	<g>
		<g>
			<path fill="#B4B6BC" d="M148.967,217.67c-1.958,0-3.772-1.258-4.388-3.222c-0.758-2.423,0.588-5.005,3.009-5.766
				c9.251-2.905,18.824-4.921,28.465-5.99c2.537-0.307,4.801,1.542,5.079,4.062c0.278,2.524-1.541,4.798-4.064,5.077
				c-9.049,1.006-18.043,2.898-26.723,5.626C149.887,217.6,149.42,217.67,148.967,217.67z"/>
		</g>
	</g>
	<g>
		<g>
			<path fill="#B4B6BC" d="M227.143,215.107c-0.359,0-0.728-0.042-1.091-0.13c-10.194-2.483-20.684-3.828-31.169-3.992
				c-2.542-0.04-4.566-2.131-4.526-4.67c0.04-2.537,2.025-4.675,4.67-4.527c11.173,0.178,22.34,1.608,33.199,4.252
				c2.47,0.602,3.983,3.09,3.382,5.557C231.094,213.7,229.213,215.107,227.143,215.107z"/>
		</g>
	</g>
	<g>
		<g>
			<path fill="#B4B6BC" d="M148.967,199.33c-1.958,0-3.772-1.258-4.388-3.222c-0.758-2.423,0.588-5.005,3.009-5.766
				c20.041-6.293,40.779-8.314,61.664-5.99c2.524,0.278,4.343,2.553,4.063,5.077c-0.278,2.521-2.523,4.39-5.079,4.062
				c-19.597-2.174-39.081-0.285-57.893,5.626C149.887,199.26,149.42,199.33,148.967,199.33z"/>
		</g>
	</g>
	<g>
		<g>
			<path fill="#B4B6BC" d="M148.967,180.883c-1.958,0-3.772-1.26-4.388-3.224c-0.758-2.425,0.588-5.004,3.013-5.764
				c3.162-0.993,6.35-1.879,9.479-2.641c2.448-0.604,4.953,0.915,5.555,3.382c0.602,2.468-0.917,4.955-3.382,5.555
				c-2.937,0.714-5.932,1.547-8.904,2.478C149.882,180.813,149.42,180.883,148.967,180.883z"/>
		</g>
	</g>
	<g>
		<g>
			<path fill="#B4B6BC" d="M227.143,178.319c-0.359,0-0.728-0.042-1.091-0.13c-16.072-3.915-32.553-4.967-48.988-3.146
				c-2.524,0.31-4.8-1.538-5.079-4.061c-0.278-2.524,1.541-4.798,4.064-5.077c17.499-1.949,35.062-0.818,52.175,3.348
				c2.47,0.602,3.983,3.089,3.382,5.557C231.094,176.911,229.213,178.319,227.143,178.319z"/>
		</g>
	</g>
	<g>
		<path fill="#5D647F" d="M227.139,227.058c0,1.836,2.046,2.932,3.574,1.913l10.221-6.813l10.221,6.813
			c1.527,1.019,3.574-0.077,3.574-1.913v-70.889c0-1.816-1.06-3.493-2.72-4.231c-7.16-3.185-14.518-5.739-21.993-7.712
			c-1.458-0.385-2.891,0.742-2.89,2.25L227.139,227.058z"/>
	</g>
</g>
</svg>
