<?xml version="1.0" encoding="utf-8"?>
<!-- Generator: Adobe Illustrator 16.0.0, SVG Export Plug-In . SVG Version: 6.00 Build 0)  -->
<!DOCTYPE svg PUBLIC "-//W3C//DTD SVG 1.1//EN" "http://www.w3.org/Graphics/SVG/1.1/DTD/svg11.dtd">
<svg version="1.1" id="Layer_1" xmlns="http://www.w3.org/2000/svg" xmlns:xlink="http://www.w3.org/1999/xlink" x="0px" y="0px"
	 width="512px" height="512px" viewBox="0 0 512 512" enable-background="new 0 0 512 512" xml:space="preserve">
<g id="Layer_1_1_">
	<g id="Layer_2" display="none">
	</g>
	<g id="shadows">
		<g opacity="0.9">
			<g>
				<path fill="#B7B7B7" d="M466.5,381.5c0,48.6-39.4,88-88,88h-246c-48.601,0-88-39.4-88-88V164.833c0-48.601,39.399-88,88-88h246
					c48.6,0,88,39.399,88,88V381.5z"/>
			</g>
		</g>
		<g>
			<g>
				<path fill="#FFFFFF" d="M466.5,360.5c0,48.6-39.4,88-88,88h-246c-48.601,0-88-39.4-88-88V143.833c0-48.601,39.399-88,88-88h246
					c48.6,0,88,39.399,88,88V360.5z"/>
			</g>
		</g>
	</g>
	
		<radialGradient id="SVGID_1_" cx="721.5" cy="159.6665" r="203.7987" gradientTransform="matrix(1 0 0 -1 -467 414)" gradientUnits="userSpaceOnUse">
		<stop  offset="0" style="stop-color:#71C7BC"/>
		<stop  offset="0.116" style="stop-color:#5FC0B6"/>
		<stop  offset="0.5" style="stop-color:#28A9A2"/>
		<stop  offset="0.6818" style="stop-color:#18A193"/>
		<stop  offset="1" style="stop-color:#01947C"/>
	</radialGradient>
	<path fill="url(#SVGID_1_)" stroke="#E2E2E2" stroke-width="10" stroke-miterlimit="10" d="M465.5,362.667c0,48.6-39.399,88-88,88
		h-246c-48.601,0-88-39.4-88-88V146c0-48.601,39.399-88,88-88h246c48.601,0,88,39.399,88,88V362.667z"/>
</g>
<polygon fill="#738C28" points="256,114.473 205.734,278.724 306.266,278.724 "/>
<polygon fill="#5A781E" points="256,114.473 256,278.724 306.266,278.724 "/>
<path fill="#738C28" d="M256,271.604l0.001,69.73h49.741l36.38-207.898C308.758,141.443,288.947,215.713,256,271.604z"/>
<g>
	<path fill="#8CA52D" d="M256,271.604c-32.947-55.892-52.758-130.162-86.122-138.167l37.217,207.898h48.905L256,271.604z"/>
	<path fill="#8CA52D" d="M256.001,336.808c58.946-49.383,104.827-144.402,147.499-144.402l0,0l-60.697,144.151
		c-14.705,34.925-48.908,57.637-86.803,57.637"/>
</g>
<path fill="#A0BE28" d="M108.5,192.405l60.697,144.153c14.705,34.923,48.909,57.635,86.803,57.635l0,0
	c8.775,0,39.142,0,67.339-28.338C229.664,365.855,166.154,192.405,108.5,192.405z"/>
<path fill="#B4D241" d="M108.5,192.405l60.697,144.153c14.705,34.923,48.909,57.635,86.803,57.635l0,0c0-10.989,0-32.884,0-57.384
	C197.054,287.428,151.172,192.405,108.5,192.405z"/>
</svg>
