<?xml version="1.0" encoding="utf-8"?>
<!-- Generator: Adobe Illustrator 16.0.0, SVG Export Plug-In . SVG Version: 6.00 Build 0)  -->
<!DOCTYPE svg PUBLIC "-//W3C//DTD SVG 1.1//EN" "http://www.w3.org/Graphics/SVG/1.1/DTD/svg11.dtd">
<svg version="1.1" id="Layer_1" xmlns="http://www.w3.org/2000/svg" xmlns:xlink="http://www.w3.org/1999/xlink" x="0px" y="0px"
	 width="512px" height="512px" viewBox="0 0 512 512" enable-background="new 0 0 512 512" xml:space="preserve">
<g id="Layer_1_1_">
	<g id="Layer_2" display="none">
	</g>
	<g id="shadows">
		<g opacity="0.9">
			<g>
				<path fill="#B7B7B7" d="M466.5,381.5c0,48.6-39.4,88-88,88h-246c-48.601,0-88-39.4-88-88V164.833c0-48.601,39.399-88,88-88h246
					c48.6,0,88,39.399,88,88V381.5z"/>
			</g>
		</g>
		<g>
			<g>
				<path fill="#FFFFFF" d="M466.5,360.5c0,48.6-39.4,88-88,88h-246c-48.601,0-88-39.4-88-88V143.833c0-48.601,39.399-88,88-88h246
					c48.6,0,88,39.399,88,88V360.5z"/>
			</g>
		</g>
	</g>
	<path fill="#180635" stroke="#E2E2E2" stroke-width="9" stroke-miterlimit="10" d="M465.5,362.667c0,48.6-39.399,88-88,88h-246
		c-48.601,0-88-39.4-88-88V146c0-48.601,39.399-88,88-88h246c48.601,0,88,39.399,88,88V362.667z"/>
</g>
<g>
	<path fill="#EFF6E2" d="M126.701,216.673c0,80.774,65.768,192.493,123.855,192.493c54.683,0,123.854-111.719,123.854-192.493
		c0-80.774-55.451-121.506-123.854-121.506C182.152,95.167,126.701,135.898,126.701,216.673z M282.736,276.402
		c15.121-15.123,36.222-20.624,55.693-16.506c4.115,19.472-1.384,40.568-16.508,55.691c-15.123,15.124-36.221,20.625-55.695,16.509
		C262.113,312.624,267.613,291.523,282.736,276.402z M162.68,259.893c19.473-4.113,40.572,1.387,55.694,16.51
		c15.123,15.123,20.624,36.223,16.508,55.693c-19.474,4.116-40.572-1.383-55.695-16.507
		C164.064,300.466,158.564,279.368,162.68,259.893z"/>
</g>
</svg>
