<?xml version="1.0" encoding="utf-8"?>
<!-- Generator: Adobe Illustrator 16.0.0, SVG Export Plug-In . SVG Version: 6.00 Build 0)  -->
<!DOCTYPE svg PUBLIC "-//W3C//DTD SVG 1.1//EN" "http://www.w3.org/Graphics/SVG/1.1/DTD/svg11.dtd">
<svg version="1.1" id="Layer_1" xmlns="http://www.w3.org/2000/svg" xmlns:xlink="http://www.w3.org/1999/xlink" x="0px" y="0px"
	 width="512px" height="512px" viewBox="0 0 512 512" enable-background="new 0 0 512 512" xml:space="preserve">
<g id="Layer_1_1_">
	<g id="Layer_2" display="none">
	</g>
	<g id="shadows">
		<g opacity="0.9">
			<g>
				<path fill="#B7B7B7" d="M466.5,381.5c0,48.6-39.4,88-88,88h-246c-48.601,0-88-39.4-88-88V164.833c0-48.601,39.399-88,88-88h246
					c48.6,0,88,39.399,88,88V381.5z"/>
			</g>
		</g>
		<g>
			<g>
				<path fill="#FFFFFF" d="M466.5,360.5c0,48.6-39.4,88-88,88h-246c-48.601,0-88-39.4-88-88V143.833c0-48.601,39.399-88,88-88h246
					c48.6,0,88,39.399,88,88V360.5z"/>
			</g>
		</g>
	</g>
	<radialGradient id="SVGID_1_" cx="254.5" cy="254.3335" r="203.7987" gradientUnits="userSpaceOnUse">
		<stop  offset="0" style="stop-color:#FFFFFF"/>
		<stop  offset="0.0618" style="stop-color:#E4EBF4"/>
		<stop  offset="0.1977" style="stop-color:#AFC2DD"/>
		<stop  offset="0.3354" style="stop-color:#819FC9"/>
		<stop  offset="0.472" style="stop-color:#5B83B9"/>
		<stop  offset="0.6074" style="stop-color:#3E6CAD"/>
		<stop  offset="0.7413" style="stop-color:#2A5DA4"/>
		<stop  offset="0.873" style="stop-color:#1D539F"/>
		<stop  offset="1" style="stop-color:#19509D"/>
	</radialGradient>
	<path fill="url(#SVGID_1_)" stroke="#E2E2E2" stroke-width="9" stroke-miterlimit="10" d="M465.5,362.667c0,48.6-39.399,88-88,88
		h-246c-48.601,0-88-39.4-88-88V146c0-48.601,39.399-88,88-88h246c48.601,0,88,39.399,88,88V362.667z"/>
</g>
<path fill="#199B94" d="M160.81,218.844c0,0,0.798-69.786,11.963-93.313l31.104,86.933l-16.35,7.576L160.81,218.844z"/>
<path fill="#102D35" d="M176.76,234.795c0,0-14.355-83.343-3.19-115.246c0,0,20.736,27.914,22.331,40.276l11.166-10.368
	l0.798,12.362l7.577-9.571l0.797,5.981l7.976-3.19l1.595,3.988l15.552-0.798l-3.988,38.283l-36.289,33.896L176.76,234.795z"/>
<path fill="#199B94" d="M355.411,218.844c0,0-0.798-69.786-11.963-93.313l-31.105,86.932l16.351,7.576L355.411,218.844z"/>
<g>
	<path fill="#102D35" d="M339.46,234.795c0,0,14.355-83.343,3.19-115.246c0,0-20.735,27.914-22.331,40.276l-11.166-10.368
		l-0.797,12.362l-7.577-9.571l-0.798,5.981l-7.975-3.19l-1.596,3.988l-15.553-0.798l3.988,38.283l36.289,33.896L339.46,234.795z"/>
	<polygon fill="#102D35" points="179.153,258.323 160.81,230.01 157.62,253.536 141.669,252.739 154.03,265.899 135.687,275.868 
		181.944,308.169 168.387,327.31 186.332,318.138 186.332,329.702 195.104,323.322 195.104,329.304 200.687,326.513 
		207.466,336.083 188.325,274.273 	"/>
	<polygon fill="#102D35" points="174.368,216.052 162.405,184.151 154.429,206.881 138.877,202.494 148.049,218.046 128.11,223.629 
		166.393,265.101 148.846,281.053 167.988,275.868 165.196,287.034 175.564,282.647 174.368,288.629 180.749,287.433 185.135,298.2 
		179.951,233.2 	"/>
	<polygon fill="#102D35" points="337.067,258.323 355.411,230.01 358.601,253.536 374.552,252.739 362.19,265.899 380.534,275.868 
		334.276,308.169 347.834,327.31 329.89,318.138 329.89,329.702 321.116,323.322 321.116,329.304 315.534,326.513 308.755,336.083 
		327.896,274.273 	"/>
	<polygon fill="#102D35" points="341.853,216.052 353.815,184.151 361.792,206.881 377.344,202.494 368.172,218.046 388.11,223.629 
		349.828,265.101 367.374,281.053 348.233,275.868 351.024,287.034 340.656,282.647 341.853,288.629 335.472,287.433 331.086,298.2 
		336.27,233.2 	"/>
	<path fill="#102D35" d="M348.632,232.801c0-43.067-40.675-78.159-90.521-78.159s-90.521,35.092-90.521,78.558
		c0,20.736,9.171,44.663,23.926,64.203c8.374,38.282,35.092,78.558,66.595,78.558s58.221-40.275,66.196-78.957
		C339.46,277.464,348.632,253.536,348.632,232.801z"/>
</g>
<path fill="#3EC1B1" d="M282.036,331.696c0,9.172-10.766,16.35-23.926,16.35c-13.16,0-23.926-7.178-23.926-16.35
	s10.767-8.374,23.926-8.374C271.271,323.322,282.036,322.524,282.036,331.696z"/>
<path fill="#199B94" d="M282.036,331.696c0,9.172-10.766,16.35-23.926,16.35c-13.16,0-23.926-7.178-23.926-16.35"/>
<path fill="#E57F23" d="M193.509,239.181L193.509,239.181c-4.785,13.558,1.994,28.712,15.951,33.498
	c13.558,4.785,28.712-1.994,33.497-15.951l0,0L193.509,239.181z"/>
<path fill="#FF9C39" d="M193.509,239.181L193.509,239.181c-4.785,13.558,5.583,20.736,19.141,25.521
	c13.559,4.785,25.521,5.981,30.307-7.576l0,0L193.509,239.181z"/>
<circle fill="#102D35" cx="215.841" cy="257.924" r="4.785"/>
<path fill="#E57F23" d="M322.712,239.181L322.712,239.181c4.785,13.558-1.994,28.712-15.951,33.498
	c-13.559,4.785-28.712-1.994-33.497-15.951l0,0L322.712,239.181z"/>
<path fill="#FF9C39" d="M322.712,239.181L322.712,239.181c4.785,13.558-5.583,20.736-19.141,25.521
	c-13.559,4.785-25.521,5.981-30.308-7.576l0,0L322.712,239.181z"/>
<circle fill="#102D35" cx="300.38" cy="257.924" r="4.785"/>
<g>
	<ellipse fill="#194951" cx="258.11" cy="172.586" rx="30.307" ry="11.963"/>
	<ellipse fill="#194951" cx="258.11" cy="306.175" rx="26.718" ry="7.576"/>
</g>
<ellipse fill="#56DBC8" cx="258.11" cy="325.715" rx="17.147" ry="2.792"/>
<g>
	<path fill="#194951" d="M249.337,244.764c-3.19,5.184-18.742,2.393-35.092-7.178c-16.35-9.171-27.117-21.135-24.325-26.319
		c3.19-5.184,15.552,3.19,31.902,12.761C238.57,233.2,252.527,239.181,249.337,244.764z"/>
	<path fill="#194951" d="M266.884,244.764c3.189,5.184,18.742,2.393,35.092-7.178c16.35-9.171,27.116-21.135,24.325-26.319
		c-3.19-5.184-15.552,3.19-31.901,12.761C277.65,233.2,263.693,239.181,266.884,244.764z"/>
</g>
<polygon fill="#E2F2EF" points="219.828,355.622 230.196,375.96 240.564,355.622 "/>
<polygon fill="#9AB2AC" points="228.202,355.622 230.196,375.96 240.564,355.622 "/>
<polygon fill="#E2F2EF" points="275.656,355.622 286.024,375.96 296.393,355.622 "/>
<polygon fill="#9AB2AC" points="284.03,355.622 286.024,375.96 296.393,355.622 "/>
<radialGradient id="SVGID_2_" cx="256.3281" cy="243.6748" r="150" gradientUnits="userSpaceOnUse">
	<stop  offset="0" style="stop-color:#FFFFFF"/>
	<stop  offset="0.0945" style="stop-color:#D4ECF3"/>
	<stop  offset="0.2163" style="stop-color:#A3D8E5"/>
	<stop  offset="0.3414" style="stop-color:#78C6DA"/>
	<stop  offset="0.4676" style="stop-color:#56B7D0"/>
	<stop  offset="0.5953" style="stop-color:#3BACC8"/>
	<stop  offset="0.7251" style="stop-color:#28A3C3"/>
	<stop  offset="0.8583" style="stop-color:#1D9FC0"/>
	<stop  offset="1" style="stop-color:#199DBF"/>
</radialGradient>
<circle fill="none" stroke="url(#SVGID_2_)" stroke-width="9" stroke-miterlimit="10" cx="256.328" cy="243.675" r="145.5"/>
</svg>
