<?xml version="1.0" encoding="utf-8"?>
<!-- Generator: Adobe Illustrator 16.0.0, SVG Export Plug-In . SVG Version: 6.00 Build 0)  -->
<!DOCTYPE svg PUBLIC "-//W3C//DTD SVG 1.1//EN" "http://www.w3.org/Graphics/SVG/1.1/DTD/svg11.dtd">
<svg version="1.1" id="Layer_1" xmlns="http://www.w3.org/2000/svg" xmlns:xlink="http://www.w3.org/1999/xlink" x="0px" y="0px"
	 width="512px" height="512px" viewBox="0 0 512 512" enable-background="new 0 0 512 512" xml:space="preserve">
<g id="Layer_1_1_">
	<g id="Layer_2" display="none">
	</g>
	<g id="shadows">
		<g opacity="0.9">
			<g>
				<path fill="#B7B7B7" d="M466.5,381.5c0,48.6-39.4,88-88,88h-246c-48.602,0-88-39.4-88-88V164.833c0-48.601,39.398-88,88-88h246
					c48.6,0,88,39.399,88,88V381.5z"/>
			</g>
		</g>
		<g>
			<g>
				<path fill="#FFFFFF" d="M466.5,360.5c0,48.6-39.4,88-88,88h-246c-48.602,0-88-39.4-88-88V143.833c0-48.601,39.398-88,88-88h246
					c48.6,0,88,39.399,88,88V360.5z"/>
			</g>
		</g>
	</g>
	<radialGradient id="SVGID_1_" cx="254.5002" cy="254.335" r="203.7994" gradientUnits="userSpaceOnUse">
		<stop  offset="0" style="stop-color:#F69453"/>
		<stop  offset="0.5" style="stop-color:#F37521"/>
		<stop  offset="1" style="stop-color:#D4622A"/>
	</radialGradient>
	<path fill="url(#SVGID_1_)" stroke="#E2E2E2" stroke-width="10" stroke-miterlimit="10" d="M465.5,146v216.67c0,48.6-39.4,88-88,88
		h-246c-48.6,0-88-39.4-88-88V146c0-48.6,39.4-88,88-88h246C426.1,58,465.5,97.4,465.5,146z"/>
	
		<g id="svg2" xmlns:cc="http://creativecommons.org/ns#" xmlns:svg="http://www.w3.org/2000/svg" xmlns:inkscape="http://www.inkscape.org/namespaces/inkscape" xmlns:dc="http://purl.org/dc/elements/1.1/" xmlns:rdf="http://www.w3.org/1999/02/22-rdf-syntax-ns#" xmlns:sodipodi="http://sodipodi.sourceforge.net/DTD/sodipodi-0.dtd" sodipodi:docname="amazon.svg" inkscape:version="0.48.4 r9939" display="none">
		
			<sodipodi:namedview  bordercolor="#666666" pagecolor="#ffffff" inkscape:zoom="0.51420519" borderopacity="1.0" showgrid="false" inkscape:cy="331.75675" inkscape:cx="125.01135" id="base" inkscape:document-units="px" inkscape:pageshadow="2" inkscape:window-width="1360" inkscape:window-y="25" inkscape:current-layer="layer1" inkscape:window-height="719" inkscape:window-maximized="1" inkscape:window-x="0" inkscape:pageopacity="0.0">
			</sodipodi:namedview>
		<path display="inline" fill="#EF3A24" d="M50.502,119.833h409.995c-12.802-32.778-44.688-56-81.997-56h-246
			C95.188,63.833,63.304,87.055,50.502,119.833z"/>
		<g display="inline">
			<g>
				<rect x="172.5" y="147" fill="none" width="305" height="240"/>
				<text transform="matrix(1 0 0 1 172.4998 336.999)" fill="#FF9900" font-family="'Tahoma'" font-size="250">A</text>
			</g>
		</g>
	</g>
	<ellipse display="none" fill="#B4DFF7" cx="147.5" cy="178" rx="63" ry="61.5"/>
	<circle display="none" fill="#31C4E9" cx="146.5" cy="171.5" r="62"/>
</g>
<g id="Layer_3" display="none">
	<path display="inline" fill="#200A7F" stroke="#18E5EA" stroke-width="20" stroke-miterlimit="10" d="M401.137,212.167
		c5.104,15.338,7.863,31.744,7.863,48.795c0,85.328-69.173,154.5-154.5,154.5c-85.328,0-154.5-69.172-154.5-154.5
		s69.172-154.5,154.5-154.5c51.227,0,96.63,24.93,124.738,63.319"/>
	<path display="inline" fill="#EF0B79" d="M333.363,255.151c0,4.226-3.301,7.651-7.371,7.651H174.872
		c-4.072,0-7.372-3.425-7.372-7.651l0,0c0-4.226,3.3-7.651,7.372-7.651h151.119C330.063,247.5,333.363,250.925,333.363,255.151
		L333.363,255.151z"/>
	<path display="inline" fill="#EF0B79" d="M333.363,284.797c0,4.227-3.301,7.65-7.371,7.65H174.872c-4.072,0-7.372-3.426-7.372-7.65
		l0,0c0-4.227,3.3-7.65,7.372-7.65h151.119C330.063,277.146,333.363,280.57,333.363,284.797L333.363,284.797z"/>
	<path display="inline" fill="#EF0B79" d="M333.363,313.008c0,4.227-3.301,7.651-7.371,7.651H174.872
		c-4.072,0-7.372-3.427-7.372-7.651l0,0c0-4.225,3.3-7.65,7.372-7.65h151.119C330.063,305.357,333.363,308.783,333.363,313.008
		L333.363,313.008z"/>
	<path display="inline" fill="#EF0B79" d="M333.363,338.352c0,4.229-3.301,7.651-7.371,7.651H174.872
		c-4.072,0-7.372-3.426-7.372-7.651l0,0c0-4.225,3.3-7.647,7.372-7.647h151.119C330.063,330.701,333.363,334.127,333.363,338.352
		L333.363,338.352z"/>
	<polygon display="inline" fill="#18E5EA" points="394.991,191.49 320.191,165.163 380.392,113.547 	"/>
	<g display="inline">
		<g>
			<g>
				<path fill="#E9F21C" d="M241.48,239.22c-2.284,0-4.444-1.068-5.833-2.901l-18.76-24.775c-2.44-3.222-1.805-7.81,1.417-10.251
					c3.229-2.442,7.813-1.803,10.253,1.417l12.338,16.293l31.033-49.826c2.135-3.429,6.646-4.478,10.082-2.344
					c3.432,2.135,4.479,6.65,2.342,10.08l-36.658,58.857c-1.272,2.047-3.472,3.333-5.879,3.442
					C241.702,239.217,241.592,239.22,241.48,239.22z"/>
			</g>
		</g>
	</g>
</g>
<g id="Layer_2_1_" display="none">
	<rect x="121" y="171.5" display="inline" fill="none" width="298" height="251"/>
	
		<text transform="matrix(1 0 0 1 120.9998 348.998)" display="inline" fill="#EF3A24" font-family="'MyriadPro-Regular'" font-size="250">24</text>
	<circle display="inline" fill="#FFFFFF" cx="138.25" cy="91.833" r="17.25"/>
	<circle display="inline" fill="#FFFFFF" cx="185.25" cy="91.833" r="17.25"/>
	<circle display="inline" fill="#FFFFFF" cx="232.25" cy="91.833" r="17.25"/>
	<circle display="inline" fill="#FFFFFF" cx="278.25" cy="91.833" r="17.25"/>
	<circle display="inline" fill="#FFFFFF" cx="323.25" cy="91.833" r="17.25"/>
	<circle display="inline" fill="#FFFFFF" cx="368.25" cy="91.833" r="17.25"/>
</g>
<path id="path2989_2_" inkscape:connector-curvature="0" sodipodi:nodetypes="sssssss" d="M257.449,177.337"/>
<path id="path2989_4_" inkscape:connector-curvature="0" sodipodi:nodetypes="sssssss" d="M233.653,172.58"/>
<path id="path2989_3_" inkscape:connector-curvature="0" sodipodi:nodetypes="sssssss" d="M235.736,184.695L235.736,184.695"/>
<g>
	<g id="Translate_2_">
		<g>
			<path fill="#FFF5F5" d="M251.056,370.805l27.287-59.643L237.64,189.199c-0.8-2.378-0.396-4.992,1.067-7.035
				c1.471-2.035,3.827-3.24,6.334-3.24h120.25c12.912,0,23.416,10.504,23.416,23.416v156.102c0,12.912-10.504,23.414-23.416,23.414
				H258.153L251.056,370.805z"/>
		</g>
	</g>
	<path fill="#E3E7EA" d="M388.707,358.441V202.339c0-12.911-10.504-23.415-23.416-23.415h-47.35v202.933h47.35
		C378.203,381.857,388.707,371.354,388.707,358.441z"/>
	<g>
		<g>
			<g>
				<g>
					<path fill="#ACD1FC" d="M258.153,381.857c-0.137,0-0.282,0-0.42-0.008c-3.201-0.176-5.975-2.295-6.99-5.336l-20.762-62.441
						c-0.792-2.377-0.389-4.992,1.083-7.027c1.463-2.035,3.819-3.24,6.326-3.24h49.332c2.658,0,5.129,1.35,6.57,3.59
						c1.432,2.234,1.631,5.047,0.525,7.463l-28.568,62.441C263.976,380.088,261.194,381.857,258.153,381.857L258.153,381.857z"/>
				</g>
			</g>
		</g>
	</g>
	<g>
		<g>
			<g>
				<g>
					<g>
						<path fill="#324492" d="M293.817,314.857l-28.568,62.441c-1.271,2.789-4.055,4.559-7.096,4.559c-0.137,0-0.282,0-0.42-0.008
							c-3.201-0.176-5.975-2.295-6.99-5.336l-20.762-62.441c-0.792-2.377-0.389-4.992,1.083-7.027
							c1.463-2.035,3.819-3.24,6.326-3.24h49.332L293.817,314.857z"/>
					</g>
				</g>
			</g>
		</g>
	</g>
	<g>
		<path fill="#4086F4" d="M286.721,319.416H145.708c-12.912,0-23.416-10.504-23.416-23.416V138.858
			c0-12.911,10.503-23.415,23.416-23.415h78.571c3.361,0,6.349,2.149,7.408,5.343l62.434,188.355c0.8,2.379,0.396,4.994-1.067,7.037
			C291.583,318.211,289.227,319.416,286.721,319.416L286.721,319.416z"/>
	</g>
	<path fill="#4175DF" d="M231.688,120.786c-1.059-3.193-4.047-5.343-7.408-5.343h-31.221v203.973h93.662
		c2.506,0,4.862-1.205,6.334-3.24c1.463-2.043,1.867-4.656,1.066-7.035L231.688,120.786z"/>
	<path fill="#FFF5F5" d="M224.28,210.145h-23.416c-4.314,0-7.805,3.49-7.805,7.805s3.491,7.805,7.805,7.805h14.172
		c-3.233,9.065-11.815,15.61-21.978,15.61c-12.912,0-23.415-10.503-23.415-23.415s10.503-23.415,23.415-23.415
		c6.257,0,12.134,2.432,16.548,6.86c3.049,3.048,7.996,3.041,11.044,0.008c3.049-3.049,3.049-7.988,0.008-11.045
		c-7.371-7.371-17.166-11.434-27.601-11.434c-21.518,0-39.025,17.508-39.025,39.025s17.508,39.025,39.025,39.025
		s39.026-17.507,39.026-39.025C232.085,213.635,228.594,210.145,224.28,210.145z"/>
	<g>
		<g>
			<g>
				<path fill="#E3E7EA" d="M224.28,210.145h-23.416c-4.314,0-7.805,3.49-7.805,7.805s3.491,7.805,7.805,7.805h14.172
					c-3.233,9.065-11.815,15.61-21.978,15.61v15.61c21.518,0,39.026-17.507,39.026-39.025
					C232.085,213.635,228.594,210.145,224.28,210.145z"/>
			</g>
			<g>
				<path fill="#E3E7EA" d="M209.607,201.395c3.049,3.048,7.996,3.041,11.044,0.008c3.049-3.049,3.049-7.988,0.008-11.045
					c-7.371-7.371-17.166-11.434-27.601-11.434v15.61C199.316,194.535,205.193,196.966,209.607,201.395z"/>
			</g>
		</g>
	</g>
	<path fill="#4254B6" d="M349.16,241.365h-23.414v-7.805c0-4.314-3.492-7.806-7.805-7.806c-4.314,0-7.807,3.491-7.807,7.806v7.805
		h-23.414c-4.314,0-7.806,3.491-7.806,7.806c0,4.313,3.491,7.804,7.806,7.804h45.227c-2.471,7.387-7.727,16.058-13.936,24.488
		c-1.32-1.787-2.631-3.609-3.891-5.463c-2.408-3.567-7.264-4.505-10.846-2.064c-3.561,2.424-4.49,7.277-2.066,10.846
		c2.193,3.227,4.492,6.313,6.784,9.287c-3.901,4.523-7.754,8.656-11.129,11.971c-3.079,3.025-3.126,7.965-0.106,11.037
		c1.532,1.563,3.553,2.34,5.572,2.34c1.975,0,3.948-0.746,5.465-2.232c1.216-1.193,5.251-5.297,10.225-10.896
		c5.527,6.32,9.691,10.52,10.014,10.842c1.523,1.525,3.52,2.287,5.518,2.287c1.996,0,3.994-0.762,5.518-2.287
		c3.049-3.049,3.049-7.988,0-11.037c-0.078-0.084-4.873-4.928-10.951-12.014c8.652-11.211,17.051-24.687,19.842-37.104h1.201
		c4.314,0,7.807-3.491,7.807-7.805C356.967,244.856,353.475,241.365,349.16,241.365z"/>
	<path fill="#324492" d="M331.948,256.975c-2.471,7.387-7.727,16.058-13.936,24.488c-0.023-0.033-0.047-0.068-0.07-0.104v25.016
		c0.027-0.031,0.051-0.057,0.078-0.088c5.527,6.32,9.691,10.52,10.014,10.842c1.523,1.525,3.52,2.287,5.518,2.287
		c1.996,0,3.994-0.762,5.518-2.287c3.049-3.049,3.049-7.988,0-11.037c-0.078-0.084-4.873-4.928-10.951-12.014
		c8.652-11.211,17.051-24.687,19.842-37.104h1.201c4.314,0,7.807-3.491,7.807-7.805c0-4.313-3.492-7.805-7.807-7.805h-23.414v-7.806
		c0-4.313-3.492-7.805-7.805-7.805v31.22H331.948L331.948,256.975z"/>
</g>
</svg>
