<?xml version="1.0" encoding="utf-8"?>
<!-- Generator: Adobe Illustrator 16.0.0, SVG Export Plug-In . SVG Version: 6.00 Build 0)  -->
<!DOCTYPE svg PUBLIC "-//W3C//DTD SVG 1.1//EN" "http://www.w3.org/Graphics/SVG/1.1/DTD/svg11.dtd">
<svg version="1.1" id="Layer_1" xmlns="http://www.w3.org/2000/svg" xmlns:xlink="http://www.w3.org/1999/xlink" x="0px" y="0px"
	 width="512px" height="512px" viewBox="0 0 512 512" enable-background="new 0 0 512 512" xml:space="preserve">
<g id="Layer_1_2_">
	<g id="Layer_1_1_">
		<g id="Layer_2" display="none">
		</g>
		<g id="shadows">
			<g opacity="0.9">
				<g>
					<path fill="#B7B7B7" d="M466.5,381.5c0,48.6-39.4,88-88,88h-246c-48.601,0-88-39.4-88-88V164.833c0-48.601,39.399-88,88-88h246
						c48.6,0,88,39.399,88,88V381.5z"/>
				</g>
			</g>
			<g>
				<g>
					<path fill="#FFFFFF" d="M466.5,360.5c0,48.6-39.4,88-88,88h-246c-48.601,0-88-39.4-88-88V143.833c0-48.601,39.399-88,88-88h246
						c48.6,0,88,39.399,88,88V360.5z"/>
				</g>
			</g>
		</g>
		
			<linearGradient id="SVGID_1_" gradientUnits="userSpaceOnUse" x1="744" y1="-16.3335" x2="1166" y2="-16.3335" gradientTransform="matrix(1 0 0 -1 -700.5 238)">
			<stop  offset="0" style="stop-color:#77AFD2"/>
			<stop  offset="0.1166" style="stop-color:#6EA6CD"/>
			<stop  offset="0.3105" style="stop-color:#548CC0"/>
			<stop  offset="0.5563" style="stop-color:#2B63AB"/>
			<stop  offset="0.5674" style="stop-color:#2961AA"/>
			<stop  offset="1" style="stop-color:#193092"/>
		</linearGradient>
		<path fill="url(#SVGID_1_)" stroke="#E2E2E2" stroke-width="7" stroke-miterlimit="10" d="M465.5,362.667c0,48.6-39.399,88-88,88
			h-246c-48.601,0-88-39.4-88-88V146c0-48.601,39.399-88,88-88h246c48.601,0,88,39.399,88,88V362.667z"/>
	</g>
</g>
<path fill="#FAFAFA" d="M375.084,190.086L236.416,328.75c-4.16,4.16-9.621,6.254-15.082,6.254s-10.922-2.094-15.082-6.254
	l-69.332-69.332c-8.344-8.34-8.344-21.824,0-30.164c8.34-8.344,21.82-8.344,30.164,0l54.25,54.25L344.92,159.922
	c8.34-8.344,21.82-8.344,30.164,0C383.424,168.262,383.424,181.742,375.084,190.086z"/>
</svg>
