<?xml version="1.0" encoding="utf-8"?>
<!-- Generator: Adobe Illustrator 16.0.0, SVG Export Plug-In . SVG Version: 6.00 Build 0)  -->
<!DOCTYPE svg PUBLIC "-//W3C//DTD SVG 1.1//EN" "http://www.w3.org/Graphics/SVG/1.1/DTD/svg11.dtd">
<svg version="1.1" id="Layer_1" xmlns="http://www.w3.org/2000/svg" xmlns:xlink="http://www.w3.org/1999/xlink" x="0px" y="0px"
	 width="512px" height="512px" viewBox="0 0 512 512" enable-background="new 0 0 512 512" xml:space="preserve">
<g id="Layer_1_2_">
	<g id="Layer_1_1_">
		<g id="Layer_2" display="none">
		</g>
		<g id="shadows">
			<g opacity="0.9">
				<g>
					<path fill="#B7B7B7" d="M466.5,381.5c0,48.601-39.4,88-88,88h-246c-48.602,0-88-39.399-88-88V164.833c0-48.601,39.398-88,88-88
						h246c48.6,0,88,39.399,88,88V381.5z"/>
				</g>
			</g>
			<g>
				<g>
					<path fill="#FFFFFF" d="M466.5,360.5c0,48.601-39.4,88-88,88h-246c-48.602,0-88-39.399-88-88V143.833c0-48.601,39.398-88,88-88
						h246c48.6,0,88,39.399,88,88V360.5z"/>
				</g>
			</g>
		</g>
		
			<radialGradient id="SVGID_1_" cx="930.0549" cy="619.9744" r="203.799" gradientTransform="matrix(1 0 0 1 -675.5547 -365.6406)" gradientUnits="userSpaceOnUse">
			<stop  offset="0" style="stop-color:#5DC2DA"/>
			<stop  offset="0.5" style="stop-color:#0BA1C6"/>
			<stop  offset="1" style="stop-color:#0581B7"/>
		</radialGradient>
		<path fill="url(#SVGID_1_)" stroke="#E2E2E2" stroke-width="7" stroke-miterlimit="10" d="M465.5,362.668c0,48.6-39.399,88-88,88
			h-246c-48.602,0-88-39.4-88-88V146c0-48.601,39.398-88,88-88h246c48.601,0,88,39.399,88,88V362.668z"/>
	</g>
</g>
<path fill="#1858A5" d="M363.704,247.295L192.152,128.983c-1.815-1.249-4.17-1.379-6.11-0.367c-1.946,1.023-3.165,3.035-3.165,5.235
	v236.625c0,2.2,1.219,4.217,3.165,5.24c0.863,0.45,1.81,0.675,2.751,0.675c1.177,0,2.348-0.354,3.359-1.047l171.553-118.312
	c1.604-1.107,2.556-2.923,2.556-4.869C366.26,250.217,365.302,248.401,363.704,247.295z"/>
</svg>
