<?xml version="1.0" encoding="utf-8"?>
<!-- Generator: Adobe Illustrator 16.0.0, SVG Export Plug-In . SVG Version: 6.00 Build 0)  -->
<!DOCTYPE svg PUBLIC "-//W3C//DTD SVG 1.1//EN" "http://www.w3.org/Graphics/SVG/1.1/DTD/svg11.dtd">
<svg version="1.1" id="Layer_1" xmlns="http://www.w3.org/2000/svg" xmlns:xlink="http://www.w3.org/1999/xlink" x="0px" y="0px"
	 width="512px" height="512px" viewBox="0 0 512 512" enable-background="new 0 0 512 512" xml:space="preserve">
<g id="Layer_1_1_">
	<g id="Layer_2" display="none">
	</g>
	<g id="shadows">
		<g opacity="0.9">
			<g>
				<path fill="#B7B7B7" d="M466.5,381.5c0,48.601-39.4,88-88,88h-246c-48.602,0-88-39.399-88-88V164.833c0-48.601,39.398-88,88-88
					h246c48.6,0,88,39.399,88,88V381.5z"/>
			</g>
		</g>
		<g>
			<g>
				<path fill="#FFFFFF" d="M466.5,360.5c0,48.601-39.4,88-88,88h-246c-48.602,0-88-39.399-88-88V143.833c0-48.601,39.398-88,88-88
					h246c48.6,0,88,39.399,88,88V360.5z"/>
			</g>
		</g>
	</g>
	
		<linearGradient id="SVGID_1_" gradientUnits="userSpaceOnUse" x1="252.0554" y1="326.0251" x2="674.0549" y2="326.0251" gradientTransform="matrix(1 0 0 -1 -208.5552 580.3589)">
		<stop  offset="0" style="stop-color:#F69453"/>
		<stop  offset="0.5" style="stop-color:#F37521"/>
		<stop  offset="1" style="stop-color:#D4622A"/>
	</linearGradient>
	<path fill="url(#SVGID_1_)" stroke="#E2E2E2" stroke-width="10" stroke-miterlimit="10" d="M465.5,362.668c0,48.6-39.399,88-88,88
		h-246c-48.602,0-88-39.4-88-88V146c0-48.601,39.398-88,88-88h246c48.601,0,88,39.399,88,88V362.668z"/>
</g>
<g display="none">
	
		<radialGradient id="SVGID_2_" cx="226.5559" cy="243.9905" r="109.3186" gradientTransform="matrix(1 0 0 -1 24.9448 503.3589)" gradientUnits="userSpaceOnUse">
		<stop  offset="0" style="stop-color:#FEFE93"/>
		<stop  offset="0.5" style="stop-color:#FEFE00"/>
		<stop  offset="1" style="stop-color:#FEDD00"/>
	</radialGradient>
	<path display="inline" fill="url(#SVGID_2_)" d="M191.015,387.669c-4.147,0.064-8.237-0.975-11.848-3.014
		c-13.073-7.548-17.114-28.014-11.372-57.616c7.5-33.207,20.249-65.003,37.768-94.192c16.521-29.767,37.683-56.705,62.689-79.804
		c22.79-19.774,42.504-26.513,55.582-18.961c13.077,7.552,17.112,28.013,11.371,57.616c-7.5,33.206-20.25,65.003-37.77,94.192
		c-16.52,29.766-37.682,56.707-62.688,79.804C218.067,380.18,203.013,387.669,191.015,387.669z M311.778,140.659
		c-9.358,0-22.397,6.81-37.197,19.665c-24.203,22.395-44.682,48.503-60.664,77.344c-16.984,28.265-29.355,59.053-36.648,91.209
		c-4.822,24.884-2.372,42.171,6.728,47.427c9.099,5.256,25.297-1.266,44.437-17.893c24.199-22.394,44.673-48.503,60.653-77.343
		c16.981-28.264,29.354-59.052,36.648-91.208c4.821-24.882,2.372-42.17-6.752-47.426
		C316.78,141.219,314.294,140.605,311.778,140.659z"/>
	
		<radialGradient id="SVGID_3_" cx="226.5559" cy="243.991" r="109.3176" gradientTransform="matrix(1 0 0 -1 24.9448 503.3589)" gradientUnits="userSpaceOnUse">
		<stop  offset="0" style="stop-color:#FEFE93"/>
		<stop  offset="0.5" style="stop-color:#FEFE00"/>
		<stop  offset="1" style="stop-color:#FEDD00"/>
	</radialGradient>
	<path display="inline" fill="url(#SVGID_3_)" d="M332.369,375.898c-2.018,3.625-4.963,6.648-8.535,8.757
		c-13.074,7.546-32.792,0.814-55.581-18.962c-25.008-23.097-46.169-50.038-62.689-79.803
		c-17.519-29.188-30.268-60.986-37.767-94.192c-5.743-29.604-1.707-50.069,11.371-57.616s32.814-0.813,55.581,18.957
		c25.005,23.102,46.168,50.042,62.688,79.809c17.515,29.19,30.265,60.986,37.769,94.192
		C339.415,348.725,338.368,365.507,332.369,375.898z M178.834,147.816c-4.684,8.105-5.306,22.804-1.567,42.045
		c7.293,32.156,19.664,62.944,36.648,91.208c15.983,28.839,36.459,54.947,60.659,77.343c19.139,16.622,35.338,23.147,44.438,17.893
		s11.572-22.543,6.752-47.434c-7.296-32.154-19.666-62.939-36.648-91.202c-15.989-28.842-36.479-54.951-60.688-77.344
		c-19.139-16.622-35.337-23.146-44.437-17.89C181.825,143.74,180.045,145.598,178.834,147.816z M209.739,283.48v-0.044V283.48z"/>
	
		<radialGradient id="SVGID_4_" cx="226.5549" cy="243.991" r="108.9653" gradientTransform="matrix(1 0 0 -1 24.9448 503.3589)" gradientUnits="userSpaceOnUse">
		<stop  offset="0" style="stop-color:#FEFE93"/>
		<stop  offset="0.5" style="stop-color:#FEFE00"/>
		<stop  offset="1" style="stop-color:#FEDD00"/>
	</radialGradient>
	<path display="inline" fill="url(#SVGID_4_)" d="M392.854,247.598c2.132,3.559,3.274,7.623,3.313,11.771
		c0,15.093-15.7,28.823-44.209,38.654c-32.507,10.107-66.419,14.966-100.457,14.39c-34.037,0.576-67.949-4.281-100.456-14.391
		c-28.509-9.826-44.21-23.551-44.21-38.653c0-15.104,15.701-28.828,44.21-38.661c32.507-10.104,66.419-14.962,100.456-14.385
		c34.036-0.578,67.95,4.279,100.457,14.385C372.841,227.913,386.856,237.186,392.854,247.598z M118.561,266.523
		c4.668,8.107,17.095,15.991,35.626,22.381c31.494,9.765,64.346,14.445,97.313,13.864c32.969,0.582,65.816-4.098,97.313-13.86
		c23.967-8.264,37.71-19.032,37.71-29.539c0-10.508-13.743-21.281-37.71-29.542c-31.496-9.761-64.346-14.438-97.313-13.858
		c-32.967-0.578-65.817,4.101-97.313,13.858c-23.961,8.267-37.709,19.033-37.709,29.542
		C116.525,261.897,117.244,264.366,118.561,266.523z M251.5,307.592v-0.044V307.592z"/>
	<circle display="inline" fill="#FF5364" cx="169.522" cy="177.391" r="19.289"/>
	<circle display="inline" fill="#E57E25" cx="362.412" cy="230.435" r="19.289"/>
	<circle display="inline" fill="#FF5364" cx="280.434" cy="370.279" r="19.29"/>
	<circle display="inline" fill="#285680" cx="251.5" cy="259.369" r="24.112"/>
</g>
<path fill="#2BBDC4" d="M354.724,259.846h-18.148c-4.464,0-8.294-3.329-8.728-7.772c-3.922-40.199-40.561-71.726-81.772-71.726
	s-77.852,31.526-81.774,71.726c-0.433,4.443-4.262,7.772-8.727,7.772h-18.148c0-58.541,50.106-105.999,108.649-105.999
	C304.617,153.847,354.724,201.305,354.724,259.846z"/>
<path fill="#495D85" d="M337.057,259.846h17.667c0,11.692-2.337,22.94-5.83,33.457v0.003c-0.198-0.068-0.405-0.131-0.614-0.189
	l-16.475-4.415C335.043,279.657,337.057,269.943,337.057,259.846z"/>
<path fill="#E9EEF0" d="M354.531,303.933l-11.435,42.66c-1.26,4.713-6.105,7.508-10.816,6.249l-17.066-4.574
	c0,0,15.961-57.792,16.592-59.566l16.475,4.415C353.155,294.466,355.751,299.35,354.531,303.933z"/>
<path fill="#495D85" d="M287.33,349.942c-4.713-1.263-7.508-6.104-6.244-10.817l16-59.724c1.265-4.715,6.108-7.51,10.82-6.246
	l17.063,4.57c4.713,1.265,7.514,6.104,6.25,10.817l-1.449,5.406l-14.557,54.319c-1.264,4.713-6.104,7.508-10.816,6.249
	C298.428,352.917,293.299,351.543,287.33,349.942z"/>
<path fill="#495D85" d="M187.754,354.517c-4.712,1.259-9.552-1.536-10.816-6.249l-16.006-59.726
	c-1.262-4.713,1.537-9.555,6.25-10.817l17.062-4.57c4.713-1.264,9.558,1.531,10.82,6.244l16.002,59.726
	c1.262,4.713-1.534,9.553-6.246,10.817C198.852,351.543,193.721,352.917,187.754,354.517z"/>
<path fill="#E9EEF0" d="M176.937,348.268l-17.066,4.574c-4.712,1.259-9.556-1.536-10.815-6.249l-11.435-42.66
	c-1.202-4.505,1.299-9.128,5.635-10.627c0.199-0.068,0.408-0.131,0.615-0.189l16.474-4.415
	C160.976,290.476,176.937,348.268,176.937,348.268z"/>
<path fill="#495D85" d="M160.344,288.702l-16.474,4.417c-0.207,0.057-0.416,0.119-0.615,0.189v-0.005
	c-3.493-10.517-5.83-21.765-5.83-33.455h17.667C155.093,269.943,157.107,279.657,160.344,288.702z"/>
<path d="M310.721,296.77c-2.354-0.632-4.773,0.764-5.406,3.122c-0.632,2.354,0.766,4.778,3.123,5.41
	c2.354,0.632,4.779-0.769,5.411-3.122C314.479,299.822,313.08,297.402,310.721,296.77z"/>
<path d="M183.713,305.302c2.358-0.632,3.754-3.057,3.122-5.41c-0.632-2.358-3.051-3.754-5.405-3.122
	c-2.359,0.631-3.759,3.052-3.127,5.41C178.933,304.534,181.36,305.934,183.713,305.302z"/>
<path d="M354.184,291.229c3.328-10.956,4.957-21.259,4.957-31.381c0-29.366-11.974-57.112-33.717-78.129
	c-21.191-20.482-49.605-32.287-79.348-32.287c-60.928,0-113.065,49.3-113.065,110.416c0,10.124,1.628,20.428,4.959,31.388
	c-4.044,3.193-6.009,8.611-4.616,13.842l11.435,42.657c1.878,7.035,9.108,11.275,16.227,9.375l13.533-3.628
	c3.101,4.507,8.803,6.784,14.349,5.303l17.066-4.576c7.056-1.891,11.259-9.171,9.368-16.226l-16.002-59.726
	c-1.893-7.058-9.177-11.26-16.23-9.368l-17.061,4.571c-1.797,0.481-3.409,1.313-4.781,2.402c-0.881-4.112-1.43-8.19-1.643-12.216
	c4.902-1.542,8.563-5.821,9.083-11.143c3.644-37.351,38.355-67.739,77.377-67.739s73.734,30.389,77.377,67.739
	c0.518,5.321,4.181,9.601,9.083,11.143c-0.212,4.025-0.762,8.104-1.643,12.216c-1.374-1.089-2.983-1.921-4.781-2.402l-17.062-4.571
	c-7.059-1.891-14.338,2.311-16.229,9.368l-16.002,59.726c-1.891,7.057,2.313,14.335,9.368,16.226l17.069,4.576
	c5.523,1.477,11.232-0.779,14.346-5.303l13.536,3.629c7.143,1.907,14.354-2.374,16.222-9.373l11.437-42.665
	C360.192,299.841,358.219,294.415,354.184,291.229z M168.324,281.993l17.063-4.573c2.354-0.632,4.78,0.771,5.412,3.122l16,59.727
	c0.63,2.352-0.77,4.776-3.122,5.408l-4.267,1.144l-7.999-29.865c-0.63-2.355-3.051-3.754-5.408-3.124
	c-2.357,0.632-3.756,3.053-3.124,5.41l8,29.867l-4.265,1.143c-2.35,0.629-4.778-0.773-5.41-3.125c0-0.002,0-0.004,0-0.004
	l-16.005-59.723C164.568,285.049,165.97,282.623,168.324,281.993z M171.529,345.145l-12.795,3.431
	c-2.354,0.629-4.778-0.758-5.412-3.125l-11.433-42.655c-0.594-2.231,0.639-4.564,2.844-5.326c0.103-0.036,0.209-0.067,0.282-0.086
	l12.616-3.383C158.918,297.217,156.566,289.846,171.529,345.145z M141.961,264.263h8.841c0.385,7.039,1.686,14.2,3.882,21.382
	l-8.489,2.277C143.746,279.684,142.351,271.879,141.961,264.263z M332.244,251.644c-4.176-42.79-43.014-75.713-86.168-75.713
	c-43.178,0-81.997,32.942-86.17,75.715c-0.207,2.122-2.108,3.785-4.332,3.785h-13.621c2.469-53.111,49.141-97.167,104.124-97.167
	c54.981,0,101.655,44.056,104.122,97.167h-13.622C334.355,255.431,332.451,253.768,332.244,251.644z M350.19,264.263
	c-0.391,7.615-1.786,15.421-4.232,23.659l-8.491-2.275c2.196-7.186,3.497-14.345,3.882-21.384H350.19z M310.948,347.124
	c0,0,0,0-0.002,0c-0.63,2.352-3.058,3.754-5.404,3.127l-4.269-1.145l8-29.865c0.632-2.357-0.767-4.778-3.124-5.41
	c-2.355-0.63-4.777,0.769-5.408,3.124l-8,29.865l-4.266-1.146c-2.352-0.63-3.754-3.056-3.123-5.406l16.002-59.727
	c0.528-1.97,2.317-3.273,4.269-3.273c0.376,0,0.762,0.05,1.144,0.151l17.061,4.571c2.354,0.631,3.758,3.057,3.127,5.406
	L310.948,347.124z M350.264,302.79l-11.436,42.664c-0.632,2.365-3.062,3.751-5.406,3.124l-12.799-3.433
	c14.968-55.32,12.609-47.926,13.896-51.145c13.439,3.605,12.656,3.383,12.933,3.481C349.623,298.231,350.858,300.566,350.264,302.79
	z"/>
</svg>
