<?xml version="1.0" encoding="utf-8"?>
<!-- Generator: Adobe Illustrator 16.0.0, SVG Export Plug-In . SVG Version: 6.00 Build 0)  -->
<!DOCTYPE svg PUBLIC "-//W3C//DTD SVG 1.1//EN" "http://www.w3.org/Graphics/SVG/1.1/DTD/svg11.dtd">
<svg version="1.1" id="Layer_1" xmlns="http://www.w3.org/2000/svg" xmlns:xlink="http://www.w3.org/1999/xlink" x="0px" y="0px"
	 width="512px" height="512px" viewBox="0 0 512 512" enable-background="new 0 0 512 512" xml:space="preserve">
<g id="Layer_1_1_">
	<g id="Layer_2" display="none">
	</g>
	<g id="shadows">
		<g opacity="0.9">
			<g>
				<path fill="#B7B7B7" d="M466.5,381.5c0,48.6-39.4,88-88,88h-246c-48.603,0-88-39.4-88-88V164.833c0-48.601,39.397-88,88-88h246
					c48.6,0,88,39.399,88,88V381.5z"/>
			</g>
		</g>
		<g>
			<g>
				<path fill="#FFFFFF" d="M466.5,360.5c0,48.6-39.4,88-88,88h-246c-48.603,0-88-39.4-88-88V143.833c0-48.601,39.397-88,88-88h246
					c48.6,0,88,39.399,88,88V360.5z"/>
			</g>
		</g>
	</g>
	<linearGradient id="SVGID_1_" gradientUnits="userSpaceOnUse" x1="43.5002" y1="254.3335" x2="465.5002" y2="254.3335">
		<stop  offset="0" style="stop-color:#2BC4F3"/>
		<stop  offset="0.5" style="stop-color:#00AEEE"/>
		<stop  offset="1" style="stop-color:#0095DA"/>
	</linearGradient>
	<path fill="url(#SVGID_1_)" stroke="#E2E2E2" stroke-width="10" stroke-miterlimit="10" d="M465.5,362.667c0,48.6-39.399,88-88,88
		h-246c-48.603,0-88-39.4-88-88V146c0-48.601,39.397-88,88-88h246c48.601,0,88,39.399,88,88V362.667z"/>
</g>
<path id="path4235" sodipodi:cy="274" sodipodi:ry="64" sodipodi:cx="267" sodipodi:type="arc" sodipodi:rx="64" fill="#435DE7" d="
	M351.755,312.221c0,41.398-33.562,74.96-74.96,74.96c-41.399,0-74.959-33.562-74.959-74.96s33.56-74.959,74.959-74.959
	C318.194,237.261,351.755,270.822,351.755,312.221z"/>
<path id="path3454" inkscape:connector-curvature="0" fill="#FFFFED" d="M239.55,124.825c-2.374,0.067-4.71,0.628-6.855,1.647
	l-62.686,29.918c-8.532,4.057-12.16,14.262-8.103,22.794c4.057,8.532,14.263,12.16,22.794,8.103l38.244-18.253v142.422
	c-0.002,0.132-0.002,0.266,0,0.399c-0.001,0.104,0,0.209,0,0.312c0.005,0.327,0.02,0.654,0.045,0.979
	c0.529,30.434,25.679,55.295,56.229,55.295c30.877,0,56.274-25.396,56.274-56.274c0-30.877-25.397-56.274-56.274-56.274
	c-7.824,0-15.285,1.648-22.082,4.587V141.921c0.004-9.443-7.649-17.1-17.093-17.103C239.88,124.818,239.715,124.821,239.55,124.825
	L239.55,124.825z M279.218,290.086c12.398,0,22.082,9.685,22.082,22.082c0,12.398-9.684,22.082-22.082,22.082
	c-12.397,0-22.082-9.684-22.082-22.082C257.136,299.771,266.821,290.086,279.218,290.086z"/>
</svg>
