<?xml version="1.0" encoding="utf-8"?>
<!-- Generator: Adobe Illustrator 16.0.0, SVG Export Plug-In . SVG Version: 6.00 Build 0)  -->
<!DOCTYPE svg PUBLIC "-//W3C//DTD SVG 1.1//EN" "http://www.w3.org/Graphics/SVG/1.1/DTD/svg11.dtd">
<svg version="1.1" id="Layer_1" xmlns="http://www.w3.org/2000/svg" xmlns:xlink="http://www.w3.org/1999/xlink" x="0px" y="0px"
	 width="512px" height="512px" viewBox="0 0 512 512" enable-background="new 0 0 512 512" xml:space="preserve">
<g id="Layer_1_1_">
	<g id="Layer_2" display="none">
	</g>
	<g id="shadows">
		<g opacity="0.9">
			<g>
				<path fill="#B7B7B7" d="M466,392c0,48.6-39.4,88-88,88H132c-48.602,0-88-39.4-88-88V175.333c0-48.601,39.398-88,88-88h246
					c48.6,0,88,39.399,88,88V392z"/>
			</g>
		</g>
		<g>
			<g>
				<path fill="#FFFFFF" d="M466,371c0,48.6-39.4,88-88,88H132c-48.602,0-88-39.4-88-88V154.333c0-48.601,39.398-88,88-88h246
					c48.6,0,88,39.399,88,88V371z"/>
			</g>
		</g>
	</g>
	
		<linearGradient id="SVGID_1_" gradientUnits="userSpaceOnUse" x1="51.3601" y1="-565.7788" x2="473.3596" y2="-565.7788" gradientTransform="matrix(1 0 0 -1 -8.3599 -300.9453)">
		<stop  offset="0" style="stop-color:#FFFFFF;stop-opacity:0"/>
		<stop  offset="1" style="stop-color:#FFFFFF"/>
	</linearGradient>
	<path fill="url(#SVGID_1_)" stroke="#E2E2E2" stroke-width="10" stroke-miterlimit="10" d="M465,373.167c0,48.6-39.399,88-88,88
		H131c-48.602,0-88-39.4-88-88V156.5c0-48.601,39.398-88,88-88h246c48.601,0,88,39.399,88,88V373.167z"/>
</g>
<path id="path3806" inkscape:connector-curvature="0" sodipodi:nodetypes="cc" fill="#29627D" d="M355.292,254.213
	c25.04,52.582,18.416,92.471-50.508,116.249L355.292,254.213z"/>
<path id="path3808" inkscape:connector-curvature="0" sodipodi:nodetypes="cc" fill="#29627D" d="M152.709,254.213
	c-25.04,52.582-18.416,92.471,50.508,116.249L152.709,254.213z"/>
<path id="path2990" inkscape:connector-curvature="0" sodipodi:nodetypes="ssccsccssss" fill="#2998CC" d="M357.693,272.47
	c0,8.823-0.722,17.437-2.097,25.757c-1.375,8.318-3.402,16.344-6.014,23.988c-8.276,29.508-32.527,48.057-59.504,54.326
	c-13.182,2.93-26.809,4.26-40.063,4.104c-13.254-0.155-26.136-1.794-37.827-4.8c-30.142-8.721-43.959-28.012-52.801-53.631
	c-2.611-7.645-4.639-15.67-6.014-23.988c-1.375-8.32-2.098-16.934-2.098-25.757c0-70.582,46.209-127.799,103.209-127.799
	S357.693,201.888,357.693,272.47z"/>
<g id="g3789" transform="translate(2.3825115,0)">
	<g id="g3782" transform="translate(-6.48965,0)">
		
			<path id="path3797" inkscape:connector-curvature="0" inkscape:transform-center-y="-10.278067" sodipodi:nodetypes="cacc" fill-opacity="0.1202" d="
			M233.095,257.993c0,0,13.27,26.045,25.402,26.067c12.264,0.023,25.775-26.254,25.775-26.254L233.095,257.993z"/>
		<path id="path3767" inkscape:connector-curvature="0" sodipodi:nodetypes="cacc" fill="#A5861A" d="M233.095,257.621
			c0,0,14.718,19.509,25.402,19.547c10.782,0.037,25.775-19.547,25.775-19.547H233.095z"/>
		<path id="path3761" inkscape:connector-curvature="0" sodipodi:nodetypes="cacac" fill="#F1D881" d="M232.14,257.566
			c0,0,16.678,12.668,26.454,12.668c9.777,0,26.454-12.668,26.454-12.668s-16.271-15.276-26.454-15.276
			S232.14,257.566,232.14,257.566L232.14,257.566z"/>
		<path id="path3765" inkscape:connector-curvature="0" sodipodi:nodetypes="cccc" fill-opacity="0.1202" d="M258.594,270.234
			c9.777,0,26.454-12.668,26.454-12.668s-16.271-15.276-26.454-15.276V270.234z"/>
		<path id="path3799" inkscape:connector-curvature="0" fill="#FFFFFF" fill-opacity="0.0721" d="M258.592,242.294
			c-10.184,0-26.458,15.276-26.458,15.276s0.425,0.305,1.036,0.748c3.387-3.019,15.034-12.936,23.654-14.223v26.033l1.853,0.102
			v-26.271c8.712,0.07,21.743,11.14,25.354,14.359c0.611-0.443,1.02-0.748,1.02-0.748S268.774,242.294,258.592,242.294z"/>
	</g>
	<g id="g3772">
		<path id="path3783" inkscape:connector-curvature="0" sodipodi:nodetypes="sssss" fill-opacity="0.2404" d="M293.386,194.941
			c-8.614,2.624-13.895,14.854-11.795,27.278c2.099,12.425,10.788,20.375,19.401,17.751s13.914-14.834,11.815-27.259
			C310.71,200.287,302,192.318,293.386,194.941z"/>
		
			<path id="path3769" sodipodi:type="arc" sodipodi:rx="28.101736" sodipodi:ry="28.101736" sodipodi:cx="344.00403" sodipodi:cy="160.24377" fill="#3C333A" stroke="#252525" stroke-width="2.3958" d="
			M311.366,210.909c2.178,9.503-2.725,18.734-10.95,20.62c-8.227,1.886-16.661-4.289-18.839-13.791
			c-2.179-9.502,2.724-18.734,10.949-20.62C300.753,195.232,309.187,201.407,311.366,210.909z"/>
		
			<path id="path3771" sodipodi:type="arc" sodipodi:rx="10.191454" sodipodi:ry="6.298665" sodipodi:cx="336.75302" sodipodi:cy="155.88316" fill="#FFFFFF" fill-opacity="0.8365" d="
			M294.475,203.197c1.547,1.089,1.371,4.001-0.392,6.503c-1.764,2.502-4.446,3.646-5.992,2.557c-1.547-1.09-1.371-4.001,0.393-6.503
			C290.247,203.252,292.93,202.107,294.475,203.197z"/>
		<path id="path3775" inkscape:connector-curvature="0" sodipodi:nodetypes="csccssccccccc" fill="#8AC7E5" d="M308.966,210.168
			c1.102,5.855-5.188,13.44-9.938,14.618c-4.755,1.179-13.275-1.979-14.621-7.769l-0.03,0.014c0.053,0.251,0.112,0.502,0.174,0.746
			c2.019,8.013,8.518,12.472,15.226,10.81c6.913-1.714,11.062-9.968,9.267-18.445L308.966,210.168z M284.408,217.018l0.061-0.012
			c-0.001-0.045-0.003-0.088-0.005-0.144l-0.092,0.026C284.38,216.933,284.397,216.973,284.408,217.018L284.408,217.018z"/>
		<path id="path3763" inkscape:connector-curvature="0" sodipodi:nodetypes="sssss" fill-opacity="0.2404" d="M210.818,194.941
			c8.613,2.624,13.894,14.854,11.795,27.278s-10.788,20.375-19.401,17.751s-13.915-14.834-11.815-27.259
			C193.495,200.287,202.205,192.318,210.818,194.941z"/>
		
			<path id="path3766" sodipodi:type="arc" sodipodi:rx="28.101736" sodipodi:ry="28.101736" sodipodi:cx="344.00403" sodipodi:cy="160.24377" fill="#3C333A" stroke="#252525" stroke-width="2.3958" d="
			M192.838,210.909c-2.178,9.503,2.725,18.734,10.95,20.62c8.227,1.886,16.66-4.289,18.839-13.791
			c2.178-9.502-2.725-18.734-10.95-20.62S195.017,201.407,192.838,210.909z"/>
		
			<path id="path3768" sodipodi:type="arc" sodipodi:rx="10.191454" sodipodi:ry="6.298665" sodipodi:cx="336.75302" sodipodi:cy="155.88316" fill="#FFFFFF" fill-opacity="0.8365" d="
			M209.728,203.197c-1.546,1.089-1.37,4.001,0.393,6.503s4.446,3.646,5.992,2.557s1.37-4.001-0.393-6.503
			C213.957,203.252,211.274,202.107,209.728,203.197z"/>
		<path id="path3770" inkscape:connector-curvature="0" sodipodi:nodetypes="csccssccccccc" fill="#8AC7E5" d="M195.237,210.168
			c-1.101,5.855,5.188,13.44,9.938,14.618c4.755,1.179,13.275-1.979,14.622-7.769l0.03,0.014c-0.053,0.251-0.113,0.502-0.175,0.746
			c-2.018,8.013-8.517,12.472-15.226,10.81c-6.913-1.714-11.061-9.968-9.267-18.445L195.237,210.168z M219.796,217.018l-0.062-0.012
			c0.002-0.045,0.004-0.088,0.006-0.144l0.092,0.026C219.823,216.933,219.806,216.973,219.796,217.018L219.796,217.018z"/>
	</g>
</g>
<path id="path3810" fill="#FFFFFF" fill-opacity="0.35" d="M254.491,294.445c-33.013,0-61.366,26.392-73.629,64.063
	c7.914,7.591,18.028,13.488,31.317,17.333c11.691,3.007,24.588,4.654,37.843,4.81c13.255,0.154,26.871-1.184,40.052-4.113
	c13.863-3.222,27.013-9.69,37.64-19.219C315.244,320.281,287.156,294.445,254.491,294.445z"/>
</svg>
