<?xml version="1.0" encoding="utf-8"?>
<!-- Generator: Adobe Illustrator 16.0.0, SVG Export Plug-In . SVG Version: 6.00 Build 0)  -->
<!DOCTYPE svg PUBLIC "-//W3C//DTD SVG 1.1//EN" "http://www.w3.org/Graphics/SVG/1.1/DTD/svg11.dtd">
<svg version="1.1" id="Layer_1" xmlns="http://www.w3.org/2000/svg" xmlns:xlink="http://www.w3.org/1999/xlink" x="0px" y="0px"
	 width="512px" height="512px" viewBox="0 0 512 512" enable-background="new 0 0 512 512" xml:space="preserve">
<g id="Layer_1_1_">
	<g id="Layer_2" display="none">
	</g>
	<g id="shadows">
		<g opacity="0.9">
			<g>
				<path fill="#B7B7B7" d="M466.5,381.5c0,48.6-39.4,88-88,88h-246c-48.602,0-88-39.4-88-88V164.833c0-48.601,39.398-88,88-88h246
					c48.6,0,88,39.399,88,88V381.5z"/>
			</g>
		</g>
		<g>
			<g>
				<path fill="#FFFFFF" d="M466.5,360.5c0,48.6-39.4,88-88,88h-246c-48.602,0-88-39.4-88-88V143.833c0-48.601,39.398-88,88-88h246
					c48.6,0,88,39.399,88,88V360.5z"/>
			</g>
		</g>
	</g>
	
		<radialGradient id="SVGID_1_" cx="262.8596" cy="-555.2788" r="203.7987" gradientTransform="matrix(1 0 0 -1 -8.3599 -300.9453)" gradientUnits="userSpaceOnUse">
		<stop  offset="0" style="stop-color:#7C76B7"/>
		<stop  offset="0.5" style="stop-color:#6561AB"/>
		<stop  offset="1" style="stop-color:#483F99"/>
	</radialGradient>
	<path fill="url(#SVGID_1_)" stroke="#E2E2E2" stroke-width="10" stroke-miterlimit="10" d="M465.5,362.667c0,48.6-39.399,88-88,88
		h-246c-48.602,0-88-39.4-88-88V146c0-48.601,39.398-88,88-88h246c48.601,0,88,39.399,88,88V362.667z"/>
</g>
<g>
	<g transform="translate(0.000000,227.000000) scale(0.100000,-0.100000)">
		<path fill="#FFFFFF" d="M2263.381,1101.167c-400.864-83.716-716.611-277.554-1011.772-625.605
			c-201.167-236.416-358.33-596.172-406.758-932.476c-66.074-466.972,44.048-908.984,336.265-1346.601
			c82.241-123.34,99.844-140.977,186.514-185.039c167.388-88.105,325.981-138.047,569.766-177.695
			c24.971-4.434,46.997-5.859,46.997-2.91c0,2.91-36.724,33.77-83.721,67.539c-132.144,99.883-345.098,324.551-440.527,465.527
			c-236.416,345.117-309.858,600.605-293.687,1017.676c5.889,168.867,16.167,237.891,45.518,333.359
			c195.283,638.75,725.42,1076.372,1309.883,1082.227l120.4,1.475l8.799,95.464c5.898,52.852,13.232,126.289,19.121,165.923
			l8.799,69.019l-145.371-1.475C2452.834,1127.573,2332.405,1114.355,2263.381,1101.167z"/>
		<path fill="#FFFFFF" d="M2446.946,689.99c-461.123-74.873-856.128-372.983-1057.295-797.378
			c-183.564-384.741-165.923-881.108,45.522-1296.655c152.739-299.59,414.126-558.027,723.945-713.672L2275.134-2175h513.97
			c553.633,0,649.062,8.809,869.345,82.246c105.742,33.789,199.697,79.297,118.926,57.266
			c-70.488-20.527-650.537-10.273-815.019,13.242c-851.709,124.824-1364.209,629.941-1364.209,1345.117
			c0,165.918,4.424,196.797,44.053,311.328c82.236,239.37,232.031,436.157,427.31,560.972
			c192.358,123.345,377.407,176.235,612.339,173.291c171.816,0,309.863-27.92,461.084-89.57
			c60.215-24.98,111.602-42.578,113.066-41.143c2.949,1.475,35.254,66.074,71.973,140.986
			c77.822,157.119,77.822,157.119-51.416,207.065c-190.889,74.873-337.734,104.263-550.693,110.122
			C2612.903,698.793,2488.049,695.844,2446.946,689.99z"/>
		<path fill="#FFFFFF" d="M2498.362,253.842c-129.238-24.971-345.103-126.289-440.532-205.586
			c-230.557-190.898-343.628-446.421-343.628-769.468c0-201.211,23.496-308.379,110.122-480.195
			c168.872-336.27,524.253-565.352,1063.188-681.367c129.238-29.355,204.121-33.77,634.375-39.668l488.994-5.898l69.023,41.113
			c66.074,38.184,368.564,323.086,355.342,334.824c-2.91,1.465-58.74,0-123.35-7.344c-64.6-5.879-267.275-19.102-449.365-27.91
			c-696.064-32.305-1111.631,35.254-1447.925,237.891c-98.369,60.215-252.583,218.809-295.161,306.914
			c-151.26,314.277-64.595,684.316,202.646,863.452c315.713,210.01,747.441,129.248,951.592-179.136l36.719-54.336l140.986,74.883
			c77.822,42.578,143.936,77.832,146.846,80.762c17.637,14.702-63.125,127.778-167.393,233.481
			c-96.943,99.844-140.996,132.148-256.972,189.414C2955.061,272.924,2743.586,300.839,2498.362,253.842z"/>
	</g>
</g>
</svg>
