<?xml version="1.0" encoding="utf-8"?>
<!-- Generator: Adobe Illustrator 16.0.0, SVG Export Plug-In . SVG Version: 6.00 Build 0)  -->
<!DOCTYPE svg PUBLIC "-//W3C//DTD SVG 1.1//EN" "http://www.w3.org/Graphics/SVG/1.1/DTD/svg11.dtd">
<svg version="1.1" id="Layer_1" xmlns="http://www.w3.org/2000/svg" xmlns:xlink="http://www.w3.org/1999/xlink" x="0px" y="0px"
	 width="512px" height="512px" viewBox="0 0 512 512" enable-background="new 0 0 512 512" xml:space="preserve">
<g id="Layer_1_1_">
	<g id="Layer_2" display="none">
	</g>
	<g id="shadows">
		<g opacity="0.9">
			<g>
				<path fill="#B7B7B7" d="M466.5,381.5c0,48.6-39.4,88-88,88h-246c-48.603,0-88-39.4-88-88V164.833c0-48.601,39.397-88,88-88h246
					c48.6,0,88,39.399,88,88V381.5z"/>
			</g>
		</g>
		<g>
			<g>
				<path fill="#FFFFFF" d="M466.5,360.5c0,48.6-39.4,88-88,88h-246c-48.603,0-88-39.4-88-88V143.833c0-48.601,39.397-88,88-88h246
					c48.6,0,88,39.399,88,88V360.5z"/>
			</g>
		</g>
	</g>
	
		<radialGradient id="SVGID_1_" cx="271.22" cy="1372.2246" r="203.7985" gradientTransform="matrix(1 0 0 1 -16.7197 -1117.8906)" gradientUnits="userSpaceOnUse">
		<stop  offset="0" style="stop-color:#64C08A"/>
		<stop  offset="0.5" style="stop-color:#00A550"/>
		<stop  offset="1" style="stop-color:#00914C"/>
	</radialGradient>
	<path fill="url(#SVGID_1_)" stroke="#E2E2E2" stroke-width="10" stroke-miterlimit="10" d="M465.5,362.667c0,48.6-39.399,88-88,88
		h-246c-48.603,0-88-39.4-88-88V146c0-48.601,39.397-88,88-88h246c48.601,0,88,39.399,88,88V362.667z"/>
</g>
<g>
	<rect x="246.709" y="207.345" fill="#F6FAF4" width="3.863" height="74.13"/>
	<polygon fill="#F6FAF4" points="338.192,246.28 159.088,246.28 159.088,207.345 162.951,207.345 162.951,242.418 334.328,242.418 
		334.328,207.345 338.192,207.345 	"/>
	
		<rect x="220.506" y="136.185" fill="#F6FAF4" stroke="#FFFFFF" stroke-width="3" stroke-miterlimit="10" width="56.273" height="56.273"/>
</g>
<rect x="315.976" y="136.208" fill="#FFD07D" stroke="#FFFFFF" stroke-width="3" stroke-miterlimit="10" width="56.272" height="56.273"/>
<rect x="125.028" y="136.196" fill="#E04F5F" stroke="#FFFFFF" stroke-width="3" stroke-miterlimit="10" width="56.273" height="56.272"/>
<rect x="205.108" y="296.356" fill="#32BEA6" stroke="#FFFFFF" stroke-width="3" stroke-miterlimit="10" width="87.072" height="87.072"/>
</svg>
