<?xml version="1.0" encoding="utf-8"?>
<!-- Generator: Adobe Illustrator 16.0.0, SVG Export Plug-In . SVG Version: 6.00 Build 0)  -->
<!DOCTYPE svg PUBLIC "-//W3C//DTD SVG 1.1//EN" "http://www.w3.org/Graphics/SVG/1.1/DTD/svg11.dtd">
<svg version="1.1" id="Layer_1" xmlns="http://www.w3.org/2000/svg" xmlns:xlink="http://www.w3.org/1999/xlink" x="0px" y="0px"
	 width="512px" height="512px" viewBox="0 0 512 512" enable-background="new 0 0 512 512" xml:space="preserve">
<g id="Layer_1_2_">
	<g id="Layer_1_1_">
		<g id="Layer_2" display="none">
		</g>
		<g id="shadows">
			<g opacity="0.9">
				<g>
					<path fill="#B7B7B7" d="M466.5,381.5c0,48.6-39.4,88-88,88h-246c-48.604,0-88-39.4-88-88V164.833c0-48.601,39.396-88,88-88h246
						c48.6,0,88,39.399,88,88V381.5z"/>
				</g>
			</g>
			<g>
				<g>
					<path fill="#FFFFFF" d="M466.5,360.5c0,48.6-39.4,88-88,88h-246c-48.604,0-88-39.4-88-88V143.833c0-48.601,39.396-88,88-88h246
						c48.6,0,88,39.399,88,88V360.5z"/>
				</g>
			</g>
		</g>
		
			<radialGradient id="SVGID_1_" cx="296.2991" cy="-1117.0601" r="203.7987" gradientTransform="matrix(1 0 0 -1 -41.7993 -862.7266)" gradientUnits="userSpaceOnUse">
			<stop  offset="0" style="stop-color:#FFF7A9"/>
			<stop  offset="0.5" style="stop-color:#FFF100"/>
			<stop  offset="1" style="stop-color:#F3EE7F"/>
		</radialGradient>
		<path fill="url(#SVGID_1_)" stroke="#E2E2E2" stroke-width="10" stroke-miterlimit="10" d="M465.5,362.667c0,48.6-39.399,88-88,88
			h-246c-48.604,0-88-39.4-88-88V146c0-48.601,39.396-88,88-88h246c48.601,0,88,39.399,88,88V362.667z"/>
	</g>
	
		<linearGradient id="SVGID_2_" gradientUnits="userSpaceOnUse" x1="64.22" y1="468.3906" x2="64.22" y2="468.3906" gradientTransform="matrix(1 0 0 1 -16.7197 -280.8906)">
		<stop  offset="0" style="stop-color:#D471AD"/>
		<stop  offset="0.5" style="stop-color:#C7158C"/>
		<stop  offset="1" style="stop-color:#9D248E"/>
	</linearGradient>
	<path fill="url(#SVGID_2_)" stroke="#E2E2E2" stroke-width="10" stroke-miterlimit="10" d="M47.5,187.5"/>
	
		<linearGradient id="SVGID_3_" gradientUnits="userSpaceOnUse" x1="92.22" y1="813.3906" x2="92.22" y2="813.3906" gradientTransform="matrix(1 0 0 1 -16.7197 -280.8906)">
		<stop  offset="0" style="stop-color:#D471AD"/>
		<stop  offset="0.5" style="stop-color:#C7158C"/>
		<stop  offset="1" style="stop-color:#9D248E"/>
	</linearGradient>
	<path fill="url(#SVGID_3_)" stroke="#E2E2E2" stroke-width="10" stroke-miterlimit="10" d="M75.5,532.5"/>
</g>
<g id="Layer_2_1_">
	
		<linearGradient id="SVGID_4_" gradientUnits="userSpaceOnUse" x1="64.22" y1="479.3906" x2="64.22" y2="479.3906" gradientTransform="matrix(1 0 0 1 -16.7197 -280.8906)">
		<stop  offset="0" style="stop-color:#D471AD"/>
		<stop  offset="0.5" style="stop-color:#C7158C"/>
		<stop  offset="1" style="stop-color:#9D248E"/>
	</linearGradient>
	<path fill="url(#SVGID_4_)" stroke="#E2E2E2" stroke-width="10" stroke-miterlimit="10" d="M47.5,198.5"/>
</g>
<path id="path3061" inkscape:connector-curvature="0" fill="#4D4D4D" d="M281.629,365.346c-3.559-0.707-9.709-3.71-12.238-5.977
	c-0.565-0.508-1.113-0.923-1.215-0.923c-0.273,0-4.783-3.994-7.817-6.922c-1.444-1.393-3.388-3.227-4.321-4.076
	c-0.933-0.849-1.861-1.718-2.064-1.932c-1.038-1.095-6.199-4.547-8.024-5.366c-2.562-1.151-6.606-1.859-8.808-1.544
	c-4.903,0.704-11.297,4.37-15.679,8.988c-0.93,0.979-1.596,1.047-1.872,0.189c-0.343-1.068,0.807-2.994,3.67-6.147
	c6.127-6.745,12.44-10.188,18.703-10.199c1.945-0.003,5.957,0.864,9.054,1.959c2.146,0.758,13.399,7.04,13.743,7.672
	c0.264,0.486,9.375,5.648,11.479,6.504c6.403,2.604,11.438,1.86,16.364-2.422c1.705-1.481,4.299-5.377,5.199-7.809
	c0.971-2.617,1.385-2.69,4.967-0.863c2.877,1.467,9.77,3.831,11.168,3.831c0.891,0,1.709,1.697,1.439,2.988
	c-0.122,0.585-1.01,2.54-1.973,4.344C306.656,360.294,293.397,367.681,281.629,365.346L281.629,365.346z M313.912,333.215
	c-1.155-0.271-2.797-0.783-3.648-1.137s-1.805-0.644-2.117-0.644c-0.984,0-9.16-5.148-11.671-7.35
	c-7.407-6.492-16.257-17.683-25.085-31.72c-0.574-0.913-7.616-11.301-9.354-13.798c-0.369-0.53-2.627-3.283-5.016-6.118
	c-7.655-9.079-15.262-14.15-26.052-17.367c-6.455-1.924-18.197-2.093-29.587-0.428c-1.512,0.221-5.659,0.829-9.216,1.353
	c-22.359,3.287-34.78,2.737-48.386-2.139c-8.523-3.055-18.244-8.92-25.482-15.375c-1.345-1.198-2.831-2.47-3.303-2.826
	c-0.873-0.658-1.929-1.647-2.735-2.564c-0.598-0.679-0.569-1.785,0.063-2.412c0.432-0.429,1.08-0.284,4.123,0.92
	c16.325,6.457,32.098,4.325,56.48-7.634c3.29-1.613,6.418-3.13,6.952-3.37c0.534-0.24,1.12-0.571,1.303-0.735
	c0.184-0.164,1.42-0.81,2.75-1.437c3.711-1.75,6.474-3.166,8.074-4.138c0.8-0.487,2.692-1.484,4.203-2.216
	c1.512-0.731,3.258-1.599,3.881-1.928c4-2.111,9.02-4.518,9.425-4.518c0.263,0,1.08-0.347,1.816-0.771
	c0.736-0.425,1.535-0.772,1.774-0.772c0.241,0,0.575-0.155,0.744-0.344c0.281-0.314,7.207-3.32,8.715-3.783
	c0.355-0.109,2.247-0.768,4.203-1.465s3.921-1.381,4.365-1.521c0.445-0.14,2.118-0.668,3.719-1.175
	c5.432-1.719,8.718-2.417,21.019-4.462c3.812-0.633,18.023-0.896,22.474-0.416c8.844,0.957,16.05,2.333,21.665,4.14
	c4.078,1.313,9.834,3.531,11.642,4.486c3.11,1.645,3.501,1.837,3.724,1.837c0.918,0,10.602,6.213,15.842,10.164
	c4.99,3.764,12.742,11.475,17.621,17.532c10.753,13.35,18.144,30.055,19.884,44.947c0.781,6.679,0.674,10.265-0.531,17.848
	c-0.401,2.526-2.368,8.912-3.03,9.839c-0.227,0.318-0.645,1.247-0.926,2.063c-0.564,1.63-3.224,6.139-5.03,8.529
	c-7.074,9.36-18.454,17.212-28.798,19.867c-0.979,0.25-2.434,0.645-3.234,0.874C324.959,333.688,316.375,333.793,313.912,333.215
	L313.912,333.215z M313.67,309.445c0.697-0.923,0.889-1.559,0.889-2.944c0-2.397-1.35-4.008-3.357-4.008
	c-3.18,0-4.695,3.77-2.719,6.767C309.86,311.35,312.17,311.432,313.67,309.445z M352.905,279.385
	c3.039-2.212,1.646-7.763-1.948-7.763c-1.573,0-3.414,2.028-3.414,3.763C347.542,279.284,350.258,281.31,352.905,279.385
	L352.905,279.385z M206.071,314.963c-9.551-0.737-18.225-5.789-24.683-14.374c-3.896-5.18-3.713-5.822,1.779-6.247
	c3.979-0.309,9.932-1.729,12.703-3.032c5.813-2.734,11.229-7.922,15.127-14.486c0.754-1.269,2.601-4.391,4.106-6.938
	c4.628-7.836,5.57-9.069,6.927-9.066c2.066,0.002,6.923,0.895,9.748,1.792c3.126,0.993,7.529,2.974,8.407,3.783
	c0.267,0.246,0.896,0.656,1.396,0.911c1.397,0.713,5.15,3.721,7.238,5.803c3.248,3.237,10.094,11.715,12.238,15.152
	c0.348,0.556,1.612,2.466,2.812,4.245c7.331,10.873,7.519,11.269,5.927,12.513c-0.637,0.498-1.018,0.536-2.021,0.204
	c-1.565-0.52-9.327-0.532-11.971-0.021c-1.102,0.213-2.412,0.448-2.91,0.521c-0.878,0.128-4.857,0.988-8.505,1.839
	c-0.978,0.229-2.07,0.562-2.425,0.74c-0.356,0.18-2.393,0.784-4.527,1.344c-2.134,0.559-5.117,1.366-6.629,1.793
	c-4.545,1.283-5.191,1.446-8.893,2.248c-2.881,0.624-13.436,1.726-14.066,1.468C207.76,315.117,206.96,315.032,206.071,314.963
	L206.071,314.963z M372.461,305.412l-0.74-0.94l1.468-5.33c1.438-5.224,2.486-10.37,2.486-12.201c0-1.707,0.899-2.197,4.033-2.197
	c6.449,0,12.041-3.716,14.575-9.682c2.099-4.941,2.68-9.152,2.898-20.998c0.248-13.469,0.454-16.983,1.273-21.609
	c1.419-8.015,4.289-13.636,9.232-18.08c1.844-1.656,2.19-1.907,5.194-3.751c2.517-1.546,7.624-3.496,9.357-3.573
	c1.333-0.06,1.455,0.012,1.455,0.855c0,0.785-0.403,1.13-2.748,2.352c-2.651,1.382-5.397,3.368-8.367,6.051
	c-3.331,3.011-6.438,9.509-7.144,14.946c-0.561,4.309,0.012,12.954,1.278,19.337c2.414,12.167,2.428,26.684,0.028,31.654
	c-0.311,0.643-0.662,1.632-0.781,2.197c-0.514,2.438-5.038,9.311-8.024,12.185c-3.222,3.103-3.598,3.405-6.255,5.012
	c-4.789,2.897-10.811,4.702-15.708,4.708C373.452,306.351,373.134,306.268,372.461,305.412L372.461,305.412z M363.789,240.269
	c-2.857-5.119-3.775-6.579-6.707-10.668c-6.701-9.344-14.602-17.726-22.475-23.84c-5.602-4.352-5.547-4.297-5.437-5.407
	c0.241-2.415,6.636-4.643,19.176-6.682c9.077-1.477,14.853-3.997,18.904-8.251c2.661-2.795,3.964-4.956,5.607-9.305
	c0.642-1.697,1.475-3.333,1.852-3.633c0.605-0.483,0.847-0.453,2.078,0.261c4.539,2.632,9.583,7.844,11.746,12.141
	c2.025,4.02,2.509,10.456,1.183,15.736c-1.024,4.074-4.714,12.389-7.221,16.27c-0.639,0.99-1.744,2.79-2.455,4
	c-0.712,1.21-2.098,3.439-3.08,4.954c-3.494,5.387-7.494,12.321-8.426,14.609c-0.676,1.664-1.668,2.615-2.727,2.615
	C365.557,243.067,364.649,241.808,363.789,240.269L363.789,240.269z M130.727,228.146c-12.871-1.271-23.573-7.321-30.405-17.188
	c-3.391-4.897-4.908-7.959-7.966-16.08c-0.993-2.638-2.771-11.364-3.313-16.255c-0.554-5.006-0.497-14.262,0.104-16.884
	c0.676-2.948,2.6-3.485,3.678-1.027c0.685,1.56,4.593,5.36,6.914,6.724c1.979,1.163,2.358,1.25,5.402,1.243
	c2.728-0.006,3.641-0.174,5.478-1.005c4.132-1.871,6.206-3.289,15.882-10.855c4.953-3.873,10.798-7.422,14.896-9.046
	c3.086-1.223,3.508-1.29,9.273-1.468c5.528-0.171,6.236-0.117,8.339,0.646c2.819,1.021,7.371,3.774,8.914,5.391
	c0.629,0.659,1.267,1.199,1.417,1.199c0.15,0,0.448,0.505,0.662,1.123c0.64,1.842,0.066,2.565-2.484,3.131
	c-4.604,1.021-10.416,3.957-16.277,8.222c-5.186,3.773-12.536,12.148-15.655,17.838c-2.443,4.457-4.79,10.403-5.551,14.064
	c-0.784,3.769-0.776,10.505,0.015,13.519c1.198,4.563,3.699,9.895,6.038,12.873c1.082,1.378,1.201,2.539,0.354,3.455
	C135.859,228.394,134.295,228.498,130.727,228.146L130.727,228.146z"/>
</svg>
