<?xml version="1.0" encoding="utf-8"?>
<!-- Generator: Adobe Illustrator 16.0.0, SVG Export Plug-In . SVG Version: 6.00 Build 0)  -->
<!DOCTYPE svg PUBLIC "-//W3C//DTD SVG 1.1//EN" "http://www.w3.org/Graphics/SVG/1.1/DTD/svg11.dtd">
<svg version="1.1" id="Layer_1" xmlns="http://www.w3.org/2000/svg" xmlns:xlink="http://www.w3.org/1999/xlink" x="0px" y="0px"
	 width="512px" height="512px" viewBox="0 0 512 512" enable-background="new 0 0 512 512" xml:space="preserve">
<g id="Layer_1_1_">
	<g id="Layer_2" display="none">
	</g>
	<g id="shadows">
		<g opacity="0.9">
			<g>
				<path fill="#B7B7B7" d="M466.5,381.5c0,48.6-39.4,88-88,88h-246c-48.602,0-88-39.4-88-88V164.833c0-48.601,39.398-88,88-88h246
					c48.6,0,88,39.399,88,88V381.5z"/>
			</g>
		</g>
		<g>
			<g>
				<path fill="#FFFFFF" d="M466.5,360.5c0,48.6-39.4,88-88,88h-246c-48.602,0-88-39.4-88-88V143.833c0-48.601,39.398-88,88-88h246
					c48.6,0,88,39.399,88,88V360.5z"/>
			</g>
		</g>
	</g>
	<path fill="#EF4223" stroke="#E2E2E2" stroke-width="10" stroke-miterlimit="10" d="M465.5,362.667c0,48.6-39.399,88-88,88h-246
		c-48.602,0-88-39.4-88-88V146c0-48.601,39.398-88,88-88h246c48.601,0,88,39.399,88,88V362.667z"/>
</g>
<path id="path3847" inkscape:connector-curvature="0" fill="#2664AE" d="M258.86,97.61c-65.066,0-121.037,38.91-145.921,94.733
	c5.583,12.302,12.818,24.104,21.762,35.065c20.999,25.732,48.35,43.201,77.949,52.023c23.807-58.28,81.058-99.357,147.902-99.357
	c14.146,0,27.863,1.833,40.924,5.287C375.164,133.296,321.181,97.61,258.86,97.61z M107.94,205.03
	c-0.297,0.854-0.577,1.715-0.859,2.577C107.363,206.745,107.643,205.887,107.94,205.03z M107.081,207.606
	c-0.284,0.866-0.568,1.727-0.837,2.599C106.51,209.339,106.799,208.468,107.081,207.606z M105.473,212.805
	c-0.25,0.863-0.492,1.731-0.727,2.599C104.983,214.531,105.22,213.675,105.473,212.805z M104.746,215.404
	c-0.238,0.878-0.482,1.758-0.704,2.643C104.262,217.169,104.51,216.276,104.746,215.404z M102.764,223.553
	c-0.174,0.806-0.346,1.613-0.508,2.422C102.418,225.171,102.59,224.356,102.764,223.553z M101.75,228.642
	c-0.125,0.688-0.237,1.377-0.352,2.07C101.515,230.021,101.624,229.331,101.75,228.642z M418.458,253.31
	c0.022,0.912,0.035,1.821,0.043,2.732C418.494,255.128,418.479,254.219,418.458,253.31z M418.084,269.168
	c-0.07,0.934-0.156,1.866-0.242,2.796C417.926,271.037,418.014,270.104,418.084,269.168z M407.159,316.59
	c-0.257,0.641-0.508,1.277-0.771,1.916C406.653,317.867,406.903,317.234,407.159,316.59z M401.808,328.549
	c-0.323,0.647-0.639,1.294-0.971,1.938C401.167,329.849,401.485,329.193,401.808,328.549z M399.274,333.439
	c-0.434,0.8-0.874,1.606-1.322,2.4C398.401,335.044,398.837,334.242,399.274,333.439z M350.906,387.82
	c-0.717,0.508-1.437,1.005-2.158,1.497C349.467,388.828,350.194,388.323,350.906,387.82z"/>
<path id="path3857" inkscape:connector-curvature="0" fill="#378EE9" d="M112.939,192.343
	c-23.702,53.301-17.221,117.701,22.18,165.985c45.701,56.005,121.506,72.947,184.996,46.541c4.399-12.771,7.243-26.331,8.281-40.439
	c2.3-31.262-4.577-61.077-18.325-86.826c-61.38,20.954-131.962,2.999-175.37-50.195
	C125.757,216.447,118.522,204.645,112.939,192.343z M418.458,253.31c0.021,0.91,0.036,1.818,0.043,2.732
	C418.493,255.13,418.481,254.222,418.458,253.31z M418.084,269.168c-0.07,0.936-0.158,1.869-0.242,2.796
	C417.928,271.034,418.014,270.102,418.084,269.168z M407.159,316.59c-0.257,0.645-0.507,1.277-0.771,1.916
	C406.652,317.867,406.903,317.23,407.159,316.59z M401.808,328.549c-0.323,0.645-0.641,1.3-0.971,1.938
	C401.169,329.843,401.485,329.196,401.808,328.549z M399.274,333.439c-0.437,0.803-0.873,1.604-1.322,2.4
	C398.4,335.046,398.84,334.239,399.274,333.439z M396.586,338.198c-0.925,1.571-1.889,3.132-2.862,4.668
	C394.702,341.319,395.664,339.77,396.586,338.198z M393.724,342.866c-0.488,0.767-0.976,1.532-1.477,2.291
	C392.747,344.398,393.237,343.633,393.724,342.866z M390.728,347.427c-2.564,3.746-5.287,7.376-8.149,10.88
	C385.463,354.775,388.185,351.146,390.728,347.427z M382.578,358.307c-0.572,0.7-1.156,1.403-1.74,2.093
	C381.425,359.704,382.002,359.01,382.578,358.307z M380.838,360.399c-1.753,2.071-3.544,4.078-5.396,6.057
	C377.3,364.472,379.097,362.455,380.838,360.399z M375.442,366.456c-0.617,0.659-1.243,1.333-1.872,1.982
	C374.202,367.786,374.823,367.118,375.442,366.456z M373.57,368.438c-0.63,0.646-1.255,1.277-1.894,1.917
	C372.312,369.719,372.946,369.08,373.57,368.438z M365.685,376.036c-0.641,0.578-1.29,1.131-1.939,1.698
	C364.395,377.167,365.047,376.609,365.685,376.036z M363.745,377.734c-0.68,0.591-1.358,1.179-2.048,1.761
	C362.387,378.915,363.067,378.325,363.745,377.734z M350.906,387.82c-0.712,0.503-1.438,1.008-2.158,1.497
	C349.469,388.825,350.189,388.328,350.906,387.82z M341.81,393.813c-1.459,0.886-2.92,1.756-4.406,2.598
	C338.886,395.571,340.346,394.703,341.81,393.813z M337.182,396.544c-0.765,0.431-1.538,0.834-2.311,1.253
	C335.641,397.381,336.419,396.975,337.182,396.544z M334.871,397.797c-0.798,0.434-1.598,0.859-2.402,1.278
	C333.271,398.658,334.075,398.23,334.871,397.797z M330.026,400.331c-0.814,0.407-1.627,0.8-2.445,1.189
	C328.397,401.131,329.211,400.738,330.026,400.331z M327.58,401.521c-0.82,0.393-1.64,0.767-2.467,1.146
	C325.938,402.291,326.76,401.913,327.58,401.521z"/>
<path id="path3855" inkscape:connector-curvature="0" fill="#45A1E2" d="M120.494,177.542c-0.393,0.678-0.786,1.363-1.168,2.047
	C119.709,178.906,120.103,178.218,120.494,177.542z M360.552,180.074c-39.859,0-76.312,14.617-104.292,38.766
	c47.13,30.74,76.556,85.501,72.135,145.59c-1.038,14.108-3.882,27.668-8.281,40.439c10.098-4.204,19.676-9.439,28.633-15.552
	c0.722-0.492,1.441-0.989,2.158-1.497c19.206-13.569,35.353-31.28,47.046-51.98c0.448-0.794,0.889-1.601,1.322-2.4
	c0.529-0.978,1.055-1.963,1.563-2.952c0.332-0.645,0.647-1.291,0.971-1.938c1.636-3.281,3.167-6.631,4.58-10.043
	c0.264-0.639,0.515-1.275,0.771-1.916c5.567-13.954,9.244-28.929,10.683-44.626c0.086-0.93,0.172-1.862,0.242-2.796
	c0.002-0.036-0.005-0.074,0-0.109c0.321-4.369,0.447-8.713,0.417-13.017c-0.008-0.911-0.021-1.82-0.043-2.732
	c-0.584-24.276-6.655-47.359-17.092-67.972C388.337,181.903,374.66,180.074,360.552,180.074z M102.764,223.553
	c-0.174,0.803-0.346,1.618-0.508,2.422C102.418,225.166,102.59,224.358,102.764,223.553z M101.75,228.642
	c-0.126,0.689-0.235,1.379-0.352,2.07C101.513,230.019,101.626,229.329,101.75,228.642z"/>
<g>
	<defs>
		<path id="SVGID_1_" d="M120.854,177.181c-0.391,0.68-0.785,1.365-1.167,2.049C120.067,178.547,120.463,177.858,120.854,177.181z
			 M360.911,179.715c-39.858,0-76.312,14.617-104.291,38.765c47.13,30.739,76.557,85.502,72.135,145.591
			c-1.038,14.106-3.882,27.664-8.283,40.438c10.097-4.204,19.679-9.439,28.634-15.55c0.723-0.494,1.441-0.991,2.159-1.497
			c19.206-13.569,35.353-31.28,47.047-51.982c0.447-0.794,0.888-1.601,1.321-2.4c0.529-0.976,1.055-1.961,1.564-2.95
			c0.331-0.645,0.646-1.291,0.968-1.938c1.638-3.284,3.169-6.633,4.582-10.043c0.264-0.639,0.516-1.275,0.771-1.916
			c5.567-13.957,9.245-28.932,10.683-44.625c0.084-0.934,0.172-1.863,0.242-2.799c0.002-0.034-0.004-0.072,0-0.109
			c0.32-4.369,0.448-8.711,0.417-13.017c-0.006-0.913-0.021-1.819-0.043-2.731c-0.584-24.277-6.654-47.359-17.092-67.972
			C388.697,181.544,375.02,179.715,360.911,179.715z M103.122,223.193c-0.172,0.803-0.344,1.617-0.506,2.422
			C102.778,224.806,102.95,223.999,103.122,223.193z M102.11,228.282c-0.126,0.689-0.235,1.377-0.353,2.07
			C101.874,229.66,101.985,228.97,102.11,228.282z"/>
	</defs>
	<clipPath id="SVGID_2_">
		<use xlink:href="#SVGID_1_"  overflow="visible"/>
	</clipPath>
	<path id="path3937" inkscape:connector-curvature="0" clip-path="url(#SVGID_2_)" fill-opacity="0.1" d="M360.911,179.715
		c-41.158,0-78.685,15.57-107,41.144l35.46,26.366c44.146,3.394,105.387-58.392,109.799-62.906
		C386.91,181.304,374.102,179.715,360.911,179.715z M103.122,223.193c-0.172,0.803-0.344,1.617-0.506,2.422
		C102.778,224.806,102.95,223.999,103.122,223.193z M102.11,228.282c-0.126,0.689-0.235,1.377-0.353,2.07
		C101.874,229.66,101.985,228.97,102.11,228.282z M418.818,252.95c0.022,0.909,0.037,1.818,0.043,2.731
		C418.855,254.769,418.84,253.862,418.818,252.95z M418.444,268.808c-0.07,0.936-0.158,1.868-0.242,2.799
		C418.285,270.673,418.373,269.743,418.444,268.808z M407.519,316.231c-0.258,0.641-0.507,1.274-0.771,1.916
		C407.011,317.509,407.263,316.872,407.519,316.231z M402.165,328.19c-0.32,0.645-0.639,1.298-0.968,1.938
		C401.529,329.484,401.843,328.838,402.165,328.19z M399.633,333.079c-0.436,0.805-0.873,1.606-1.321,2.4
		C398.759,334.686,399.199,333.879,399.633,333.079z M351.265,387.462c-0.711,0.503-1.438,1.005-2.159,1.497
		C349.828,388.465,350.547,387.968,351.265,387.462z"/>
</g>
<g>
	<defs>
		<path id="SVGID_3_" d="M113.298,191.983c-23.702,53.302-17.219,117.699,22.18,165.986
			c45.701,56.006,121.508,72.944,184.994,46.539c4.401-12.773,7.245-26.331,8.283-40.438c2.3-31.265-4.578-61.081-18.327-86.826
			c-61.377,20.954-131.96,2.999-175.368-50.196C126.116,216.088,118.882,204.286,113.298,191.983z M418.818,252.95
			c0.022,0.909,0.037,1.818,0.043,2.731C418.855,254.769,418.84,253.862,418.818,252.95z M418.444,268.808
			c-0.07,0.936-0.158,1.868-0.242,2.799C418.285,270.673,418.373,269.743,418.444,268.808z M407.519,316.231
			c-0.258,0.641-0.507,1.274-0.771,1.916C407.011,317.509,407.263,316.872,407.519,316.231z M402.165,328.19
			c-0.32,0.645-0.639,1.298-0.968,1.938C401.529,329.484,401.843,328.838,402.165,328.19z M399.633,333.079
			c-0.436,0.805-0.873,1.606-1.321,2.4C398.759,334.686,399.199,333.879,399.633,333.079z M396.946,337.837
			c-0.925,1.571-1.886,3.135-2.863,4.669C395.063,340.961,396.024,339.408,396.946,337.837z M394.082,342.506
			c-0.487,0.771-0.975,1.531-1.476,2.291C393.108,344.037,393.597,343.272,394.082,342.506z M391.087,347.064
			c-2.564,3.75-5.287,7.377-8.15,10.882C385.823,354.418,388.544,350.786,391.087,347.064z M382.937,357.946
			c-0.571,0.702-1.154,1.403-1.739,2.092C381.787,359.344,382.362,358.648,382.937,357.946z M381.198,360.038
			c-1.753,2.074-3.543,4.081-5.396,6.06C377.66,364.113,379.456,362.097,381.198,360.038z M375.801,366.098
			c-0.617,0.657-1.243,1.333-1.872,1.98C374.562,367.426,375.182,366.757,375.801,366.098z M373.929,368.078
			c-0.628,0.649-1.255,1.28-1.894,1.915C372.671,369.36,373.305,368.722,373.929,368.078z M366.043,375.679
			c-0.64,0.574-1.288,1.128-1.938,1.694C364.754,376.809,365.406,376.251,366.043,375.679z M364.106,377.373
			c-0.681,0.594-1.357,1.182-2.049,1.761C362.748,378.555,363.428,377.964,364.106,377.373z M351.265,387.462
			c-0.711,0.503-1.438,1.005-2.159,1.497C349.828,388.465,350.547,387.968,351.265,387.462z M342.169,393.451
			c-1.458,0.888-2.919,1.756-4.406,2.602C339.245,395.211,340.705,394.345,342.169,393.451z M337.542,396.184
			c-0.765,0.433-1.539,0.837-2.312,1.256C335.999,397.022,336.779,396.614,337.542,396.184z M335.231,397.439
			c-0.798,0.431-1.598,0.858-2.401,1.277C333.63,398.3,334.435,397.87,335.231,397.439z M330.384,399.973
			c-0.812,0.403-1.626,0.797-2.444,1.189C328.757,400.77,329.572,400.376,330.384,399.973z M327.94,401.162
			c-0.82,0.391-1.64,0.767-2.467,1.145C326.297,401.929,327.119,401.553,327.94,401.162z"/>
	</defs>
	<clipPath id="SVGID_4_">
		<use xlink:href="#SVGID_3_"  overflow="visible"/>
	</clipPath>
	<path id="path3948" inkscape:connector-curvature="0" clip-path="url(#SVGID_4_)" fill-opacity="0.1" d="M120.854,177.181
		c-0.391,0.678-0.787,1.366-1.167,2.049C120.069,178.545,120.463,177.86,120.854,177.181z M103.122,223.193
		c-0.172,0.806-0.344,1.612-0.506,2.422C102.778,224.811,102.95,223.997,103.122,223.193z M102.11,228.282
		c-0.125,0.688-0.235,1.377-0.353,2.07C101.874,229.66,101.984,228.972,102.11,228.282z M308.777,274.228l-49.248,11.763
		c-1.403,34.354,60.495,117.083,61.143,117.946c4.289-12.604,7.061-25.97,8.084-39.865
		C331.145,331.578,323.627,300.647,308.777,274.228z"/>
</g>
<g>
	<defs>
		<path id="SVGID_5_" d="M258.86,97.969c-65.066,0-121.037,38.911-145.921,94.733c5.583,12.302,12.818,24.104,21.762,35.065
			c20.999,25.733,48.35,43.199,77.949,52.025c23.807-58.282,81.058-99.359,147.902-99.359c14.146,0,27.863,1.833,40.924,5.286
			C375.164,133.656,321.181,97.969,258.86,97.969z M107.94,205.388c-0.297,0.855-0.577,1.717-0.859,2.578
			C107.363,207.104,107.643,206.246,107.94,205.388z M107.081,207.966c-0.284,0.866-0.568,1.727-0.837,2.6
			C106.51,209.699,106.799,208.828,107.081,207.966z M105.473,213.164c-0.25,0.863-0.492,1.731-0.727,2.6
			C104.983,214.891,105.22,214.034,105.473,213.164z M104.746,215.764c-0.238,0.878-0.482,1.758-0.704,2.642
			C104.262,217.53,104.51,216.636,104.746,215.764z M102.764,223.912c-0.174,0.806-0.346,1.613-0.508,2.423
			C102.418,225.53,102.59,224.717,102.764,223.912z M101.75,229.001c-0.125,0.689-0.237,1.378-0.352,2.07
			C101.515,230.38,101.624,229.69,101.75,229.001z M418.458,253.669c0.022,0.912,0.035,1.821,0.043,2.732
			C418.494,255.488,418.479,254.579,418.458,253.669z M418.084,269.526c-0.07,0.936-0.156,1.866-0.242,2.799
			C417.926,271.396,418.014,270.462,418.084,269.526z M407.159,316.95c-0.257,0.641-0.508,1.277-0.771,1.916
			C406.653,318.228,406.903,317.595,407.159,316.95z M401.808,328.91c-0.323,0.647-0.639,1.293-0.971,1.938
			C401.167,330.207,401.485,329.554,401.808,328.91z M399.274,333.798c-0.434,0.802-0.874,1.606-1.322,2.4
			C398.401,335.404,398.837,334.604,399.274,333.798z M350.906,388.181c-0.717,0.506-1.437,1.005-2.158,1.497
			C349.467,389.186,350.194,388.684,350.906,388.181z"/>
	</defs>
	<clipPath id="SVGID_6_">
		<use xlink:href="#SVGID_5_"  overflow="visible"/>
	</clipPath>
	<path id="path3952" inkscape:connector-curvature="0" clip-path="url(#SVGID_6_)" fill-opacity="0.1" d="M113.315,193.518
		c5.53,12.007,12.641,23.533,21.386,34.25c22.752,27.882,52.971,46.081,85.416,54.072l12.511-38.126
		C197.203,193.705,115.681,193.513,113.315,193.518z M418.458,253.669c0.022,0.912,0.035,1.821,0.043,2.732
		C418.494,255.488,418.479,254.579,418.458,253.669z M418.084,269.526c-0.07,0.936-0.156,1.866-0.242,2.799
		C417.926,271.396,418.014,270.462,418.084,269.526z M407.159,316.95c-0.257,0.641-0.508,1.277-0.771,1.916
		C406.653,318.228,406.903,317.595,407.159,316.95z M401.808,328.91c-0.323,0.647-0.639,1.293-0.971,1.938
		C401.167,330.207,401.485,329.554,401.808,328.91z M399.274,333.798c-0.434,0.802-0.874,1.606-1.322,2.4
		C398.401,335.404,398.837,334.604,399.274,333.798z M350.906,388.181c-0.717,0.506-1.437,1.005-2.158,1.497
		C349.467,389.186,350.194,388.684,350.906,388.181z"/>
</g>
</svg>
