<?xml version="1.0" encoding="utf-8"?>
<!-- Generator: Adobe Illustrator 16.0.0, SVG Export Plug-In . SVG Version: 6.00 Build 0)  -->
<!DOCTYPE svg PUBLIC "-//W3C//DTD SVG 1.1//EN" "http://www.w3.org/Graphics/SVG/1.1/DTD/svg11.dtd">
<svg version="1.1" id="Layer_1" xmlns="http://www.w3.org/2000/svg" xmlns:xlink="http://www.w3.org/1999/xlink" x="0px" y="0px"
	 width="512px" height="512px" viewBox="0 0 512 512" enable-background="new 0 0 512 512" xml:space="preserve">
<g id="Layer_1_1_">
	<g id="Layer_2" display="none">
	</g>
	<g id="shadows">
		<g opacity="0.9">
			<g>
				<path fill="#B7B7B7" d="M466.5,381.5c0,48.6-39.4,88-88,88h-246c-48.602,0-88-39.4-88-88V164.833c0-48.601,39.398-88,88-88h246
					c48.6,0,88,39.399,88,88V381.5z"/>
			</g>
		</g>
		<g>
			<g>
				<path fill="#FFFFFF" d="M466.5,360.5c0,48.6-39.4,88-88,88h-246c-48.602,0-88-39.4-88-88V143.833c0-48.601,39.398-88,88-88h246
					c48.6,0,88,39.399,88,88V360.5z"/>
			</g>
		</g>
	</g>
	<radialGradient id="SVGID_1_" cx="254.5002" cy="254.3335" r="203.7987" gradientUnits="userSpaceOnUse">
		<stop  offset="0.0112" style="stop-color:#3EB0CA"/>
		<stop  offset="0.5" style="stop-color:#0099B9"/>
		<stop  offset="0.9944" style="stop-color:#007C84"/>
	</radialGradient>
	<path fill="url(#SVGID_1_)" stroke="#E2E2E2" stroke-width="10" stroke-miterlimit="10" d="M465.5,362.667c0,48.6-39.399,88-88,88
		h-246c-48.602,0-88-39.4-88-88V146c0-48.601,39.398-88,88-88h246c48.601,0,88,39.399,88,88V362.667z"/>
</g>
<g id="g3841" transform="matrix(0.52317846,0,0,0.52317846,-602.7418,-101.31966)">
	<path id="path3784" inkscape:connector-curvature="0" sodipodi:nodetypes="ccssscscssscccc" fill="#E74540" d="M1403.357,384.406
		c-1.495,0.059-2.918,1.03-3.517,2.401c-14.081,32.44-21.888,68.257-21.888,105.859c0,146.888,119.152,266.041,266.042,266.041
		c146.888,0,266.061-119.151,266.061-266.041c0-37.603-7.828-73.42-21.91-105.859c-0.62-1.413-2.121-2.393-3.666-2.393
		c-1.544,0-3.044,0.98-3.666,2.393c-19.721,45.436-51.712,69.445-92.544,82.557c-40.834,13.111-90.522,14.941-144.275,14.941
		c-53.752,0-103.449-1.83-144.276-14.941c-40.827-13.112-72.802-37.12-92.524-82.557
		C1406.554,385.337,1404.958,384.339,1403.357,384.406L1403.357,384.406z M1884.223,398.448
		C980.93,773.791,1432.576,586.12,1884.223,398.448z"/>
	<g>
		<defs>
			<path id="SVGID_2_" d="M1403.357,384.406c-1.495,0.059-2.917,1.03-3.516,2.401c-14.082,32.44-21.889,68.257-21.889,105.859
				c0,146.888,119.152,266.041,266.042,266.041c146.888,0,266.061-119.151,266.061-266.041c0-37.603-7.828-73.42-21.91-105.859
				c-0.62-1.413-2.121-2.393-3.666-2.393c-1.542,0-3.043,0.98-3.666,2.393c-19.721,45.436-51.712,69.445-92.544,82.557
				c-40.834,13.111-90.522,14.941-144.275,14.941c-53.752,0-103.449-1.83-144.276-14.941c-40.827-13.112-72.802-37.12-92.524-82.557
				C1406.554,385.337,1404.958,384.339,1403.357,384.406z M1884.223,398.448C980.93,773.791,1432.576,586.12,1884.223,398.448z"/>
		</defs>
		<clipPath id="SVGID_3_">
			<use xlink:href="#SVGID_2_"  overflow="visible"/>
		</clipPath>
		
			<path id="path3811" sodipodi:cx="1635.7966" sodipodi:type="arc" sodipodi:cy="648.67798" sodipodi:rx="392.67798" sodipodi:ry="392.67798" clip-path="url(#SVGID_3_)" fill="#280B0B" fill-opacity="0.185" d="
			M1920.641,712.176c0,156.992-127.268,284.26-284.26,284.26c-156.992,0-284.259-127.268-284.259-284.26
			c0-156.993,127.267-284.26,284.259-284.26C1793.372,427.916,1920.641,555.184,1920.641,712.176z"/>
	</g>
	
		<path id="path3012" sodipodi:cx="1635.7966" sodipodi:type="arc" sodipodi:cy="648.67798" sodipodi:rx="392.67798" sodipodi:ry="392.67798" fill="#FF4C4C" d="
		M1905.758,712.176c0,148.775-120.605,269.378-269.378,269.378c-148.772,0-269.378-120.603-269.378-269.378
		c0-148.773,120.606-269.378,269.378-269.378C1785.154,442.798,1905.758,563.403,1905.758,712.176z"/>
</g>
<path id="path3855" inkscape:connector-curvature="0" fill="#E74545" d="M163.688,229.942c-8.281,8.317-13.335,19.42-13.335,31.606
	c0,25.797,22.657,46.713,50.605,46.713c27.948,0,50.594-20.916,50.594-46.713c0-0.119-0.01-0.24-0.011-0.359L163.688,229.942z
	 M363.562,235.382l-92.529,26.491c0.19,25.646,22.776,46.389,50.605,46.389c27.948,0,50.604-20.916,50.604-46.713
	C372.242,251.854,369.039,242.846,363.562,235.382L363.562,235.382z"/>
<g>
	<defs>
		<path id="SVGID_4_" d="M163.687,229.942c-8.28,8.317-13.335,19.42-13.335,31.606c0,25.797,22.657,46.713,50.605,46.713
			c27.948,0,50.594-20.916,50.594-46.713c0-0.119-0.01-0.24-0.011-0.359L163.687,229.942z M363.562,235.382l-92.529,26.491
			c0.19,25.646,22.776,46.389,50.605,46.389c27.948,0,50.604-20.916,50.604-46.713C372.242,251.854,369.039,242.846,363.562,235.382
			z"/>
	</defs>
	<clipPath id="SVGID_5_">
		<use xlink:href="#SVGID_4_"  overflow="visible"/>
	</clipPath>
	<path id="path3893" inkscape:connector-curvature="0" clip-path="url(#SVGID_5_)" fill-opacity="0.115" d="M162.535,219.437
		l-1.951,1.963c-9.027,9.066-14.614,21.304-14.614,34.701c0,28.362,24.858,51.088,54.991,51.088
		c30.132,0,54.968-22.729,54.968-51.088c0-0.365-0.013-0.504-0.011-0.404l-0.023-3.062l-2.882-1.021l-87.853-31.247L162.535,219.437
		L162.535,219.437z M365.292,224.888l-2.938,0.83l-92.528,26.491l-3.197,0.919l0.022,3.331c0.21,28.199,24.986,50.729,54.99,50.729
		c30.133,0,54.979-22.727,54.979-51.088c0-10.659-3.544-20.595-9.533-28.757L365.292,224.888L365.292,224.888z M164.959,229.599
		l82.065,29.183c-1.511,21.998-21.304,39.647-46.063,39.647c-25.763,0-46.231-19.094-46.231-42.328
		C154.73,246.063,158.548,236.887,164.959,229.599L164.959,229.599z M361.726,235.016c3.915,6.223,6.136,13.405,6.136,21.085
		c0,23.234-20.457,42.328-46.221,42.328c-24.424,0-44.053-17.184-46.029-38.761L361.726,235.016L361.726,235.016z"/>
</g>
</svg>
