<?xml version="1.0" encoding="utf-8"?>
<!-- Generator: Adobe Illustrator 16.0.0, SVG Export Plug-In . SVG Version: 6.00 Build 0)  -->
<!DOCTYPE svg PUBLIC "-//W3C//DTD SVG 1.1//EN" "http://www.w3.org/Graphics/SVG/1.1/DTD/svg11.dtd">
<svg version="1.1" id="Layer_1" xmlns="http://www.w3.org/2000/svg" xmlns:xlink="http://www.w3.org/1999/xlink" x="0px" y="0px"
	 width="512px" height="512px" viewBox="0 0 512 512" enable-background="new 0 0 512 512" xml:space="preserve">
<g id="Layer_1_1_">
	<g id="Layer_2" display="none">
	</g>
	<g id="shadows">
		<g opacity="0.9">
			<g>
				<path fill="#B7B7B7" d="M466.5,381.5c0,48.6-39.4,88-88,88h-246c-48.603,0-88-39.4-88-88V164.833c0-48.601,39.397-88,88-88h246
					c48.6,0,88,39.399,88,88V381.5z"/>
			</g>
		</g>
		<g>
			<g>
				<path fill="#FFFFFF" d="M466.5,360.5c0,48.6-39.4,88-88,88h-246c-48.603,0-88-39.4-88-88V143.833c0-48.601,39.397-88,88-88h246
					c48.6,0,88,39.399,88,88V360.5z"/>
			</g>
		</g>
	</g>
	<radialGradient id="SVGID_1_" cx="254.5002" cy="254.3335" r="203.7987" gradientUnits="userSpaceOnUse">
		<stop  offset="0" style="stop-color:#FFF33B"/>
		<stop  offset="0.0401" style="stop-color:#FEE72E"/>
		<stop  offset="0.1171" style="stop-color:#FED51B"/>
		<stop  offset="0.1964" style="stop-color:#FDCA10"/>
		<stop  offset="0.2809" style="stop-color:#FDC70C"/>
		<stop  offset="0.6685" style="stop-color:#F3903F"/>
		<stop  offset="0.8876" style="stop-color:#ED683C"/>
		<stop  offset="1" style="stop-color:#E93E3A"/>
	</radialGradient>
	<path fill="url(#SVGID_1_)" stroke="#E2E2E2" stroke-width="10" stroke-miterlimit="10" d="M465.5,362.667c0,48.6-39.399,88-88,88
		h-246c-48.603,0-88-39.4-88-88V146c0-48.601,39.397-88,88-88h246c48.601,0,88,39.399,88,88V362.667z"/>
</g>
<path id="path2986" inkscape:connector-curvature="0" fill="#1CE621" d="M246.289,407.221
	c-37.771-2.467-72.069-17.985-98.868-44.728c-23.347-23.3-38.066-51.783-43.261-83.726c-1.534-9.435-1.917-14.462-1.917-25.168
	c0-11.052,0.388-15.9,2.102-26.224c4.47-26.942,16.908-53.389,34.657-73.691c1.648-1.886,3.402-3.975,3.896-4.642l0.898-1.212
	l-3.393-22.865c-1.865-12.575-3.355-22.913-3.312-22.972c0.082-0.11,5.842,2.573,28.058,13.073l12.622,5.965l2.511-1.446
	c24.22-13.945,54.811-21.21,82.869-19.682c24.283,1.324,45.52,7.162,65.584,18.032c2.463,1.333,4.646,2.425,4.852,2.425
	c0.209,0,8.982-4.301,19.496-9.559c10.514-5.257,19.172-9.503,19.24-9.435c0.068,0.069-1.115,10.255-2.631,22.637
	c-1.904,15.539-2.66,22.696-2.443,23.105c0.174,0.327,1.5,1.88,2.949,3.455c10.303,11.179,20.031,25.989,26.246,39.951
	c6.824,15.334,10.863,30.515,12.742,47.954c0.678,6.293,0.773,22.221,0.174,28.456c-3.613,37.382-18.559,69.331-44.637,95.405
	c-25.943,25.946-58.518,41.222-95.076,44.584C264.358,407.396,251.601,407.563,246.289,407.221L246.289,407.221z M273.43,391.466
	c26.939-3.667,51.201-14.209,71.555-31.088c19.016-15.771,34.027-37.443,42.109-60.801c1.285-3.709,1.492-4.608,1.156-5.017
	c-0.359-0.433-3.168-0.495-22.045-0.495c-16.91,0-21.707,0.09-21.967,0.412c-0.182,0.225-4.281,10.255-9.107,22.287
	s-8.879,21.986-9.01,22.116c-0.129,0.133-4.809-9.785-10.4-22.042c-5.59-12.254-10.324-22.389-10.518-22.521
	c-0.195-0.134-23.248-0.244-51.226-0.248c-40.315-0.004-50.935,0.08-51.183,0.408c-0.172,0.225-4.298,10.365-9.17,22.531
	c-4.871,12.167-8.931,22.119-9.021,22.114c-0.091-0.004-4.743-10.063-10.338-22.356c-5.596-12.29-10.381-22.427-10.637-22.526
	c-0.255-0.095-9.241-0.175-19.971-0.175c-16.903,0-19.562,0.064-19.916,0.492c-1.1,1.326,6.609,19.567,12.531,29.646
	c21.681,36.909,59.75,61.901,102.388,67.22c7.556,0.941,7.515,0.941,19.142,0.831C266.272,392.178,269.326,392.021,273.43,391.466
	L273.43,391.466z M392.78,276.217c0.922-1.135,2.047-13.632,2.047-22.782c0-22.225-4.852-42.514-14.949-62.507
	c-13.828-27.39-35.01-48.366-62.504-61.898c-14.508-7.141-28.518-11.303-45.424-13.496c-6.563-0.852-25.263-0.857-31.911-0.011
	c-20.284,2.583-38.494,8.801-55.543,18.965c-34.106,20.334-57.935,54.751-65.16,94.109c-2.507,13.656-2.869,29.83-0.978,43.584
	c0.273,1.987,0.651,3.801,0.841,4.029C119.705,276.821,392.283,276.827,392.78,276.217L392.78,276.217z M163.452,261.465
	c-4.229-0.62-9.264-4.259-11.21-8.107c-3.443-6.804-2.072-14.677,3.416-19.606c3.075-2.761,6.035-3.839,10.547-3.839
	c4.811,0,8.477,1.52,11.684,4.843c4.127,4.279,5.448,10.5,3.456,16.288c-1.822,5.291-7.102,9.63-12.696,10.436
	C166.068,261.851,166.09,261.851,163.452,261.465L163.452,261.465z M342.846,261.483c-3.75-0.582-6.141-1.849-9.023-4.778
	c-3.229-3.281-4.668-7.268-4.385-12.14c0.277-4.774,2.25-8.505,6.105-11.54c2.719-2.141,4.799-2.842,9-3.035
	c5.666-0.26,9.172,1.144,12.82,5.126c0.941,1.028,2.166,2.83,2.717,4.007c0.891,1.881,1.027,2.563,1.137,5.662
	c0.16,4.553-0.578,7.209-2.836,10.199C354.621,259.961,348.776,262.407,342.846,261.483L342.846,261.483z"/>
</svg>
