<?xml version="1.0" encoding="utf-8"?>
<!-- Generator: Adobe Illustrator 16.0.0, SVG Export Plug-In . SVG Version: 6.00 Build 0)  -->
<!DOCTYPE svg PUBLIC "-//W3C//DTD SVG 1.1//EN" "http://www.w3.org/Graphics/SVG/1.1/DTD/svg11.dtd">
<svg version="1.1" id="Layer_1" xmlns="http://www.w3.org/2000/svg" xmlns:xlink="http://www.w3.org/1999/xlink" x="0px" y="0px"
	 width="512px" height="512px" viewBox="0 0 512 512" enable-background="new 0 0 512 512" xml:space="preserve">
<g id="Layer_1_1_">
	<g id="Layer_2" display="none">
	</g>
	<g id="shadows">
		<g opacity="0.9">
			<g>
				<path fill="#B7B7B7" d="M466.5,381.5c0,48.6-39.4,88-88,88h-246c-48.604,0-88-39.4-88-88V164.833c0-48.601,39.396-88,88-88h246
					c48.6,0,88,39.399,88,88V381.5z"/>
			</g>
		</g>
		<g>
			<g>
				<path fill="#FFFFFF" d="M466.5,360.5c0,48.6-39.4,88-88,88h-246c-48.604,0-88-39.4-88-88V143.833c0-48.601,39.396-88,88-88h246
					c48.6,0,88,39.399,88,88V360.5z"/>
			</g>
		</g>
	</g>
	<radialGradient id="SVGID_1_" cx="254.5002" cy="254.3335" r="203.7987" gradientUnits="userSpaceOnUse">
		<stop  offset="0" style="stop-color:#FFF7A9"/>
		<stop  offset="0.5" style="stop-color:#FFF100"/>
		<stop  offset="1" style="stop-color:#FFD700"/>
	</radialGradient>
	<path fill="url(#SVGID_1_)" stroke="#E2E2E2" stroke-width="10" stroke-miterlimit="10" d="M465.5,362.667c0,48.6-39.399,88-88,88
		h-246c-48.604,0-88-39.4-88-88V146c0-48.601,39.396-88,88-88h246c48.601,0,88,39.399,88,88V362.667z"/>
</g>
<path id="path2982" inkscape:connector-curvature="0" fill="#212121" d="M235.325,411.964
	c-24.521-2.999-48.277-11.675-68.729-25.103c-31.76-20.851-54.876-51.363-65.75-86.787c-2.532-8.254-5.104-20.727-6.007-29.15
	c-0.834-7.771-0.834-26.806,0-34.578c6.768-63.083,51.974-116.96,113.62-135.411c8.358-2.501,20.991-5.041,29.521-5.933
	c7.871-0.823,27.147-0.823,35.019,0c37.289,3.901,71.906,20.656,98.458,47.658c18.267,18.574,31.182,40.126,38.675,64.534
	c4.653,15.161,6.656,29.131,6.656,46.44c0,13.009-0.66,20.143-2.906,31.397c-11.423,57.256-54.635,104.323-111.362,121.303
	c-8.358,2.502-20.99,5.04-29.521,5.933C264.74,413.132,243.472,412.959,235.325,411.964z M157.513,358.741
	c3.893-2.624,16.049-8.326,27.987-13.126c22.02-8.854,29.551-12.97,34.273-18.726c4.182-5.1,4.27-5.482,4.347-19.313l0.072-12.568
	l-3.28-4.268c-5.196-6.758-9.014-15.12-10.77-23.585c-0.673-3.253-0.972-3.703-3.181-4.816c-5.312-2.677-8.495-9.939-8.495-19.384
	c0-5.836,0.063-6.102,2.145-9.021c2.128-2.983,2.139-3.034,1.391-6.43c-5.422-24.608-5.378-43.122,0.134-56.974
	c7.587-19.066,25.733-29.008,53.036-29.058c14.003-0.026,21.814,2.38,27.724,8.541c1.962,2.046,3.147,2.727,5.354,3.073
	c1.56,0.245,4.888,1.419,7.396,2.611c9.052,4.298,15.332,13.196,17.529,24.834c2.36,12.512,0.747,30.843-4.219,47.916
	c-0.689,2.371-0.617,2.653,1.411,5.497c2.075,2.909,2.139,3.179,2.139,9.012c0,9.43-3.182,16.709-8.473,19.373
	c-2.292,1.155-2.472,1.467-3.495,6.061c-1.956,8.789-7.032,19.37-11.48,23.927l-2.229,2.285l0.271,12.646
	c0.267,12.514,0.288,12.683,2.073,15.92c3.886,7.049,11.192,12.043,27.156,18.565c20.874,8.53,28.795,12.062,34.012,15.162
	c3.586,2.131,5.779,3.071,6.582,2.819c1.604-0.502,11.688-11.584,17.354-19.07c14.449-19.094,23.949-41.802,27.809-66.478
	c1.562-9.976,1.556-31.147-0.01-41.063c-2.511-15.902-7.131-30.454-14.015-44.134c-21.839-43.409-62.425-72.484-111.781-80.083
	c-10.083-1.553-31.502-1.553-41.585,0c-16.104,2.479-30.841,7.042-44.695,13.838c-43.959,21.565-73.406,61.64-81.101,110.378
	c-1.571,9.956-1.571,31.106,0,41.063c4.931,31.228,18.274,58.113,40.217,81.035c2.539,2.652,5.041,4.821,5.561,4.819
	C155.198,360.018,156.473,359.442,157.513,358.741L157.513,358.741z"/>
</svg>
