<?xml version="1.0" encoding="utf-8"?>
<!-- Generator: Adobe Illustrator 24.0.1, SVG Export Plug-In . SVG Version: 6.00 Build 0)  -->
<svg version="1.1" id="Layer_1" xmlns="http://www.w3.org/2000/svg" xmlns:xlink="http://www.w3.org/1999/xlink" x="0px" y="0px"
	 viewBox="0 0 512 512" style="enable-background:new 0 0 512 512;" xml:space="preserve">
<style type="text/css">
	.st0{display:none;}
	.st1{opacity:0.9;}
	.st2{fill:#B7B7B7;}
	.st3{fill:#FFFFFF;}
	.st4{fill:url(#SVGID_1_);stroke:#E2E2E2;stroke-width:10;stroke-miterlimit:10;}
	.st5{fill-rule:evenodd;clip-rule:evenodd;fill:#F9F9F2;}
</style>
<g id="Layer_1_1_">
	<g id="Layer_2_1_" class="st0">
	</g>
	<g id="shadows">
		<g class="st1">
			<g>
				<path class="st2" d="M466.5,381.5c0,48.6-39.4,88-88,88h-246c-48.6,0-88-39.4-88-88V164.8c0-48.6,39.4-88,88-88h246
					c48.6,0,88,39.4,88,88V381.5z"/>
			</g>
		</g>
		<g>
			<g>
				<path class="st3" d="M466.5,360.5c0,48.6-39.4,88-88,88h-246c-48.6,0-88-39.4-88-88V143.8c0-48.6,39.4-88,88-88h246
					c48.6,0,88,39.4,88,88V360.5z"/>
			</g>
		</g>
	</g>
	<radialGradient id="SVGID_1_" cx="254.5" cy="254.3335" r="203.7987" gradientUnits="userSpaceOnUse">
		<stop  offset="0" style="stop-color:#F37F7B"/>
		<stop  offset="0.5" style="stop-color:#ED3D57"/>
		<stop  offset="1" style="stop-color:#DD1E47"/>
	</radialGradient>
	<path class="st4" d="M465.5,362.7c0,48.6-39.4,88-88,88h-246c-48.6,0-88-39.4-88-88V146c0-48.6,39.4-88,88-88h246
		c48.6,0,88,39.4,88,88V362.7z"/>
</g>
<sodipodi:namedview  bordercolor="#666666" borderopacity="1.0" id="base" pagecolor="#ffffff" showgrid="false" showguides="false" units="px">
	</sodipodi:namedview>
<g id="path3762">
	
		<image style="overflow:visible;opacity:0.3;" width="242" height="260" xlink:href="8BB046B5.png"  transform="matrix(1 0 0 1 154 122)">
	</image>
	<g>
		<path class="st5" d="M266.7,128.2c-62.2,0-112.6,52.7-112.6,117.8s50.4,117.8,112.6,117.8c33.5,0,63.6-15.3,84.2-39.7
			c15.1-18,21-45.1,20.9-64.9c0-2.7-0.1-5.3-0.3-8c-0.7-8.9-2.3-17.5-5.1-25.8c-6.5-19.6-19-37-38.8-49.8
			c-13.8-8.4-29.8-13.2-45.7-13l0.7-33.2C277.4,128.7,272.1,128.2,266.7,128.2L266.7,128.2z M273.7,171.3l0.6,31.1
			c-46.5,0.2-58.7,70.3-18.4,82.3c5.6,1.3,11,2,16.2,1.4c11.9-2.1,21.2-8.5,25.1-19.2c1.5-4.2,2-8.7,1.6-13
			c-0.9-8.1-5.5-15.2-14.9-16.9c-4.9-0.4-10.8,0.3-10.8,0.3l1.2-31.6c37.8-1.1,57.7,27.4,55.8,60.5c-0.5,8.5-2.5,16.3-5.8,23.3
			c-8.4,15.4-20.8,24.8-33.7,29.5c-19.8,5.9-42.2,3.9-58.8-5.8c-30.1-17.8-42.8-60.5-26.9-100.7
			C217.1,186.3,242.6,170.6,273.7,171.3L273.7,171.3z"/>
	</g>
</g>
</svg>
