<?xml version="1.0" encoding="utf-8"?>
<!-- Generator: Adobe Illustrator 16.0.0, SVG Export Plug-In . SVG Version: 6.00 Build 0)  -->
<!DOCTYPE svg PUBLIC "-//W3C//DTD SVG 1.1//EN" "http://www.w3.org/Graphics/SVG/1.1/DTD/svg11.dtd">
<svg version="1.1" id="Layer_1" xmlns="http://www.w3.org/2000/svg" xmlns:xlink="http://www.w3.org/1999/xlink" x="0px" y="0px"
	 width="512px" height="512px" viewBox="0 0 512 512" enable-background="new 0 0 512 512" xml:space="preserve">
<g id="Layer_1_1_">
	<g id="Layer_2" display="none">
	</g>
	<g id="shadows">
		<g opacity="0.9">
			<g>
				<path fill="#B7B7B7" d="M466.5,381.5c0,48.6-39.4,88-88,88h-246c-48.602,0-88-39.4-88-88V164.833c0-48.601,39.398-88,88-88h246
					c48.6,0,88,39.399,88,88V381.5z"/>
			</g>
		</g>
		<g>
			<g>
				<path fill="#FFFFFF" d="M466.5,360.5c0,48.6-39.4,88-88,88h-246c-48.602,0-88-39.4-88-88V143.833c0-48.601,39.398-88,88-88h246
					c48.6,0,88,39.399,88,88V360.5z"/>
			</g>
		</g>
	</g>
	<radialGradient id="SVGID_1_" cx="254.5002" cy="254.3335" r="203.7987" gradientUnits="userSpaceOnUse">
		<stop  offset="0" style="stop-color:#2BC4F3"/>
		<stop  offset="0.5" style="stop-color:#00AEEE"/>
		<stop  offset="1" style="stop-color:#0095DA"/>
	</radialGradient>
	<path fill="url(#SVGID_1_)" stroke="#E2E2E2" stroke-width="10" stroke-miterlimit="10" d="M465.5,362.667c0,48.6-39.399,88-88,88
		h-246c-48.602,0-88-39.4-88-88V146c0-48.601,39.398-88,88-88h246c48.601,0,88,39.399,88,88V362.667z"/>
</g>
<path id="shape0" inkscape:connector-curvature="0" sodipodi:nodetypes="ccccccccccccccscccccccccccccccc" fill="#FFFFE7" d="
	M246.099,134.719c-2.409,0.125-4.52,2.338-4.531,4.75l-0.313,77.563l-30.406-30.813c-1.763-1.791-5.002-1.806-6.781-0.031
	L189.255,201c-1.772,1.761-1.787,4.973-0.031,6.75l43.094,43.563l-43.094,43.563c-1.746,1.767-1.746,4.952,0,6.719l14.781,14.875
	c1.761,1.772,4.973,1.787,6.75,0.031l30.438-30.125V364.5c0.013,1.842,1.193,3.623,2.884,4.354c1.691,0.73,3.798,0.368,5.147-0.885
	l70.437-66.406c1.795-1.699,1.913-4.859,0.25-6.688l-39.749-43.563l39.624-43.531c1.682-1.831,1.563-5.018-0.25-6.719L249.599,136
	C248.666,135.129,247.373,134.655,246.099,134.719z M271.974,194.531l10.125,9.625l-10.125,12.469V194.531z M272.005,288.719
	l9.813,10.031l-9.813,9.344V288.719z"/>
</svg>
