<?xml version="1.0" encoding="utf-8"?>
<!-- Generator: Adobe Illustrator 16.0.0, SVG Export Plug-In . SVG Version: 6.00 Build 0)  -->
<!DOCTYPE svg PUBLIC "-//W3C//DTD SVG 1.1//EN" "http://www.w3.org/Graphics/SVG/1.1/DTD/svg11.dtd">
<svg version="1.1" id="Layer_1" xmlns="http://www.w3.org/2000/svg" xmlns:xlink="http://www.w3.org/1999/xlink" x="0px" y="0px"
	 width="512px" height="512px" viewBox="0 0 512 512" enable-background="new 0 0 512 512" xml:space="preserve">
<g id="Layer_1_1_">
	<g id="Layer_2" display="none">
	</g>
	<g id="shadows">
		<g opacity="0.9">
			<g>
				<path fill="#B7B7B7" d="M466.5,381.5c0,48.6-39.4,88-88,88h-246c-48.604,0-88-39.4-88-88V164.833c0-48.601,39.396-88,88-88h246
					c48.6,0,88,39.399,88,88V381.5z"/>
			</g>
		</g>
		<g>
			<g>
				<path fill="#FFFFFF" d="M466.5,360.5c0,48.6-39.4,88-88,88h-246c-48.604,0-88-39.4-88-88V143.833c0-48.601,39.396-88,88-88h246
					c48.6,0,88,39.399,88,88V360.5z"/>
			</g>
		</g>
	</g>
	
		<linearGradient id="SVGID_1_" gradientUnits="userSpaceOnUse" x1="51.8601" y1="281.7207" x2="473.8596" y2="281.7207" gradientTransform="matrix(1 0 0 -1 -8.3599 536.0547)">
		<stop  offset="0" style="stop-color:#F074AC"/>
		<stop  offset="0.5" style="stop-color:#EB008B"/>
		<stop  offset="1" style="stop-color:#CD118C"/>
	</linearGradient>
	<path fill="url(#SVGID_1_)" stroke="#E2E2E2" stroke-width="10" stroke-miterlimit="10" d="M465.5,362.667c0,48.6-39.399,88-88,88
		h-246c-48.604,0-88-39.4-88-88V146c0-48.601,39.396-88,88-88h246c48.601,0,88,39.399,88,88V362.667z"/>
</g>
<path id="path2987" inkscape:connector-curvature="0" sodipodi:nodetypes="cssccsssscssssasascccccsssscccssss" fill="#FFFFF6" d="
	M243.281,387.865c-3.774-2.553-3.911-3.125-1.726-7.207c3.346-6.253,1.55-16.6-6.667-38.403c-3.789-10.057-6.89-19.587-6.89-21.177
	c0.968-5.195,6.003-9.108,5.754-13.729c-1.842-1.842-46.381,2.53-61.513,6.038c-5.661,1.313-17.331,5.076-25.932,8.362
	c-20.484,7.829-28.111,9.914-28.111,7.684c0-0.957,1.64-2.168,3.644-2.691l3.643-0.952l-3.765-2.015
	c-3.576-1.914-3.011-2.62,11.369-14.197c8.323-6.701,25.942-22.361,39.152-34.8c33.73-31.761,50.86-45.814,75.391-61.849
	c11.719-7.66,17.807-8.675,22.518-16.759c4.472-7.675,2.151-13.457,3.302-26.443c2.286-25.797,3.648-27.29,14.111-33.242
	c7.74-4.403,12.628-2.913,26.47,3.593c7.892,3.709,18.551,6.94,28.464,8.627c6.608,0.748,51.136,11.986,48.164,17.221
	c-0.392,0.392-10.199-3.352-17.438-5.175c-17.777-2.996-49.568-10.317-61.955-1.597c-9.364,4.751-4.04,16.277-3.303,25.464
	c2.578,32.097,1.715,51.81-2.782,63.536c-3.983,10.386-10.058,17.335-35.319,40.401c-6.263,5.718-12.152,13.117-14.947,18.779
	c-4.291,8.691-4.613,10.901-4.613,31.637c0,20.66,2.095,39.651,5.024,45.558c5.658,5.841,15.255,3.112,21.18,8.463
	C250.607,397.545,242.659,393.864,243.281,387.865L243.281,387.865z M243.93,323.207c0.665-10.376,0.373-14.066-1.075-13.59
	c-5.578,1.839-7.864,15.053-4.349,25.136C241.301,342.771,242.893,339.382,243.93,323.207L243.93,323.207z"/>
</svg>
