<?xml version="1.0" encoding="utf-8"?>
<!-- Generator: Adobe Illustrator 16.0.0, SVG Export Plug-In . SVG Version: 6.00 Build 0)  -->
<!DOCTYPE svg PUBLIC "-//W3C//DTD SVG 1.1//EN" "http://www.w3.org/Graphics/SVG/1.1/DTD/svg11.dtd">
<svg version="1.1" id="Layer_1" xmlns="http://www.w3.org/2000/svg" xmlns:xlink="http://www.w3.org/1999/xlink" x="0px" y="0px"
	 width="512px" height="512px" viewBox="0 0 512 512" enable-background="new 0 0 512 512" xml:space="preserve">
<g id="Layer_1_1_">
	<g id="Layer_2" display="none">
	</g>
	<g id="shadows">
		<g opacity="0.9">
			<g>
				<path fill="#B7B7B7" d="M466.5,381.5c0,48.6-39.4,88-88,88h-246c-48.604,0-88-39.4-88-88V164.833c0-48.601,39.396-88,88-88h246
					c48.6,0,88,39.399,88,88V381.5z"/>
			</g>
		</g>
		<g>
			<g>
				<path fill="#FFFFFF" d="M466.5,360.5c0,48.6-39.4,88-88,88h-246c-48.604,0-88-39.4-88-88V143.833c0-48.601,39.396-88,88-88h246
					c48.6,0,88,39.399,88,88V360.5z"/>
			</g>
		</g>
	</g>
	<radialGradient id="SVGID_1_" cx="254.5002" cy="254.3335" r="203.7987" gradientUnits="userSpaceOnUse">
		<stop  offset="0" style="stop-color:#64C08A"/>
		<stop  offset="0.5" style="stop-color:#00A550"/>
		<stop  offset="1" style="stop-color:#00914C"/>
	</radialGradient>
	<path fill="url(#SVGID_1_)" stroke="#E2E2E2" stroke-width="10" stroke-miterlimit="10" d="M465.5,362.667c0,48.6-39.399,88-88,88
		h-246c-48.604,0-88-39.4-88-88V146c0-48.601,39.396-88,88-88h246c48.601,0,88,39.399,88,88V362.667z"/>
</g>
<path id="path65" inkscape:connector-curvature="0" fill="#FF2A2A" d="M165.997,295.709h167.027v26.906H165.997"/>
<path id="path67" inkscape:connector-curvature="0" fill="#FF2A2A" d="M162.48,282.537h173.438v13.278H162.48"/>
<path id="path71" inkscape:connector-curvature="0" fill="#4D4D4D" d="M320.425,177.017c10.665-14.153,13.657-27.13,34.415-64.693
	c8.539,9.296,10.705,48.345-9.412,64.693"/>
<path id="path73" inkscape:connector-curvature="0" fill="#4D4D4D" d="M177.157,177.017c-10.666-14.153-13.657-27.13-34.416-64.693
	c-8.539,9.296-10.705,48.345,9.413,64.693"/>
<g id="g3028">
	<path id="path69" inkscape:connector-curvature="0" fill="#FF2A2A" d="M248.796,125.981c-3.526,0-6.829,0.263-10.248,0.612
		c-2.691,0.262-5.469,0.612-8.121,1.059v0.224c-8.655,1.515-17.116,3.837-24.964,7.208c-13.813,5.877-24.246,11.802-34.795,22.273
		c3.186,6.294,9.335,17.417,13.356,22.73h-30.851c-6.644,9.675-11.005,17.378-14.609,28.84c-3.604,11.501-5.615,23.789-5.615,36.465
		c0,59.04,42.235,108.104,97.525,117.729v0.225c2.584,0.417,5.313,0.611,7.927,0.873c3.448,0.302,6.829,0.613,10.433,0.613
		c0.456,0,0.952,0,1.437,0c3.565,0,7.13-0.302,10.626-0.613c2.623-0.262,5.119-0.456,7.703-0.873v-0.225
		c55.32-9.596,97.525-58.67,97.525-117.729c0-12.676-2.049-25.003-5.613-36.465c-3.604-11.501-7.927-19.165-14.61-28.84h-30.812
		c3.982-5.313,10.131-16.396,13.317-22.73c-10.588-10.471-21.021-16.426-34.756-22.273c-7.926-3.38-16.358-5.692-25.003-7.208
		v-0.224c-2.729-0.457-5.352-0.757-8.12-1.059c-3.342-0.34-6.79-0.612-10.209-0.612c-0.495,0-0.991,0-1.476,0 M185.667,232.492
		c9.452,0,17.077,7.78,17.077,17.417c0,9.597-7.625,17.417-17.077,17.417c-9.413,0-17.077-7.78-17.077-17.417
		C168.59,240.312,176.254,232.492,185.667,232.492 M313.382,232.492c9.452,0,17.077,7.78,17.077,17.417
		c0,9.597-7.625,17.417-17.077,17.417c-9.412,0-17.076-7.78-17.076-17.417C296.306,240.312,303.97,232.492,313.382,232.492
		 M164.636,292.105h169.795v3.604h-14.57c-0.263,12.56-8.723,19.311-16.465,26.752c-7.858-8.539-12.104-17.758-9.373-26.752h-88.9
		c2.729,8.994-1.516,18.213-9.374,26.752c-7.781-7.441-16.203-14.192-16.465-26.752h-14.571v-3.604"/>
	<path id="path3024" inkscape:connector-curvature="0" fill="#FF2A2A" d="M179.318,268.594c-3.219-1.176-8.347-6.236-10.485-10.346
		c-4.616-8.872-0.292-20.246,9.528-25.06c6.86-3.363,13.473-2.112,19.883,3.762c9.511,8.716,7.208,24.932-4.315,30.401
		C189.3,269.548,183.317,270.057,179.318,268.594z"/>
	<path id="path3026" inkscape:connector-curvature="0" fill="#FF2A2A" d="M303.414,267.414
		c-16.553-11.058-11.482-35.046,8.078-38.221c11.074-1.797,22.6,8.59,22.6,20.371C334.092,266.193,316.719,276.303,303.414,267.414
		L303.414,267.414z"/>
</g>
<g id="g3963" transform="matrix(0.61664834,0,0,0.61664834,60.300452,29.184163)">
	<path id="path3957" inkscape:connector-curvature="0" fill="#D2E5F3" d="M326.559,346.082l20.741-40.033l22.67-23.635l24.116-5.788
		l25.082,4.341l21.221,12.059l6.754,11.576l-7.717,31.833l-15.434,21.223l-9.648,10.611l-26.045,7.235l-23.153-3.858l-21.706-10.612
		L326.559,346.082z"/>
	<path id="path3959" inkscape:connector-curvature="0" sodipodi:nodetypes="csccccccc" fill="#96A6B1" d="M334.366,328.223
		c0,0,28.992-36.32,58.635-33.514c25.242,2.389,55.029,12.375,55.029,12.375l-6.675-8.269l-22.187-19.776H380.58l-19.292,10.611
		l-14.472,16.882L334.366,328.223z"/>
	<path id="path3961" inkscape:connector-curvature="0" sodipodi:nodetypes="csccccccc" d="M336.289,326.299
		c0,0,25.465-37.376,55.751-39.262c25.299-1.576,55.99,17.073,55.99,17.073l-6.675-6.714l-22.187-18.359H380.58l-19.292,9.851
		l-20.241,25.929L336.289,326.299z"/>
	<g id="layer1">
		<path id="path3942" inkscape:connector-curvature="0" d="M389.444,272.697c39.409-4.526,65.112,26.233,65.112,26.233l-4.723,2.675
			c0.871,30.862-15.602,59.522-39.907,70.559c-24.305,11.038-60.65,4.776-83.239-24.94l-1.561-1.816
			C336.472,313.941,354.824,276.672,389.444,272.697z M390.2,281.346c-17.568,0.527-33.474,16.377-44.837,32.557
			c-10.598,15.09-16.584,28.962-17.42,30.914c26.796,29.013,55.545,33,77.748,22.918c22.312-10.132,38.097-34.719,37.555-63.542
			C442.297,302.765,426.793,280.231,390.2,281.346z"/>
	</g>
	
		<path id="path3160" sodipodi:cy="49.255512" sodipodi:type="arc" sodipodi:cx="45.244045" sodipodi:ry="13.273126" sodipodi:rx="11.772685" fill="#FFCC00" d="
		M418.778,330.407c0,17.981-14.079,32.557-31.445,32.557s-31.444-14.576-31.444-32.557c0-17.982,14.077-32.558,31.444-32.558
		S418.778,312.426,418.778,330.407z"/>
	
		<path id="path3164" sodipodi:cy="49.370934" sodipodi:type="arc" sodipodi:cx="45.474884" sodipodi:ry="8.0792942" sodipodi:rx="8.0792942" fill="#160200" d="
		M398.427,330.648c0,7.192-5.829,13.022-13.022,13.022s-13.024-5.83-13.024-13.022c0-7.193,5.831-13.022,13.024-13.022
		S398.427,323.455,398.427,330.648z"/>
	
		<path id="path3166" sodipodi:cy="41.407055" sodipodi:type="arc" sodipodi:cx="48.129509" sodipodi:ry="2.6546252" sodipodi:rx="2.6546252" fill="#FFFFFF" d="
		M380.58,325.584c0,3.063-2.483,5.547-5.546,5.547s-5.548-2.484-5.548-5.547c0-3.064,2.485-5.547,5.548-5.547
		S380.58,322.52,380.58,325.584z"/>
</g>
<g id="g3144" transform="matrix(-0.52985619,0,0,0.34607786,63.410759,44.917093)">
	<path id="path3146" inkscape:connector-curvature="0" fill="#D2E5F3" d="M-315.477,570.826l20.74-40.033l22.67-23.635l24.117-5.788
		l25.081,4.341l21.222,12.059l6.753,11.575l-7.718,31.834l-15.434,21.223l-9.647,10.611l-26.046,7.235l-23.152-3.859l-21.705-10.611
		L-315.477,570.826z"/>
	<path id="path3148" inkscape:connector-curvature="0" sodipodi:nodetypes="csccccccc" fill="#96A6B1" d="M-307.671,552.967
		c0,0,28.992-36.321,58.635-33.515c25.242,2.389,55.03,12.374,55.03,12.374l-6.677-8.268l-22.187-19.775h-38.587l-19.293,10.61
		l-14.47,16.883L-307.671,552.967z"/>
	<path id="path3150" inkscape:connector-curvature="0" sodipodi:nodetypes="csccccccc" d="M-305.747,551.042
		c0,0,25.465-37.375,55.751-39.261c25.298-1.576,55.991,17.073,55.991,17.073l-6.677-6.714l-22.187-18.357h-38.587l-19.293,9.849
		l-20.24,25.929L-305.747,551.042z"/>
	<g id="g3152">
		<path id="path3154" inkscape:connector-curvature="0" d="M-252.592,497.441c39.41-4.526,65.112,26.231,65.112,26.231l-4.722,2.677
			c0.872,30.862-15.603,59.522-39.907,70.559c-24.305,11.036-60.65,4.777-83.24-24.941l-1.56-1.816
			C-305.566,538.684-287.212,501.415-252.592,497.441z M-251.838,506.089c-17.566,0.526-33.472,16.376-44.835,32.555
			c-10.598,15.091-16.583,28.963-17.421,30.914c26.797,29.014,55.547,33.001,77.75,22.919c22.31-10.133,38.095-34.719,37.554-63.541
			C-199.738,527.508-215.243,504.975-251.838,506.089L-251.838,506.089z"/>
	</g>
	
		<path id="path3156" sodipodi:cy="49.255512" sodipodi:type="arc" sodipodi:cx="45.244045" sodipodi:ry="13.273126" sodipodi:rx="11.772685" fill="#FFCC00" d="
		M-223.26,555.151c0,17.98-14.077,32.558-31.444,32.558c-17.365,0-31.444-14.577-31.444-32.558
		c0-17.982,14.078-32.558,31.444-32.558C-237.337,522.593-223.26,537.169-223.26,555.151z"/>
	
		<path id="path3158" sodipodi:cy="49.370934" sodipodi:type="arc" sodipodi:cx="45.474884" sodipodi:ry="8.0792942" sodipodi:rx="8.0792942" fill="#160200" d="
		M-243.609,555.392c0,7.191-5.831,13.023-13.024,13.023c-7.192,0-13.022-5.831-13.022-13.023c0-7.193,5.831-13.024,13.022-13.024
		C-249.44,542.368-243.609,548.199-243.609,555.392z"/>
	
		<path id="path3161" sodipodi:cy="41.407055" sodipodi:type="arc" sodipodi:cx="48.129509" sodipodi:ry="2.6546252" sodipodi:rx="2.6546252" fill="#FFFFFF" d="
		M-261.456,550.327c0,3.065-2.484,5.546-5.548,5.546c-3.062,0-5.546-2.482-5.546-5.546c0-3.063,2.484-5.546,5.546-5.546
		C-263.939,544.781-261.456,547.264-261.456,550.327z"/>
</g>
<path id="path3165" inkscape:connector-curvature="0" d="M170.001,293.094c20.415,22.224,54.305,34.964,91.184,31.248
	c32.483-3.272,60.201-18.606,77.044-39.889c-21.267,11.775-46.483,19.824-73.965,22.592
	C229.664,310.531,196.927,305.076,170.001,293.094z"/>
<path id="path3155" sodipodi:arg2="2.3561945" sodipodi:r2="2.9022131" sodipodi:r1="6.2150784" sodipodi:sides="3" sodipodi:arg1="1.3089969" sodipodi:cy="60.608704" sodipodi:type="star" sodipodi:cx="25.953617" inkscape:transform-center-y="1.2554039" inkscape:transform-center-x="-0.6656948" inkscape:randomized="0" inkscape:rounded="0" inkscape:flatsided="false" fill="#FFD5D5" d="
	M205.022,327.169l-4.059-12.861l-5.027-12.515l13.167,2.915l13.352,1.903l-9.109,9.946L205.022,327.169z"/>
<path id="path3157" sodipodi:arg2="2.3561945" sodipodi:r2="2.9022131" sodipodi:r1="6.2150784" sodipodi:sides="3" sodipodi:arg1="1.3089969" sodipodi:cy="60.608704" sodipodi:type="star" sodipodi:cx="25.953617" inkscape:transform-center-y="0.97520454" inkscape:transform-center-x="0.95237531" inkscape:randomized="0" inkscape:rounded="0" inkscape:flatsided="false" fill="#FFD5D5" d="
	M282.846,303.947l9.863,9.197l9.135,9.922l3.033-13.141l4.025-12.872l-12.896,3.944L282.846,303.947z"/>
</svg>
