<?xml version="1.0" encoding="utf-8"?>
<!-- Generator: Adobe Illustrator 16.0.0, SVG Export Plug-In . SVG Version: 6.00 Build 0)  -->
<!DOCTYPE svg PUBLIC "-//W3C//DTD SVG 1.1//EN" "http://www.w3.org/Graphics/SVG/1.1/DTD/svg11.dtd">
<svg version="1.1" id="Layer_1" xmlns="http://www.w3.org/2000/svg" xmlns:xlink="http://www.w3.org/1999/xlink" x="0px" y="0px"
	 width="512px" height="512px" viewBox="0 0 512 512" enable-background="new 0 0 512 512" xml:space="preserve">
<g id="Layer_1_1_">
	<g id="Layer_2" display="none">
	</g>
	<g id="shadows">
		<g opacity="0.9">
			<g>
				<path fill="#B7B7B7" d="M466.5,381.5c0,48.6-39.4,88-88,88h-246c-48.604,0-88-39.4-88-88V164.833c0-48.601,39.396-88,88-88h246
					c48.6,0,88,39.399,88,88V381.5z"/>
			</g>
		</g>
		<g>
			<g>
				<path fill="#FFFFFF" d="M466.5,360.5c0,48.6-39.4,88-88,88h-246c-48.604,0-88-39.4-88-88V143.833c0-48.601,39.396-88,88-88h246
					c48.6,0,88,39.399,88,88V360.5z"/>
			</g>
		</g>
	</g>
	<path fill="#22255F" d="M465.5,362.667c0,48.6-39.399,88-88,88h-246c-48.604,0-88-39.4-88-88V146c0-48.601,39.396-88,88-88h246
		c48.601,0,88,39.399,88,88V362.667z"/>
</g>
<g id="g47" transform="matrix(1.6767547,0,0,1.6767547,-16.240314,-16.245834)">
	<g id="g49">
		<g id="g51">
			
				<linearGradient id="path53_1_" gradientUnits="userSpaceOnUse" x1="-4.2173" y1="398.5987" x2="10.1284" y2="398.5987" gradientTransform="matrix(0 -20.7946 -20.7946 0 8451.04 161.3343)">
				<stop  offset="0" style="stop-color:#32A2F8"/>
				<stop  offset="1" style="stop-color:#45A9F9"/>
			</linearGradient>
			<path id="path53" inkscape:connector-curvature="0" fill="url(#path53_1_)" d="M176.533,71.124l-30.912,2.201v123.123
				l30.912-3.765v-53.747c13.404,20.228,24.17,39.048,42.116,58.609l32.008-9.203c-17.137-19.859-29.934-37.343-41.618-56.408
				c12.159-17.916,27.377-35.921,42.256-52.015l-33.172-8.136c-15.486,17.45-29.26,35.484-41.589,53.6 M106.114,96.383
				c-0.437,0.06-0.956,0.319-1.364,0.727c-3.645,3.445-7.091,6.89-10.706,10.336c-1.593,1.534,0.03,3.356,0.726,4.631l7.35,10.159
				l5.498,7.41c0.778,1.074,1.015,1.185,0.608,1.941c-0.49,0.778-0.897,1.414-1.364,2.201c-7.151,12.01-2.142,12.937-17.45,16.842
				l-11.722,1.941c-1.734,0.577-3.993,0.518-4.112,2.926c0,4.861-0.148,9.699-0.148,14.53c-0.089,2.231,2.4,2.431,3.875,2.808
				l12.477,2.171l9.351,1.704c1.274,0.17,1.563-0.119,1.852,0.837c3.823,16.123,8.825,12.418,0.489,26.511l-6.713,9.351
				c-0.897,1.622-2.549,3.215-0.867,4.86c3.534,3.504,6.92,7.032,10.477,10.536c1.564,1.534,3.586-0.029,4.861-0.726l10.336-7.18
				l7.728-5.209c1.074-0.866,1.215-1.074,2-0.607c15.486,9.461,16.034,2.63,20.546,18.553l2.23,11.404
				c0.578,1.705,0.638,3.905,3.008,3.993h15.048c2.26,0,2.46-2.578,2.749-3.993l2.112-12.13l1.503-8.973
				c0.089-0.865,0.06-1.303,0.23-1.592c18.146-3.734,13.634-9.003,28.393-0.607l9.58,6.543c1.764,0.866,3.446,2.37,5.121,0.755
				c3.557-3.355,7.091-6.741,10.654-10.069c1.593-1.623,0.03-3.474-0.725-4.72h-0.15l-6.971-9.581l-4.602,1.564
				c-1.185,0.779-2.748,0.489-4.141-1.334l-10.069-12.967c-9.411,12.677-24.629,20.866-41.879,20.866
				c-28.393,0-51.577-22.548-51.577-50.214c0-19.65,11.692-36.67,28.652-44.902v-11.551c-0.578,0.289-1.245,0.437-1.734,0.607
				c-6.631,2.69-7.061,3.905-17.917-2.171l-9.58-6.654c-1.334-0.578-2.519-1.682-3.734-1.393 M138.952,122.331
				c-14.411,7.928-24.2,23.126-24.2,40.404c0,25.496,21.362,46.339,47.643,46.339c16.234,0,30.474-8.018,39.069-20.206l-0.466-0.985
				c-10.07,10.885-21.451,17.946-38.752,18.324c-21.561,0.378-43.382-18.324-43.501-42.952c-0.17-15.893,7.35-26.57,20.176-34.18
				v-6.683"/>
		</g>
	</g>
</g>
</svg>
