<?xml version="1.0" encoding="utf-8"?>
<!-- Generator: Adobe Illustrator 16.0.0, SVG Export Plug-In . SVG Version: 6.00 Build 0)  -->
<!DOCTYPE svg PUBLIC "-//W3C//DTD SVG 1.1//EN" "http://www.w3.org/Graphics/SVG/1.1/DTD/svg11.dtd">
<svg version="1.1" id="Layer_1" xmlns="http://www.w3.org/2000/svg" xmlns:xlink="http://www.w3.org/1999/xlink" x="0px" y="0px"
	 width="512px" height="512px" viewBox="0 0 512 512" enable-background="new 0 0 512 512" xml:space="preserve">
<g id="Layer_1_1_">
	<g id="Layer_2" display="none">
	</g>
	<g id="shadows">
		<g opacity="0.9">
			<g>
				<path fill="#B7B7B7" d="M466.5,381.5c0,48.6-39.4,88-88,88h-246c-48.604,0-88-39.4-88-88V164.833c0-48.601,39.396-88,88-88h246
					c48.6,0,88,39.399,88,88V381.5z"/>
			</g>
		</g>
		<g>
			<g>
				<path fill="#FFFFFF" d="M466.5,360.5c0,48.6-39.4,88-88,88h-246c-48.604,0-88-39.4-88-88V143.833c0-48.601,39.396-88,88-88h246
					c48.6,0,88,39.399,88,88V360.5z"/>
			</g>
		</g>
	</g>
	<path fill="#ED1667" d="M465.5,362.667c0,48.6-39.399,88-88,88h-246c-48.604,0-88-39.4-88-88V146c0-48.601,39.396-88,88-88h246
		c48.601,0,88,39.399,88,88V362.667z"/>
</g>
<g id="layer1" transform="translate(0,-924.3622)" inkscape:label="Capa 1" inkscape:groupmode="layer">
	<path id="path1489" inkscape:connector-curvature="0" fill="#0080DC" d="M255.5,1016.074c-90.735,0-164.29,73.555-164.29,164.289
		c0,90.731,73.555,164.289,164.29,164.289c90.735,0,164.29-73.558,164.29-164.289C419.79,1089.629,346.236,1016.074,255.5,1016.074
		L255.5,1016.074z M255.5,1162.712c9.722,0,17.649,7.928,17.649,17.651c0,9.72-7.928,17.648-17.649,17.648
		s-17.648-7.928-17.648-17.648C237.852,1170.64,245.779,1162.712,255.5,1162.712z"/>
	<path id="path1491" inkscape:connector-curvature="0" fill="#30A9FF" d="M255.5,1021.208c-87.899,0-159.156,71.253-159.156,159.155
		c0,87.899,71.256,159.153,159.156,159.153c87.9,0,159.155-71.254,159.155-159.153
		C414.656,1092.461,343.401,1021.208,255.5,1021.208L255.5,1021.208z M255.5,1162.712c9.722,0,17.649,7.928,17.649,17.651
		c0,9.72-7.928,17.648-17.649,17.648s-17.648-7.928-17.648-17.648C237.852,1170.64,245.779,1162.712,255.5,1162.712z"/>
	<path id="path1493" inkscape:connector-curvature="0" fill="#6BC1FF" d="M255.5,1029.228c-83.443,0-151.133,67.692-151.133,151.135
		c0,83.44,67.69,151.136,151.133,151.136c83.444,0,151.132-67.696,151.132-151.136C406.632,1096.92,338.945,1029.228,255.5,1029.228
		z M255.5,1162.712c9.722,0,17.649,7.928,17.649,17.651c0,9.72-7.928,17.648-17.649,17.648s-17.648-7.928-17.648-17.648
		C237.852,1170.64,245.779,1162.712,255.5,1162.712z"/>
	<path id="path1495" inkscape:connector-curvature="0" fill="#D3D5D7" stroke="#FFFFFF" d="M255.5,1131.909
		c-26.735,0-48.453,21.719-48.453,48.454c0,26.732,21.718,48.451,48.453,48.451c26.733,0,48.452-21.719,48.452-48.451
		C303.952,1153.628,282.234,1131.909,255.5,1131.909z M255.5,1162.712c9.722,0,17.649,7.928,17.649,17.651
		c0,9.72-7.928,17.648-17.649,17.648s-17.648-7.928-17.648-17.648C237.852,1170.64,245.779,1162.712,255.5,1162.712z"/>
	<path id="path1497" inkscape:connector-curvature="0" fill="#E0E0E2" d="M255.5,1142.18c-21.063,0-38.184,17.118-38.184,38.183
		c0,21.063,17.121,38.18,38.184,38.18c21.064,0,38.184-17.117,38.184-38.18C293.684,1159.296,276.565,1142.18,255.5,1142.18z
		 M255.5,1162.712c9.722,0,17.649,7.928,17.649,17.651c0,9.72-7.928,17.648-17.649,17.648s-17.648-7.928-17.648-17.648
		C237.852,1170.64,245.779,1162.712,255.5,1162.712z"/>
</g>
</svg>
