<?xml version="1.0" encoding="utf-8"?>
<!-- Generator: Adobe Illustrator 16.0.0, SVG Export Plug-In . SVG Version: 6.00 Build 0)  -->
<!DOCTYPE svg PUBLIC "-//W3C//DTD SVG 1.1//EN" "http://www.w3.org/Graphics/SVG/1.1/DTD/svg11.dtd">
<svg version="1.1" id="Layer_1" xmlns="http://www.w3.org/2000/svg" xmlns:xlink="http://www.w3.org/1999/xlink" x="0px" y="0px"
	 width="512px" height="512px" viewBox="0 0 512 512" enable-background="new 0 0 512 512" xml:space="preserve">
<g id="Layer_1_1_">
	<g id="Layer_2" display="none">
	</g>
	<g id="shadows">
		<g opacity="0.9">
			<g>
				<path fill="#B7B7B7" d="M466.5,381.5c0,48.6-39.4,88-88,88h-246c-48.604,0-88-39.4-88-88V164.833c0-48.601,39.396-88,88-88h246
					c48.6,0,88,39.399,88,88V381.5z"/>
			</g>
		</g>
		<g>
			<g>
				<path fill="#FFFFFF" d="M466.5,360.5c0,48.6-39.4,88-88,88h-246c-48.604,0-88-39.4-88-88V143.833c0-48.601,39.396-88,88-88h246
					c48.6,0,88,39.399,88,88V360.5z"/>
			</g>
		</g>
	</g>
	<linearGradient id="SVGID_1_" gradientUnits="userSpaceOnUse" x1="43.5002" y1="254.3335" x2="465.5002" y2="254.3335">
		<stop  offset="0" style="stop-color:#2BC4F3"/>
		<stop  offset="0.5" style="stop-color:#00AEEE"/>
		<stop  offset="1" style="stop-color:#0095DA"/>
	</linearGradient>
	<path fill="url(#SVGID_1_)" d="M465.5,362.667c0,48.6-39.399,88-88,88h-246c-48.604,0-88-39.4-88-88V146c0-48.601,39.396-88,88-88
		h246c48.601,0,88,39.399,88,88V362.667z"/>
</g>
<path id="path57" inkscape:connector-curvature="0" fill="#FF9409" d="M259.137,193.402l-44.123,88.246h88.246 M259.137,223.648
	l22.017,44.123h-44.122l22.061-44.123"/>
<path id="path59" inkscape:connector-curvature="0" fill="#CCCCCC" d="M176.313,120.11v26.286l-22.018-0.475v25.978l22.018,0.563
	v154.431l-22.018-0.387v25.944l22.018,0.475v16.722h-11.031l16.546,23.44l16.546-23.44h-11.03v-16.722l77.215-0.475
	c61.099-0.386,110.307-46.021,110.307-103.236c0-57.228-49.208-103.281-110.307-103.281l-77.215,0.475v-26.286 M187.344,172.473
	l77.215-0.563c46.229-0.386,82.598,34.041,82.598,77.325c0,43.307-36.368,77.325-82.598,77.325l-77.215,0.387"/>
</svg>
