<?xml version="1.0" encoding="utf-8"?>
<!-- Generator: Adobe Illustrator 16.0.0, SVG Export Plug-In . SVG Version: 6.00 Build 0)  -->
<!DOCTYPE svg PUBLIC "-//W3C//DTD SVG 1.1//EN" "http://www.w3.org/Graphics/SVG/1.1/DTD/svg11.dtd">
<svg version="1.1" id="Layer_1" xmlns="http://www.w3.org/2000/svg" xmlns:xlink="http://www.w3.org/1999/xlink" x="0px" y="0px"
	 width="512px" height="512px" viewBox="0 0 512 512" enable-background="new 0 0 512 512" xml:space="preserve">
<g id="Layer_1_1_">
	<g id="Layer_2" display="none">
	</g>
	<g id="shadows">
		<g opacity="0.9">
			<g>
				<path fill="#B7B7B7" d="M466.5,381.5c0,48.6-39.4,88-88,88h-246c-48.604,0-88-39.4-88-88V164.833c0-48.601,39.396-88,88-88h246
					c48.6,0,88,39.399,88,88V381.5z"/>
			</g>
		</g>
		<g>
			<g>
				<path fill="#FFFFFF" d="M466.5,360.5c0,48.6-39.4,88-88,88h-246c-48.604,0-88-39.4-88-88V143.833c0-48.601,39.396-88,88-88h246
					c48.6,0,88,39.399,88,88V360.5z"/>
			</g>
		</g>
	</g>
	<path fill="#2F419A" d="M465.5,362.667c0,48.6-39.399,88-88,88h-246c-48.604,0-88-39.4-88-88V146c0-48.601,39.396-88,88-88h246
		c48.601,0,88,39.399,88,88V362.667z"/>
</g>
<path id="path3302" inkscape:connector-curvature="0" fill="#F9F9F9" d="M322.332,128.271c-0.715,0.413-0.791,0.708-0.599,0.398
	c-6.938,11.687-7.078,27.144-10.177,40.905c0,0.067,0,0.134,0,0.199c-0.042,0.203,0.052,0.399,0,0.599
	c-1.506,14.775-6.493,29.884-2.99,44.1c0.166,0.316,0.299,0.651,0.395,0.997c0.032,0.103-0.025,0.296,0,0.398
	c0.045,0.082-0.047,0.124,0,0.201c0.058,0.089,0.339-0.083,0.403,0c0.746,1.028,1.618,1.877,2.192,1.995
	c0.415,0.084,1.167-0.003,2.595-0.999c1.542-1.075,2.34-3.15,2.793-5.985c0.159-0.354,0.363-0.688,0.599-0.998
	c-0.006-0.133-0.006-0.266,0-0.398c0.096-0.345,0.23-0.68,0.399-0.998c0.067-0.067,0.13-0.135,0.2-0.201
	c6.111-24.385,10.409-49.977,8.779-75.026c-0.211-1.245-0.439-2.193-1.597-3.591c-0.768-0.927-1.399-1.46-1.597-1.597
	c-0.198-0.137-0.089-0.042-0.798,0c-0.066,0.001-0.134,0.001-0.201,0C322.469,128.298,322.49,128.265,322.332,128.271
	L322.332,128.271z M378.604,140.243c-10.589,5.146-16.047,17.503-23.348,27.538c-0.031,0.338-0.096,0.672-0.197,0.998
	c-0.12,0.209-0.255,0.41-0.401,0.598c-9.251,16.398-21.06,32.729-22.348,51.68c-0.006,0.107,0.007,0.292,0,0.401
	c0.14,2.858,1.858,4.412,3.59,4.788c1.703,0.367,4.77-0.647,5.986-2.595c0.128-0.14,0.262-0.272,0.402-0.398
	c-0.003-0.067-0.003-0.132,0-0.199c-0.007-0.133-0.007-0.266,0-0.398c16.813-23.109,29.463-50.395,39.906-77.024
	c0-0.065,0-0.132,0-0.199c0.72-1.749,0.842-2.276,0.197-3.591c-0.185-0.389-2.168-1.725-3.19-1.598
	C379.035,140.32,378.765,140.164,378.604,140.243L378.604,140.243z M216.377,147.627c-0.861-0.016-1.73,0.041-2.594,0.199
	c-1.708,0.319-4.17,1.889-5.986,2.595c-6.419,2.434-10.041,7.938-11.573,14.366c-1.561,6.577-1.04,13.863,0,21.352
	c1.04,7.473,2.569,15.265,4.19,21.149c1.395,5.093,2.512,7.488,2.993,9.18v1.396c0,0.556-0.425,0.551-0.799,0.998
	c-0.203,0.112,0.207,0.599,0,0.599c-0.462,0.353-1.02,0.599-1.595,0.599c-1.134,0.072-2.021-0.302-3.192-0.599
	c-0.799-0.185-1.84-0.786-1.597-0.599c-0.371-0.223-0.955-0.408-1.197-0.799c-0.007-0.062,0.057-0.083,0-0.199
	c-0.261-0.482-0.588-1.74-0.998-2.594c-0.911-1.936-1.544-4.137-2.792-6.984c-2.491-5.667-5.817-12.628-9.379-19.154
	c-3.575-6.555-7.707-12.462-12.371-16.563c-2.331-2.049-5.208-4.103-7.982-4.789c-2.676-0.669-5.813-0.183-8.58,1.197
	c-7.151,3.968-11.199,10.383-12.771,17.161c-1.578,6.878-0.952,14.842,0.199,21.75c1.172,6.89,3.022,12.694,4.19,17.358
	c0.503,1.968,1.231,3.804,1.398,4.789c0,0.976-0.559,3.443-0.799,4.39c-1.208,4.183-3.985,11.176-3.991,11.176
	c0,0-55.708,148.041,63.852,137.68c0.985-0.07,3.063-0.797,3.992-0.797c23.481-4.727,45.697-11.789,65.449-19.756
	c3.879-1.858,9.051-3.708,14.767-6.386c11.431-5.354,25.709-12.177,39.508-19.752c13.803-7.584,26.73-15.741,36.518-24.343
	c9.801-8.617,16.876-17.938,15.563-27.339c-2.082-15.155-12.146-26.419-25.542-35.119c-13.446-8.734-30.173-14.759-46.893-19.156
	c-16.712-4.394-32.896-8.048-45.294-9.976c-6.198-0.965-12.122-1.127-15.764-1.796c-1.077-0.185-1.612-0.613-2.194-0.799
	c-0.315-0.04-0.302-0.015-0.6-0.199c-0.369-0.224-0.972-0.209-1.197-0.597c-0.203-0.373,0-0.971,0-1.399
	c0-0.165-0.001-0.375,0-0.597v-9.18c-0.203-7.64-0.812-17.731-2.395-27.137c-1.597-9.445-3.981-18.638-9.178-24.742
	c-3.088-3.631-7.461-6.014-12.77-6.386C218.173,147.733,217.24,147.643,216.377,147.627L216.377,147.627z"/>
</svg>
