<?xml version="1.0" encoding="utf-8"?>
<!-- Generator: Adobe Illustrator 16.0.0, SVG Export Plug-In . SVG Version: 6.00 Build 0)  -->
<!DOCTYPE svg PUBLIC "-//W3C//DTD SVG 1.1//EN" "http://www.w3.org/Graphics/SVG/1.1/DTD/svg11.dtd">
<svg version="1.1" id="Layer_1" xmlns="http://www.w3.org/2000/svg" xmlns:xlink="http://www.w3.org/1999/xlink" x="0px" y="0px"
	 width="512px" height="512px" viewBox="0 0 512 512" enable-background="new 0 0 512 512" xml:space="preserve">
<g id="Layer_1_1_">
	<g id="Layer_2" display="none">
	</g>
	<g id="shadows">
		<g opacity="0.9">
			<g>
				<path fill="#B7B7B7" d="M466.5,381.5c0,48.6-39.4,88-88,88h-246c-48.604,0-88-39.4-88-88V164.833c0-48.601,39.396-88,88-88h246
					c48.6,0,88,39.399,88,88V381.5z"/>
			</g>
		</g>
		<g>
			<g>
				<path fill="#FFFFFF" d="M466.5,360.5c0,48.6-39.4,88-88,88h-246c-48.604,0-88-39.4-88-88V143.833c0-48.601,39.396-88,88-88h246
					c48.6,0,88,39.399,88,88V360.5z"/>
			</g>
		</g>
	</g>
	<path fill="#0C8843" d="M465.5,362.667c0,48.6-39.399,88-88,88h-246c-48.604,0-88-39.4-88-88V146c0-48.601,39.396-88,88-88h246
		c48.601,0,88,39.399,88,88V362.667z"/>
</g>
<path id="rect2985" inkscape:connector-curvature="0" fill="#FFFFDA" d="M121.299,111.442v35.336v45.177v69.881h80.513v-69.881
	h92.297v-80.513H121.299z M307.191,112.738v279.505h80.512V112.738H307.191z M214.245,201.818v191.074h80.513V201.818H214.245z
	 M121.299,275.078v117.813h80.513V275.078H121.299z"/>
</svg>
