<?xml version="1.0" encoding="utf-8"?>
<!-- Generator: Adobe Illustrator 16.0.0, SVG Export Plug-In . SVG Version: 6.00 Build 0)  -->
<!DOCTYPE svg PUBLIC "-//W3C//DTD SVG 1.1//EN" "http://www.w3.org/Graphics/SVG/1.1/DTD/svg11.dtd">
<svg version="1.1" id="Layer_1" xmlns="http://www.w3.org/2000/svg" xmlns:xlink="http://www.w3.org/1999/xlink" x="0px" y="0px"
	 width="512px" height="512px" viewBox="0 0 512 512" enable-background="new 0 0 512 512" xml:space="preserve">
<g id="Layer_1_1_">
	<g id="Layer_2" display="none">
	</g>
	<g id="shadows">
		<g opacity="0.9">
			<g>
				<path fill="#B7B7B7" d="M466.5,381.5c0,48.6-39.4,88-88,88h-246c-48.602,0-88-39.4-88-88V164.833c0-48.601,39.398-88,88-88h246
					c48.6,0,88,39.399,88,88V381.5z"/>
			</g>
		</g>
		<g>
			<g>
				<path fill="#FFFFFF" d="M466.5,360.5c0,48.6-39.4,88-88,88h-246c-48.602,0-88-39.4-88-88V143.833c0-48.601,39.398-88,88-88h246
					c48.6,0,88,39.399,88,88V360.5z"/>
			</g>
		</g>
	</g>
	<path fill="#FFFFFF" stroke="#E2E2E2" stroke-width="10" stroke-miterlimit="10" d="M465.5,362.667c0,48.6-39.399,88-88,88h-246
		c-48.602,0-88-39.4-88-88V146c0-48.601,39.398-88,88-88h246c48.601,0,88,39.399,88,88V362.667z"/>
</g>
<g>
	<g>
		<path d="M430.522,245.66c-0.027-0.688-0.054-1.378-0.089-2.06c-0.061-1.337-0.143-2.667-0.238-3.991c0-0.041,0-0.082-0.007-0.122
			c-2.981-41.716-20.595-80.561-50.365-110.501c-26.489-26.653-60.081-43.715-96.563-49.411c-1.311-0.205-2.627-0.396-3.943-0.573
			c-0.014,0-0.021,0-0.027-0.007c-0.586-0.075-1.173-0.15-1.767-0.226c-0.743-0.088-1.487-0.177-2.231-0.259
			c-1.418-0.164-2.838-0.3-4.263-0.416c-0.71-0.062-1.426-0.116-2.142-0.17c-0.717-0.048-1.434-0.103-2.15-0.143
			c-1.738-0.116-3.484-0.191-5.231-0.246h-11.188c-0.027-0.007-0.062-0.007-0.089,0c-0.314,0.007-0.627,0.021-0.941,0.034
			c-0.123,0.007-0.238,0.007-0.354,0.014c-0.267,0.007-0.54,0.02-0.806,0.034c-0.074,0-0.156,0.007-0.231,0.014
			c-0.512,0.027-1.023,0.047-1.535,0.075c-1.515,0.075-3.022,0.178-4.53,0.3c-0.662,0.055-1.316,0.109-1.965,0.17
			c-0.129,0.014-0.252,0.027-0.381,0.041c-0.873,0.082-1.753,0.17-2.626,0.266c-0.13,0.014-0.266,0.027-0.403,0.048
			c-0.198,0.013-0.396,0.041-0.593,0.061c-0.341,0.034-0.696,0.075-1.044,0.123c-0.327,0.034-0.648,0.075-0.968,0.116
			c-0.035,0.007-0.069,0.007-0.109,0.014c-0.068,0.007-0.13,0.021-0.198,0.027c-0.532,0.068-1.064,0.137-1.596,0.211
			c-1.188,0.164-2.395,0.341-3.595,0.532c-0.621,0.103-1.242,0.205-1.856,0.307c-0.621,0.103-1.235,0.212-1.841,0.321
			c-0.15,0.027-0.293,0.055-0.437,0.082c-0.498,0.089-0.989,0.184-1.487,0.287c-0.491,0.089-0.975,0.184-1.466,0.286
			c-0.491,0.103-0.983,0.198-1.474,0.307c-0.423,0.082-0.839,0.17-1.262,0.266c-1.037,0.218-2.067,0.45-3.091,0.703
			c-0.334,0.082-0.662,0.157-0.989,0.239l-0.226,0.055c-0.477,0.116-0.955,0.239-1.405,0.348c-0.225,0.055-0.443,0.123-0.662,0.177
			c-0.709,0.185-1.419,0.369-2.129,0.56c-0.205,0.055-0.409,0.116-0.614,0.17c-0.532,0.144-1.058,0.293-1.589,0.444
			c-21.134,6.017-40.945,15.997-58.518,29.613c-0.791,0.607-1.576,1.229-2.353,1.85c-0.621,0.497-1.242,1.002-1.855,1.507
			c-0.594,0.484-1.173,0.97-1.76,1.46c-0.634,0.532-1.269,1.078-1.896,1.624c-0.055,0.041-0.102,0.089-0.157,0.144
			c-0.771,0.668-1.534,1.351-2.299,2.039c-0.784,0.71-1.569,1.433-2.346,2.156c-0.007,0.007-0.014,0.014-0.021,0.021
			c-0.627,0.586-1.256,1.18-1.876,1.787c-0.266,0.245-0.519,0.498-0.778,0.75c-0.525,0.505-1.037,1.017-1.556,1.535
			c-0.123,0.123-0.245,0.246-0.368,0.375c-0.655,0.648-1.296,1.31-1.931,1.972c-0.157,0.157-0.307,0.313-0.457,0.478
			c-0.6,0.628-1.194,1.255-1.78,1.89c-0.109,0.116-0.218,0.232-0.321,0.348c-0.709,0.765-1.405,1.535-2.094,2.306
			c-0.532,0.601-1.057,1.201-1.583,1.809c-0.396,0.457-0.784,0.907-1.173,1.371c-0.389,0.457-0.778,0.914-1.16,1.378
			c-21.632,25.957-35.092,57.262-39.042,90.71c-0.021,0.13-0.034,0.253-0.041,0.382c-0.123,1.017-0.231,2.033-0.334,3.057
			c-0.048,0.491-0.096,0.982-0.144,1.48c-0.191,2.087-0.341,4.182-0.45,6.283c-0.027,0.43-0.048,0.853-0.068,1.282
			c-0.041,0.812-0.075,1.63-0.096,2.448c-0.006,0.021-0.006,0.049,0,0.068v11.925c0.028,0.778,0.055,1.549,0.096,2.319
			c0.027,0.56,0.055,1.119,0.089,1.679c0.027,0.559,0.062,1.118,0.103,1.678c0.034,0.56,0.075,1.119,0.116,1.679
			c0.021,0.252,0.034,0.504,0.062,0.757c0.021,0.211,0.034,0.423,0.054,0.627c0.014,0.219,0.035,0.444,0.055,0.662
			c0.041,0.43,0.075,0.859,0.116,1.289c0.027,0.308,0.054,0.607,0.089,0.915c0.068,0.777,0.157,1.548,0.245,2.319
			c0.021,0.184,0.042,0.361,0.068,0.545c0.062,0.54,0.13,1.071,0.198,1.61l0.013,0.116c0.007,0.054,0.014,0.116,0.021,0.171
			c0.082,0.661,0.171,1.316,0.266,1.978c0.198,1.433,0.41,2.865,0.649,4.284c0.225,1.364,0.47,2.722,0.729,4.073
			c0.068,0.375,0.137,0.743,0.205,1.111c0.218,1.078,0.437,2.156,0.668,3.227c0.185,0.825,0.369,1.651,0.56,2.477
			c0.02,0.089,0.041,0.185,0.061,0.273l0.102,0.45c0.041,0.17,0.089,0.348,0.13,0.518c4.366,18.351,11.686,35.809,21.728,51.792
			c0.334,0.538,0.675,1.077,1.023,1.609c0.45,0.703,0.907,1.412,1.371,2.108c0.703,1.058,1.412,2.114,2.135,3.158
			c0.068,0.096,0.13,0.191,0.198,0.287l0.137,0.197c0.286,0.402,0.559,0.798,0.846,1.193c0.232,0.342,0.477,0.683,0.723,1.017
			c0.545,0.751,1.105,1.521,1.719,2.333c0.021,0.034,0.042,0.062,0.068,0.096l0.027,0.034c0.402,0.532,0.798,1.071,1.208,1.597
			c0.464,0.601,0.927,1.2,1.398,1.801c0.034,0.048,0.075,0.096,0.116,0.143c0.28,0.362,0.566,0.717,0.859,1.078
			c0.307,0.396,0.621,0.784,0.941,1.174c0.314,0.396,0.634,0.784,0.969,1.173c0.32,0.389,0.648,0.778,0.975,1.167
			c0.396,0.471,0.785,0.921,1.16,1.357c1.999,2.319,4.073,4.591,6.208,6.815c0.225,0.238,0.457,0.478,0.682,0.709
			c0.505,0.525,1.017,1.044,1.528,1.556c0.573,0.572,1.146,1.146,1.726,1.712c0.443,0.437,0.894,0.873,1.343,1.303
			c0.191,0.185,0.389,0.375,0.587,0.56c0.382,0.369,0.764,0.73,1.153,1.092l0.293,0.266c1.821,1.698,3.677,3.35,5.566,4.953
			c0.164,0.137,0.321,0.272,0.478,0.402c0.579,0.491,1.173,0.989,1.76,1.467c0.321,0.259,0.634,0.518,0.955,0.771
			c0.73,0.601,1.467,1.187,2.21,1.773c0.287,0.226,0.56,0.437,0.826,0.648c0.239,0.185,0.478,0.361,0.703,0.539
			c0.164,0.123,0.321,0.246,0.478,0.368c0.893,0.683,1.794,1.357,2.694,2.02l0.13,0.096c0.068,0.048,0.129,0.095,0.198,0.144
			c2.395,1.752,4.823,3.451,7.292,5.074v0.063l1.644,1.003c0.048,0.026,0.096,0.061,0.15,0.095c1.739,1.112,3.5,2.189,5.28,3.234
			c0.082,0.054,0.171,0.102,0.259,0.149c12.907,7.586,26.728,13.412,41.149,17.402c0.047,0.014,0.096,0.027,0.143,0.041
			c0.075,0.021,0.144,0.041,0.218,0.062c0.396,0.116,0.785,0.225,1.181,0.327c0.627,0.171,1.262,0.341,1.896,0.498
			c0.505,0.13,1.009,0.259,1.521,0.376c0.191,0.054,0.389,0.095,0.58,0.143c1.064,0.266,2.136,0.512,3.213,0.75
			c0.021,0.007,0.041,0.007,0.061,0.014c0.014,0,0.028,0.007,0.042,0.007c0.607,0.137,1.214,0.273,1.821,0.396
			c0.082,0.02,0.157,0.04,0.239,0.055c0.702,0.149,1.405,0.293,2.115,0.43c0.218,0.047,0.437,0.089,0.662,0.129
			c0.218,0.048,0.437,0.089,0.662,0.13c0.293,0.055,0.586,0.109,0.88,0.164c0.103,0.021,0.211,0.04,0.321,0.054
			c0.478,0.096,0.968,0.185,1.453,0.267l0.573,0.096c0.477,0.081,0.948,0.163,1.432,0.231c0.13,0.027,0.259,0.048,0.396,0.068
			l0.157,0.027c0.048,0.007,0.096,0.014,0.15,0.021c0.601,0.096,1.201,0.185,1.801,0.273c0.042,0.007,0.089,0.014,0.13,0.02
			c0.627,0.096,1.255,0.185,1.93,0.267l0.116,0.021c0.123,0.014,0.253,0.027,0.375,0.048c0.321,0.04,0.641,0.089,0.962,0.129
			c0.839,0.109,1.678,0.205,2.524,0.294c0.621,0.075,1.242,0.144,1.869,0.197c0.314,0.034,0.634,0.068,0.955,0.096
			c0.627,0.062,1.255,0.116,1.883,0.164c0.32,0.034,0.641,0.055,0.961,0.082c0.354,0.027,0.703,0.055,1.058,0.075
			c0.177,0.013,0.348,0.026,0.512,0.033c0.6,0.041,1.193,0.082,1.794,0.116c1.092,0.068,2.183,0.123,3.274,0.164
			c0.368,0.021,0.736,0.034,1.105,0.041c0.006,0,0.02,0.006,0.027,0h12.061c44.389-1.508,85.894-19.511,117.452-51.068
			c33.003-33.003,51.177-76.881,51.177-123.556C430.637,249.999,430.597,247.823,430.522,245.66z M255.95,139.465h0.048
			c16.692,0.027,30.262,13.609,30.262,30.31c0,16.699-13.569,30.281-30.262,30.309h-0.048c-16.713,0-30.309-13.596-30.309-30.309
			C225.641,153.061,239.237,139.465,255.95,139.465z M255.998,406.445h-0.552c-0.172-0.008-0.335-0.015-0.506-0.015l-2.02-0.061
			l-0.307-0.014c-37.39-1.925-67.795-35.276-67.795-74.386c0-17.232,6.228-33.837,17.532-46.792l0.252-0.279
			c13.508-15.328,32.97-24.122,53.395-24.129h2.934c24.715,0,47.889-9.687,65.251-27.287l0.015-0.014l1.139-1.152l0.164-0.328
			c14.23-16.583,22.048-37.697,22.048-59.608c0-20.521-6.638-39.806-17.806-55.564c37.548,20.602,65.682,56.383,76.078,98.938
			c0.334,1.371,0.648,2.756,0.948,4.141c0.15,0.703,0.294,1.412,0.437,2.122c0.443,2.23,0.84,4.475,1.188,6.732
			c0.006,0.075,0.02,0.15,0.033,0.226c0.076,0.519,0.15,1.037,0.226,1.555c0.014,0.123,0.034,0.239,0.055,0.362
			c0.082,0.594,0.163,1.187,0.231,1.78c0.082,0.635,0.157,1.275,0.232,1.917c0.074,0.621,0.143,1.241,0.204,1.869
			c0,0.027,0.007,0.055,0.007,0.082c0.068,0.634,0.123,1.275,0.185,1.91c0.055,0.647,0.108,1.296,0.157,1.944
			c0.055,0.647,0.096,1.296,0.137,1.95c0.033,0.498,0.061,0.996,0.088,1.501c0.014,0.246,0.027,0.498,0.041,0.744
			c0.048,0.962,0.082,1.923,0.109,2.893c0.014,0.3,0.02,0.593,0.027,0.894c0.034,1.262,0.047,2.531,0.047,3.8
			C410.171,337.203,341.021,406.39,255.998,406.445z"/>
	</g>
</g>
<g>
	<g>
		<path d="M255.999,304.014h-0.047c-16.714,0-30.31,13.596-30.31,30.31c0,16.713,13.596,30.31,30.31,30.31h0.047
			c16.693-0.027,30.262-13.61,30.262-30.31C286.261,317.623,272.693,304.041,255.999,304.014z"/>
	</g>
</g>
<g>
	<g>
		<path d="M257.016,77.651h-0.184l0.266,0.007l0.368,0.007c0.587,0.007,1.071,0.021,1.494,0.041l0.784,0.041
			c0.021,0,0.042,0,0.062,0.007l7.068,0.239C263.613,77.787,260.324,77.671,257.016,77.651z"/>
	</g>
</g>
<g>
	<g>
		<path d="M257.016,77.651h-0.184l0.266,0.007l0.368,0.007c0.587,0.007,1.071,0.021,1.494,0.041l0.784,0.041
			c0.021,0,0.042,0,0.062,0.007l7.068,0.239C263.613,77.787,260.324,77.671,257.016,77.651z"/>
	</g>
</g>
</svg>
