<?xml version="1.0" encoding="utf-8"?>
<!-- Generator: Adobe Illustrator 16.0.0, SVG Export Plug-In . SVG Version: 6.00 Build 0)  -->
<!DOCTYPE svg PUBLIC "-//W3C//DTD SVG 1.1//EN" "http://www.w3.org/Graphics/SVG/1.1/DTD/svg11.dtd">
<svg version="1.1" id="Layer_1" xmlns="http://www.w3.org/2000/svg" xmlns:xlink="http://www.w3.org/1999/xlink" x="0px" y="0px"
	 width="512px" height="512px" viewBox="0 0 512 512" enable-background="new 0 0 512 512" xml:space="preserve">
<g id="Layer_1_1_">
	<g id="Layer_2" display="none">
	</g>
	<g id="shadows">
		<g opacity="0.9">
			<g>
				<path fill="#B7B7B7" d="M466.5,381.5c0,48.6-39.4,88-88,88h-246c-48.602,0-88-39.4-88-88V164.833c0-48.601,39.398-88,88-88h246
					c48.6,0,88,39.399,88,88V381.5z"/>
			</g>
		</g>
		<g>
			<g>
				<path fill="#FFFFFF" d="M466.5,360.5c0,48.6-39.4,88-88,88h-246c-48.602,0-88-39.4-88-88V143.833c0-48.601,39.398-88,88-88h246
					c48.6,0,88,39.399,88,88V360.5z"/>
			</g>
		</g>
	</g>
	<path fill="#3D59A8" stroke="#E2E2E2" stroke-width="10" stroke-miterlimit="10" d="M465.5,362.667c0,48.6-39.399,88-88,88h-246
		c-48.602,0-88-39.4-88-88V146c0-48.601,39.398-88,88-88h246c48.601,0,88,39.399,88,88V362.667z"/>
</g>
<g>
	<g>
		<path d="M257.016,77.651h-0.184l0.266,0.007l0.368,0.007c0.587,0.007,1.071,0.021,1.494,0.041l0.784,0.041
			c0.021,0,0.042,0,0.062,0.007l7.068,0.239C263.613,77.787,260.324,77.671,257.016,77.651z"/>
	</g>
</g>
<g id="g4591" transform="matrix(0.72601789,0,0,0.72601789,7.4101329,0.37155227)">
	
		<path id="path4555" sodipodi:type="arc" sodipodi:cy="358.47949" sodipodi:cx="336.50452" sodipodi:ry="280.67889" sodipodi:rx="280.67889" fill="#E8E4DE" d="
		M507.159,335.623c0,98.972-80.234,179.206-179.206,179.206s-179.205-80.234-179.205-179.206s80.233-179.206,179.205-179.206
		S507.159,236.651,507.159,335.623z"/>
	<path id="path4557" inkscape:connector-curvature="0" fill="#96B0B5" d="M327.95,164.825c-94.324,0-170.791,76.467-170.791,170.791
		s76.467,170.791,170.791,170.791c94.323,0,170.792-76.466,170.792-170.791S422.274,164.825,327.95,164.825z M327.95,310.077
		c14.113,0,25.559,11.427,25.559,25.539c0,14.113-11.447,25.558-25.559,25.558c-14.113,0-25.559-11.445-25.559-25.558
		C302.392,321.504,313.838,310.077,327.95,310.077z"/>
	<path id="path4564" inkscape:connector-curvature="0" fill="#FFFFFF" fill-opacity="0.1238" d="M327.95,274.642
		c-33.684,0-60.994,27.289-60.994,60.974c0,33.684,27.31,60.995,60.994,60.995s60.995-27.311,60.995-60.995
		C388.945,301.931,361.634,274.642,327.95,274.642z M327.95,310.077c14.113,0,25.559,11.427,25.559,25.539
		c0,14.113-11.447,25.558-25.559,25.558c-14.113,0-25.559-11.445-25.559-25.558C302.392,321.504,313.838,310.077,327.95,310.077z"/>
	<path id="path4562" inkscape:connector-curvature="0" fill="#FFFFFF" fill-opacity="0.2129" d="M327.95,288.628
		c-25.952,0-46.987,21.037-46.987,46.988c0,25.951,21.036,46.987,46.987,46.987c25.952,0,46.988-21.036,46.988-46.987
		C374.939,309.666,353.903,288.628,327.95,288.628z M327.95,310.077c14.113,0,25.559,11.427,25.559,25.539
		c0,14.113-11.447,25.558-25.559,25.558c-14.113,0-25.559-11.445-25.559-25.558C302.392,321.504,313.838,310.077,327.95,310.077z"/>
	<g>
		<defs>
			<path id="SVGID_1_" d="M327.95,164.825c-94.324,0-170.791,76.467-170.791,170.791s76.467,170.791,170.791,170.791
				c94.323,0,170.792-76.466,170.792-170.791S422.274,164.825,327.95,164.825z M327.95,310.077
				c14.113,0,25.559,11.427,25.559,25.539c0,14.113-11.447,25.558-25.559,25.558c-14.113,0-25.559-11.445-25.559-25.558
				C302.392,321.504,313.838,310.077,327.95,310.077z"/>
		</defs>
		<clipPath id="SVGID_2_">
			<use xlink:href="#SVGID_1_"  overflow="visible"/>
		</clipPath>
		
			<path id="path4573" sodipodi:nodetypes="ccccc" inkscape:connector-curvature="0" clip-path="url(#SVGID_2_)" fill="#FFFFFF" fill-opacity="0.1535" d="
			M343.874,354.111l-2.276,2.254l96.264,129.87l58.982-2.275L343.874,354.111z"/>
	</g>
	<g>
		<defs>
			<path id="SVGID_3_" d="M327.95,164.825c-94.324,0-170.791,76.467-170.791,170.791s76.467,170.791,170.791,170.791
				c94.323,0,170.792-76.466,170.792-170.791S422.274,164.825,327.95,164.825z M327.95,310.077
				c14.113,0,25.559,11.427,25.559,25.539c0,14.113-11.447,25.558-25.559,25.558c-14.113,0-25.559-11.445-25.559-25.558
				C302.392,321.504,313.838,310.077,327.95,310.077z"/>
		</defs>
		<clipPath id="SVGID_4_">
			<use xlink:href="#SVGID_3_"  overflow="visible"/>
		</clipPath>
		
			<path id="path4579" sodipodi:nodetypes="ccccc" inkscape:connector-curvature="0" clip-path="url(#SVGID_4_)" fill="#FFFFFF" fill-opacity="0.104" d="
			M310.445,319.612l2.275-2.254l-96.266-129.87l-58.982,2.276L310.445,319.612z"/>
	</g>
</g>
<path id="rect4599" fill="#5DB3DC" d="M125.156,258.163h244.722c10.691,0,19.358,8.666,19.358,19.358v97.849
	c0,10.691-8.667,19.358-19.358,19.358H125.156c-10.691,0-19.358-8.667-19.358-19.358v-97.849
	C105.798,266.829,114.465,258.163,125.156,258.163z"/>
<g id="flowRoot4601" transform="matrix(1.3901846,0,0,1.3901846,-118.96762,-161.50256)">
	<path id="path3043" fill="#FCEEF3" d="M200.48,373.416h10.339v10.231H200.48V373.416 M200.48,344.468h10.339v10.284H200.48V344.468
		"/>
	<path id="path3045" fill="#FCEEF3" d="M217.838,373.416h10.339v10.231h-10.339V373.416 M217.838,344.468h10.339v10.284h-10.339
		V344.468"/>
	<path id="path3047" fill="#FCEEF3" d="M251.412,315.464c5.731,0,9.94,1.578,12.624,4.734c2.358,2.757,3.537,6.603,3.537,11.537
		v9.903c0,4.825-1.832,8.907-5.496,12.243l7.618,29.766h-11.1l-6.258-25.738c-0.29,0.037-0.598,0.054-0.925,0.054h-5.932v25.684
		h-10.284v-68.182H251.412 M257.561,331.898c0-3.954-1.959-5.932-5.877-5.932h-6.203v21.821h6.203c1.633,0,3.011-0.581,4.136-1.741
		c1.161-1.16,1.741-2.557,1.741-4.19V331.898"/>
	<path id="path3049" fill="#FCEEF3" d="M288.877,383.646h-10.284v-68.182h10.284V383.646"/>
	<path id="path3051" fill="#FCEEF3" d="M314.262,315.464c5.006,0,8.997,1.578,11.971,4.734c2.757,3.011,4.135,6.857,4.135,11.537
		v9.903c0,4.499-1.578,8.344-4.734,11.537c-3.12,3.192-6.911,4.788-11.373,4.788h-5.932v25.684h-10.284v-68.182H314.262
		 M320.411,331.898c0-1.778-0.544-3.211-1.633-4.299c-1.052-1.088-2.467-1.633-4.244-1.633h-6.204v21.821h6.204
		c1.633,0,3.011-0.581,4.135-1.741c1.161-1.16,1.742-2.557,1.742-4.19V331.898"/>
</g>
<path id="rect4609" fill="#FFFFFF" fill-opacity="0.075" d="M125.158,258.16c-10.725,0-19.354,8.63-19.354,19.354v5.946
	c0-10.725,8.629-19.354,19.354-19.354h244.715c10.724,0,19.373,8.629,19.373,19.354v-5.946c0-10.724-8.649-19.354-19.373-19.354
	H125.158z"/>
<path id="rect4614" fill-opacity="0.13" d="M105.805,368.436v6.943c0,10.725,8.629,19.354,19.354,19.354h244.715
	c10.724,0,19.373-8.629,19.373-19.354v-6.943c0,10.725-8.649,19.354-19.373,19.354H125.158
	C114.434,387.79,105.805,379.161,105.805,368.436z"/>
</svg>
