<?xml version="1.0" encoding="utf-8"?>
<!-- Generator: Adobe Illustrator 16.0.0, SVG Export Plug-In . SVG Version: 6.00 Build 0)  -->
<!DOCTYPE svg PUBLIC "-//W3C//DTD SVG 1.1//EN" "http://www.w3.org/Graphics/SVG/1.1/DTD/svg11.dtd">
<svg version="1.1" id="Layer_1" xmlns="http://www.w3.org/2000/svg" xmlns:xlink="http://www.w3.org/1999/xlink" x="0px" y="0px"
	 width="512px" height="512px" viewBox="0 0 512 512" enable-background="new 0 0 512 512" xml:space="preserve">
<g id="Layer_1_1_">
	<g id="Layer_2" display="none">
	</g>
	<g id="shadows">
		<g opacity="0.9">
			<g>
				<path fill="#B7B7B7" d="M466.5,381.5c0,48.6-39.4,88-88,88h-246c-48.602,0-88-39.4-88-88V164.833c0-48.601,39.398-88,88-88h246
					c48.6,0,88,39.399,88,88V381.5z"/>
			</g>
		</g>
		<g>
			<g>
				<path fill="#FFFFFF" d="M466.5,360.5c0,48.6-39.4,88-88,88h-246c-48.602,0-88-39.4-88-88V143.833c0-48.601,39.398-88,88-88h246
					c48.6,0,88,39.399,88,88V360.5z"/>
			</g>
		</g>
	</g>
	<path fill="#3D59A8" stroke="#E2E2E2" stroke-width="10" stroke-miterlimit="10" d="M465.5,362.667c0,48.6-39.399,88-88,88h-246
		c-48.602,0-88-39.4-88-88V146c0-48.601,39.398-88,88-88h246c48.601,0,88,39.399,88,88V362.667z"/>
</g>
<g>
	<g>
		<path d="M257.016,77.651h-0.184l0.266,0.007l0.368,0.007c0.587,0.007,1.071,0.021,1.494,0.041l0.784,0.041
			c0.021,0,0.042,0,0.062,0.007l7.068,0.239C263.613,77.787,260.324,77.671,257.016,77.651z"/>
	</g>
</g>
<g id="g4148">
	
		<path id="path2986-2" sodipodi:nodetypes="ssssssssssssssssssssscsssssssssssssssssssscssssssssssssssssssscsscsscsssssscssssssssssssssssscsssssssssssssssss" inkscape:connector-curvature="0" fill="#A5A5A5" d="
		M166.156,396.938c-2.144-2.301-3.676-6.514-3.656-10.053c0.01-1.824,1.89-8.057,5.374-17.811c2.947-8.252,5.397-15.744,5.445-16.65
		c0.063-1.201-1.368-2.967-5.292-6.527c-2.958-2.686-7.258-7.094-9.555-9.801c-2.296-2.703-4.812-5.186-5.588-5.516
		c-0.872-0.369-7.284,1.486-16.735,4.844c-8.428,2.994-16.517,5.531-17.976,5.637c-3.004,0.221-8.644-1.928-11.058-4.211
		c-1.92-1.814-15.961-35.805-16.269-39.381c-0.305-3.547,2.157-8.898,5.269-11.453c1.417-1.162,9.086-5.057,17.043-8.656
		c8.564-3.873,14.701-7.096,15.042-7.902c0.317-0.748,0.389-4.258,0.158-7.799c-0.23-3.541-0.207-9.683,0.051-13.652
		c0.258-3.966,0.084-7.678-0.387-8.247c-0.471-0.568-7.291-4.189-15.157-8.049c-9.148-4.486-15.172-7.818-16.72-9.245
		c-2.948-2.717-5.146-8.677-4.416-11.974c0.296-1.337,4.097-10.563,8.445-20.5l7.906-18.068l3.196-1.731
		c5.648-3.06,7.579-2.789,25.654,3.596c10.23,3.613,16.566,5.534,17.286,5.238c0.625-0.256,3.571-3.05,6.548-6.206
		c2.977-3.157,7.321-7.363,9.653-9.347s4.475-4.159,4.762-4.836c0.287-0.677-1.709-7.573-4.437-15.325
		c-2.727-7.752-5.268-15.326-5.646-16.832c-1.065-4.233-0.202-8.551,2.406-12.033c1.969-2.63,3.971-3.659,19.809-10.191
		c9.69-3.997,19.004-7.37,20.698-7.497c3.929-0.294,9.067,1.857,11.577,4.847c1.058,1.259,4.862,8.747,8.455,16.641
		s6.835,14.747,7.205,15.23c0.39,0.509,4.03,0.738,8.66,0.547c4.393-0.182,10.823-0.115,14.288,0.148
		c4.698,0.356,6.669,0.147,7.75-0.822c0.797-0.717,4.618-7.732,8.491-15.592c7.449-15.115,9.017-17.338,13.624-19.319
		c5.125-2.203,7.298-1.642,27.062,7l18.001,7.871l2.035,3.073c3.502,5.288,3.241,7.542-2.918,25.262
		c-2.982,8.578-5.545,16.31-5.697,17.182c-0.213,1.229,0.931,2.681,5.06,6.428c2.935,2.662,7.457,7.339,10.052,10.393
		c2.596,3.053,4.982,5.663,5.306,5.801c0.323,0.137,7.573-2.235,16.11-5.271c8.539-3.036,16.914-5.633,18.611-5.77
		c4.014-0.325,8.896,1.764,11.753,5.026c1.355,1.549,4.915,9.28,9.077,19.718c7.146,17.915,7.518,19.776,5.105,25.495
		c-1.707,4.045-4.631,5.934-20.365,13.156c-8.555,3.927-15.67,7.412-15.811,7.743c-0.141,0.332-0.078,4.427,0.139,9.102
		c0.217,4.674,0.133,11.054-0.186,14.179c-0.396,3.883-0.227,6.049,0.536,6.84c0.614,0.635,7.852,4.52,16.082,8.633
		c16.334,8.16,18.744,9.996,19.88,15.146c1.074,4.867,0.194,7.801-7.783,25.979l-7.631,17.389l-3.29,2.047
		c-5.875,3.66-6.914,3.535-26.043-3.143c-9.347-3.262-17.222-5.84-17.499-5.727c-0.277,0.111-2.639,2.539-5.248,5.396
		c-2.608,2.854-7.252,7.324-10.319,9.93c-3.067,2.607-5.656,5.189-5.753,5.736c-0.098,0.549,2.213,7.727,5.135,15.949
		c2.921,8.225,5.424,16.607,5.563,18.627c0.293,4.289-1.126,8.098-4.1,11.006c-2.625,2.566-34.273,15.672-38.656,16.008
		c-3.666,0.281-9.213-1.873-11.778-4.576c-0.983-1.033-4.884-8.652-8.667-16.928s-7.37-15.256-7.971-15.512
		c-0.6-0.258-4.673-0.338-9.052-0.18c-4.378,0.16-10.725,0.061-14.103-0.221c-4.669-0.387-6.365-0.201-7.074,0.771
		c-0.513,0.703-4.28,7.912-8.372,16.02c-9,17.83-10.544,19.521-18.304,20.049c-2.25,0.152-5.385-0.986-20.89-7.586
		C172.333,400.639,167.403,398.275,166.156,396.938L166.156,396.938z M227.597,326.875c17.197,5.256,33.738,4.52,50.421-2.24
		c12.715-5.152,22.726-12.736,31.553-23.908c5.535-7.004,12.94-24.508,14.155-33.457c3.687-27.156-6.142-52.466-27.153-69.93
		c-4.896-4.069-6.352-4.875-17.244-9.549c-10.434-4.478-12.691-5.213-18.356-5.979c-28.283-3.826-56.305,8.323-72.319,31.355
		c-14.387,20.692-17.255,46.824-7.738,70.515c4.982,12.404,13.533,23.582,24.403,31.898c3.1,2.373,7.745,5.158,14.535,8.713
		C220.395,324.578,223.88,325.74,227.597,326.875z M222.812,291.16c-15.37-12.072-21.258-32.006-14.823-50.179
		c4.499-12.707,12.929-21.498,25.44-26.531c22.786-9.166,48.432,1.529,57.563,24.007c7.522,18.514,2.816,38.315-12.146,51.104
		c-12.743,10.893-28.887,13.666-44.709,7.678C228.752,295.199,226.233,293.848,222.812,291.16L222.812,291.16z M249.523,282.223
		c5.558,0.238,15.325-2.654,19.81-6.535c3.164-2.738,3.857-3.801,6.434-9.879c2.74-6.465,1.07-7.08,0.586-12.105
		c-0.975-10.146-5.838-17.139-15.012-21.585c-7.37-3.572-12.553-3.888-20.095-1.224c-9.563,3.377-16.018,10.972-17.467,20.551
		c-1.255,8.291,0.652,15.091,6.013,21.445C234.792,278.818,241.236,281.867,249.523,282.223L249.523,282.223z"/>
	
		<path id="path2986-1" sodipodi:nodetypes="ssssssssssssssssssssscsssssssssssssssssssscssssssssssssssssssscsscsscsssssscssssssssssssssssscsssssssssssssssss" inkscape:connector-curvature="0" fill="#DEDEDE" d="
		M166.156,389.871c-2.144-2.301-3.676-6.512-3.656-10.053c0.01-1.824,1.89-8.055,5.374-17.809c2.947-8.252,5.397-15.746,5.445-16.65
		c0.063-1.201-1.368-2.967-5.292-6.529c-2.958-2.684-7.258-7.094-9.555-9.799c-2.296-2.705-4.812-5.188-5.588-5.518
		c-0.872-0.369-7.284,1.486-16.735,4.846c-8.428,2.994-16.517,5.529-17.976,5.637c-3.004,0.219-8.644-1.928-11.058-4.211
		c-1.92-1.816-15.961-35.805-16.269-39.381c-0.305-3.549,2.157-8.898,5.269-11.453c1.417-1.162,9.086-5.059,17.043-8.656
		c8.564-3.873,14.701-7.098,15.042-7.902c0.317-0.75,0.389-4.258,0.158-7.799c-0.23-3.541-0.207-9.685,0.051-13.651
		c0.258-3.968,0.084-7.679-0.387-8.247c-0.471-0.568-7.291-4.191-15.157-8.049c-9.148-4.488-15.172-7.819-16.72-9.245
		c-2.948-2.718-5.146-8.678-4.416-11.975c0.296-1.336,4.097-10.562,8.445-20.5l7.906-18.068l3.196-1.731
		c5.648-3.06,7.579-2.789,25.654,3.596c10.23,3.614,16.566,5.534,17.286,5.238c0.625-0.256,3.571-3.049,6.548-6.206
		s7.321-7.363,9.653-9.347c2.333-1.983,4.475-4.159,4.762-4.836c0.287-0.677-1.709-7.573-4.436-15.325
		c-2.728-7.752-5.269-15.326-5.646-16.831c-1.065-4.234-0.202-8.552,2.406-12.034c1.969-2.63,3.971-3.659,19.809-10.191
		c9.69-3.996,19.004-7.37,20.698-7.497c3.929-0.294,9.067,1.857,11.577,4.847c1.058,1.259,4.862,8.747,8.455,16.641
		s6.835,14.747,7.205,15.23c0.39,0.509,4.03,0.739,8.66,0.547c4.393-0.182,10.823-0.115,14.288,0.148
		c4.698,0.357,6.669,0.148,7.75-0.822c0.797-0.716,4.618-7.732,8.491-15.592c7.449-15.115,9.017-17.338,13.624-19.319
		c5.125-2.203,7.298-1.641,27.062,7l18.001,7.871l2.035,3.073c3.502,5.288,3.241,7.542-2.918,25.262
		c-2.982,8.578-5.545,16.31-5.697,17.183c-0.213,1.228,0.931,2.68,5.06,6.428c2.935,2.662,7.457,7.339,10.052,10.392
		c2.596,3.054,4.982,5.664,5.306,5.801s7.573-2.235,16.11-5.271c8.539-3.036,16.914-5.633,18.611-5.77
		c4.014-0.325,8.896,1.765,11.753,5.026c1.355,1.55,4.915,9.281,9.077,19.718c7.146,17.915,7.518,19.776,5.105,25.496
		c-1.707,4.044-4.631,5.933-20.365,13.155c-8.555,3.928-15.67,7.411-15.811,7.744c-0.141,0.331-0.078,4.427,0.139,9.101
		s0.133,11.055-0.186,14.18c-0.396,3.883-0.227,6.049,0.536,6.84c0.614,0.635,7.852,4.52,16.082,8.633
		c16.334,8.16,18.744,9.996,19.88,15.145c1.074,4.869,0.194,7.803-7.783,25.98l-7.631,17.387l-3.29,2.049
		c-5.875,3.658-6.914,3.533-26.043-3.143c-9.347-3.264-17.222-5.84-17.499-5.729c-0.277,0.113-2.639,2.541-5.248,5.396
		c-2.608,2.855-7.252,7.324-10.319,9.932s-5.656,5.188-5.753,5.736c-0.098,0.547,2.213,7.725,5.135,15.949
		c2.921,8.225,5.424,16.605,5.563,18.625c0.293,4.291-1.126,8.1-4.1,11.008c-2.625,2.564-34.273,15.67-38.656,16.006
		c-3.666,0.281-9.213-1.873-11.778-4.574c-0.983-1.035-4.884-8.652-8.667-16.928s-7.37-15.256-7.971-15.514
		c-0.6-0.256-4.673-0.336-9.052-0.178c-4.378,0.158-10.725,0.061-14.103-0.221c-4.669-0.387-6.365-0.201-7.074,0.77
		c-0.513,0.705-4.28,7.912-8.372,16.02c-9,17.83-10.544,19.523-18.304,20.049c-2.25,0.152-5.385-0.984-20.89-7.584
		c-13.722-5.842-18.652-8.207-19.898-9.543L166.156,389.871z M227.597,319.811c17.197,5.254,33.738,4.52,50.421-2.24
		c12.715-5.152,22.726-12.738,31.553-23.908c5.535-7.004,12.94-24.51,14.155-33.457c3.687-27.157-6.142-52.468-27.153-69.931
		c-4.896-4.068-6.352-4.875-17.244-9.549c-10.434-4.477-12.691-5.213-18.356-5.979c-28.283-3.826-56.305,8.323-72.319,31.354
		c-14.387,20.693-17.255,46.823-7.738,70.516c4.982,12.404,13.533,23.58,24.403,31.898c3.1,2.373,7.745,5.156,14.535,8.713
		C220.395,317.514,223.88,318.674,227.597,319.811L227.597,319.811z M222.812,284.096c-15.37-12.072-21.258-32.006-14.823-50.18
		c4.499-12.707,12.929-21.498,25.44-26.531c22.786-9.166,48.432,1.53,57.563,24.007c7.522,18.515,2.816,38.314-12.146,51.103
		c-12.743,10.895-28.887,13.666-44.709,7.678C228.752,288.133,226.233,286.783,222.812,284.096L222.812,284.096z M249.523,275.158
		c5.558,0.238,15.325-2.654,19.81-6.535c3.164-2.738,3.857-3.803,6.434-9.879c2.74-6.465,1.07-7.081,0.586-12.106
		c-0.975-10.145-5.838-17.139-15.012-21.585c-7.37-3.572-12.553-3.888-20.095-1.224c-9.563,3.377-16.018,10.971-17.467,20.551
		c-1.255,8.291,0.652,15.09,6.013,21.446C234.792,271.754,241.236,274.801,249.523,275.158L249.523,275.158z"/>
</g>
<ellipse id="path3012" fill="#FFFFFF" cx="250.291" cy="253.856" rx="115.543" ry="112.814"/>
<path id="path3010-9" inkscape:connector-curvature="0" opacity="0.3" fill-opacity="0.9922" enable-background="new    " d="
	M250.351,140.165c-19.211-0.012-38.397,4.37-55.274,12.982c-31.778,16.218-52.265,40.947-63.416,76.403
	c-2.504,7.963-4.302,12.032-4.342,28.631c-0.034,14.047,2.17,22.754,3.429,28.18c5.657,24.375,16.591,44.332,33.579,61.289
	c19.379,19.344,43.443,31.42,69.389,34.822c37.579,4.926,75.257-7.916,102.026-34.775c37.23-37.355,46.587-93.602,23.322-140.203
	c-13.949-27.942-40.629-51.231-69.978-61.083C276.652,142.237,263.494,140.172,250.351,140.165z"/>
<g id="g2989" transform="matrix(1.3968977,0,0,1.3968977,78.126023,80.970497)">
	<circle id="path3010" fill="#FFFFFF" cx="123.23" cy="124.16" r="85.311"/>
	
		<path id="path2997" sodipodi:nodetypes="ssssssssssssssssscssssssssssssssssssssssssssssssssscs" inkscape:connector-curvature="0" fill="#3568ED" d="
		M111.383,210.666c-18.573-2.434-35.801-11.081-49.674-24.928c-12.16-12.139-19.988-26.426-24.038-43.875
		c-0.901-3.883-2.479-10.117-2.454-20.173c0.028-11.882,1.315-14.796,3.107-20.497c7.983-25.383,22.648-43.084,45.397-54.694
		c20.349-10.384,45.387-12.178,67.3-4.822c21.01,7.052,40.109,23.724,50.095,43.728c16.655,33.36,9.956,73.625-16.696,100.367
		C165.257,205,138.284,214.194,111.383,210.666L111.383,210.666z M86.864,198.181c-0.123-0.538-0.399-2.455-0.612-4.259
		c-0.353-2.981-0.196-3.472,1.732-5.401c2.76-2.76,5.217-2.763,16.871-0.022c4.907,1.154,12.132,2.603,16.054,3.22
		c8.873,1.398,30.508,1.576,38.368,0.317c6.385-1.023,17.064-3.883,19.819-5.308c3.01-1.556,13.173-13.726,12.242-14.659
		c-0.222-0.221-3.623,0.401-7.556,1.386c-13.546,3.385-19.927,0.179-33.182-0.221c-22.939-0.692-41.788-5.514-72.668-18.593
		c-18.485-7.83-23.058-4.539-27.717,0.12c-3.506,3.507-3.601,5.165-0.606,10.626c6.825,12.448,18.313,24.221,30.734,31.496
		C84.974,199.594,87.294,200.056,86.864,198.181L86.864,198.181z M203.37,148.743c0.375-0.86,1.134-3.749,1.689-6.42
		c0.919-4.427,0.906-4.936-0.134-5.727c-0.628-0.477-1.568-0.868-2.089-0.868c-1.934,0-12.949-5.004-18.864-8.569
		c-11.362-6.849-25.678-18.464-45.865-37.21c-19.858-18.44-25.804-23.19-33.446-26.721c-9.049-4.181-21.129-4.91-33.191-2.004
		c-4.457,1.075-5.659,1.705-8.357,4.388c-6.156,6.121-11.943,14.217-15.637,21.875c-5.96,12.353-5.704,21.171,1.814,14.791
		c5.714-4.851,11.41-5.415,17.151-6.397c3.747-0.64,9.319,0.214,13.768,1.205c9.182,2.045,15.729,8.719,39.503,25.595
		c26.914,19.102,31.695,19.087,50.036,26.39c7.921,3.154,28.338,1.138,31.366,1.202C202.104,150.293,202.944,149.725,203.37,148.743
		L203.37,148.743z M200.974,105.051c2.235-1.963,2.487-2.511,2.187-4.752c-0.536-3.995-4.974-14.191-8.983-20.632
		c-4.727-7.598-16.364-19.522-23.794-24.384c-10.97-7.176-21.423-11.374-33.898-13.611c-11.112-1.993-34.081-0.484-35.009,2.3
		c-0.192,0.577,1.001,0.825,3.975,0.825c18.558,0,34.405,5.166,46.417,15.131c7.129,5.914,12.123,11.531,20.291,22.82
		c13.737,18.989,19.124,24.316,24.749,24.477C197.755,107.25,199.584,106.271,200.974,105.051z"/>
</g>
</svg>
