<?xml version="1.0" encoding="utf-8"?>
<!-- Generator: Adobe Illustrator 16.0.0, SVG Export Plug-In . SVG Version: 6.00 Build 0)  -->
<!DOCTYPE svg PUBLIC "-//W3C//DTD SVG 1.1//EN" "http://www.w3.org/Graphics/SVG/1.1/DTD/svg11.dtd">
<svg version="1.1" id="Layer_1" xmlns="http://www.w3.org/2000/svg" xmlns:xlink="http://www.w3.org/1999/xlink" x="0px" y="0px"
	 width="512px" height="512px" viewBox="0 0 512 512" enable-background="new 0 0 512 512" xml:space="preserve">
<g id="Layer_1_1_">
	<g id="Layer_2" display="none">
	</g>
	<g id="shadows">
		<g opacity="0.9">
			<g>
				<path fill="#B7B7B7" d="M466.5,381.5c0,48.6-39.4,88-88,88h-246c-48.602,0-88-39.4-88-88V164.833c0-48.601,39.398-88,88-88h246
					c48.6,0,88,39.399,88,88V381.5z"/>
			</g>
		</g>
		<g>
			<g>
				<path fill="#FFFFFF" d="M466.5,360.5c0,48.6-39.4,88-88,88h-246c-48.602,0-88-39.4-88-88V143.833c0-48.601,39.398-88,88-88h246
					c48.6,0,88,39.399,88,88V360.5z"/>
			</g>
		</g>
	</g>
	<path fill="#7EC242" stroke="#E2E2E2" stroke-width="10" stroke-miterlimit="10" d="M465.5,362.667c0,48.6-39.399,88-88,88h-246
		c-48.602,0-88-39.4-88-88V146c0-48.601,39.398-88,88-88h246c48.601,0,88,39.399,88,88V362.667z"/>
</g>
<g>
	<g>
		<path d="M257.016,77.651h-0.184l0.266,0.007l0.368,0.007c0.587,0.007,1.071,0.021,1.494,0.041l0.784,0.041
			c0.021,0,0.042,0,0.062,0.007l7.068,0.239C263.613,77.787,260.324,77.671,257.016,77.651z"/>
	</g>
</g>
<g id="layer1" transform="translate(-180.23661,-225.8125)" inkscape:label="Capa 1" inkscape:groupmode="layer">
	
		<radialGradient id="path8422_1_" cx="488.7954" cy="610.5391" r="156.4558" gradientTransform="matrix(0 1.5526 1.5433 0 -1024.0167 -400.6575)" gradientUnits="userSpaceOnUse">
		<stop  offset="0" style="stop-color:#5C3566"/>
		<stop  offset="1" style="stop-color:#2E1A33"/>
	</radialGradient>
	<path id="path8422" fill="url(#path8422_1_)" d="M-51.405,307.506c-2.54,0.892-5.061,1.828-7.558,2.833
		c-0.795,0.32-1.571,0.686-2.362,1.017C-58.058,309.973-54.75,308.689-51.405,307.506z"/>
	
		<radialGradient id="path8420_1_" cx="488.7886" cy="610.5381" r="156.4358" gradientTransform="matrix(0 1.5526 1.5433 0 -1024.0167 -400.6575)" gradientUnits="userSpaceOnUse">
		<stop  offset="0" style="stop-color:#5C3566"/>
		<stop  offset="1" style="stop-color:#2E1A33"/>
	</radialGradient>
	<path id="path8420" fill="url(#path8420_1_)" d="M-42.064,304.509c-2.288,0.674-4.562,1.394-6.82,2.159
		c2.069-0.693,4.139-1.384,6.232-2.001C-42.457,304.61-42.26,304.565-42.064,304.509z"/>
	<circle id="path9029" fill="#7C3173" cx="430.3" cy="480.905" r="176.317"/>
	<path id="path7454" inkscape:connector-curvature="0" fill="#7C3173" d="M226.818,275.42"/>
	<path id="path7466" inkscape:connector-curvature="0" fill="#7C3173" d="M226.818,275.42"/>
	<g>
		<defs>
			<circle id="SVGID_1_" cx="430.3" cy="480.905" r="176.317"/>
		</defs>
		<clipPath id="SVGID_2_">
			<use xlink:href="#SVGID_1_"  overflow="visible"/>
		</clipPath>
		<g id="g7520" transform="matrix(0.88741731,0,0,0.88741731,425.11363,502.22986)" clip-path="url(#SVGID_2_)">
			<path id="path7440" inkscape:connector-curvature="0" fill="#E1CFD1" d="M-131.395-2.557c-17.437-0.764-42.594-5.284-53.56-9.626
				c-8.833-3.496-17.651-9.327-23.665-15.646c-3.285-3.453-4.892-6.383-5.44-9.925c-1.027-6.637,2.417-14.593,9.099-21.019
				c4.736-4.555,13.701-11.49,17.056-13.193c2.296-1.167,1.714-0.267-1.261,1.948c-3.273,2.439-9.561,8.744-11.33,11.363
				c-1.679,2.487-3.01,5.36-3.683,7.96c-0.631,2.435-0.653,6.557-0.045,8.576c1.62,5.382,11.973,14.996,20.524,19.059
				c5.929,2.816,17.114,6.079,26.925,7.851c4.72,0.854,14.895,2.267,18.426,2.561c1.145,0.096,4.679,0.388,7.851,0.65
				c24.496,2.027,58.79,1.052,90.209-2.563C10.856-20.447,54.252-31.548,99.534-50.33c6.687-2.773,8.6-3.342,6.265-1.866
				c-1.584,1.001-11.934,6.037-17.026,8.283C45.933-25.024-8.545-11.04-63.744-4.768C-82.353-2.651-111.67-1.694-131.395-2.557z"/>
			<path id="path7491" inkscape:connector-curvature="0" fill="#E1CFD1" d="M-196.193-25.5c-1.936,1.677-3.771,3.34-5.235,4.837
				c-6.484,6.626-9.687,14.682-8.458,21.284c0.655,3.526,2.349,6.405,5.738,9.757c6.203,6.134,15.193,11.693,24.128,14.92
				c11.094,4.006,36.377,7.763,53.829,7.997c19.743,0.264,49.016-1.585,67.553-4.262C-3.657,21.085,50.372,5.455,92.619-14.726
				c5.022-2.399,15.217-7.745,16.769-8.795c0.572-0.386,0.883-0.636,0.923-0.749c0.123-0.337-2.18,0.574-7.13,2.805
				C58.489-1.318,15.453,11.094-35.488,18.529c-31.296,4.567-65.545,6.583-90.092,5.301c-3.179-0.166-6.72-0.353-7.868-0.413
				c-3.539-0.187-13.751-1.292-18.496-2.002c-9.859-1.475-21.139-4.393-27.151-7.027c-8.67-3.801-19.308-13.098-21.091-18.428
				c-0.668-2.001-0.774-6.122-0.217-8.574c0.594-2.619,1.838-5.53,3.442-8.067c0.552-0.874,1.543-2.088,2.751-3.437L-196.193-25.5
				L-196.193-25.5z"/>
			<path id="path7481" inkscape:connector-curvature="0" fill="#E1CFD1" d="M126.587-12.082c0.105-0.357-2.217,0.747-7.186,3.403
				C74.532,15.303,30.837,31.16-21.39,42.416c-32.084,6.915-67.405,11.393-92.911,11.779c-3.304,0.051-6.981,0.106-8.174,0.122
				c-3.677,0.056-14.33-0.375-19.291-0.778c-10.312-0.837-22.195-3.074-28.604-5.383c-9.242-3.33-20.91-12.211-23.128-17.607
				c-0.831-2.024-1.226-6.285-0.821-8.863c0.433-2.752,1.514-5.852,2.997-8.592c0.558-1.028,1.657-2.527,2.956-4.17l-1.902-1.446
				c-2.108,2.071-4.123,4.129-5.677,5.946c-6.252,7.314-9.004,15.88-7.271,22.63c0.924,3.605,2.878,6.466,6.621,9.701
				c6.851,5.918,16.55,11.049,26.027,13.764c11.767,3.374,38.205,5.498,56.291,4.52c20.461-1.104,50.646-5.062,69.652-9.13
				C11.751,42.839,66.6,22.882,108.934-0.964c5.031-2.836,15.215-9.083,16.749-10.277C126.248-11.683,126.553-11.962,126.587-12.082
				z"/>
			<path id="path7493" inkscape:connector-curvature="0" fill="#E1CFD1" d="M133.109,6.59c0.083-0.349-2.1,0.824-6.755,3.618
				C84.317,35.432,43.021,52.78-6.706,66.106c-30.548,8.186-64.327,14.184-88.856,15.773c-3.176,0.207-6.714,0.436-7.862,0.51
				c-3.536,0.228-13.808,0.322-18.603,0.171c-9.964-0.314-21.508-1.899-27.786-3.814c-9.055-2.764-20.705-10.755-23.097-15.841
				c-0.897-1.908-1.482-5.989-1.215-8.489c0.201-1.885,0.804-3.923,1.555-5.922l-3.665-1.717
				c-5.535,7.282-7.734,15.543-5.765,21.889c1.062,3.424,3.08,6.086,6.838,9.019c6.876,5.368,16.453,9.841,25.704,12.004
				c11.485,2.685,37.033,3.465,54.393,1.661c19.638-2.04,48.498-7.289,66.596-12.112c53.679-14.306,105.516-36.132,145.12-61.105
				c4.708-2.969,14.209-9.468,15.626-10.691C132.801,6.992,133.08,6.706,133.109,6.59z"/>
		</g>
	</g>
	<path id="path8429" inkscape:connector-curvature="0" fill="#B55999" d="M295.27,369.498c-1.538,1.391-3.079,2.779-4.564,4.225
		c-0.431,0.419-0.835,0.867-1.261,1.291c-2.782,3.737-5.417,7.583-7.895,11.527c1.388-1.099,2.7-2.293,4.121-3.35
		c4.085-3.036,8.302-5.897,12.633-8.575c4.332-2.677,8.778-5.173,13.32-7.476s9.183-4.414,13.903-6.328
		c4.72-1.913,9.521-3.627,14.385-5.135c4.865-1.507,9.793-2.807,14.767-3.892c4.974-1.085,9.996-1.956,15.046-2.604
		c5.05-0.647,10.13-1.071,15.222-1.266c2.891-0.11,5.784-0.146,8.676-0.109c2.891,0.038,5.782,0.148,8.667,0.331
		c2.885,0.182,5.765,0.436,8.638,0.76c2.872,0.325,5.736,0.721,8.589,1.187c2.853,0.466,5.696,1,8.523,1.604
		c2.828,0.603,5.641,1.275,8.438,2.014c2.795,0.739,5.572,1.545,8.33,2.417c2.758,0.873,5.495,1.809,8.207,2.813
		c2.713,1.002,5.4,2.072,8.062,3.203s5.294,2.326,7.898,3.584c2.603,1.257,5.177,2.577,7.716,3.958
		c2.54,1.381,5.047,2.824,7.516,4.326c2.469,1.503,4.9,3.064,7.292,4.686c2.392,1.621,4.743,3.302,7.052,5.04
		c2.309,1.737,4.574,3.533,6.792,5.386c2.219,1.852,4.391,3.76,6.513,5.724c2.123,1.964,4.193,3.981,6.213,6.05
		c2.018,2.068,3.982,4.188,5.894,6.354c1.911,2.166,3.769,4.38,5.569,6.639s3.547,4.563,5.234,6.907
		c1.688,2.345,3.32,4.73,4.895,7.155c1.572,2.425,3.086,4.886,4.539,7.384c1.455,2.498,2.849,5.03,4.182,7.595
		c1.333,2.565,2.604,5.162,3.812,7.789c1.208,2.625,2.354,5.279,3.436,7.96s2.099,5.388,3.05,8.117
		c0.95,2.729,1.836,5.481,2.654,8.252c0.818,2.771,1.568,5.562,2.251,8.37c0.683,2.808,1.297,5.631,1.841,8.469
		c0.544,2.837,1.017,5.688,1.419,8.549c0.401,2.86,0.733,5.732,0.991,8.611c0.258,2.878,0.441,5.763,0.552,8.652
		c0.194,5.085,0.158,10.174-0.103,15.25c-0.261,5.077-0.745,10.143-1.447,15.177c-0.702,5.035-1.622,10.04-2.753,14.998
		c-1.131,4.959-2.473,9.87-4.019,14.716s-3.297,9.627-5.245,14.327c-1.948,4.699-4.096,9.316-6.434,13.834
		c-2.174,4.201-4.548,8.292-7.048,12.306c4.369-3.341,8.58-6.885,12.619-10.619c2.528-3.427,5.004-6.896,7.277-10.498
		c2.714-4.302,5.244-8.72,7.582-13.237c2.337-4.518,4.482-9.136,6.432-13.835c1.948-4.7,3.698-9.48,5.245-14.327
		c1.546-4.847,2.889-9.758,4.019-14.716c1.131-4.958,2.051-9.963,2.753-14.997c0.702-5.035,1.188-10.1,1.448-15.177
		s0.297-10.166,0.103-15.25c-0.11-2.89-0.295-5.775-0.553-8.653c-0.258-2.879-0.588-5.75-0.99-8.611
		c-0.401-2.861-0.876-5.711-1.42-8.549c-0.544-2.837-1.157-5.661-1.84-8.469c-0.682-2.808-1.433-5.599-2.25-8.37
		c-0.819-2.771-1.704-5.522-2.655-8.252s-1.969-5.437-3.051-8.117c-1.081-2.68-2.226-5.335-3.434-7.961
		c-1.209-2.626-2.48-5.223-3.813-7.788c-1.332-2.564-2.727-5.097-4.181-7.595c-1.454-2.497-2.968-4.96-4.541-7.384
		c-1.572-2.424-3.203-4.811-4.892-7.155s-3.435-4.648-5.236-6.907c-1.801-2.259-3.657-4.473-5.567-6.639
		c-1.912-2.167-3.878-4.286-5.896-6.354c-2.018-2.068-4.088-4.086-6.209-6.05c-2.123-1.964-4.297-3.872-6.516-5.724
		s-4.483-3.648-6.791-5.386c-2.309-1.738-4.661-3.418-7.053-5.04c-2.392-1.622-4.823-3.184-7.292-4.686
		c-2.469-1.502-4.974-2.944-7.514-4.326c-2.539-1.381-5.112-2.701-7.716-3.958s-5.238-2.452-7.899-3.584
		c-2.661-1.131-5.35-2.2-8.063-3.203c-2.712-1.003-5.448-1.94-8.205-2.812c-2.757-0.873-5.536-1.679-8.332-2.418
		s-5.608-1.411-8.437-2.014s-5.669-1.139-8.521-1.604c-2.854-0.465-5.719-0.861-8.591-1.186c-2.873-0.325-5.752-0.579-8.637-0.761
		c-2.886-0.182-5.774-0.293-8.666-0.33c-2.891-0.037-5.784,0-8.675,0.109c-5.093,0.194-10.173,0.62-15.224,1.268
		c-5.05,0.648-10.072,1.517-15.046,2.602c-4.975,1.085-9.901,2.385-14.766,3.893c-4.864,1.507-9.666,3.222-14.386,5.135
		c-4.721,1.913-9.361,4.025-13.903,6.329c-4.543,2.303-8.988,4.796-13.319,7.475c-4.331,2.678-8.547,5.539-12.633,8.575
		c-4.085,3.037-8.04,6.25-11.846,9.629C294.583,370.337,294.938,369.927,295.27,369.498L295.27,369.498z"/>
	<path id="circle8405" inkscape:connector-curvature="0" fill="#D379B7" d="M384.573,309.745c-0.196,0.057-0.395,0.101-0.591,0.159
		c-2.102,0.619-4.18,1.314-6.259,2.009c-0.846,0.274-1.689,0.555-2.532,0.842c-2.549,0.896-5.082,1.836-7.59,2.845
		c-2.683,1.08-5.34,2.224-7.968,3.431c-2.628,1.207-5.227,2.476-7.794,3.807s-5.104,2.723-7.604,4.175
		c-2.5,1.452-4.965,2.964-7.392,4.535c-2.427,1.57-4.814,3.199-7.161,4.885c-2.347,1.686-4.654,3.43-6.916,5.229
		c-2.261,1.799-4.479,3.653-6.648,5.562c-2.169,1.908-4.291,3.872-6.362,5.887c-2.071,2.016-4.091,4.084-6.058,6.205
		c-1.911,2.06-3.768,4.164-5.571,6.313c-1.804,2.149-3.553,4.344-5.25,6.58c3.806-3.379,7.76-6.593,11.846-9.629
		c4.085-3.036,8.301-5.897,12.633-8.575c4.331-2.678,8.775-5.171,13.318-7.475c4.543-2.303,9.183-4.416,13.903-6.329
		c4.72-1.913,9.522-3.627,14.387-5.135c4.864-1.507,9.791-2.807,14.765-3.892c4.975-1.085,9.996-1.955,15.047-2.602
		c5.05-0.647,10.13-1.073,15.224-1.268c2.891-0.11,5.783-0.146,8.674-0.109s5.781,0.148,8.666,0.331
		c2.886,0.183,5.766,0.436,8.638,0.761c2.872,0.325,5.737,0.721,8.59,1.186c2.854,0.465,5.695,1.001,8.522,1.604
		c2.827,0.604,5.642,1.275,8.437,2.014c2.796,0.739,5.574,1.546,8.332,2.418s5.493,1.809,8.205,2.812
		c2.713,1.003,5.401,2.072,8.063,3.203c2.662,1.132,5.296,2.327,7.898,3.584c2.604,1.257,5.178,2.577,7.717,3.958
		s5.045,2.823,7.514,4.326s4.9,3.064,7.292,4.686s4.743,3.302,7.053,5.04c2.308,1.738,4.573,3.534,6.792,5.386
		c2.218,1.852,4.392,3.76,6.514,5.724c2.123,1.964,4.192,3.981,6.211,6.05c2.018,2.068,3.984,4.188,5.895,6.354
		c1.912,2.167,3.768,4.381,5.569,6.64c1.8,2.259,3.547,4.563,5.235,6.907s3.319,4.73,4.892,7.155
		c1.572,2.424,3.087,4.887,4.541,7.384c1.454,2.498,2.848,5.029,4.182,7.595c1.332,2.564,2.604,5.162,3.812,7.788
		c1.209,2.626,2.354,5.28,3.435,7.961s2.1,5.388,3.051,8.116c0.951,2.729,1.837,5.481,2.654,8.253
		c0.818,2.771,1.568,5.562,2.252,8.37c0.682,2.807,1.295,5.632,1.839,8.469c0.544,2.838,1.018,5.688,1.42,8.548
		c0.402,2.861,0.732,5.732,0.99,8.612c0.258,2.878,0.443,5.764,0.554,8.652c0.193,5.084,0.157,10.173-0.104,15.25
		s-0.746,10.143-1.448,15.177c-0.701,5.035-1.622,10.04-2.753,14.997c-1.131,4.959-2.472,9.869-4.019,14.717
		c-1.546,4.846-3.297,9.627-5.245,14.327c-1.949,4.699-4.094,9.316-6.432,13.834c-2.339,4.519-4.869,8.937-7.583,13.238
		c-2.272,3.602-4.748,7.07-7.275,10.498c35.343-33.413,55.387-79.894,55.424-128.532c0-97.791-79.275-177.066-177.066-177.066
		C415.272,303.534,399.683,305.628,384.573,309.745L384.573,309.745z"/>
</g>
</svg>
