<?xml version="1.0" encoding="utf-8"?>
<!-- Generator: Adobe Illustrator 16.0.0, SVG Export Plug-In . SVG Version: 6.00 Build 0)  -->
<!DOCTYPE svg PUBLIC "-//W3C//DTD SVG 1.1//EN" "http://www.w3.org/Graphics/SVG/1.1/DTD/svg11.dtd">
<svg version="1.1" id="Layer_1" xmlns="http://www.w3.org/2000/svg" xmlns:xlink="http://www.w3.org/1999/xlink" x="0px" y="0px"
	 width="512px" height="512px" viewBox="0 0 512 512" enable-background="new 0 0 512 512" xml:space="preserve">
<g id="Layer_1_1_">
	<g id="Layer_2" display="none">
	</g>
	<g id="shadows">
		<g opacity="0.9">
			<g>
				<path fill="#B7B7B7" d="M466.5,381.5c0,48.6-39.4,88-88,88h-246c-48.602,0-88-39.4-88-88V164.833c0-48.601,39.398-88,88-88h246
					c48.6,0,88,39.399,88,88V381.5z"/>
			</g>
		</g>
		<g>
			<g>
				<path fill="#FFFFFF" d="M466.5,360.5c0,48.6-39.4,88-88,88h-246c-48.602,0-88-39.4-88-88V143.833c0-48.601,39.398-88,88-88h246
					c48.6,0,88,39.399,88,88V360.5z"/>
			</g>
		</g>
	</g>
	<radialGradient id="SVGID_1_" cx="254.5002" cy="254.335" r="203.7994" gradientUnits="userSpaceOnUse">
		<stop  offset="0" style="stop-color:#FFF7A9"/>
		<stop  offset="0.5" style="stop-color:#FFF100"/>
		<stop  offset="1" style="stop-color:#FFD700"/>
	</radialGradient>
	<path fill="url(#SVGID_1_)" stroke="#E2E2E2" stroke-width="10" stroke-miterlimit="10" d="M465.5,146v216.67
		c0,42.9-30.7,78.64-71.34,86.42c-5.391,1.04-10.96,1.58-16.66,1.58h-246c-5.69,0-11.26-0.54-16.65-1.58
		c-40.64-7.78-71.35-43.51-71.35-86.42V146c0-48.6,39.4-88,88-88h246c11.66,0,22.8,2.27,32.98,6.4
		C442.74,77.44,465.5,109.06,465.5,146z"/>
	
		<g id="svg2" xmlns:cc="http://creativecommons.org/ns#" xmlns:svg="http://www.w3.org/2000/svg" xmlns:inkscape="http://www.inkscape.org/namespaces/inkscape" xmlns:dc="http://purl.org/dc/elements/1.1/" xmlns:rdf="http://www.w3.org/1999/02/22-rdf-syntax-ns#" xmlns:sodipodi="http://sodipodi.sourceforge.net/DTD/sodipodi-0.dtd" sodipodi:docname="amazon.svg" inkscape:version="0.48.4 r9939" display="none">
		
			<sodipodi:namedview  bordercolor="#666666" pagecolor="#ffffff" inkscape:zoom="0.51420519" borderopacity="1.0" showgrid="false" inkscape:cy="331.75675" inkscape:cx="125.01135" id="base" inkscape:document-units="px" inkscape:pageshadow="2" inkscape:window-width="1360" inkscape:window-y="25" inkscape:current-layer="layer1" inkscape:window-height="719" inkscape:window-maximized="1" inkscape:window-x="0" inkscape:pageopacity="0.0">
			</sodipodi:namedview>
		<path display="inline" fill="#EF3A24" d="M50.502,119.833h409.995c-12.802-32.778-44.688-56-81.997-56h-246
			C95.188,63.833,63.304,87.055,50.502,119.833z"/>
		<g display="inline">
			<g>
				<rect x="172.5" y="147" fill="none" width="305" height="240"/>
				<text transform="matrix(1 0 0 1 172.4998 336.999)" fill="#FF9900" font-family="'Tahoma'" font-size="250">A</text>
			</g>
		</g>
	</g>
	<ellipse display="none" fill="#B4DFF7" cx="147.5" cy="178" rx="63" ry="61.5"/>
	<circle display="none" fill="#31C4E9" cx="146.5" cy="171.5" r="62"/>
</g>
<g id="Layer_3" display="none">
	<path display="inline" fill="#200A7F" stroke="#18E5EA" stroke-width="20" stroke-miterlimit="10" d="M401.137,212.167
		c5.104,15.338,7.863,31.744,7.863,48.795c0,85.328-69.173,154.5-154.5,154.5c-85.328,0-154.5-69.172-154.5-154.5
		s69.172-154.5,154.5-154.5c51.227,0,96.63,24.93,124.738,63.319"/>
	<path display="inline" fill="#EF0B79" d="M333.363,255.151c0,4.226-3.301,7.651-7.371,7.651H174.872
		c-4.072,0-7.372-3.425-7.372-7.651l0,0c0-4.226,3.3-7.651,7.372-7.651h151.119C330.063,247.5,333.363,250.925,333.363,255.151
		L333.363,255.151z"/>
	<path display="inline" fill="#EF0B79" d="M333.363,284.797c0,4.227-3.301,7.65-7.371,7.65H174.872c-4.072,0-7.372-3.426-7.372-7.65
		l0,0c0-4.227,3.3-7.65,7.372-7.65h151.119C330.063,277.146,333.363,280.57,333.363,284.797L333.363,284.797z"/>
	<path display="inline" fill="#EF0B79" d="M333.363,313.008c0,4.227-3.301,7.651-7.371,7.651H174.872
		c-4.072,0-7.372-3.427-7.372-7.651l0,0c0-4.225,3.3-7.65,7.372-7.65h151.119C330.063,305.357,333.363,308.783,333.363,313.008
		L333.363,313.008z"/>
	<path display="inline" fill="#EF0B79" d="M333.363,338.352c0,4.229-3.301,7.651-7.371,7.651H174.872
		c-4.072,0-7.372-3.426-7.372-7.651l0,0c0-4.225,3.3-7.647,7.372-7.647h151.119C330.063,330.701,333.363,334.127,333.363,338.352
		L333.363,338.352z"/>
	<polygon display="inline" fill="#18E5EA" points="394.991,191.49 320.191,165.163 380.392,113.547 	"/>
	<g display="inline">
		<g>
			<g>
				<path fill="#E9F21C" d="M241.48,239.22c-2.284,0-4.444-1.068-5.833-2.901l-18.76-24.775c-2.44-3.222-1.805-7.81,1.417-10.251
					c3.229-2.442,7.813-1.803,10.253,1.417l12.338,16.293l31.033-49.826c2.135-3.429,6.646-4.478,10.082-2.344
					c3.432,2.135,4.479,6.65,2.342,10.08l-36.658,58.857c-1.272,2.047-3.472,3.333-5.879,3.442
					C241.702,239.217,241.592,239.22,241.48,239.22z"/>
			</g>
		</g>
	</g>
</g>
<g id="Layer_2_1_" display="none">
	<rect x="121" y="171.5" display="inline" fill="none" width="298" height="251"/>
	
		<text transform="matrix(1 0 0 1 120.9998 348.998)" display="inline" fill="#EF3A24" font-family="'MyriadPro-Regular'" font-size="250">24</text>
	<circle display="inline" fill="#FFFFFF" cx="138.25" cy="91.833" r="17.25"/>
	<circle display="inline" fill="#FFFFFF" cx="185.25" cy="91.833" r="17.25"/>
	<circle display="inline" fill="#FFFFFF" cx="232.25" cy="91.833" r="17.25"/>
	<circle display="inline" fill="#FFFFFF" cx="278.25" cy="91.833" r="17.25"/>
	<circle display="inline" fill="#FFFFFF" cx="323.25" cy="91.833" r="17.25"/>
	<circle display="inline" fill="#FFFFFF" cx="368.25" cy="91.833" r="17.25"/>
</g>
<g transform="translate(-1)">
	<g>
		<g>
			<circle fill="#B4B4B3" cx="249.216" cy="237.889" r="143.955"/>
			<circle fill="#B4B4B3" cx="314.855" cy="177.786" r="26.174"/>
			<circle fill="#B4B4B3" cx="346.756" cy="234.352" r="16.358"/>
		</g>
		<path fill="#3A3E48" d="M303.067,104.409l4.395-21.609c0.707-3.539-1.574-6.987-5.109-7.716l-38.473-7.823
			c-3.539-0.708-6.986,1.574-7.716,5.108l-4.395,21.609"/>
	</g>
	<path fill="#FFBA00" d="M482.108,44.861c0,0-54.223,0.93-71.904,11.044c-8.143,4.609-13.197,13.224-13.25,22.582
		c-0.051,9.358,4.908,18.028,13,22.727s18.08,4.709,26.184,0.027C453.819,91.128,482.108,44.861,482.108,44.861z"/>
	<path id="SVGCleanerId_0" fill="#928170" d="M281.811,77.584c-1.699-0.345-3.193-1.353-4.152-2.8
		c-0.957-1.447-1.301-3.215-0.955-4.917l4.459-21.928c2.197-11.761,9.697-21.85,20.328-27.34
		c10.811-5.151,31.797-8.444,51.574,27.063c15.791,28.395,33.486,33.962,45.541,33.612c3.613-0.101,6.623,2.746,6.725,6.359
		c0.1,3.613-2.746,6.624-6.359,6.725c-15.68,0.431-38.359-6.202-57.346-40.333C330.52,34.079,318.918,26.8,307.172,32.39
		c-6.953,3.703-11.816,10.397-13.186,18.156l-4.459,21.929c-0.346,1.701-1.354,3.195-2.801,4.153
		C285.281,77.586,283.512,77.93,281.811,77.584L281.811,77.584z"/>
	<g>
		<path fill="#354A9F" d="M302.897,105.243l4.525-22.253c0.771-3.581-1.494-7.113-5.07-7.906l-38.473-7.823
			c-3.602-0.666-7.066,1.701-7.755,5.299L251.6,94.812"/>
		<path fill="#583EAB" d="M390.283,266.574c-15.842,77.908-91.842,128.223-169.751,112.381
			c-77.91-15.842-128.225-91.842-112.383-169.75c15.842-77.91,91.842-128.225,169.751-112.384
			c37.436,7.565,70.324,29.714,91.408,61.561C390.395,190.229,397.94,229.156,390.283,266.574L390.283,266.574z"/>
		<path fill="#7B54BF" d="M360.725,280.594c-7.85,38.816-31.381,72.666-65.031,93.549c-69.256,23.627-145.22-8.465-176.562-74.59
			c-31.342-66.125-8.092-145.242,54.044-183.896c48.817-16.646,102.809-5.907,141.541,28.154
			C353.448,177.873,370.996,230.051,360.725,280.594L360.725,280.594z"/>
		<circle fill="#FFFFFF" cx="314.855" cy="177.786" r="26.174"/>
		<circle fill="#AA44B9" cx="346.756" cy="234.352" r="16.358"/>
	</g>
	<path fill="#F9D842" d="M482.108,44.861c0,0-28.303,46.261-45.98,56.355c-6.006,3.447-13.133,4.366-19.814,2.556
		c-6.684-1.809-12.373-6.2-15.816-12.205c-0.666-1.171-1.221-2.402-1.656-3.676c-4.646-12.016,0.191-25.623,11.381-32.007
		c9.064-5.168,27.719-7.919,43.713-9.407C469.237,45.115,482.108,44.861,482.108,44.861z"/>
	<path fill="#FFE749" d="M453.934,46.477c-9.836,14.226-24.154,33.083-34.658,39.093c-6.195,3.57-13.598,4.411-20.436,2.321
		c-4.646-12.016,0.191-25.623,11.381-32.007C419.285,50.717,437.942,47.966,453.934,46.477z"/>
	<g>
		<path id="SVGCleanerId_0_1_" fill="#928170" d="M281.811,77.584c-1.699-0.345-3.193-1.353-4.152-2.8
			c-0.957-1.447-1.301-3.215-0.955-4.917l4.459-21.928c2.197-11.761,9.697-21.85,20.328-27.34
			c10.811-5.151,31.797-8.444,51.574,27.063c15.791,28.395,33.486,33.962,45.541,33.612c3.613-0.101,6.623,2.746,6.725,6.359
			c0.1,3.613-2.746,6.624-6.359,6.725c-15.68,0.431-38.359-6.202-57.346-40.333C330.52,34.079,318.918,26.8,307.172,32.39
			c-6.953,3.703-11.816,10.397-13.186,18.156l-4.459,21.929c-0.346,1.701-1.354,3.195-2.801,4.153
			C285.281,77.586,283.512,77.93,281.811,77.584L281.811,77.584z"/>
	</g>
	<g>
		<path d="M308.336,209.847c17.707,3.6,34.98-7.835,38.58-25.542c3.6-17.707-7.836-34.98-25.543-38.581
			c-17.705-3.6-34.979,7.835-38.58,25.542C279.217,188.969,290.643,206.228,308.336,209.847L308.336,209.847z M318.766,158.549
			c10.625,2.16,17.486,12.525,15.326,23.149s-12.525,17.485-23.148,15.324c-10.623-2.16-17.486-12.524-15.326-23.147
			C297.789,163.257,308.145,156.401,318.766,158.549L318.766,158.549z"/>
		<path d="M324.313,229.79c-2.52,12.395,5.484,24.486,17.879,27.007c12.395,2.52,24.486-5.486,27.008-17.88
			c2.52-12.396-5.484-24.486-17.881-27.007C338.928,209.405,326.846,217.404,324.313,229.79z M348.711,224.735
			c5.313,1.08,8.744,6.261,7.664,11.574c-1.08,5.312-6.264,8.741-11.574,7.662c-5.313-1.081-8.742-6.263-7.662-11.573
			C338.223,227.088,343.401,223.661,348.711,224.735z"/>
		<path d="M353.065,47.662c-19.777-35.506-40.764-32.214-51.574-27.063c-10.631,5.49-18.131,15.579-20.328,27.339l-3.156,15.517
			l-12.824-2.608c-7.08-1.431-13.984,3.139-15.431,10.217l-3.33,16.376c-76.735,1.422-140.109,60.36-147.086,136.791
			c-6.977,76.432,44.678,145.87,119.888,161.163c75.209,15.293,149.879-28.459,173.305-101.547
			c23.428-73.085-11.898-152.091-81.984-183.369l3.33-16.375c1.432-7.082-3.139-13.985-10.219-15.433l-12.824-2.607l3.156-15.517
			c1.369-7.758,6.232-14.454,13.186-18.156c11.746-5.59,23.348,1.688,34.453,21.634c17.287,31.077,37.621,39.332,52.959,40.239
			c0.094,0.17,0.141,0.356,0.236,0.525c4.285,7.532,11.404,13.038,19.773,15.292c0.703,0.192,1.414,0.359,2.121,0.503
			c7.748,1.588,15.813,0.286,22.668-3.663c18.602-10.638,45.324-53.765,48.311-58.646c1.246-2.037,1.283-4.59,0.098-6.664
			c-1.186-2.072-3.406-3.335-5.793-3.294c-5.727,0.098-56.441,1.268-75.039,11.908c-10.869,6.104-17.211,17.957-16.258,30.386
			C379.502,78.443,365.68,70.347,353.065,47.662z M383.871,265.27c-15.121,74.369-87.668,122.398-162.036,107.275
			c-74.369-15.121-122.398-87.668-107.276-162.035c15.122-74.369,87.669-122.399,162.037-107.277
			C350.912,118.432,398.903,190.92,383.871,265.27L383.871,265.27z M298.176,95.615c-12.412-4.324-25.354-6.955-38.473-7.823
			l2.871-14.12l38.473,7.823L298.176,95.615z M413.453,61.584c10.471-5.986,38.014-8.7,56.393-9.707
			c-10.188,15.333-26.492,37.697-36.963,43.683c-9.381,5.359-21.332,2.102-26.695-7.278
			C400.824,78.903,404.076,66.952,413.453,61.584z"/>
	</g>
</g>
</svg>
