<?xml version="1.0" encoding="utf-8"?>
<!-- Generator: Adobe Illustrator 16.0.0, SVG Export Plug-In . SVG Version: 6.00 Build 0)  -->
<!DOCTYPE svg PUBLIC "-//W3C//DTD SVG 1.1//EN" "http://www.w3.org/Graphics/SVG/1.1/DTD/svg11.dtd">
<svg version="1.1" id="Layer_1" xmlns="http://www.w3.org/2000/svg" xmlns:xlink="http://www.w3.org/1999/xlink" x="0px" y="0px"
	 width="512px" height="512px" viewBox="0 0 512 512" enable-background="new 0 0 512 512" xml:space="preserve">
<g id="Layer_1_1_">
	<g id="Layer_2" display="none">
	</g>
	<g id="shadows">
		<g opacity="0.9">
			<g>
				<path fill="#B7B7B7" d="M466.5,381.5c0,48.6-39.4,88-88,88h-246c-48.602,0-88-39.4-88-88V164.833c0-48.601,39.398-88,88-88h246
					c48.6,0,88,39.399,88,88V381.5z"/>
			</g>
		</g>
		<g>
			<g>
				<path fill="#FFFFFF" d="M466.5,360.5c0,48.6-39.4,88-88,88h-246c-48.602,0-88-39.4-88-88V143.833c0-48.601,39.398-88,88-88h246
					c48.6,0,88,39.399,88,88V360.5z"/>
			</g>
		</g>
	</g>
	<radialGradient id="SVGID_1_" cx="254.5002" cy="254.3335" r="203.7987" gradientUnits="userSpaceOnUse">
		<stop  offset="0" style="stop-color:#64C08A"/>
		<stop  offset="0.5" style="stop-color:#00A550"/>
		<stop  offset="1" style="stop-color:#00914C"/>
	</radialGradient>
	<path fill="url(#SVGID_1_)" stroke="#E2E2E2" stroke-width="9" stroke-miterlimit="10" d="M465.5,362.667c0,48.6-39.399,88-88,88
		h-246c-48.602,0-88-39.4-88-88V146c0-48.601,39.398-88,88-88h246c48.601,0,88,39.399,88,88V362.667z"/>
</g>
<path id="path4168" fill="#FFFFFF" d="M270.238,145.463c-0.679,0.001-6.984,1.026-14.014,2.277s-21.899,3.844-33.045,5.762
	s-21.135,3.72-22.197,4.004c-1.063,0.284-10.916,2.024-21.895,3.865c-10.979,1.841-20.564,3.543-21.301,3.783
	s-4.719,0.981-8.85,1.65l-7.512,1.217v84.014c0,46.207,0.05,84.016,0.111,84.021s4.048,0.724,8.857,1.594s17.825,3.17,28.924,5.109
	s20.583,3.652,21.076,3.807s10.281,1.9,21.75,3.883s26.905,4.678,34.305,5.99c7.398,1.313,13.807,2.406,14.238,2.432
	c0.745,0.043,0.785-5.318,0.785-106.682V145.463H270.238z M278.646,160.26v7.848v7.848h15.246h15.248v11.211v11.211h-15.248h-15.246
	v4.037v4.035h15.246h15.248v11.211v11.211h-15.248h-15.246v4.035v4.037h15.246h15.248v11.211v11.211h-15.248h-15.246v4.035v4.035
	h15.246h15.248v11.205v11.205l-15.135,0.119l-15.135,0.117l-0.129,3.924l-0.131,3.924h15.264h15.266v11.205v11.205l-15.135,0.117
	l-15.135,0.119l-0.123,7.734l-0.123,7.736h45.977h45.975v-87.893V160.26h-45.965H278.646z M317.212,175.955h18.834h18.834v11.211
	v11.211h-18.834h-18.834v-11.211V175.955z M317.212,206.449h18.834h18.834v11.211v11.211h-18.834h-18.834V217.66V206.449z
	 M232.454,211.863l-0.707,1.666c-0.39,0.916-1.11,2.723-1.602,4.018s-1.065,2.355-1.277,2.355c-0.213,0-0.53,0.453-0.705,1.008
	c-0.547,1.731-5.375,12.445-7.832,17.377c-2.539,5.096-5.361,11.575-5.365,12.318c-0.004,0.609,5.148,11.834,7.006,15.262
	c0.802,1.48,1.86,3.724,2.354,4.986s2.048,4.693,3.455,7.623c3.023,6.298,4.76,10.551,4.439,10.871
	c-0.433,0.433-5.36,0.439-8.891,0.014c-1.938-0.234-4.086-0.718-4.775-1.074c-1.654-0.855-3.157-3.604-6.119-11.189
	c-3.246-8.311-5.84-13.697-6.594-13.697c-0.876,0-2.556,3.552-9.23,19.508l-1.689,4.035l-1.973,0.148
	c-1.87,0.141-11.638-0.695-11.967-1.025c-0.086-0.086,0.365-1.181,1-2.434s1.57-3.341,2.082-4.641c0.511-1.3,1.19-2.665,1.51-3.035
	c0.318-0.37,1.43-2.59,2.469-4.934s3.589-7.797,5.668-12.119l3.779-7.859l-1.561-3.873c-0.859-2.129-2.157-5.05-2.885-6.49
	c-0.729-1.44-2.638-5.847-4.242-9.793c-1.605-3.946-3.313-7.982-3.797-8.969c-1.581-3.227-2.407-6.15-1.885-6.672
	c0.292-0.292,3.008-0.482,7.016-0.49l6.539-0.014l1.117,2.916c0.614,1.603,2.075,5.538,3.246,8.744
	c3.368,9.228,4.242,11.211,4.939,11.211c0.913,0,4.063-6.124,6.559-12.752c1.167-3.099,2.696-6.842,3.398-8.318
	c0.701-1.476,1.275-2.919,1.275-3.207c0-0.351,1.596-0.614,4.82-0.795c2.651-0.149,6.082-0.362,7.623-0.475L232.454,211.863z
	 M317.212,236.943h18.834h18.834v11.211v11.211h-18.834h-18.834v-11.211V236.943z M317.212,267.436h18.834h18.834v11.211v11.211
	h-18.834h-18.834v-11.211V267.436z M317.212,297.93h18.834h18.834v11.211v11.211h-18.834h-18.834v-11.211V297.93z"/>
</svg>
