<?xml version="1.0" encoding="utf-8"?>
<!-- Generator: Adobe Illustrator 16.0.0, SVG Export Plug-In . SVG Version: 6.00 Build 0)  -->
<!DOCTYPE svg PUBLIC "-//W3C//DTD SVG 1.1//EN" "http://www.w3.org/Graphics/SVG/1.1/DTD/svg11.dtd">
<svg version="1.1" id="Layer_1" xmlns="http://www.w3.org/2000/svg" xmlns:xlink="http://www.w3.org/1999/xlink" x="0px" y="0px"
	 width="512px" height="512px" viewBox="0 0 512 512" enable-background="new 0 0 512 512" xml:space="preserve">
<g id="Layer_1_1_">
	<g id="Layer_2" display="none">
	</g>
	<g id="shadows">
		<g opacity="0.9">
			<g>
				<path fill="#B7B7B7" d="M466.5,381.5c0,48.6-39.4,88-88,88h-246c-48.603,0-88-39.4-88-88V164.833c0-48.601,39.397-88,88-88h246
					c48.6,0,88,39.399,88,88V381.5z"/>
			</g>
		</g>
		<g>
			<g>
				<path fill="#FFFFFF" d="M466.5,360.5c0,48.6-39.4,88-88,88h-246c-48.603,0-88-39.4-88-88V143.833c0-48.601,39.397-88,88-88h246
					c48.6,0,88,39.399,88,88V360.5z"/>
			</g>
		</g>
	</g>
	<path fill="#3A52A4" stroke="#E2E2E2" stroke-width="9" stroke-miterlimit="10" d="M465.5,362.667c0,48.6-39.399,88-88,88h-246
		c-48.603,0-88-39.4-88-88V146c0-48.601,39.397-88,88-88h246c48.601,0,88,39.399,88,88V362.667z"/>
</g>
<rect x="50" y="108.5" fill="none" width="411" height="295"/>
<text transform="matrix(1 0 0 1 140.9524 179.499)" fill="#FFFFFF" font-family="'MyriadPro-Bold'" font-size="100">Libre </text>
<text transform="matrix(14.7626 0 0 1 125.7502 299.499)" fill="#FFFFFF" font-family="'MyriadPro-Bold'" font-size="100"> </text>
<path id="path4168" fill="#FFFFFF" d="M167.635,331.975c-0.209,0-2.153,0.316-4.321,0.702s-6.753,1.187-10.189,1.777
	c-3.438,0.591-6.519,1.147-6.846,1.235c-0.327,0.086-3.365,0.623-6.751,1.189c-3.386,0.568-6.342,1.094-6.568,1.168
	c-0.229,0.073-1.456,0.303-2.729,0.508l-2.315,0.375v25.909c0,14.249,0.016,25.908,0.035,25.91c0.019,0.001,1.247,0.224,2.73,0.491
	s5.497,0.978,8.919,1.574c3.423,0.6,6.348,1.127,6.5,1.176c0.152,0.047,3.17,0.585,6.707,1.195c3.537,0.611,8.297,1.442,10.579,1.85
	c2.282,0.404,4.258,0.74,4.391,0.749c0.229,0.014,0.242-1.642,0.242-32.898v-32.911H167.635L167.635,331.975z M170.229,336.538
	v2.419v2.421h4.702h4.702v3.457v3.457h-4.702h-4.702v1.245v1.245h4.702h4.702v3.456v3.457h-4.702h-4.702v1.244v1.246h4.702h4.702
	v3.457v3.457h-4.702h-4.702v1.244v1.244h4.702h4.702v3.455v3.455l-4.667,0.037l-4.667,0.035l-0.04,1.209l-0.041,1.211h4.708h4.708
	v3.455v3.455l-4.667,0.037l-4.667,0.037l-0.038,2.385l-0.038,2.387h14.179h14.178v-27.105v-27.104h-14.174L170.229,336.538
	L170.229,336.538z M182.122,341.378h5.808h5.808v3.457v3.457h-5.808h-5.808v-3.457V341.378L182.122,341.378z M182.122,350.782h5.808
	h5.808v3.457v3.456h-5.808h-5.808v-3.456V350.782L182.122,350.782z M155.984,352.451l-0.218,0.514
	c-0.121,0.282-0.343,0.84-0.494,1.238c-0.151,0.4-0.329,0.729-0.394,0.729c-0.066,0-0.164,0.139-0.218,0.311
	c-0.168,0.533-1.658,3.838-2.415,5.357c-0.783,1.571-1.654,3.569-1.654,3.799c-0.001,0.188,1.587,3.649,2.16,4.707
	c0.248,0.457,0.574,1.147,0.726,1.537c0.152,0.391,0.631,1.446,1.065,2.352c0.933,1.941,1.468,3.254,1.369,3.354
	c-0.134,0.133-1.653,0.135-2.742,0.004c-0.599-0.072-1.26-0.223-1.474-0.332c-0.51-0.264-0.974-1.11-1.887-3.451
	c-1.001-2.562-1.801-4.223-2.033-4.223c-0.271,0-0.788,1.096-2.847,6.016l-0.521,1.244l-0.608,0.047
	c-0.577,0.043-3.59-0.215-3.691-0.316c-0.025-0.025,0.113-0.363,0.309-0.751c0.195-0.386,0.483-1.028,0.642-1.431
	s0.367-0.822,0.466-0.938c0.099-0.113,0.44-0.798,0.762-1.521c0.319-0.723,1.106-2.402,1.748-3.736l1.166-2.423l-0.481-1.194
	c-0.265-0.656-0.665-1.558-0.89-2.002c-0.226-0.443-0.813-1.803-1.309-3.02s-1.021-2.461-1.171-2.766
	c-0.487-0.996-0.742-1.896-0.582-2.059c0.09-0.092,0.928-0.148,2.164-0.151l2.018-0.005l0.344,0.9
	c0.188,0.494,0.64,1.707,1.001,2.695c1.039,2.847,1.308,3.457,1.522,3.457c0.282,0,1.253-1.889,2.023-3.934
	c0.36-0.955,0.831-2.109,1.047-2.564s0.394-0.899,0.394-0.987c0-0.109,0.492-0.189,1.486-0.245c0.818-0.046,1.876-0.112,2.352-0.146
	L155.984,352.451z M182.122,360.186h5.808h5.808v3.457v3.457h-5.808h-5.808v-3.457V360.186L182.122,360.186z M182.122,369.589h5.808
	h5.808v3.456v3.458h-5.808h-5.808v-3.458V369.589L182.122,369.589z M182.122,378.992h5.808h5.808v3.457v3.458h-5.808h-5.808v-3.458
	V378.992L182.122,378.992z"/>
<path id="rect2993" fill="#FFFFFF" d="M267.354,329.229c-0.151-0.149-42.835,7.332-43.134,7.563
	c-0.159,0.122-0.191,5.876-0.159,28.188l0.041,28.035l21.253,3.772c11.689,2.075,21.433,3.761,21.652,3.744l0.396-0.028
	l0.041-35.572C267.465,345.367,267.424,329.301,267.354,329.229z M269.949,339.372v1.272v1.273l13.932,0.079l13.928,0.08
	l0.039,16.317c0.021,8.976,0.076,16.41,0.117,16.523c0.057,0.148,0.416,0.193,1.316,0.159l1.233-0.047V357.2v-17.83h-15.283h-15.282
	V339.372z M269.949,344.467l-0.044,2.694c-0.028,1.868,0.013,2.729,0.136,2.806c0.1,0.063,0.44,0.051,0.762-0.023
	c0.318-0.074,0.813-0.137,1.096-0.139l0.517-0.004l0.041,4.975l0.041,4.977l5.016,0.078l5.014,0.08l-0.053,0.875
	c-0.029,0.482-0.231,1.413-0.449,2.068c-1.018,3.063-3.434,5.476-6.489,6.476c-1.068,0.351-1.554,0.418-2.878,0.401
	c-0.877-0.01-1.844-0.039-2.147-0.063l-0.559-0.046v1.434v1.432l8.836,0.08l8.836,0.08v1.115v1.113l-8.836,0.08l-8.836,0.079v2.547
	v2.547l8.836,0.08l8.836,0.079v1.115v1.113l-8.836,0.08l-8.836,0.079l-0.041,3.658c-0.025,2.013-0.011,3.749,0.032,3.86
	c0.063,0.164,2.59,0.195,12.779,0.162l12.701-0.039v-22.926v-22.925h-12.736L269.949,344.467L269.949,344.467z M275.123,347.253
	h0.684c0.99,0,2.41,0.399,3.775,1.063c1.752,0.851,3.555,2.688,4.418,4.509c0.649,1.368,0.953,2.421,1.03,3.582l0.043,0.637
	l-4.866,0.043c-2.677,0.022-4.914-0.008-4.976-0.065c-0.059-0.061-0.108-2.281-0.108-4.938V347.253L275.123,347.253z
	 M246.173,352.998c1.686-0.014,2.315,0.039,2.882,0.189c1.968,0.522,3.286,1.764,3.966,3.731c0.32,0.931,0.373,1.384,0.373,3.308
	c0,2.504-0.153,3.258-0.996,4.892c-1.249,2.422-3.82,3.784-7.14,3.784c-0.858,0-1.36,0.067-1.438,0.192
	c-0.064,0.106-0.175,1.876-0.243,3.933c-0.069,2.059-0.16,3.834-0.204,3.947c-0.083,0.215-0.58,0.229-2.478,0.061l-1.035-0.092
	l-0.041-11.771c-0.022-6.516,0.021-11.834,0.099-11.911c0.076-0.075,1.957-0.179,4.18-0.228
	C244.931,353.016,245.611,353.004,246.173,352.998z M243.682,357.043l0.021,3.542c0.024,4.291,0.042,4.34,1.455,4.338
	c0.621-0.002,1.168-0.121,1.719-0.378c1.532-0.714,2.227-2.04,2.11-4.031c-0.087-1.502-0.576-2.469-1.541-3.033
	c-0.667-0.393-0.894-0.437-2.254-0.437L243.682,357.043z"/>
<path fill="#FFFFFF" d="M366.098,329.109l-40.104,7.609c-0.678,0.129-1.164,0.743-1.164,1.432v53.443
	c0,0.688,0.486,1.305,1.164,1.434l40.104,7.607c0.09,0.019,0.18,0.045,0.27,0.045c0.33,0,0.64-0.101,0.896-0.313
	c0.33-0.274,0.537-0.694,0.537-1.119v-68.752c0-0.425-0.207-0.846-0.537-1.118C366.932,329.104,366.518,329.031,366.098,329.109z
	 M370.663,337.659v10.024h17.188v2.865h-17.188v7.161h17.188v2.864h-17.188v7.162h17.188v2.865h-17.188v8.594h17.188v2.863h-17.188
	v10.026h21.484c1.578,0,2.865-1.286,2.865-2.864v-48.699c0-1.576-1.287-2.863-2.865-2.863L370.663,337.659L370.663,337.659z
	 M331.452,351.489h5.104l2.91,17.815c0.129,0.754,0.211,1.807,0.268,3.088h0.09c0.039-0.957,0.207-1.998,0.447-3.134l3.76-17.771
	h5.015l3.401,17.994c0.123,0.66,0.217,1.604,0.313,2.863h0.045c0.039-0.984,0.145-1.99,0.313-2.998l2.865-17.859h4.744
	l-5.504,26.767h-5.193l-3.446-17.144c-0.185-0.896-0.273-1.937-0.313-3.043h-0.045c-0.09,1.22-0.24,2.255-0.402,3.043l-3.537,17.144
	h-5.37L331.452,351.489z"/>
<rect x="122.5" y="218.5" fill="none" width="334" height="91"/>
<text transform="matrix(1 0 0 1 122.5002 289.499)" fill="#FFFFFF" font-family="'MyriadPro-Bold'" font-size="100">Office</text>
</svg>
