<?xml version="1.0" encoding="utf-8"?>
<!-- Generator: Adobe Illustrator 16.0.0, SVG Export Plug-In . SVG Version: 6.00 Build 0)  -->
<!DOCTYPE svg PUBLIC "-//W3C//DTD SVG 1.1//EN" "http://www.w3.org/Graphics/SVG/1.1/DTD/svg11.dtd">
<svg version="1.1" id="Layer_1" xmlns="http://www.w3.org/2000/svg" xmlns:xlink="http://www.w3.org/1999/xlink" x="0px" y="0px"
	 width="512px" height="512px" viewBox="0 0 512 512" enable-background="new 0 0 512 512" xml:space="preserve">
<g id="Layer_1_1_">
	<g id="Layer_2" display="none">
	</g>
	<g id="shadows">
		<g opacity="0.9">
			<g>
				<path fill="#B7B7B7" d="M466.5,381.5c0,48.6-39.4,88-88,88h-246c-48.602,0-88-39.4-88-88V164.833c0-48.601,39.398-88,88-88h246
					c48.6,0,88,39.399,88,88V381.5z"/>
			</g>
		</g>
		<g>
			<g>
				<path fill="#FFFFFF" d="M466.5,360.5c0,48.6-39.4,88-88,88h-246c-48.602,0-88-39.4-88-88V143.833c0-48.601,39.398-88,88-88h246
					c48.6,0,88,39.399,88,88V360.5z"/>
			</g>
		</g>
	</g>
	<radialGradient id="SVGID_1_" cx="254.5002" cy="254.3335" r="203.7987" gradientUnits="userSpaceOnUse">
		<stop  offset="0" style="stop-color:#FFE7A3"/>
		<stop  offset="0.5" style="stop-color:#FFCA05"/>
		<stop  offset="1" style="stop-color:#FAAC18"/>
	</radialGradient>
	<path fill="url(#SVGID_1_)" stroke="#E2E2E2" stroke-width="9" stroke-miterlimit="10" d="M465.5,362.667c0,48.6-39.399,88-88,88
		h-246c-48.602,0-88-39.4-88-88V146c0-48.601,39.398-88,88-88h246c48.601,0,88,39.399,88,88V362.667z"/>
</g>
<path id="path4213" sodipodi:nodetypes="csssssscccccsssscscccccccccccccccccccccsccccccccccsccccccccccccccccccccccccccccccsccsscccsccccscsssc" inkscape:connector-curvature="0" fill="#FEFEFE" d="
	M296.164,146.33c0,0-8.919,0.504-12.929,1.121c-4.011,0.617-8.81,1.424-10.664,1.793s-13.588,2.096-26.074,3.838
	c-12.487,1.742-24.828,3.57-27.424,4.064c-2.597,0.494-14.635,2.302-26.75,4.016c-12.116,1.713-28.706,4.091-36.865,5.283
	c-8.16,1.192-15.088,2.324-15.396,2.516l-0.563,0.35v86.715v86.713l0.467,0.289c0.256,0.158,5.364,0.964,11.352,1.791
	c5.986,0.827,11.203,1.628,11.592,1.779c0.388,0.151,12.021,1.893,25.85,3.869s36.675,5.293,50.77,7.369
	c14.094,2.076,26.132,3.902,26.75,4.061s6.282,1.061,12.588,2.006c6.305,0.945,16.494,1.74,17.298,1.768v-27.375l72.159-0.512
	l1.178-143.574l-73.337-0.834V146.33z M296.164,199.828h65.919v130.824h-65.919v-5.395h50.003l-0.344-26.074h-49.659v-7.637
	l50.858-0.23l-29.373-32.141l-21.485,24.693v-33.801v-6.857v1.52c0.966,0.835,2.82,2.41,4.552,3.498l3.146,1.979l2.924,0.91
	l2.922,0.912l3.773,0.467l3.775,0.465l4.291-0.506l4.291-0.506l3.051-1.061l3.049-1.061l3.721-2.482
	c2.046-1.365,4.229-3.056,4.854-3.758c0.623-0.702,1.562-1.894,2.086-2.65c0.523-0.757,1.577-2.615,2.342-4.129l1.389-2.752
	l0.48-3.1l0.482-3.098l-0.451-2.793l-0.449-2.793l-1.813-3.832l-1.814-3.834l-2.619-2.621l-2.621-2.621l-2.445-1.559l-2.443-1.559
	l-3.387-1.166l-3.385-1.164l-4.109-0.549l-4.111-0.547l-4.27,0.525l-4.27,0.525l-3.52,1.248l-3.52,1.248l-2.521,1.676l-3.38,1.676
	v2.359v-3.822V199.828z M296.164,214.928c0.077,0.259,0.105,0.478,0,0.635V214.928z M186.788,215.42h16.221
	c9.056,0,15.793,0.875,20.215,2.625c4.448,1.714,8.258,4.643,11.428,8.785c2.797,3.607,4.874,7.769,6.232,12.482
	s2.037,10.052,2.037,16.016c0,6.035-0.679,11.428-2.037,16.178c-1.358,4.714-3.436,8.873-6.232,12.48
	c-3.196,4.143-7.031,7.09-11.506,8.84c-4.475,1.715-11.188,2.57-20.137,2.57h-16.221V215.42z M202.169,231.008v48.801h5.514
	c6.285,0,11.08-2.09,14.383-6.268c3.329-4.178,4.994-10.249,4.994-18.213c0-7.928-1.65-13.963-4.953-18.105
	s-8.111-6.215-14.424-6.215H202.169z"/>
</svg>
