<?xml version="1.0" encoding="utf-8"?>
<!-- Generator: Adobe Illustrator 16.0.0, SVG Export Plug-In . SVG Version: 6.00 Build 0)  -->
<!DOCTYPE svg PUBLIC "-//W3C//DTD SVG 1.1//EN" "http://www.w3.org/Graphics/SVG/1.1/DTD/svg11.dtd">
<svg version="1.1" id="Layer_1" xmlns="http://www.w3.org/2000/svg" xmlns:xlink="http://www.w3.org/1999/xlink" x="0px" y="0px"
	 width="512px" height="512px" viewBox="0 0 512 512" enable-background="new 0 0 512 512" xml:space="preserve">
<g id="Layer_1_1_">
	<g id="Layer_2" display="none">
	</g>
	<g id="shadows">
		<g opacity="0.9">
			<g>
				<path fill="#B7B7B7" d="M466.5,381.5c0,48.6-39.4,88-88,88h-246c-48.602,0-88-39.4-88-88V164.833c0-48.601,39.398-88,88-88h246
					c48.6,0,88,39.399,88,88V381.5z"/>
			</g>
		</g>
		<g>
			<g>
				<path fill="#FFFFFF" d="M466.5,360.5c0,48.6-39.4,88-88,88h-246c-48.602,0-88-39.4-88-88V143.833c0-48.601,39.398-88,88-88h246
					c48.6,0,88,39.399,88,88V360.5z"/>
			</g>
		</g>
	</g>
	<radialGradient id="SVGID_1_" cx="254.5002" cy="254.3335" r="203.7987" gradientUnits="userSpaceOnUse">
		<stop  offset="0" style="stop-color:#F69453"/>
		<stop  offset="0.5" style="stop-color:#F37521"/>
		<stop  offset="1" style="stop-color:#D4622A"/>
	</radialGradient>
	<path fill="url(#SVGID_1_)" stroke="#E2E2E2" stroke-width="9" stroke-miterlimit="10" d="M465.5,362.667c0,48.6-39.399,88-88,88
		h-246c-48.602,0-88-39.4-88-88V146c0-48.601,39.398-88,88-88h246c48.601,0,88,39.399,88,88V362.667z"/>
</g>
<path id="rect2993" fill="#FFFFFF" d="M265.457,145.229c-0.454-0.454-128.483,21.992-129.381,22.684
	c-0.477,0.367-0.573,17.628-0.477,84.555l0.121,84.096l63.75,11.316c35.063,6.225,64.286,11.279,64.943,11.232l1.193-0.086
	l0.121-106.703C265.795,193.636,265.673,145.444,265.457,145.229z M273.248,175.654v3.82v3.82l41.785,0.238l41.783,0.24
	l0.117,48.945c0.064,26.921,0.223,49.225,0.352,49.564c0.169,0.449,1.244,0.58,3.941,0.479l3.707-0.141v-53.482v-53.484h-45.842
	H273.248z M273.248,190.936l-0.131,8.082c-0.092,5.608,0.033,8.186,0.406,8.416c0.296,0.183,1.322,0.15,2.281-0.072
	c0.958-0.223,2.438-0.412,3.287-0.418l1.545-0.01l0.127,14.922l0.125,14.924l15.043,0.238l15.041,0.238l-0.16,2.627
	c-0.089,1.444-0.697,4.236-1.35,6.203c-3.05,9.189-10.298,16.424-19.463,19.424c-3.209,1.051-4.661,1.254-8.633,1.207
	c-2.627-0.031-5.528-0.117-6.447-0.193l-1.672-0.139v4.299v4.297l26.504,0.238l26.502,0.24v3.342v3.344l-26.502,0.238l-26.504,0.238
	v7.641v7.641l26.504,0.238l26.502,0.238v3.344v3.342l-26.502,0.24l-26.504,0.238l-0.129,10.973
	c-0.071,6.035-0.023,11.246,0.105,11.582c0.188,0.489,7.767,0.586,38.332,0.488l38.096-0.121v-68.766v-68.764h-38.201H273.248z
	 M288.768,199.293h2.049c2.972,0,7.226,1.197,11.322,3.186c5.26,2.554,10.662,8.066,13.256,13.527
	c1.948,4.104,2.857,7.26,3.092,10.744l0.127,1.91l-14.598,0.127c-8.029,0.069-14.743-0.021-14.922-0.199s-0.326-6.844-0.326-14.811
	V199.293z M201.926,216.527c5.057-0.042,6.948,0.117,8.646,0.568c5.903,1.57,9.856,5.289,11.896,11.195
	c0.964,2.791,1.117,4.151,1.117,9.92c0,7.51-0.461,9.772-2.986,14.672c-3.745,7.264-11.461,11.354-21.416,11.354
	c-2.576,0-4.08,0.202-4.313,0.578c-0.196,0.317-0.525,5.625-0.73,11.795c-0.206,6.17-0.48,11.497-0.611,11.838
	c-0.249,0.648-1.74,0.686-7.43,0.18l-3.104-0.275l-0.123-35.311c-0.068-19.543,0.063-35.495,0.293-35.725
	c0.228-0.228,5.869-0.536,12.537-0.684C198.202,216.578,200.24,216.542,201.926,216.527z M194.455,228.66l0.064,10.623
	c0.075,12.871,0.125,13.017,4.365,13.01c1.864-0.003,3.505-0.362,5.156-1.131c4.597-2.141,6.68-6.119,6.334-12.092
	c-0.262-4.507-1.731-7.403-4.623-9.102c-2-1.175-2.679-1.306-6.76-1.307L194.455,228.66z"/>
</svg>
