<?xml version="1.0" encoding="utf-8"?>
<!-- Generator: Adobe Illustrator 16.0.0, SVG Export Plug-In . SVG Version: 6.00 Build 0)  -->
<!DOCTYPE svg PUBLIC "-//W3C//DTD SVG 1.1//EN" "http://www.w3.org/Graphics/SVG/1.1/DTD/svg11.dtd">
<svg version="1.1" id="Layer_1" xmlns="http://www.w3.org/2000/svg" xmlns:xlink="http://www.w3.org/1999/xlink" x="0px" y="0px"
	 width="512px" height="512px" viewBox="0 0 512 512" enable-background="new 0 0 512 512" xml:space="preserve">
<g id="Layer_1_1_">
	<g id="Layer_2" display="none">
	</g>
	<g id="shadows">
		<g opacity="0.9">
			<g>
				<path fill="#B7B7B7" d="M466.5,381.5c0,48.6-39.4,88-88,88h-246c-48.603,0-88-39.4-88-88V164.833c0-48.601,39.397-88,88-88h246
					c48.6,0,88,39.399,88,88V381.5z"/>
			</g>
		</g>
		<g>
			<g>
				<path fill="#FFFFFF" d="M466.5,360.5c0,48.6-39.4,88-88,88h-246c-48.603,0-88-39.4-88-88V143.833c0-48.601,39.397-88,88-88h246
					c48.6,0,88,39.399,88,88V360.5z"/>
			</g>
		</g>
	</g>
	<linearGradient id="SVGID_1_" gradientUnits="userSpaceOnUse" x1="43.5002" y1="254.335" x2="465.5002" y2="254.335">
		<stop  offset="0.0056" style="stop-color:#8AD0C3"/>
		<stop  offset="0.5" style="stop-color:#00B6A9"/>
		<stop  offset="1" style="stop-color:#00A185"/>
	</linearGradient>
	<path fill="url(#SVGID_1_)" stroke="#E2E2E2" stroke-width="10" stroke-miterlimit="10" d="M465.5,146v216.67
		c0,23.01-8.83,43.96-23.31,59.65c-11.87,12.87-27.53,22.189-45.21,26.18c-6.271,1.42-12.78,2.17-19.48,2.17h-246
		c-48.6,0-88-39.4-88-88V146c0-47.12,37.04-85.59,83.59-87.89c1.46-0.07,2.93-0.11,4.41-0.11h246C426.1,58,465.5,97.4,465.5,146z"/>
</g>
<linearGradient id="SVGID_2_" gradientUnits="userSpaceOnUse" x1="256.0002" y1="353.335" x2="442.1907" y2="353.335">
	<stop  offset="0" style="stop-color:#F37E5F"/>
	<stop  offset="0.5" style="stop-color:#EC1C24"/>
	<stop  offset="1" style="stop-color:#CF232A"/>
</linearGradient>
<path fill="url(#SVGID_2_)" d="M442.191,422.32c-11.87,12.87-27.53,22.189-45.21,26.18c-6.271,1.42-12.78,2.17-19.48,2.17H256V256
	L442.191,422.32z"/>
<linearGradient id="SVGID_3_" gradientUnits="userSpaceOnUse" x1="256.0002" y1="292.8252" x2="465.5002" y2="292.8252">
	<stop  offset="0" style="stop-color:#FFF7A9"/>
	<stop  offset="0.5" style="stop-color:#FFF100"/>
	<stop  offset="1" style="stop-color:#FFD700"/>
</linearGradient>
<path fill="url(#SVGID_3_)" d="M465.5,163.33v199.34c0,23.01-8.83,43.96-23.31,59.65L256,256L465.5,163.33z"/>
<linearGradient id="SVGID_4_" gradientUnits="userSpaceOnUse" x1="127.0901" y1="157" x2="465.5002" y2="157">
	<stop  offset="0" style="stop-color:#2BC4F3"/>
	<stop  offset="0.5" style="stop-color:#00AEEE"/>
	<stop  offset="1" style="stop-color:#0095DA"/>
</linearGradient>
<path fill="url(#SVGID_4_)" d="M465.5,146v17.33L256,256L127.09,58.11c1.46-0.07,2.93-0.11,4.41-0.11h246
	C426.1,58,465.5,97.4,465.5,146z"/>
<linearGradient id="SVGID_5_" gradientUnits="userSpaceOnUse" x1="43.5002" y1="254.3896" x2="256.0002" y2="254.3896">
	<stop  offset="0" style="stop-color:#B07EB7"/>
	<stop  offset="0.5" style="stop-color:#8C3D96"/>
	<stop  offset="1" style="stop-color:#762A90"/>
</linearGradient>
<path fill="url(#SVGID_5_)" d="M256,256v194.67H131.5c-48.6,0-88-39.4-88-88V146c0-47.12,37.04-85.59,83.59-87.89L256,256z"/>
</svg>
