<?xml version="1.0" encoding="utf-8"?>
<!-- Generator: Adobe Illustrator 16.0.0, SVG Export Plug-In . SVG Version: 6.00 Build 0)  -->
<!DOCTYPE svg PUBLIC "-//W3C//DTD SVG 1.1//EN" "http://www.w3.org/Graphics/SVG/1.1/DTD/svg11.dtd">
<svg version="1.1" id="Layer_1" xmlns="http://www.w3.org/2000/svg" xmlns:xlink="http://www.w3.org/1999/xlink" x="0px" y="0px"
	 width="512px" height="512px" viewBox="0 0 512 512" enable-background="new 0 0 512 512" xml:space="preserve">
<g id="Layer_1_1_">
	<g id="Layer_2" display="none">
	</g>
	<g id="shadows">
		<g opacity="0.9">
			<g>
				<path fill="#B7B7B7" d="M466.5,164.83V360.5c0,13.45-3.02,26.2-8.42,37.6c-3.95,8.96-9.34,17.131-15.89,24.221
					c-11.87,12.87-27.53,22.189-45.21,26.18c-6.271,1.42-12.78,2.17-19.48,2.17h-246c-44.07,0-80.57-32.39-87-74.67V164.83
					c0-48.6,39.4-88,88-88h246c44.07,0,80.57,32.39,87,74.67C466.16,155.85,466.5,160.3,466.5,164.83z"/>
			</g>
		</g>
		<g>
			<g>
				<path fill="#FFFFFF" d="M466.5,143.83V360.5c0,13.45-3.02,26.2-8.42,37.6c-14.1,29.79-44.43,50.4-79.58,50.4h-246
					c-48.6,0-88-39.4-88-88V143.83c0-12.66,2.67-24.69,7.49-35.57c13.66-30.88,44.57-52.43,80.51-52.43h246
					C427.1,55.83,466.5,95.23,466.5,143.83z"/>
			</g>
		</g>
	</g>
	<path fill="#FDFCED" stroke="#E2E2E2" stroke-width="10" stroke-miterlimit="10" d="M465.5,146v216.67
		c0,12.6-2.65,24.59-7.42,35.43c-3.95,8.96-9.34,17.131-15.89,24.221c-11.87,12.87-27.53,22.189-45.21,26.18
		c-6.271,1.42-12.78,2.17-19.48,2.17h-246c-44.07,0-80.57-32.39-87-74.67c-0.27-1.81-0.49-3.65-0.65-5.5
		c-0.23-2.58-0.35-5.19-0.35-7.83V146c0-2.63,0.12-5.24,0.35-7.82c0.93-10.63,3.76-20.72,8.14-29.92
		c13.53-28.46,41.9-48.51,75.1-50.15c1.46-0.07,2.93-0.11,4.41-0.11h246C426.1,58,465.5,97.4,465.5,146z"/>
</g>
<g>
	<g>
		<g>
			<path fill="#18140B" d="M376.177,59.167H135.793c-35.119,0-65.324,21.067-78.671,51.255c-4.281,8.996-7.046,18.859-7.955,29.251
				v227.118c0.156,1.809,0.371,3.607,0.634,5.377c6.284,41.333,41.951,72.998,85.015,72.998h240.384
				c6.547,0,12.908-0.731,19.035-2.121c17.276-3.901,32.579-13.012,44.179-25.594c6.399-6.93,11.666-14.919,15.526-23.678
				c5.277-11.145,8.228-23.611,8.228-36.758v-211.82C462.167,97.684,423.666,59.167,376.177,59.167z M255.956,357.465
				c-97.014,0-175.666-102.424-175.666-102.424s78.651-102.424,175.666-102.424c97.032,0,175.676,102.424,175.676,102.424
				S352.988,357.465,255.956,357.465z"/>
			<path fill="#18140B" d="M252.74,174.906c-44.247,0-80.079,35.889-80.079,80.137c0,44.244,35.832,80.136,80.079,80.136
				c44.245,0,80.079-35.851,80.079-80.136C332.82,210.794,296.986,174.906,252.74,174.906z M286.834,258.258
				c-14.633,0-26.508-11.883-26.508-26.521c0-14.659,11.875-26.519,26.508-26.519c14.632,0,26.505,11.86,26.505,26.519
				C313.361,246.375,301.466,258.258,286.834,258.258z"/>
		</g>
	</g>
</g>
</svg>
