<?xml version="1.0" encoding="utf-8"?>
<!-- Generator: Adobe Illustrator 16.0.0, SVG Export Plug-In . SVG Version: 6.00 Build 0)  -->
<!DOCTYPE svg PUBLIC "-//W3C//DTD SVG 1.1//EN" "http://www.w3.org/Graphics/SVG/1.1/DTD/svg11.dtd">
<svg version="1.1" id="Layer_1" xmlns="http://www.w3.org/2000/svg" xmlns:xlink="http://www.w3.org/1999/xlink" x="0px" y="0px"
	 width="512px" height="512px" viewBox="0 0 512 512" enable-background="new 0 0 512 512" xml:space="preserve">
<g id="Layer_1_2_">
	<g id="Layer_1_1_">
		<g id="Layer_2" display="none">
		</g>
		<g id="shadows">
			<g opacity="0.9">
				<g>
					<path fill="#B7B7B7" d="M466.5,381.5c0,48.6-39.4,88-88,88h-246c-48.602,0-88-39.4-88-88V164.833c0-48.601,39.398-88,88-88h246
						c48.6,0,88,39.399,88,88V381.5z"/>
				</g>
			</g>
			<g>
				<g>
					<path fill="#FFFFFF" d="M466.5,360.5c0,48.6-39.4,88-88,88h-246c-48.602,0-88-39.4-88-88V143.833c0-48.601,39.398-88,88-88h246
						c48.6,0,88,39.399,88,88V360.5z"/>
				</g>
			</g>
		</g>
		<path fill="#60C7CB" stroke="#E2E2E2" stroke-width="7" stroke-miterlimit="10" d="M465.5,146v216.67c0,48.6-39.4,88-88,88h-246
			c-30.22,0-56.89-15.24-72.72-38.45c-9.65-14.109-15.28-31.17-15.28-49.55V146c0-48.6,39.4-88,88-88h246
			C426.1,58,465.5,97.4,465.5,146z"/>
	</g>
</g>
<linearGradient id="SVGID_1_" gradientUnits="userSpaceOnUse" x1="254.5002" y1="434" x2="254.5002" y2="434">
	<stop  offset="0" style="stop-color:#5B57A5"/>
	<stop  offset="0.5" style="stop-color:#2E3092"/>
	<stop  offset="1" style="stop-color:#474374"/>
</linearGradient>
<radialGradient id="SVGID_2_" cx="254.5002" cy="434" r="0" gradientUnits="userSpaceOnUse">
	<stop  offset="0" style="stop-color:#F37E5F"/>
	<stop  offset="0.5" style="stop-color:#EC1C24"/>
	<stop  offset="1" style="stop-color:#CF232A"/>
</radialGradient>
<path fill="url(#SVGID_1_)" stroke="url(#SVGID_2_)" stroke-width="16" stroke-miterlimit="10" d="M254.5,434"/>
<path fill="#FFFFFF" d="M153.324,214.756l36.759,14.702c7.998,3.197,17.108-0.712,20.329-8.732
	c3.221-8.021-0.688-17.162-8.732-20.405l-5.745-2.294c23.514-14.61,50.585-22.302,78.276-22.302c25.229,0,49.974,6.345,71.98,18.566
	c7.573,4.191,17.12,1.457,21.313-6.112c4.19-7.565,1.453-17.111-6.112-21.304c-26.704-14.725-56.705-22.481-87.181-22.481
	c-33.604,0-66.58,9.401-95.169,27.178l-0.941,0.589l1.802-9.045c1.683-8.476-3.821-16.726-12.296-18.408
	c-8.476-1.683-16.725,3.821-18.408,12.296l-7.34,36.572C140.159,202.05,145.296,211.547,153.324,214.756z"/>
<path fill="#FFFFFF" d="M357.269,286.084l-30.333-15.141c-8.323-4.163-18.482-0.762-22.67,7.587
	c-4.187,8.34-0.786,18.533,7.579,22.745l11.649,5.849l-5.709,2.963c-23.051,12.113-48.634,18.385-74.647,18.385
	c-25.078,0-49.817-5.841-72.186-17.11c-8.369-4.22-18.579-0.836-22.791,7.537c-4.211,8.364-0.832,18.575,7.542,22.795
	c27.11,13.635,57.103,20.668,87.435,20.668c29.487,0,58.529-6.677,84.974-19.493c-1.407,8.896,4.483,17.384,13.387,19.153
	c9.168,1.82,18.096-4.129,19.916-13.295l7.693-38.457C370.936,301.101,365.634,290.262,357.269,286.084z"/>
</svg>
