<?xml version="1.0" encoding="utf-8"?>
<!-- Generator: Adobe Illustrator 24.0.1, SVG Export Plug-In . SVG Version: 6.00 Build 0)  -->
<svg version="1.1" id="Layer_1" xmlns="http://www.w3.org/2000/svg" xmlns:xlink="http://www.w3.org/1999/xlink" x="0px" y="0px"
	 viewBox="0 0 512 512" style="enable-background:new 0 0 512 512;" xml:space="preserve">
<style type="text/css">
	.st0{display:none;}
	.st1{opacity:0.9;}
	.st2{fill:#B7B7B7;}
	.st3{fill:#FFFFFF;}
	.st4{fill:#FFFFFF;stroke:#7F7F7F;stroke-width:2;stroke-miterlimit:10;}
	.st5{fill:none;}
	.st6{opacity:0.75;fill:#FF8F08;enable-background:new    ;}
</style>
<g id="Layer_1_1_">
	<g id="Layer_2_1_" class="st0">
	</g>
	<g id="shadows">
		<g class="st1">
			<g>
				<path class="st2" d="M466.5,381.5c0,48.6-39.4,88-88,88h-246c-48.6,0-88-39.4-88-88V164.8c0-48.6,39.4-88,88-88h246
					c48.6,0,88,39.4,88,88V381.5z"/>
			</g>
		</g>
		<g>
			<g>
				<path class="st3" d="M466.5,360.5c0,48.6-39.4,88-88,88h-246c-48.6,0-88-39.4-88-88V143.8c0-48.6,39.4-88,88-88h246
					c48.6,0,88,39.4,88,88V360.5z"/>
			</g>
		</g>
	</g>
	<path class="st4" d="M465.5,362.7c0,48.6-39.4,88-88,88h-246c-48.6,0-88-39.4-88-88V146c0-48.6,39.4-88,88-88h246
		c48.6,0,88,39.4,88,88V362.7z"/>
</g>
<rect x="129.5" y="124.5" class="st5" width="255" height="248"/>
<path image-rendering="auto" color-rendering="auto" text-rendering="auto" shape-rendering="auto" class="st6" d="M160.3,127.8
	v27.4c95.8,0,173.4,77.6,173.4,173.4c0,0,0,0,0,0h27.4C361.1,217.7,271.2,127.8,160.3,127.8L160.3,127.8 M160.3,191.7v27.4
	c60.5,0,109.5,49,109.5,109.5v0h27.4C297.2,253,235.9,191.7,160.3,191.7L160.3,191.7 M192.2,264.7c-20.1,0-35.8,18.5-31.1,39.5
	c2.6,11.6,12,21,23.6,23.6c21,4.7,39.5-11,39.5-31.1C224.2,279,209.9,264.7,192.2,264.7"/>
</svg>
