<?xml version="1.0" encoding="utf-8"?>
<!-- Generator: Adobe Illustrator 24.0.1, SVG Export Plug-In . SVG Version: 6.00 Build 0)  -->
<svg version="1.1" id="Layer_1" xmlns="http://www.w3.org/2000/svg" xmlns:xlink="http://www.w3.org/1999/xlink" x="0px" y="0px"
	 viewBox="0 0 512 512" style="enable-background:new 0 0 512 512;" xml:space="preserve">
<style type="text/css">
	.st0{display:none;}
	.st1{opacity:0.9;}
	.st2{fill:#B7B7B7;}
	.st3{fill:#FFFFFF;}
	.st4{fill:#FFFFFF;stroke:#7F7F7F;stroke-width:2;stroke-miterlimit:10;}
	.st5{fill:none;}
	.st6{opacity:0.75;fill:#494949;enable-background:new    ;}
</style>
<g id="Layer_1_1_">
	<g id="Layer_2_1_" class="st0">
	</g>
	<g id="shadows">
		<g class="st1">
			<g>
				<path class="st2" d="M466.5,381.5c0,48.6-39.4,88-88,88h-246c-48.6,0-88-39.4-88-88V164.8c0-48.6,39.4-88,88-88h246
					c48.6,0,88,39.4,88,88V381.5z"/>
			</g>
		</g>
		<g>
			<g>
				<path class="st3" d="M466.5,360.5c0,48.6-39.4,88-88,88h-246c-48.6,0-88-39.4-88-88V143.8c0-48.6,39.4-88,88-88h246
					c48.6,0,88,39.4,88,88V360.5z"/>
			</g>
		</g>
	</g>
	<path class="st4" d="M465.5,362.7c0,48.6-39.4,88-88,88h-246c-48.6,0-88-39.4-88-88V146c0-48.6,39.4-88,88-88h246
		c48.6,0,88,39.4,88,88V362.7z"/>
</g>
<rect x="129.5" y="124.5" class="st5" width="255" height="248"/>
<path image-rendering="auto" color-rendering="auto" text-rendering="auto" shape-rendering="auto" class="st6" d="M376.7,124.5
	l-122.2,0.1l-67.8,137.8l-23.8-48.3h-30.6V232h21.8l32.6,66.1l76.7-155.7h98.1v17.9h15.3L376.7,124.5z M300.3,178.2
	c-25.4,0-45.8,24-45.8,53.7c0,29.8,20.4,53.7,45.8,53.7c11.8,0,22.4-5.3,30.6-13.9v13.9h15.3V178.2h-15.3v13.9
	C322.8,183.6,312.1,178.2,300.3,178.2 M300.3,196.1c16.9,0,30.6,16,30.6,35.8s-13.6,35.8-30.6,35.8s-30.6-16-30.6-35.8
	S283.4,196.1,300.3,196.1 M117.2,321.3c-0.1,0-0.2,4-0.2,9s0.1,9,0.2,9h274.7c0.1,0,0.2-4,0.2-9s-0.1-9-0.2-9H117.2z M239.4,375.1
	c-0.1,0-0.2,4-0.2,9s0.1,9,0.2,9h30.3c0.1,0,0.2-4,0.2-9s-0.1-9-0.2-9H239.4z"/>
</svg>
