<?xml version="1.0" encoding="utf-8"?>
<!-- Generator: Adobe Illustrator 24.0.1, SVG Export Plug-In . SVG Version: 6.00 Build 0)  -->
<svg version="1.1" id="Layer_1" xmlns="http://www.w3.org/2000/svg" xmlns:xlink="http://www.w3.org/1999/xlink" x="0px" y="0px"
	 viewBox="0 0 512 512" style="enable-background:new 0 0 512 512;" xml:space="preserve">
<style type="text/css">
	.st0{display:none;}
	.st1{opacity:0.9;}
	.st2{fill:#B7B7B7;}
	.st3{fill:#FFFFFF;}
	.st4{fill:#FFFFFF;stroke:#7F7F7F;stroke-width:2;stroke-miterlimit:10;}
	.st5{fill:none;}
	.st6{opacity:0.75;fill:#6AEF33;enable-background:new    ;}
</style>
<g id="Layer_1_1_">
	<g id="Layer_2_1_" class="st0">
	</g>
	<g id="shadows">
		<g class="st1">
			<g>
				<path class="st2" d="M466.5,381.5c0,48.6-39.4,88-88,88h-246c-48.6,0-88-39.4-88-88V164.8c0-48.6,39.4-88,88-88h246
					c48.6,0,88,39.4,88,88V381.5z"/>
			</g>
		</g>
		<g>
			<g>
				<path class="st3" d="M466.5,360.5c0,48.6-39.4,88-88,88h-246c-48.6,0-88-39.4-88-88V143.8c0-48.6,39.4-88,88-88h246
					c48.6,0,88,39.4,88,88V360.5z"/>
			</g>
		</g>
	</g>
	<path class="st4" d="M465.5,362.7c0,48.6-39.4,88-88,88h-246c-48.6,0-88-39.4-88-88V146c0-48.6,39.4-88,88-88h246
		c48.6,0,88,39.4,88,88V362.7z"/>
</g>
<rect x="129.5" y="124.5" class="st5" width="255" height="248"/>
<path id="path5845" class="st6" d="M253,127.6c-42.7,0-83.6,17.4-113.3,48.2l-39-39c-1.3-1.4-3.2-2.2-5.1-2.2c-6.4,0-9.6,7.8-5,12.3
	l39.6,39.6c-22.4,27.9-34.5,62.6-34.6,98.3v100.1h314.6V285c-0.1-35.7-12.3-70.4-34.6-98.2l39.7-39.7c4.6-4.5,1.5-12.3-5-12.3
	c-1.9,0-3.8,0.8-5.1,2.2L366.2,176C336.6,145.2,295.7,127.7,253,127.6z M253,141.9c79,0,143,64,143,143v85.8H110V285
	C110,206,174,141.9,253,141.9z M188.6,213.5c-11.8,0-21.5,9.6-21.5,21.5c0,11.8,9.6,21.5,21.5,21.5c11.8,0,21.5-9.6,21.5-21.5
	C210.1,223.1,200.5,213.5,188.6,213.5z M317.3,213.5c-11.8,0-21.5,9.6-21.5,21.5c0,11.8,9.6,21.5,21.5,21.5
	c11.8,0,21.5-9.6,21.5-21.5C338.8,223.1,329.2,213.5,317.3,213.5z"/>
</svg>
