<?xml version="1.0" encoding="utf-8"?>
<!-- Generator: Adobe Illustrator 24.0.1, SVG Export Plug-In . SVG Version: 6.00 Build 0)  -->
<svg version="1.1" id="Layer_1" xmlns="http://www.w3.org/2000/svg" xmlns:xlink="http://www.w3.org/1999/xlink" x="0px" y="0px"
	 viewBox="0 0 512 512" style="enable-background:new 0 0 512 512;" xml:space="preserve">
<style type="text/css">
	.st0{display:none;}
	.st1{opacity:0.9;}
	.st2{fill:#B7B7B7;}
	.st3{fill:#FFFFFF;}
	.st4{fill:#FFFFFF;stroke:#7F7F7F;stroke-width:2;stroke-miterlimit:10;}
	.st5{fill:none;}
	.st6{opacity:0.75;fill:#27C106;enable-background:new    ;}
</style>
<g id="Layer_1_1_">
	<g id="Layer_2_1_" class="st0">
	</g>
	<g id="shadows">
		<g class="st1">
			<g>
				<path class="st2" d="M466.5,381.5c0,48.6-39.4,88-88,88h-246c-48.6,0-88-39.4-88-88V164.8c0-48.6,39.4-88,88-88h246
					c48.6,0,88,39.4,88,88V381.5z"/>
			</g>
		</g>
		<g>
			<g>
				<path class="st3" d="M466.5,360.5c0,48.6-39.4,88-88,88h-246c-48.6,0-88-39.4-88-88V143.8c0-48.6,39.4-88,88-88h246
					c48.6,0,88,39.4,88,88V360.5z"/>
			</g>
		</g>
	</g>
	<path class="st4" d="M465.5,362.7c0,48.6-39.4,88-88,88h-246c-48.6,0-88-39.4-88-88V146c0-48.6,39.4-88,88-88h246
		c48.6,0,88,39.4,88,88V362.7z"/>
</g>
<rect x="129.5" y="124.5" class="st5" width="255" height="248"/>
<path class="st6" d="M283.2,119.9c-6.1,0-11,5.6-11,12.5v25H140.5c-6.1,0-11,5.6-11,12.5v212.5c0,6.9,4.9,12.5,11,12.5h186.6
	c6.1,0,11-5.6,11-12.5v-50h22c6.1,0,11-5.6,11-12.5V132.4c0-6.9-4.9-12.5-11-12.5h-22H283.2z M283.2,132.4H360v187.5h-22v-150
	c0-6.9-4.9-12.5-11-12.5C310,149.8,282.5,145.1,283.2,132.4 M140.5,169.9h186.6v212.5H140.5V169.9z M151.5,194.9v50h164.7v-50H151.5
	z M151.5,269.9v12.5h76.8v-12.5H151.5z M239.3,269.9v12.5h76.8v-12.5H239.3z M151.5,307.4v12.5h76.8v-12.5H151.5z M239.3,307.4v12.5
	h76.8v-12.5H239.3z M151.5,344.9v12.5h76.8v-12.5H151.5z M239.3,344.9v12.5h76.8v-12.5H239.3z"/>
</svg>
