<?xml version="1.0" encoding="utf-8"?>
<!-- Generator: Adobe Illustrator 24.0.1, SVG Export Plug-In . SVG Version: 6.00 Build 0)  -->
<svg version="1.1" id="Layer_1" xmlns="http://www.w3.org/2000/svg" xmlns:xlink="http://www.w3.org/1999/xlink" x="0px" y="0px"
	 viewBox="0 0 512 512" style="enable-background:new 0 0 512 512;" xml:space="preserve">
<style type="text/css">
	.st0{display:none;}
	.st1{opacity:0.9;}
	.st2{fill:#B7B7B7;}
	.st3{fill:#FFFFFF;}
	.st4{fill:#FFFFFF;stroke:#7F7F7F;stroke-width:2;stroke-miterlimit:10;}
	.st5{fill:none;}
	.st6{opacity:0.7;fill:#FF7900;enable-background:new    ;}
</style>
<g id="Layer_1_1_">
	<g id="Layer_2_1_" class="st0">
	</g>
	<g id="shadows">
		<g class="st1">
			<g>
				<path class="st2" d="M466.5,381.5c0,48.6-39.4,88-88,88h-246c-48.6,0-88-39.4-88-88V164.8c0-48.6,39.4-88,88-88h246
					c48.6,0,88,39.4,88,88V381.5z"/>
			</g>
		</g>
		<g>
			<g>
				<path class="st3" d="M466.5,360.5c0,48.6-39.4,88-88,88h-246c-48.6,0-88-39.4-88-88V143.8c0-48.6,39.4-88,88-88h246
					c48.6,0,88,39.4,88,88V360.5z"/>
			</g>
		</g>
	</g>
	<path class="st4" d="M465.5,362.7c0,48.6-39.4,88-88,88h-246c-48.6,0-88-39.4-88-88V146c0-48.6,39.4-88,88-88h246
		c48.6,0,88,39.4,88,88V362.7z"/>
</g>
<rect x="129.5" y="124.5" class="st5" width="255" height="248"/>
<path class="st6" d="M224.3,103.2v81.3h13.5v-81.3H224.3z M278.5,130.3v40.6H292v-40.6H278.5z M170.1,143.8V198h13.5v-54.2H170.1z
	 M129.5,211.5v94.8c0,45,36.2,81.3,81.3,81.3H143v13.5h189.6v-13.5H265c35.5,0,65.4-22.6,76.6-54.2h25c18.8,0,33.9-15.1,33.9-33.9
	v-27.1c0-18.8-15.1-33.9-33.9-33.9h-20.3v-27.1H129.5z M143,225.1h189.6v81.3c0,37.5-30.2,67.7-67.7,67.7h-54.2
	c-37.5,0-67.7-30.2-67.7-67.7V225.1z M346.2,252.2h22.6c10,0,18,8,18,18v31.8c0,10-8,18-18,18H345c0.7-4.4,1.2-8.9,1.2-13.5V252.2z"
	/>
</svg>
