<?xml version="1.0" encoding="utf-8"?>
<!-- Generator: Adobe Illustrator 24.0.1, SVG Export Plug-In . SVG Version: 6.00 Build 0)  -->
<svg version="1.1" id="Layer_1" xmlns="http://www.w3.org/2000/svg" xmlns:xlink="http://www.w3.org/1999/xlink" x="0px" y="0px"
	 viewBox="0 0 512 512" style="enable-background:new 0 0 512 512;" xml:space="preserve">
<style type="text/css">
	.st0{display:none;}
	.st1{opacity:0.9;}
	.st2{fill:#B7B7B7;}
	.st3{fill:#FFFFFF;}
	.st4{fill:#FFFFFF;stroke:#7F7F7F;stroke-width:2;stroke-miterlimit:10;}
	.st5{fill:none;}
	.st6{fill:#80ADFF;}
</style>
<g id="Layer_1_1_">
	<g id="Layer_2_1_" class="st0">
	</g>
	<g id="shadows">
		<g class="st1">
			<g>
				<path class="st2" d="M466.5,381.5c0,48.6-39.4,88-88,88h-246c-48.6,0-88-39.4-88-88V164.8c0-48.6,39.4-88,88-88h246
					c48.6,0,88,39.4,88,88V381.5z"/>
			</g>
		</g>
		<g>
			<g>
				<path class="st3" d="M466.5,360.5c0,48.6-39.4,88-88,88h-246c-48.6,0-88-39.4-88-88V143.8c0-48.6,39.4-88,88-88h246
					c48.6,0,88,39.4,88,88V360.5z"/>
			</g>
		</g>
	</g>
	<path class="st4" d="M465.5,362.7c0,48.6-39.4,88-88,88h-246c-48.6,0-88-39.4-88-88V146c0-48.6,39.4-88,88-88h246
		c48.6,0,88,39.4,88,88V362.7z"/>
</g>
<rect x="129.5" y="124.5" class="st5" width="255" height="248"/>
<path image-rendering="auto" color-rendering="auto" text-rendering="auto" shape-rendering="auto" class="st6" d="M257,108.7
	c-79.5,0-143.5,64-143.5,143.5s64,143.5,143.5,143.5s143.5-64,143.5-143.5S336.5,108.7,257,108.7 M257,121.7c21.7,0,42,5.3,60,14.6
	c0.1,0.5,0,0.9,0,1.5c0.8,0.3,1.2,1.7,2.5,2.5c0.5,0.3,0.8,0.4,1.2,0.6c0.8,0.4,1.4,1.1,1.2,1.8c-0.2,1.1-1.7,1-2.5,1.8
	c0.1,1.5-0.8,1.4-1.2,2.5c0.2,0.7,1.1,0.4,1.2,1.2c-0.1,0.8-1.5,1-1.2,1.8c1.4,1.1,2.9,0.2,4.3,0c2.9-0.4,5.5,0.2,7.3-1.2
	c-0.2-1.4,2-1.8,1.8-3.1c-0.1-0.9-1.7-1.2-2.5-1.8c-0.2-0.1-0.4-0.5-0.5-0.8c2.2,1.4,4.2,2.9,6.3,4.5c-0.5,0.4-0.9,0.9-1.4,1.2
	c-0.5,0.2-1.3,0.3-1.8,0.6c-0.7,0.5-1,1.3-1.8,1.8c-0.6,0.4-2.4,1.8-3.1,1.8c-0.8,0-1.9-0.8-2.5-0.6c-0.8,0.2-0.3,1.5-1.2,1.8
	c-1.7,0.6-4.9-1.4-5.5,1.2c0.7,1.5,3,1,4.3,1.8c0.8,0.5,2.2,2.8,2.5,3.7c0.2,0.7,0.3,3.5,0,4.3c-0.8,2.1-3.1,1.9-5.5,1.8
	c-0.7,0-1.2,0.1-1.8,0c-4-0.3-7.9-1.7-9.8,1.2c0.1,2.2,0.5,3.6,0,5.5c-0.4,1.4-1.9,2.4-1.8,3.7c0,0.6,1.1,1.6,1.2,2.5
	c0.1,0.5-0.2,1.4,0,1.8c0.7,1.3,2.5-0.2,3.7,0c1.1,0.2,2.5,1.8,2.5,3.1c0,0.9-0.7,2.8-1.3,3.7c-1.1,1.7-3.2,1.5-4.9,2.5
	c-1.4,0.8-1.6,2.3-2.5,3.7c-0.9,1.5-1.6,2.2-1.2,4.3c-1.2,2.3-2.5,3.8-4.9,4.9c-0.7,0.3-1.8,0.8-2.5,1.2c-0.5,0.4-1.1,1-1.8,1.8
	c-0.9,1-2,1.7-2.5,2.5c-0.4,0.6-0.2,1.6-0.6,2.5c-0.6,1.1-1.7,2-2.5,3.1c-0.3,0.5-0.9,1.2-1.2,1.8c-0.8,1.5-2,2.9-1.8,4.3
	c0.1,1.3,1.8,1.3,1.8,2.5c0.1,0.6-0.6,1.1-0.6,1.8c0,1,0.5,1.7,0.6,2.5c0.2,1.9-0.9,2.3-1.2,3.7c-0.2,0.6,0.2,1.3,0,1.8
	c-0.3,1-1.8,1.9-1.8,3c0,0.8,1.1,1.3,1.2,2.5c0.1,0.8-0.7,1.7-0.6,2.5c0.3,1.4,3.2,3.2,4.3,4.3c1.5,1.5,3,2.7,3.7,4.3
	c0.5,1.3,0.8,3.3,1.8,4.3c0.8,0.7,2.1,1.1,3.1,1.8c0.9,0.7,2.1,1.1,3,1.8c1.6,1.3,3.6,3.8,6.1,3.7c1.3-0.1,2.8-1,4.3-1.2
	c1.5-0.3,3.3-0.7,4.9-0.6c1.2,0.1,2.4,0.7,3.7,0.6c1.3-0.1,2.8-0.6,4.3-1.2c2.6-1.1,6.6-3,10.4-2.5c2.9,0.4,2.9,3.6,4.9,4.9
	c2.3,0.2,4.3-0.4,6.1,0c1.4,0.3,2.9,2.6,3.1,3.7c0.1,1.1-1.1,2.3-1.2,3c-0.4,1.5-0.4,3.3-0.6,4.3c-0.2,0.8-0.6,1.7-0.6,2.5
	c0,0.7,1.1,2.2,1.8,3.1c0.9,1.1,2,1.9,3,3.1c1.9,2.2,2.9,5,4.3,7.9c0.3,0.7-0.3,0.9,0,1.8c-0.6,4.4-2,7.4-4.9,12.2
	c-1.4,1.6-3.1,3.5-3.1,5.5c-0.1,4.7,2.6,7.1,2.5,11.6c-0.5,6.1-0.1,7.1-0.6,10.4c2.1,1,1.2,3.9,0.6,6.1c-0.9,2.6-2,3.2-2.5,4.9
	c1.6,0.7,3.4,0.5,5.2,0.1c-23.8,25.3-57.5,41.2-95.1,41.2c-16,0-31.3-3-45.4-8.2c-0.5-0.2-1.1-0.3-1.6-0.6c-0.8-0.5-1.3-1.5-1.2-2.5
	c1.4-0.6,3.9,1.3,4.9-0.6c0.5-0.9-0.7-2.8,0-3.7c0.5-0.6,3.3-1.1,4.3-1.2c1.4-0.2,2.9-0.1,3.7-0.6c0.9-0.5,2-2,1.8-3.7
	c-0.1-0.8-0.6-1.2-1.2-1.8c-0.5-0.6-0.3-1.3-0.6-1.8c-0.6-0.9-1.6-1.1-1.8-2.5c1.9-0.4,4.6,2,7.3,1.2c1.3-0.4,3.1-3.1,3.7-4.3
	c0.2-0.4-0.2-1.4,0-1.8c0.2-0.5,1.2-1,1.3-1.2c0.2-0.7-0.2-0.8,0-1.2c0.5-1.3,1.7-2.1,2.5-3.1c0.6-0.7,1.3-1.7,1.8-2.5
	c0.6-0.8,0.8-1.1,1.2-1.8c0.4-2.4-1.2-4-0.6-6.1c0.6-2.3,3.8-3.8,6.1-4.9c0.8-0.4,1.8-1,2.5-1.2c1.6-0.5,3.4-0.7,4.9-1.2
	c2.5-0.9,3.1-3.3,4.3-5.5c0.6-1,1.1-2.3,1.3-3.1c0.1-0.7-0.1-1,0-1.8c0.1-0.8,0.4-1.6,0.6-2.5c0.3-1.1,0.6-3,0.6-4.3
	c0-1-0.6-1.5-0.6-2.5c-0.2-3.4,1.2-3.7,2.5-5.5c0.6-0.9,0.8-2.4,1.2-3c2.1-3.1,5.8-4.4,5.5-9.2c-0.1-1.6-0.7-5-1.8-5.5
	c-0.7-0.3-2.1-0.2-3.1-0.6c-3.1-1.1-5.3-4.7-8.6-4.9c-0.7,0-1.1,0-1.8,0c-1.3,0-2.8-1.1-4.3-1.2c-0.9-0.1-2.5,0.3-3.1,0
	c-0.8-0.4-0.6-2-1.2-2.5c-0.5-0.4-1.7-0.3-2.5-0.6c-1.3-0.5-2.2-1.1-3.7-1.2c-0.5,0-1.3,0.1-1.8,0c-0.8-0.1-1.7-0.8-2.5-1.2
	c-0.9-0.6-1.4-1-1.8-1.8c0.9-2.8-1.9-3.3-2.5-4.9c-0.3-0.8,0.3-1.8,0-2.5c-0.3-1-1.4-1.6-2.5-2.5c-1.9-1.5-3.4-2.7-6.1-3.1
	c-1.2-0.1-2.8,0.1-4.3,0c-1.5-0.1-3.1-1.1-4.3-2.5c-1.1-1.3-1.5-2.5-2.5-3.1c-0.9-0.6-2.4-0.6-3.1-1.2c-0.3-0.3-0.3-0.6-0.6-1.2
	c-0.5-0.9-1.2-1.3-0.6-2.5c-1-0.5-0.7,0.8-1.8,0.6c-1-1.4-2-2.3-4.3-1.8c-1,0.2-1.8,1.8-3.1,1.8c-1,0-1.7-1.7-3.1-1.8
	c-1-0.1-2.3,0.8-3.1,0.6c-1.1-0.2-1.4-1.2-2.5-1.8c-0.8-0.5-2-1.8-2.5-1.8c-1.3,0-2.5,2.8-4.3,1.8c-0.9-1.1,1.6-1.4,0.6-2.5
	c-0.8-0.8-1.2,0.2-1.8,0.6c-0.7,0.5-1.6,0.9-2.5,1.2c-1.8,0.7-2.9,0.5-4.3,1.2c-1.3,0.7-1.7,1.7-2.5,3.1c-0.6,1.1-1.5,3-2.5,3
	c-1.1,0.1-2.1-1.4-3.1-1.8c-3-1.3-4.8,0.6-7.3,0.6c-2.3,0-5.6-3.3-5.5-5.5c0.1-1.3,1.1-3.2,1.2-4.9c0.1-1.3,1.2-2.5,1.2-3.7
	c0-1.6-2.6-2.8-3.7-3c-2.5-0.4-5.7,1.1-8.5,0c-0.5-0.9,0.9-1.6,1.2-2.5c0.2-0.5-0.2-0.7,0-1.2c0.3-0.8,1.4-1.6,1.8-2.5
	c0.3-0.7,0.3-1.6,0.6-2.5c0.3-0.9,1.1-1.8,1.2-2.5c0.1-0.9-0.5-1.9-1.2-2.5c-2.2,0.1-3.7,0-4.9,0.6c-2.8,1.3-2,5.2-4.9,6.1
	c-1,0.3-2.6,0.4-3.7,0.6c-0.5,0.1-1,0.2-1.6,0.3c1.8-9.5,4.6-18.6,8.4-27.2c0.6,0,1.3-0.1,1.7,0c1,0.2,1.6,1.1,2.5,1.2
	c2.4,0.2,2.9-2,4.9-3.1c2,0.3,3.1-0.2,4.9,0c1.3,0.1,2.7,1.8,3.7,1.8c0.8,0,1.1-0.7,1.8-0.6c0.8,0.1,2.3,1.5,2.5,2.5
	c0.1,1.2-1,2.4-0.6,3.7c1.2,1.3,3.8,1.7,5.5,2.5c1.1-0.9,0.2-2.9,0-4.3c0-0.6,0.1-1.3,0-1.8c-0.1-0.9-0.6-1.6-0.6-2.5
	c0-3.7,3-5.3,5.5-6.7c1.1-0.6,2.1-2,3.1-2.5c1.3-0.7,2-0.6,3.1-1.2c2-1.1,4-2.4,5.5-3.7c0.7-1.7-0.1-3.8,0-5.5
	c0.7-0.4,1.1,0.1,1.8,0c1.2-0.3,1.8-1.8,2.5-2.5c0.4-0.4,1.3-0.8,1.8-1.2c1.2-0.9,1.4-2,2.5-2.5c0.4-0.1,1.3-0.5,1.8-0.6
	c0.8-0.2,1.8-0.8,3.1-1.2c0.8-0.3,2.7-0.3,3.1-0.6c0.4-0.4-0.1-1.9,0-2.5c0.6-2.9,5.3-3.3,7.9-4.3c1.8-0.7,3.5-2.2,5.5-1.8
	c-0.4,1.4-2.2,1.4-1.8,3.1c0.4,2.4,3.4-0.9,4.3-1.2c1.6-0.7,4.6-1.1,6.7-1.8c1.8-0.7,4.8-1.6,3.1-3.7c-1.4-0.1-1.8,1.3-3.1,1.8
	c-0.9,0.1-1.1-0.5-1.8-0.6c-0.7,0-1.1,0.7-1.8,0.6c-0.7-0.1-1.7-1.6-1.8-2.5c-0.3-2.2,2.2-2.7,3.1-4.3c-0.6-2-3.2-0.4-4.9-1.2
	c0.2-1.2,1.1-2.2,2.5-2.5c1.1-0.2,3.6,0,4.3,0.6c0.4,0.3,0,1.3,0.6,1.8c0.7,0.6,1.6,0.1,2.5,0c0.3-1.5-2.1-0.9-1.8-1.8
	c1.8-1.1,5.2-0.3,7.3-0.6c1.3-0.2,2.5-1.2,3.7-1.8c1-0.6,2-1.6,3.1-0.6c0.3,1.1-0.6,1.9-1.2,2.5c-2,1.8-3.9,3.4-5.5,5.5
	c1,0.9,2.7,0.4,4.3,0.6c0.6,0.1,1.2,0.5,1.8,0.6c0.8,0.1,1.8-0.1,2.5,0c1.1,0.3,1.4,1.8,2.5,1.8c1.8,0,1.6-1.9,0.6-3.1
	c0.3-1.2,1.1-2.2,0.6-3.1c-0.8-1.6-4.1,0.2-4.3-1.8c-0.1-1.3,1.4-1.5,1.8-2.5c-0.2-2.5,2.1-2.6,1.8-4.9c-0.1-0.9-1.2-1-1.8-1.8
	c-0.3-0.5-0.2-1.5-0.6-1.8c-1.4-1.1-4.1-0.8-4.3-3c-0.1-1.3,0.2-2.3,0-3.7c-0.2-1.3-1.3-5.2-2.5-5.5c-1.5-0.3-2.5,2.2-4.3,3.1
	c-0.9,0.4-2.7,0.8-3.7,0.6c-0.6-0.1-1.8-0.6-1.8-1.8c-0.1-1.4,1-1.6,1.2-3.1C232.8,123.4,244.6,121.6,257,121.7 M204.3,132.7
	c-0.4,5.4-5.2,8.1-10.8,8c-1.2,1.1-0.6,3.3-1.2,4.9c-0.5,1.3-2.3,2.6-3.7,2.5c-1-0.1-2.5-1.6-2.5-2.5c0-1.1,1.6-1.7,0.6-3
	c0-0.3,0.4-0.5,0.7-0.8C192.8,138.3,198.4,135.3,204.3,132.7 M313.2,138.9c-0.5,0.1-0.7,0.3-1.2,0.6c-1,0.6-1.1,1.6-1.8,1.8
	c-1.1,0.4-2.3,0.3-2.5,1.2c-0.1,0.8,0.6,1.1,0.6,1.8c-0.4,1-1,1.3-1.2,2.5c1.3,2.2,4.4-0.1,6.1-0.6c0.7-0.2,1.4,0,1.8-0.6
	c0.4-0.7,0.2-2,0.6-3c0.4-1.1,1.4-0.9,1.2-1.8C316.8,139.8,314.9,138.8,313.2,138.9 M170.4,154.5c1.3,0.7,3.4,3.6,1,4.6
	c-0.3,0.1-3.7,0.7-4.3,0.6c-0.5-0.1-0.9-0.5-1.4-1C167.3,157.2,168.9,155.9,170.4,154.5 M175,160.3c0.6,0,1.1,1.2,1.8,1.2
	c0.7,0.1,1.4-0.7,1.8-0.6c1.1,0.3,1.6,2.2,0.6,3.1c-0.9,0.1-1.2-0.7-1.8-0.6c-1.8,0.3-2.4,3.8-3.7,3.7c-1.3-0.1-1.9-2.8-0.6-3.7
	c0-0.8-0.7-1.1-0.6-1.8C173,161.1,174,160.2,175,160.3L175,160.3z M168.9,160.9c0.4,0,0.5-0.2,0.6,0c-0.2,1.4-0.7,1.8-1.8,2.5
	c-1.9,1.1-3.1,2.5-3.7,4.9c-0.2,0.7-2.1,2.6-3,2.5c-2.1-0.4,0.8-4.3,1.2-4.9c0.5-0.7,1.2-1.1,1.8-1.8c0.6-0.7,0.7-2,1.2-2.5
	C165.9,161.1,167.9,160.9,168.9,160.9L168.9,160.9z M353.5,164.4c0.8,0.9,1.7,1.8,2.5,2.7C355.2,166.2,353.8,165.8,353.5,164.4
	 M345.6,164.7c2.1-0.1,3.3,2.4,4.3,3.7c0.8,1,3,2.3,4.3,3.1c0.7,0.4,1.6,0.9,2.5,1.2c1.7,0.8,4.8,3.2,4.9,4.9c0,0.8-0.7,1.7-0.6,2.5
	c1.3,0.2,2.4-1.8,2.5-3.1c0-0.3-0.1-0.5-0.2-0.7c3.7,5.2,7,10.6,9.9,16.3c-1.1,0.3-2.1,0.9-2.3,2c-0.3,1.5,1,3.4-1.2,3.7
	c-1.4,0.2-3-1.4-4.9-1.8c-0.8-0.2-1.8,0.2-2.5,0c-1.4-0.5-1.2-2.2-2.5-3c-0.7-0.5-2.6-1.1-3.7-1.2c-0.7-0.1-1.1,0.1-1.8,0
	c-0.9-0.1-2.3-0.2-3.1-0.6c-0.7-0.4-2.3-1.2-2.5-1.8c-0.3-1,1.8-2.2,1.8-3c0.1-0.6-0.5-0.9-0.6-1.8c-0.1-0.6,0.1-1.5,0-1.8
	c-0.2-0.7-1.4-1.2-2.5-1.2c-0.9,0-1.6,0.6-2.5,0.6c-1.1,0-3.5-0.7-4.9-0.6c-0.9,0.1-1.7,0.6-2.5,0.6c-2.3,0.2-3.7-0.1-5.5,0
	c-1.3,0.1-3.7,0.7-4.9,1.2c-0.6,0.3-1.1,0.8-1.8,1.2c-0.4,0.2-0.8,0.4-1.2,0.6c-0.7,0.3-1.7,1.1-2.5,1.3c-1,0.3-2.4-0.1-4.3,0
	c-1.3,0.1-3.6-0.2-3.7-1.8c0-2.4,4.4-1.4,6.7-1.8c0.9-0.2,1.4-1.2,2.5-1.8c0.5-0.3,0.8-0.3,1.2-0.6c0.8-0.5,2.3-1.8,2.5-2.5
	c0.1-0.6-0.7-1.4-0.6-1.8c0.1-0.5,1.1-1.1,1.8-1.8c1.1-1.1,1.7-2.3,3.1-3.1c0.9-0.5,2.6-0.5,3.1-1.2c0.1-0.8,0-1.1,0-1.8
	c0.6-0.5,0.8-1.1,1.2-1.2c1.4-0.3,2.6,0.7,4.3,0.6c0.7,0,1.7-0.1,2.5-0.6c0.6-0.4,1.2-0.9,1.8-1.2
	C344.4,165.5,344.7,164.7,345.6,164.7 M182.3,165.9L182.3,165.9c0.6,0,1.2,0,1.9,0c0.7,0,1.6-0.3,1.8,0c-0.4,1.7-4.1,1.2-5.5,0.6
	C180.6,165.8,181.5,165.9,182.3,165.9 M356,167.1c0.7,0.9,1.5,1.7,2.2,2.6c-0.1-0.1-0.3-0.1-0.4-0.2C357.1,169,356.8,168,356,167.1
	 M176.2,168.9c0.4,0,0.8-0.2,1.3,0c-1.2,1-2.8,1.8-4.9,2.5c-1,0.3-2.3,0.5-2.5-0.6c-0.2-1.4,1-1.1,1.8-1.2
	C173.1,169.4,174.9,169,176.2,168.9L176.2,168.9z M346.2,168.9c-0.9,0.3-1.3,2.2,0,2.5c0.6-0.4,0.8-1.4,0.6-2.5
	C346.5,168.6,346.5,168.8,346.2,168.9 M345.6,172.6c-0.4,0.1-0.8,0.1-1.2,0.6c0,1.5,0.3,2.4,0,3.7c0.8,1.6,2.6,0.5,3-0.6
	C347.9,173.6,346.9,172.3,345.6,172.6 M357.2,180c-1.1-0.1-2.3,0-3,0.6c1,1.6,2.7,2.1,4.9,2.5c0.8-0.6,0.9-2,1.2-3
	C359.4,180,358.4,180,357.2,180L357.2,180z M128,233.7c1.5,1.3,2.5,3.6,4.3,4.4c0.7,0.3,1.6,0.4,2.5,0.6c0.7,0.1,1.2,0.4,1.8,0.6
	c1.4,0.5,3.2,0.8,4.3,1.3c1.7,0.7,2.8,3.4,4.3,4.3c0.1,0.8-0.3,1.8,0,2.5c0.7,0.9,2,1.2,3.1,1.8c1.3,0.7,1.8,2.5,3,3.1
	c0.4,0.2,1.2-0.2,1.8,0c1.7,0.5,2.2,2.9,3.7,2.5c1-0.3,1.1-1.5,1.2-2.5c0.7-0.7,1.4-1.8,2.5-1.8c1.6,0,1.9,2.1,2.5,3.7
	c0.3,0.9,1,1.5,1.2,2.5c0.4,1.6,0.3,6.4,0,7.3c-0.4,1.2-2.1,1.7-3.1,3c-0.5,0.6-0.9,1.4-1.2,1.8c-0.6,0.8-1.3,1.1-1.8,1.8
	c-0.3,0.4-0.4,1.3-0.6,1.8c-0.8,1.7-1.9,2.9-1.2,4.9c0.3,0.8,1.2,1.5,1.2,2.5c0,1.1-2.3,1.8-2.5,3.1c-0.1,0.9,0.9,2.4,1.2,3.7
	c0.2,0.9,1.9,1.9,2.5,2.5c0.9,1,1.6,2.4,2.5,3.7c1.6,2.5,2.6,5.5,4.3,7.9c0.9,1.3,2.5,2.3,3.1,3.7c0.3,0.7-0.3,1.8,0,2.5
	c0.9,2.1,5.2,4.5,7.3,5.5c1,0.5,2.1,0.7,3.1,1.3c1.4,0.8,4.2,2.4,4.9,3.7c0.6,1.1,0.9,3.8,1.2,5.5c0.4,2.3-0.1,4.3,0,6.7
	c0.1,1.4,0.6,2.3,0.6,3.7c0,0.5,0,1.4,0,1.8c0,1.6,0.1,3.2,0,4.9c-0.1,0.9-0.1,1.7,0,2.5c0.1,0.8,0.5,1.1,0.6,1.8
	c0.1,0.8-0.7,1.9-0.6,2.5c0.2,1.6,1.5,2.7,1.8,4.3c0.3,1.2,0.7,4.1,0.6,5.5c-0.1,0.8-0.5,1.6-0.6,2.5c-0.1,0.7,0.1,1.2,0,1.8
	c-0.1,0.6-0.2,1.1-0.4,1.6c-36.3-23.1-60.4-63.6-60.4-110C126.6,245.8,127.1,239.7,128,233.7 M178.7,248c1.3-0.6,1,1.7,0,1.8
	C177.8,250,177.8,248.4,178.7,248"/>
</svg>
