<?xml version="1.0" encoding="utf-8"?>
<!-- Generator: Adobe Illustrator 16.0.0, SVG Export Plug-In . SVG Version: 6.00 Build 0)  -->
<!DOCTYPE svg PUBLIC "-//W3C//DTD SVG 1.1//EN" "http://www.w3.org/Graphics/SVG/1.1/DTD/svg11.dtd">
<svg version="1.1" id="Layer_1" xmlns="http://www.w3.org/2000/svg" xmlns:xlink="http://www.w3.org/1999/xlink" x="0px" y="0px"
	 width="512px" height="512px" viewBox="0 0 512 512" enable-background="new 0 0 512 512" xml:space="preserve">
<g id="Layer_1_1_">
	<g id="Layer_2" display="none">
	</g>
	<g id="shadows">
		<g opacity="0.9">
			<g>
				<path fill="#B7B7B7" d="M466.5,381.5c0,48.6-39.4,88-88,88h-246c-48.603,0-88-39.4-88-88V164.833c0-48.601,39.397-88,88-88h246
					c48.6,0,88,39.399,88,88V381.5z"/>
			</g>
		</g>
		<g>
			<g>
				<path fill="#FFFFFF" d="M466.5,360.5c0,48.6-39.4,88-88,88h-246c-48.603,0-88-39.4-88-88V143.833c0-48.601,39.397-88,88-88h246
					c48.6,0,88,39.399,88,88V360.5z"/>
			</g>
		</g>
	</g>
	<path fill="#FFFFFF" stroke="#E2E2E2" stroke-width="10" stroke-miterlimit="10" d="M465.5,362.667c0,48.6-39.398,88-88,88h-246
		c-48.603,0-88-39.4-88-88V146c0-48.601,39.397-88,88-88h246c48.602,0,88,39.399,88,88V362.667z"/>
</g>
<g id="Layer_2_1_">
</g>
<rect x="62.169" y="115.5" fill="none" width="379" height="73"/>
<g id="Layer_1_2_">
	<g id="Layer_2_2_" display="none">
	</g>
	<g id="shadows_1_">
		<g opacity="0.9">
			<g>
				<path fill="#B7B7B7" d="M469.542,381.208c0,48.94-39.676,88.616-88.617,88.616H133.2c-48.941,0-88.618-39.676-88.618-88.616
					v-218.22c0-48.941,39.677-88.618,88.618-88.618h247.725c48.941,0,88.617,39.677,88.617,88.618V381.208z"/>
			</g>
		</g>
		<g>
			<g>
				<path fill="#FFFFFF" d="M469.542,360.061c0,48.941-39.676,88.617-88.617,88.617H133.2c-48.941,0-88.618-39.676-88.618-88.617
					v-218.22c0-48.941,39.677-88.618,88.618-88.618h247.725c48.941,0,88.617,39.677,88.617,88.618V360.061z"/>
			</g>
		</g>
	</g>
	<path fill="#FFFFFF" stroke="#7F7F7F" stroke-width="2" stroke-miterlimit="10" d="M468.536,362.275
		c0,48.939-39.677,88.616-88.618,88.616H132.193c-48.941,0-88.618-39.677-88.618-88.616V144.056
		c0-48.941,39.677-88.618,88.618-88.618h247.725c48.941,0,88.618,39.677,88.618,88.618V362.275z"/>
</g>
<rect x="130.179" y="122.405" fill="none" width="256.788" height="249.741"/>
<rect x="136.388" y="368.5" fill="none" width="230.562" height="51.676"/>
<text transform="matrix(1 0 0 1 80.3877 400.4492)" font-family="'MyriadPro-Regular'" font-size="45">Lobre Office </text>
<text transform="matrix(1 0 0 1 80.3877 400.4492)" fill="none" stroke="#000000" stroke-miterlimit="10" font-family="'MyriadPro-Regular'" font-size="45">Lobre Office </text>
<g>
	<g display="none">
		<path display="inline" fill="#9E5528" d="M150.908,422.76h232.068v28.129H150.908V422.76z"/>
		<path display="inline" fill="#904D24" d="M382.977,422.756v28.126h-26.291l-9.112-28.126H382.977z"/>
		<path display="inline" fill="#C86D36" d="M124.066,501.323c-8.748-2.837-13.54-12.228-10.706-20.974l43.418-133.955
			c2.834-8.746,12.224-13.541,20.971-10.705c8.746,2.836,13.539,12.225,10.704,20.973l-43.416,133.957
			C142.201,499.365,132.812,504.156,124.066,501.323z"/>
		<path display="inline" fill="#AC5E2E" d="M189.272,351.527c0,1.703-0.264,3.431-0.815,5.135L145.04,490.616
			c-2.838,8.746-12.226,13.544-20.972,10.704c-2.831-0.92-5.246-2.52-7.125-4.563c5.694-1.161,10.611-5.271,12.521-11.187
			l43.417-133.953c0.551-1.712,0.816-3.438,0.816-5.143c0-4.197-1.6-8.223-4.397-11.27c2.718-0.561,5.62-0.438,8.451,0.48
			C184.795,337.977,189.272,344.508,189.272,351.527L189.272,351.527z"/>
		<path display="inline" fill="#C86D36" d="M409.819,501.323c8.747-2.837,13.54-12.228,10.706-20.974l-43.417-133.955
			c-2.837-8.748-12.228-13.541-20.974-10.705c-8.745,2.834-13.539,12.225-10.703,20.97l43.416,133.96
			C391.684,499.365,401.073,504.156,409.819,501.323z"/>
		<path display="inline" fill="#AC5E2E" d="M409.819,501.32c-4.829,1.567-9.847,0.807-13.858-1.664
			c6.391-3.933,9.516-11.855,7.102-19.31l-43.418-133.952c-1.271-3.916-3.854-7.047-7.105-9.041c1.104-0.684,2.313-1.248,3.6-1.664
			c8.746-2.84,18.135,1.959,20.974,10.705l43.418,133.952C423.363,489.095,418.564,498.49,409.819,501.32L409.819,501.32z"/>
	</g>
	<path display="none" fill="#D77F4A" d="M450.251,376.953H83.635c-8.42,0-15.247-6.825-15.247-15.247V120.095
		c0-8.422,6.827-15.248,15.247-15.248h366.616c8.421,0,15.248,6.826,15.248,15.248v241.611
		C465.499,370.128,458.672,376.953,450.251,376.953z"/>
	<path display="none" fill="#C86D36" d="M465.5,120.091v241.615c0,8.419-6.828,15.247-15.248,15.247h-15.989
		c8.417,0,15.246-6.828,15.246-15.247V120.091c0-8.419-6.829-15.248-15.246-15.248h15.989
		C458.672,104.844,465.5,111.672,465.5,120.091z"/>
	<path display="none" fill="#91DEB6" d="M435.566,351.572H98.322c-3.022,0-5.473-2.447-5.473-5.471V135.699
		c0-3.023,2.451-5.473,5.473-5.473h337.244c3.021,0,5.473,2.45,5.473,5.473v210.402
		C441.038,349.125,438.588,351.572,435.566,351.572z"/>
	<path display="none" fill="#6ED5A1" d="M441.042,135.699v210.4c0,3.021-2.454,5.476-5.478,5.476h-15.99
		c3.021,0,5.477-2.453,5.477-5.476v-210.4c0-3.023-2.454-5.479-5.477-5.479h15.99C438.588,130.223,441.042,132.676,441.042,135.699
		L441.042,135.699z"/>
	<g>
		<path fill="#54B582" d="M159.198,207.63c3.214,0,5.82-2.605,5.82-5.819c0-3.213-2.606-5.82-5.82-5.82h-32.631
			c-3.213,0-5.82,2.606-5.82,5.82v77.441c0,3.215,2.606,5.82,5.82,5.82h32.63c3.214,0,5.819-2.605,5.819-5.82
			c0-3.214-2.605-5.818-5.819-5.818h-26.81v-27.082h24.405c3.214,0,5.819-2.606,5.819-5.82c0-3.213-2.605-5.82-5.819-5.82h-24.405
			V207.63H159.198z"/>
		<path fill="#54B582" d="M370.229,268.668c-2.464-2.064-6.133-1.744-8.198,0.719c-0.432,0.516-0.896,0.995-1.384,1.43
			c-2.497,2.226-5.684,3.354-9.47,3.354c-10.189,0-18.48-8.292-18.48-18.482c0-10.193,8.292-18.484,18.48-18.484
			c3.705,0,7.278,1.09,10.332,3.153c2.664,1.799,6.282,1.099,8.079-1.564c1.799-2.664,1.1-6.28-1.563-8.081
			c-4.984-3.367-10.812-5.146-16.85-5.146c-16.607,0-30.122,13.513-30.122,30.123c0,16.608,13.515,30.124,30.122,30.124
			c6.632,0,12.584-2.181,17.21-6.302c0.907-0.809,1.771-1.694,2.562-2.641C373.012,274.404,372.691,270.732,370.229,268.668
			L370.229,268.668z"/>
		<path fill="#54B582" d="M287.049,225.926c-6.681,0-12.199,2.381-16.088,6.606c-3.438-4.557-8.529-6.857-15.257-6.857
			c-4.473,0-8.502,1.255-11.908,3.521c-0.671-2.474-2.926-4.297-5.612-4.297c-3.214,0-5.821,2.605-5.821,5.82v48.903
			c0,3.215,2.606,5.819,5.821,5.819c3.214,0,5.82-2.604,5.82-5.819v-25.206c0-0.028,0.004-0.055,0.004-0.083
			c0-10.338,4.59-17.019,11.696-17.019c3.379,0,8.481,0,8.916,14.666c0.013,0.449,0.014,3.412,0.014,3.445v24.197
			c0,3.214,2.606,5.819,5.819,5.819c3.217,0,5.818-2.605,5.818-5.819l0.017-28.583c0.003-11.136,5.853-13.473,10.761-13.473
			c4.698,0,6.15,1.519,6.627,2.018c2.178,2.277,3.107,7.294,2.764,14.915c-0.004,0.087-0.004,0.174-0.004,0.262v24.861
			c0,3.214,2.604,5.819,5.816,5.819c3.217,0,5.821-2.605,5.821-5.819V254.89c0.481-11.153-1.418-18.574-5.984-23.35
			C298.527,227.815,293.469,225.926,287.049,225.926L287.049,225.926z"/>
		<path fill="#54B582" d="M209.48,238.678h-23.246c-3.214,0-5.819,2.606-5.819,5.82s2.605,5.819,5.819,5.819h23.246
			c3.215,0,5.82-2.605,5.82-5.819C215.3,241.285,212.695,238.678,209.48,238.678z"/>
		<path fill="#54B582" d="M209.48,260.023h-23.246c-3.214,0-5.819,2.604-5.819,5.818c0,3.215,2.605,5.82,5.819,5.82h23.246
			c3.215,0,5.82-2.605,5.82-5.82C215.3,262.628,212.695,260.023,209.48,260.023z"/>
		<path fill="#54B582" d="M407.321,234.127c-0.025,0-0.05,0-0.075,0c-2.648,0.034-5.42,0.06-7.984,0.073
			c1.858-2.531,4.188-5.761,7.064-9.872c2.596-3.706,5.224-8.288,5.224-12.926c0-8.498-6.915-15.413-15.413-15.413
			c-7.35,0-13.71,5.229-15.121,12.432c-0.619,3.153,1.436,6.212,4.59,6.831c3.151,0.621,6.213-1.436,6.832-4.589
			c0.347-1.759,1.901-3.035,3.699-3.035c1.985,0,3.615,1.54,3.766,3.486c0.158,2.089-1.986,4.937-3.107,6.538
			c-5.922,8.46-9.453,13.083-11.348,15.566c-2.44,3.192-3.911,5.119-2.949,8.247c0.566,1.848,2.02,3.321,3.88,3.94
			c0.777,0.259,1.363,0.455,8.776,0.455c2.896,0,6.837-0.03,12.238-0.097c3.217-0.04,5.787-2.678,5.746-5.892
			C413.099,236.686,410.502,234.127,407.321,234.127L407.321,234.127z"/>
	</g>
</g>
</svg>
