<?xml version="1.0" encoding="utf-8"?>
<!-- Generator: Adobe Illustrator 16.0.0, SVG Export Plug-In . SVG Version: 6.00 Build 0)  -->
<!DOCTYPE svg PUBLIC "-//W3C//DTD SVG 1.1//EN" "http://www.w3.org/Graphics/SVG/1.1/DTD/svg11.dtd">
<svg version="1.1" id="Layer_1" xmlns="http://www.w3.org/2000/svg" xmlns:xlink="http://www.w3.org/1999/xlink" x="0px" y="0px"
	 width="512px" height="512px" viewBox="0 0 512 512" enable-background="new 0 0 512 512" xml:space="preserve">
<g id="Layer_1_1_">
	<g id="Layer_2" display="none">
	</g>
	<g id="shadows">
		<g opacity="0.9">
			<g>
				<path fill="#B7B7B7" d="M466.5,381.5c0,48.6-39.4,88-88,88h-246c-48.603,0-88-39.4-88-88V164.833c0-48.601,39.397-88,88-88h246
					c48.6,0,88,39.399,88,88V381.5z"/>
			</g>
		</g>
		<g>
			<g>
				<path fill="#FFFFFF" d="M466.5,360.5c0,48.6-39.4,88-88,88h-246c-48.603,0-88-39.4-88-88V143.833c0-48.601,39.397-88,88-88h246
					c48.6,0,88,39.399,88,88V360.5z"/>
			</g>
		</g>
	</g>
	<path fill="#FFFFFF" stroke="#E2E2E2" stroke-width="10" stroke-miterlimit="10" d="M465.5,362.667c0,48.6-39.398,88-88,88h-246
		c-48.603,0-88-39.4-88-88V146c0-48.601,39.397-88,88-88h246c48.602,0,88,39.399,88,88V362.667z"/>
</g>
<g id="Layer_2_1_">
</g>
<g id="Layer_1_2_">
	<g id="Layer_2_2_" display="none">
	</g>
	<g id="shadows_1_">
		<g opacity="0.9">
			<g>
				<path fill="#B7B7B7" d="M469.542,381.208c0,48.94-39.676,88.616-88.617,88.616H133.2c-48.941,0-88.618-39.676-88.618-88.616
					v-218.22c0-48.941,39.677-88.618,88.618-88.618h247.725c48.941,0,88.617,39.677,88.617,88.618V381.208z"/>
			</g>
		</g>
		<g>
			<g>
				<path fill="#FFFFFF" d="M469.542,360.061c0,48.941-39.676,88.617-88.617,88.617H133.2c-48.941,0-88.618-39.676-88.618-88.617
					v-218.22c0-48.941,39.677-88.618,88.618-88.618h247.725c48.941,0,88.617,39.677,88.617,88.618V360.061z"/>
			</g>
		</g>
	</g>
	<path fill="#FFFFFF" stroke="#7F7F7F" stroke-width="2" stroke-miterlimit="10" d="M468.536,362.275
		c0,48.939-39.677,88.616-88.618,88.616H132.193c-48.941,0-88.618-39.677-88.618-88.616V144.056
		c0-48.941,39.677-88.618,88.618-88.618h247.725c48.941,0,88.618,39.677,88.618,88.618V362.275z"/>
</g>
<rect x="130.179" y="122.405" fill="none" width="256.788" height="249.741"/>
<path shape-rendering="auto" image-rendering="auto" color-rendering="auto" text-rendering="auto" fill="#FFCE00" d="
	M177.175,105.741v33.334h11.111v56.205c-12.871,2.592-22.223,13.979-22.223,27.131c0,13.149,9.353,24.537,22.223,27.223v56.113
	h-11.111v33.334h33.334v-33.334h-11.111v-39.261c22.13,43.798,74.817,72.408,133.429,72.595c3.703,0,7.408-0.187,11.11-0.463
	v-11.111c-3.702,0.277-7.407,0.37-11.11,0.37c-61.021-0.093-114.169-32.871-129.17-79.632c10.834-4.074,17.964-14.445,17.964-25.927
	c0-11.574-7.13-21.945-17.964-26.02c15-46.76,68.149-79.539,129.17-79.631c3.703,0,7.408,0.185,11.11,0.463v-11.204
	c-3.702-0.277-7.407-0.37-11.11-0.37c-58.521,0.093-111.206,28.704-133.429,72.41V138.89h11.111v-33.334L177.175,105.741z
	 M188.286,116.852h11.112v11.112h-11.112V116.852z M193.842,205.837c9.167,0,16.667,7.5,16.667,16.667s-7.5,16.667-16.667,16.667
	s-16.667-7.5-16.667-16.667C177.175,213.244,184.675,205.837,193.842,205.837 M188.286,316.951h11.112v11.111h-11.112V316.951z"/>
<rect x="136.388" y="368.5" fill="none" width="230.562" height="51.676"/>
<text transform="matrix(1 0 0 1 82.3877 400.4492)" font-family="'MyriadPro-Regular'" font-size="45">Lobre Office </text>
<text transform="matrix(1 0 0 1 82.3877 400.4492)" fill="none" stroke="#000000" stroke-miterlimit="10" font-family="'MyriadPro-Regular'" font-size="45">Lobre Office </text>
</svg>
