<?xml version="1.0" encoding="utf-8"?>
<!-- Generator: Adobe Illustrator 24.0.1, SVG Export Plug-In . SVG Version: 6.00 Build 0)  -->
<svg version="1.1" id="Layer_1" xmlns="http://www.w3.org/2000/svg" xmlns:xlink="http://www.w3.org/1999/xlink" x="0px" y="0px"
	 viewBox="0 0 512 512" style="enable-background:new 0 0 512 512;" xml:space="preserve">
<style type="text/css">
	.st0{display:none;}
	.st1{opacity:0.9;}
	.st2{fill:#B7B7B7;}
	.st3{fill:#FFFFFF;}
	.st4{fill:#FFFFFF;stroke:#7F7F7F;stroke-width:2;stroke-miterlimit:10;}
	.st5{fill:none;}
	.st6{opacity:0.9;fill:#53C44D;enable-background:new    ;}
</style>
<g id="Layer_1_1_">
	<g id="Layer_2_1_" class="st0">
	</g>
	<g id="shadows">
		<g class="st1">
			<g>
				<path class="st2" d="M466.5,381.5c0,48.6-39.4,88-88,88h-246c-48.6,0-88-39.4-88-88V164.8c0-48.6,39.4-88,88-88h246
					c48.6,0,88,39.4,88,88V381.5z"/>
			</g>
		</g>
		<g>
			<g>
				<path class="st3" d="M466.5,360.5c0,48.6-39.4,88-88,88h-246c-48.6,0-88-39.4-88-88V143.8c0-48.6,39.4-88,88-88h246
					c48.6,0,88,39.4,88,88V360.5z"/>
			</g>
		</g>
	</g>
	<path class="st4" d="M465.5,362.7c0,48.6-39.4,88-88,88h-246c-48.6,0-88-39.4-88-88V146c0-48.6,39.4-88,88-88h246
		c48.6,0,88,39.4,88,88V362.7z"/>
</g>
<rect x="129.5" y="124.5" class="st5" width="255" height="248"/>
<path image-rendering="auto" color-rendering="auto" text-rendering="auto" shape-rendering="auto" class="st6" d="M110,116v287h287
	V116H110z M123.1,129H384v52.2H123.1V129z M123.1,194.3h65.2v39.1h-65.2V194.3z M201.3,194.3h104.3v39.1H201.3V194.3z M318.7,194.3
	H384v39.1h-65.2V194.3z M123.1,246.4h65.2v39.1h-65.2V246.4z M201.3,246.4h104.3v39.1H201.3V246.4z M318.7,246.4H384v39.1h-65.2
	V246.4z M123.1,298.6h65.2v39.1h-65.2V298.6z M201.3,298.6h104.3v39.1H201.3V298.6z M318.7,298.6H384v39.1h-65.2V298.6z
	 M123.1,350.8h65.2v39.1h-65.2V350.8z M201.3,350.8h104.3v39.1H201.3V350.8z M318.7,350.8H384v39.1h-65.2V350.8z"/>
</svg>
